<?xml version="1.0" encoding="utf-8" standalone="no"?>
<!DOCTYPE svg PUBLIC "-//W3C//DTD SVG 1.1//EN"
  "http://www.w3.org/Graphics/SVG/1.1/DTD/svg11.dtd">
<svg xmlns:xlink="http://www.w3.org/1999/xlink" width="488.866765pt" height="200.205pt" viewBox="0 0 488.866765 200.205" xmlns="http://www.w3.org/2000/svg" version="1.1">
 <metadata>
  <rdf:RDF xmlns:dc="http://purl.org/dc/elements/1.1/" xmlns:cc="http://creativecommons.org/ns#" xmlns:rdf="http://www.w3.org/1999/02/22-rdf-syntax-ns#">
   <cc:Work>
    <dc:type rdf:resource="http://purl.org/dc/dcmitype/StillImage"/>
    <dc:date>2026-01-18T23:30:35.749823</dc:date>
    <dc:format>image/svg+xml</dc:format>
    <dc:creator>
     <cc:Agent>
      <dc:title>Matplotlib v3.6.3, https://matplotlib.org/</dc:title>
     </cc:Agent>
    </dc:creator>
   </cc:Work>
  </rdf:RDF>
 </metadata>
 <defs>
  <style type="text/css">*{stroke-linejoin: round; stroke-linecap: butt}</style>
 </defs>
 <g id="figure_1">
  <g id="patch_1">
   <path d="M 0 200.205 
L 488.866765 200.205 
L 488.866765 -0 
L 0 -0 
z
" style="fill: #ffffff"/>
  </g>
  <g id="axes_1">
   <g id="patch_2">
    <path d="M 50.099375 160.20625 
L 235.786765 160.20625 
L 235.786765 11.36625 
L 50.099375 11.36625 
z
" style="fill: #ffffff"/>
   </g>
   <g id="matplotlib.axis_1">
    <g id="xtick_1">
     <g id="line2d_1">
      <path d="M 58.539711 160.20625 
L 58.539711 11.36625 
" clip-path="url(#p69c211c98f)" style="fill: none; stroke: #b0b0b0; stroke-opacity: 0.3; stroke-width: 0.8; stroke-linecap: square"/>
     </g>
     <g id="line2d_2">
      <defs>
       <path id="m0134b1882d" d="M 0 0 
L 0 3.5 
" style="stroke: #000000; stroke-width: 0.8"/>
      </defs>
      <g>
       <use xlink:href="#m0134b1882d" x="58.539711" y="160.20625" style="stroke: #000000; stroke-width: 0.8"/>
      </g>
     </g>
     <g id="text_1">
      <!-- 0 -->
      <g transform="translate(55.539711 175.53875) scale(0.12 -0.12)">
       <defs>
        <path id="TimesNewRomanPSMT-30" d="M 231 2094 
Q 231 2819 450 3342 
Q 669 3866 1031 4122 
Q 1313 4325 1613 4325 
Q 2100 4325 2488 3828 
Q 2972 3213 2972 2159 
Q 2972 1422 2759 906 
Q 2547 391 2217 158 
Q 1888 -75 1581 -75 
Q 975 -75 572 641 
Q 231 1244 231 2094 
z
M 844 2016 
Q 844 1141 1059 588 
Q 1238 122 1591 122 
Q 1759 122 1940 273 
Q 2122 425 2216 781 
Q 2359 1319 2359 2297 
Q 2359 3022 2209 3506 
Q 2097 3866 1919 4016 
Q 1791 4119 1609 4119 
Q 1397 4119 1231 3928 
Q 1006 3669 925 3112 
Q 844 2556 844 2016 
z
" transform="scale(0.015625)"/>
       </defs>
       <use xlink:href="#TimesNewRomanPSMT-30"/>
      </g>
     </g>
    </g>
    <g id="xtick_2">
     <g id="line2d_3">
      <path d="M 101.31213 160.20625 
L 101.31213 11.36625 
" clip-path="url(#p69c211c98f)" style="fill: none; stroke: #b0b0b0; stroke-opacity: 0.3; stroke-width: 0.8; stroke-linecap: square"/>
     </g>
     <g id="line2d_4">
      <g>
       <use xlink:href="#m0134b1882d" x="101.31213" y="160.20625" style="stroke: #000000; stroke-width: 0.8"/>
      </g>
     </g>
     <g id="text_2">
      <!-- 5 -->
      <g transform="translate(98.31213 175.53875) scale(0.12 -0.12)">
       <defs>
        <path id="TimesNewRomanPSMT-35" d="M 2778 4238 
L 2534 3706 
L 1259 3706 
L 981 3138 
Q 1809 3016 2294 2522 
Q 2709 2097 2709 1522 
Q 2709 1188 2573 903 
Q 2438 619 2231 419 
Q 2025 219 1772 97 
Q 1413 -75 1034 -75 
Q 653 -75 479 54 
Q 306 184 306 341 
Q 306 428 378 495 
Q 450 563 559 563 
Q 641 563 702 538 
Q 763 513 909 409 
Q 1144 247 1384 247 
Q 1750 247 2026 523 
Q 2303 800 2303 1197 
Q 2303 1581 2056 1914 
Q 1809 2247 1375 2428 
Q 1034 2569 447 2591 
L 1259 4238 
L 2778 4238 
z
" transform="scale(0.015625)"/>
       </defs>
       <use xlink:href="#TimesNewRomanPSMT-35"/>
      </g>
     </g>
    </g>
    <g id="xtick_3">
     <g id="line2d_5">
      <path d="M 144.08455 160.20625 
L 144.08455 11.36625 
" clip-path="url(#p69c211c98f)" style="fill: none; stroke: #b0b0b0; stroke-opacity: 0.3; stroke-width: 0.8; stroke-linecap: square"/>
     </g>
     <g id="line2d_6">
      <g>
       <use xlink:href="#m0134b1882d" x="144.08455" y="160.20625" style="stroke: #000000; stroke-width: 0.8"/>
      </g>
     </g>
     <g id="text_3">
      <!-- 10 -->
      <g transform="translate(138.08455 175.53875) scale(0.12 -0.12)">
       <defs>
        <path id="TimesNewRomanPSMT-31" d="M 750 3822 
L 1781 4325 
L 1884 4325 
L 1884 747 
Q 1884 391 1914 303 
Q 1944 216 2037 169 
Q 2131 122 2419 116 
L 2419 0 
L 825 0 
L 825 116 
Q 1125 122 1212 167 
Q 1300 213 1334 289 
Q 1369 366 1369 747 
L 1369 3034 
Q 1369 3497 1338 3628 
Q 1316 3728 1258 3775 
Q 1200 3822 1119 3822 
Q 1003 3822 797 3725 
L 750 3822 
z
" transform="scale(0.015625)"/>
       </defs>
       <use xlink:href="#TimesNewRomanPSMT-31"/>
       <use xlink:href="#TimesNewRomanPSMT-30" x="50"/>
      </g>
     </g>
    </g>
    <g id="xtick_4">
     <g id="line2d_7">
      <path d="M 186.85697 160.20625 
L 186.85697 11.36625 
" clip-path="url(#p69c211c98f)" style="fill: none; stroke: #b0b0b0; stroke-opacity: 0.3; stroke-width: 0.8; stroke-linecap: square"/>
     </g>
     <g id="line2d_8">
      <g>
       <use xlink:href="#m0134b1882d" x="186.85697" y="160.20625" style="stroke: #000000; stroke-width: 0.8"/>
      </g>
     </g>
     <g id="text_4">
      <!-- 15 -->
      <g transform="translate(180.85697 175.53875) scale(0.12 -0.12)">
       <use xlink:href="#TimesNewRomanPSMT-31"/>
       <use xlink:href="#TimesNewRomanPSMT-35" x="50"/>
      </g>
     </g>
    </g>
    <g id="xtick_5">
     <g id="line2d_9">
      <path d="M 229.629389 160.20625 
L 229.629389 11.36625 
" clip-path="url(#p69c211c98f)" style="fill: none; stroke: #b0b0b0; stroke-opacity: 0.3; stroke-width: 0.8; stroke-linecap: square"/>
     </g>
     <g id="line2d_10">
      <g>
       <use xlink:href="#m0134b1882d" x="229.629389" y="160.20625" style="stroke: #000000; stroke-width: 0.8"/>
      </g>
     </g>
     <g id="text_5">
      <!-- 20 -->
      <g transform="translate(223.629389 175.53875) scale(0.12 -0.12)">
       <defs>
        <path id="TimesNewRomanPSMT-32" d="M 2934 816 
L 2638 0 
L 138 0 
L 138 116 
Q 1241 1122 1691 1759 
Q 2141 2397 2141 2925 
Q 2141 3328 1894 3587 
Q 1647 3847 1303 3847 
Q 991 3847 742 3664 
Q 494 3481 375 3128 
L 259 3128 
Q 338 3706 661 4015 
Q 984 4325 1469 4325 
Q 1984 4325 2329 3994 
Q 2675 3663 2675 3213 
Q 2675 2891 2525 2569 
Q 2294 2063 1775 1497 
Q 997 647 803 472 
L 1909 472 
Q 2247 472 2383 497 
Q 2519 522 2628 598 
Q 2738 675 2819 816 
L 2934 816 
z
" transform="scale(0.015625)"/>
       </defs>
       <use xlink:href="#TimesNewRomanPSMT-32"/>
       <use xlink:href="#TimesNewRomanPSMT-30" x="50"/>
      </g>
     </g>
    </g>
    <g id="text_6">
     <!-- $t$ [s] -->
     <g transform="translate(133.40307 190.438125) scale(0.12 -0.12)">
      <defs>
       <path id="STIXGeneral-Italic-74" d="M 1894 2739 
L 1862 2534 
L 1325 2534 
L 768 435 
Q 755 384 755 346 
Q 755 243 851 243 
Q 928 243 1030 342 
Q 1133 442 1370 749 
L 1453 704 
Q 1158 256 969 93 
Q 781 -70 538 -70 
Q 243 -70 243 166 
Q 243 230 346 640 
L 845 2534 
L 365 2534 
L 358 2573 
Q 358 2688 570 2733 
Q 730 2771 992 2979 
Q 1254 3187 1421 3437 
Q 1459 3494 1510 3494 
Q 1568 3494 1568 3443 
Q 1568 3411 1562 3398 
L 1382 2739 
L 1894 2739 
z
" transform="scale(0.015625)"/>
       <path id="TimesNewRomanPSMT-20" transform="scale(0.015625)"/>
       <path id="TimesNewRomanPSMT-5b" d="M 1900 -1269 
L 525 -1269 
L 525 4334 
L 1900 4334 
L 1900 4088 
L 994 4088 
L 994 -1025 
L 1900 -1025 
L 1900 -1269 
z
" transform="scale(0.015625)"/>
       <path id="TimesNewRomanPSMT-73" d="M 2050 2947 
L 2050 1972 
L 1947 1972 
Q 1828 2431 1642 2597 
Q 1456 2763 1169 2763 
Q 950 2763 815 2647 
Q 681 2531 681 2391 
Q 681 2216 781 2091 
Q 878 1963 1175 1819 
L 1631 1597 
Q 2266 1288 2266 781 
Q 2266 391 1970 151 
Q 1675 -88 1309 -88 
Q 1047 -88 709 6 
Q 606 38 541 38 
Q 469 38 428 -44 
L 325 -44 
L 325 978 
L 428 978 
Q 516 541 762 319 
Q 1009 97 1316 97 
Q 1531 97 1667 223 
Q 1803 350 1803 528 
Q 1803 744 1651 891 
Q 1500 1038 1047 1263 
Q 594 1488 453 1669 
Q 313 1847 313 2119 
Q 313 2472 555 2709 
Q 797 2947 1181 2947 
Q 1350 2947 1591 2875 
Q 1750 2828 1803 2828 
Q 1853 2828 1881 2850 
Q 1909 2872 1947 2947 
L 2050 2947 
z
" transform="scale(0.015625)"/>
       <path id="TimesNewRomanPSMT-5d" d="M 234 4334 
L 1609 4334 
L 1609 -1272 
L 234 -1272 
L 234 -1025 
L 1141 -1025 
L 1141 4088 
L 234 4088 
L 234 4334 
z
" transform="scale(0.015625)"/>
      </defs>
      <use xlink:href="#STIXGeneral-Italic-74" transform="translate(0 0.28125)"/>
      <use xlink:href="#TimesNewRomanPSMT-20" transform="translate(27.799988 0.28125)"/>
      <use xlink:href="#TimesNewRomanPSMT-5b" transform="translate(52.799988 0.28125)"/>
      <use xlink:href="#TimesNewRomanPSMT-73" transform="translate(86.100769 0.28125)"/>
      <use xlink:href="#TimesNewRomanPSMT-5d" transform="translate(125.016785 0.28125)"/>
     </g>
    </g>
   </g>
   <g id="matplotlib.axis_2">
    <g id="ytick_1">
     <g id="line2d_11">
      <path d="M 50.099375 153.440795 
L 235.786765 153.440795 
" clip-path="url(#p69c211c98f)" style="fill: none; stroke: #b0b0b0; stroke-opacity: 0.3; stroke-width: 0.8; stroke-linecap: square"/>
     </g>
     <g id="line2d_12">
      <defs>
       <path id="m9496d73727" d="M 0 0 
L -3.5 0 
" style="stroke: #000000; stroke-width: 0.8"/>
      </defs>
      <g>
       <use xlink:href="#m9496d73727" x="50.099375" y="153.440795" style="stroke: #000000; stroke-width: 0.8"/>
      </g>
     </g>
     <g id="text_7">
      <!-- 0.00 -->
      <g transform="translate(22.099375 157.607045) scale(0.12 -0.12)">
       <defs>
        <path id="TimesNewRomanPSMT-2e" d="M 800 606 
Q 947 606 1047 504 
Q 1147 403 1147 259 
Q 1147 116 1045 14 
Q 944 -88 800 -88 
Q 656 -88 554 14 
Q 453 116 453 259 
Q 453 406 554 506 
Q 656 606 800 606 
z
" transform="scale(0.015625)"/>
       </defs>
       <use xlink:href="#TimesNewRomanPSMT-30"/>
       <use xlink:href="#TimesNewRomanPSMT-2e" x="50"/>
       <use xlink:href="#TimesNewRomanPSMT-30" x="75"/>
       <use xlink:href="#TimesNewRomanPSMT-30" x="125"/>
      </g>
     </g>
    </g>
    <g id="ytick_2">
     <g id="line2d_13">
      <path d="M 50.099375 88.959135 
L 235.786765 88.959135 
" clip-path="url(#p69c211c98f)" style="fill: none; stroke: #b0b0b0; stroke-opacity: 0.3; stroke-width: 0.8; stroke-linecap: square"/>
     </g>
     <g id="line2d_14">
      <g>
       <use xlink:href="#m9496d73727" x="50.099375" y="88.959135" style="stroke: #000000; stroke-width: 0.8"/>
      </g>
     </g>
     <g id="text_8">
      <!-- 0.25 -->
      <g transform="translate(22.099375 93.125385) scale(0.12 -0.12)">
       <use xlink:href="#TimesNewRomanPSMT-30"/>
       <use xlink:href="#TimesNewRomanPSMT-2e" x="50"/>
       <use xlink:href="#TimesNewRomanPSMT-32" x="75"/>
       <use xlink:href="#TimesNewRomanPSMT-35" x="125"/>
      </g>
     </g>
    </g>
    <g id="ytick_3">
     <g id="line2d_15">
      <path d="M 50.099375 24.477474 
L 235.786765 24.477474 
" clip-path="url(#p69c211c98f)" style="fill: none; stroke: #b0b0b0; stroke-opacity: 0.3; stroke-width: 0.8; stroke-linecap: square"/>
     </g>
     <g id="line2d_16">
      <g>
       <use xlink:href="#m9496d73727" x="50.099375" y="24.477474" style="stroke: #000000; stroke-width: 0.8"/>
      </g>
     </g>
     <g id="text_9">
      <!-- 0.50 -->
      <g transform="translate(22.099375 28.643724) scale(0.12 -0.12)">
       <use xlink:href="#TimesNewRomanPSMT-30"/>
       <use xlink:href="#TimesNewRomanPSMT-2e" x="50"/>
       <use xlink:href="#TimesNewRomanPSMT-35" x="75"/>
       <use xlink:href="#TimesNewRomanPSMT-30" x="125"/>
      </g>
     </g>
    </g>
    <g id="text_10">
     <!-- $v$ [m/s] -->
     <g transform="translate(15.5325 102.64625) rotate(-90) scale(0.12 -0.12)">
      <defs>
       <path id="STIXGeneral-Italic-76" d="M 1325 448 
L 1523 653 
Q 1869 1005 2134 1456 
Q 2400 1907 2400 2131 
Q 2400 2208 2285 2317 
Q 2125 2458 2125 2605 
Q 2125 2701 2195 2761 
Q 2266 2822 2368 2822 
Q 2522 2822 2624 2704 
Q 2726 2586 2726 2445 
Q 2726 2074 2323 1453 
Q 1971 909 1562 474 
Q 1504 416 1421 326 
Q 1338 237 1299 192 
Q 1261 147 1200 86 
Q 1139 26 1110 -3 
Q 1082 -32 1043 -64 
Q 1005 -96 979 -105 
Q 954 -115 928 -115 
Q 870 -115 870 58 
L 870 211 
Q 870 1094 717 1990 
Q 653 2355 579 2470 
Q 506 2586 326 2586 
Q 198 2586 128 2579 
L 128 2662 
Q 480 2720 845 2797 
Q 915 2822 973 2822 
Q 1011 2822 1033 2739 
Q 1056 2656 1165 2093 
Q 1280 1510 1325 448 
z
" transform="scale(0.015625)"/>
       <path id="TimesNewRomanPSMT-6d" d="M 1050 2338 
Q 1363 2650 1419 2697 
Q 1559 2816 1721 2881 
Q 1884 2947 2044 2947 
Q 2313 2947 2506 2790 
Q 2700 2634 2766 2338 
Q 3088 2713 3309 2830 
Q 3531 2947 3766 2947 
Q 3994 2947 4170 2830 
Q 4347 2713 4450 2447 
Q 4519 2266 4519 1878 
L 4519 647 
Q 4519 378 4559 278 
Q 4591 209 4675 161 
Q 4759 113 4950 113 
L 4950 0 
L 3538 0 
L 3538 113 
L 3597 113 
Q 3781 113 3884 184 
Q 3956 234 3988 344 
Q 4000 397 4000 647 
L 4000 1878 
Q 4000 2228 3916 2372 
Q 3794 2572 3525 2572 
Q 3359 2572 3192 2489 
Q 3025 2406 2788 2181 
L 2781 2147 
L 2788 2013 
L 2788 647 
Q 2788 353 2820 281 
Q 2853 209 2943 161 
Q 3034 113 3253 113 
L 3253 0 
L 1806 0 
L 1806 113 
Q 2044 113 2133 169 
Q 2222 225 2256 338 
Q 2272 391 2272 647 
L 2272 1878 
Q 2272 2228 2169 2381 
Q 2031 2581 1784 2581 
Q 1616 2581 1450 2491 
Q 1191 2353 1050 2181 
L 1050 647 
Q 1050 366 1089 281 
Q 1128 197 1204 155 
Q 1281 113 1516 113 
L 1516 0 
L 100 0 
L 100 113 
Q 297 113 375 155 
Q 453 197 493 289 
Q 534 381 534 647 
L 534 1741 
Q 534 2213 506 2350 
Q 484 2453 437 2492 
Q 391 2531 309 2531 
Q 222 2531 100 2484 
L 53 2597 
L 916 2947 
L 1050 2947 
L 1050 2338 
z
" transform="scale(0.015625)"/>
       <path id="TimesNewRomanPSMT-2f" d="M 1794 4444 
L 259 -88 
L 9 -88 
L 1544 4444 
L 1794 4444 
z
" transform="scale(0.015625)"/>
      </defs>
      <use xlink:href="#STIXGeneral-Italic-76" transform="translate(0 0.5625)"/>
      <use xlink:href="#TimesNewRomanPSMT-20" transform="translate(44.399994 0.5625)"/>
      <use xlink:href="#TimesNewRomanPSMT-5b" transform="translate(69.399994 0.5625)"/>
      <use xlink:href="#TimesNewRomanPSMT-6d" transform="translate(102.700775 0.5625)"/>
      <use xlink:href="#TimesNewRomanPSMT-2f" transform="translate(180.483978 0.5625)"/>
      <use xlink:href="#TimesNewRomanPSMT-73" transform="translate(208.267181 0.5625)"/>
      <use xlink:href="#TimesNewRomanPSMT-5d" transform="translate(247.183197 0.5625)"/>
     </g>
    </g>
   </g>
   <g id="line2d_17">
    <path d="M 58.539711 24.477474 
L 209.954782 24.477474 
L 210.808717 34.290551 
L 214.515997 74.816759 
L 214.801521 76.924277 
L 215.372366 83.39901 
L 218.507021 104.297516 
L 218.792209 105.56342 
L 219.362754 110.323456 
L 219.933711 112.970042 
L 220.219295 113.361832 
L 222.214309 120.360156 
L 223.069685 121.64592 
L 223.640251 123.410912 
L 223.925561 122.71709 
L 224.209996 122.94716 
L 225.636236 126.644281 
L 226.777228 129.835607 
L 227.062176 130.433223 
L 227.346429 131.358406 
L 227.346429 131.358406 
" clip-path="url(#p69c211c98f)" style="fill: none; stroke: #ff0000; stroke-opacity: 0.8; stroke-linecap: square"/>
   </g>
   <g id="line2d_18">
    <path d="M 58.539711 153.440795 
L 59.684005 153.440795 
L 59.966085 129.518099 
L 60.251106 141.479447 
L 61.391892 120.119768 
L 61.677751 120.974279 
L 61.964714 119.265515 
L 62.25005 112.430459 
L 62.532666 110.721437 
L 63.10569 98.760347 
L 63.672835 83.381471 
L 63.960711 79.964201 
L 64.245791 74.837651 
L 64.531124 66.293831 
L 64.813756 62.876303 
L 65.102619 61.167539 
L 65.386814 52.623719 
L 65.671651 49.206191 
L 65.955421 50.914955 
L 66.242282 49.206191 
L 66.525365 45.788663 
L 66.810677 44.079899 
L 67.098553 38.953607 
L 67.38221 25.283495 
L 67.665813 21.399893 
L 67.95096 21.865966 
L 68.237421 25.283495 
L 68.523541 21.865709 
L 68.806652 21.865966 
L 69.090504 18.448438 
L 69.379037 20.157202 
L 69.663982 26.992001 
L 70.232117 23.574988 
L 70.518053 23.574473 
L 70.801383 24.428984 
L 71.089902 21.866224 
L 71.374574 21.866224 
L 71.65751 23.574731 
L 71.942888 26.992001 
L 72.230062 28.701023 
L 72.513159 21.866224 
L 72.798647 22.720477 
L 73.0838 26.992516 
L 73.368073 26.992516 
L 73.656487 20.15746 
L 73.938037 23.574731 
L 74.223473 21.54949 
L 74.511924 21.865709 
L 74.796423 25.283752 
L 75.080748 21.865709 
L 75.36778 21.865709 
L 75.650341 25.283752 
L 75.935207 26.992001 
L 76.219677 23.574731 
L 76.507589 25.282979 
L 76.789718 21.866224 
L 77.076956 23.574731 
L 77.359821 23.574731 
L 77.645119 21.865966 
L 77.93473 21.865966 
L 78.216412 23.574473 
L 78.503326 21.865966 
L 78.786291 23.574731 
L 79.071819 23.574731 
L 79.359143 24.428984 
L 79.642842 21.865966 
L 79.93082 25.283495 
L 80.212108 25.283495 
L 80.499109 23.574731 
L 80.784811 25.283495 
L 81.067074 25.283495 
L 81.637817 21.865966 
L 81.922475 25.283495 
L 82.211028 26.992259 
L 82.495627 21.865966 
L 82.78099 23.574731 
L 83.063675 26.992259 
L 83.351264 21.865966 
L 83.636028 21.865966 
L 83.919064 23.574731 
L 84.203381 28.701023 
L 84.488985 30.410044 
L 84.776857 25.283495 
L 85.062294 23.574731 
L 85.345342 28.701023 
L 85.917831 22.720477 
L 86.200745 25.283752 
L 86.489141 23.575246 
L 86.770309 25.283495 
L 87.055713 21.865709 
L 87.340834 23.574473 
L 87.627774 28.700765 
L 87.910241 21.865709 
L 88.198058 23.574731 
L 88.481443 19.840469 
L 89.056122 26.992001 
L 89.339305 25.282979 
L 89.621791 21.866482 
L 89.911205 25.283752 
L 90.195381 26.992001 
L 90.482572 20.15746 
L 90.768565 23.574473 
L 91.048995 21.866224 
L 91.332908 21.865966 
L 91.618838 23.574731 
L 91.904581 26.992001 
L 92.192296 23.574731 
L 92.473627 23.574731 
L 92.759072 26.992259 
L 93.043924 23.574731 
L 93.332426 23.574731 
L 93.617012 30.409787 
L 93.903338 23.574731 
L 94.188781 23.574731 
L 94.469629 21.865966 
L 94.756675 23.574731 
L 95.039992 21.865966 
L 95.328438 23.574731 
L 95.614466 23.574731 
L 96.185033 20.157202 
L 96.469934 26.992259 
L 96.751756 26.992259 
L 97.327727 21.011456 
L 97.608375 26.992259 
L 97.891554 23.574731 
L 98.180696 25.283495 
L 98.467463 23.574731 
L 99.321497 23.574731 
L 99.602176 21.865966 
L 99.892101 23.574988 
L 100.177106 26.992516 
L 100.46157 23.574473 
L 100.747037 23.574731 
L 101.314696 26.992001 
L 101.59844 23.574473 
L 102.170799 25.283495 
L 102.457859 26.992516 
L 102.739412 26.992516 
L 103.024266 21.866224 
L 103.313618 26.992001 
L 103.596012 28.700765 
L 103.879881 21.865966 
L 104.45281 25.283752 
L 104.736758 23.574731 
L 105.022133 26.992259 
L 105.305265 26.992259 
L 105.590237 21.865966 
L 105.875635 26.992516 
L 106.163911 23.574473 
L 106.445976 21.865966 
L 107.020892 30.410044 
L 107.302425 23.574988 
L 107.586995 28.701023 
L 107.875402 28.701023 
L 108.15647 25.283495 
L 108.445539 23.574731 
L 108.731212 26.992259 
L 109.014145 21.865966 
L 109.299881 23.574731 
L 109.582577 23.574731 
L 109.869333 26.992259 
L 110.156381 25.283495 
L 110.438375 24.428984 
L 110.722768 32.118551 
L 111.008058 25.283495 
L 111.297006 28.701023 
L 111.578172 23.574731 
L 111.863058 23.574988 
L 112.149923 30.409787 
L 112.433879 25.283495 
L 112.722675 24.506877 
L 113.00389 21.866224 
L 113.292557 21.865966 
L 113.576389 23.574731 
L 113.861595 21.866224 
L 114.14631 23.574731 
L 114.430127 20.157202 
L 114.716586 23.574731 
L 115.000201 25.283237 
L 115.287517 23.574731 
L 115.570057 25.283495 
L 115.855119 25.283237 
L 116.14339 20.157202 
L 116.428262 21.866224 
L 116.710446 20.157202 
L 116.998526 21.865966 
L 117.284709 26.992259 
L 117.566697 26.992259 
L 118.139017 20.157202 
L 118.421494 28.701023 
L 118.707924 21.865966 
L 118.994191 18.448181 
L 119.276836 25.283752 
L 119.564993 26.992516 
L 119.847534 23.574731 
L 120.132446 21.865709 
L 120.41742 25.283495 
L 120.708113 23.574731 
L 120.988171 25.283752 
L 121.273506 23.574988 
L 121.562573 23.575246 
L 121.843737 21.865966 
L 122.413727 25.283237 
L 122.698936 23.574473 
L 122.986751 28.700765 
L 123.271005 25.283495 
L 123.557151 25.283495 
L 123.843 30.409787 
L 124.128645 23.575246 
L 124.411265 20.157202 
L 124.694846 18.448438 
L 124.979993 25.283495 
L 125.265017 26.992001 
L 125.553626 26.992001 
L 125.835687 21.866482 
L 126.405934 21.865966 
L 126.693437 25.283495 
L 126.976369 25.283495 
L 127.264123 26.992259 
L 127.548787 26.992259 
L 127.831638 25.283495 
L 128.118557 28.701023 
L 128.402994 26.992259 
L 128.686696 23.574988 
L 129.257565 23.574731 
L 129.544048 26.992259 
L 129.828386 26.992259 
L 130.113184 28.701023 
L 130.397889 21.865966 
L 130.68417 22.953385 
L 130.968468 25.283495 
L 131.253428 28.701023 
L 131.540229 21.865966 
L 131.824051 20.157202 
L 132.108543 23.574731 
L 132.396856 25.283495 
L 132.679404 28.701023 
L 132.96448 25.283495 
L 133.250396 26.992259 
L 133.537966 23.574731 
L 133.819479 21.866224 
L 134.106241 26.992516 
L 134.391794 23.574473 
L 134.675408 25.283495 
L 135.245392 26.992259 
L 135.5315 23.574731 
L 135.819123 25.283495 
L 136.102245 25.283752 
L 136.389118 26.992516 
L 136.674405 23.574473 
L 136.958384 28.701023 
L 137.243605 26.992774 
L 137.52917 26.992516 
L 137.812353 26.137748 
L 138.098142 21.866224 
L 138.384387 23.574731 
L 138.667749 23.574731 
L 138.952291 26.992001 
L 139.237403 21.866224 
L 139.523277 23.574731 
L 139.808801 21.865709 
L 140.381775 28.701023 
L 140.663512 23.574473 
L 141.235347 23.574473 
L 141.518811 25.283495 
L 141.805302 25.283495 
L 142.089448 23.574988 
L 142.374473 25.283495 
L 142.659781 25.283495 
L 142.948438 23.574731 
L 143.23061 25.283495 
L 143.515428 21.865966 
L 143.800755 26.992259 
L 144.089849 23.574731 
L 144.656129 25.283495 
L 144.945115 32.118551 
L 145.51172 28.701023 
L 145.79684 25.283495 
L 146.083115 26.992259 
L 146.368181 21.865966 
L 146.652414 21.865966 
L 146.93871 23.574731 
L 147.222392 23.574731 
L 147.511855 26.992259 
L 147.792917 23.574731 
L 148.083282 23.574731 
L 148.363371 21.865966 
L 148.649505 21.865966 
L 148.933759 26.992259 
L 149.504147 26.992001 
L 149.79446 23.574473 
L 150.074117 25.283495 
L 150.362544 30.409787 
L 150.934196 22.720477 
L 151.218572 26.992516 
L 151.789226 26.992516 
L 152.070357 20.15746 
L 152.35568 25.283495 
L 152.640209 25.283495 
L 152.930194 23.257739 
L 153.212273 18.448438 
L 153.496225 23.574731 
L 153.780646 24.428984 
L 154.066726 20.15746 
L 154.354863 25.283752 
L 154.636565 25.283495 
L 155.207151 21.865709 
L 155.77686 28.701023 
L 156.061799 25.283495 
L 156.350697 20.157202 
L 156.637125 28.701023 
L 157.202671 21.865966 
L 157.488212 24.428984 
L 157.776345 22.953385 
L 158.059126 28.701023 
L 158.348312 26.992259 
L 158.628213 26.992259 
L 158.917692 25.283495 
L 159.200982 25.283495 
L 159.483897 20.53687 
L 159.772155 23.574731 
L 160.054632 21.865966 
L 160.340145 23.574731 
L 160.627543 21.865966 
L 160.913979 25.283495 
L 161.19476 21.865966 
L 161.480174 23.574731 
L 161.769384 26.992259 
L 162.335712 23.574731 
L 162.620129 25.283495 
L 163.476204 25.283495 
L 163.760715 23.574731 
L 164.046295 20.15746 
L 164.61749 28.701023 
L 164.902442 21.865966 
L 165.188028 25.283495 
L 165.474192 23.574988 
L 166.041684 23.574988 
L 166.32704 21.865966 
L 167.468167 21.866224 
L 167.755569 20.157202 
L 168.040874 23.574731 
L 168.612712 20.15746 
L 169.181291 23.574731 
L 169.463236 21.865966 
L 170.035362 25.283752 
L 170.891517 25.283495 
L 171.177482 26.992516 
L 171.461946 26.992001 
L 171.747187 23.574731 
L 172.030399 23.574473 
L 172.317383 23.257997 
L 172.60581 21.866224 
L 172.885014 25.282979 
L 173.173604 25.283752 
L 173.455598 23.574731 
L 173.741573 20.157202 
L 174.026775 20.157202 
L 174.313695 19.840469 
L 174.596701 25.283752 
L 174.88175 25.283495 
L 175.167486 23.574731 
L 175.453123 25.283495 
L 175.737813 25.283495 
L 176.02549 21.865709 
L 176.307096 26.992259 
L 176.595054 28.701023 
L 176.880625 25.283495 
L 177.162954 28.701023 
L 177.45055 28.701023 
L 177.735697 25.283495 
L 178.018493 20.157202 
L 178.876429 25.283495 
L 179.160999 28.701023 
L 179.444824 28.70128 
L 179.728978 25.283495 
L 180.583944 25.283495 
L 180.871745 21.865966 
L 181.15419 28.701023 
L 181.441119 20.157202 
L 181.725212 28.701023 
L 182.010153 24.428984 
L 182.298996 25.283495 
L 182.582346 23.574473 
L 182.865756 25.283495 
L 183.151176 23.574731 
L 183.43613 32.118551 
L 183.721218 21.865966 
L 184.008439 28.701023 
L 184.293725 23.574988 
L 184.576514 23.574988 
L 184.861935 22.720477 
L 185.434377 26.992001 
L 185.717081 26.992516 
L 186.004883 25.283495 
L 186.290659 26.992516 
L 186.572057 25.283237 
L 186.857879 25.283495 
L 187.146006 21.865709 
L 187.42809 21.865709 
L 187.714773 32.118293 
L 188.00321 25.283752 
L 188.284019 28.701023 
L 188.569078 25.283752 
L 188.854019 28.701023 
L 189.710658 23.574731 
L 189.99432 28.701023 
L 190.279623 23.574731 
L 190.567794 25.283495 
L 190.850606 21.866224 
L 191.134705 23.574731 
L 191.419838 24.428984 
L 191.706168 23.574731 
L 191.990826 21.865966 
L 192.275626 25.283495 
L 193.13111 20.157202 
L 193.986048 25.283495 
L 194.273692 23.574731 
L 194.842962 23.574731 
L 195.126869 26.992259 
L 195.417462 28.701023 
L 195.699171 28.701023 
L 195.9838 21.865966 
L 196.555265 30.409787 
L 196.837401 26.992259 
L 197.122981 26.232922 
L 197.410221 23.574731 
L 197.98055 26.992259 
L 198.265599 25.283495 
L 198.549176 26.992259 
L 198.835118 23.574473 
L 199.122964 23.574473 
L 199.403971 21.865966 
L 199.691147 25.283495 
L 199.973863 23.574731 
L 200.54387 23.574731 
L 200.829113 26.137748 
L 201.114435 23.574731 
L 201.401553 18.131705 
L 201.969863 28.701023 
L 202.257347 25.283495 
L 202.540375 23.574473 
L 202.828724 24.833928 
L 203.110225 20.15746 
L 203.39578 23.574731 
L 203.680676 25.283495 
L 203.967647 23.575246 
L 204.25134 25.283752 
L 204.535912 23.574988 
L 204.821597 23.574731 
L 205.108378 25.283495 
L 205.39141 20.157202 
L 205.678203 26.992516 
L 205.962129 25.283495 
L 206.246701 21.865966 
L 206.532788 25.283495 
L 206.817227 21.865966 
L 207.103484 23.574731 
L 207.387314 26.992259 
L 207.958208 23.574731 
L 208.242323 23.574731 
L 208.527819 25.283495 
L 208.812776 21.865966 
L 209.38399 25.283495 
L 209.669064 21.865966 
L 209.954782 23.574731 
L 210.241524 24.428984 
L 210.523955 23.574731 
L 210.808717 23.574731 
L 211.094975 30.409787 
L 211.38001 26.992259 
L 211.950111 40.662371 
L 212.234228 37.244585 
L 213.091119 56.041247 
L 213.375738 59.458775 
L 213.660459 52.623977 
L 213.944897 59.458775 
L 214.231139 71.419865 
L 214.801521 71.420123 
L 215.372366 85.090235 
L 215.656079 83.381729 
L 215.941516 82.527218 
L 216.226967 78.255437 
L 216.512233 85.090235 
L 216.797131 86.798483 
L 217.081277 93.633797 
L 217.366962 90.216269 
L 217.651559 91.925291 
L 217.937589 100.468853 
L 218.22219 100.468853 
L 218.507021 97.051583 
L 218.792209 104.740892 
L 219.362754 110.721953 
L 219.933711 110.721437 
L 220.504005 114.138707 
L 220.78843 119.265515 
L 221.074049 115.847987 
L 221.359096 108.696713 
L 221.644402 115.847987 
L 221.929382 114.139739 
L 222.214309 115.848245 
L 222.499589 121.82879 
L 222.785021 122.682785 
L 223.069685 124.391807 
L 223.355489 124.391549 
L 223.640251 127.809593 
L 224.209996 120.974537 
L 224.780788 120.974279 
L 225.066119 126.100055 
L 225.351195 126.955082 
L 225.636236 126.100571 
L 225.920981 126.100571 
L 226.206387 127.809077 
L 226.49212 127.809593 
L 226.777228 129.517841 
L 227.062176 127.809851 
L 227.346429 134.644133 
L 227.346429 134.644133 
" clip-path="url(#p69c211c98f)" style="fill: none; stroke: #0000ff; stroke-linecap: square"/>
   </g>
   <g id="line2d_19">
    <path d="M 50.099375 24.477474 
L 235.786765 24.477474 
" clip-path="url(#p69c211c98f)" style="fill: none; stroke-dasharray: 3.7,1.6; stroke-dashoffset: 0; stroke: #000000; stroke-opacity: 0.7"/>
   </g>
   <g id="patch_3">
    <path d="M 50.099375 160.20625 
L 50.099375 11.36625 
" style="fill: none; stroke: #000000; stroke-width: 0.8; stroke-linejoin: miter; stroke-linecap: square"/>
   </g>
   <g id="patch_4">
    <path d="M 235.786765 160.20625 
L 235.786765 11.36625 
" style="fill: none; stroke: #000000; stroke-width: 0.8; stroke-linejoin: miter; stroke-linecap: square"/>
   </g>
   <g id="patch_5">
    <path d="M 50.099375 160.20625 
L 235.786765 160.20625 
" style="fill: none; stroke: #000000; stroke-width: 0.8; stroke-linejoin: miter; stroke-linecap: square"/>
   </g>
   <g id="patch_6">
    <path d="M 50.099375 11.36625 
L 235.786765 11.36625 
" style="fill: none; stroke: #000000; stroke-width: 0.8; stroke-linejoin: miter; stroke-linecap: square"/>
   </g>
  </g>
  <g id="axes_2">
   <g id="patch_7">
    <path d="M 295.979375 160.20625 
L 481.666765 160.20625 
L 481.666765 11.36625 
L 295.979375 11.36625 
z
" style="fill: #ffffff"/>
   </g>
   <g id="matplotlib.axis_3">
    <g id="xtick_6">
     <g id="line2d_20">
      <path d="M 304.419711 160.20625 
L 304.419711 11.36625 
" clip-path="url(#p477d59dd90)" style="fill: none; stroke: #b0b0b0; stroke-opacity: 0.3; stroke-width: 0.8; stroke-linecap: square"/>
     </g>
     <g id="line2d_21">
      <g>
       <use xlink:href="#m0134b1882d" x="304.419711" y="160.20625" style="stroke: #000000; stroke-width: 0.8"/>
      </g>
     </g>
     <g id="text_11">
      <!-- 0 -->
      <g transform="translate(301.419711 175.53875) scale(0.12 -0.12)">
       <use xlink:href="#TimesNewRomanPSMT-30"/>
      </g>
     </g>
    </g>
    <g id="xtick_7">
     <g id="line2d_22">
      <path d="M 347.19213 160.20625 
L 347.19213 11.36625 
" clip-path="url(#p477d59dd90)" style="fill: none; stroke: #b0b0b0; stroke-opacity: 0.3; stroke-width: 0.8; stroke-linecap: square"/>
     </g>
     <g id="line2d_23">
      <g>
       <use xlink:href="#m0134b1882d" x="347.19213" y="160.20625" style="stroke: #000000; stroke-width: 0.8"/>
      </g>
     </g>
     <g id="text_12">
      <!-- 5 -->
      <g transform="translate(344.19213 175.53875) scale(0.12 -0.12)">
       <use xlink:href="#TimesNewRomanPSMT-35"/>
      </g>
     </g>
    </g>
    <g id="xtick_8">
     <g id="line2d_24">
      <path d="M 389.96455 160.20625 
L 389.96455 11.36625 
" clip-path="url(#p477d59dd90)" style="fill: none; stroke: #b0b0b0; stroke-opacity: 0.3; stroke-width: 0.8; stroke-linecap: square"/>
     </g>
     <g id="line2d_25">
      <g>
       <use xlink:href="#m0134b1882d" x="389.96455" y="160.20625" style="stroke: #000000; stroke-width: 0.8"/>
      </g>
     </g>
     <g id="text_13">
      <!-- 10 -->
      <g transform="translate(383.96455 175.53875) scale(0.12 -0.12)">
       <use xlink:href="#TimesNewRomanPSMT-31"/>
       <use xlink:href="#TimesNewRomanPSMT-30" x="50"/>
      </g>
     </g>
    </g>
    <g id="xtick_9">
     <g id="line2d_26">
      <path d="M 432.73697 160.20625 
L 432.73697 11.36625 
" clip-path="url(#p477d59dd90)" style="fill: none; stroke: #b0b0b0; stroke-opacity: 0.3; stroke-width: 0.8; stroke-linecap: square"/>
     </g>
     <g id="line2d_27">
      <g>
       <use xlink:href="#m0134b1882d" x="432.73697" y="160.20625" style="stroke: #000000; stroke-width: 0.8"/>
      </g>
     </g>
     <g id="text_14">
      <!-- 15 -->
      <g transform="translate(426.73697 175.53875) scale(0.12 -0.12)">
       <use xlink:href="#TimesNewRomanPSMT-31"/>
       <use xlink:href="#TimesNewRomanPSMT-35" x="50"/>
      </g>
     </g>
    </g>
    <g id="xtick_10">
     <g id="line2d_28">
      <path d="M 475.509389 160.20625 
L 475.509389 11.36625 
" clip-path="url(#p477d59dd90)" style="fill: none; stroke: #b0b0b0; stroke-opacity: 0.3; stroke-width: 0.8; stroke-linecap: square"/>
     </g>
     <g id="line2d_29">
      <g>
       <use xlink:href="#m0134b1882d" x="475.509389" y="160.20625" style="stroke: #000000; stroke-width: 0.8"/>
      </g>
     </g>
     <g id="text_15">
      <!-- 20 -->
      <g transform="translate(469.509389 175.53875) scale(0.12 -0.12)">
       <use xlink:href="#TimesNewRomanPSMT-32"/>
       <use xlink:href="#TimesNewRomanPSMT-30" x="50"/>
      </g>
     </g>
    </g>
    <g id="text_16">
     <!-- $t$ [s] -->
     <g transform="translate(379.28307 190.438125) scale(0.12 -0.12)">
      <use xlink:href="#STIXGeneral-Italic-74" transform="translate(0 0.28125)"/>
      <use xlink:href="#TimesNewRomanPSMT-20" transform="translate(27.799988 0.28125)"/>
      <use xlink:href="#TimesNewRomanPSMT-5b" transform="translate(52.799988 0.28125)"/>
      <use xlink:href="#TimesNewRomanPSMT-73" transform="translate(86.100769 0.28125)"/>
      <use xlink:href="#TimesNewRomanPSMT-5d" transform="translate(125.016785 0.28125)"/>
     </g>
    </g>
   </g>
   <g id="matplotlib.axis_4">
    <g id="ytick_4">
     <g id="line2d_30">
      <path d="M 295.979375 160.20625 
L 481.666765 160.20625 
" clip-path="url(#p477d59dd90)" style="fill: none; stroke: #b0b0b0; stroke-opacity: 0.3; stroke-width: 0.8; stroke-linecap: square"/>
     </g>
     <g id="line2d_31">
      <g>
       <use xlink:href="#m9496d73727" x="295.979375" y="160.20625" style="stroke: #000000; stroke-width: 0.8"/>
      </g>
     </g>
     <g id="text_17">
      <!-- −1.5 -->
      <g transform="translate(267.2125 164.3725) scale(0.12 -0.12)">
       <defs>
        <path id="TimesNewRomanPSMT-2212" d="M 3484 2000 
L 116 2000 
L 116 2256 
L 3484 2256 
L 3484 2000 
z
" transform="scale(0.015625)"/>
       </defs>
       <use xlink:href="#TimesNewRomanPSMT-2212"/>
       <use xlink:href="#TimesNewRomanPSMT-31" x="56.396484"/>
       <use xlink:href="#TimesNewRomanPSMT-2e" x="106.396484"/>
       <use xlink:href="#TimesNewRomanPSMT-35" x="131.396484"/>
      </g>
     </g>
    </g>
    <g id="ytick_5">
     <g id="line2d_32">
      <path d="M 295.979375 135.399583 
L 481.666765 135.399583 
" clip-path="url(#p477d59dd90)" style="fill: none; stroke: #b0b0b0; stroke-opacity: 0.3; stroke-width: 0.8; stroke-linecap: square"/>
     </g>
     <g id="line2d_33">
      <g>
       <use xlink:href="#m9496d73727" x="295.979375" y="135.399583" style="stroke: #000000; stroke-width: 0.8"/>
      </g>
     </g>
     <g id="text_18">
      <!-- −1.0 -->
      <g transform="translate(267.2125 139.565833) scale(0.12 -0.12)">
       <use xlink:href="#TimesNewRomanPSMT-2212"/>
       <use xlink:href="#TimesNewRomanPSMT-31" x="56.396484"/>
       <use xlink:href="#TimesNewRomanPSMT-2e" x="106.396484"/>
       <use xlink:href="#TimesNewRomanPSMT-30" x="131.396484"/>
      </g>
     </g>
    </g>
    <g id="ytick_6">
     <g id="line2d_34">
      <path d="M 295.979375 110.592917 
L 481.666765 110.592917 
" clip-path="url(#p477d59dd90)" style="fill: none; stroke: #b0b0b0; stroke-opacity: 0.3; stroke-width: 0.8; stroke-linecap: square"/>
     </g>
     <g id="line2d_35">
      <g>
       <use xlink:href="#m9496d73727" x="295.979375" y="110.592917" style="stroke: #000000; stroke-width: 0.8"/>
      </g>
     </g>
     <g id="text_19">
      <!-- −0.5 -->
      <g transform="translate(267.2125 114.759167) scale(0.12 -0.12)">
       <use xlink:href="#TimesNewRomanPSMT-2212"/>
       <use xlink:href="#TimesNewRomanPSMT-30" x="56.396484"/>
       <use xlink:href="#TimesNewRomanPSMT-2e" x="106.396484"/>
       <use xlink:href="#TimesNewRomanPSMT-35" x="131.396484"/>
      </g>
     </g>
    </g>
    <g id="ytick_7">
     <g id="line2d_36">
      <path d="M 295.979375 85.78625 
L 481.666765 85.78625 
" clip-path="url(#p477d59dd90)" style="fill: none; stroke: #b0b0b0; stroke-opacity: 0.3; stroke-width: 0.8; stroke-linecap: square"/>
     </g>
     <g id="line2d_37">
      <g>
       <use xlink:href="#m9496d73727" x="295.979375" y="85.78625" style="stroke: #000000; stroke-width: 0.8"/>
      </g>
     </g>
     <g id="text_20">
      <!-- 0.0 -->
      <g transform="translate(273.979375 89.9525) scale(0.12 -0.12)">
       <use xlink:href="#TimesNewRomanPSMT-30"/>
       <use xlink:href="#TimesNewRomanPSMT-2e" x="50"/>
       <use xlink:href="#TimesNewRomanPSMT-30" x="75"/>
      </g>
     </g>
    </g>
    <g id="ytick_8">
     <g id="line2d_38">
      <path d="M 295.979375 60.979583 
L 481.666765 60.979583 
" clip-path="url(#p477d59dd90)" style="fill: none; stroke: #b0b0b0; stroke-opacity: 0.3; stroke-width: 0.8; stroke-linecap: square"/>
     </g>
     <g id="line2d_39">
      <g>
       <use xlink:href="#m9496d73727" x="295.979375" y="60.979583" style="stroke: #000000; stroke-width: 0.8"/>
      </g>
     </g>
     <g id="text_21">
      <!-- 0.5 -->
      <g transform="translate(273.979375 65.145833) scale(0.12 -0.12)">
       <use xlink:href="#TimesNewRomanPSMT-30"/>
       <use xlink:href="#TimesNewRomanPSMT-2e" x="50"/>
       <use xlink:href="#TimesNewRomanPSMT-35" x="75"/>
      </g>
     </g>
    </g>
    <g id="ytick_9">
     <g id="line2d_40">
      <path d="M 295.979375 36.172917 
L 481.666765 36.172917 
" clip-path="url(#p477d59dd90)" style="fill: none; stroke: #b0b0b0; stroke-opacity: 0.3; stroke-width: 0.8; stroke-linecap: square"/>
     </g>
     <g id="line2d_41">
      <g>
       <use xlink:href="#m9496d73727" x="295.979375" y="36.172917" style="stroke: #000000; stroke-width: 0.8"/>
      </g>
     </g>
     <g id="text_22">
      <!-- 1.0 -->
      <g transform="translate(273.979375 40.339167) scale(0.12 -0.12)">
       <use xlink:href="#TimesNewRomanPSMT-31"/>
       <use xlink:href="#TimesNewRomanPSMT-2e" x="50"/>
       <use xlink:href="#TimesNewRomanPSMT-30" x="75"/>
      </g>
     </g>
    </g>
    <g id="ytick_10">
     <g id="line2d_42">
      <path d="M 295.979375 11.36625 
L 481.666765 11.36625 
" clip-path="url(#p477d59dd90)" style="fill: none; stroke: #b0b0b0; stroke-opacity: 0.3; stroke-width: 0.8; stroke-linecap: square"/>
     </g>
     <g id="line2d_43">
      <g>
       <use xlink:href="#m9496d73727" x="295.979375" y="11.36625" style="stroke: #000000; stroke-width: 0.8"/>
      </g>
     </g>
     <g id="text_23">
      <!-- 1.5 -->
      <g transform="translate(273.979375 15.5325) scale(0.12 -0.12)">
       <use xlink:href="#TimesNewRomanPSMT-31"/>
       <use xlink:href="#TimesNewRomanPSMT-2e" x="50"/>
       <use xlink:href="#TimesNewRomanPSMT-35" x="75"/>
      </g>
     </g>
    </g>
    <g id="text_24">
     <!-- $\omega$ [rad/s] -->
     <g transform="translate(260.645625 107.08625) rotate(-90) scale(0.12 -0.12)">
      <defs>
       <path id="STIXGeneral-Italic-3c9" d="M 3021 2810 
L 3136 2810 
Q 3648 2810 3898 2598 
Q 4186 2355 4186 1824 
Q 4186 1357 3910 838 
Q 3667 390 3334 160 
Q 3002 -70 2669 -70 
Q 2438 -70 2281 3 
Q 2125 77 2064 160 
Q 2003 243 1939 384 
Q 1741 147 1533 38 
Q 1325 -70 998 -70 
Q 659 -70 416 160 
Q 173 390 173 832 
Q 173 1101 237 1350 
Q 403 1965 883 2387 
Q 1363 2810 2010 2810 
L 2125 2810 
L 2125 2707 
Q 1606 2707 1267 2291 
Q 1024 1990 867 1526 
Q 710 1062 710 666 
Q 710 64 1075 64 
Q 1286 64 1523 285 
Q 1760 506 1856 774 
Q 1837 915 1837 1101 
Q 1837 1363 1914 1651 
Q 1984 1920 2125 2105 
Q 2266 2291 2432 2291 
Q 2656 2291 2656 1997 
Q 2656 1530 2387 1062 
Q 2272 864 2189 736 
Q 2176 691 2176 602 
Q 2176 384 2288 224 
Q 2400 64 2592 64 
Q 3040 64 3341 627 
Q 3482 896 3565 1270 
Q 3648 1645 3648 1971 
Q 3648 2240 3616 2362 
Q 3565 2566 3411 2636 
Q 3258 2707 3021 2707 
L 3021 2810 
z
" transform="scale(0.015625)"/>
       <path id="TimesNewRomanPSMT-72" d="M 1038 2947 
L 1038 2303 
Q 1397 2947 1775 2947 
Q 1947 2947 2059 2842 
Q 2172 2738 2172 2600 
Q 2172 2478 2090 2393 
Q 2009 2309 1897 2309 
Q 1788 2309 1652 2417 
Q 1516 2525 1450 2525 
Q 1394 2525 1328 2463 
Q 1188 2334 1038 2041 
L 1038 669 
Q 1038 431 1097 309 
Q 1138 225 1241 169 
Q 1344 113 1538 113 
L 1538 0 
L 72 0 
L 72 113 
Q 291 113 397 181 
Q 475 231 506 341 
Q 522 394 522 644 
L 522 1753 
Q 522 2253 501 2348 
Q 481 2444 426 2487 
Q 372 2531 291 2531 
Q 194 2531 72 2484 
L 41 2597 
L 906 2947 
L 1038 2947 
z
" transform="scale(0.015625)"/>
       <path id="TimesNewRomanPSMT-61" d="M 1822 413 
Q 1381 72 1269 19 
Q 1100 -59 909 -59 
Q 613 -59 420 144 
Q 228 347 228 678 
Q 228 888 322 1041 
Q 450 1253 767 1440 
Q 1084 1628 1822 1897 
L 1822 2009 
Q 1822 2438 1686 2597 
Q 1550 2756 1291 2756 
Q 1094 2756 978 2650 
Q 859 2544 859 2406 
L 866 2225 
Q 866 2081 792 2003 
Q 719 1925 600 1925 
Q 484 1925 411 2006 
Q 338 2088 338 2228 
Q 338 2497 613 2722 
Q 888 2947 1384 2947 
Q 1766 2947 2009 2819 
Q 2194 2722 2281 2516 
Q 2338 2381 2338 1966 
L 2338 994 
Q 2338 584 2353 492 
Q 2369 400 2405 369 
Q 2441 338 2488 338 
Q 2538 338 2575 359 
Q 2641 400 2828 588 
L 2828 413 
Q 2478 -56 2159 -56 
Q 2006 -56 1915 50 
Q 1825 156 1822 413 
z
M 1822 616 
L 1822 1706 
Q 1350 1519 1213 1441 
Q 966 1303 859 1153 
Q 753 1003 753 825 
Q 753 600 887 451 
Q 1022 303 1197 303 
Q 1434 303 1822 616 
z
" transform="scale(0.015625)"/>
       <path id="TimesNewRomanPSMT-64" d="M 2222 322 
Q 2013 103 1813 7 
Q 1613 -88 1381 -88 
Q 913 -88 563 304 
Q 213 697 213 1313 
Q 213 1928 600 2439 
Q 988 2950 1597 2950 
Q 1975 2950 2222 2709 
L 2222 3238 
Q 2222 3728 2198 3840 
Q 2175 3953 2125 3993 
Q 2075 4034 2000 4034 
Q 1919 4034 1784 3984 
L 1744 4094 
L 2597 4444 
L 2738 4444 
L 2738 1134 
Q 2738 631 2761 520 
Q 2784 409 2836 365 
Q 2888 322 2956 322 
Q 3041 322 3181 375 
L 3216 266 
L 2366 -88 
L 2222 -88 
L 2222 322 
z
M 2222 541 
L 2222 2016 
Q 2203 2228 2109 2403 
Q 2016 2578 1861 2667 
Q 1706 2756 1559 2756 
Q 1284 2756 1069 2509 
Q 784 2184 784 1559 
Q 784 928 1059 592 
Q 1334 256 1672 256 
Q 1956 256 2222 541 
z
" transform="scale(0.015625)"/>
      </defs>
      <use xlink:href="#STIXGeneral-Italic-3c9" transform="translate(0 0.5625)"/>
      <use xlink:href="#TimesNewRomanPSMT-20" transform="translate(68.599991 0.5625)"/>
      <use xlink:href="#TimesNewRomanPSMT-5b" transform="translate(93.599991 0.5625)"/>
      <use xlink:href="#TimesNewRomanPSMT-72" transform="translate(126.900772 0.5625)"/>
      <use xlink:href="#TimesNewRomanPSMT-61" transform="translate(160.201553 0.5625)"/>
      <use xlink:href="#TimesNewRomanPSMT-64" transform="translate(204.586319 0.5625)"/>
      <use xlink:href="#TimesNewRomanPSMT-2f" transform="translate(254.586319 0.5625)"/>
      <use xlink:href="#TimesNewRomanPSMT-73" transform="translate(282.369522 0.5625)"/>
      <use xlink:href="#TimesNewRomanPSMT-5d" transform="translate(321.285538 0.5625)"/>
     </g>
    </g>
   </g>
   <g id="line2d_44">
    <path d="M 304.419711 85.78625 
L 310.411124 85.691092 
L 311.551651 85.590823 
L 312.978553 85.47577 
L 313.83096 85.409139 
L 314.686652 85.497748 
L 315.259037 85.461332 
L 315.826135 85.471701 
L 316.969902 85.658347 
L 317.254574 84.549538 
L 317.822888 84.50052 
L 318.393159 84.654421 
L 318.678647 84.678136 
L 319.248073 85.066857 
L 319.536487 85.093598 
L 319.818037 84.841612 
L 320.103473 83.417412 
L 320.391924 82.8415 
L 320.676423 82.821704 
L 322.099677 83.475509 
L 322.387589 83.100482 
L 322.956956 83.287177 
L 323.239821 84.727253 
L 323.81473 84.945651 
L 324.096412 84.569533 
L 324.951819 84.954731 
L 325.522842 84.944411 
L 325.81082 85.05748 
L 326.379109 86.336164 
L 326.664811 86.388605 
L 326.947074 86.597031 
L 327.235407 87.16813 
L 327.517817 87.340586 
L 327.802475 87.384196 
L 328.375627 88.185352 
L 328.943675 88.145414 
L 329.231264 87.475336 
L 329.516028 87.103931 
L 329.799064 87.038639 
L 330.083381 87.23739 
L 330.942294 87.095992 
L 331.225342 86.481333 
L 331.510087 86.189011 
L 332.080745 86.053567 
L 332.650309 86.57927 
L 333.220834 86.540174 
L 333.507774 86.304809 
L 333.790241 86.279258 
L 334.361443 86.599065 
L 334.648868 86.599909 
L 335.219305 87.044295 
L 335.501791 87.048909 
L 336.362572 87.390646 
L 336.648565 87.347929 
L 336.928995 86.000828 
L 337.212908 85.969522 
L 337.498838 85.821525 
L 337.784581 86.614148 
L 338.353627 86.519833 
L 338.639072 85.031681 
L 338.923924 84.56988 
L 339.212426 84.49675 
L 340.068781 84.79314 
L 340.349629 85.599257 
L 341.208438 85.533718 
L 341.780302 86.191144 
L 342.349934 86.228106 
L 343.207727 85.662465 
L 344.060696 85.389542 
L 344.628576 86.419763 
L 344.914777 86.447645 
L 345.482176 87.870556 
L 346.057106 87.77887 
L 346.627037 87.540032 
L 346.912247 87.504707 
L 347.194696 86.546029 
L 347.76621 86.268591 
L 348.050799 87.289683 
L 348.337859 87.367774 
L 349.193618 87.167287 
L 349.476012 87.164707 
L 349.759881 87.401164 
L 350.047449 83.593043 
L 350.616758 56.016166 
L 351.185265 45.611407 
L 351.470237 42.071843 
L 352.043911 39.194567 
L 352.325976 36.533556 
L 352.900892 34.302941 
L 353.182425 32.263039 
L 353.755402 30.494869 
L 354.325539 27.064206 
L 354.894145 23.942337 
L 356.036381 20.595223 
L 356.602768 19.517373 
L 357.177006 18.947515 
L 357.458172 18.282001 
L 358.029923 18.066332 
L 358.313879 17.816281 
L 358.88389 17.951973 
L 360.02631 19.298926 
L 360.880201 22.29061 
L 361.735119 23.947745 
L 362.308262 25.898938 
L 362.590446 26.631082 
L 362.878526 26.972322 
L 363.446697 28.682097 
L 363.731989 30.028603 
L 364.019017 32.416145 
L 364.587924 34.496135 
L 365.727534 40.369361 
L 366.29742 42.905198 
L 366.868171 45.760991 
L 367.153506 46.194115 
L 367.442573 47.234408 
L 368.011799 51.724861 
L 368.578936 55.022113 
L 370.291265 62.151103 
L 371.145017 68.729881 
L 372.000551 71.596539 
L 372.573437 73.856129 
L 373.144123 75.228285 
L 373.711638 76.880458 
L 373.998557 77.433895 
L 374.282994 78.258915 
L 374.566696 78.123917 
L 374.854606 78.820389 
L 375.424048 80.79371 
L 375.708386 81.478622 
L 375.993184 80.854536 
L 376.277889 81.035476 
L 376.56417 81.634954 
L 377.133428 85.608386 
L 377.420229 86.043148 
L 377.988543 88.197408 
L 379.130396 90.128607 
L 379.699479 93.02042 
L 379.986241 93.382051 
L 380.555408 94.715757 
L 380.843655 94.959061 
L 381.4115 94.852739 
L 381.699123 94.819846 
L 381.982245 93.780943 
L 382.269118 93.226514 
L 382.838384 93.186624 
L 383.978142 92.053009 
L 384.264387 91.188695 
L 384.547749 91.091404 
L 384.832291 91.512075 
L 385.117403 91.685523 
L 385.403277 91.701251 
L 385.973628 91.498729 
L 386.261775 91.467324 
L 386.829628 91.781724 
L 387.398811 91.709387 
L 387.969448 92.572163 
L 388.254473 92.47502 
L 388.539781 92.570675 
L 389.11061 92.368649 
L 389.395428 91.161061 
L 389.680755 90.747335 
L 389.969849 90.603109 
L 390.254647 90.202482 
L 391.106625 89.700544 
L 391.39172 89.168143 
L 391.963115 88.819163 
L 392.532414 87.624126 
L 393.102392 87.497563 
L 393.963282 87.217297 
L 394.243371 87.165401 
L 394.813759 86.842071 
L 395.098455 87.060072 
L 395.67446 87.14893 
L 396.242544 87.812459 
L 396.814196 87.780458 
L 397.098572 87.656524 
L 397.950357 87.807249 
L 398.23568 87.992654 
L 398.520209 87.956982 
L 398.810194 88.089499 
L 399.376225 88.004016 
L 399.946726 88.330323 
L 400.516565 88.154195 
L 401.375863 87.050695 
L 401.941799 87.274352 
L 402.517125 87.265223 
L 403.082671 87.26825 
L 403.368212 107.875346 
L 403.656345 110.579422 
L 404.797692 128.518412 
L 405.652155 139.684389 
L 406.793979 147.317599 
L 407.649384 150.776889 
L 407.933565 151.345904 
L 408.215712 152.33822 
L 408.500129 152.1035 
L 409.356204 153.846714 
L 409.926295 154.469311 
L 410.211126 155.14956 
L 410.782442 155.408988 
L 411.068028 155.464505 
L 411.639621 155.962325 
L 411.921684 155.659932 
L 412.777265 154.258157 
L 413.635569 153.14017 
L 414.773038 150.168629 
L 415.061291 149.455487 
L 416.199816 145.529187 
L 416.486509 144.690375 
L 417.057482 142.239873 
L 417.910399 139.410623 
L 418.48581 137.562526 
L 419.053604 133.554662 
L 419.335598 132.429134 
L 419.621573 130.379061 
L 420.193695 127.790932 
L 420.76175 124.36409 
L 421.333123 121.171769 
L 421.90549 117.461734 
L 422.475054 112.506056 
L 423.042954 109.058823 
L 423.615697 106.635906 
L 424.471072 103.856121 
L 424.756429 103.512449 
L 425.040999 101.328222 
L 425.324824 97.311675 
L 425.608978 97.496237 
L 426.751745 93.409239 
L 427.890153 89.948759 
L 428.178996 93.954341 
L 428.462346 94.061853 
L 428.745756 89.397853 
L 429.031176 87.907667 
L 429.31613 87.931878 
L 429.601218 87.475634 
L 429.888439 88.342726 
L 430.173725 88.133258 
L 430.456514 88.268058 
L 431.314377 86.556695 
L 431.597081 86.098616 
L 431.884883 85.331941 
L 432.170659 85.021361 
L 432.452057 86.898482 
L 432.737879 86.105313 
L 433.30809 83.666074 
L 434.734019 79.981688 
L 435.021763 79.557098 
L 435.304542 79.917836 
L 435.590658 80.582059 
L 437.870826 78.456723 
L 438.440347 78.125108 
L 438.726157 77.44863 
L 439.297477 76.970705 
L 439.58344 77.96183 
L 439.866048 78.517549 
L 440.437668 78.428394 
L 441.297462 78.691791 
L 441.579171 78.667779 
L 442.147619 80.190362 
L 442.717401 80.212936 
L 443.002981 79.970625 
L 443.573834 79.959065 
L 444.145599 81.663233 
L 444.715118 81.557904 
L 445.283971 82.099086 
L 445.853863 82.014744 
L 446.139251 82.239591 
L 446.994435 82.078298 
L 447.281553 82.695736 
L 447.849863 82.55414 
L 448.137347 82.89285 
L 448.420375 83.398807 
L 448.990225 83.376679 
L 449.27578 84.301422 
L 449.560676 84.689944 
L 450.13134 84.594091 
L 450.415912 84.256671 
L 450.988378 84.076525 
L 451.27141 84.025076 
L 451.558203 83.246147 
L 452.126701 83.147714 
L 452.697227 82.629602 
L 452.983484 82.607425 
L 453.267314 82.461561 
L 453.553209 81.821649 
L 453.838208 81.587226 
L 454.407819 81.657428 
L 454.978835 82.753933 
L 455.549064 82.972083 
L 456.403955 83.323891 
L 456.688717 84.936572 
L 457.26001 85.156508 
L 458.684999 85.325392 
L 459.255738 86.063241 
L 460.111139 86.313888 
L 460.681521 86.520428 
L 461.252366 83.495801 
L 461.821516 83.345572 
L 462.392233 82.123298 
L 462.677131 82.113673 
L 462.961277 81.306166 
L 463.531559 80.99767 
L 463.817589 79.754509 
L 464.10219 79.180185 
L 464.672209 79.224837 
L 465.242754 76.650104 
L 465.813711 76.753498 
L 466.099295 78.255541 
L 466.384005 79.118665 
L 466.954049 79.621744 
L 467.524402 80.765579 
L 468.094309 81.094813 
L 468.665021 83.262866 
L 469.520251 83.48563 
L 469.805561 88.585732 
L 470.089996 89.951537 
L 470.660788 90.245496 
L 471.516236 90.348246 
L 472.086387 88.808099 
L 473.226429 88.461103 
L 473.226429 88.461103 
" clip-path="url(#p477d59dd90)" style="fill: none; stroke: #ff0000; stroke-opacity: 0.8; stroke-linecap: square"/>
   </g>
   <g id="line2d_45">
    <path d="M 304.419711 85.78625 
L 305.564005 85.78625 
L 305.846085 88.436942 
L 306.131106 87.111521 
L 306.41612 83.135707 
L 306.701694 84.46083 
L 306.986894 81.810138 
L 307.271892 86.448886 
L 307.557751 84.46083 
L 307.844714 85.78625 
L 308.13005 85.78625 
L 308.412666 87.111521 
L 308.698387 91.087435 
L 308.98569 85.78625 
L 309.269601 87.774306 
L 309.552835 84.46083 
L 310.125791 84.460929 
L 310.411124 87.11167 
L 310.693756 87.111571 
L 310.982619 83.135558 
L 311.266814 87.111621 
L 311.551651 84.460879 
L 311.835421 83.135509 
L 312.122282 85.78625 
L 312.405365 87.111571 
L 312.690677 83.135558 
L 312.978553 87.111621 
L 313.26221 87.111621 
L 313.545813 86.99111 
L 313.83096 87.111621 
L 314.117421 81.810237 
L 314.686652 87.111571 
L 314.970504 84.460979 
L 315.259037 83.135707 
L 315.543982 83.13541 
L 315.826135 85.78625 
L 316.112117 83.135558 
L 316.398053 85.78625 
L 316.681383 83.798194 
L 316.969902 84.460979 
L 317.254574 84.460681 
L 317.53751 83.13541 
L 317.822888 88.43709 
L 318.393159 81.810138 
L 318.678647 85.123614 
L 318.9638 85.78625 
L 319.248073 83.135707 
L 319.818037 83.13541 
L 320.103473 84.215045 
L 320.391924 84.460979 
L 320.676423 87.111521 
L 320.960748 81.809841 
L 321.24778 81.810486 
L 321.530341 84.460979 
L 321.815207 85.78625 
L 322.099677 80.484916 
L 322.387589 84.460979 
L 322.669718 79.159645 
L 323.239821 81.810237 
L 323.525119 84.46083 
L 323.81473 84.46083 
L 324.096412 80.484718 
L 324.666291 83.135707 
L 324.951819 83.135509 
L 325.239143 83.798194 
L 325.522842 81.810138 
L 326.092108 81.810138 
L 326.379109 85.78625 
L 326.664811 87.111621 
L 326.947074 81.810188 
L 327.235407 83.135558 
L 327.517817 87.111571 
L 327.802475 81.810138 
L 328.091028 87.111621 
L 328.375627 89.762263 
L 328.66099 85.78625 
L 328.943675 85.78625 
L 329.231264 87.11167 
L 329.516028 89.762263 
L 330.083381 87.111521 
L 330.656857 89.762362 
L 330.942294 88.436793 
L 331.225342 89.762362 
L 331.510087 85.78625 
L 331.797831 85.123614 
L 332.080745 87.111521 
L 332.369141 85.78625 
L 332.650309 87.111819 
L 332.935713 84.460979 
L 333.507774 87.111819 
L 333.790241 87.111521 
L 334.078058 88.43709 
L 334.361443 88.191157 
L 334.648868 84.460979 
L 334.936122 88.43709 
L 335.219305 87.111521 
L 335.501791 84.460979 
L 335.791205 87.111521 
L 336.075381 88.43709 
L 336.648565 88.436942 
L 336.928995 87.111521 
L 337.212908 87.11167 
L 337.498838 88.43709 
L 337.784581 85.78625 
L 338.072296 88.43709 
L 338.353627 88.43709 
L 338.639072 85.78625 
L 339.212426 85.78625 
L 339.497012 88.436991 
L 339.783338 88.436942 
L 340.068781 85.78625 
L 340.349629 81.810188 
L 340.636675 83.135509 
L 340.919992 87.111621 
L 341.208438 87.111621 
L 341.780302 84.460929 
L 342.065033 85.78625 
L 342.920159 85.78625 
L 343.207727 85.123565 
L 343.488375 85.78625 
L 343.771554 83.13541 
L 344.060696 85.78625 
L 344.628576 85.78625 
L 344.914777 88.436793 
L 345.201497 85.78625 
L 345.482176 87.11167 
L 345.772101 85.78625 
L 346.34157 85.78625 
L 346.627037 88.43709 
L 346.912247 84.460979 
L 347.47844 91.087931 
L 347.76621 87.774306 
L 348.050799 87.111819 
L 348.337859 85.78625 
L 348.619412 88.436793 
L 348.904266 87.111819 
L 349.193618 88.43709 
L 349.476012 87.111819 
L 349.759881 87.11167 
L 350.047449 88.43709 
L 350.616758 85.78625 
L 350.902133 85.78625 
L 351.185265 88.436942 
L 351.470237 87.11167 
L 351.755635 80.484916 
L 352.043911 83.135558 
L 352.325976 79.159496 
L 352.614417 78.496861 
L 352.900892 75.183385 
L 353.182425 75.183434 
L 353.466995 71.207273 
L 353.755402 71.207372 
L 354.03647 73.858064 
L 354.325539 67.23126 
L 354.611212 67.23126 
L 354.894145 63.255198 
L 355.179881 67.23126 
L 355.462577 61.929828 
L 355.749333 59.279136 
L 356.036381 60.604457 
L 356.318375 55.965709 
L 356.602768 55.303074 
L 356.888058 52.652333 
L 357.177006 52.652382 
L 357.458172 51.327012 
L 357.743058 48.67637 
L 358.029923 48.67637 
L 358.313879 47.350999 
L 358.602675 43.61581 
L 359.172557 40.724097 
L 359.456389 38.073405 
L 359.741595 36.748134 
L 360.02631 38.073405 
L 360.596586 38.073405 
L 360.880201 34.097144 
L 361.167517 38.073405 
L 361.450057 36.748134 
L 361.735119 34.097144 
L 362.02339 38.073554 
L 362.308262 39.398676 
L 362.590446 35.422713 
L 362.878526 36.747985 
L 363.164709 35.422713 
L 363.731989 35.422565 
L 364.019017 38.073504 
L 364.301494 39.398924 
L 364.587924 36.748034 
L 365.156836 36.747836 
L 365.444993 35.422565 
L 365.727534 36.748084 
L 366.012446 39.398924 
L 366.29742 39.398726 
L 366.588113 35.422813 
L 366.868171 42.049517 
L 367.153506 40.724097 
L 367.442573 43.374788 
L 367.723737 44.700208 
L 368.011799 48.676122 
L 368.293727 50.00184 
L 368.578936 50.001542 
L 368.866751 55.303074 
L 369.437151 55.303074 
L 369.723 59.279136 
L 370.008645 59.279136 
L 370.291265 51.326962 
L 370.574846 60.604407 
L 370.859993 65.90579 
L 371.145017 67.231012 
L 371.433626 72.532693 
L 371.715687 68.556581 
L 372.000551 71.207422 
L 372.573437 68.556581 
L 372.856369 71.207422 
L 373.144123 75.183385 
L 373.428787 75.183385 
L 373.711638 79.159496 
L 373.998557 76.508656 
L 374.282994 79.159496 
L 374.566696 77.834126 
L 374.854606 77.834076 
L 375.424048 80.484817 
L 375.708386 80.484768 
L 375.993184 84.46083 
L 376.277889 81.810188 
L 376.56417 83.37653 
L 376.848468 81.810188 
L 377.420229 81.810138 
L 377.704051 85.78625 
L 377.988543 83.135558 
L 378.276856 81.810138 
L 378.559404 87.11167 
L 378.84448 84.460929 
L 379.130396 91.087534 
L 379.417966 88.43709 
L 379.986241 91.087584 
L 380.271794 91.087782 
L 380.555408 92.412855 
L 380.843655 91.750418 
L 381.125392 93.738275 
L 381.4115 91.087584 
L 381.699123 95.063695 
L 381.982245 95.063695 
L 382.269118 96.388967 
L 382.554405 93.738424 
L 382.838384 95.063695 
L 383.123605 91.087584 
L 383.40917 91.087931 
L 383.692353 93.075788 
L 383.978142 92.412855 
L 384.264387 91.087584 
L 384.547749 92.412855 
L 384.832291 96.389264 
L 385.117403 92.412855 
L 385.688801 89.762014 
L 386.261775 89.762659 
L 386.543512 91.087782 
L 386.829628 91.087435 
L 387.115347 93.738275 
L 387.398811 89.762362 
L 387.685302 92.413004 
L 387.969448 93.738275 
L 388.254473 92.413004 
L 388.539781 92.413004 
L 388.828438 91.087683 
L 389.11061 92.413004 
L 389.395428 92.412954 
L 389.680755 93.738374 
L 389.969849 91.087732 
L 390.254647 91.750318 
L 390.825115 87.111621 
L 391.106625 91.087683 
L 391.39172 92.413053 
L 391.67684 87.111621 
L 392.248181 89.762362 
L 392.532414 89.762263 
L 392.81871 88.436942 
L 393.102392 85.78625 
L 393.391855 88.436942 
L 393.963282 88.436991 
L 394.243371 87.11167 
L 394.529505 87.11167 
L 394.813759 91.087782 
L 395.098455 85.78625 
L 395.384147 88.43709 
L 395.67446 88.436942 
L 396.242544 85.78625 
L 396.525394 88.436793 
L 396.814196 87.774455 
L 397.098572 88.437388 
L 397.385282 85.78625 
L 397.669226 91.087931 
L 397.950357 88.43709 
L 398.23568 87.111819 
L 398.520209 87.111819 
L 398.810194 85.540664 
L 399.376225 88.43709 
L 399.660646 89.099726 
L 399.946726 85.78625 
L 400.234863 87.111521 
L 400.516565 89.762362 
L 401.087151 87.111521 
L 401.375863 89.762659 
L 401.65686 89.762362 
L 401.941799 87.111521 
L 402.517125 89.762362 
L 403.082671 84.46083 
L 403.368212 87.774306 
L 403.656345 88.19597 
L 403.939126 89.762263 
L 404.228312 88.436942 
L 404.508213 93.738424 
L 404.797692 89.762362 
L 405.080982 89.762263 
L 405.652155 93.738374 
L 405.934632 92.413053 
L 406.220145 99.039807 
L 406.507543 100.365227 
L 407.07476 105.66661 
L 407.360174 104.341141 
L 407.649384 106.991931 
L 408.215712 109.642772 
L 408.500129 116.269426 
L 408.785545 113.618834 
L 409.074066 118.920068 
L 409.356204 113.618437 
L 409.640715 120.24524 
L 409.926295 117.594698 
L 410.211126 118.920415 
L 411.068028 126.872292 
L 411.354192 128.197563 
L 411.639621 133.498946 
L 411.921684 128.197563 
L 412.20704 129.523132 
L 412.495903 134.824515 
L 413.066152 134.824515 
L 413.348167 137.475356 
L 413.635569 133.499244 
L 413.920874 136.149687 
L 414.203406 132.173824 
L 415.061291 136.149687 
L 415.343236 134.824466 
L 415.915362 137.475256 
L 416.199816 134.824366 
L 416.771517 134.824366 
L 417.057482 136.149935 
L 417.341946 136.149588 
L 417.627187 133.499095 
L 417.910399 136.149787 
L 418.197383 133.253459 
L 418.48581 134.824366 
L 418.765014 137.475207 
L 419.053604 134.824664 
L 419.335598 136.149588 
L 419.621573 133.498797 
L 419.906775 133.499393 
L 420.193695 136.395521 
L 420.476701 134.824664 
L 420.76175 134.824366 
L 421.047486 133.499095 
L 421.333123 130.848403 
L 422.475054 116.269277 
L 422.760625 113.618933 
L 423.042954 113.618784 
L 423.33055 110.968093 
L 423.615697 110.967993 
L 423.898493 109.642672 
L 424.471072 112.293364 
L 424.756429 108.317252 
L 425.040999 108.317302 
L 425.324824 105.66666 
L 425.608978 105.66661 
L 425.896897 100.365227 
L 426.180451 97.714436 
L 426.463944 97.714387 
L 426.751745 92.413004 
L 427.03419 92.413004 
L 427.321119 93.738374 
L 427.605212 92.413004 
L 427.890153 91.750368 
L 428.178996 89.762362 
L 428.745756 92.413004 
L 429.031176 91.087584 
L 429.31613 95.063794 
L 429.601218 87.11167 
L 429.888439 87.111521 
L 430.173725 85.78625 
L 430.456514 85.78625 
L 430.741935 89.099627 
L 431.026646 87.11167 
L 431.314377 88.43709 
L 431.597081 88.436793 
L 431.884883 84.460681 
L 432.452057 87.11167 
L 432.737879 89.762362 
L 433.026006 87.111521 
L 433.88321 87.111521 
L 434.164019 81.810486 
L 434.449078 84.460979 
L 434.734019 79.159298 
L 435.304542 81.810138 
L 435.87432 79.159298 
L 436.159623 80.484916 
L 436.447794 79.159496 
L 436.730606 79.159645 
L 437.014705 80.484916 
L 437.299838 82.472774 
L 437.586168 83.135509 
L 437.870826 84.46083 
L 438.155626 81.810138 
L 438.440347 77.834076 
L 438.726157 79.159496 
L 439.297477 76.508656 
L 439.58344 78.557091 
L 439.866048 81.810138 
L 440.153692 79.159447 
L 440.437668 77.834076 
L 441.006869 77.834126 
L 441.297462 79.159496 
L 441.8638 79.159496 
L 442.147619 80.484768 
L 442.717401 80.484817 
L 443.002981 75.477889 
L 443.290221 80.484817 
L 443.573834 79.159546 
L 443.86055 81.810138 
L 444.145599 79.159496 
L 444.429176 80.485065 
L 444.715118 83.135707 
L 445.002964 80.484718 
L 445.283971 81.809989 
L 445.571147 81.810287 
L 445.853863 80.484916 
L 446.42387 80.484916 
L 446.709113 82.472774 
L 446.994435 83.13541 
L 447.281553 82.055427 
L 447.849863 84.460979 
L 448.137347 87.111819 
L 448.420375 80.484569 
L 448.708724 82.298582 
L 448.990225 80.484916 
L 449.27578 83.13541 
L 449.560676 81.810138 
L 450.415912 85.78625 
L 450.701597 83.13541 
L 450.988378 81.810138 
L 451.27141 83.135558 
L 451.558203 85.78625 
L 451.842129 81.810138 
L 452.126701 81.809989 
L 452.412788 83.135509 
L 452.697227 81.810237 
L 452.983484 83.135509 
L 453.267314 83.135558 
L 453.553209 84.460929 
L 453.838208 80.484817 
L 454.122323 80.484817 
L 454.407819 81.810237 
L 454.692776 81.810237 
L 454.978835 80.484817 
L 455.26399 81.810188 
L 455.549064 79.159496 
L 455.834782 80.484817 
L 456.121524 82.472873 
L 456.403955 83.135509 
L 457.26001 83.135558 
L 457.545115 86.991011 
L 457.830111 85.78625 
L 458.114228 83.135658 
L 458.400546 88.436942 
L 458.684999 85.78625 
L 458.971119 84.46083 
L 459.540459 84.46083 
L 459.824897 85.78625 
L 460.111139 85.78625 
L 460.395997 83.13541 
L 460.681521 83.135558 
L 460.965528 85.78625 
L 461.252366 85.78625 
L 461.536079 84.460979 
L 462.106967 85.78625 
L 462.392233 83.135707 
L 462.677131 81.810138 
L 463.246962 87.111521 
L 463.817589 84.460979 
L 464.10219 84.460979 
L 464.387021 79.159298 
L 464.672209 79.822281 
L 464.957319 81.810138 
L 465.242754 81.810138 
L 465.528056 79.159298 
L 465.813711 79.159298 
L 466.099295 77.834076 
L 466.66843 80.966811 
L 466.954049 80.484916 
L 467.239096 72.287107 
L 467.524402 77.833729 
L 467.809382 76.508805 
L 468.094309 80.484569 
L 468.379589 82.472923 
L 468.665021 80.484569 
L 468.949685 84.460681 
L 469.235489 84.460979 
L 469.520251 87.111521 
L 469.805561 81.810138 
L 470.660788 81.810486 
L 470.946119 85.78625 
L 471.231195 87.774306 
L 471.516236 88.43709 
L 471.800981 85.78625 
L 472.086387 87.111819 
L 472.37212 87.111521 
L 472.657228 91.087584 
L 472.942176 89.762362 
L 473.226429 87.111521 
L 473.226429 87.111521 
" clip-path="url(#p477d59dd90)" style="fill: none; stroke: #0000ff; stroke-linecap: square"/>
   </g>
   <g id="line2d_46">
    <path d="M 295.979375 36.172917 
L 481.666765 36.172917 
" clip-path="url(#p477d59dd90)" style="fill: none; stroke-dasharray: 7.4,3.2; stroke-dashoffset: 0; stroke: #000000; stroke-opacity: 0.7; stroke-width: 2"/>
   </g>
   <g id="line2d_47">
    <path d="M 295.979375 135.399583 
L 481.666765 135.399583 
" clip-path="url(#p477d59dd90)" style="fill: none; stroke-dasharray: 7.4,3.2; stroke-dashoffset: 0; stroke: #000000; stroke-opacity: 0.7; stroke-width: 2"/>
   </g>
   <g id="patch_8">
    <path d="M 295.979375 160.20625 
L 295.979375 11.36625 
" style="fill: none; stroke: #000000; stroke-width: 0.8; stroke-linejoin: miter; stroke-linecap: square"/>
   </g>
   <g id="patch_9">
    <path d="M 481.666765 160.20625 
L 481.666765 11.36625 
" style="fill: none; stroke: #000000; stroke-width: 0.8; stroke-linejoin: miter; stroke-linecap: square"/>
   </g>
   <g id="patch_10">
    <path d="M 295.979375 160.20625 
L 481.666765 160.20625 
" style="fill: none; stroke: #000000; stroke-width: 0.8; stroke-linejoin: miter; stroke-linecap: square"/>
   </g>
   <g id="patch_11">
    <path d="M 295.979375 11.36625 
L 481.666765 11.36625 
" style="fill: none; stroke: #000000; stroke-width: 0.8; stroke-linejoin: miter; stroke-linecap: square"/>
   </g>
  </g>
 </g>
 <defs>
  <clipPath id="p69c211c98f">
   <rect x="50.099375" y="11.36625" width="185.68739" height="148.84"/>
  </clipPath>
  <clipPath id="p477d59dd90">
   <rect x="295.979375" y="11.36625" width="185.68739" height="148.84"/>
  </clipPath>
 </defs>
</svg>
