<?xml version="1.0" encoding="utf-8" standalone="no"?>
<!DOCTYPE svg PUBLIC "-//W3C//DTD SVG 1.1//EN"
  "http://www.w3.org/Graphics/SVG/1.1/DTD/svg11.dtd">
<svg xmlns:xlink="http://www.w3.org/1999/xlink" width="258.689062pt" height="95.859375pt" viewBox="0 0 258.689062 95.859375" xmlns="http://www.w3.org/2000/svg" version="1.1">
 <metadata>
  <rdf:RDF xmlns:dc="http://purl.org/dc/elements/1.1/" xmlns:cc="http://creativecommons.org/ns#" xmlns:rdf="http://www.w3.org/1999/02/22-rdf-syntax-ns#">
   <cc:Work>
    <dc:type rdf:resource="http://purl.org/dc/dcmitype/StillImage"/>
    <dc:date>2026-01-18T23:30:35.880781</dc:date>
    <dc:format>image/svg+xml</dc:format>
    <dc:creator>
     <cc:Agent>
      <dc:title>Matplotlib v3.6.3, https://matplotlib.org/</dc:title>
     </cc:Agent>
    </dc:creator>
   </cc:Work>
  </rdf:RDF>
 </metadata>
 <defs>
  <style type="text/css">*{stroke-linejoin: round; stroke-linecap: butt}</style>
 </defs>
 <g id="figure_1">
  <g id="patch_1">
   <path d="M 0 95.859375 
L 258.689062 95.859375 
L 258.689062 0 
L 0 0 
z
" style="fill: #ffffff"/>
  </g>
  <g id="axes_1">
   <g id="patch_2">
    <path d="M 35.2 70.76 
L 124.008959 70.76 
L 124.008959 7.2 
L 35.2 7.2 
z
" style="fill: #ffffff"/>
   </g>
   <g id="matplotlib.axis_1">
    <g id="xtick_1">
     <g id="line2d_1">
      <path d="M 39.236771 70.76 
L 39.236771 7.2 
" clip-path="url(#p104d480ad8)" style="fill: none; stroke: #b0b0b0; stroke-opacity: 0.3; stroke-width: 0.8; stroke-linecap: square"/>
     </g>
     <g id="line2d_2">
      <defs>
       <path id="mb453fa7aef" d="M 0 0 
L 0 3.5 
" style="stroke: #000000; stroke-width: 0.8"/>
      </defs>
      <g>
       <use xlink:href="#mb453fa7aef" x="39.236771" y="70.76" style="stroke: #000000; stroke-width: 0.8"/>
      </g>
     </g>
     <g id="text_1">
      <!-- 0 -->
      <g transform="translate(36.236771 86.0925) scale(0.12 -0.12)">
       <defs>
        <path id="TimesNewRomanPSMT-30" d="M 231 2094 
Q 231 2819 450 3342 
Q 669 3866 1031 4122 
Q 1313 4325 1613 4325 
Q 2100 4325 2488 3828 
Q 2972 3213 2972 2159 
Q 2972 1422 2759 906 
Q 2547 391 2217 158 
Q 1888 -75 1581 -75 
Q 975 -75 572 641 
Q 231 1244 231 2094 
z
M 844 2016 
Q 844 1141 1059 588 
Q 1238 122 1591 122 
Q 1759 122 1940 273 
Q 2122 425 2216 781 
Q 2359 1319 2359 2297 
Q 2359 3022 2209 3506 
Q 2097 3866 1919 4016 
Q 1791 4119 1609 4119 
Q 1397 4119 1231 3928 
Q 1006 3669 925 3112 
Q 844 2556 844 2016 
z
" transform="scale(0.015625)"/>
       </defs>
       <use xlink:href="#TimesNewRomanPSMT-30"/>
      </g>
     </g>
    </g>
    <g id="xtick_2">
     <g id="line2d_3">
      <path d="M 121.064062 70.76 
L 121.064062 7.2 
" clip-path="url(#p104d480ad8)" style="fill: none; stroke: #b0b0b0; stroke-opacity: 0.3; stroke-width: 0.8; stroke-linecap: square"/>
     </g>
     <g id="line2d_4">
      <g>
       <use xlink:href="#mb453fa7aef" x="121.064062" y="70.76" style="stroke: #000000; stroke-width: 0.8"/>
      </g>
     </g>
     <g id="text_2">
      <!-- 20 -->
      <g transform="translate(115.064062 86.0925) scale(0.12 -0.12)">
       <defs>
        <path id="TimesNewRomanPSMT-32" d="M 2934 816 
L 2638 0 
L 138 0 
L 138 116 
Q 1241 1122 1691 1759 
Q 2141 2397 2141 2925 
Q 2141 3328 1894 3587 
Q 1647 3847 1303 3847 
Q 991 3847 742 3664 
Q 494 3481 375 3128 
L 259 3128 
Q 338 3706 661 4015 
Q 984 4325 1469 4325 
Q 1984 4325 2329 3994 
Q 2675 3663 2675 3213 
Q 2675 2891 2525 2569 
Q 2294 2063 1775 1497 
Q 997 647 803 472 
L 1909 472 
Q 2247 472 2383 497 
Q 2519 522 2628 598 
Q 2738 675 2819 816 
L 2934 816 
z
" transform="scale(0.015625)"/>
       </defs>
       <use xlink:href="#TimesNewRomanPSMT-32"/>
       <use xlink:href="#TimesNewRomanPSMT-30" x="50"/>
      </g>
     </g>
    </g>
   </g>
   <g id="matplotlib.axis_2">
    <g id="ytick_1">
     <g id="line2d_5">
      <path d="M 35.2 67.870909 
L 124.008959 67.870909 
" clip-path="url(#p104d480ad8)" style="fill: none; stroke: #b0b0b0; stroke-opacity: 0.3; stroke-width: 0.8; stroke-linecap: square"/>
     </g>
     <g id="line2d_6">
      <defs>
       <path id="m2bb51031d5" d="M 0 0 
L -3.5 0 
" style="stroke: #000000; stroke-width: 0.8"/>
      </defs>
      <g>
       <use xlink:href="#m2bb51031d5" x="35.2" y="67.870909" style="stroke: #000000; stroke-width: 0.8"/>
      </g>
     </g>
     <g id="text_3">
      <!-- 0.00 -->
      <g transform="translate(7.2 72.037159) scale(0.12 -0.12)">
       <defs>
        <path id="TimesNewRomanPSMT-2e" d="M 800 606 
Q 947 606 1047 504 
Q 1147 403 1147 259 
Q 1147 116 1045 14 
Q 944 -88 800 -88 
Q 656 -88 554 14 
Q 453 116 453 259 
Q 453 406 554 506 
Q 656 606 800 606 
z
" transform="scale(0.015625)"/>
       </defs>
       <use xlink:href="#TimesNewRomanPSMT-30"/>
       <use xlink:href="#TimesNewRomanPSMT-2e" x="50"/>
       <use xlink:href="#TimesNewRomanPSMT-30" x="75"/>
       <use xlink:href="#TimesNewRomanPSMT-30" x="125"/>
      </g>
     </g>
    </g>
    <g id="ytick_2">
     <g id="line2d_7">
      <path d="M 35.2 40.334935 
L 124.008959 40.334935 
" clip-path="url(#p104d480ad8)" style="fill: none; stroke: #b0b0b0; stroke-opacity: 0.3; stroke-width: 0.8; stroke-linecap: square"/>
     </g>
     <g id="line2d_8">
      <g>
       <use xlink:href="#m2bb51031d5" x="35.2" y="40.334935" style="stroke: #000000; stroke-width: 0.8"/>
      </g>
     </g>
     <g id="text_4">
      <!-- 0.25 -->
      <g transform="translate(7.2 44.501185) scale(0.12 -0.12)">
       <defs>
        <path id="TimesNewRomanPSMT-35" d="M 2778 4238 
L 2534 3706 
L 1259 3706 
L 981 3138 
Q 1809 3016 2294 2522 
Q 2709 2097 2709 1522 
Q 2709 1188 2573 903 
Q 2438 619 2231 419 
Q 2025 219 1772 97 
Q 1413 -75 1034 -75 
Q 653 -75 479 54 
Q 306 184 306 341 
Q 306 428 378 495 
Q 450 563 559 563 
Q 641 563 702 538 
Q 763 513 909 409 
Q 1144 247 1384 247 
Q 1750 247 2026 523 
Q 2303 800 2303 1197 
Q 2303 1581 2056 1914 
Q 1809 2247 1375 2428 
Q 1034 2569 447 2591 
L 1259 4238 
L 2778 4238 
z
" transform="scale(0.015625)"/>
       </defs>
       <use xlink:href="#TimesNewRomanPSMT-30"/>
       <use xlink:href="#TimesNewRomanPSMT-2e" x="50"/>
       <use xlink:href="#TimesNewRomanPSMT-32" x="75"/>
       <use xlink:href="#TimesNewRomanPSMT-35" x="125"/>
      </g>
     </g>
    </g>
    <g id="ytick_3">
     <g id="line2d_9">
      <path d="M 35.2 12.798961 
L 124.008959 12.798961 
" clip-path="url(#p104d480ad8)" style="fill: none; stroke: #b0b0b0; stroke-opacity: 0.3; stroke-width: 0.8; stroke-linecap: square"/>
     </g>
     <g id="line2d_10">
      <g>
       <use xlink:href="#m2bb51031d5" x="35.2" y="12.798961" style="stroke: #000000; stroke-width: 0.8"/>
      </g>
     </g>
     <g id="text_5">
      <!-- 0.50 -->
      <g transform="translate(7.2 16.965211) scale(0.12 -0.12)">
       <use xlink:href="#TimesNewRomanPSMT-30"/>
       <use xlink:href="#TimesNewRomanPSMT-2e" x="50"/>
       <use xlink:href="#TimesNewRomanPSMT-35" x="75"/>
       <use xlink:href="#TimesNewRomanPSMT-30" x="125"/>
      </g>
     </g>
    </g>
   </g>
   <g id="line2d_11">
    <path d="M 39.236771 12.798961 
L 111.654262 12.798961 
L 112.472265 21.410562 
L 113.154282 27.347318 
L 113.699521 33.092974 
L 114.654068 40.578904 
L 115.335409 44.483395 
L 115.608326 46.321256 
L 115.880949 47.425559 
L 116.290277 49.959859 
L 116.563484 50.755759 
L 117.517642 53.744294 
L 118.063436 54.633706 
L 118.199629 55.047076 
L 118.336085 54.750789 
L 118.472122 54.849037 
L 119.972188 58.440939 
L 119.972188 58.440939 
" clip-path="url(#p104d480ad8)" style="fill: none; stroke: #ff0000; stroke-opacity: 0.8; stroke-width: 2; stroke-linecap: square"/>
   </g>
   <g id="line2d_12">
    <path d="M 39.236771 67.870909 
L 39.784054 67.870909 
L 39.918965 57.655063 
L 40.055282 62.762986 
L 40.600887 53.641639 
L 40.737606 54.006546 
L 40.874851 53.276843 
L 41.146487 49.628216 
L 41.420548 44.520403 
L 41.691797 37.953073 
L 41.965825 34.304557 
L 42.237467 29.196634 
L 42.375622 28.46693 
L 42.647773 23.359007 
L 42.783493 24.088711 
L 42.92069 23.359007 
L 43.33022 18.980787 
L 43.601524 11.484724 
L 43.737902 11.683754 
L 43.874908 13.143161 
L 44.011751 11.683644 
L 44.147155 11.683754 
L 44.282913 10.224348 
L 44.42091 10.954051 
L 44.557191 13.872754 
L 44.828914 12.413568 
L 44.965669 12.413347 
L 45.101177 12.778254 
L 45.239168 11.683864 
L 45.375318 11.683864 
L 45.510638 12.413458 
L 45.784474 14.602567 
L 45.919871 11.683864 
L 46.056412 12.048661 
L 46.192792 13.872974 
L 46.328751 13.872974 
L 46.466692 10.954161 
L 46.601349 12.413458 
L 46.737865 11.548608 
L 46.875823 11.683644 
L 47.011891 13.143271 
L 47.147875 11.683644 
L 47.285154 11.683644 
L 47.556538 13.872754 
L 47.692592 12.413458 
L 47.830292 13.142941 
L 47.965226 11.683864 
L 48.102604 12.413458 
L 48.23789 12.413458 
L 48.37434 11.683754 
L 48.512853 11.683754 
L 48.647573 12.413347 
L 48.784796 11.683754 
L 48.92013 12.413458 
L 49.05669 12.413458 
L 49.194109 12.778254 
L 49.329794 11.683754 
L 49.467525 13.143161 
L 49.602058 13.143161 
L 49.739322 12.413458 
L 49.875965 13.143161 
L 50.010963 13.143161 
L 50.283933 11.683754 
L 50.558084 13.872864 
L 50.694199 11.683754 
L 50.83068 12.413458 
L 50.965881 13.872864 
L 51.103426 11.683754 
L 51.23962 11.683754 
L 51.374988 12.413458 
L 51.647565 15.332381 
L 51.921762 12.413458 
L 52.057136 14.602567 
L 52.330941 12.048661 
L 52.466251 13.143271 
L 52.604183 12.413678 
L 52.738657 13.143161 
L 52.875158 11.683644 
L 53.011523 12.413347 
L 53.148758 14.602457 
L 53.283854 11.683644 
L 53.421508 12.413458 
L 53.557043 10.818794 
L 53.831896 13.872754 
L 53.967334 13.142941 
L 54.102439 11.683975 
L 54.376771 13.872754 
L 54.514126 10.954161 
L 54.650909 12.413347 
L 54.78503 11.683864 
L 54.920818 11.683754 
L 55.05757 12.413458 
L 55.194232 13.872754 
L 55.331838 12.413458 
L 55.466391 12.413458 
L 55.602911 13.872864 
L 55.739147 12.413458 
L 55.87713 12.413458 
L 56.013239 15.332271 
L 56.150181 12.413458 
L 56.2867 12.413458 
L 56.421021 11.683754 
L 56.558307 12.413458 
L 56.69381 11.683754 
L 56.831765 12.413458 
L 56.968564 12.413458 
L 57.24145 10.954051 
L 57.37771 13.872864 
L 57.512498 13.872864 
L 57.787968 11.318848 
L 57.922194 13.872864 
L 58.05763 12.413458 
L 58.195919 13.143161 
L 58.333071 12.413458 
L 58.741531 12.413458 
L 58.875771 11.683754 
L 59.014435 12.413568 
L 59.150744 13.872974 
L 59.286795 12.413347 
L 59.423326 12.413458 
L 59.694821 13.872754 
L 59.830527 12.413347 
L 60.10427 13.143161 
L 60.241563 13.872974 
L 60.376222 13.872974 
L 60.512459 11.683864 
L 60.785909 14.602457 
L 60.921675 11.683754 
L 61.195691 13.143271 
L 61.331495 12.413458 
L 61.467982 13.872864 
L 61.603396 13.872864 
L 61.73969 11.683754 
L 61.876187 13.872974 
L 62.148965 11.683754 
L 62.423931 15.332381 
L 62.55858 12.413568 
L 62.694682 14.602567 
L 62.832618 14.602567 
L 63.105299 12.413458 
L 63.241928 13.872864 
L 63.377246 11.683754 
L 63.513906 12.413458 
L 63.649111 12.413458 
L 63.786259 13.872864 
L 64.058415 12.778254 
L 64.194432 16.061974 
L 64.330878 13.143161 
L 64.469074 14.602567 
L 64.603548 12.413458 
L 64.7398 12.413568 
L 64.876999 15.332271 
L 65.012807 13.143161 
L 65.15093 12.811518 
L 65.285427 11.683864 
L 65.423489 11.683754 
L 65.559237 12.413458 
L 65.695643 11.683864 
L 65.831814 12.413458 
L 65.967556 10.954051 
L 66.240206 13.143051 
L 66.377621 12.413458 
L 66.512752 13.143161 
L 66.649088 13.143051 
L 66.78696 10.954051 
L 66.923207 11.683864 
L 67.058167 10.954051 
L 67.195947 11.683754 
L 67.332821 13.872864 
L 67.467687 13.872864 
L 67.741411 10.954051 
L 67.876512 14.602567 
L 68.150417 10.224237 
L 68.423415 13.872974 
L 68.694812 11.683644 
L 68.831106 13.143161 
L 68.970136 12.413458 
L 69.10408 13.143271 
L 69.240548 12.413568 
L 69.3788 12.413678 
L 69.513273 11.683754 
L 69.785883 13.143051 
L 69.92229 12.413347 
L 70.059944 14.602457 
L 70.195894 13.143161 
L 70.33275 13.143161 
L 70.469463 15.332271 
L 70.741248 10.954051 
L 70.876877 10.224348 
L 71.149573 13.872754 
L 71.287606 13.872754 
L 71.422508 11.683975 
L 71.695241 11.683754 
L 71.832746 13.143161 
L 71.968064 13.143161 
L 72.105688 13.872864 
L 72.241835 13.872864 
L 72.377114 13.143161 
L 72.51434 14.602567 
L 72.650378 13.872864 
L 72.786064 12.413568 
L 73.059095 12.413458 
L 73.196111 13.872864 
L 73.332102 13.872864 
L 73.468313 14.602567 
L 73.604479 11.683754 
L 73.741399 12.148121 
L 74.013659 14.602567 
L 74.286571 10.954051 
L 74.695662 14.602567 
L 74.832006 13.143161 
L 74.968751 13.872864 
L 75.240927 11.683864 
L 75.378078 13.872974 
L 75.514649 12.413347 
L 75.788154 13.508068 
L 75.922901 13.872864 
L 76.059738 12.413458 
L 76.1973 13.143161 
L 76.332709 13.143271 
L 76.469912 13.872974 
L 76.606357 12.413347 
L 76.742176 14.602567 
L 76.878588 13.873084 
L 77.015166 13.872974 
L 77.150604 13.507957 
L 77.287289 11.683864 
L 77.424192 12.413458 
L 77.559716 12.413458 
L 77.695804 13.872754 
L 77.832165 11.683864 
L 77.96889 12.413458 
L 78.105448 11.683644 
L 78.379486 14.602567 
L 78.514232 12.413347 
L 78.787724 12.413347 
L 78.923297 13.143161 
L 79.060318 13.143161 
L 79.196217 12.413568 
L 79.332536 13.143161 
L 79.46899 13.143161 
L 79.607047 12.413458 
L 79.742001 13.143161 
L 79.878222 11.683754 
L 80.014686 13.872864 
L 80.152951 12.413458 
L 80.423787 13.143161 
L 80.562 16.061974 
L 80.832991 14.602567 
L 80.969356 13.143161 
L 81.106273 13.872864 
L 81.242612 11.683754 
L 81.378553 11.683754 
L 81.515479 12.413458 
L 81.651157 12.413458 
L 81.789599 13.872864 
L 81.924022 12.413458 
L 82.062895 12.413458 
L 82.196854 11.683754 
L 82.333704 11.683754 
L 82.469654 13.872864 
L 82.742455 13.872754 
L 82.881303 12.413347 
L 83.015055 13.143161 
L 83.153001 15.332271 
L 83.426406 12.048661 
L 83.562415 13.872974 
L 83.835342 13.872974 
L 83.969799 10.954161 
L 84.106261 13.143161 
L 84.242343 13.143161 
L 84.381035 12.278091 
L 84.515945 10.224348 
L 84.651751 12.413458 
L 84.787782 12.778254 
L 84.924605 10.954161 
L 85.062413 13.143271 
L 85.197143 13.143161 
L 85.470038 11.683644 
L 85.742514 14.602567 
L 86.016963 10.954051 
L 86.153954 14.602567 
L 86.424438 11.683754 
L 86.561004 12.778254 
L 86.69881 12.148121 
L 86.834056 14.602567 
L 86.972365 13.872864 
L 87.106234 13.872864 
L 87.244684 13.143161 
L 87.380173 13.143161 
L 87.515483 11.116183 
L 87.653349 12.413458 
L 87.788449 11.683754 
L 87.925002 12.413458 
L 88.062456 11.683754 
L 88.199451 13.143161 
L 88.33374 11.683754 
L 88.470245 12.413458 
L 88.608566 13.872864 
L 88.879424 12.413458 
L 89.015453 13.143161 
L 89.424889 13.143161 
L 89.560963 12.413458 
L 89.697547 10.954161 
L 89.970734 14.602567 
L 90.107018 11.683754 
L 90.243605 13.143161 
L 90.38047 12.413568 
L 90.651885 12.413568 
L 90.788362 11.683754 
L 91.334131 11.683864 
L 91.471587 10.954051 
L 91.60804 12.413458 
L 91.881534 10.954161 
L 92.153469 12.413458 
L 92.288315 11.683754 
L 92.561947 13.143271 
L 92.971421 13.143161 
L 93.10819 13.872974 
L 93.244241 13.872754 
L 93.380663 12.413458 
L 93.516115 12.413347 
L 93.653372 12.278201 
L 93.791318 11.683864 
L 93.924854 13.142941 
L 94.062878 13.143271 
L 94.197747 12.413458 
L 94.334521 10.954051 
L 94.470925 10.954051 
L 94.608151 10.818794 
L 94.743504 13.143271 
L 94.879835 13.143161 
L 95.016495 12.413458 
L 95.153106 13.143161 
L 95.289266 13.143161 
L 95.426853 11.683644 
L 95.699259 14.602567 
L 95.83584 13.143161 
L 95.970869 14.602567 
L 96.108419 14.602567 
L 96.380049 10.954051 
L 96.790376 13.143161 
L 96.926477 14.602567 
L 97.062223 14.602678 
L 97.198125 13.143161 
L 97.607031 13.143161 
L 97.744678 11.683754 
L 97.879763 14.602567 
L 98.016994 10.954051 
L 98.152867 14.602567 
L 98.289146 12.778254 
L 98.427291 13.143161 
L 98.56281 12.413347 
L 98.698356 13.143161 
L 98.834865 12.413458 
L 98.97115 16.061974 
L 99.107499 11.683754 
L 99.244869 14.602567 
L 99.381313 12.413568 
L 99.516563 12.413568 
L 99.653072 12.048661 
L 99.926854 13.872754 
L 100.062063 13.872974 
L 100.199711 13.143161 
L 100.336389 13.872974 
L 100.470974 13.143051 
L 100.607675 13.143161 
L 100.745478 11.683644 
L 100.88039 11.683644 
L 101.017502 16.061864 
L 101.155453 13.143271 
L 101.289756 14.602567 
L 101.426092 13.143271 
L 101.562371 14.602567 
L 101.972077 12.413458 
L 102.107745 14.602567 
L 102.244196 12.413458 
L 102.382021 13.143161 
L 102.517282 11.683864 
L 102.789529 12.778254 
L 102.926472 12.413458 
L 103.062616 11.683754 
L 103.198828 13.143161 
L 103.607981 10.954051 
L 104.016874 13.143161 
L 104.154445 12.413458 
L 104.426711 12.413458 
L 104.701478 14.602567 
L 104.836211 14.602567 
L 104.972341 11.683754 
L 105.245656 15.332271 
L 105.517179 13.548601 
L 105.654557 12.413458 
L 105.927329 13.872864 
L 106.06366 13.143161 
L 106.199287 13.872864 
L 106.336045 12.413347 
L 106.473713 12.413347 
L 106.608111 11.683754 
L 106.745459 13.143161 
L 106.880674 12.413458 
L 107.153292 12.413458 
L 107.289715 13.507957 
L 107.426177 12.413458 
L 107.563497 10.089091 
L 107.835303 14.602567 
L 108.108163 12.413347 
L 108.246072 12.95118 
L 108.380706 10.954161 
L 108.653536 13.143161 
L 108.790786 12.413678 
L 108.926468 13.143271 
L 109.062571 12.413568 
L 109.199206 12.413458 
L 109.336365 13.143161 
L 109.471731 10.954051 
L 109.608896 13.872974 
L 109.74469 13.143161 
L 109.880792 11.683754 
L 110.01762 13.143161 
L 110.153659 11.683754 
L 110.290567 12.413458 
L 110.426315 13.872864 
L 110.699357 12.413458 
L 110.835241 12.413458 
L 110.971786 13.143161 
L 111.108073 11.683754 
L 111.381268 13.143161 
L 111.517611 11.683754 
L 111.791402 12.778254 
L 111.926481 12.413458 
L 112.062674 12.413458 
L 112.199583 15.332271 
L 112.335907 13.872864 
L 112.60857 19.710491 
L 112.744455 18.250974 
L 113.290407 27.737227 
L 113.426581 24.818524 
L 113.83576 32.84504 
L 113.972318 32.84515 
L 114.245337 38.682777 
L 114.517545 37.588277 
L 114.654068 35.764074 
L 115.06266 42.331183 
L 115.199295 40.871776 
L 115.335409 41.60159 
L 115.472209 45.249996 
L 115.608326 45.249996 
L 115.744552 43.7907 
L 116.01731 48.16914 
L 116.153825 49.628436 
L 116.426897 49.628216 
L 116.699653 51.087513 
L 116.835685 53.276843 
L 116.972288 51.817436 
L 117.108618 48.763587 
L 117.245072 51.817436 
L 117.38137 51.087953 
L 117.517642 51.817546 
L 117.654083 54.371453 
L 117.790597 54.736139 
L 117.926744 55.465953 
L 118.063436 55.465843 
L 118.199629 56.92547 
L 118.472122 54.006656 
L 118.745116 54.006546 
L 118.881581 56.195436 
L 119.017925 56.560563 
L 119.154252 56.195656 
L 119.290437 56.195656 
L 119.426939 56.925249 
L 119.563596 56.92547 
L 119.699956 57.654953 
L 119.836238 56.92558 
L 119.972188 59.844063 
L 119.972188 59.844063 
" clip-path="url(#p104d480ad8)" style="fill: none; stroke: #0000ff; stroke-width: 2; stroke-linecap: square"/>
   </g>
   <g id="line2d_13">
    <path d="M 35.2 12.798961 
L 124.008959 12.798961 
" clip-path="url(#p104d480ad8)" style="fill: none; stroke-dasharray: 3.7,1.6; stroke-dashoffset: 0; stroke: #000000; stroke-opacity: 0.7"/>
   </g>
   <g id="patch_3">
    <path d="M 35.2 70.76 
L 35.2 7.2 
" style="fill: none; stroke: #000000; stroke-width: 0.8; stroke-linejoin: miter; stroke-linecap: square"/>
   </g>
   <g id="patch_4">
    <path d="M 124.008959 70.76 
L 124.008959 7.2 
" style="fill: none; stroke: #000000; stroke-width: 0.8; stroke-linejoin: miter; stroke-linecap: square"/>
   </g>
   <g id="patch_5">
    <path d="M 35.2 70.76 
L 124.008959 70.76 
" style="fill: none; stroke: #000000; stroke-width: 0.8; stroke-linejoin: miter; stroke-linecap: square"/>
   </g>
   <g id="patch_6">
    <path d="M 35.2 7.2 
L 124.008959 7.2 
" style="fill: none; stroke: #000000; stroke-width: 0.8; stroke-linejoin: miter; stroke-linecap: square"/>
   </g>
  </g>
  <g id="axes_2">
   <g id="patch_7">
    <path d="M 159.625 70.76 
L 248.433959 70.76 
L 248.433959 7.2 
L 159.625 7.2 
z
" style="fill: #ffffff"/>
   </g>
   <g id="matplotlib.axis_3">
    <g id="xtick_3">
     <g id="line2d_14">
      <path d="M 163.661771 70.76 
L 163.661771 7.2 
" clip-path="url(#p17d47b8cda)" style="fill: none; stroke: #b0b0b0; stroke-opacity: 0.3; stroke-width: 0.8; stroke-linecap: square"/>
     </g>
     <g id="line2d_15">
      <g>
       <use xlink:href="#mb453fa7aef" x="163.661771" y="70.76" style="stroke: #000000; stroke-width: 0.8"/>
      </g>
     </g>
     <g id="text_6">
      <!-- 0 -->
      <g transform="translate(160.661771 86.0925) scale(0.12 -0.12)">
       <use xlink:href="#TimesNewRomanPSMT-30"/>
      </g>
     </g>
    </g>
    <g id="xtick_4">
     <g id="line2d_16">
      <path d="M 245.489062 70.76 
L 245.489062 7.2 
" clip-path="url(#p17d47b8cda)" style="fill: none; stroke: #b0b0b0; stroke-opacity: 0.3; stroke-width: 0.8; stroke-linecap: square"/>
     </g>
     <g id="line2d_17">
      <g>
       <use xlink:href="#mb453fa7aef" x="245.489062" y="70.76" style="stroke: #000000; stroke-width: 0.8"/>
      </g>
     </g>
     <g id="text_7">
      <!-- 20 -->
      <g transform="translate(239.489062 86.0925) scale(0.12 -0.12)">
       <use xlink:href="#TimesNewRomanPSMT-32"/>
       <use xlink:href="#TimesNewRomanPSMT-30" x="50"/>
      </g>
     </g>
    </g>
   </g>
   <g id="matplotlib.axis_4">
    <g id="ytick_4">
     <g id="line2d_18">
      <path d="M 159.625 60.166667 
L 248.433959 60.166667 
" clip-path="url(#p17d47b8cda)" style="fill: none; stroke: #b0b0b0; stroke-opacity: 0.3; stroke-width: 0.8; stroke-linecap: square"/>
     </g>
     <g id="line2d_19">
      <g>
       <use xlink:href="#m2bb51031d5" x="159.625" y="60.166667" style="stroke: #000000; stroke-width: 0.8"/>
      </g>
     </g>
     <g id="text_8">
      <!-- −1 -->
      <g transform="translate(139.858125 64.332917) scale(0.12 -0.12)">
       <defs>
        <path id="TimesNewRomanPSMT-2212" d="M 3484 2000 
L 116 2000 
L 116 2256 
L 3484 2256 
L 3484 2000 
z
" transform="scale(0.015625)"/>
        <path id="TimesNewRomanPSMT-31" d="M 750 3822 
L 1781 4325 
L 1884 4325 
L 1884 747 
Q 1884 391 1914 303 
Q 1944 216 2037 169 
Q 2131 122 2419 116 
L 2419 0 
L 825 0 
L 825 116 
Q 1125 122 1212 167 
Q 1300 213 1334 289 
Q 1369 366 1369 747 
L 1369 3034 
Q 1369 3497 1338 3628 
Q 1316 3728 1258 3775 
Q 1200 3822 1119 3822 
Q 1003 3822 797 3725 
L 750 3822 
z
" transform="scale(0.015625)"/>
       </defs>
       <use xlink:href="#TimesNewRomanPSMT-2212"/>
       <use xlink:href="#TimesNewRomanPSMT-31" x="56.396484"/>
      </g>
     </g>
    </g>
    <g id="ytick_5">
     <g id="line2d_20">
      <path d="M 159.625 38.98 
L 248.433959 38.98 
" clip-path="url(#p17d47b8cda)" style="fill: none; stroke: #b0b0b0; stroke-opacity: 0.3; stroke-width: 0.8; stroke-linecap: square"/>
     </g>
     <g id="line2d_21">
      <g>
       <use xlink:href="#m2bb51031d5" x="159.625" y="38.98" style="stroke: #000000; stroke-width: 0.8"/>
      </g>
     </g>
     <g id="text_9">
      <!-- 0 -->
      <g transform="translate(146.625 43.14625) scale(0.12 -0.12)">
       <use xlink:href="#TimesNewRomanPSMT-30"/>
      </g>
     </g>
    </g>
    <g id="ytick_6">
     <g id="line2d_22">
      <path d="M 159.625 17.793333 
L 248.433959 17.793333 
" clip-path="url(#p17d47b8cda)" style="fill: none; stroke: #b0b0b0; stroke-opacity: 0.3; stroke-width: 0.8; stroke-linecap: square"/>
     </g>
     <g id="line2d_23">
      <g>
       <use xlink:href="#m2bb51031d5" x="159.625" y="17.793333" style="stroke: #000000; stroke-width: 0.8"/>
      </g>
     </g>
     <g id="text_10">
      <!-- 1 -->
      <g transform="translate(146.625 21.959583) scale(0.12 -0.12)">
       <use xlink:href="#TimesNewRomanPSMT-31"/>
      </g>
     </g>
    </g>
   </g>
   <g id="line2d_24">
    <path d="M 163.661771 38.98 
L 167.34569 38.893325 
L 168.162902 38.81896 
L 168.982191 38.867393 
L 169.390669 38.879618 
L 169.664168 38.925381 
L 169.800318 38.45188 
L 170.481412 38.506796 
L 170.753751 38.672793 
L 170.891692 38.684213 
L 171.026349 38.576606 
L 171.300823 37.722487 
L 171.572875 37.764733 
L 172.117592 37.993231 
L 172.255292 37.833081 
L 172.527604 37.912806 
L 172.66289 38.527771 
L 172.937853 38.621034 
L 173.072573 38.460418 
L 173.619109 38.61881 
L 173.892525 38.668789 
L 174.164322 39.214833 
L 174.435963 39.326233 
L 174.708933 39.643757 
L 174.845077 39.66238 
L 175.119199 40.004502 
L 175.390881 39.987447 
L 175.66462 39.542697 
L 175.935969 39.599689 
L 176.346762 39.539307 
L 176.618322 39.151993 
L 176.891251 39.094154 
L 177.300158 39.330385 
L 177.846508 39.276762 
L 179.075909 39.646893 
L 179.21003 39.071632 
L 179.48257 38.995064 
L 179.619232 39.333542 
L 179.891391 39.293266 
L 180.164147 38.460566 
L 180.438239 38.487558 
L 180.7117 38.555906 
L 180.846021 38.900147 
L 181.256765 38.87216 
L 181.530271 39.152904 
L 181.937498 39.075488 
L 182.212968 38.927139 
L 182.620919 38.810591 
L 182.892519 39.250533 
L 183.029401 39.262439 
L 183.300771 39.870073 
L 183.711795 39.759966 
L 183.984734 39.713843 
L 184.255527 39.236994 
L 184.39316 39.185977 
L 184.52927 39.62202 
L 184.801222 39.619096 
L 185.210909 39.56865 
L 185.346675 39.669626 
L 185.484211 38.043422 
L 185.756495 26.26711 
L 186.16469 20.312386 
L 187.119682 15.752273 
L 187.257618 15.368604 
L 187.666928 13.088855 
L 188.211259 11.39907 
L 188.755878 10.572091 
L 189.437807 9.954394 
L 189.710427 10.012339 
L 190.256814 10.587536 
L 190.802621 12.114608 
L 191.074088 12.572748 
L 191.483167 13.718629 
L 191.620947 13.864351 
L 192.029134 15.169492 
L 192.301512 16.619571 
L 192.710598 18.333148 
L 193.938273 23.571679 
L 194.484944 26.381222 
L 195.031079 28.405904 
L 195.166248 28.886947 
L 195.712606 32.109694 
L 195.98375 32.920486 
L 196.257746 33.885412 
L 196.93934 35.413246 
L 197.075378 35.765559 
L 197.211064 35.70791 
L 197.757102 37.140489 
L 197.893313 36.873982 
L 198.029479 36.95125 
L 198.166399 37.207248 
L 198.438659 38.904046 
L 198.575827 39.089705 
L 198.985527 40.234166 
L 199.393751 40.834342 
L 199.665927 42.069249 
L 199.939649 42.528957 
L 200.213154 42.897118 
L 200.6223 42.837668 
L 200.894912 42.157258 
L 201.167176 42.140224 
L 201.712289 41.65613 
L 201.849192 41.287037 
L 201.984716 41.24549 
L 202.257165 41.499201 
L 202.666673 41.419433 
L 202.939232 41.464285 
L 203.212724 41.516383 
L 203.348297 41.509391 
L 203.621217 41.877828 
L 204.167001 41.79092 
L 204.439686 41.098561 
L 204.987 40.748599 
L 205.531273 40.275162 
L 205.803553 39.764839 
L 206.621854 39.568947 
L 206.894654 39.430873 
L 207.167455 39.54632 
L 207.440055 39.681787 
L 207.713281 39.845306 
L 208.394799 39.843039 
L 208.806035 39.96357 
L 209.212782 40.025308 
L 209.487413 40.048444 
L 209.622143 39.991197 
L 210.033121 39.519963 
L 210.578954 39.611575 
L 210.849438 39.612867 
L 210.986004 48.412834 
L 211.259056 51.603524 
L 211.940483 60.796991 
L 212.487456 64.7068 
L 213.033566 66.733326 
L 213.849889 68.044251 
L 214.80547 68.867522 
L 214.941982 68.947693 
L 215.351517 68.421395 
L 216.306534 66.811504 
L 217.26011 64.134167 
L 217.805663 62.193235 
L 218.216318 61.090321 
L 218.622747 58.898179 
L 219.033151 56.917501 
L 220.669796 47.883548 
L 221.351477 45.616978 
L 221.487223 43.901769 
L 221.623125 43.980583 
L 222.441994 41.398331 
L 222.714146 40.75754 
L 222.852291 42.468067 
L 222.98781 42.513978 
L 223.259865 39.885921 
L 223.39615 39.89626 
L 223.532499 39.701427 
L 223.669869 40.071707 
L 223.806313 39.982256 
L 223.941563 40.039821 
L 224.761389 38.653365 
L 224.895974 39.454963 
L 225.170478 38.569296 
L 225.442502 37.755728 
L 225.580453 37.553014 
L 225.987371 36.501245 
L 226.124991 36.319929 
L 226.532745 36.639954 
L 227.351472 35.950413 
L 227.896696 35.419538 
L 228.169942 35.215447 
L 228.441874 35.876005 
L 228.851711 35.879649 
L 229.126478 35.950413 
L 229.261211 35.940158 
L 229.533084 36.590356 
L 230.215201 36.491584 
L 230.48866 37.219324 
L 230.898713 37.325576 
L 231.170459 37.396254 
L 231.305674 37.369432 
L 231.578292 37.446382 
L 231.851177 37.396572 
L 231.988497 37.66024 
L 232.260303 37.599773 
L 232.671072 37.951281 
L 232.805706 37.951027 
L 233.078536 38.511838 
L 233.351468 38.470906 
L 233.624206 38.262577 
L 233.896731 38.227916 
L 234.033896 37.895285 
L 234.44262 37.748419 
L 234.715567 37.622528 
L 234.851315 37.560239 
L 235.124357 37.186866 
L 235.396786 37.216846 
L 235.669887 37.685092 
L 236.351481 37.928485 
L 236.487674 38.617157 
L 237.03357 38.726035 
L 237.579282 38.922266 
L 237.851581 39.123074 
L 238.397318 39.29352 
L 238.670337 38.001896 
L 238.942545 37.937743 
L 239.215502 37.415788 
L 239.351761 37.411678 
L 239.624295 36.988347 
L 239.760409 36.935105 
L 240.033326 36.158974 
L 240.305949 36.178042 
L 240.578825 35.078539 
L 240.851897 35.122692 
L 241.124653 36.132703 
L 241.397288 36.347535 
L 241.670072 36.835994 
L 241.942642 36.976589 
L 242.215597 37.902425 
L 242.624629 37.997553 
L 242.897122 40.758727 
L 243.306581 40.891927 
L 243.579252 40.928135 
L 243.988596 40.230056 
L 244.397188 40.122258 
L 244.397188 40.122258 
" clip-path="url(#p17d47b8cda)" style="fill: none; stroke: #ff0000; stroke-opacity: 0.8; stroke-width: 2; stroke-linecap: square"/>
   </g>
   <g id="line2d_25">
    <path d="M 163.661771 38.98 
L 164.209054 38.98 
L 164.343965 40.11194 
L 164.480282 39.545938 
L 164.616596 37.848124 
L 164.753178 38.413998 
L 164.889581 37.282058 
L 165.025887 39.262969 
L 165.162606 38.413998 
L 165.299851 38.98 
L 165.43632 38.98 
L 165.571487 39.545938 
L 165.708139 41.243795 
L 165.845548 38.98 
L 165.981334 39.828971 
L 166.116797 38.413998 
L 166.390825 38.414041 
L 166.527292 39.546002 
L 166.662467 39.545959 
L 166.800622 37.84806 
L 166.936544 39.545981 
L 167.208493 37.848039 
L 167.48108 39.545959 
L 167.617537 37.84806 
L 167.75522 39.545981 
L 168.162902 39.545981 
L 168.299908 37.282101 
L 168.572155 39.545959 
L 168.84591 37.848124 
L 168.982191 37.847996 
L 169.117137 38.98 
L 169.253914 37.84806 
L 169.390669 38.98 
L 169.526177 38.131029 
L 169.664168 38.414062 
L 169.800318 38.413935 
L 169.935638 37.847996 
L 170.072126 40.112004 
L 170.344871 37.282058 
L 170.617792 38.98 
L 170.753751 37.848124 
L 171.026349 37.847996 
L 171.436891 39.545938 
L 171.572875 37.281931 
L 171.710154 37.282206 
L 171.981538 38.98 
L 172.117592 36.716141 
L 172.255292 38.414062 
L 172.390226 36.150203 
L 172.66289 37.282101 
L 172.79934 38.413998 
L 172.937853 38.413998 
L 173.072573 36.716056 
L 173.34513 37.848124 
L 173.48169 37.848039 
L 173.619109 38.131029 
L 173.754794 37.282058 
L 174.027058 37.282058 
L 174.300965 39.545981 
L 174.435963 37.282079 
L 174.573865 37.84806 
L 174.708933 39.545959 
L 174.845077 37.282058 
L 175.119199 40.677899 
L 175.25568 38.98 
L 175.390881 38.98 
L 175.528426 39.546002 
L 175.66462 40.677899 
L 175.935969 39.545938 
L 176.210246 40.677942 
L 176.346762 40.111876 
L 176.482136 40.677942 
L 176.618322 38.98 
L 176.755941 38.697031 
L 176.891251 39.545938 
L 177.029183 38.98 
L 177.163657 39.546065 
L 177.300158 38.414062 
L 177.573758 39.546065 
L 177.708854 39.545938 
L 177.846508 40.112004 
L 177.982043 40.006981 
L 178.119511 38.414062 
L 178.256896 40.112004 
L 178.392334 39.545938 
L 178.527439 38.414062 
L 178.801771 40.112004 
L 179.075909 40.11194 
L 179.21003 39.545938 
L 179.345818 39.546002 
L 179.48257 40.112004 
L 179.619232 38.98 
L 179.756838 40.112004 
L 179.891391 40.112004 
L 180.027911 38.98 
L 180.30213 38.98 
L 180.438239 40.111961 
L 180.575181 40.11194 
L 180.846021 37.282079 
L 180.983307 37.848039 
L 181.11881 39.545981 
L 181.256765 39.545981 
L 181.530271 38.414041 
L 181.66645 38.98 
L 182.075432 38.98 
L 182.212968 38.69701 
L 182.347194 38.98 
L 182.48263 37.847996 
L 182.620919 38.98 
L 182.892519 38.98 
L 183.029401 40.111876 
L 183.166531 38.98 
L 183.300771 39.546002 
L 183.439435 38.98 
L 183.711795 38.98 
L 183.848326 40.112004 
L 183.984734 38.414062 
L 184.255527 41.244007 
L 184.52927 39.546065 
L 184.666563 38.98 
L 184.801222 40.111876 
L 184.937459 39.546065 
L 185.075848 40.112004 
L 185.210909 39.546065 
L 185.346675 39.546002 
L 185.484211 40.112004 
L 185.756495 38.98 
L 185.892982 38.98 
L 186.028396 40.11194 
L 186.16469 39.546002 
L 186.301187 36.716141 
L 186.439061 37.84806 
L 186.573965 36.150139 
L 186.711918 35.86717 
L 186.848931 34.452197 
L 186.98358 34.452219 
L 187.119682 32.754256 
L 187.257618 32.754298 
L 187.392045 33.886238 
L 187.530299 31.056356 
L 187.666928 31.056356 
L 187.802246 29.358436 
L 187.938906 31.056356 
L 188.211259 27.660515 
L 188.348545 28.226474 
L 188.483415 26.245563 
L 188.619432 25.962594 
L 188.755878 24.830633 
L 188.894074 24.830654 
L 189.028548 24.264674 
L 189.1648 23.132755 
L 189.301999 23.132755 
L 189.437807 22.566774 
L 189.710427 20.302958 
L 189.848489 19.73685 
L 190.120643 18.038972 
L 190.256814 18.60491 
L 190.529561 18.60491 
L 190.665206 16.906904 
L 190.802621 18.60491 
L 190.937752 18.038972 
L 191.074088 16.906904 
L 191.348207 19.170848 
L 191.483167 17.47297 
L 191.620947 18.038908 
L 191.757821 17.47297 
L 192.029134 17.472906 
L 192.301512 19.170954 
L 192.438503 18.038929 
L 192.710598 18.038844 
L 192.848415 17.472906 
L 192.983546 18.03895 
L 193.119812 19.170954 
L 193.256106 19.170869 
L 193.395136 17.473012 
L 193.52908 20.302852 
L 193.665548 19.73685 
L 194.210883 23.698778 
L 194.34729 23.698651 
L 194.484944 25.962594 
L 194.75775 25.962594 
L 194.894463 27.660515 
L 195.031079 27.660515 
L 195.166248 24.264652 
L 195.438254 30.490333 
L 195.574573 31.05625 
L 195.712606 33.320257 
L 195.847508 31.622316 
L 195.98375 32.754319 
L 196.257746 31.622316 
L 196.802114 36.150139 
L 196.93934 35.018136 
L 197.075378 36.150139 
L 197.211064 35.584159 
L 197.348763 35.584138 
L 197.621111 36.716099 
L 197.757102 36.716078 
L 197.893313 38.413998 
L 198.029479 37.282079 
L 198.166399 37.950964 
L 198.302371 37.282079 
L 198.575827 37.282058 
L 198.711571 38.98 
L 198.985527 37.282058 
L 199.120662 39.546002 
L 199.257006 38.414041 
L 199.393751 41.243838 
L 199.531288 40.112004 
L 199.803078 41.243859 
L 199.939649 41.243944 
L 200.075294 41.809797 
L 200.213154 41.526913 
L 200.347901 42.375799 
L 200.484738 41.243859 
L 200.6223 42.941801 
L 200.757709 42.941801 
L 200.894912 43.507739 
L 201.031357 42.375862 
L 201.167176 42.941801 
L 201.303588 41.243859 
L 201.440166 41.244007 
L 201.575604 42.092893 
L 201.712289 41.809797 
L 201.849192 41.243859 
L 201.984716 41.809797 
L 202.120804 43.507866 
L 202.39389 41.243859 
L 202.530448 40.677794 
L 202.804486 40.678069 
L 202.939232 41.243944 
L 203.076073 41.243795 
L 203.212724 42.375799 
L 203.348297 40.677942 
L 203.621217 42.375799 
L 203.757536 41.809861 
L 203.89399 41.809861 
L 204.032047 41.243901 
L 204.167001 41.809861 
L 204.303222 41.80984 
L 204.439686 42.375841 
L 204.577951 41.243922 
L 204.714162 41.52687 
L 204.987 39.545981 
L 205.257991 41.809882 
L 205.394356 39.545981 
L 205.667612 40.677942 
L 205.803553 40.677899 
L 205.940479 40.11194 
L 206.076157 38.98 
L 206.214599 40.11194 
L 206.487895 40.111961 
L 206.621854 39.546002 
L 206.758704 39.546002 
L 206.894654 41.243944 
L 207.030816 38.98 
L 207.167455 40.112004 
L 207.306303 40.11194 
L 207.578001 38.98 
L 207.713281 40.111876 
L 207.851406 39.829034 
L 207.987415 40.112131 
L 208.12454 38.98 
L 208.260342 41.244007 
L 208.531261 39.546065 
L 208.667343 39.546065 
L 208.806035 38.875126 
L 209.212782 40.394973 
L 209.349605 38.98 
L 209.487413 39.545938 
L 209.622143 40.677942 
L 209.895038 39.545938 
L 210.033121 40.678069 
L 210.167514 40.677942 
L 210.303792 39.545938 
L 210.578954 40.677942 
L 210.849438 38.413998 
L 210.986004 39.828971 
L 211.12381 40.009036 
L 211.259056 40.677899 
L 211.397365 40.11194 
L 211.531234 42.375862 
L 211.669684 40.677942 
L 211.805173 40.677899 
L 212.078349 42.375841 
L 212.213449 41.809882 
L 212.487456 45.205744 
L 212.75874 47.469624 
L 212.895245 46.903601 
L 213.169482 48.601586 
L 213.304424 49.167587 
L 213.440453 51.997406 
L 213.576959 50.865508 
L 213.71495 53.129325 
L 213.849889 50.865339 
L 213.985963 53.695221 
L 214.122547 52.563344 
L 214.258774 53.129473 
L 214.941982 59.355027 
L 215.076885 57.091147 
L 215.213362 57.657212 
L 215.351517 59.921092 
L 215.624251 59.921092 
L 215.759131 61.053096 
L 215.896587 59.355154 
L 216.03304 60.486988 
L 216.168167 58.789152 
L 216.578469 60.486988 
L 216.713315 59.921071 
L 216.986947 61.053053 
L 217.122993 59.921028 
L 217.396421 59.921028 
L 217.53319 60.487094 
L 217.669241 60.486946 
L 217.805663 59.35509 
L 217.941115 60.48703 
L 218.078372 59.250195 
L 218.349854 61.053032 
L 218.487878 59.921156 
L 218.622747 60.486946 
L 218.759521 59.354963 
L 218.895925 59.355217 
L 219.033151 60.591968 
L 219.168504 59.921156 
L 219.304835 59.921028 
L 219.441495 59.35509 
L 219.714266 56.525145 
L 219.986537 53.695305 
L 220.26084 50.865551 
L 220.395869 50.865487 
L 220.533419 49.733547 
L 220.669796 49.733505 
L 220.805049 49.167545 
L 221.078897 50.299485 
L 221.215376 48.601543 
L 221.351477 48.601564 
L 221.487223 47.469646 
L 221.623125 47.469624 
L 221.896445 44.073762 
L 222.032031 44.073741 
L 222.169678 41.809861 
L 222.304763 41.809861 
L 222.441994 42.375841 
L 222.852291 40.677942 
L 223.123356 41.809861 
L 223.259865 41.243859 
L 223.39615 42.941843 
L 223.532499 39.546002 
L 223.669869 39.545938 
L 223.806313 38.98 
L 223.941563 38.98 
L 224.078072 40.39493 
L 224.214241 39.546002 
L 224.351854 40.112004 
L 224.487063 40.111876 
L 224.624711 38.413935 
L 224.895974 39.546002 
L 225.032675 40.677942 
L 225.170478 39.545938 
L 225.580453 39.545938 
L 225.714756 37.282206 
L 225.851092 38.414062 
L 225.987371 36.150055 
L 226.260236 37.282058 
L 226.532745 36.150055 
L 226.669196 36.716141 
L 226.807021 36.150139 
L 226.942282 36.150203 
L 227.487616 38.413998 
L 227.760002 35.584138 
L 227.896696 36.150139 
L 228.169942 35.018136 
L 228.441874 37.282058 
L 228.715263 35.584138 
L 228.987496 35.584159 
L 229.126478 36.150139 
L 229.397341 36.150139 
L 229.533084 36.716078 
L 229.805594 36.716099 
L 229.942179 34.577962 
L 230.079557 36.716099 
L 230.215201 36.15016 
L 230.352329 37.282058 
L 230.48866 36.150139 
L 230.624287 36.716205 
L 230.761045 37.848124 
L 230.898713 36.716056 
L 231.033111 37.281995 
L 231.170459 37.282122 
L 231.305674 36.716141 
L 231.578292 36.716141 
L 231.851177 37.847996 
L 231.988497 37.386805 
L 232.260303 38.414062 
L 232.397799 39.546065 
L 232.533163 36.715993 
L 232.671072 37.490641 
L 232.805706 36.716141 
L 232.942279 37.847996 
L 233.078536 37.282058 
L 233.487571 38.98 
L 233.761365 37.282058 
L 233.896731 37.84806 
L 234.033896 38.98 
L 234.16969 37.282058 
L 234.305792 37.281995 
L 234.44262 37.848039 
L 234.578659 37.282101 
L 234.715567 37.848039 
L 234.851315 37.84806 
L 234.988051 38.414041 
L 235.124357 36.716099 
L 235.260241 36.716099 
L 235.396786 37.282101 
L 235.533073 37.282101 
L 235.669887 36.716099 
L 235.806268 37.282079 
L 235.942611 36.150139 
L 236.351481 37.848039 
L 236.760907 37.84806 
L 236.897265 39.494476 
L 237.03357 38.98 
L 237.169455 37.848102 
L 237.306393 40.11194 
L 237.579282 38.413998 
L 237.851581 38.413998 
L 237.987619 38.98 
L 238.124521 38.98 
L 238.26076 37.847996 
L 238.397318 37.84806 
L 238.53315 38.98 
L 238.670337 38.98 
L 238.806029 38.414062 
L 239.079068 38.98 
L 239.351761 37.282058 
L 239.624295 39.545938 
L 239.897209 38.414062 
L 240.033326 38.414062 
L 240.169552 36.150055 
L 240.305949 36.433172 
L 240.44231 37.282058 
L 240.578825 37.282058 
L 240.715277 36.150055 
L 240.851897 36.150055 
L 240.988484 35.584138 
L 241.260685 36.921927 
L 241.397288 36.716141 
L 241.533618 33.215383 
L 241.670072 35.583989 
L 241.80637 35.018199 
L 242.079083 37.565091 
L 242.215597 36.715993 
L 242.351744 38.413935 
L 242.488436 38.414062 
L 242.624629 39.545938 
L 242.761085 37.282058 
L 243.170116 37.282206 
L 243.442925 39.828971 
L 243.579252 40.112004 
L 243.715437 38.98 
L 243.851939 39.546065 
L 243.988596 39.545938 
L 244.124956 41.243859 
L 244.261238 40.677942 
L 244.397188 39.545938 
L 244.397188 39.545938 
" clip-path="url(#p17d47b8cda)" style="fill: none; stroke: #0000ff; stroke-width: 2; stroke-linecap: square"/>
   </g>
   <g id="line2d_26">
    <path d="M 159.625 17.793333 
L 248.433959 17.793333 
" clip-path="url(#p17d47b8cda)" style="fill: none; stroke-dasharray: 7.4,3.2; stroke-dashoffset: 0; stroke: #000000; stroke-opacity: 0.7; stroke-width: 2"/>
   </g>
   <g id="line2d_27">
    <path d="M 159.625 60.166667 
L 248.433959 60.166667 
" clip-path="url(#p17d47b8cda)" style="fill: none; stroke-dasharray: 7.4,3.2; stroke-dashoffset: 0; stroke: #000000; stroke-opacity: 0.7; stroke-width: 2"/>
   </g>
   <g id="patch_8">
    <path d="M 159.625 70.76 
L 159.625 7.2 
" style="fill: none; stroke: #000000; stroke-width: 0.8; stroke-linejoin: miter; stroke-linecap: square"/>
   </g>
   <g id="patch_9">
    <path d="M 248.433959 70.76 
L 248.433959 7.2 
" style="fill: none; stroke: #000000; stroke-width: 0.8; stroke-linejoin: miter; stroke-linecap: square"/>
   </g>
   <g id="patch_10">
    <path d="M 159.625 70.76 
L 248.433959 70.76 
" style="fill: none; stroke: #000000; stroke-width: 0.8; stroke-linejoin: miter; stroke-linecap: square"/>
   </g>
   <g id="patch_11">
    <path d="M 159.625 7.2 
L 248.433959 7.2 
" style="fill: none; stroke: #000000; stroke-width: 0.8; stroke-linejoin: miter; stroke-linecap: square"/>
   </g>
  </g>
 </g>
 <defs>
  <clipPath id="p104d480ad8">
   <rect x="35.2" y="7.2" width="88.808959" height="63.56"/>
  </clipPath>
  <clipPath id="p17d47b8cda">
   <rect x="159.625" y="7.2" width="88.808959" height="63.56"/>
  </clipPath>
 </defs>
</svg>
