<?xml version="1.0" encoding="utf-8" standalone="no"?>
<!DOCTYPE svg PUBLIC "-//W3C//DTD SVG 1.1//EN"
  "http://www.w3.org/Graphics/SVG/1.1/DTD/svg11.dtd">
<svg xmlns:xlink="http://www.w3.org/1999/xlink" width="258.605139pt" height="95.859375pt" viewBox="0 0 258.605139 95.859375" xmlns="http://www.w3.org/2000/svg" version="1.1">
 <metadata>
  <rdf:RDF xmlns:dc="http://purl.org/dc/elements/1.1/" xmlns:cc="http://creativecommons.org/ns#" xmlns:rdf="http://www.w3.org/1999/02/22-rdf-syntax-ns#">
   <cc:Work>
    <dc:type rdf:resource="http://purl.org/dc/dcmitype/StillImage"/>
    <dc:date>2026-01-18T23:30:36.125079</dc:date>
    <dc:format>image/svg+xml</dc:format>
    <dc:creator>
     <cc:Agent>
      <dc:title>Matplotlib v3.6.3, https://matplotlib.org/</dc:title>
     </cc:Agent>
    </dc:creator>
   </cc:Work>
  </rdf:RDF>
 </metadata>
 <defs>
  <style type="text/css">*{stroke-linejoin: round; stroke-linecap: butt}</style>
 </defs>
 <g id="figure_1">
  <g id="patch_1">
   <path d="M 0 95.859375 
L 258.605139 95.859375 
L 258.605139 0 
L 0 0 
z
" style="fill: #ffffff"/>
  </g>
  <g id="axes_1">
   <g id="patch_2">
    <path d="M 35.2 70.76 
L 122.349498 70.76 
L 122.349498 7.2 
L 35.2 7.2 
z
" style="fill: #ffffff"/>
   </g>
   <g id="matplotlib.axis_1">
    <g id="xtick_1">
     <g id="line2d_1">
      <path d="M 39.161341 70.76 
L 39.161341 7.2 
" clip-path="url(#pc7b2305333)" style="fill: none; stroke: #b0b0b0; stroke-opacity: 0.3; stroke-width: 0.8; stroke-linecap: square"/>
     </g>
     <g id="line2d_2">
      <defs>
       <path id="m5b9212467a" d="M 0 0 
L 0 3.5 
" style="stroke: #000000; stroke-width: 0.8"/>
      </defs>
      <g>
       <use xlink:href="#m5b9212467a" x="39.161341" y="70.76" style="stroke: #000000; stroke-width: 0.8"/>
      </g>
     </g>
     <g id="text_1">
      <!-- 0 -->
      <g transform="translate(36.161341 86.0925) scale(0.12 -0.12)">
       <defs>
        <path id="TimesNewRomanPSMT-30" d="M 231 2094 
Q 231 2819 450 3342 
Q 669 3866 1031 4122 
Q 1313 4325 1613 4325 
Q 2100 4325 2488 3828 
Q 2972 3213 2972 2159 
Q 2972 1422 2759 906 
Q 2547 391 2217 158 
Q 1888 -75 1581 -75 
Q 975 -75 572 641 
Q 231 1244 231 2094 
z
M 844 2016 
Q 844 1141 1059 588 
Q 1238 122 1591 122 
Q 1759 122 1940 273 
Q 2122 425 2216 781 
Q 2359 1319 2359 2297 
Q 2359 3022 2209 3506 
Q 2097 3866 1919 4016 
Q 1791 4119 1609 4119 
Q 1397 4119 1231 3928 
Q 1006 3669 925 3112 
Q 844 2556 844 2016 
z
" transform="scale(0.015625)"/>
       </defs>
       <use xlink:href="#TimesNewRomanPSMT-30"/>
      </g>
     </g>
    </g>
    <g id="xtick_2">
     <g id="line2d_3">
      <path d="M 120.980139 70.76 
L 120.980139 7.2 
" clip-path="url(#pc7b2305333)" style="fill: none; stroke: #b0b0b0; stroke-opacity: 0.3; stroke-width: 0.8; stroke-linecap: square"/>
     </g>
     <g id="line2d_4">
      <g>
       <use xlink:href="#m5b9212467a" x="120.980139" y="70.76" style="stroke: #000000; stroke-width: 0.8"/>
      </g>
     </g>
     <g id="text_2">
      <!-- 20 -->
      <g transform="translate(114.980139 86.0925) scale(0.12 -0.12)">
       <defs>
        <path id="TimesNewRomanPSMT-32" d="M 2934 816 
L 2638 0 
L 138 0 
L 138 116 
Q 1241 1122 1691 1759 
Q 2141 2397 2141 2925 
Q 2141 3328 1894 3587 
Q 1647 3847 1303 3847 
Q 991 3847 742 3664 
Q 494 3481 375 3128 
L 259 3128 
Q 338 3706 661 4015 
Q 984 4325 1469 4325 
Q 1984 4325 2329 3994 
Q 2675 3663 2675 3213 
Q 2675 2891 2525 2569 
Q 2294 2063 1775 1497 
Q 997 647 803 472 
L 1909 472 
Q 2247 472 2383 497 
Q 2519 522 2628 598 
Q 2738 675 2819 816 
L 2934 816 
z
" transform="scale(0.015625)"/>
       </defs>
       <use xlink:href="#TimesNewRomanPSMT-32"/>
       <use xlink:href="#TimesNewRomanPSMT-30" x="50"/>
      </g>
     </g>
    </g>
   </g>
   <g id="matplotlib.axis_2">
    <g id="ytick_1">
     <g id="line2d_5">
      <path d="M 35.2 67.870909 
L 122.349498 67.870909 
" clip-path="url(#pc7b2305333)" style="fill: none; stroke: #b0b0b0; stroke-opacity: 0.3; stroke-width: 0.8; stroke-linecap: square"/>
     </g>
     <g id="line2d_6">
      <defs>
       <path id="m9636026627" d="M 0 0 
L -3.5 0 
" style="stroke: #000000; stroke-width: 0.8"/>
      </defs>
      <g>
       <use xlink:href="#m9636026627" x="35.2" y="67.870909" style="stroke: #000000; stroke-width: 0.8"/>
      </g>
     </g>
     <g id="text_3">
      <!-- 0.00 -->
      <g transform="translate(7.2 72.037159) scale(0.12 -0.12)">
       <defs>
        <path id="TimesNewRomanPSMT-2e" d="M 800 606 
Q 947 606 1047 504 
Q 1147 403 1147 259 
Q 1147 116 1045 14 
Q 944 -88 800 -88 
Q 656 -88 554 14 
Q 453 116 453 259 
Q 453 406 554 506 
Q 656 606 800 606 
z
" transform="scale(0.015625)"/>
       </defs>
       <use xlink:href="#TimesNewRomanPSMT-30"/>
       <use xlink:href="#TimesNewRomanPSMT-2e" x="50"/>
       <use xlink:href="#TimesNewRomanPSMT-30" x="75"/>
       <use xlink:href="#TimesNewRomanPSMT-30" x="125"/>
      </g>
     </g>
    </g>
    <g id="ytick_2">
     <g id="line2d_7">
      <path d="M 35.2 40.33483 
L 122.349498 40.33483 
" clip-path="url(#pc7b2305333)" style="fill: none; stroke: #b0b0b0; stroke-opacity: 0.3; stroke-width: 0.8; stroke-linecap: square"/>
     </g>
     <g id="line2d_8">
      <g>
       <use xlink:href="#m9636026627" x="35.2" y="40.33483" style="stroke: #000000; stroke-width: 0.8"/>
      </g>
     </g>
     <g id="text_4">
      <!-- 0.25 -->
      <g transform="translate(7.2 44.50108) scale(0.12 -0.12)">
       <defs>
        <path id="TimesNewRomanPSMT-35" d="M 2778 4238 
L 2534 3706 
L 1259 3706 
L 981 3138 
Q 1809 3016 2294 2522 
Q 2709 2097 2709 1522 
Q 2709 1188 2573 903 
Q 2438 619 2231 419 
Q 2025 219 1772 97 
Q 1413 -75 1034 -75 
Q 653 -75 479 54 
Q 306 184 306 341 
Q 306 428 378 495 
Q 450 563 559 563 
Q 641 563 702 538 
Q 763 513 909 409 
Q 1144 247 1384 247 
Q 1750 247 2026 523 
Q 2303 800 2303 1197 
Q 2303 1581 2056 1914 
Q 1809 2247 1375 2428 
Q 1034 2569 447 2591 
L 1259 4238 
L 2778 4238 
z
" transform="scale(0.015625)"/>
       </defs>
       <use xlink:href="#TimesNewRomanPSMT-30"/>
       <use xlink:href="#TimesNewRomanPSMT-2e" x="50"/>
       <use xlink:href="#TimesNewRomanPSMT-32" x="75"/>
       <use xlink:href="#TimesNewRomanPSMT-35" x="125"/>
      </g>
     </g>
    </g>
    <g id="ytick_3">
     <g id="line2d_9">
      <path d="M 35.2 12.798751 
L 122.349498 12.798751 
" clip-path="url(#pc7b2305333)" style="fill: none; stroke: #b0b0b0; stroke-opacity: 0.3; stroke-width: 0.8; stroke-linecap: square"/>
     </g>
     <g id="line2d_10">
      <g>
       <use xlink:href="#m9636026627" x="35.2" y="12.798751" style="stroke: #000000; stroke-width: 0.8"/>
      </g>
     </g>
     <g id="text_5">
      <!-- 0.50 -->
      <g transform="translate(7.2 16.965001) scale(0.12 -0.12)">
       <use xlink:href="#TimesNewRomanPSMT-30"/>
       <use xlink:href="#TimesNewRomanPSMT-2e" x="50"/>
       <use xlink:href="#TimesNewRomanPSMT-35" x="75"/>
       <use xlink:href="#TimesNewRomanPSMT-30" x="125"/>
      </g>
     </g>
    </g>
   </g>
   <g id="line2d_11">
    <path d="M 39.161341 12.798751 
L 110.343405 12.798751 
L 111.843235 29.363906 
L 113.070252 37.491785 
L 113.479367 39.752938 
L 113.751632 42.600609 
L 114.024307 44.140096 
L 114.297293 45.19605 
L 115.115303 49.376247 
L 115.251865 49.116747 
L 117.570003 56.46888 
L 117.979085 57.385501 
L 118.388157 58.78896 
L 118.388157 58.78896 
" clip-path="url(#pc7b2305333)" style="fill: none; stroke: #ff0000; stroke-opacity: 0.8; stroke-width: 2; stroke-linecap: square"/>
   </g>
   <g id="line2d_12">
    <path d="M 39.161341 67.870909 
L 39.708625 67.870909 
L 40.116074 61.303444 
L 40.253507 56.925428 
L 40.388296 56.195612 
L 40.660963 47.303881 
L 40.797371 47.439249 
L 40.935422 43.790608 
L 41.07168 47.439139 
L 41.207045 45.979616 
L 41.480661 41.60149 
L 41.61557 40.871784 
L 41.890461 32.845127 
L 42.024679 34.304429 
L 42.297903 28.46678 
L 42.570457 24.818029 
L 42.709846 22.264223 
L 42.843183 17.521079 
L 42.981177 16.791483 
L 43.116936 17.521189 
L 43.391889 16.061777 
L 43.5253 10.953944 
L 43.661095 11.68343 
L 43.797433 10.953834 
L 43.933727 11.68343 
L 44.206493 10.953834 
L 44.34329 11.68354 
L 44.479188 11.68354 
L 44.615673 13.872658 
L 44.75292 12.413246 
L 44.888244 12.413246 
L 45.024828 13.142952 
L 45.162379 11.68365 
L 45.297371 11.68365 
L 45.433982 12.147908 
L 45.570536 11.68354 
L 45.708832 11.68365 
L 45.84336 13.50786 
L 45.979256 13.142952 
L 46.115514 13.872658 
L 46.252083 12.413246 
L 46.524632 12.413136 
L 46.662461 13.872768 
L 46.799562 13.142952 
L 46.934571 13.142952 
L 47.0702 11.68354 
L 47.207274 13.142952 
L 47.34336 13.142952 
L 47.480543 11.68354 
L 47.752406 13.872548 
L 47.889709 13.142952 
L 48.026056 11.68343 
L 48.161837 12.413246 
L 48.298302 12.413136 
L 48.434911 13.142952 
L 48.570061 13.142952 
L 48.706995 12.413246 
L 48.844985 12.413136 
L 48.979445 13.142952 
L 49.253808 11.68354 
L 49.390261 12.413246 
L 49.525305 12.413466 
L 49.661874 11.68354 
L 49.93463 12.778154 
L 50.070506 13.142952 
L 50.206959 13.872658 
L 50.480714 12.413356 
L 50.889973 12.413246 
L 51.026235 13.142842 
L 51.162763 13.142952 
L 51.297724 12.778154 
L 51.434128 13.737291 
L 51.571199 13.142842 
L 51.708265 13.142952 
L 51.846039 13.872658 
L 51.97959 13.142952 
L 52.115752 11.68343 
L 52.25254 13.872658 
L 52.526603 10.953834 
L 52.79912 13.142952 
L 52.935287 13.142952 
L 53.070203 13.872658 
L 53.2084 13.142952 
L 53.343348 10.953834 
L 53.479324 14.01166 
L 53.617245 13.142952 
L 53.753949 13.142952 
L 53.89013 13.872658 
L 54.02544 12.148019 
L 54.163037 13.142952 
L 54.297585 11.68354 
L 54.43549 12.778154 
L 54.572251 10.224238 
L 54.707376 11.68365 
L 54.8437 11.68343 
L 55.116392 13.872658 
L 55.389333 12.413356 
L 55.527484 13.142952 
L 55.663223 12.413136 
L 55.799057 12.778154 
L 55.936508 13.872548 
L 56.072828 13.872658 
L 56.20714 14.602364 
L 56.480027 13.142952 
L 56.890943 13.142952 
L 57.027384 11.68365 
L 57.163037 12.413136 
L 57.436362 12.413136 
L 57.57132 12.778044 
L 57.707305 12.413356 
L 57.845192 13.142952 
L 57.979671 13.142952 
L 58.116397 12.413246 
L 58.253536 13.474707 
L 58.389779 13.142952 
L 58.527163 10.953724 
L 58.664685 10.953944 
L 58.798056 13.142842 
L 58.9365 13.50775 
L 59.072599 11.68343 
L 59.209858 11.68365 
L 59.343954 13.142952 
L 59.481761 13.142952 
L 59.616314 12.413246 
L 59.752576 13.142952 
L 59.888822 14.602364 
L 60.025141 10.953834 
L 60.161511 13.142952 
L 60.29784 12.413246 
L 60.436279 12.413136 
L 60.571131 13.142952 
L 60.71013 11.68354 
L 60.84335 13.142732 
L 60.980887 12.413246 
L 61.389455 12.413246 
L 61.662303 13.872768 
L 61.798152 13.142842 
L 61.934218 11.548283 
L 62.070878 14.602364 
L 62.345084 14.602364 
L 62.480645 13.142952 
L 62.616162 13.750949 
L 62.754329 12.413246 
L 62.889319 13.142952 
L 63.027507 12.778044 
L 63.162344 13.142952 
L 63.299285 13.872548 
L 63.57197 10.953834 
L 63.708615 13.872658 
L 63.843286 12.413136 
L 63.979458 14.602475 
L 64.253751 12.413136 
L 64.38968 13.142952 
L 64.52595 12.413246 
L 64.66263 12.413356 
L 64.798048 13.872768 
L 64.935069 12.413136 
L 65.34491 12.413246 
L 65.482149 13.872658 
L 65.617405 13.872658 
L 65.753778 10.953834 
L 66.162901 12.778154 
L 66.298349 11.68354 
L 66.434582 11.68354 
L 66.572377 13.142952 
L 66.843173 11.68354 
L 66.980806 12.147908 
L 67.253996 13.872658 
L 67.389454 11.68354 
L 67.662754 12.413246 
L 67.798899 11.68354 
L 67.936297 11.68354 
L 68.070766 13.142952 
L 68.343261 11.68354 
L 68.481415 12.413246 
L 68.752318 10.224128 
L 69.024832 12.413136 
L 69.162956 13.007695 
L 69.299058 12.413356 
L 69.433897 13.872438 
L 69.570641 12.413356 
L 69.706997 13.872768 
L 69.842969 11.68365 
L 69.980547 15.33196 
L 70.116831 11.68365 
L 70.39052 14.602364 
L 70.526171 11.68354 
L 70.662833 12.778154 
L 70.799495 12.413246 
L 70.934973 11.68343 
L 71.342988 11.68354 
L 71.48098 16.061777 
L 71.753272 11.68354 
L 71.891097 14.602364 
L 72.16272 11.548283 
L 72.297551 13.872658 
L 72.435348 11.68332 
L 72.707546 15.332181 
L 72.979389 13.548393 
L 73.11706 13.142952 
L 73.255192 11.68343 
L 73.390106 13.142952 
L 73.526219 13.142952 
L 73.661678 13.872768 
L 73.935167 11.68354 
L 74.071709 12.413246 
L 74.208118 12.413246 
L 74.344438 13.143062 
L 74.480977 11.68365 
L 74.615731 13.142952 
L 74.753456 11.68365 
L 74.890111 13.872658 
L 75.02634 12.277989 
L 75.298471 13.872658 
L 75.571676 10.82111 
L 75.708196 13.872548 
L 75.844584 12.413246 
L 76.117227 12.413246 
L 76.252083 11.68354 
L 76.388913 13.142952 
L 76.52502 13.142842 
L 76.662562 12.413136 
L 76.799014 12.413246 
L 76.935369 13.142952 
L 77.07205 14.602364 
L 77.344513 12.413136 
L 77.48096 13.872658 
L 77.615754 13.872658 
L 77.752299 15.33207 
L 77.888698 13.872658 
L 78.024978 14.602364 
L 78.29912 12.778154 
L 78.435682 14.602364 
L 78.708807 12.413246 
L 78.84524 12.413246 
L 79.117485 14.467217 
L 79.254437 13.143062 
L 79.389557 13.142842 
L 79.525285 12.413246 
L 79.661837 12.413246 
L 79.79854 10.953834 
L 79.93691 13.142952 
L 80.071038 10.224128 
L 80.34546 13.872548 
L 80.481957 13.142952 
L 80.620335 14.602364 
L 80.754501 14.602364 
L 80.890083 12.413356 
L 81.027134 13.142952 
L 81.162031 11.68332 
L 81.29851 13.142952 
L 81.437434 12.950861 
L 81.572309 11.68354 
L 81.709335 13.142842 
L 81.982668 11.484509 
L 82.117659 14.602364 
L 82.254533 11.68343 
L 82.391344 13.142952 
L 82.529128 16.061666 
L 82.799016 12.778044 
L 82.935678 12.413246 
L 83.073946 13.872768 
L 83.208401 13.142952 
L 83.345752 14.137996 
L 83.481804 13.142952 
L 83.616551 13.872658 
L 83.890919 12.413246 
L 84.025592 14.602364 
L 84.298787 12.413246 
L 84.434523 12.413246 
L 84.570768 12.778044 
L 84.70879 12.413246 
L 84.845345 13.142952 
L 85.116554 11.68354 
L 85.25322 13.142952 
L 85.390794 12.413246 
L 85.527158 13.143062 
L 85.661742 13.142952 
L 85.799495 14.602364 
L 85.934314 13.50775 
L 86.072337 13.872548 
L 86.345708 10.953834 
L 86.480227 11.68343 
L 86.616256 10.953944 
L 86.753014 13.143062 
L 86.890626 13.142952 
L 87.025902 13.872768 
L 87.163503 12.413246 
L 87.300872 14.602364 
L 87.434426 11.68354 
L 87.707668 13.872658 
L 87.845093 13.872768 
L 87.979819 11.68343 
L 88.119621 13.142952 
L 88.254574 12.413246 
L 88.389322 10.953834 
L 88.661477 16.426575 
L 88.797911 16.791483 
L 88.935253 10.953944 
L 89.072919 10.224238 
L 89.343418 13.142952 
L 89.479609 13.142842 
L 89.617806 10.224238 
L 89.753849 10.224238 
L 89.890643 12.413246 
L 90.026139 12.413246 
L 90.161402 11.68365 
L 90.299688 10.224128 
L 90.435847 10.089091 
L 90.571738 12.413246 
L 91.11686 12.413246 
L 91.254089 13.872768 
L 91.390391 10.953834 
L 91.524984 10.953614 
L 91.663111 12.413246 
L 91.934614 10.953834 
L 92.072294 11.68354 
L 92.210005 10.224128 
L 92.344754 12.413136 
L 92.481286 11.68343 
L 92.618181 12.413136 
L 92.753814 13.872658 
L 92.890592 12.413246 
L 93.024958 13.142952 
L 93.162649 12.778154 
L 93.299709 13.142952 
L 93.571659 14.602364 
L 93.708502 13.142952 
L 93.845537 14.602364 
L 93.981627 12.413246 
L 94.115935 13.142952 
L 94.252292 12.413246 
L 94.390037 15.332181 
L 94.661621 11.68365 
L 94.797831 13.872658 
L 94.935715 12.413246 
L 95.072123 12.413246 
L 95.207481 10.953944 
L 95.345169 13.872768 
L 95.481256 12.413246 
L 95.617599 13.142952 
L 95.752452 14.602254 
L 96.026685 10.953724 
L 96.162996 12.413356 
L 96.298655 12.413246 
L 96.435692 13.143062 
L 96.572318 13.142842 
L 96.707031 13.872658 
L 96.979887 11.68365 
L 97.117292 13.142952 
L 97.253261 13.142952 
L 97.390009 11.68354 
L 97.524901 12.413246 
L 97.66186 12.048448 
L 97.799383 13.142952 
L 97.935867 13.142952 
L 98.070605 14.602364 
L 98.207256 12.413356 
L 98.346518 12.413136 
L 98.48082 11.68354 
L 98.617447 11.68343 
L 98.754866 10.953834 
L 98.889245 11.68343 
L 99.025543 13.142842 
L 99.161335 13.143062 
L 99.298656 12.413356 
L 99.571777 13.142842 
L 99.707136 12.413356 
L 99.843431 13.142952 
L 99.981129 11.68354 
L 100.116261 13.142952 
L 100.25377 11.68365 
L 100.390178 13.50786 
L 100.525343 11.68343 
L 100.797896 13.50786 
L 100.934843 13.142952 
L 101.070794 11.68354 
L 101.343324 13.872548 
L 101.479915 12.413136 
L 101.617619 13.872658 
L 101.8903 12.413136 
L 102.025504 12.413356 
L 102.162028 13.872768 
L 102.298044 11.548283 
L 102.434119 13.872658 
L 102.571011 13.142952 
L 102.708644 13.142842 
L 102.980954 15.332181 
L 103.116469 11.68343 
L 103.253629 13.142952 
L 103.388954 12.413246 
L 103.663509 13.872658 
L 103.797741 13.142952 
L 103.934323 13.872658 
L 104.071767 11.68343 
L 104.207141 13.872658 
L 104.343322 12.413246 
L 104.480894 13.142952 
L 104.753145 13.142952 
L 104.889935 12.413246 
L 105.161752 12.413246 
L 105.298882 11.68354 
L 105.434075 13.142952 
L 105.570473 12.413246 
L 105.707837 15.33196 
L 105.843352 10.953944 
L 106.117335 13.872658 
L 106.253378 12.413246 
L 106.389882 13.872658 
L 106.524811 13.142952 
L 106.662516 13.872879 
L 106.798828 10.953724 
L 107.071224 13.142952 
L 107.208665 10.224128 
L 107.479614 13.872658 
L 107.61759 13.142952 
L 107.754833 13.872658 
L 107.889619 13.142952 
L 108.16106 13.143062 
L 108.298219 11.68365 
L 108.570178 11.68343 
L 108.706577 10.953724 
L 108.842807 11.68354 
L 108.979532 13.142952 
L 109.116382 11.68354 
L 109.252044 14.602254 
L 109.389071 12.048448 
L 109.525048 13.142952 
L 109.662286 11.68365 
L 109.797644 13.142842 
L 109.934223 13.142842 
L 110.070811 13.474817 
L 110.207109 13.142952 
L 110.343405 11.68354 
L 110.615781 13.143062 
L 110.752375 12.413246 
L 111.025694 14.602364 
L 111.297921 18.980711 
L 111.434395 18.250895 
L 111.706852 25.547846 
L 111.843235 23.358837 
L 112.115327 32.115421 
L 112.252174 30.655788 
L 112.388557 27.737074 
L 112.661167 32.115421 
L 112.797087 31.385494 
L 112.93393 31.385494 
L 113.070252 35.034025 
L 113.206669 35.034245 
L 113.342513 38.682555 
L 113.479367 37.952959 
L 113.751632 41.60149 
L 113.888307 40.871784 
L 114.024307 45.979726 
L 114.160847 43.060902 
L 114.297293 43.060902 
L 114.569869 45.25002 
L 114.979229 47.439028 
L 115.38822 52.546971 
L 115.524589 51.087779 
L 115.66098 51.452467 
L 115.797305 50.357963 
L 116.070024 53.276677 
L 116.206239 53.276787 
L 116.342457 51.087669 
L 116.479152 53.276787 
L 116.615575 53.276787 
L 116.752245 51.817375 
L 116.88786 54.73631 
L 117.160934 54.736199 
L 117.433592 56.195612 
L 117.706216 56.195722 
L 117.842838 57.330649 
L 117.979085 56.925318 
L 118.11546 57.655134 
L 118.251741 57.655134 
L 118.388157 59.114436 
L 118.388157 59.114436 
" clip-path="url(#pc7b2305333)" style="fill: none; stroke: #0000ff; stroke-width: 2; stroke-linecap: square"/>
   </g>
   <g id="line2d_13">
    <path d="M 35.2 12.798751 
L 122.349498 12.798751 
" clip-path="url(#pc7b2305333)" style="fill: none; stroke-dasharray: 3.7,1.6; stroke-dashoffset: 0; stroke: #000000; stroke-opacity: 0.7"/>
   </g>
   <g id="patch_3">
    <path d="M 35.2 70.76 
L 35.2 7.2 
" style="fill: none; stroke: #000000; stroke-width: 0.8; stroke-linejoin: miter; stroke-linecap: square"/>
   </g>
   <g id="patch_4">
    <path d="M 122.349498 70.76 
L 122.349498 7.2 
" style="fill: none; stroke: #000000; stroke-width: 0.8; stroke-linejoin: miter; stroke-linecap: square"/>
   </g>
   <g id="patch_5">
    <path d="M 35.2 70.76 
L 122.349498 70.76 
" style="fill: none; stroke: #000000; stroke-width: 0.8; stroke-linejoin: miter; stroke-linecap: square"/>
   </g>
   <g id="patch_6">
    <path d="M 35.2 7.2 
L 122.349498 7.2 
" style="fill: none; stroke: #000000; stroke-width: 0.8; stroke-linejoin: miter; stroke-linecap: square"/>
   </g>
  </g>
  <g id="axes_2">
   <g id="patch_7">
    <path d="M 159.625 70.76 
L 246.774498 70.76 
L 246.774498 7.2 
L 159.625 7.2 
z
" style="fill: #ffffff"/>
   </g>
   <g id="matplotlib.axis_3">
    <g id="xtick_3">
     <g id="line2d_14">
      <path d="M 163.586341 70.76 
L 163.586341 7.2 
" clip-path="url(#p516878d34b)" style="fill: none; stroke: #b0b0b0; stroke-opacity: 0.3; stroke-width: 0.8; stroke-linecap: square"/>
     </g>
     <g id="line2d_15">
      <g>
       <use xlink:href="#m5b9212467a" x="163.586341" y="70.76" style="stroke: #000000; stroke-width: 0.8"/>
      </g>
     </g>
     <g id="text_6">
      <!-- 0 -->
      <g transform="translate(160.586341 86.0925) scale(0.12 -0.12)">
       <use xlink:href="#TimesNewRomanPSMT-30"/>
      </g>
     </g>
    </g>
    <g id="xtick_4">
     <g id="line2d_16">
      <path d="M 245.405139 70.76 
L 245.405139 7.2 
" clip-path="url(#p516878d34b)" style="fill: none; stroke: #b0b0b0; stroke-opacity: 0.3; stroke-width: 0.8; stroke-linecap: square"/>
     </g>
     <g id="line2d_17">
      <g>
       <use xlink:href="#m5b9212467a" x="245.405139" y="70.76" style="stroke: #000000; stroke-width: 0.8"/>
      </g>
     </g>
     <g id="text_7">
      <!-- 20 -->
      <g transform="translate(239.405139 86.0925) scale(0.12 -0.12)">
       <use xlink:href="#TimesNewRomanPSMT-32"/>
       <use xlink:href="#TimesNewRomanPSMT-30" x="50"/>
      </g>
     </g>
    </g>
   </g>
   <g id="matplotlib.axis_4">
    <g id="ytick_4">
     <g id="line2d_18">
      <path d="M 159.625 60.166667 
L 246.774498 60.166667 
" clip-path="url(#p516878d34b)" style="fill: none; stroke: #b0b0b0; stroke-opacity: 0.3; stroke-width: 0.8; stroke-linecap: square"/>
     </g>
     <g id="line2d_19">
      <g>
       <use xlink:href="#m9636026627" x="159.625" y="60.166667" style="stroke: #000000; stroke-width: 0.8"/>
      </g>
     </g>
     <g id="text_8">
      <!-- −1 -->
      <g transform="translate(139.858125 64.332917) scale(0.12 -0.12)">
       <defs>
        <path id="TimesNewRomanPSMT-2212" d="M 3484 2000 
L 116 2000 
L 116 2256 
L 3484 2256 
L 3484 2000 
z
" transform="scale(0.015625)"/>
        <path id="TimesNewRomanPSMT-31" d="M 750 3822 
L 1781 4325 
L 1884 4325 
L 1884 747 
Q 1884 391 1914 303 
Q 1944 216 2037 169 
Q 2131 122 2419 116 
L 2419 0 
L 825 0 
L 825 116 
Q 1125 122 1212 167 
Q 1300 213 1334 289 
Q 1369 366 1369 747 
L 1369 3034 
Q 1369 3497 1338 3628 
Q 1316 3728 1258 3775 
Q 1200 3822 1119 3822 
Q 1003 3822 797 3725 
L 750 3822 
z
" transform="scale(0.015625)"/>
       </defs>
       <use xlink:href="#TimesNewRomanPSMT-2212"/>
       <use xlink:href="#TimesNewRomanPSMT-31" x="56.396484"/>
      </g>
     </g>
    </g>
    <g id="ytick_5">
     <g id="line2d_20">
      <path d="M 159.625 38.98 
L 246.774498 38.98 
" clip-path="url(#p516878d34b)" style="fill: none; stroke: #b0b0b0; stroke-opacity: 0.3; stroke-width: 0.8; stroke-linecap: square"/>
     </g>
     <g id="line2d_21">
      <g>
       <use xlink:href="#m9636026627" x="159.625" y="38.98" style="stroke: #000000; stroke-width: 0.8"/>
      </g>
     </g>
     <g id="text_9">
      <!-- 0 -->
      <g transform="translate(146.625 43.14625) scale(0.12 -0.12)">
       <use xlink:href="#TimesNewRomanPSMT-30"/>
      </g>
     </g>
    </g>
    <g id="ytick_6">
     <g id="line2d_22">
      <path d="M 159.625 17.793333 
L 246.774498 17.793333 
" clip-path="url(#p516878d34b)" style="fill: none; stroke: #b0b0b0; stroke-opacity: 0.3; stroke-width: 0.8; stroke-linecap: square"/>
     </g>
     <g id="line2d_23">
      <g>
       <use xlink:href="#m9636026627" x="159.625" y="17.793333" style="stroke: #000000; stroke-width: 0.8"/>
      </g>
     </g>
     <g id="text_10">
      <!-- 1 -->
      <g transform="translate(146.625 21.959583) scale(0.12 -0.12)">
       <use xlink:href="#TimesNewRomanPSMT-31"/>
      </g>
     </g>
    </g>
   </g>
   <g id="line2d_24">
    <path d="M 163.586341 38.98 
L 165.222371 38.87877 
L 166.315461 38.821121 
L 167.679852 38.876228 
L 169.722371 38.972203 
L 170.26836 38.941228 
L 171.359571 38.989958 
L 171.4952 39.091421 
L 171.632274 39.397441 
L 172.042161 39.397335 
L 172.451056 39.350597 
L 172.586837 39.469878 
L 172.859911 39.835348 
L 173.131995 39.723144 
L 173.269985 39.476128 
L 173.540905 39.392504 
L 173.950305 40.112724 
L 174.086874 39.954756 
L 174.224591 39.490238 
L 174.769718 39.239007 
L 175.177569 39.153815 
L 175.314973 39.353606 
L 175.587763 39.303753 
L 175.722724 39.135786 
L 175.996199 39.116929 
L 176.271039 38.923029 
L 177.22412 38.809935 
L 177.360287 38.027914 
L 177.768348 37.844183 
L 177.904324 37.680092 
L 178.31513 37.859035 
L 178.588037 38.173466 
L 179.405629 38.416138 
L 179.679879 38.587708 
L 179.814333 38.625589 
L 180.224057 39.20407 
L 180.497828 39.243753 
L 180.770314 39.107268 
L 181.452384 39.159345 
L 181.99632 39.361741 
L 182.132305 39.365237 
L 182.270192 39.801068 
L 183.089685 39.918887 
L 183.768954 39.569773 
L 183.906761 40.960826 
L 184.177576 40.87894 
L 184.313822 40.971822 
L 184.861279 40.52972 
L 185.541448 23.841533 
L 185.950201 20.410099 
L 186.495878 17.619242 
L 186.905645 16.316835 
L 187.041162 15.684264 
L 187.179329 15.588204 
L 187.587344 14.809424 
L 187.99697 14.69847 
L 188.133615 14.116959 
L 188.268286 14.196685 
L 188.404458 13.518118 
L 188.678751 14.051238 
L 188.81468 13.991111 
L 189.08763 14.184079 
L 189.223048 13.870156 
L 189.49628 14.468849 
L 189.76991 14.921756 
L 189.907149 14.713894 
L 190.042405 14.904256 
L 190.314057 15.738396 
L 190.451581 15.841935 
L 191.540898 18.126155 
L 191.678996 18.190244 
L 191.814454 19.010465 
L 191.950173 18.931714 
L 192.087754 18.368742 
L 192.361297 19.323117 
L 192.631612 21.155212 
L 193.177318 23.353689 
L 193.449832 24.624466 
L 193.858897 25.621192 
L 193.995641 26.557156 
L 194.131997 26.71739 
L 194.267969 27.535514 
L 194.405547 26.92841 
L 194.678529 28.731247 
L 194.81552 28.751607 
L 195.087833 30.418659 
L 195.359973 30.684573 
L 195.632443 31.572654 
L 195.767988 32.278001 
L 195.90598 31.981684 
L 196.044098 33.413479 
L 196.178272 33.632104 
L 196.316097 32.771841 
L 196.450448 33.352165 
L 196.722551 33.319707 
L 196.860348 33.708482 
L 196.996713 33.698249 
L 197.132546 33.376868 
L 197.404389 34.980275 
L 197.680192 35.853717 
L 198.360167 38.29762 
L 199.45134 40.0191 
L 199.586403 39.75058 
L 200.405258 40.295099 
L 200.542227 40.163932 
L 200.677083 40.244208 
L 201.087562 41.140892 
L 201.631637 41.610664 
L 202.040754 41.506701 
L 202.313698 40.86216 
L 202.587619 40.937224 
L 202.99725 41.054111 
L 203.133807 41.096209 
L 203.27024 40.998157 
L 203.406675 39.825666 
L 203.542485 39.734267 
L 203.679437 39.835454 
L 203.814557 39.435153 
L 203.950285 39.488395 
L 204.36191 38.357176 
L 204.496038 38.420757 
L 204.906957 38.311857 
L 205.045335 38.306645 
L 205.72351 39.210977 
L 205.997309 39.935964 
L 206.268818 40.075202 
L 206.816344 41.278775 
L 206.954128 41.563248 
L 207.498946 41.684372 
L 207.906804 40.698027 
L 208.180469 40.614149 
L 208.315919 40.992161 
L 208.859523 41.171231 
L 208.995768 41.254283 
L 209.13379 41.66738 
L 209.409085 41.625621 
L 209.815794 41.037776 
L 210.086742 51.166571 
L 210.224495 51.08282 
L 210.497337 54.874195 
L 210.770708 57.262462 
L 211.178014 59.379222 
L 211.450902 60.582709 
L 212.270093 62.797415 
L 212.679574 63.216869 
L 212.814322 63.215237 
L 212.951966 63.560389 
L 213.086477 64.277155 
L 213.222911 63.997619 
L 213.360253 62.804322 
L 213.497919 62.789512 
L 214.724688 60.853708 
L 215.133764 59.741132 
L 216.088111 57.759628 
L 216.22299 57.277865 
L 216.497294 57.157821 
L 216.769754 56.20101 
L 217.043181 54.916462 
L 217.178814 54.765931 
L 217.587649 53.101125 
L 217.86043 52.609234 
L 217.996659 52.611268 
L 218.133502 51.963952 
L 218.270537 52.066114 
L 218.540935 51.197249 
L 218.677292 50.81644 
L 218.815037 51.338077 
L 219.086621 49.702042 
L 219.222831 49.796959 
L 219.906256 47.853379 
L 220.042599 47.642126 
L 220.177452 47.84537 
L 220.451685 46.519869 
L 221.949901 43.293542 
L 222.08686 43.085489 
L 222.224383 43.118646 
L 222.360867 42.881948 
L 222.495605 43.205193 
L 223.314245 41.713249 
L 223.723656 40.62953 
L 223.996777 40.11783 
L 224.541261 39.27388 
L 224.815178 38.923813 
L 224.950343 39.113624 
L 225.359843 38.815528 
L 225.495794 38.974809 
L 225.768324 38.779553 
L 225.904915 38.547347 
L 226.042619 38.676713 
L 226.3153 38.28226 
L 226.450504 38.180648 
L 226.587028 38.283446 
L 226.723044 37.999121 
L 226.996011 37.839649 
L 227.268191 37.724817 
L 227.405954 37.696575 
L 227.813954 36.989703 
L 228.088509 36.889533 
L 228.222741 37.01714 
L 228.496767 36.879194 
L 228.768322 37.203392 
L 231.360107 36.446181 
L 231.633665 36.669552 
L 231.904614 36.633026 
L 232.179833 36.586309 
L 232.449803 36.704086 
L 232.58606 37.247926 
L 233.541382 37.512908 
L 233.677044 37.391826 
L 233.950048 37.450005 
L 234.632109 37.422844 
L 234.768405 38.018803 
L 235.040781 38.116792 
L 235.585914 38.623958 
L 235.722921 38.66167 
L 235.859395 38.987437 
L 236.268235 39.057967 
L 236.404156 39.358203 
L 237.35893 39.429284 
L 237.495252 40.017914 
L 237.904367 40.023274 
L 238.040279 41.585303 
L 238.585847 41.654329 
L 238.994869 41.569053 
L 239.131535 42.076876 
L 239.540303 41.960477 
L 239.676865 41.230321 
L 239.949589 41.103349 
L 240.08598 41.302758 
L 240.222305 41.727423 
L 241.449231 41.492357 
L 241.995003 41.145595 
L 242.404085 40.99142 
L 242.54046 41.410958 
L 242.676741 42.25726 
L 242.813157 42.257175 
L 242.813157 42.257175 
" clip-path="url(#p516878d34b)" style="fill: none; stroke: #ff0000; stroke-opacity: 0.8; stroke-width: 2; stroke-linecap: square"/>
   </g>
   <g id="line2d_25">
    <path d="M 163.586341 38.98 
L 164.133625 38.98 
L 164.268226 39.546023 
L 164.40467 38.98 
L 164.541074 39.546044 
L 164.678507 39.545917 
L 164.813296 37.848039 
L 164.951399 40.111961 
L 165.085963 40.216899 
L 165.222371 40.111876 
L 165.49668 38.98 
L 165.632045 37.848124 
L 165.768273 39.545896 
L 165.905661 36.716141 
L 166.04057 37.282058 
L 166.177274 37.282058 
L 166.315461 40.111876 
L 166.586642 37.282058 
L 166.722903 37.84806 
L 166.858718 37.847933 
L 166.995457 39.546065 
L 167.268183 38.413998 
L 167.406177 38.98 
L 167.541936 40.677942 
L 167.679852 37.847996 
L 167.816889 38.413998 
L 167.9503 40.112004 
L 168.086095 39.545938 
L 168.222433 37.84806 
L 168.358727 39.545896 
L 168.631493 37.84806 
L 168.76829 38.413998 
L 168.904188 38.414019 
L 169.040673 38.98 
L 169.17792 37.848039 
L 169.313244 37.848018 
L 169.449828 39.546002 
L 169.722371 39.546044 
L 169.858982 37.950964 
L 169.995536 38.413998 
L 170.133832 38.414125 
L 170.404256 39.546044 
L 170.540514 40.11194 
L 170.677083 38.98 
L 171.087461 38.98 
L 171.224562 39.546002 
L 171.359571 39.545959 
L 171.4952 38.414041 
L 171.632274 39.545959 
L 171.905543 37.282058 
L 172.177406 40.112004 
L 172.314709 38.413998 
L 172.451056 38.414083 
L 172.586837 38.98 
L 172.723302 38.98 
L 172.859911 38.413998 
L 172.995061 38.413998 
L 173.131995 40.111961 
L 173.404445 38.413956 
L 173.540905 40.112004 
L 173.678808 39.546002 
L 173.815261 40.112004 
L 173.950305 40.111876 
L 174.086874 40.677878 
L 174.35963 39.828929 
L 174.495506 40.677942 
L 174.631959 40.11194 
L 174.769718 38.697031 
L 174.905714 38.98 
L 175.042061 40.11194 
L 175.314973 37.848039 
L 175.451235 39.545875 
L 175.587763 39.546002 
L 175.722724 39.828992 
L 175.859128 37.743122 
L 176.271039 40.11194 
L 176.40459 39.546002 
L 176.540752 39.545917 
L 176.67754 40.11194 
L 176.813431 40.111876 
L 176.951603 37.84806 
L 177.22412 39.546002 
L 177.360287 38.414062 
L 177.495203 38.98 
L 177.768348 37.847996 
L 177.904324 38.710506 
L 178.042245 38.413998 
L 178.178949 38.413956 
L 178.31513 38.98 
L 178.588037 37.282058 
L 178.722585 37.282058 
L 178.86049 37.565048 
L 178.997251 37.282016 
L 179.132376 38.413956 
L 179.2687 38.414083 
L 179.405629 37.282079 
L 179.679879 38.413977 
L 179.814333 37.848039 
L 180.088223 38.98 
L 180.224057 38.696967 
L 180.361508 40.112004 
L 180.497828 37.84806 
L 180.63214 38.414062 
L 180.770314 40.111876 
L 180.905027 39.546002 
L 181.043597 39.546002 
L 181.180682 37.282122 
L 181.315943 39.546002 
L 181.452384 39.546065 
L 181.588037 37.84806 
L 181.725883 37.847996 
L 181.99632 39.262969 
L 182.132305 37.848166 
L 182.270192 39.546002 
L 182.404671 37.282058 
L 182.541397 40.111982 
L 182.678536 40.009058 
L 182.814779 40.677921 
L 182.952163 40.111898 
L 183.089685 40.112025 
L 183.223056 39.545875 
L 183.3615 39.828907 
L 183.497599 39.545917 
L 183.634858 39.546065 
L 183.768954 40.677942 
L 183.906761 40.678005 
L 184.041314 40.112004 
L 184.177576 40.677878 
L 184.313822 41.809861 
L 184.586511 40.677942 
L 184.72284 41.243859 
L 184.861279 40.11194 
L 184.996131 40.678005 
L 185.13513 40.677899 
L 185.26835 41.809967 
L 185.541448 38.98 
L 185.678054 40.111961 
L 185.814455 40.111961 
L 186.223152 36.150182 
L 186.359218 36.255013 
L 186.495878 35.584138 
L 186.632934 36.150055 
L 186.770084 33.886259 
L 187.041162 33.791873 
L 187.179329 29.924395 
L 187.314319 29.358457 
L 187.452507 29.641426 
L 187.587344 31.622252 
L 187.860831 27.377482 
L 187.99697 26.528596 
L 188.268286 26.528596 
L 188.404458 25.962658 
L 188.542443 25.962658 
L 188.95095 22.000772 
L 189.08763 20.868853 
L 189.360069 20.868705 
L 189.634583 19.170954 
L 189.76991 18.60491 
L 189.907149 17.472949 
L 190.178778 17.47297 
L 190.314057 18.038908 
L 190.451581 17.472949 
L 190.587901 18.321941 
L 190.723349 18.038929 
L 190.859582 19.17089 
L 190.997377 18.60491 
L 191.13251 18.60491 
L 191.268173 18.03895 
L 191.405806 18.399124 
L 191.540898 15.775049 
L 191.678996 17.47297 
L 191.814454 16.906989 
L 191.950173 18.497133 
L 192.087754 18.604931 
L 192.223899 20.302873 
L 192.361297 19.17089 
L 192.495766 20.30283 
L 192.631612 18.60491 
L 192.906415 19.736807 
L 193.040982 18.604952 
L 193.177318 20.302852 
L 193.314996 20.302809 
L 193.587956 21.329939 
L 193.858897 24.264589 
L 193.995641 24.264716 
L 194.267969 25.962594 
L 194.405547 25.396592 
L 194.541831 25.962594 
L 194.678529 25.962509 
L 194.81552 28.226453 
L 194.951171 27.094513 
L 195.087833 27.943526 
L 195.224495 27.660388 
L 195.359973 27.094598 
L 195.495477 30.490333 
L 195.632443 29.358414 
L 195.767988 31.6224 
L 196.044098 31.622273 
L 196.178272 32.754277 
L 196.316097 31.622316 
L 196.450448 31.622273 
L 196.58772 32.859151 
L 196.722551 31.056335 
L 196.996713 35.018136 
L 197.132546 34.452134 
L 197.269372 34.452197 
L 197.404389 34.578004 
L 197.54206 32.754319 
L 197.815106 36.150203 
L 197.951219 37.282122 
L 198.086678 36.716141 
L 198.224497 36.716141 
L 198.360167 35.018136 
L 198.633118 37.847996 
L 198.769438 38.414062 
L 198.905977 37.282058 
L 199.040731 37.282058 
L 199.315111 38.98 
L 199.45134 37.743144 
L 199.723471 40.11194 
L 199.860306 40.111982 
L 199.996676 38.98 
L 200.133196 41.243838 
L 200.269584 40.111982 
L 200.542227 40.111982 
L 200.677083 40.677942 
L 200.813913 40.677899 
L 200.95002 39.545959 
L 201.087562 40.11194 
L 201.224014 41.243901 
L 201.360369 40.11194 
L 201.49705 40.678005 
L 201.631637 39.545938 
L 201.769513 41.243944 
L 202.177299 41.243901 
L 202.313698 42.375841 
L 202.449978 41.809903 
L 202.72412 39.828929 
L 202.860682 41.809882 
L 202.99725 41.809861 
L 203.133807 41.24388 
L 203.406675 39.545896 
L 203.542485 40.782731 
L 203.679437 40.677794 
L 203.814557 39.546044 
L 203.950285 41.243859 
L 204.22354 38.98 
L 204.36191 39.546065 
L 204.496038 39.545938 
L 204.632406 41.243859 
L 204.906957 38.413998 
L 205.045335 39.545938 
L 205.179501 39.546002 
L 205.452134 38.413935 
L 205.587031 37.281995 
L 205.72351 37.282058 
L 205.862434 39.277842 
L 205.997309 38.413998 
L 206.134335 38.413956 
L 206.407668 39.494497 
L 206.542659 40.677878 
L 206.679533 39.545917 
L 206.816344 40.677921 
L 206.954128 40.677836 
L 207.087664 40.112067 
L 207.224016 40.394888 
L 207.360678 41.243901 
L 207.498946 41.244007 
L 207.633401 40.677899 
L 207.770752 41.552612 
L 207.906804 40.677942 
L 208.041551 41.243944 
L 208.180469 40.677942 
L 208.450592 41.809861 
L 208.587877 40.394973 
L 208.723787 41.243859 
L 208.859523 41.243859 
L 208.995768 40.960911 
L 209.13379 40.111961 
L 209.409085 41.243859 
L 209.541554 40.677899 
L 209.67822 40.677942 
L 209.815794 41.24388 
L 209.952158 40.677878 
L 210.086742 40.677942 
L 210.224495 41.809882 
L 210.359314 41.526892 
L 210.497337 43.507866 
L 210.770708 43.507781 
L 211.041256 45.771598 
L 211.178014 46.337642 
L 211.315626 47.469667 
L 211.588503 44.639743 
L 211.725872 47.46954 
L 211.996877 47.469667 
L 212.544621 53.129388 
L 212.679574 52.563386 
L 212.814322 53.695326 
L 213.222911 59.355111 
L 213.360253 59.355133 
L 213.497919 56.52523 
L 213.768418 58.789131 
L 213.904609 61.052947 
L 214.042806 58.789216 
L 214.178849 59.921092 
L 214.315643 59.35509 
L 214.451139 59.92105 
L 214.586402 58.789152 
L 214.860847 58.684278 
L 214.996738 60.486946 
L 215.133764 60.486946 
L 215.268767 59.35509 
L 215.406205 60.487094 
L 215.679089 60.487094 
L 215.815391 58.223087 
L 215.949984 59.35509 
L 216.088111 58.222959 
L 216.22299 58.789088 
L 216.497294 56.525208 
L 216.635005 56.525293 
L 216.769754 57.091147 
L 216.906286 55.393184 
L 217.043181 57.091147 
L 217.178814 57.091147 
L 217.315592 55.959228 
L 217.449958 56.52523 
L 217.724709 53.129367 
L 217.86043 52.563408 
L 217.996659 54.261307 
L 218.133502 51.997491 
L 218.270537 53.129325 
L 218.406627 52.563386 
L 218.677292 50.299485 
L 218.815037 51.431404 
L 218.951068 50.299506 
L 219.086621 50.865402 
L 219.222831 50.299506 
L 219.360715 50.299485 
L 219.497123 51.431446 
L 219.770169 48.035499 
L 219.906256 48.035584 
L 220.042599 48.601564 
L 220.177452 48.601607 
L 220.587996 46.903559 
L 220.723655 46.337663 
L 220.997318 46.337748 
L 221.132031 45.771704 
L 221.268339 46.903665 
L 221.404887 45.205681 
L 221.542292 45.205744 
L 221.678261 44.639764 
L 221.815009 45.205744 
L 222.08686 43.790772 
L 222.224383 44.073804 
L 222.360867 42.941801 
L 222.495605 44.073741 
L 222.632256 42.375841 
L 222.771518 42.375799 
L 222.90582 41.809861 
L 223.042447 42.94178 
L 223.179866 42.375841 
L 223.314245 42.94178 
L 223.450543 42.941737 
L 223.586335 41.809945 
L 223.723656 42.375947 
L 223.860478 40.394952 
L 223.996777 41.80984 
L 224.268431 40.677942 
L 224.67877 40.677942 
L 224.815178 40.394909 
L 224.950343 39.545938 
L 225.087033 37.282206 
L 225.359843 40.677942 
L 225.632189 38.413998 
L 225.768324 40.112004 
L 225.904915 40.11194 
L 226.042619 38.98 
L 226.450504 38.98 
L 226.587028 40.111876 
L 226.859119 38.98 
L 226.996011 37.282079 
L 227.133644 38.414125 
L 227.268191 38.414041 
L 227.405954 37.847975 
L 227.541469 38.414083 
L 227.678629 37.282079 
L 227.813954 37.848018 
L 227.951648 37.282079 
L 228.088509 35.584159 
L 228.222741 37.282101 
L 228.496767 37.282101 
L 228.632141 36.716056 
L 228.768322 36.716141 
L 228.905894 37.282122 
L 229.040879 38.413998 
L 229.178145 37.282037 
L 229.314935 37.282079 
L 229.451136 36.716099 
L 229.586752 36.716141 
L 229.723882 37.282101 
L 229.859075 36.150139 
L 229.995473 36.716141 
L 230.132837 36.716035 
L 230.268352 35.584265 
L 230.406646 36.71612 
L 230.542335 36.716078 
L 230.678378 37.848039 
L 230.814882 36.716099 
L 230.949811 37.282037 
L 231.087516 36.716205 
L 231.223828 36.716035 
L 231.360107 35.584095 
L 231.496224 38.413935 
L 231.633665 36.150055 
L 231.76987 36.150203 
L 231.904614 35.584201 
L 232.04259 37.282058 
L 232.179833 36.716056 
L 232.314619 37.282122 
L 232.58606 36.150055 
L 232.723219 37.282058 
L 232.859352 36.150139 
L 232.995178 38.414104 
L 233.131577 36.716205 
L 233.267807 37.282037 
L 233.677044 37.282122 
L 233.814071 37.565027 
L 233.950048 37.282079 
L 234.087286 38.413956 
L 234.222644 38.414125 
L 234.359223 36.150182 
L 234.495811 36.9218 
L 234.632109 38.413998 
L 234.768405 37.282037 
L 234.90402 37.848039 
L 235.040781 36.150055 
L 235.177375 38.98 
L 235.313373 37.84806 
L 235.450694 38.413998 
L 235.585914 37.84806 
L 235.859395 38.98 
L 236.131852 38.98 
L 236.268235 39.546002 
L 236.404156 40.678005 
L 236.540327 39.546002 
L 236.813557 39.546002 
L 236.949828 38.98 
L 237.222087 40.111855 
L 237.35893 38.98 
L 237.495252 39.545938 
L 237.631669 39.546065 
L 237.767513 38.98 
L 237.904367 39.545981 
L 238.040279 39.546044 
L 238.176632 41.24388 
L 238.313307 38.413998 
L 238.585847 42.375884 
L 238.722293 40.11194 
L 239.131535 41.243901 
L 239.267851 39.546023 
L 239.404229 42.375778 
L 239.540303 41.243795 
L 239.676865 42.375947 
L 239.81322 41.809776 
L 239.949589 42.941864 
L 240.08598 41.526849 
L 240.222305 42.375799 
L 240.358607 41.809945 
L 240.495024 40.11194 
L 240.631239 42.375862 
L 241.040575 40.677942 
L 241.177245 42.375735 
L 241.31286 40.112004 
L 241.585934 42.375799 
L 241.72221 40.677942 
L 241.858592 41.243859 
L 241.995003 40.112004 
L 242.131216 40.11194 
L 242.267838 40.866524 
L 242.404085 40.677878 
L 242.54046 41.243944 
L 242.676741 40.112067 
L 242.813157 40.112067 
L 242.813157 40.112067 
" clip-path="url(#p516878d34b)" style="fill: none; stroke: #0000ff; stroke-width: 2; stroke-linecap: square"/>
   </g>
   <g id="line2d_26">
    <path d="M 159.625 17.793333 
L 246.774498 17.793333 
" clip-path="url(#p516878d34b)" style="fill: none; stroke-dasharray: 7.4,3.2; stroke-dashoffset: 0; stroke: #000000; stroke-opacity: 0.7; stroke-width: 2"/>
   </g>
   <g id="line2d_27">
    <path d="M 159.625 60.166667 
L 246.774498 60.166667 
" clip-path="url(#p516878d34b)" style="fill: none; stroke-dasharray: 7.4,3.2; stroke-dashoffset: 0; stroke: #000000; stroke-opacity: 0.7; stroke-width: 2"/>
   </g>
   <g id="patch_8">
    <path d="M 159.625 70.76 
L 159.625 7.2 
" style="fill: none; stroke: #000000; stroke-width: 0.8; stroke-linejoin: miter; stroke-linecap: square"/>
   </g>
   <g id="patch_9">
    <path d="M 246.774498 70.76 
L 246.774498 7.2 
" style="fill: none; stroke: #000000; stroke-width: 0.8; stroke-linejoin: miter; stroke-linecap: square"/>
   </g>
   <g id="patch_10">
    <path d="M 159.625 70.76 
L 246.774498 70.76 
" style="fill: none; stroke: #000000; stroke-width: 0.8; stroke-linejoin: miter; stroke-linecap: square"/>
   </g>
   <g id="patch_11">
    <path d="M 159.625 7.2 
L 246.774498 7.2 
" style="fill: none; stroke: #000000; stroke-width: 0.8; stroke-linejoin: miter; stroke-linecap: square"/>
   </g>
  </g>
 </g>
 <defs>
  <clipPath id="pc7b2305333">
   <rect x="35.2" y="7.2" width="87.149498" height="63.56"/>
  </clipPath>
  <clipPath id="p516878d34b">
   <rect x="159.625" y="7.2" width="87.149498" height="63.56"/>
  </clipPath>
 </defs>
</svg>
