<?xml version="1.0" encoding="utf-8" standalone="no"?>
<!DOCTYPE svg PUBLIC "-//W3C//DTD SVG 1.1//EN"
  "http://www.w3.org/Graphics/SVG/1.1/DTD/svg11.dtd">
<svg xmlns:xlink="http://www.w3.org/1999/xlink" width="489.009375pt" height="200.205pt" viewBox="0 0 489.009375 200.205" xmlns="http://www.w3.org/2000/svg" version="1.1">
 <metadata>
  <rdf:RDF xmlns:dc="http://purl.org/dc/elements/1.1/" xmlns:cc="http://creativecommons.org/ns#" xmlns:rdf="http://www.w3.org/1999/02/22-rdf-syntax-ns#">
   <cc:Work>
    <dc:type rdf:resource="http://purl.org/dc/dcmitype/StillImage"/>
    <dc:date>2026-01-18T23:30:36.235848</dc:date>
    <dc:format>image/svg+xml</dc:format>
    <dc:creator>
     <cc:Agent>
      <dc:title>Matplotlib v3.6.3, https://matplotlib.org/</dc:title>
     </cc:Agent>
    </dc:creator>
   </cc:Work>
  </rdf:RDF>
 </metadata>
 <defs>
  <style type="text/css">*{stroke-linejoin: round; stroke-linecap: butt}</style>
 </defs>
 <g id="figure_1">
  <g id="patch_1">
   <path d="M 0 200.205 
L 489.009375 200.205 
L 489.009375 -0 
L 0 -0 
z
" style="fill: #ffffff"/>
  </g>
  <g id="axes_1">
   <g id="patch_2">
    <path d="M 50.099375 160.20625 
L 235.929375 160.20625 
L 235.929375 11.36625 
L 50.099375 11.36625 
z
" style="fill: #ffffff"/>
   </g>
   <g id="matplotlib.axis_1">
    <g id="xtick_1">
     <g id="line2d_1">
      <path d="M 58.546193 160.20625 
L 58.546193 11.36625 
" clip-path="url(#pf1ac163ace)" style="fill: none; stroke: #b0b0b0; stroke-opacity: 0.3; stroke-width: 0.8; stroke-linecap: square"/>
     </g>
     <g id="line2d_2">
      <defs>
       <path id="m74ea9b552a" d="M 0 0 
L 0 3.5 
" style="stroke: #000000; stroke-width: 0.8"/>
      </defs>
      <g>
       <use xlink:href="#m74ea9b552a" x="58.546193" y="160.20625" style="stroke: #000000; stroke-width: 0.8"/>
      </g>
     </g>
     <g id="text_1">
      <!-- 0 -->
      <g transform="translate(55.546193 175.53875) scale(0.12 -0.12)">
       <defs>
        <path id="TimesNewRomanPSMT-30" d="M 231 2094 
Q 231 2819 450 3342 
Q 669 3866 1031 4122 
Q 1313 4325 1613 4325 
Q 2100 4325 2488 3828 
Q 2972 3213 2972 2159 
Q 2972 1422 2759 906 
Q 2547 391 2217 158 
Q 1888 -75 1581 -75 
Q 975 -75 572 641 
Q 231 1244 231 2094 
z
M 844 2016 
Q 844 1141 1059 588 
Q 1238 122 1591 122 
Q 1759 122 1940 273 
Q 2122 425 2216 781 
Q 2359 1319 2359 2297 
Q 2359 3022 2209 3506 
Q 2097 3866 1919 4016 
Q 1791 4119 1609 4119 
Q 1397 4119 1231 3928 
Q 1006 3669 925 3112 
Q 844 2556 844 2016 
z
" transform="scale(0.015625)"/>
       </defs>
       <use xlink:href="#TimesNewRomanPSMT-30"/>
      </g>
     </g>
    </g>
    <g id="xtick_2">
     <g id="line2d_3">
      <path d="M 98.017823 160.20625 
L 98.017823 11.36625 
" clip-path="url(#pf1ac163ace)" style="fill: none; stroke: #b0b0b0; stroke-opacity: 0.3; stroke-width: 0.8; stroke-linecap: square"/>
     </g>
     <g id="line2d_4">
      <g>
       <use xlink:href="#m74ea9b552a" x="98.017823" y="160.20625" style="stroke: #000000; stroke-width: 0.8"/>
      </g>
     </g>
     <g id="text_2">
      <!-- 5 -->
      <g transform="translate(95.017823 175.53875) scale(0.12 -0.12)">
       <defs>
        <path id="TimesNewRomanPSMT-35" d="M 2778 4238 
L 2534 3706 
L 1259 3706 
L 981 3138 
Q 1809 3016 2294 2522 
Q 2709 2097 2709 1522 
Q 2709 1188 2573 903 
Q 2438 619 2231 419 
Q 2025 219 1772 97 
Q 1413 -75 1034 -75 
Q 653 -75 479 54 
Q 306 184 306 341 
Q 306 428 378 495 
Q 450 563 559 563 
Q 641 563 702 538 
Q 763 513 909 409 
Q 1144 247 1384 247 
Q 1750 247 2026 523 
Q 2303 800 2303 1197 
Q 2303 1581 2056 1914 
Q 1809 2247 1375 2428 
Q 1034 2569 447 2591 
L 1259 4238 
L 2778 4238 
z
" transform="scale(0.015625)"/>
       </defs>
       <use xlink:href="#TimesNewRomanPSMT-35"/>
      </g>
     </g>
    </g>
    <g id="xtick_3">
     <g id="line2d_5">
      <path d="M 137.489453 160.20625 
L 137.489453 11.36625 
" clip-path="url(#pf1ac163ace)" style="fill: none; stroke: #b0b0b0; stroke-opacity: 0.3; stroke-width: 0.8; stroke-linecap: square"/>
     </g>
     <g id="line2d_6">
      <g>
       <use xlink:href="#m74ea9b552a" x="137.489453" y="160.20625" style="stroke: #000000; stroke-width: 0.8"/>
      </g>
     </g>
     <g id="text_3">
      <!-- 10 -->
      <g transform="translate(131.489453 175.53875) scale(0.12 -0.12)">
       <defs>
        <path id="TimesNewRomanPSMT-31" d="M 750 3822 
L 1781 4325 
L 1884 4325 
L 1884 747 
Q 1884 391 1914 303 
Q 1944 216 2037 169 
Q 2131 122 2419 116 
L 2419 0 
L 825 0 
L 825 116 
Q 1125 122 1212 167 
Q 1300 213 1334 289 
Q 1369 366 1369 747 
L 1369 3034 
Q 1369 3497 1338 3628 
Q 1316 3728 1258 3775 
Q 1200 3822 1119 3822 
Q 1003 3822 797 3725 
L 750 3822 
z
" transform="scale(0.015625)"/>
       </defs>
       <use xlink:href="#TimesNewRomanPSMT-31"/>
       <use xlink:href="#TimesNewRomanPSMT-30" x="50"/>
      </g>
     </g>
    </g>
    <g id="xtick_4">
     <g id="line2d_7">
      <path d="M 176.961083 160.20625 
L 176.961083 11.36625 
" clip-path="url(#pf1ac163ace)" style="fill: none; stroke: #b0b0b0; stroke-opacity: 0.3; stroke-width: 0.8; stroke-linecap: square"/>
     </g>
     <g id="line2d_8">
      <g>
       <use xlink:href="#m74ea9b552a" x="176.961083" y="160.20625" style="stroke: #000000; stroke-width: 0.8"/>
      </g>
     </g>
     <g id="text_4">
      <!-- 15 -->
      <g transform="translate(170.961083 175.53875) scale(0.12 -0.12)">
       <use xlink:href="#TimesNewRomanPSMT-31"/>
       <use xlink:href="#TimesNewRomanPSMT-35" x="50"/>
      </g>
     </g>
    </g>
    <g id="xtick_5">
     <g id="line2d_9">
      <path d="M 216.432713 160.20625 
L 216.432713 11.36625 
" clip-path="url(#pf1ac163ace)" style="fill: none; stroke: #b0b0b0; stroke-opacity: 0.3; stroke-width: 0.8; stroke-linecap: square"/>
     </g>
     <g id="line2d_10">
      <g>
       <use xlink:href="#m74ea9b552a" x="216.432713" y="160.20625" style="stroke: #000000; stroke-width: 0.8"/>
      </g>
     </g>
     <g id="text_5">
      <!-- 20 -->
      <g transform="translate(210.432713 175.53875) scale(0.12 -0.12)">
       <defs>
        <path id="TimesNewRomanPSMT-32" d="M 2934 816 
L 2638 0 
L 138 0 
L 138 116 
Q 1241 1122 1691 1759 
Q 2141 2397 2141 2925 
Q 2141 3328 1894 3587 
Q 1647 3847 1303 3847 
Q 991 3847 742 3664 
Q 494 3481 375 3128 
L 259 3128 
Q 338 3706 661 4015 
Q 984 4325 1469 4325 
Q 1984 4325 2329 3994 
Q 2675 3663 2675 3213 
Q 2675 2891 2525 2569 
Q 2294 2063 1775 1497 
Q 997 647 803 472 
L 1909 472 
Q 2247 472 2383 497 
Q 2519 522 2628 598 
Q 2738 675 2819 816 
L 2934 816 
z
" transform="scale(0.015625)"/>
       </defs>
       <use xlink:href="#TimesNewRomanPSMT-32"/>
       <use xlink:href="#TimesNewRomanPSMT-30" x="50"/>
      </g>
     </g>
    </g>
    <g id="text_6">
     <!-- $t$ [s] -->
     <g transform="translate(133.474375 190.438125) scale(0.12 -0.12)">
      <defs>
       <path id="STIXGeneral-Italic-74" d="M 1894 2739 
L 1862 2534 
L 1325 2534 
L 768 435 
Q 755 384 755 346 
Q 755 243 851 243 
Q 928 243 1030 342 
Q 1133 442 1370 749 
L 1453 704 
Q 1158 256 969 93 
Q 781 -70 538 -70 
Q 243 -70 243 166 
Q 243 230 346 640 
L 845 2534 
L 365 2534 
L 358 2573 
Q 358 2688 570 2733 
Q 730 2771 992 2979 
Q 1254 3187 1421 3437 
Q 1459 3494 1510 3494 
Q 1568 3494 1568 3443 
Q 1568 3411 1562 3398 
L 1382 2739 
L 1894 2739 
z
" transform="scale(0.015625)"/>
       <path id="TimesNewRomanPSMT-20" transform="scale(0.015625)"/>
       <path id="TimesNewRomanPSMT-5b" d="M 1900 -1269 
L 525 -1269 
L 525 4334 
L 1900 4334 
L 1900 4088 
L 994 4088 
L 994 -1025 
L 1900 -1025 
L 1900 -1269 
z
" transform="scale(0.015625)"/>
       <path id="TimesNewRomanPSMT-73" d="M 2050 2947 
L 2050 1972 
L 1947 1972 
Q 1828 2431 1642 2597 
Q 1456 2763 1169 2763 
Q 950 2763 815 2647 
Q 681 2531 681 2391 
Q 681 2216 781 2091 
Q 878 1963 1175 1819 
L 1631 1597 
Q 2266 1288 2266 781 
Q 2266 391 1970 151 
Q 1675 -88 1309 -88 
Q 1047 -88 709 6 
Q 606 38 541 38 
Q 469 38 428 -44 
L 325 -44 
L 325 978 
L 428 978 
Q 516 541 762 319 
Q 1009 97 1316 97 
Q 1531 97 1667 223 
Q 1803 350 1803 528 
Q 1803 744 1651 891 
Q 1500 1038 1047 1263 
Q 594 1488 453 1669 
Q 313 1847 313 2119 
Q 313 2472 555 2709 
Q 797 2947 1181 2947 
Q 1350 2947 1591 2875 
Q 1750 2828 1803 2828 
Q 1853 2828 1881 2850 
Q 1909 2872 1947 2947 
L 2050 2947 
z
" transform="scale(0.015625)"/>
       <path id="TimesNewRomanPSMT-5d" d="M 234 4334 
L 1609 4334 
L 1609 -1272 
L 234 -1272 
L 234 -1025 
L 1141 -1025 
L 1141 4088 
L 234 4088 
L 234 4334 
z
" transform="scale(0.015625)"/>
      </defs>
      <use xlink:href="#STIXGeneral-Italic-74" transform="translate(0 0.28125)"/>
      <use xlink:href="#TimesNewRomanPSMT-20" transform="translate(27.799988 0.28125)"/>
      <use xlink:href="#TimesNewRomanPSMT-5b" transform="translate(52.799988 0.28125)"/>
      <use xlink:href="#TimesNewRomanPSMT-73" transform="translate(86.100769 0.28125)"/>
      <use xlink:href="#TimesNewRomanPSMT-5d" transform="translate(125.016785 0.28125)"/>
     </g>
    </g>
   </g>
   <g id="matplotlib.axis_2">
    <g id="ytick_1">
     <g id="line2d_11">
      <path d="M 50.099375 153.440795 
L 235.929375 153.440795 
" clip-path="url(#pf1ac163ace)" style="fill: none; stroke: #b0b0b0; stroke-opacity: 0.3; stroke-width: 0.8; stroke-linecap: square"/>
     </g>
     <g id="line2d_12">
      <defs>
       <path id="mc02fe77432" d="M 0 0 
L -3.5 0 
" style="stroke: #000000; stroke-width: 0.8"/>
      </defs>
      <g>
       <use xlink:href="#mc02fe77432" x="50.099375" y="153.440795" style="stroke: #000000; stroke-width: 0.8"/>
      </g>
     </g>
     <g id="text_7">
      <!-- 0.00 -->
      <g transform="translate(22.099375 157.607045) scale(0.12 -0.12)">
       <defs>
        <path id="TimesNewRomanPSMT-2e" d="M 800 606 
Q 947 606 1047 504 
Q 1147 403 1147 259 
Q 1147 116 1045 14 
Q 944 -88 800 -88 
Q 656 -88 554 14 
Q 453 116 453 259 
Q 453 406 554 506 
Q 656 606 800 606 
z
" transform="scale(0.015625)"/>
       </defs>
       <use xlink:href="#TimesNewRomanPSMT-30"/>
       <use xlink:href="#TimesNewRomanPSMT-2e" x="50"/>
       <use xlink:href="#TimesNewRomanPSMT-30" x="75"/>
       <use xlink:href="#TimesNewRomanPSMT-30" x="125"/>
      </g>
     </g>
    </g>
    <g id="ytick_2">
     <g id="line2d_13">
      <path d="M 50.099375 89.615753 
L 235.929375 89.615753 
" clip-path="url(#pf1ac163ace)" style="fill: none; stroke: #b0b0b0; stroke-opacity: 0.3; stroke-width: 0.8; stroke-linecap: square"/>
     </g>
     <g id="line2d_14">
      <g>
       <use xlink:href="#mc02fe77432" x="50.099375" y="89.615753" style="stroke: #000000; stroke-width: 0.8"/>
      </g>
     </g>
     <g id="text_8">
      <!-- 0.25 -->
      <g transform="translate(22.099375 93.782003) scale(0.12 -0.12)">
       <use xlink:href="#TimesNewRomanPSMT-30"/>
       <use xlink:href="#TimesNewRomanPSMT-2e" x="50"/>
       <use xlink:href="#TimesNewRomanPSMT-32" x="75"/>
       <use xlink:href="#TimesNewRomanPSMT-35" x="125"/>
      </g>
     </g>
    </g>
    <g id="ytick_3">
     <g id="line2d_15">
      <path d="M 50.099375 25.79071 
L 235.929375 25.79071 
" clip-path="url(#pf1ac163ace)" style="fill: none; stroke: #b0b0b0; stroke-opacity: 0.3; stroke-width: 0.8; stroke-linecap: square"/>
     </g>
     <g id="line2d_16">
      <g>
       <use xlink:href="#mc02fe77432" x="50.099375" y="25.79071" style="stroke: #000000; stroke-width: 0.8"/>
      </g>
     </g>
     <g id="text_9">
      <!-- 0.50 -->
      <g transform="translate(22.099375 29.95696) scale(0.12 -0.12)">
       <use xlink:href="#TimesNewRomanPSMT-30"/>
       <use xlink:href="#TimesNewRomanPSMT-2e" x="50"/>
       <use xlink:href="#TimesNewRomanPSMT-35" x="75"/>
       <use xlink:href="#TimesNewRomanPSMT-30" x="125"/>
      </g>
     </g>
    </g>
    <g id="text_10">
     <!-- $v$ [m/s] -->
     <g transform="translate(15.5325 102.64625) rotate(-90) scale(0.12 -0.12)">
      <defs>
       <path id="STIXGeneral-Italic-76" d="M 1325 448 
L 1523 653 
Q 1869 1005 2134 1456 
Q 2400 1907 2400 2131 
Q 2400 2208 2285 2317 
Q 2125 2458 2125 2605 
Q 2125 2701 2195 2761 
Q 2266 2822 2368 2822 
Q 2522 2822 2624 2704 
Q 2726 2586 2726 2445 
Q 2726 2074 2323 1453 
Q 1971 909 1562 474 
Q 1504 416 1421 326 
Q 1338 237 1299 192 
Q 1261 147 1200 86 
Q 1139 26 1110 -3 
Q 1082 -32 1043 -64 
Q 1005 -96 979 -105 
Q 954 -115 928 -115 
Q 870 -115 870 58 
L 870 211 
Q 870 1094 717 1990 
Q 653 2355 579 2470 
Q 506 2586 326 2586 
Q 198 2586 128 2579 
L 128 2662 
Q 480 2720 845 2797 
Q 915 2822 973 2822 
Q 1011 2822 1033 2739 
Q 1056 2656 1165 2093 
Q 1280 1510 1325 448 
z
" transform="scale(0.015625)"/>
       <path id="TimesNewRomanPSMT-6d" d="M 1050 2338 
Q 1363 2650 1419 2697 
Q 1559 2816 1721 2881 
Q 1884 2947 2044 2947 
Q 2313 2947 2506 2790 
Q 2700 2634 2766 2338 
Q 3088 2713 3309 2830 
Q 3531 2947 3766 2947 
Q 3994 2947 4170 2830 
Q 4347 2713 4450 2447 
Q 4519 2266 4519 1878 
L 4519 647 
Q 4519 378 4559 278 
Q 4591 209 4675 161 
Q 4759 113 4950 113 
L 4950 0 
L 3538 0 
L 3538 113 
L 3597 113 
Q 3781 113 3884 184 
Q 3956 234 3988 344 
Q 4000 397 4000 647 
L 4000 1878 
Q 4000 2228 3916 2372 
Q 3794 2572 3525 2572 
Q 3359 2572 3192 2489 
Q 3025 2406 2788 2181 
L 2781 2147 
L 2788 2013 
L 2788 647 
Q 2788 353 2820 281 
Q 2853 209 2943 161 
Q 3034 113 3253 113 
L 3253 0 
L 1806 0 
L 1806 113 
Q 2044 113 2133 169 
Q 2222 225 2256 338 
Q 2272 391 2272 647 
L 2272 1878 
Q 2272 2228 2169 2381 
Q 2031 2581 1784 2581 
Q 1616 2581 1450 2491 
Q 1191 2353 1050 2181 
L 1050 647 
Q 1050 366 1089 281 
Q 1128 197 1204 155 
Q 1281 113 1516 113 
L 1516 0 
L 100 0 
L 100 113 
Q 297 113 375 155 
Q 453 197 493 289 
Q 534 381 534 647 
L 534 1741 
Q 534 2213 506 2350 
Q 484 2453 437 2492 
Q 391 2531 309 2531 
Q 222 2531 100 2484 
L 53 2597 
L 916 2947 
L 1050 2947 
L 1050 2338 
z
" transform="scale(0.015625)"/>
       <path id="TimesNewRomanPSMT-2f" d="M 1794 4444 
L 259 -88 
L 9 -88 
L 1544 4444 
L 1794 4444 
z
" transform="scale(0.015625)"/>
      </defs>
      <use xlink:href="#STIXGeneral-Italic-76" transform="translate(0 0.5625)"/>
      <use xlink:href="#TimesNewRomanPSMT-20" transform="translate(44.399994 0.5625)"/>
      <use xlink:href="#TimesNewRomanPSMT-5b" transform="translate(69.399994 0.5625)"/>
      <use xlink:href="#TimesNewRomanPSMT-6d" transform="translate(102.700775 0.5625)"/>
      <use xlink:href="#TimesNewRomanPSMT-2f" transform="translate(180.483978 0.5625)"/>
      <use xlink:href="#TimesNewRomanPSMT-73" transform="translate(208.267181 0.5625)"/>
      <use xlink:href="#TimesNewRomanPSMT-5d" transform="translate(247.183197 0.5625)"/>
     </g>
    </g>
   </g>
   <g id="line2d_17">
    <path d="M 58.546193 25.79071 
L 100.915975 25.79071 
L 101.179298 32.492339 
L 101.443208 48.303845 
L 101.702753 77.144339 
L 101.965312 77.737146 
L 102.23245 78.794344 
L 102.495437 79.111172 
L 102.754535 76.488473 
L 103.021204 77.119064 
L 103.284252 71.596156 
L 103.547974 58.060141 
L 103.808387 25.79071 
L 104.335343 82.714478 
L 104.597242 81.273564 
L 104.862892 89.615753 
L 106.175508 89.615753 
L 106.442241 71.134318 
L 106.705776 66.575423 
L 107.229089 47.266815 
L 107.494359 46.40288 
L 107.754089 87.544502 
L 108.017075 79.39915 
L 108.283831 89.615753 
L 109.33322 89.615753 
L 109.600326 88.432947 
L 109.860204 89.615753 
L 110.122471 89.615753 
L 110.386264 78.434626 
L 110.649262 89.615753 
L 115.387432 89.615753 
L 115.65099 89.142426 
L 115.914049 87.846778 
L 116.43757 87.97596 
L 116.701589 87.795973 
L 116.966343 86.070399 
L 117.228314 89.180721 
L 117.493353 87.814355 
L 117.753505 88.970354 
L 118.018743 87.519738 
L 118.282476 86.75588 
L 118.543497 82.395608 
L 118.810078 89.615753 
L 119.069572 89.615753 
L 119.335752 87.379578 
L 119.595365 89.615753 
L 119.860937 89.615753 
L 120.123543 85.323391 
L 120.384918 85.533248 
L 120.649744 87.897327 
L 120.913933 76.53698 
L 121.177615 76.823682 
L 121.440157 70.739624 
L 121.700509 69.283902 
L 121.964312 73.930621 
L 122.233453 63.802097 
L 122.495556 42.658137 
L 122.753435 41.623916 
L 123.019113 25.79071 
L 155.124673 25.79071 
L 155.386112 46.185364 
L 155.912411 60.579698 
L 156.176357 33.567919 
L 156.439857 35.38438 
L 156.703497 25.79071 
L 156.966954 67.031899 
L 157.225409 77.386108 
L 157.492141 78.772133 
L 157.754178 82.880934 
L 158.015993 83.954727 
L 158.282572 83.271799 
L 158.541217 79.513525 
L 158.804501 84.447967 
L 159.067368 84.460221 
L 159.330898 87.936899 
L 159.593658 89.615753 
L 159.857257 88.298148 
L 160.125014 44.973965 
L 160.384522 88.905763 
L 160.646171 37.702505 
L 160.909835 25.79071 
L 161.176269 73.050856 
L 161.439616 50.84689 
L 161.698711 45.141952 
L 161.964867 76.519364 
L 162.228378 84.74871 
L 162.492359 88.311169 
L 162.752418 82.098439 
L 163.017512 89.615753 
L 163.279237 89.39645 
L 163.54089 89.615753 
L 163.806327 82.025423 
L 164.067214 64.621355 
L 164.333001 58.281997 
L 164.598578 65.12685 
L 164.856414 81.905687 
L 165.120627 89.615753 
L 166.176107 89.615753 
L 166.435527 89.039795 
L 166.698804 89.615753 
L 166.965481 86.091589 
L 167.229291 85.262629 
L 167.491185 89.615753 
L 174.066614 89.615753 
L 174.329785 89.031115 
L 174.594536 89.615753 
L 174.858478 89.376536 
L 175.12181 89.615753 
L 175.645409 89.615753 
L 175.90852 88.52945 
L 176.171361 84.59987 
L 176.437359 85.009882 
L 176.700448 84.780112 
L 176.960675 74.350845 
L 177.226988 71.3189 
L 177.489739 71.90992 
L 177.750323 67.596113 
L 178.276872 38.278462 
L 178.539621 25.79071 
L 210.380675 25.79071 
L 210.643162 26.998024 
L 210.90638 31.235496 
L 211.694682 36.538336 
L 212.22135 43.638234 
L 213.011556 51.778735 
L 213.274286 54.375649 
L 213.537926 54.854592 
L 214.327031 62.106648 
L 214.852298 70.504748 
L 215.904583 78.633505 
L 216.694993 84.767092 
L 217.748871 95.594372 
L 219.062724 105.275354 
L 219.326544 106.077763 
L 220.114637 112.392102 
L 220.377904 113.431684 
L 220.641128 115.334692 
L 222.746389 122.846133 
L 223.272574 124.53137 
L 223.536021 123.922224 
L 223.799102 124.273772 
L 224.324974 125.838252 
L 224.851987 126.923533 
L 225.378041 128.445887 
L 225.642533 128.794117 
L 226.693336 131.804617 
L 227.482557 133.552146 
L 227.482557 133.552146 
" clip-path="url(#pf1ac163ace)" style="fill: none; stroke: #ff0000; stroke-opacity: 0.8; stroke-linecap: square"/>
   </g>
   <g id="line2d_18">
    <path d="M 58.546193 153.440795 
L 59.603408 153.440795 
L 59.861905 141.60125 
L 60.124688 139.909631 
L 60.390394 129.761705 
L 60.653558 126.378977 
L 60.916678 126.379233 
L 61.180079 124.687614 
L 61.443156 119.613523 
L 61.706849 111.156705 
L 61.969686 109.465341 
L 62.234315 109.465341 
L 62.493104 97.625795 
L 62.75944 97.625795 
L 63.021931 90.860341 
L 63.285107 80.712159 
L 63.545657 84.094886 
L 63.808986 79.020795 
L 64.598749 55.341705 
L 64.861144 62.107159 
L 65.127583 48.575995 
L 65.387591 53.650341 
L 65.650843 45.808541 
L 65.916561 41.810795 
L 66.176961 29.970995 
L 66.441088 28.279631 
L 66.70626 19.666314 
L 66.969429 18.13196 
L 67.229723 19.823068 
L 67.495363 23.206051 
L 67.759314 19.823068 
L 68.019153 23.20554 
L 68.283084 23.769498 
L 68.54581 21.514687 
L 69.076766 24.897159 
L 69.335135 31.662614 
L 69.598676 26.588523 
L 69.861197 24.896904 
L 70.124928 24.896904 
L 70.387501 26.588012 
L 70.652097 23.206051 
L 70.914085 24.896904 
L 71.176828 23.20554 
L 71.440011 26.588523 
L 71.70343 24.897159 
L 71.970256 24.897159 
L 72.231147 26.588523 
L 72.493897 26.588523 
L 73.019485 23.205795 
L 73.282354 26.588523 
L 73.54499 26.588523 
L 73.810773 23.205795 
L 74.071425 24.897159 
L 74.335553 21.514432 
L 74.861965 29.97125 
L 75.12698 21.514432 
L 75.650426 24.897159 
L 75.913443 23.205795 
L 76.176655 24.897159 
L 76.705891 24.897159 
L 76.968445 28.279886 
L 77.231689 24.897159 
L 77.492798 23.205795 
L 77.758485 24.896904 
L 78.020891 25.742713 
L 78.281765 21.514432 
L 78.544924 26.588523 
L 79.073013 24.897159 
L 79.337336 24.896904 
L 79.600113 23.206051 
L 79.863697 24.58365 
L 80.389665 28.280142 
L 80.653182 25.742713 
L 80.917504 28.279631 
L 81.179059 28.279631 
L 81.43988 26.588012 
L 81.965577 29.97125 
L 82.231322 28.280142 
L 82.492641 24.896904 
L 82.755468 26.588778 
L 83.018161 29.97125 
L 83.284706 26.588267 
L 83.546022 28.279631 
L 83.807773 23.205795 
L 84.074279 28.279631 
L 84.337617 23.206051 
L 84.59742 21.514432 
L 84.861021 24.896904 
L 85.123331 24.897159 
L 85.652542 21.514432 
L 85.912923 26.588523 
L 86.176012 28.279631 
L 86.442949 26.588523 
L 86.705182 27.434332 
L 86.968749 23.205795 
L 87.229149 26.588523 
L 87.493443 24.897159 
L 87.755439 29.97125 
L 88.018071 23.205795 
L 88.283247 26.588523 
L 88.544652 23.205795 
L 88.810836 23.205795 
L 89.074283 26.588523 
L 89.334351 24.051605 
L 89.601813 28.279886 
L 90.124229 28.279886 
L 90.391469 27.357232 
L 90.652637 29.97125 
L 90.913255 28.279631 
L 91.177972 23.205795 
L 91.44016 23.205795 
L 91.703052 24.896904 
L 91.967244 21.514432 
L 92.23272 23.206051 
L 92.495544 26.588523 
L 93.021995 24.896904 
L 93.285202 23.20554 
L 93.547869 24.897159 
L 93.811425 25.820069 
L 94.075381 24.89767 
L 94.860372 29.971761 
L 95.38919 23.206051 
L 95.916432 23.206051 
L 96.17984 24.897159 
L 96.443343 23.206051 
L 96.706677 24.896904 
L 96.965727 28.279886 
L 97.233458 27.434332 
L 97.491927 28.894904 
L 97.757805 23.205795 
L 98.01826 28.279886 
L 98.284733 26.588523 
L 98.545165 23.20554 
L 98.811541 27.528283 
L 99.075244 23.205795 
L 99.337462 24.897159 
L 99.600681 24.897159 
L 99.86022 23.205795 
L 100.123961 28.279886 
L 100.390619 29.97125 
L 100.652869 29.97125 
L 100.915975 24.897159 
L 101.443208 24.897159 
L 101.702753 23.205795 
L 101.965312 33.353977 
L 102.495437 43.502159 
L 103.021204 46.884886 
L 103.808387 68.872614 
L 104.071088 68.026804 
L 104.335343 62.107414 
L 104.597242 65.489886 
L 104.862892 60.416051 
L 105.389266 67.181505 
L 105.652566 68.872614 
L 105.912518 65.489886 
L 106.175508 70.564233 
L 106.442241 82.403523 
L 106.705776 84.095142 
L 106.964742 83.906985 
L 107.494359 87.477614 
L 107.754089 79.02054 
L 108.017075 85.785995 
L 108.283831 72.255086 
L 108.543511 73.946705 
L 108.806659 71.94796 
L 109.073199 72.255086 
L 109.33322 78.175241 
L 109.600326 89.169233 
L 109.860204 85.785995 
L 110.386264 99.317159 
L 110.649262 94.242813 
L 111.175111 94.242813 
L 111.441473 90.860341 
L 111.704644 85.78625 
L 111.965363 89.168977 
L 112.227578 87.477614 
L 112.757413 90.860341 
L 113.017638 89.169233 
L 113.281704 89.168722 
L 113.543862 87.477614 
L 114.071213 90.860341 
L 114.332661 89.168977 
L 114.598905 89.168722 
L 114.858597 92.551705 
L 115.125312 89.168977 
L 115.387432 90.860341 
L 115.65099 90.860596 
L 115.914049 89.168722 
L 116.177697 92.55196 
L 116.43757 90.860341 
L 116.701589 90.860341 
L 116.966343 85.78625 
L 117.228314 87.477614 
L 117.493353 84.094886 
L 117.753505 87.477614 
L 118.282476 89.168977 
L 118.543497 82.403523 
L 118.810078 89.168977 
L 119.335752 80.712414 
L 119.595365 89.169233 
L 119.860937 90.860341 
L 120.123543 85.785995 
L 120.384918 89.168977 
L 120.649744 94.243068 
L 120.913933 85.785995 
L 121.177615 89.168722 
L 121.440157 84.094631 
L 121.700509 84.095142 
L 121.964312 89.168977 
L 122.233453 82.403523 
L 122.495556 72.255341 
L 122.753435 79.02054 
L 123.019113 65.489886 
L 123.542717 56.571741 
L 124.070529 51.958977 
L 124.333436 43.502159 
L 124.598069 41.810795 
L 124.859135 38.428068 
L 125.121458 33.353977 
L 125.387212 39.806434 
L 125.910711 19.823068 
L 126.173672 18.131705 
L 126.436907 23.206051 
L 126.700235 19.823068 
L 126.966044 18.131705 
L 127.492893 26.588523 
L 128.016139 26.588523 
L 128.281807 24.897159 
L 128.542282 26.588778 
L 128.805782 23.205795 
L 129.068753 26.588523 
L 129.332646 23.20554 
L 129.596132 24.897159 
L 129.85809 19.823068 
L 130.1214 24.897159 
L 130.651072 28.279886 
L 130.910691 26.588523 
L 131.439986 26.588523 
L 131.702558 24.897159 
L 131.963133 24.281886 
L 132.228842 26.588523 
L 132.492628 23.206051 
L 132.755062 26.588523 
L 133.018649 24.897159 
L 133.544417 24.897159 
L 133.804948 28.279376 
L 134.07148 29.97125 
L 134.333841 24.896904 
L 134.597409 26.588523 
L 134.86047 23.206051 
L 135.121043 26.588778 
L 135.647477 26.588523 
L 135.910241 24.897159 
L 136.43978 24.89767 
L 136.962834 28.280142 
L 137.226398 23.206051 
L 137.491657 21.514432 
L 137.756004 24.896904 
L 138.278627 28.279886 
L 138.541628 28.279886 
L 138.807473 26.588267 
L 139.068247 26.588523 
L 139.332598 29.97125 
L 139.858758 23.206051 
L 140.386508 24.897159 
L 140.649684 24.897159 
L 140.911266 23.205795 
L 141.175725 24.897159 
L 141.436268 27.434332 
L 141.699401 23.205795 
L 141.964765 26.588523 
L 142.228792 31.662614 
L 142.492905 24.897159 
L 142.752543 26.588523 
L 143.015964 26.588523 
L 143.282091 23.205795 
L 143.545193 28.279886 
L 143.808382 29.97125 
L 144.072059 24.05135 
L 144.331442 29.97125 
L 144.594967 26.588523 
L 144.860589 28.279886 
L 145.121219 24.897159 
L 145.387822 26.588523 
L 145.651213 24.897159 
L 146.17632 24.897414 
L 146.437189 26.588523 
L 146.700252 26.588523 
L 146.96566 23.206051 
L 147.230609 24.897414 
L 147.489612 21.514432 
L 147.752709 24.897414 
L 148.015685 23.206051 
L 148.281617 26.588778 
L 148.542628 25.819814 
L 148.805957 26.588778 
L 149.069366 24.896904 
L 149.336026 21.514687 
L 149.597113 28.279631 
L 149.861766 23.206051 
L 150.121298 23.20554 
L 150.388684 29.97125 
L 150.647238 24.897159 
L 150.911037 22.892542 
L 151.175861 23.20554 
L 151.436809 26.588267 
L 151.967134 23.20554 
L 152.229535 23.206051 
L 152.48934 29.97125 
L 152.756291 26.588523 
L 153.015225 26.588267 
L 153.280341 24.897414 
L 153.546084 26.588523 
L 153.808483 24.897159 
L 154.071433 21.514687 
L 154.332919 23.205795 
L 154.594996 29.97125 
L 155.124673 26.588523 
L 155.386112 24.051605 
L 155.650295 26.588523 
L 155.912411 26.588523 
L 156.176357 36.736705 
L 156.439857 38.428068 
L 156.703497 43.502159 
L 156.966954 33.353977 
L 157.225409 35.045341 
L 157.492141 38.428068 
L 157.754178 33.353722 
L 158.541217 53.650341 
L 158.804501 52.804787 
L 159.593658 60.41554 
L 159.857257 65.489886 
L 160.125014 79.020795 
L 160.384522 73.946705 
L 160.646171 85.785995 
L 160.909835 89.168977 
L 161.176269 84.094631 
L 161.698711 82.403267 
L 162.228378 73.946705 
L 162.492359 70.564233 
L 162.752418 77.329432 
L 163.017512 68.872614 
L 163.279237 73.946449 
L 163.54089 75.637558 
L 164.067214 92.551449 
L 164.333001 94.243068 
L 164.598578 94.243068 
L 164.856414 90.860341 
L 165.120627 84.095142 
L 165.38447 84.094886 
L 165.646057 79.02054 
L 165.912839 68.872614 
L 166.176107 75.638068 
L 166.435527 87.477869 
L 166.698804 85.785995 
L 166.965481 94.243068 
L 167.229291 95.934432 
L 167.491185 92.551705 
L 167.752059 94.243068 
L 168.014181 94.242813 
L 168.280687 92.551705 
L 168.541068 87.477614 
L 168.803677 89.168722 
L 169.069563 87.477614 
L 169.592972 92.551705 
L 169.857452 89.168977 
L 170.11878 90.014531 
L 170.383672 91.424044 
L 170.6479 89.168722 
L 170.909755 92.551705 
L 171.174066 92.551705 
L 171.435164 89.169233 
L 172.22452 89.168977 
L 172.487723 90.860341 
L 172.754079 89.168722 
L 173.278882 89.169233 
L 173.542948 85.78625 
L 173.803256 89.168977 
L 174.066614 89.168977 
L 174.329785 87.477869 
L 174.594536 90.860086 
L 174.858478 90.860341 
L 175.12181 89.168467 
L 175.384873 90.014531 
L 175.645409 92.551705 
L 175.90852 90.860341 
L 176.171361 90.014787 
L 176.437359 90.860341 
L 176.700448 89.168722 
L 176.960675 82.403012 
L 177.226988 82.403523 
L 177.489739 84.095142 
L 177.750323 82.403778 
L 178.01642 74.792514 
L 178.539621 65.489886 
L 178.803806 65.489886 
L 179.856118 39.806179 
L 180.119279 36.737215 
L 180.381889 31.662869 
L 180.644711 38.428068 
L 181.174217 19.822558 
L 181.437193 23.205795 
L 181.697642 21.514432 
L 181.963246 21.206795 
L 182.227728 19.823068 
L 182.486724 21.514432 
L 182.749947 24.897159 
L 183.016023 29.971505 
L 183.279988 23.205795 
L 183.54194 26.588523 
L 184.065908 29.704206 
L 184.331374 24.897159 
L 184.592173 28.280142 
L 184.855232 23.205795 
L 185.120134 29.97125 
L 185.383835 23.205795 
L 185.645818 23.205795 
L 185.90764 21.514432 
L 186.172693 26.588523 
L 186.436682 28.279886 
L 186.697539 28.279886 
L 186.963346 31.662614 
L 187.226353 28.279886 
L 187.487172 29.97125 
L 187.749806 23.205795 
L 188.277135 26.588523 
L 188.541894 23.20554 
L 189.32889 28.279376 
L 189.594432 24.896904 
L 189.85818 24.896904 
L 190.120703 26.185914 
L 190.381298 26.275525 
L 190.647505 26.588523 
L 190.909337 24.897414 
L 191.436579 24.897414 
L 191.697795 28.280142 
L 191.960008 28.280142 
L 192.223221 24.897159 
L 192.487576 24.897159 
L 192.750251 26.588523 
L 193.013197 26.588523 
L 193.275865 28.280142 
L 193.539323 24.897159 
L 193.805104 26.588778 
L 194.066033 24.896904 
L 194.594914 24.896904 
L 194.857345 28.280142 
L 195.119689 26.588523 
L 195.383616 31.662869 
L 195.644642 28.279631 
L 195.906998 23.20554 
L 196.174252 24.05135 
L 196.433295 26.588523 
L 196.697461 26.588523 
L 196.960488 24.897159 
L 197.222917 28.279886 
L 197.488754 24.897159 
L 197.752259 28.279886 
L 198.276104 24.897159 
L 198.541155 26.588523 
L 198.802087 25.742713 
L 199.067452 26.588523 
L 199.329994 26.588523 
L 199.591011 24.897159 
L 199.856534 28.279886 
L 200.120979 26.588523 
L 200.380477 26.588523 
L 200.64347 25.742713 
L 200.909526 26.588523 
L 201.169621 26.588523 
L 201.433026 21.514177 
L 201.696065 26.588523 
L 201.959514 23.20554 
L 202.222264 26.588523 
L 202.4881 26.588523 
L 202.750632 24.897414 
L 203.01183 28.279886 
L 203.53906 21.514687 
L 203.80272 28.279886 
L 204.592602 24.896904 
L 204.855064 26.588523 
L 205.37992 24.896904 
L 205.906332 28.279631 
L 206.433683 24.897159 
L 206.696472 25.742969 
L 206.960316 29.971505 
L 207.222871 23.206051 
L 207.485279 24.051605 
L 207.748394 26.588523 
L 208.010842 26.588523 
L 208.274532 24.897414 
L 208.537764 24.896904 
L 208.802242 26.588523 
L 209.064758 29.97125 
L 209.591144 21.514687 
L 209.853049 24.897159 
L 210.115864 23.205795 
L 210.380675 26.588523 
L 210.643162 24.897159 
L 210.90638 28.279886 
L 211.169802 29.97125 
L 211.432438 28.279886 
L 211.694682 35.045341 
L 211.957915 31.662614 
L 212.485315 35.045341 
L 212.74809 42.65635 
L 213.011556 45.193267 
L 213.274286 57.033068 
L 213.537926 51.958977 
L 213.799568 60.415795 
L 214.063341 58.724432 
L 214.327031 55.341705 
L 214.589375 63.798523 
L 214.852298 60.415795 
L 215.116393 61.355555 
L 215.379527 68.027059 
L 215.641674 67.18125 
L 215.904583 72.255596 
L 216.168148 73.946705 
L 216.430857 77.329432 
L 216.694993 82.403523 
L 216.957971 80.712159 
L 217.483732 89.169488 
L 217.748871 87.477869 
L 218.010205 90.860341 
L 218.273017 95.934177 
L 218.53602 97.626051 
L 218.800154 98.47135 
L 219.062724 104.39125 
L 219.326544 97.312287 
L 219.589217 107.773977 
L 219.852498 109.465341 
L 220.114637 114.538921 
L 220.377904 114.539432 
L 220.641128 104.579151 
L 220.904257 111.156449 
L 221.167185 114.539432 
L 221.431415 115.384986 
L 221.694088 114.539687 
L 221.957546 121.304886 
L 222.220303 122.99625 
L 222.746389 122.99625 
L 223.010342 121.304886 
L 223.272574 127.301632 
L 223.536021 126.379233 
L 224.063707 129.761705 
L 224.324974 126.378977 
L 224.588726 128.070596 
L 224.851987 126.379233 
L 225.115103 122.995995 
L 225.642533 126.378467 
L 225.903989 131.453579 
L 226.167699 126.379233 
L 226.693336 129.761705 
L 227.219915 136.52767 
L 227.482557 134.835795 
L 227.482557 134.835795 
" clip-path="url(#pf1ac163ace)" style="fill: none; stroke: #0000ff; stroke-linecap: square"/>
   </g>
   <g id="line2d_19">
    <path d="M 50.099375 25.79071 
L 235.929375 25.79071 
" clip-path="url(#pf1ac163ace)" style="fill: none; stroke-dasharray: 3.7,1.6; stroke-dashoffset: 0; stroke: #000000; stroke-opacity: 0.7"/>
   </g>
   <g id="patch_3">
    <path d="M 50.099375 160.20625 
L 50.099375 11.36625 
" style="fill: none; stroke: #000000; stroke-width: 0.8; stroke-linejoin: miter; stroke-linecap: square"/>
   </g>
   <g id="patch_4">
    <path d="M 235.929375 160.20625 
L 235.929375 11.36625 
" style="fill: none; stroke: #000000; stroke-width: 0.8; stroke-linejoin: miter; stroke-linecap: square"/>
   </g>
   <g id="patch_5">
    <path d="M 50.099375 160.20625 
L 235.929375 160.20625 
" style="fill: none; stroke: #000000; stroke-width: 0.8; stroke-linejoin: miter; stroke-linecap: square"/>
   </g>
   <g id="patch_6">
    <path d="M 50.099375 11.36625 
L 235.929375 11.36625 
" style="fill: none; stroke: #000000; stroke-width: 0.8; stroke-linejoin: miter; stroke-linecap: square"/>
   </g>
  </g>
  <g id="axes_2">
   <g id="patch_7">
    <path d="M 295.979375 160.20625 
L 481.809375 160.20625 
L 481.809375 11.36625 
L 295.979375 11.36625 
z
" style="fill: #ffffff"/>
   </g>
   <g id="matplotlib.axis_3">
    <g id="xtick_6">
     <g id="line2d_20">
      <path d="M 304.426193 160.20625 
L 304.426193 11.36625 
" clip-path="url(#pa65f550245)" style="fill: none; stroke: #b0b0b0; stroke-opacity: 0.3; stroke-width: 0.8; stroke-linecap: square"/>
     </g>
     <g id="line2d_21">
      <g>
       <use xlink:href="#m74ea9b552a" x="304.426193" y="160.20625" style="stroke: #000000; stroke-width: 0.8"/>
      </g>
     </g>
     <g id="text_11">
      <!-- 0 -->
      <g transform="translate(301.426193 175.53875) scale(0.12 -0.12)">
       <use xlink:href="#TimesNewRomanPSMT-30"/>
      </g>
     </g>
    </g>
    <g id="xtick_7">
     <g id="line2d_22">
      <path d="M 343.897823 160.20625 
L 343.897823 11.36625 
" clip-path="url(#pa65f550245)" style="fill: none; stroke: #b0b0b0; stroke-opacity: 0.3; stroke-width: 0.8; stroke-linecap: square"/>
     </g>
     <g id="line2d_23">
      <g>
       <use xlink:href="#m74ea9b552a" x="343.897823" y="160.20625" style="stroke: #000000; stroke-width: 0.8"/>
      </g>
     </g>
     <g id="text_12">
      <!-- 5 -->
      <g transform="translate(340.897823 175.53875) scale(0.12 -0.12)">
       <use xlink:href="#TimesNewRomanPSMT-35"/>
      </g>
     </g>
    </g>
    <g id="xtick_8">
     <g id="line2d_24">
      <path d="M 383.369453 160.20625 
L 383.369453 11.36625 
" clip-path="url(#pa65f550245)" style="fill: none; stroke: #b0b0b0; stroke-opacity: 0.3; stroke-width: 0.8; stroke-linecap: square"/>
     </g>
     <g id="line2d_25">
      <g>
       <use xlink:href="#m74ea9b552a" x="383.369453" y="160.20625" style="stroke: #000000; stroke-width: 0.8"/>
      </g>
     </g>
     <g id="text_13">
      <!-- 10 -->
      <g transform="translate(377.369453 175.53875) scale(0.12 -0.12)">
       <use xlink:href="#TimesNewRomanPSMT-31"/>
       <use xlink:href="#TimesNewRomanPSMT-30" x="50"/>
      </g>
     </g>
    </g>
    <g id="xtick_9">
     <g id="line2d_26">
      <path d="M 422.841083 160.20625 
L 422.841083 11.36625 
" clip-path="url(#pa65f550245)" style="fill: none; stroke: #b0b0b0; stroke-opacity: 0.3; stroke-width: 0.8; stroke-linecap: square"/>
     </g>
     <g id="line2d_27">
      <g>
       <use xlink:href="#m74ea9b552a" x="422.841083" y="160.20625" style="stroke: #000000; stroke-width: 0.8"/>
      </g>
     </g>
     <g id="text_14">
      <!-- 15 -->
      <g transform="translate(416.841083 175.53875) scale(0.12 -0.12)">
       <use xlink:href="#TimesNewRomanPSMT-31"/>
       <use xlink:href="#TimesNewRomanPSMT-35" x="50"/>
      </g>
     </g>
    </g>
    <g id="xtick_10">
     <g id="line2d_28">
      <path d="M 462.312713 160.20625 
L 462.312713 11.36625 
" clip-path="url(#pa65f550245)" style="fill: none; stroke: #b0b0b0; stroke-opacity: 0.3; stroke-width: 0.8; stroke-linecap: square"/>
     </g>
     <g id="line2d_29">
      <g>
       <use xlink:href="#m74ea9b552a" x="462.312713" y="160.20625" style="stroke: #000000; stroke-width: 0.8"/>
      </g>
     </g>
     <g id="text_15">
      <!-- 20 -->
      <g transform="translate(456.312713 175.53875) scale(0.12 -0.12)">
       <use xlink:href="#TimesNewRomanPSMT-32"/>
       <use xlink:href="#TimesNewRomanPSMT-30" x="50"/>
      </g>
     </g>
    </g>
    <g id="text_16">
     <!-- $t$ [s] -->
     <g transform="translate(379.354375 190.438125) scale(0.12 -0.12)">
      <use xlink:href="#STIXGeneral-Italic-74" transform="translate(0 0.28125)"/>
      <use xlink:href="#TimesNewRomanPSMT-20" transform="translate(27.799988 0.28125)"/>
      <use xlink:href="#TimesNewRomanPSMT-5b" transform="translate(52.799988 0.28125)"/>
      <use xlink:href="#TimesNewRomanPSMT-73" transform="translate(86.100769 0.28125)"/>
      <use xlink:href="#TimesNewRomanPSMT-5d" transform="translate(125.016785 0.28125)"/>
     </g>
    </g>
   </g>
   <g id="matplotlib.axis_4">
    <g id="ytick_4">
     <g id="line2d_30">
      <path d="M 295.979375 160.20625 
L 481.809375 160.20625 
" clip-path="url(#pa65f550245)" style="fill: none; stroke: #b0b0b0; stroke-opacity: 0.3; stroke-width: 0.8; stroke-linecap: square"/>
     </g>
     <g id="line2d_31">
      <g>
       <use xlink:href="#mc02fe77432" x="295.979375" y="160.20625" style="stroke: #000000; stroke-width: 0.8"/>
      </g>
     </g>
     <g id="text_17">
      <!-- −1.5 -->
      <g transform="translate(267.2125 164.3725) scale(0.12 -0.12)">
       <defs>
        <path id="TimesNewRomanPSMT-2212" d="M 3484 2000 
L 116 2000 
L 116 2256 
L 3484 2256 
L 3484 2000 
z
" transform="scale(0.015625)"/>
       </defs>
       <use xlink:href="#TimesNewRomanPSMT-2212"/>
       <use xlink:href="#TimesNewRomanPSMT-31" x="56.396484"/>
       <use xlink:href="#TimesNewRomanPSMT-2e" x="106.396484"/>
       <use xlink:href="#TimesNewRomanPSMT-35" x="131.396484"/>
      </g>
     </g>
    </g>
    <g id="ytick_5">
     <g id="line2d_32">
      <path d="M 295.979375 135.399583 
L 481.809375 135.399583 
" clip-path="url(#pa65f550245)" style="fill: none; stroke: #b0b0b0; stroke-opacity: 0.3; stroke-width: 0.8; stroke-linecap: square"/>
     </g>
     <g id="line2d_33">
      <g>
       <use xlink:href="#mc02fe77432" x="295.979375" y="135.399583" style="stroke: #000000; stroke-width: 0.8"/>
      </g>
     </g>
     <g id="text_18">
      <!-- −1.0 -->
      <g transform="translate(267.2125 139.565833) scale(0.12 -0.12)">
       <use xlink:href="#TimesNewRomanPSMT-2212"/>
       <use xlink:href="#TimesNewRomanPSMT-31" x="56.396484"/>
       <use xlink:href="#TimesNewRomanPSMT-2e" x="106.396484"/>
       <use xlink:href="#TimesNewRomanPSMT-30" x="131.396484"/>
      </g>
     </g>
    </g>
    <g id="ytick_6">
     <g id="line2d_34">
      <path d="M 295.979375 110.592917 
L 481.809375 110.592917 
" clip-path="url(#pa65f550245)" style="fill: none; stroke: #b0b0b0; stroke-opacity: 0.3; stroke-width: 0.8; stroke-linecap: square"/>
     </g>
     <g id="line2d_35">
      <g>
       <use xlink:href="#mc02fe77432" x="295.979375" y="110.592917" style="stroke: #000000; stroke-width: 0.8"/>
      </g>
     </g>
     <g id="text_19">
      <!-- −0.5 -->
      <g transform="translate(267.2125 114.759167) scale(0.12 -0.12)">
       <use xlink:href="#TimesNewRomanPSMT-2212"/>
       <use xlink:href="#TimesNewRomanPSMT-30" x="56.396484"/>
       <use xlink:href="#TimesNewRomanPSMT-2e" x="106.396484"/>
       <use xlink:href="#TimesNewRomanPSMT-35" x="131.396484"/>
      </g>
     </g>
    </g>
    <g id="ytick_7">
     <g id="line2d_36">
      <path d="M 295.979375 85.78625 
L 481.809375 85.78625 
" clip-path="url(#pa65f550245)" style="fill: none; stroke: #b0b0b0; stroke-opacity: 0.3; stroke-width: 0.8; stroke-linecap: square"/>
     </g>
     <g id="line2d_37">
      <g>
       <use xlink:href="#mc02fe77432" x="295.979375" y="85.78625" style="stroke: #000000; stroke-width: 0.8"/>
      </g>
     </g>
     <g id="text_20">
      <!-- 0.0 -->
      <g transform="translate(273.979375 89.9525) scale(0.12 -0.12)">
       <use xlink:href="#TimesNewRomanPSMT-30"/>
       <use xlink:href="#TimesNewRomanPSMT-2e" x="50"/>
       <use xlink:href="#TimesNewRomanPSMT-30" x="75"/>
      </g>
     </g>
    </g>
    <g id="ytick_8">
     <g id="line2d_38">
      <path d="M 295.979375 60.979583 
L 481.809375 60.979583 
" clip-path="url(#pa65f550245)" style="fill: none; stroke: #b0b0b0; stroke-opacity: 0.3; stroke-width: 0.8; stroke-linecap: square"/>
     </g>
     <g id="line2d_39">
      <g>
       <use xlink:href="#mc02fe77432" x="295.979375" y="60.979583" style="stroke: #000000; stroke-width: 0.8"/>
      </g>
     </g>
     <g id="text_21">
      <!-- 0.5 -->
      <g transform="translate(273.979375 65.145833) scale(0.12 -0.12)">
       <use xlink:href="#TimesNewRomanPSMT-30"/>
       <use xlink:href="#TimesNewRomanPSMT-2e" x="50"/>
       <use xlink:href="#TimesNewRomanPSMT-35" x="75"/>
      </g>
     </g>
    </g>
    <g id="ytick_9">
     <g id="line2d_40">
      <path d="M 295.979375 36.172917 
L 481.809375 36.172917 
" clip-path="url(#pa65f550245)" style="fill: none; stroke: #b0b0b0; stroke-opacity: 0.3; stroke-width: 0.8; stroke-linecap: square"/>
     </g>
     <g id="line2d_41">
      <g>
       <use xlink:href="#mc02fe77432" x="295.979375" y="36.172917" style="stroke: #000000; stroke-width: 0.8"/>
      </g>
     </g>
     <g id="text_22">
      <!-- 1.0 -->
      <g transform="translate(273.979375 40.339167) scale(0.12 -0.12)">
       <use xlink:href="#TimesNewRomanPSMT-31"/>
       <use xlink:href="#TimesNewRomanPSMT-2e" x="50"/>
       <use xlink:href="#TimesNewRomanPSMT-30" x="75"/>
      </g>
     </g>
    </g>
    <g id="ytick_10">
     <g id="line2d_42">
      <path d="M 295.979375 11.36625 
L 481.809375 11.36625 
" clip-path="url(#pa65f550245)" style="fill: none; stroke: #b0b0b0; stroke-opacity: 0.3; stroke-width: 0.8; stroke-linecap: square"/>
     </g>
     <g id="line2d_43">
      <g>
       <use xlink:href="#mc02fe77432" x="295.979375" y="11.36625" style="stroke: #000000; stroke-width: 0.8"/>
      </g>
     </g>
     <g id="text_23">
      <!-- 1.5 -->
      <g transform="translate(273.979375 15.5325) scale(0.12 -0.12)">
       <use xlink:href="#TimesNewRomanPSMT-31"/>
       <use xlink:href="#TimesNewRomanPSMT-2e" x="50"/>
       <use xlink:href="#TimesNewRomanPSMT-35" x="75"/>
      </g>
     </g>
    </g>
    <g id="text_24">
     <!-- $\omega$ [rad/s] -->
     <g transform="translate(260.645625 107.08625) rotate(-90) scale(0.12 -0.12)">
      <defs>
       <path id="STIXGeneral-Italic-3c9" d="M 3021 2810 
L 3136 2810 
Q 3648 2810 3898 2598 
Q 4186 2355 4186 1824 
Q 4186 1357 3910 838 
Q 3667 390 3334 160 
Q 3002 -70 2669 -70 
Q 2438 -70 2281 3 
Q 2125 77 2064 160 
Q 2003 243 1939 384 
Q 1741 147 1533 38 
Q 1325 -70 998 -70 
Q 659 -70 416 160 
Q 173 390 173 832 
Q 173 1101 237 1350 
Q 403 1965 883 2387 
Q 1363 2810 2010 2810 
L 2125 2810 
L 2125 2707 
Q 1606 2707 1267 2291 
Q 1024 1990 867 1526 
Q 710 1062 710 666 
Q 710 64 1075 64 
Q 1286 64 1523 285 
Q 1760 506 1856 774 
Q 1837 915 1837 1101 
Q 1837 1363 1914 1651 
Q 1984 1920 2125 2105 
Q 2266 2291 2432 2291 
Q 2656 2291 2656 1997 
Q 2656 1530 2387 1062 
Q 2272 864 2189 736 
Q 2176 691 2176 602 
Q 2176 384 2288 224 
Q 2400 64 2592 64 
Q 3040 64 3341 627 
Q 3482 896 3565 1270 
Q 3648 1645 3648 1971 
Q 3648 2240 3616 2362 
Q 3565 2566 3411 2636 
Q 3258 2707 3021 2707 
L 3021 2810 
z
" transform="scale(0.015625)"/>
       <path id="TimesNewRomanPSMT-72" d="M 1038 2947 
L 1038 2303 
Q 1397 2947 1775 2947 
Q 1947 2947 2059 2842 
Q 2172 2738 2172 2600 
Q 2172 2478 2090 2393 
Q 2009 2309 1897 2309 
Q 1788 2309 1652 2417 
Q 1516 2525 1450 2525 
Q 1394 2525 1328 2463 
Q 1188 2334 1038 2041 
L 1038 669 
Q 1038 431 1097 309 
Q 1138 225 1241 169 
Q 1344 113 1538 113 
L 1538 0 
L 72 0 
L 72 113 
Q 291 113 397 181 
Q 475 231 506 341 
Q 522 394 522 644 
L 522 1753 
Q 522 2253 501 2348 
Q 481 2444 426 2487 
Q 372 2531 291 2531 
Q 194 2531 72 2484 
L 41 2597 
L 906 2947 
L 1038 2947 
z
" transform="scale(0.015625)"/>
       <path id="TimesNewRomanPSMT-61" d="M 1822 413 
Q 1381 72 1269 19 
Q 1100 -59 909 -59 
Q 613 -59 420 144 
Q 228 347 228 678 
Q 228 888 322 1041 
Q 450 1253 767 1440 
Q 1084 1628 1822 1897 
L 1822 2009 
Q 1822 2438 1686 2597 
Q 1550 2756 1291 2756 
Q 1094 2756 978 2650 
Q 859 2544 859 2406 
L 866 2225 
Q 866 2081 792 2003 
Q 719 1925 600 1925 
Q 484 1925 411 2006 
Q 338 2088 338 2228 
Q 338 2497 613 2722 
Q 888 2947 1384 2947 
Q 1766 2947 2009 2819 
Q 2194 2722 2281 2516 
Q 2338 2381 2338 1966 
L 2338 994 
Q 2338 584 2353 492 
Q 2369 400 2405 369 
Q 2441 338 2488 338 
Q 2538 338 2575 359 
Q 2641 400 2828 588 
L 2828 413 
Q 2478 -56 2159 -56 
Q 2006 -56 1915 50 
Q 1825 156 1822 413 
z
M 1822 616 
L 1822 1706 
Q 1350 1519 1213 1441 
Q 966 1303 859 1153 
Q 753 1003 753 825 
Q 753 600 887 451 
Q 1022 303 1197 303 
Q 1434 303 1822 616 
z
" transform="scale(0.015625)"/>
       <path id="TimesNewRomanPSMT-64" d="M 2222 322 
Q 2013 103 1813 7 
Q 1613 -88 1381 -88 
Q 913 -88 563 304 
Q 213 697 213 1313 
Q 213 1928 600 2439 
Q 988 2950 1597 2950 
Q 1975 2950 2222 2709 
L 2222 3238 
Q 2222 3728 2198 3840 
Q 2175 3953 2125 3993 
Q 2075 4034 2000 4034 
Q 1919 4034 1784 3984 
L 1744 4094 
L 2597 4444 
L 2738 4444 
L 2738 1134 
Q 2738 631 2761 520 
Q 2784 409 2836 365 
Q 2888 322 2956 322 
Q 3041 322 3181 375 
L 3216 266 
L 2366 -88 
L 2222 -88 
L 2222 322 
z
M 2222 541 
L 2222 2016 
Q 2203 2228 2109 2403 
Q 2016 2578 1861 2667 
Q 1706 2756 1559 2756 
Q 1284 2756 1069 2509 
Q 784 2184 784 1559 
Q 784 928 1059 592 
Q 1334 256 1672 256 
Q 1956 256 2222 541 
z
" transform="scale(0.015625)"/>
      </defs>
      <use xlink:href="#STIXGeneral-Italic-3c9" transform="translate(0 0.5625)"/>
      <use xlink:href="#TimesNewRomanPSMT-20" transform="translate(68.599991 0.5625)"/>
      <use xlink:href="#TimesNewRomanPSMT-5b" transform="translate(93.599991 0.5625)"/>
      <use xlink:href="#TimesNewRomanPSMT-72" transform="translate(126.900772 0.5625)"/>
      <use xlink:href="#TimesNewRomanPSMT-61" transform="translate(160.201553 0.5625)"/>
      <use xlink:href="#TimesNewRomanPSMT-64" transform="translate(204.586319 0.5625)"/>
      <use xlink:href="#TimesNewRomanPSMT-2f" transform="translate(254.586319 0.5625)"/>
      <use xlink:href="#TimesNewRomanPSMT-73" transform="translate(282.369522 0.5625)"/>
      <use xlink:href="#TimesNewRomanPSMT-5d" transform="translate(321.285538 0.5625)"/>
     </g>
    </g>
   </g>
   <g id="line2d_44">
    <path d="M 304.426193 85.78625 
L 305.483408 85.78625 
L 305.741905 85.963667 
L 306.004688 85.875852 
L 306.533558 85.922091 
L 310.741144 85.315866 
L 312.58626 85.445109 
L 314.163084 85.429183 
L 315.215135 85.463565 
L 317.056828 85.7477 
L 317.320011 85.74909 
L 317.850256 87.561564 
L 318.373897 87.605819 
L 318.899485 87.454101 
L 319.42499 86.600058 
L 319.951425 86.446405 
L 320.215553 86.399322 
L 320.477886 85.850847 
L 320.741965 85.692878 
L 321.00698 85.673628 
L 321.26808 85.330552 
L 321.530426 84.013913 
L 321.793443 83.582277 
L 322.585891 83.604008 
L 322.848445 83.483298 
L 323.372798 83.665578 
L 323.900891 83.968963 
L 324.953013 84.606246 
L 325.217336 83.468464 
L 326.005362 83.648015 
L 326.269665 82.696927 
L 326.533182 82.32701 
L 326.797504 82.266134 
L 327.059059 82.33083 
L 327.31988 83.038664 
L 327.58411 84.148315 
L 328.111322 84.564373 
L 328.372641 85.004642 
L 329.164706 85.345138 
L 329.426022 81.853004 
L 329.687773 79.868471 
L 329.954279 79.691252 
L 330.217617 80.115893 
L 330.47742 79.614699 
L 330.741021 78.572372 
L 331.269443 78.933259 
L 331.532542 81.24926 
L 332.322949 82.167801 
L 332.585182 81.767818 
L 332.848749 81.671419 
L 333.373443 82.200099 
L 333.635439 82.069814 
L 333.898071 83.626482 
L 334.163247 83.794969 
L 334.690836 84.377976 
L 335.214351 87.200875 
L 335.740622 87.470077 
L 336.271469 89.135001 
L 336.793255 89.35588 
L 337.847244 89.455503 
L 338.375544 88.127255 
L 339.165202 87.897347 
L 339.427869 87.637472 
L 339.955381 87.530605 
L 340.216055 90.70566 
L 340.740372 90.898755 
L 341.53044 90.469451 
L 342.05984 90.292232 
L 342.323343 90.829793 
L 342.586677 91.786685 
L 342.845727 91.857136 
L 343.113458 91.681802 
L 343.371927 92.367062 
L 343.637805 91.939147 
L 343.89826 91.914241 
L 344.164733 91.574786 
L 344.425165 90.821606 
L 345.217462 89.717114 
L 346.003961 89.210165 
L 346.270619 89.10439 
L 346.532869 77.771266 
L 346.795975 60.676744 
L 347.059298 58.223265 
L 349.427974 58.223265 
L 349.688387 63.953208 
L 349.951088 58.223265 
L 350.477242 58.223265 
L 351.002849 57.338709 
L 351.269266 57.402065 
L 351.532566 56.851804 
L 351.792518 55.545534 
L 352.322241 58.223265 
L 353.897075 58.223265 
L 354.163831 54.899221 
L 354.686659 53.630658 
L 355.21322 55.239221 
L 355.480326 58.223265 
L 355.740204 56.286857 
L 356.266264 58.223265 
L 357.584644 52.90923 
L 357.845363 52.921088 
L 358.107578 52.530582 
L 358.637413 52.250117 
L 359.161704 55.480739 
L 359.423862 55.408006 
L 359.686447 55.464714 
L 359.951213 54.825595 
L 360.212661 54.784813 
L 360.478905 54.865385 
L 360.738597 56.912977 
L 361.005312 57.874434 
L 361.267432 57.848139 
L 361.53099 58.223265 
L 364.423497 58.223265 
L 364.690078 57.701085 
L 364.949572 57.759083 
L 365.215752 58.223265 
L 365.475365 57.921021 
L 365.740937 57.949747 
L 366.003543 58.223265 
L 368.633435 58.223265 
L 368.899113 59.791642 
L 369.422717 63.832003 
L 371.001458 73.266524 
L 371.267212 72.838658 
L 372.053672 77.654277 
L 372.316907 78.034167 
L 372.580235 78.110571 
L 373.106562 78.629576 
L 373.896139 79.703903 
L 374.161807 79.695023 
L 374.422282 79.554617 
L 374.685782 79.775793 
L 374.948753 81.007593 
L 375.476132 81.475496 
L 375.73809 81.300808 
L 376.266883 81.454659 
L 377.053518 82.622209 
L 377.582558 82.579046 
L 378.108842 82.855045 
L 378.372628 82.708785 
L 379.161215 83.081976 
L 379.684948 83.900596 
L 379.95148 83.992281 
L 380.477409 84.377033 
L 381.001043 84.203833 
L 381.527477 84.479584 
L 382.053513 84.42099 
L 382.581224 84.619146 
L 383.106398 86.36107 
L 383.636004 86.52142 
L 384.158627 85.234054 
L 384.421628 85.274488 
L 385.212598 85.682459 
L 386.003607 85.937223 
L 386.266508 84.475218 
L 386.529684 84.000617 
L 387.316268 84.090119 
L 387.579401 83.787974 
L 387.844765 83.758305 
L 388.108792 83.568187 
L 388.372905 83.985088 
L 388.632543 84.069281 
L 389.162091 85.6644 
L 389.688382 85.824303 
L 390.211442 85.162462 
L 390.740589 85.549892 
L 391.001219 85.689554 
L 391.267822 85.676555 
L 391.79433 85.863151 
L 392.05632 84.829159 
L 392.580252 84.907052 
L 392.84566 85.005832 
L 393.369612 84.470306 
L 393.895685 84.746603 
L 394.161617 84.754392 
L 394.422628 84.377479 
L 394.949366 84.542146 
L 395.216026 84.779447 
L 395.741766 86.438765 
L 396.268684 86.579914 
L 396.791037 87.332648 
L 397.316809 87.427459 
L 397.583646 89.123243 
L 398.36934 89.276895 
L 398.895225 87.329374 
L 399.688483 87.273509 
L 399.951433 86.097971 
L 400.474996 85.93122 
L 400.737419 85.749139 
L 401.004673 110.271174 
L 401.266112 113.349235 
L 402.319857 113.349235 
L 402.583497 111.855725 
L 402.846954 113.349235 
L 406.526171 113.349235 
L 406.789835 103.784132 
L 407.056269 113.349235 
L 409.159237 113.349235 
L 409.42089 113.959281 
L 409.686327 113.349235 
L 410.736414 113.349235 
L 411.526057 115.970804 
L 411.792839 115.972242 
L 412.056107 115.502007 
L 412.315527 113.349235 
L 412.578804 114.12107 
L 412.845481 113.349235 
L 413.109291 113.349235 
L 413.371185 115.254139 
L 413.632059 115.324987 
L 413.894181 115.718768 
L 414.160687 113.709329 
L 414.421068 114.257903 
L 414.683677 114.322202 
L 415.210804 129.347749 
L 415.472972 130.697728 
L 415.737452 127.76042 
L 415.99878 128.018012 
L 416.263672 128.685113 
L 416.5279 126.942594 
L 416.789755 128.477531 
L 417.054066 128.103794 
L 417.315164 125.787248 
L 418.10452 122.965093 
L 418.367723 123.361305 
L 418.893822 115.134521 
L 419.422948 113.839415 
L 419.683256 114.321706 
L 420.209785 113.349235 
L 420.474536 113.87985 
L 420.738478 113.349235 
L 421.00181 113.447767 
L 421.264873 113.804289 
L 421.525409 114.518224 
L 421.78852 113.349235 
L 424.156872 113.349235 
L 424.419621 112.742265 
L 424.683806 111.469435 
L 425.209667 103.135487 
L 425.47241 101.162662 
L 425.736118 98.244406 
L 426.261889 95.01691 
L 426.524711 95.632016 
L 427.054217 92.754988 
L 427.317193 92.179871 
L 427.577642 92.072805 
L 428.107728 90.83009 
L 428.366724 89.840304 
L 428.629947 89.637832 
L 428.896023 90.76728 
L 429.159988 90.324084 
L 429.42194 90.227338 
L 429.682813 91.004828 
L 429.945908 91.419546 
L 430.211374 90.715285 
L 430.472173 90.479126 
L 430.735232 89.815746 
L 431.000134 89.936703 
L 431.263835 89.663879 
L 431.525818 89.711359 
L 432.052693 89.166605 
L 432.316682 89.013101 
L 432.577539 88.687787 
L 432.843346 88.745388 
L 433.106353 88.068017 
L 433.367172 87.823721 
L 433.892811 86.767701 
L 434.421894 86.032332 
L 434.682292 85.756383 
L 434.945259 84.968672 
L 435.73818 84.398367 
L 436.261298 82.653466 
L 437.050489 82.367742 
L 437.316579 81.570208 
L 437.577795 81.179602 
L 437.840008 81.058992 
L 438.103221 81.239188 
L 438.367576 82.289304 
L 438.630251 82.804638 
L 439.419323 82.777201 
L 439.685104 81.79317 
L 439.946033 81.609403 
L 440.474914 81.654104 
L 440.999689 80.552192 
L 441.263616 80.365448 
L 441.786998 80.698403 
L 442.054252 82.680852 
L 443.102917 83.060345 
L 443.632259 83.321112 
L 444.156104 83.469506 
L 444.421155 84.553805 
L 445.209994 84.672133 
L 445.736534 84.142808 
L 447.576065 84.172527 
L 448.102264 83.511826 
L 448.89183 83.596764 
L 449.156829 85.045374 
L 449.41906 85.437915 
L 450.207015 85.715055 
L 450.735064 85.816613 
L 450.999571 85.835417 
L 451.525268 86.312995 
L 452.313683 86.283773 
L 452.840316 88.958527 
L 454.417764 88.162481 
L 454.682242 88.13688 
L 454.944758 88.75025 
L 455.207755 88.819609 
L 455.733049 88.789196 
L 455.995864 88.805817 
L 456.523162 89.760427 
L 457.049802 89.612579 
L 457.312438 88.947165 
L 457.574682 88.617683 
L 458.10135 88.480403 
L 458.365315 90.380296 
L 458.62809 93.141625 
L 459.154286 93.155566 
L 459.679568 86.642576 
L 459.943341 86.396196 
L 460.207031 86.349461 
L 460.732298 91.998881 
L 461.259527 92.011136 
L 461.521674 92.001908 
L 461.784583 93.914948 
L 462.048148 94.734164 
L 462.310857 94.852045 
L 462.837971 94.806301 
L 463.363732 94.846637 
L 463.628871 94.764428 
L 464.153017 94.377047 
L 464.680154 93.983464 
L 464.942724 93.768886 
L 465.206544 93.744576 
L 465.732498 92.707409 
L 466.257904 92.306533 
L 466.521128 90.814809 
L 467.574088 90.02814 
L 468.100303 87.616486 
L 468.626389 87.341876 
L 468.890342 87.271673 
L 469.152574 86.963773 
L 469.416021 86.324753 
L 469.679102 86.070237 
L 470.204974 85.971705 
L 471.258041 85.922587 
L 471.522533 84.856893 
L 471.783989 84.633633 
L 473.362557 84.446492 
L 473.362557 84.446492 
" clip-path="url(#pa65f550245)" style="fill: none; stroke: #ff0000; stroke-opacity: 0.8; stroke-linecap: square"/>
   </g>
   <g id="line2d_45">
    <path d="M 304.426193 85.78625 
L 305.483408 85.78625 
L 305.741905 84.460929 
L 306.004688 85.78625 
L 306.270394 83.135608 
L 306.533558 85.78625 
L 306.796678 85.78625 
L 307.323156 88.437041 
L 307.586849 84.46083 
L 307.849686 85.78625 
L 308.114315 85.78625 
L 308.373104 87.111521 
L 308.63944 87.111571 
L 308.901931 84.460681 
L 309.165107 87.111769 
L 309.425657 87.11167 
L 309.688986 88.436991 
L 309.951911 86.448786 
L 310.217765 85.78625 
L 310.478749 88.436942 
L 310.741144 85.78625 
L 311.007583 85.78625 
L 311.267591 87.111521 
L 311.530843 85.78625 
L 311.796561 85.78625 
L 312.321088 88.43709 
L 312.58626 85.909043 
L 312.849429 85.78625 
L 313.109723 84.460979 
L 313.375363 87.111819 
L 313.639314 84.460979 
L 313.899153 84.460979 
L 314.163084 84.313379 
L 314.42581 88.43709 
L 314.689046 84.460681 
L 314.956766 88.43709 
L 315.215135 83.135707 
L 315.741197 85.78625 
L 316.004928 84.46083 
L 316.267501 87.111521 
L 316.532097 81.810138 
L 316.794085 83.135558 
L 317.056828 87.111521 
L 317.320011 87.11167 
L 317.58343 83.135509 
L 317.850256 87.111621 
L 318.111147 87.111521 
L 318.373897 89.762312 
L 318.899485 84.46083 
L 319.162354 84.460979 
L 319.42499 87.111621 
L 319.690773 87.111571 
L 319.951425 85.78625 
L 320.215553 85.78625 
L 320.477886 87.774306 
L 320.741965 87.111571 
L 321.00698 85.78625 
L 321.26808 87.111571 
L 322.056655 83.135608 
L 323.111689 83.13541 
L 323.372798 84.460929 
L 323.638485 83.135707 
L 323.900891 83.798293 
L 324.161765 85.78625 
L 324.424924 79.159645 
L 324.689279 82.472774 
L 324.953013 83.13541 
L 325.217336 83.135707 
L 325.480113 81.810138 
L 325.743697 86.031538 
L 326.005362 84.460681 
L 326.269665 85.78625 
L 326.533182 83.798045 
L 326.797504 83.13541 
L 327.059059 88.43709 
L 327.31988 84.460979 
L 327.58411 85.78625 
L 327.845577 84.460979 
L 328.111322 77.834076 
L 328.372641 83.135558 
L 328.635468 81.810486 
L 328.898161 84.460979 
L 329.164706 84.46083 
L 329.426022 85.78625 
L 329.687773 84.46083 
L 329.954279 85.78625 
L 330.47742 77.834225 
L 330.741021 80.484718 
L 331.003331 77.834126 
L 332.056012 83.13541 
L 332.322949 81.810138 
L 332.585182 78.496811 
L 332.848749 81.810138 
L 333.109149 79.159447 
L 333.635439 81.810188 
L 334.163247 81.810188 
L 334.424652 84.460879 
L 334.690836 84.460929 
L 334.954283 81.810188 
L 335.481813 83.135558 
L 336.004229 83.135509 
L 336.271469 88.196118 
L 336.532637 87.111819 
L 336.793255 88.43709 
L 337.057972 87.11167 
L 337.32016 87.11167 
L 337.583052 88.436942 
L 337.847244 88.436942 
L 338.11272 89.762362 
L 338.375544 89.762362 
L 338.901995 88.436793 
L 339.165202 87.111521 
L 339.427869 88.436445 
L 339.691425 86.991011 
L 339.955381 88.436793 
L 340.477251 85.78625 
L 340.740372 87.111819 
L 341.007676 87.111521 
L 341.26919 91.087584 
L 341.53044 92.413004 
L 341.796432 87.111819 
L 342.05984 91.087584 
L 342.323343 89.762362 
L 342.586677 91.087782 
L 342.845727 88.436942 
L 343.371927 91.810599 
L 343.637805 92.413004 
L 344.164733 89.762263 
L 344.425165 89.762263 
L 344.691541 90.204218 
L 344.955244 89.762213 
L 345.217462 88.437041 
L 345.480681 91.087683 
L 346.003961 88.436991 
L 346.270619 89.762263 
L 346.532869 89.762411 
L 346.795975 85.78625 
L 347.059298 88.436942 
L 347.323208 87.111571 
L 347.845312 81.810237 
L 348.11245 83.135658 
L 348.375437 81.810188 
L 348.634535 75.183434 
L 348.901204 79.159347 
L 349.164252 76.508755 
L 349.427974 77.834225 
L 349.688387 75.183236 
L 349.951088 74.520749 
L 350.215343 72.532693 
L 350.477242 72.532544 
L 350.742892 68.556581 
L 351.002849 60.604407 
L 351.269266 60.60411 
L 351.532566 64.58037 
L 351.792518 61.929828 
L 352.585776 57.953914 
L 352.844742 54.861069 
L 353.109089 53.977455 
L 353.374359 56.628296 
L 353.634089 56.628643 
L 353.897075 59.279483 
L 354.163831 56.628296 
L 354.423511 57.953914 
L 354.686659 58.074524 
L 354.953199 59.278838 
L 355.21322 57.29108 
L 355.480326 59.278838 
L 355.740204 59.278838 
L 356.002471 57.953716 
L 356.266264 59.279136 
L 356.529262 55.303074 
L 357.055111 55.303074 
L 357.321473 63.255248 
L 357.584644 59.279136 
L 357.845363 57.953716 
L 358.107578 57.953914 
L 358.897638 53.977802 
L 359.161704 56.628643 
L 359.423862 52.652233 
L 359.686447 51.326962 
L 359.951213 55.303074 
L 360.212661 53.977654 
L 360.478905 53.977951 
L 360.738597 56.628296 
L 361.005312 53.977703 
L 361.267432 59.279086 
L 361.53099 60.604159 
L 361.794049 56.628643 
L 362.057697 59.278987 
L 362.31757 60.604556 
L 362.581589 60.604556 
L 362.846343 59.279136 
L 363.108314 60.604457 
L 363.373353 57.953765 
L 363.633505 60.604457 
L 363.898743 59.941672 
L 364.162476 61.929828 
L 364.423497 59.278987 
L 364.690078 61.929828 
L 364.949572 60.604358 
L 365.215752 57.953666 
L 365.475365 59.278838 
L 365.740937 55.303074 
L 366.003543 56.628494 
L 366.264918 59.279235 
L 366.793933 56.628494 
L 367.057615 56.628643 
L 367.320157 60.604705 
L 367.580509 60.604407 
L 367.844312 61.929828 
L 368.375556 56.628147 
L 368.633435 59.279136 
L 368.899113 56.628296 
L 369.16095 60.604556 
L 369.422717 58.074276 
L 369.687381 57.953716 
L 369.950529 61.929828 
L 370.213436 68.556581 
L 370.478069 69.881853 
L 370.739135 69.882001 
L 371.001458 65.905939 
L 371.267212 65.660304 
L 371.531644 68.556284 
L 371.790711 73.858212 
L 372.053672 74.005366 
L 372.316907 71.207422 
L 372.580235 76.508805 
L 372.846044 77.834126 
L 373.106562 76.508656 
L 373.372893 76.508755 
L 373.63267 79.159347 
L 373.896139 79.159496 
L 374.161807 83.135509 
L 374.422282 81.810287 
L 374.685782 79.159447 
L 375.212646 79.159397 
L 375.476132 77.834126 
L 375.73809 84.46083 
L 376.0014 83.135509 
L 376.266883 84.46083 
L 376.531072 80.484768 
L 376.790691 81.810237 
L 377.053518 79.159447 
L 377.319986 84.460979 
L 377.582558 83.135608 
L 377.843133 80.96686 
L 378.108842 84.460979 
L 378.372628 81.810138 
L 378.635062 83.135509 
L 378.898649 80.484817 
L 379.161215 80.484817 
L 379.684948 85.78625 
L 379.95148 81.810287 
L 380.213841 83.135707 
L 380.477409 81.810138 
L 380.74047 87.111373 
L 381.001043 87.111521 
L 381.264719 84.460681 
L 381.527477 84.460681 
L 381.790241 83.13541 
L 382.053513 85.78625 
L 382.31978 83.135707 
L 382.842834 85.78625 
L 383.106398 81.810138 
L 383.371657 85.78625 
L 383.636004 85.78625 
L 384.158627 88.436942 
L 384.421628 88.436942 
L 384.687473 84.460731 
L 384.948247 87.11167 
L 385.212598 87.111521 
L 385.477008 84.460731 
L 385.738758 87.111819 
L 386.003607 85.78625 
L 386.529684 85.78625 
L 386.791266 84.46083 
L 387.055725 85.78625 
L 387.316268 83.798244 
L 387.579401 87.111621 
L 387.844765 84.460929 
L 388.108792 88.436991 
L 388.372905 85.78625 
L 388.632543 84.460929 
L 388.895964 81.810237 
L 389.162091 84.460929 
L 389.425193 83.135558 
L 389.688382 84.460929 
L 389.952059 86.448935 
L 390.211442 84.460929 
L 390.740589 84.460929 
L 391.001219 85.78625 
L 391.267822 84.46083 
L 391.531213 85.78625 
L 391.79433 85.78625 
L 392.05632 83.135509 
L 392.580252 85.78625 
L 392.84566 81.810138 
L 393.110609 85.78625 
L 393.632709 85.78625 
L 393.895685 84.460681 
L 394.161617 87.111521 
L 394.422628 86.991308 
L 394.685957 84.460979 
L 394.949366 88.436793 
L 395.216026 83.13541 
L 395.477113 85.78625 
L 395.741766 84.460681 
L 396.268684 84.460979 
L 396.527238 83.13541 
L 396.791037 84.21569 
L 397.055861 87.111521 
L 397.316809 87.111373 
L 397.583646 88.43709 
L 397.847134 87.111521 
L 398.109535 87.111819 
L 398.36934 89.762213 
L 398.895225 87.111373 
L 399.160341 88.436991 
L 399.426084 84.460929 
L 399.688483 85.78625 
L 399.951433 85.78625 
L 400.212919 87.111621 
L 400.474996 87.111571 
L 401.004673 84.460929 
L 401.266112 86.448935 
L 401.530295 89.762312 
L 401.792411 87.111571 
L 402.056357 92.413004 
L 402.583497 89.762362 
L 402.846954 97.714387 
L 403.105409 88.436991 
L 403.372141 93.738474 
L 403.634178 92.413153 
L 403.895993 92.413053 
L 404.162572 101.690499 
L 404.421217 105.666511 
L 405.210898 100.365078 
L 405.473658 103.016117 
L 406.264522 113.618586 
L 406.526171 114.944254 
L 406.789835 114.944105 
L 407.056269 113.618933 
L 407.319616 111.630629 
L 407.578711 112.293513 
L 407.844867 110.968093 
L 408.108378 113.618586 
L 408.632418 113.618784 
L 408.897512 106.991981 
L 409.159237 110.968192 
L 409.42089 106.991981 
L 409.686327 112.293364 
L 409.947214 112.293513 
L 410.213001 110.967944 
L 410.478578 110.967944 
L 410.736414 103.015919 
L 411.26447 116.269277 
L 411.526057 112.293364 
L 411.792839 104.341141 
L 412.056107 109.642524 
L 412.315527 110.967944 
L 412.578804 114.944006 
L 412.845481 113.618784 
L 413.109291 114.944006 
L 413.371185 112.293364 
L 413.632059 118.920118 
L 413.894181 113.618586 
L 414.160687 114.944204 
L 414.683677 112.293314 
L 414.949563 116.269426 
L 415.210804 112.956099 
L 415.472972 112.293364 
L 415.99878 116.932062 
L 416.263672 113.766037 
L 416.5279 114.943907 
L 416.789755 114.944155 
L 417.315164 120.245786 
L 417.580924 120.245439 
L 417.843654 125.546971 
L 418.10452 122.896478 
L 418.367723 126.872292 
L 418.634079 128.197712 
L 418.893822 122.896081 
L 419.158882 125.546921 
L 419.683256 120.245389 
L 419.946614 120.245389 
L 420.209785 118.920118 
L 420.738478 113.618933 
L 421.00181 117.594698 
L 421.264873 115.606642 
L 421.525409 112.293017 
L 421.78852 113.618933 
L 422.317359 108.317252 
L 422.580448 106.991683 
L 422.840675 112.293364 
L 423.106988 109.642524 
L 423.369739 108.31755 
L 423.630323 112.293364 
L 423.89642 112.956 
L 424.156872 116.269129 
L 424.683806 109.642821 
L 424.949047 112.293662 
L 425.209667 113.618933 
L 425.999279 105.666412 
L 426.261889 106.99213 
L 426.524711 104.341289 
L 426.788037 103.015919 
L 427.054217 100.365078 
L 427.317193 100.365227 
L 427.577642 93.738275 
L 428.107728 97.714288 
L 428.366724 93.738374 
L 428.629947 96.389066 
L 428.896023 87.111769 
L 429.42194 87.11167 
L 429.682813 93.738325 
L 429.945908 87.87894 
L 430.472173 93.738474 
L 430.735232 89.762362 
L 431.263835 89.762263 
L 431.525818 92.413004 
L 431.78764 88.436942 
L 432.316682 91.087732 
L 432.577539 88.436942 
L 433.106353 88.436942 
L 433.367172 89.762312 
L 433.629806 89.762263 
L 433.892811 88.436991 
L 434.157135 89.762362 
L 434.421894 87.111571 
L 434.682292 88.436991 
L 434.945259 84.461127 
L 435.20889 85.78625 
L 435.474432 85.78625 
L 435.73818 83.135707 
L 436.000703 85.78625 
L 436.261298 90.00765 
L 436.527505 84.46083 
L 436.789337 83.135558 
L 437.050489 85.78625 
L 437.577795 80.484569 
L 437.840008 83.135707 
L 438.367576 83.13541 
L 438.630251 81.810138 
L 438.893197 81.810138 
L 439.155865 83.135707 
L 439.419323 83.13541 
L 439.685104 84.460979 
L 439.946033 83.135558 
L 440.211654 80.484569 
L 440.474914 83.135558 
L 440.737345 83.135707 
L 440.999689 81.810138 
L 441.263616 83.135558 
L 441.524642 83.13541 
L 441.786998 81.810089 
L 442.054252 81.147453 
L 442.313295 76.508755 
L 442.577461 81.810138 
L 442.840488 83.135509 
L 443.368754 83.135509 
L 443.632259 80.484768 
L 443.893295 81.810138 
L 444.156104 80.484817 
L 444.421155 81.810138 
L 444.682087 82.472873 
L 445.209994 87.111571 
L 445.471011 80.484867 
L 445.736534 83.135558 
L 446.000979 87.111571 
L 446.260477 87.111571 
L 446.52347 85.123614 
L 446.789526 81.810188 
L 447.049621 87.111571 
L 447.313026 83.135658 
L 447.576065 84.46083 
L 448.3681 84.46083 
L 448.630632 83.135558 
L 449.68272 83.135558 
L 449.945531 85.246358 
L 450.207015 84.460979 
L 450.472602 85.78625 
L 450.735064 85.78625 
L 450.999571 82.840855 
L 451.25992 85.78625 
L 451.525268 84.460681 
L 451.786332 88.43709 
L 452.049772 87.111521 
L 452.313683 83.13541 
L 452.576472 85.123565 
L 452.840316 89.762511 
L 453.102871 87.111819 
L 453.365279 87.774207 
L 453.628394 87.11167 
L 453.890842 84.461127 
L 454.154532 88.436942 
L 454.417764 88.436793 
L 454.682242 87.11167 
L 454.944758 87.111571 
L 455.207755 88.43709 
L 455.471144 91.087732 
L 455.733049 88.437041 
L 455.995864 89.762213 
L 456.260675 87.111521 
L 456.523162 88.436892 
L 456.78638 88.436942 
L 457.312438 91.087732 
L 457.574682 85.78625 
L 457.837915 85.78625 
L 458.10135 87.111521 
L 458.365315 91.087683 
L 458.62809 89.099726 
L 458.891556 88.43709 
L 459.154286 92.413053 
L 459.417926 93.738374 
L 459.679568 89.762362 
L 459.943341 93.738424 
L 460.207031 88.436942 
L 460.469375 92.413103 
L 460.732298 87.111571 
L 460.996393 90.20397 
L 461.259527 90.424948 
L 461.521674 87.11167 
L 461.784583 88.436793 
L 462.048148 95.063646 
L 462.310857 87.111571 
L 462.574993 88.43709 
L 462.837971 92.412855 
L 463.100304 93.738424 
L 463.363732 93.738275 
L 463.628871 89.762213 
L 463.890205 97.714536 
L 464.153017 96.389264 
L 464.41602 97.714387 
L 464.680154 94.40106 
L 464.942724 97.714536 
L 465.206544 90.008097 
L 465.469217 89.762511 
L 465.732498 93.738424 
L 465.994637 92.413202 
L 466.257904 92.412855 
L 466.521128 94.622037 
L 467.047185 89.762362 
L 467.311415 91.750467 
L 467.574088 92.413004 
L 467.837546 89.762659 
L 468.100303 88.436942 
L 468.364476 91.087435 
L 468.626389 88.436942 
L 468.890342 87.111521 
L 469.152574 89.400879 
L 469.416021 85.78625 
L 469.679102 87.111521 
L 469.943707 85.78625 
L 470.204974 85.78625 
L 470.468726 87.111521 
L 470.731987 85.78625 
L 470.995103 85.78625 
L 471.258041 87.111819 
L 471.522533 85.78625 
L 471.783989 87.111819 
L 472.047699 83.135707 
L 472.310692 81.810138 
L 472.573336 83.135707 
L 472.836331 85.78625 
L 473.362557 85.78625 
L 473.362557 85.78625 
" clip-path="url(#pa65f550245)" style="fill: none; stroke: #0000ff; stroke-linecap: square"/>
   </g>
   <g id="line2d_46">
    <path d="M 295.979375 36.172917 
L 481.809375 36.172917 
" clip-path="url(#pa65f550245)" style="fill: none; stroke-dasharray: 7.4,3.2; stroke-dashoffset: 0; stroke: #000000; stroke-opacity: 0.7; stroke-width: 2"/>
   </g>
   <g id="line2d_47">
    <path d="M 295.979375 135.399583 
L 481.809375 135.399583 
" clip-path="url(#pa65f550245)" style="fill: none; stroke-dasharray: 7.4,3.2; stroke-dashoffset: 0; stroke: #000000; stroke-opacity: 0.7; stroke-width: 2"/>
   </g>
   <g id="patch_8">
    <path d="M 295.979375 160.20625 
L 295.979375 11.36625 
" style="fill: none; stroke: #000000; stroke-width: 0.8; stroke-linejoin: miter; stroke-linecap: square"/>
   </g>
   <g id="patch_9">
    <path d="M 481.809375 160.20625 
L 481.809375 11.36625 
" style="fill: none; stroke: #000000; stroke-width: 0.8; stroke-linejoin: miter; stroke-linecap: square"/>
   </g>
   <g id="patch_10">
    <path d="M 295.979375 160.20625 
L 481.809375 160.20625 
" style="fill: none; stroke: #000000; stroke-width: 0.8; stroke-linejoin: miter; stroke-linecap: square"/>
   </g>
   <g id="patch_11">
    <path d="M 295.979375 11.36625 
L 481.809375 11.36625 
" style="fill: none; stroke: #000000; stroke-width: 0.8; stroke-linejoin: miter; stroke-linecap: square"/>
   </g>
  </g>
 </g>
 <defs>
  <clipPath id="pf1ac163ace">
   <rect x="50.099375" y="11.36625" width="185.83" height="148.84"/>
  </clipPath>
  <clipPath id="pa65f550245">
   <rect x="295.979375" y="11.36625" width="185.83" height="148.84"/>
  </clipPath>
 </defs>
</svg>
