<?xml version="1.0" encoding="utf-8" standalone="no"?>
<!DOCTYPE svg PUBLIC "-//W3C//DTD SVG 1.1//EN"
  "http://www.w3.org/Graphics/SVG/1.1/DTD/svg11.dtd">
<svg xmlns:xlink="http://www.w3.org/1999/xlink" width="488.900116pt" height="200.205pt" viewBox="0 0 488.900116 200.205" xmlns="http://www.w3.org/2000/svg" version="1.1">
 <metadata>
  <rdf:RDF xmlns:dc="http://purl.org/dc/elements/1.1/" xmlns:cc="http://creativecommons.org/ns#" xmlns:rdf="http://www.w3.org/1999/02/22-rdf-syntax-ns#">
   <cc:Work>
    <dc:type rdf:resource="http://purl.org/dc/dcmitype/StillImage"/>
    <dc:date>2026-01-18T23:30:35.996982</dc:date>
    <dc:format>image/svg+xml</dc:format>
    <dc:creator>
     <cc:Agent>
      <dc:title>Matplotlib v3.6.3, https://matplotlib.org/</dc:title>
     </cc:Agent>
    </dc:creator>
   </cc:Work>
  </rdf:RDF>
 </metadata>
 <defs>
  <style type="text/css">*{stroke-linejoin: round; stroke-linecap: butt}</style>
 </defs>
 <g id="figure_1">
  <g id="patch_1">
   <path d="M 0 200.205 
L 488.900116 200.205 
L 488.900116 -0 
L 0 -0 
z
" style="fill: #ffffff"/>
  </g>
  <g id="axes_1">
   <g id="patch_2">
    <path d="M 50.099375 160.20625 
L 232.689105 160.20625 
L 232.689105 11.36625 
L 50.099375 11.36625 
z
" style="fill: #ffffff"/>
   </g>
   <g id="matplotlib.axis_1">
    <g id="xtick_1">
     <g id="line2d_1">
      <path d="M 58.398908 160.20625 
L 58.398908 11.36625 
" clip-path="url(#p124f301558)" style="fill: none; stroke: #b0b0b0; stroke-opacity: 0.3; stroke-width: 0.8; stroke-linecap: square"/>
     </g>
     <g id="line2d_2">
      <defs>
       <path id="m1f3fda6512" d="M 0 0 
L 0 3.5 
" style="stroke: #000000; stroke-width: 0.8"/>
      </defs>
      <g>
       <use xlink:href="#m1f3fda6512" x="58.398908" y="160.20625" style="stroke: #000000; stroke-width: 0.8"/>
      </g>
     </g>
     <g id="text_1">
      <!-- 0 -->
      <g transform="translate(55.398908 175.53875) scale(0.12 -0.12)">
       <defs>
        <path id="TimesNewRomanPSMT-30" d="M 231 2094 
Q 231 2819 450 3342 
Q 669 3866 1031 4122 
Q 1313 4325 1613 4325 
Q 2100 4325 2488 3828 
Q 2972 3213 2972 2159 
Q 2972 1422 2759 906 
Q 2547 391 2217 158 
Q 1888 -75 1581 -75 
Q 975 -75 572 641 
Q 231 1244 231 2094 
z
M 844 2016 
Q 844 1141 1059 588 
Q 1238 122 1591 122 
Q 1759 122 1940 273 
Q 2122 425 2216 781 
Q 2359 1319 2359 2297 
Q 2359 3022 2209 3506 
Q 2097 3866 1919 4016 
Q 1791 4119 1609 4119 
Q 1397 4119 1231 3928 
Q 1006 3669 925 3112 
Q 844 2556 844 2016 
z
" transform="scale(0.015625)"/>
       </defs>
       <use xlink:href="#TimesNewRomanPSMT-30"/>
      </g>
     </g>
    </g>
    <g id="xtick_2">
     <g id="line2d_3">
      <path d="M 101.25421 160.20625 
L 101.25421 11.36625 
" clip-path="url(#p124f301558)" style="fill: none; stroke: #b0b0b0; stroke-opacity: 0.3; stroke-width: 0.8; stroke-linecap: square"/>
     </g>
     <g id="line2d_4">
      <g>
       <use xlink:href="#m1f3fda6512" x="101.25421" y="160.20625" style="stroke: #000000; stroke-width: 0.8"/>
      </g>
     </g>
     <g id="text_2">
      <!-- 5 -->
      <g transform="translate(98.25421 175.53875) scale(0.12 -0.12)">
       <defs>
        <path id="TimesNewRomanPSMT-35" d="M 2778 4238 
L 2534 3706 
L 1259 3706 
L 981 3138 
Q 1809 3016 2294 2522 
Q 2709 2097 2709 1522 
Q 2709 1188 2573 903 
Q 2438 619 2231 419 
Q 2025 219 1772 97 
Q 1413 -75 1034 -75 
Q 653 -75 479 54 
Q 306 184 306 341 
Q 306 428 378 495 
Q 450 563 559 563 
Q 641 563 702 538 
Q 763 513 909 409 
Q 1144 247 1384 247 
Q 1750 247 2026 523 
Q 2303 800 2303 1197 
Q 2303 1581 2056 1914 
Q 1809 2247 1375 2428 
Q 1034 2569 447 2591 
L 1259 4238 
L 2778 4238 
z
" transform="scale(0.015625)"/>
       </defs>
       <use xlink:href="#TimesNewRomanPSMT-35"/>
      </g>
     </g>
    </g>
    <g id="xtick_3">
     <g id="line2d_5">
      <path d="M 144.109512 160.20625 
L 144.109512 11.36625 
" clip-path="url(#p124f301558)" style="fill: none; stroke: #b0b0b0; stroke-opacity: 0.3; stroke-width: 0.8; stroke-linecap: square"/>
     </g>
     <g id="line2d_6">
      <g>
       <use xlink:href="#m1f3fda6512" x="144.109512" y="160.20625" style="stroke: #000000; stroke-width: 0.8"/>
      </g>
     </g>
     <g id="text_3">
      <!-- 10 -->
      <g transform="translate(138.109512 175.53875) scale(0.12 -0.12)">
       <defs>
        <path id="TimesNewRomanPSMT-31" d="M 750 3822 
L 1781 4325 
L 1884 4325 
L 1884 747 
Q 1884 391 1914 303 
Q 1944 216 2037 169 
Q 2131 122 2419 116 
L 2419 0 
L 825 0 
L 825 116 
Q 1125 122 1212 167 
Q 1300 213 1334 289 
Q 1369 366 1369 747 
L 1369 3034 
Q 1369 3497 1338 3628 
Q 1316 3728 1258 3775 
Q 1200 3822 1119 3822 
Q 1003 3822 797 3725 
L 750 3822 
z
" transform="scale(0.015625)"/>
       </defs>
       <use xlink:href="#TimesNewRomanPSMT-31"/>
       <use xlink:href="#TimesNewRomanPSMT-30" x="50"/>
      </g>
     </g>
    </g>
    <g id="xtick_4">
     <g id="line2d_7">
      <path d="M 186.964814 160.20625 
L 186.964814 11.36625 
" clip-path="url(#p124f301558)" style="fill: none; stroke: #b0b0b0; stroke-opacity: 0.3; stroke-width: 0.8; stroke-linecap: square"/>
     </g>
     <g id="line2d_8">
      <g>
       <use xlink:href="#m1f3fda6512" x="186.964814" y="160.20625" style="stroke: #000000; stroke-width: 0.8"/>
      </g>
     </g>
     <g id="text_4">
      <!-- 15 -->
      <g transform="translate(180.964814 175.53875) scale(0.12 -0.12)">
       <use xlink:href="#TimesNewRomanPSMT-31"/>
       <use xlink:href="#TimesNewRomanPSMT-35" x="50"/>
      </g>
     </g>
    </g>
    <g id="xtick_5">
     <g id="line2d_9">
      <path d="M 229.820116 160.20625 
L 229.820116 11.36625 
" clip-path="url(#p124f301558)" style="fill: none; stroke: #b0b0b0; stroke-opacity: 0.3; stroke-width: 0.8; stroke-linecap: square"/>
     </g>
     <g id="line2d_10">
      <g>
       <use xlink:href="#m1f3fda6512" x="229.820116" y="160.20625" style="stroke: #000000; stroke-width: 0.8"/>
      </g>
     </g>
     <g id="text_5">
      <!-- 20 -->
      <g transform="translate(223.820116 175.53875) scale(0.12 -0.12)">
       <defs>
        <path id="TimesNewRomanPSMT-32" d="M 2934 816 
L 2638 0 
L 138 0 
L 138 116 
Q 1241 1122 1691 1759 
Q 2141 2397 2141 2925 
Q 2141 3328 1894 3587 
Q 1647 3847 1303 3847 
Q 991 3847 742 3664 
Q 494 3481 375 3128 
L 259 3128 
Q 338 3706 661 4015 
Q 984 4325 1469 4325 
Q 1984 4325 2329 3994 
Q 2675 3663 2675 3213 
Q 2675 2891 2525 2569 
Q 2294 2063 1775 1497 
Q 997 647 803 472 
L 1909 472 
Q 2247 472 2383 497 
Q 2519 522 2628 598 
Q 2738 675 2819 816 
L 2934 816 
z
" transform="scale(0.015625)"/>
       </defs>
       <use xlink:href="#TimesNewRomanPSMT-32"/>
       <use xlink:href="#TimesNewRomanPSMT-30" x="50"/>
      </g>
     </g>
    </g>
    <g id="text_6">
     <!-- $t$ [s] -->
     <g transform="translate(131.85424 190.438125) scale(0.12 -0.12)">
      <defs>
       <path id="STIXGeneral-Italic-74" d="M 1894 2739 
L 1862 2534 
L 1325 2534 
L 768 435 
Q 755 384 755 346 
Q 755 243 851 243 
Q 928 243 1030 342 
Q 1133 442 1370 749 
L 1453 704 
Q 1158 256 969 93 
Q 781 -70 538 -70 
Q 243 -70 243 166 
Q 243 230 346 640 
L 845 2534 
L 365 2534 
L 358 2573 
Q 358 2688 570 2733 
Q 730 2771 992 2979 
Q 1254 3187 1421 3437 
Q 1459 3494 1510 3494 
Q 1568 3494 1568 3443 
Q 1568 3411 1562 3398 
L 1382 2739 
L 1894 2739 
z
" transform="scale(0.015625)"/>
       <path id="TimesNewRomanPSMT-20" transform="scale(0.015625)"/>
       <path id="TimesNewRomanPSMT-5b" d="M 1900 -1269 
L 525 -1269 
L 525 4334 
L 1900 4334 
L 1900 4088 
L 994 4088 
L 994 -1025 
L 1900 -1025 
L 1900 -1269 
z
" transform="scale(0.015625)"/>
       <path id="TimesNewRomanPSMT-73" d="M 2050 2947 
L 2050 1972 
L 1947 1972 
Q 1828 2431 1642 2597 
Q 1456 2763 1169 2763 
Q 950 2763 815 2647 
Q 681 2531 681 2391 
Q 681 2216 781 2091 
Q 878 1963 1175 1819 
L 1631 1597 
Q 2266 1288 2266 781 
Q 2266 391 1970 151 
Q 1675 -88 1309 -88 
Q 1047 -88 709 6 
Q 606 38 541 38 
Q 469 38 428 -44 
L 325 -44 
L 325 978 
L 428 978 
Q 516 541 762 319 
Q 1009 97 1316 97 
Q 1531 97 1667 223 
Q 1803 350 1803 528 
Q 1803 744 1651 891 
Q 1500 1038 1047 1263 
Q 594 1488 453 1669 
Q 313 1847 313 2119 
Q 313 2472 555 2709 
Q 797 2947 1181 2947 
Q 1350 2947 1591 2875 
Q 1750 2828 1803 2828 
Q 1853 2828 1881 2850 
Q 1909 2872 1947 2947 
L 2050 2947 
z
" transform="scale(0.015625)"/>
       <path id="TimesNewRomanPSMT-5d" d="M 234 4334 
L 1609 4334 
L 1609 -1272 
L 234 -1272 
L 234 -1025 
L 1141 -1025 
L 1141 4088 
L 234 4088 
L 234 4334 
z
" transform="scale(0.015625)"/>
      </defs>
      <use xlink:href="#STIXGeneral-Italic-74" transform="translate(0 0.28125)"/>
      <use xlink:href="#TimesNewRomanPSMT-20" transform="translate(27.799988 0.28125)"/>
      <use xlink:href="#TimesNewRomanPSMT-5b" transform="translate(52.799988 0.28125)"/>
      <use xlink:href="#TimesNewRomanPSMT-73" transform="translate(86.100769 0.28125)"/>
      <use xlink:href="#TimesNewRomanPSMT-5d" transform="translate(125.016785 0.28125)"/>
     </g>
    </g>
   </g>
   <g id="matplotlib.axis_2">
    <g id="ytick_1">
     <g id="line2d_11">
      <path d="M 50.099375 153.440795 
L 232.689105 153.440795 
" clip-path="url(#p124f301558)" style="fill: none; stroke: #b0b0b0; stroke-opacity: 0.3; stroke-width: 0.8; stroke-linecap: square"/>
     </g>
     <g id="line2d_12">
      <defs>
       <path id="ma2ca71f1b6" d="M 0 0 
L -3.5 0 
" style="stroke: #000000; stroke-width: 0.8"/>
      </defs>
      <g>
       <use xlink:href="#ma2ca71f1b6" x="50.099375" y="153.440795" style="stroke: #000000; stroke-width: 0.8"/>
      </g>
     </g>
     <g id="text_7">
      <!-- 0.00 -->
      <g transform="translate(22.099375 157.607045) scale(0.12 -0.12)">
       <defs>
        <path id="TimesNewRomanPSMT-2e" d="M 800 606 
Q 947 606 1047 504 
Q 1147 403 1147 259 
Q 1147 116 1045 14 
Q 944 -88 800 -88 
Q 656 -88 554 14 
Q 453 116 453 259 
Q 453 406 554 506 
Q 656 606 800 606 
z
" transform="scale(0.015625)"/>
       </defs>
       <use xlink:href="#TimesNewRomanPSMT-30"/>
       <use xlink:href="#TimesNewRomanPSMT-2e" x="50"/>
       <use xlink:href="#TimesNewRomanPSMT-30" x="75"/>
       <use xlink:href="#TimesNewRomanPSMT-30" x="125"/>
      </g>
     </g>
    </g>
    <g id="ytick_2">
     <g id="line2d_13">
      <path d="M 50.099375 88.958889 
L 232.689105 88.958889 
" clip-path="url(#p124f301558)" style="fill: none; stroke: #b0b0b0; stroke-opacity: 0.3; stroke-width: 0.8; stroke-linecap: square"/>
     </g>
     <g id="line2d_14">
      <g>
       <use xlink:href="#ma2ca71f1b6" x="50.099375" y="88.958889" style="stroke: #000000; stroke-width: 0.8"/>
      </g>
     </g>
     <g id="text_8">
      <!-- 0.25 -->
      <g transform="translate(22.099375 93.125139) scale(0.12 -0.12)">
       <use xlink:href="#TimesNewRomanPSMT-30"/>
       <use xlink:href="#TimesNewRomanPSMT-2e" x="50"/>
       <use xlink:href="#TimesNewRomanPSMT-32" x="75"/>
       <use xlink:href="#TimesNewRomanPSMT-35" x="125"/>
      </g>
     </g>
    </g>
    <g id="ytick_3">
     <g id="line2d_15">
      <path d="M 50.099375 24.476982 
L 232.689105 24.476982 
" clip-path="url(#p124f301558)" style="fill: none; stroke: #b0b0b0; stroke-opacity: 0.3; stroke-width: 0.8; stroke-linecap: square"/>
     </g>
     <g id="line2d_16">
      <g>
       <use xlink:href="#ma2ca71f1b6" x="50.099375" y="24.476982" style="stroke: #000000; stroke-width: 0.8"/>
      </g>
     </g>
     <g id="text_9">
      <!-- 0.50 -->
      <g transform="translate(22.099375 28.643232) scale(0.12 -0.12)">
       <use xlink:href="#TimesNewRomanPSMT-30"/>
       <use xlink:href="#TimesNewRomanPSMT-2e" x="50"/>
       <use xlink:href="#TimesNewRomanPSMT-35" x="75"/>
       <use xlink:href="#TimesNewRomanPSMT-30" x="125"/>
      </g>
     </g>
    </g>
    <g id="text_10">
     <!-- $v$ [m/s] -->
     <g transform="translate(15.5325 102.64625) rotate(-90) scale(0.12 -0.12)">
      <defs>
       <path id="STIXGeneral-Italic-76" d="M 1325 448 
L 1523 653 
Q 1869 1005 2134 1456 
Q 2400 1907 2400 2131 
Q 2400 2208 2285 2317 
Q 2125 2458 2125 2605 
Q 2125 2701 2195 2761 
Q 2266 2822 2368 2822 
Q 2522 2822 2624 2704 
Q 2726 2586 2726 2445 
Q 2726 2074 2323 1453 
Q 1971 909 1562 474 
Q 1504 416 1421 326 
Q 1338 237 1299 192 
Q 1261 147 1200 86 
Q 1139 26 1110 -3 
Q 1082 -32 1043 -64 
Q 1005 -96 979 -105 
Q 954 -115 928 -115 
Q 870 -115 870 58 
L 870 211 
Q 870 1094 717 1990 
Q 653 2355 579 2470 
Q 506 2586 326 2586 
Q 198 2586 128 2579 
L 128 2662 
Q 480 2720 845 2797 
Q 915 2822 973 2822 
Q 1011 2822 1033 2739 
Q 1056 2656 1165 2093 
Q 1280 1510 1325 448 
z
" transform="scale(0.015625)"/>
       <path id="TimesNewRomanPSMT-6d" d="M 1050 2338 
Q 1363 2650 1419 2697 
Q 1559 2816 1721 2881 
Q 1884 2947 2044 2947 
Q 2313 2947 2506 2790 
Q 2700 2634 2766 2338 
Q 3088 2713 3309 2830 
Q 3531 2947 3766 2947 
Q 3994 2947 4170 2830 
Q 4347 2713 4450 2447 
Q 4519 2266 4519 1878 
L 4519 647 
Q 4519 378 4559 278 
Q 4591 209 4675 161 
Q 4759 113 4950 113 
L 4950 0 
L 3538 0 
L 3538 113 
L 3597 113 
Q 3781 113 3884 184 
Q 3956 234 3988 344 
Q 4000 397 4000 647 
L 4000 1878 
Q 4000 2228 3916 2372 
Q 3794 2572 3525 2572 
Q 3359 2572 3192 2489 
Q 3025 2406 2788 2181 
L 2781 2147 
L 2788 2013 
L 2788 647 
Q 2788 353 2820 281 
Q 2853 209 2943 161 
Q 3034 113 3253 113 
L 3253 0 
L 1806 0 
L 1806 113 
Q 2044 113 2133 169 
Q 2222 225 2256 338 
Q 2272 391 2272 647 
L 2272 1878 
Q 2272 2228 2169 2381 
Q 2031 2581 1784 2581 
Q 1616 2581 1450 2491 
Q 1191 2353 1050 2181 
L 1050 647 
Q 1050 366 1089 281 
Q 1128 197 1204 155 
Q 1281 113 1516 113 
L 1516 0 
L 100 0 
L 100 113 
Q 297 113 375 155 
Q 453 197 493 289 
Q 534 381 534 647 
L 534 1741 
Q 534 2213 506 2350 
Q 484 2453 437 2492 
Q 391 2531 309 2531 
Q 222 2531 100 2484 
L 53 2597 
L 916 2947 
L 1050 2947 
L 1050 2338 
z
" transform="scale(0.015625)"/>
       <path id="TimesNewRomanPSMT-2f" d="M 1794 4444 
L 259 -88 
L 9 -88 
L 1544 4444 
L 1794 4444 
z
" transform="scale(0.015625)"/>
      </defs>
      <use xlink:href="#STIXGeneral-Italic-76" transform="translate(0 0.5625)"/>
      <use xlink:href="#TimesNewRomanPSMT-20" transform="translate(44.399994 0.5625)"/>
      <use xlink:href="#TimesNewRomanPSMT-5b" transform="translate(69.399994 0.5625)"/>
      <use xlink:href="#TimesNewRomanPSMT-6d" transform="translate(102.700775 0.5625)"/>
      <use xlink:href="#TimesNewRomanPSMT-2f" transform="translate(180.483978 0.5625)"/>
      <use xlink:href="#TimesNewRomanPSMT-73" transform="translate(208.267181 0.5625)"/>
      <use xlink:href="#TimesNewRomanPSMT-5d" transform="translate(247.183197 0.5625)"/>
     </g>
    </g>
   </g>
   <g id="line2d_17">
    <path d="M 58.398908 24.476982 
L 207.53475 24.476982 
L 208.391598 36.818819 
L 208.964236 44.771759 
L 209.534589 51.606584 
L 210.677094 63.268008 
L 211.819614 73.031858 
L 212.390769 77.857684 
L 212.962244 81.830285 
L 213.247855 82.301261 
L 214.105006 87.596257 
L 214.389759 92.645706 
L 217.532509 110.131394 
L 217.818623 109.523716 
L 218.675774 113.084923 
L 219.532777 116.131564 
L 220.389953 118.691238 
L 220.962119 120.338622 
L 222.67543 126.740385 
L 223.532511 128.886859 
L 224.389571 132.173373 
L 224.389571 132.173373 
" clip-path="url(#p124f301558)" style="fill: none; stroke: #ff0000; stroke-opacity: 0.8; stroke-linecap: square"/>
   </g>
   <g id="line2d_18">
    <path d="M 58.398908 153.440795 
L 59.545541 153.440795 
L 59.827548 148.314226 
L 60.113417 139.770631 
L 60.3992 138.061603 
L 60.68714 127.809495 
L 60.969541 126.100467 
L 61.258887 112.430303 
L 61.540816 105.278486 
L 61.826608 105.595479 
L 62.115843 97.051368 
L 62.401322 105.595221 
L 62.684929 102.177422 
L 62.970344 93.634085 
L 63.540843 90.216286 
L 64.116777 71.420068 
L 64.397981 74.837351 
L 64.684937 69.71104 
L 65.254971 54.332105 
L 65.541458 52.622819 
L 65.833496 46.642509 
L 66.112855 35.535371 
L 66.40197 33.826859 
L 66.686404 35.535629 
L 67.262467 32.118088 
L 67.541981 20.156952 
L 67.826489 21.865207 
L 68.112134 20.156694 
L 68.397688 21.865207 
L 68.96917 20.156694 
L 69.255777 21.865465 
L 69.540502 21.865465 
L 69.826457 26.991776 
L 70.114006 23.574235 
L 70.397529 23.574235 
L 70.683691 25.283006 
L 70.971877 21.865723 
L 71.254704 21.865723 
L 71.54092 22.952888 
L 71.827021 21.865465 
L 72.116769 21.865723 
L 72.398622 26.13752 
L 72.683343 25.283006 
L 72.96882 26.991776 
L 73.254951 23.574235 
L 73.825977 23.573977 
L 74.114748 26.992034 
L 74.401992 25.283006 
L 74.684853 25.283006 
L 74.969014 21.865465 
L 75.256202 25.283006 
L 75.541321 25.283006 
L 75.828737 21.865465 
L 76.11497 25.283264 
L 76.398326 26.991519 
L 76.685994 25.283006 
L 76.971659 21.865207 
L 77.256138 23.574235 
L 77.542051 23.573977 
L 77.828265 25.283006 
L 78.111421 25.283006 
L 78.398316 23.574235 
L 78.687424 23.573977 
L 78.969135 25.283006 
L 79.543961 21.865465 
L 79.829849 23.574235 
L 80.112784 23.574751 
L 80.398915 21.865465 
L 80.687451 23.574235 
L 81.255053 25.283006 
L 81.540939 26.991776 
L 81.829563 24.428492 
L 82.114492 23.574493 
L 82.971945 23.574235 
L 83.257432 25.282748 
L 83.543475 25.283006 
L 83.826236 24.42875 
L 84.112022 26.674783 
L 84.399203 25.282748 
L 84.686374 25.283006 
L 84.975029 26.991776 
L 85.254837 25.283006 
L 85.540114 21.865207 
L 85.826702 26.991776 
L 86.400901 20.156694 
L 86.683219 23.574235 
L 86.971859 25.283006 
L 87.257148 25.283006 
L 87.539815 26.991776 
L 87.829355 25.283006 
L 88.112089 20.156694 
L 88.396978 27.317281 
L 88.685941 25.283006 
L 88.972354 25.283006 
L 89.257671 26.991776 
L 89.541162 22.953146 
L 89.829447 25.283006 
L 90.111341 21.865465 
L 90.400272 24.42875 
L 90.686803 18.448182 
L 90.96991 21.865723 
L 91.255526 21.865207 
L 91.542411 25.283006 
L 91.826852 26.991776 
L 92.398699 23.574493 
L 92.688144 25.283006 
L 92.972534 23.573977 
L 93.257126 24.42875 
L 93.545104 26.991519 
L 93.830712 26.991776 
L 94.112112 28.700547 
L 94.683847 25.283006 
L 95.544771 25.283006 
L 95.830632 21.865723 
L 96.114844 23.573977 
L 96.687496 23.573977 
L 96.970251 24.428492 
L 97.255158 23.574493 
L 97.544048 25.283006 
L 97.825799 25.283006 
L 98.112259 23.574235 
L 98.399583 26.059884 
L 98.68503 25.283006 
L 98.972869 20.156436 
L 99.260994 20.156952 
L 99.540425 25.282748 
L 99.830483 26.137262 
L 100.115629 21.865207 
L 100.403205 21.865723 
L 100.684153 25.283006 
L 100.972877 25.283006 
L 101.254784 23.574235 
L 101.540271 25.283006 
L 101.825724 28.700547 
L 102.11133 20.156694 
L 102.397044 25.283006 
L 102.68267 23.574235 
L 102.972718 23.573977 
L 103.255252 25.283006 
L 103.546473 21.865465 
L 103.825587 25.28249 
L 104.113745 23.574235 
L 104.969749 23.574235 
L 105.541402 26.992034 
L 105.826022 25.282748 
L 106.111099 21.54873 
L 106.39742 28.700547 
L 106.971917 28.700547 
L 107.255937 25.283006 
L 107.539863 26.706766 
L 107.829341 23.574235 
L 108.112161 25.283006 
L 108.401684 24.428492 
L 108.684186 25.283006 
L 108.971096 26.991519 
L 109.257177 24.428492 
L 109.542407 20.156694 
L 109.828695 26.991776 
L 110.110849 23.573977 
L 110.396147 28.700805 
L 110.685245 25.283522 
L 110.970828 23.573977 
L 111.255616 25.283006 
L 111.54112 23.574235 
L 111.827484 23.574493 
L 112.111201 26.992034 
L 112.398278 23.573977 
L 113.256951 23.574235 
L 113.544483 26.991776 
L 113.827864 26.991776 
L 114.113582 20.156694 
L 114.685141 23.574235 
L 114.97075 24.42875 
L 115.254531 21.865465 
L 115.539957 21.865465 
L 115.828657 25.283006 
L 116.39601 21.865465 
L 116.684368 22.952888 
L 117.256738 26.991776 
L 117.540539 21.865465 
L 117.82489 23.248731 
L 118.11314 23.574235 
L 118.398382 21.865465 
L 118.686248 21.865465 
L 118.967979 25.283006 
L 119.538892 21.865465 
L 119.828344 23.574235 
L 120.11028 20.156952 
L 120.39592 18.447924 
L 120.684374 21.865207 
L 121.256262 24.966271 
L 121.541414 23.574493 
L 121.82392 26.991261 
L 122.110417 23.574493 
L 122.3961 26.992034 
L 122.680978 21.865723 
L 122.969224 30.40906 
L 123.254756 21.865723 
L 123.82817 28.700547 
L 124.112378 21.865465 
L 124.398703 24.42875 
L 124.685028 23.574235 
L 124.968873 21.865207 
L 125.823718 21.865465 
L 126.112828 32.118088 
L 126.402204 25.283264 
L 126.683316 21.865465 
L 126.972079 28.700547 
L 127.541165 21.54873 
L 127.823652 26.991776 
L 128.112356 21.864949 
L 128.398058 25.283006 
L 128.682646 30.409575 
L 128.969316 26.991776 
L 129.540632 25.283006 
L 129.830038 21.865207 
L 130.112699 25.283006 
L 130.397876 25.283006 
L 130.681679 26.992034 
L 130.970428 23.574235 
L 131.254675 21.865465 
L 131.540748 23.574235 
L 131.826544 23.574235 
L 132.112152 25.283264 
L 132.398219 21.865723 
L 132.680547 25.283006 
L 132.9691 21.865723 
L 133.255408 26.991776 
L 133.540828 23.2575 
L 133.823802 26.137262 
L 134.110977 26.991776 
L 134.683377 19.845892 
L 134.969406 26.991519 
L 135.255157 23.574235 
L 135.826381 23.574235 
L 136.108921 21.865465 
L 136.395598 25.283006 
L 136.68076 25.282748 
L 136.968928 23.573977 
L 137.254814 23.574235 
L 137.540495 25.283006 
L 137.826861 28.700547 
L 138.108837 25.283006 
L 138.397706 23.573977 
L 138.68358 26.991776 
L 138.965992 26.991776 
L 139.252071 30.409318 
L 139.537847 26.991776 
L 139.823371 28.700547 
L 140.111747 25.283006 
L 140.397735 24.42875 
L 140.68385 28.700547 
L 140.969979 25.283006 
L 141.256083 23.574235 
L 141.541928 23.574235 
L 141.827776 25.283264 
L 142.112318 28.38407 
L 142.399249 25.283264 
L 142.682344 25.282748 
L 142.966713 23.574235 
L 143.252807 23.574235 
L 143.539218 20.156694 
L 143.829121 25.283006 
L 144.110137 18.447924 
L 144.685088 26.991519 
L 144.971066 25.283006 
L 145.260987 28.700547 
L 145.542083 28.700547 
L 145.826144 23.574493 
L 146.113284 25.283006 
L 146.395912 21.864949 
L 146.681853 25.283006 
L 146.972917 24.83318 
L 147.255499 21.865465 
L 147.542586 25.282748 
L 148.115254 21.39939 
L 148.398079 28.700547 
L 148.684847 21.865207 
L 148.971485 25.283006 
L 149.26016 32.11783 
L 149.539935 26.992034 
L 149.825613 24.428492 
L 150.111936 23.574235 
L 150.401626 26.992034 
L 150.683327 25.283006 
L 150.971097 27.613124 
L 151.256142 25.283006 
L 151.538456 26.991776 
L 152.113293 23.574235 
L 152.395451 28.700547 
L 152.683082 24.428492 
L 152.967831 23.574235 
L 153.252215 23.574235 
L 153.537667 24.428492 
L 153.826841 23.574235 
L 154.112941 25.283006 
L 154.681161 21.865465 
L 154.967494 25.283006 
L 155.25573 23.574235 
L 155.541429 25.283264 
L 155.823402 25.283006 
L 156.112011 28.700547 
L 156.394476 26.137262 
L 156.683652 26.991519 
L 157.2564 20.156694 
L 157.538235 21.865207 
L 157.823234 20.156952 
L 158.109761 25.283264 
L 158.398077 25.283006 
L 158.681498 26.992034 
L 158.969789 23.574235 
L 159.257595 28.700547 
L 159.53741 21.865465 
L 159.825386 25.283006 
L 160.109886 26.991776 
L 160.397811 26.992034 
L 160.68008 21.865207 
L 160.972983 25.283006 
L 161.255728 23.574235 
L 161.538043 20.156694 
L 162.108243 32.972344 
L 162.39409 33.826859 
L 162.681839 20.156952 
L 162.970269 18.448182 
L 163.536999 25.283006 
L 163.822337 25.282748 
L 164.111879 18.448182 
L 164.396906 18.448182 
L 164.683509 23.574235 
L 164.96739 23.574235 
L 165.250785 21.865723 
L 165.540512 18.447924 
L 165.825783 18.131705 
L 166.110493 23.574235 
L 167.252595 23.574235 
L 167.540107 26.992034 
L 167.825678 20.156694 
L 168.107669 20.156178 
L 168.397064 23.574235 
L 168.965898 20.156694 
L 169.254357 21.865465 
L 169.542879 18.447924 
L 169.825196 23.573977 
L 170.111249 21.865207 
L 170.398061 23.573977 
L 170.68223 26.991776 
L 170.968798 23.574235 
L 171.250313 25.283006 
L 171.538794 24.42875 
L 171.825952 25.283006 
L 172.395723 28.700547 
L 172.682428 25.283006 
L 172.969534 28.700547 
L 173.254661 23.574235 
L 173.536053 25.283006 
L 173.821741 23.574235 
L 174.110334 30.409575 
L 174.395337 26.991776 
L 174.679338 21.865723 
L 174.964717 26.991776 
L 175.253603 23.574235 
L 175.539394 23.574235 
L 175.822987 20.156952 
L 176.111462 26.992034 
L 176.396584 23.574235 
L 176.682238 25.283006 
L 176.964775 28.700289 
L 177.253783 23.2575 
L 177.539329 20.156436 
L 177.824919 23.574493 
L 178.109141 23.574235 
L 178.396253 25.283264 
L 178.682502 25.282748 
L 178.964744 26.991776 
L 179.250327 23.573977 
L 179.536413 21.865723 
L 179.824295 25.283006 
L 180.109167 25.283006 
L 180.395672 21.865465 
L 180.678288 23.574235 
L 180.965237 22.719979 
L 181.253366 25.283006 
L 181.539317 25.283006 
L 181.821612 28.700547 
L 182.107913 23.574493 
L 182.399686 23.573977 
L 182.681065 21.865465 
L 182.967317 21.865207 
L 183.255228 20.156694 
L 183.536771 21.865207 
L 183.822334 25.282748 
L 184.106836 25.283264 
L 184.39454 23.574493 
L 184.966765 25.282748 
L 185.25036 23.574493 
L 185.535917 25.283006 
L 185.824412 21.865465 
L 186.107531 25.283006 
L 186.395631 21.865723 
L 186.681423 26.13752 
L 186.964611 21.865207 
L 187.250996 25.283264 
L 187.535647 26.13752 
L 187.822569 25.283006 
L 188.107404 21.865465 
L 188.393169 25.283006 
L 188.678391 26.991519 
L 188.964566 23.573977 
L 189.253074 26.991776 
L 189.824377 23.573977 
L 190.107647 23.574493 
L 190.393684 26.992034 
L 190.678656 21.54873 
L 190.963751 26.991776 
L 191.250556 25.283006 
L 191.538917 25.282748 
L 191.820811 28.700547 
L 192.109441 30.409575 
L 192.393363 21.865207 
L 192.680733 25.283006 
L 192.964256 23.574235 
L 193.539485 26.991776 
L 193.82072 25.283006 
L 194.106877 26.991776 
L 194.394839 21.865207 
L 194.678466 26.991776 
L 194.963784 23.574235 
L 195.252016 25.283006 
L 195.822418 25.283006 
L 196.10901 23.574235 
L 196.678503 23.574235 
L 196.965807 21.865465 
L 197.249055 25.283006 
L 197.534828 23.574235 
L 197.822622 30.40906 
L 198.106544 20.156952 
L 198.680575 26.991776 
L 198.965603 23.574235 
L 199.251597 26.991776 
L 199.534292 25.283006 
L 199.822802 26.992292 
L 200.108393 20.156436 
L 200.393915 23.573977 
L 200.679098 25.283006 
L 200.967056 18.447924 
L 201.252424 21.865723 
L 201.53473 26.991776 
L 201.823807 25.283006 
L 202.11135 26.991776 
L 202.393746 25.283006 
L 202.96245 25.283264 
L 203.249817 21.865723 
L 203.819606 21.865207 
L 204.105379 20.156436 
L 204.390799 21.865465 
L 204.677257 25.283006 
L 204.963976 21.865465 
L 205.248205 28.700289 
L 205.535296 22.719979 
L 205.820184 25.283006 
L 206.107717 21.865723 
L 206.39131 25.282748 
L 206.677461 25.282748 
L 206.963631 26.060142 
L 207.249194 25.283006 
L 207.53475 21.865465 
L 208.105414 25.283264 
L 208.391598 23.574235 
L 208.676532 26.991776 
L 208.964236 28.700547 
L 209.247541 37.2444 
L 209.534589 38.953428 
L 209.82052 37.2444 
L 210.391353 54.331847 
L 210.677094 49.205793 
L 210.961865 62.876215 
L 211.247163 69.711298 
L 211.533874 66.293241 
L 211.819614 59.458416 
L 212.390769 69.711298 
L 212.675541 68.002011 
L 212.962244 68.002011 
L 213.247855 76.545864 
L 213.533667 76.54638 
L 213.81828 85.089716 
L 214.105006 83.381204 
L 214.389759 90.216544 
L 214.675438 91.925056 
L 214.96179 90.216286 
L 215.246727 102.17768 
L 215.532797 95.342598 
L 215.81867 95.342598 
L 216.103996 99.070683 
L 216.676086 102.17768 
L 217.247416 105.594963 
L 217.818623 112.430561 
L 218.104307 117.556356 
L 218.390017 114.139331 
L 218.675774 114.99333 
L 218.961394 112.430303 
L 219.246965 117.556872 
L 219.532777 119.265127 
L 219.818164 119.265385 
L 220.103559 114.139073 
L 220.389953 119.265385 
L 220.675778 119.265385 
L 220.962119 115.847844 
L 221.246249 122.683184 
L 221.818376 122.682926 
L 222.389631 126.100467 
L 222.960815 126.100725 
L 223.247055 128.758411 
L 223.532511 127.809238 
L 223.818235 129.518266 
L 224.103761 129.518266 
L 224.389571 132.935549 
L 224.389571 132.935549 
" clip-path="url(#p124f301558)" style="fill: none; stroke: #0000ff; stroke-linecap: square"/>
   </g>
   <g id="line2d_19">
    <path d="M 50.099375 24.476982 
L 232.689105 24.476982 
" clip-path="url(#p124f301558)" style="fill: none; stroke-dasharray: 3.7,1.6; stroke-dashoffset: 0; stroke: #000000; stroke-opacity: 0.7"/>
   </g>
   <g id="patch_3">
    <path d="M 50.099375 160.20625 
L 50.099375 11.36625 
" style="fill: none; stroke: #000000; stroke-width: 0.8; stroke-linejoin: miter; stroke-linecap: square"/>
   </g>
   <g id="patch_4">
    <path d="M 232.689105 160.20625 
L 232.689105 11.36625 
" style="fill: none; stroke: #000000; stroke-width: 0.8; stroke-linejoin: miter; stroke-linecap: square"/>
   </g>
   <g id="patch_5">
    <path d="M 50.099375 160.20625 
L 232.689105 160.20625 
" style="fill: none; stroke: #000000; stroke-width: 0.8; stroke-linejoin: miter; stroke-linecap: square"/>
   </g>
   <g id="patch_6">
    <path d="M 50.099375 11.36625 
L 232.689105 11.36625 
" style="fill: none; stroke: #000000; stroke-width: 0.8; stroke-linejoin: miter; stroke-linecap: square"/>
   </g>
  </g>
  <g id="axes_2">
   <g id="patch_7">
    <path d="M 295.979375 160.20625 
L 478.569105 160.20625 
L 478.569105 11.36625 
L 295.979375 11.36625 
z
" style="fill: #ffffff"/>
   </g>
   <g id="matplotlib.axis_3">
    <g id="xtick_6">
     <g id="line2d_20">
      <path d="M 304.278908 160.20625 
L 304.278908 11.36625 
" clip-path="url(#pdde0726c37)" style="fill: none; stroke: #b0b0b0; stroke-opacity: 0.3; stroke-width: 0.8; stroke-linecap: square"/>
     </g>
     <g id="line2d_21">
      <g>
       <use xlink:href="#m1f3fda6512" x="304.278908" y="160.20625" style="stroke: #000000; stroke-width: 0.8"/>
      </g>
     </g>
     <g id="text_11">
      <!-- 0 -->
      <g transform="translate(301.278908 175.53875) scale(0.12 -0.12)">
       <use xlink:href="#TimesNewRomanPSMT-30"/>
      </g>
     </g>
    </g>
    <g id="xtick_7">
     <g id="line2d_22">
      <path d="M 347.13421 160.20625 
L 347.13421 11.36625 
" clip-path="url(#pdde0726c37)" style="fill: none; stroke: #b0b0b0; stroke-opacity: 0.3; stroke-width: 0.8; stroke-linecap: square"/>
     </g>
     <g id="line2d_23">
      <g>
       <use xlink:href="#m1f3fda6512" x="347.13421" y="160.20625" style="stroke: #000000; stroke-width: 0.8"/>
      </g>
     </g>
     <g id="text_12">
      <!-- 5 -->
      <g transform="translate(344.13421 175.53875) scale(0.12 -0.12)">
       <use xlink:href="#TimesNewRomanPSMT-35"/>
      </g>
     </g>
    </g>
    <g id="xtick_8">
     <g id="line2d_24">
      <path d="M 389.989512 160.20625 
L 389.989512 11.36625 
" clip-path="url(#pdde0726c37)" style="fill: none; stroke: #b0b0b0; stroke-opacity: 0.3; stroke-width: 0.8; stroke-linecap: square"/>
     </g>
     <g id="line2d_25">
      <g>
       <use xlink:href="#m1f3fda6512" x="389.989512" y="160.20625" style="stroke: #000000; stroke-width: 0.8"/>
      </g>
     </g>
     <g id="text_13">
      <!-- 10 -->
      <g transform="translate(383.989512 175.53875) scale(0.12 -0.12)">
       <use xlink:href="#TimesNewRomanPSMT-31"/>
       <use xlink:href="#TimesNewRomanPSMT-30" x="50"/>
      </g>
     </g>
    </g>
    <g id="xtick_9">
     <g id="line2d_26">
      <path d="M 432.844814 160.20625 
L 432.844814 11.36625 
" clip-path="url(#pdde0726c37)" style="fill: none; stroke: #b0b0b0; stroke-opacity: 0.3; stroke-width: 0.8; stroke-linecap: square"/>
     </g>
     <g id="line2d_27">
      <g>
       <use xlink:href="#m1f3fda6512" x="432.844814" y="160.20625" style="stroke: #000000; stroke-width: 0.8"/>
      </g>
     </g>
     <g id="text_14">
      <!-- 15 -->
      <g transform="translate(426.844814 175.53875) scale(0.12 -0.12)">
       <use xlink:href="#TimesNewRomanPSMT-31"/>
       <use xlink:href="#TimesNewRomanPSMT-35" x="50"/>
      </g>
     </g>
    </g>
    <g id="xtick_10">
     <g id="line2d_28">
      <path d="M 475.700116 160.20625 
L 475.700116 11.36625 
" clip-path="url(#pdde0726c37)" style="fill: none; stroke: #b0b0b0; stroke-opacity: 0.3; stroke-width: 0.8; stroke-linecap: square"/>
     </g>
     <g id="line2d_29">
      <g>
       <use xlink:href="#m1f3fda6512" x="475.700116" y="160.20625" style="stroke: #000000; stroke-width: 0.8"/>
      </g>
     </g>
     <g id="text_15">
      <!-- 20 -->
      <g transform="translate(469.700116 175.53875) scale(0.12 -0.12)">
       <use xlink:href="#TimesNewRomanPSMT-32"/>
       <use xlink:href="#TimesNewRomanPSMT-30" x="50"/>
      </g>
     </g>
    </g>
    <g id="text_16">
     <!-- $t$ [s] -->
     <g transform="translate(377.73424 190.438125) scale(0.12 -0.12)">
      <use xlink:href="#STIXGeneral-Italic-74" transform="translate(0 0.28125)"/>
      <use xlink:href="#TimesNewRomanPSMT-20" transform="translate(27.799988 0.28125)"/>
      <use xlink:href="#TimesNewRomanPSMT-5b" transform="translate(52.799988 0.28125)"/>
      <use xlink:href="#TimesNewRomanPSMT-73" transform="translate(86.100769 0.28125)"/>
      <use xlink:href="#TimesNewRomanPSMT-5d" transform="translate(125.016785 0.28125)"/>
     </g>
    </g>
   </g>
   <g id="matplotlib.axis_4">
    <g id="ytick_4">
     <g id="line2d_30">
      <path d="M 295.979375 160.20625 
L 478.569105 160.20625 
" clip-path="url(#pdde0726c37)" style="fill: none; stroke: #b0b0b0; stroke-opacity: 0.3; stroke-width: 0.8; stroke-linecap: square"/>
     </g>
     <g id="line2d_31">
      <g>
       <use xlink:href="#ma2ca71f1b6" x="295.979375" y="160.20625" style="stroke: #000000; stroke-width: 0.8"/>
      </g>
     </g>
     <g id="text_17">
      <!-- −1.5 -->
      <g transform="translate(267.2125 164.3725) scale(0.12 -0.12)">
       <defs>
        <path id="TimesNewRomanPSMT-2212" d="M 3484 2000 
L 116 2000 
L 116 2256 
L 3484 2256 
L 3484 2000 
z
" transform="scale(0.015625)"/>
       </defs>
       <use xlink:href="#TimesNewRomanPSMT-2212"/>
       <use xlink:href="#TimesNewRomanPSMT-31" x="56.396484"/>
       <use xlink:href="#TimesNewRomanPSMT-2e" x="106.396484"/>
       <use xlink:href="#TimesNewRomanPSMT-35" x="131.396484"/>
      </g>
     </g>
    </g>
    <g id="ytick_5">
     <g id="line2d_32">
      <path d="M 295.979375 135.399583 
L 478.569105 135.399583 
" clip-path="url(#pdde0726c37)" style="fill: none; stroke: #b0b0b0; stroke-opacity: 0.3; stroke-width: 0.8; stroke-linecap: square"/>
     </g>
     <g id="line2d_33">
      <g>
       <use xlink:href="#ma2ca71f1b6" x="295.979375" y="135.399583" style="stroke: #000000; stroke-width: 0.8"/>
      </g>
     </g>
     <g id="text_18">
      <!-- −1.0 -->
      <g transform="translate(267.2125 139.565833) scale(0.12 -0.12)">
       <use xlink:href="#TimesNewRomanPSMT-2212"/>
       <use xlink:href="#TimesNewRomanPSMT-31" x="56.396484"/>
       <use xlink:href="#TimesNewRomanPSMT-2e" x="106.396484"/>
       <use xlink:href="#TimesNewRomanPSMT-30" x="131.396484"/>
      </g>
     </g>
    </g>
    <g id="ytick_6">
     <g id="line2d_34">
      <path d="M 295.979375 110.592917 
L 478.569105 110.592917 
" clip-path="url(#pdde0726c37)" style="fill: none; stroke: #b0b0b0; stroke-opacity: 0.3; stroke-width: 0.8; stroke-linecap: square"/>
     </g>
     <g id="line2d_35">
      <g>
       <use xlink:href="#ma2ca71f1b6" x="295.979375" y="110.592917" style="stroke: #000000; stroke-width: 0.8"/>
      </g>
     </g>
     <g id="text_19">
      <!-- −0.5 -->
      <g transform="translate(267.2125 114.759167) scale(0.12 -0.12)">
       <use xlink:href="#TimesNewRomanPSMT-2212"/>
       <use xlink:href="#TimesNewRomanPSMT-30" x="56.396484"/>
       <use xlink:href="#TimesNewRomanPSMT-2e" x="106.396484"/>
       <use xlink:href="#TimesNewRomanPSMT-35" x="131.396484"/>
      </g>
     </g>
    </g>
    <g id="ytick_7">
     <g id="line2d_36">
      <path d="M 295.979375 85.78625 
L 478.569105 85.78625 
" clip-path="url(#pdde0726c37)" style="fill: none; stroke: #b0b0b0; stroke-opacity: 0.3; stroke-width: 0.8; stroke-linecap: square"/>
     </g>
     <g id="line2d_37">
      <g>
       <use xlink:href="#ma2ca71f1b6" x="295.979375" y="85.78625" style="stroke: #000000; stroke-width: 0.8"/>
      </g>
     </g>
     <g id="text_20">
      <!-- 0.0 -->
      <g transform="translate(273.979375 89.9525) scale(0.12 -0.12)">
       <use xlink:href="#TimesNewRomanPSMT-30"/>
       <use xlink:href="#TimesNewRomanPSMT-2e" x="50"/>
       <use xlink:href="#TimesNewRomanPSMT-30" x="75"/>
      </g>
     </g>
    </g>
    <g id="ytick_8">
     <g id="line2d_38">
      <path d="M 295.979375 60.979583 
L 478.569105 60.979583 
" clip-path="url(#pdde0726c37)" style="fill: none; stroke: #b0b0b0; stroke-opacity: 0.3; stroke-width: 0.8; stroke-linecap: square"/>
     </g>
     <g id="line2d_39">
      <g>
       <use xlink:href="#ma2ca71f1b6" x="295.979375" y="60.979583" style="stroke: #000000; stroke-width: 0.8"/>
      </g>
     </g>
     <g id="text_21">
      <!-- 0.5 -->
      <g transform="translate(273.979375 65.145833) scale(0.12 -0.12)">
       <use xlink:href="#TimesNewRomanPSMT-30"/>
       <use xlink:href="#TimesNewRomanPSMT-2e" x="50"/>
       <use xlink:href="#TimesNewRomanPSMT-35" x="75"/>
      </g>
     </g>
    </g>
    <g id="ytick_9">
     <g id="line2d_40">
      <path d="M 295.979375 36.172917 
L 478.569105 36.172917 
" clip-path="url(#pdde0726c37)" style="fill: none; stroke: #b0b0b0; stroke-opacity: 0.3; stroke-width: 0.8; stroke-linecap: square"/>
     </g>
     <g id="line2d_41">
      <g>
       <use xlink:href="#ma2ca71f1b6" x="295.979375" y="36.172917" style="stroke: #000000; stroke-width: 0.8"/>
      </g>
     </g>
     <g id="text_22">
      <!-- 1.0 -->
      <g transform="translate(273.979375 40.339167) scale(0.12 -0.12)">
       <use xlink:href="#TimesNewRomanPSMT-31"/>
       <use xlink:href="#TimesNewRomanPSMT-2e" x="50"/>
       <use xlink:href="#TimesNewRomanPSMT-30" x="75"/>
      </g>
     </g>
    </g>
    <g id="ytick_10">
     <g id="line2d_42">
      <path d="M 295.979375 11.36625 
L 478.569105 11.36625 
" clip-path="url(#pdde0726c37)" style="fill: none; stroke: #b0b0b0; stroke-opacity: 0.3; stroke-width: 0.8; stroke-linecap: square"/>
     </g>
     <g id="line2d_43">
      <g>
       <use xlink:href="#ma2ca71f1b6" x="295.979375" y="11.36625" style="stroke: #000000; stroke-width: 0.8"/>
      </g>
     </g>
     <g id="text_23">
      <!-- 1.5 -->
      <g transform="translate(273.979375 15.5325) scale(0.12 -0.12)">
       <use xlink:href="#TimesNewRomanPSMT-31"/>
       <use xlink:href="#TimesNewRomanPSMT-2e" x="50"/>
       <use xlink:href="#TimesNewRomanPSMT-35" x="75"/>
      </g>
     </g>
    </g>
    <g id="text_24">
     <!-- $\omega$ [rad/s] -->
     <g transform="translate(260.645625 107.08625) rotate(-90) scale(0.12 -0.12)">
      <defs>
       <path id="STIXGeneral-Italic-3c9" d="M 3021 2810 
L 3136 2810 
Q 3648 2810 3898 2598 
Q 4186 2355 4186 1824 
Q 4186 1357 3910 838 
Q 3667 390 3334 160 
Q 3002 -70 2669 -70 
Q 2438 -70 2281 3 
Q 2125 77 2064 160 
Q 2003 243 1939 384 
Q 1741 147 1533 38 
Q 1325 -70 998 -70 
Q 659 -70 416 160 
Q 173 390 173 832 
Q 173 1101 237 1350 
Q 403 1965 883 2387 
Q 1363 2810 2010 2810 
L 2125 2810 
L 2125 2707 
Q 1606 2707 1267 2291 
Q 1024 1990 867 1526 
Q 710 1062 710 666 
Q 710 64 1075 64 
Q 1286 64 1523 285 
Q 1760 506 1856 774 
Q 1837 915 1837 1101 
Q 1837 1363 1914 1651 
Q 1984 1920 2125 2105 
Q 2266 2291 2432 2291 
Q 2656 2291 2656 1997 
Q 2656 1530 2387 1062 
Q 2272 864 2189 736 
Q 2176 691 2176 602 
Q 2176 384 2288 224 
Q 2400 64 2592 64 
Q 3040 64 3341 627 
Q 3482 896 3565 1270 
Q 3648 1645 3648 1971 
Q 3648 2240 3616 2362 
Q 3565 2566 3411 2636 
Q 3258 2707 3021 2707 
L 3021 2810 
z
" transform="scale(0.015625)"/>
       <path id="TimesNewRomanPSMT-72" d="M 1038 2947 
L 1038 2303 
Q 1397 2947 1775 2947 
Q 1947 2947 2059 2842 
Q 2172 2738 2172 2600 
Q 2172 2478 2090 2393 
Q 2009 2309 1897 2309 
Q 1788 2309 1652 2417 
Q 1516 2525 1450 2525 
Q 1394 2525 1328 2463 
Q 1188 2334 1038 2041 
L 1038 669 
Q 1038 431 1097 309 
Q 1138 225 1241 169 
Q 1344 113 1538 113 
L 1538 0 
L 72 0 
L 72 113 
Q 291 113 397 181 
Q 475 231 506 341 
Q 522 394 522 644 
L 522 1753 
Q 522 2253 501 2348 
Q 481 2444 426 2487 
Q 372 2531 291 2531 
Q 194 2531 72 2484 
L 41 2597 
L 906 2947 
L 1038 2947 
z
" transform="scale(0.015625)"/>
       <path id="TimesNewRomanPSMT-61" d="M 1822 413 
Q 1381 72 1269 19 
Q 1100 -59 909 -59 
Q 613 -59 420 144 
Q 228 347 228 678 
Q 228 888 322 1041 
Q 450 1253 767 1440 
Q 1084 1628 1822 1897 
L 1822 2009 
Q 1822 2438 1686 2597 
Q 1550 2756 1291 2756 
Q 1094 2756 978 2650 
Q 859 2544 859 2406 
L 866 2225 
Q 866 2081 792 2003 
Q 719 1925 600 1925 
Q 484 1925 411 2006 
Q 338 2088 338 2228 
Q 338 2497 613 2722 
Q 888 2947 1384 2947 
Q 1766 2947 2009 2819 
Q 2194 2722 2281 2516 
Q 2338 2381 2338 1966 
L 2338 994 
Q 2338 584 2353 492 
Q 2369 400 2405 369 
Q 2441 338 2488 338 
Q 2538 338 2575 359 
Q 2641 400 2828 588 
L 2828 413 
Q 2478 -56 2159 -56 
Q 2006 -56 1915 50 
Q 1825 156 1822 413 
z
M 1822 616 
L 1822 1706 
Q 1350 1519 1213 1441 
Q 966 1303 859 1153 
Q 753 1003 753 825 
Q 753 600 887 451 
Q 1022 303 1197 303 
Q 1434 303 1822 616 
z
" transform="scale(0.015625)"/>
       <path id="TimesNewRomanPSMT-64" d="M 2222 322 
Q 2013 103 1813 7 
Q 1613 -88 1381 -88 
Q 913 -88 563 304 
Q 213 697 213 1313 
Q 213 1928 600 2439 
Q 988 2950 1597 2950 
Q 1975 2950 2222 2709 
L 2222 3238 
Q 2222 3728 2198 3840 
Q 2175 3953 2125 3993 
Q 2075 4034 2000 4034 
Q 1919 4034 1784 3984 
L 1744 4094 
L 2597 4444 
L 2738 4444 
L 2738 1134 
Q 2738 631 2761 520 
Q 2784 409 2836 365 
Q 2888 322 2956 322 
Q 3041 322 3181 375 
L 3216 266 
L 2366 -88 
L 2222 -88 
L 2222 322 
z
M 2222 541 
L 2222 2016 
Q 2203 2228 2109 2403 
Q 2016 2578 1861 2667 
Q 1706 2756 1559 2756 
Q 1284 2756 1069 2509 
Q 784 2184 784 1559 
Q 784 928 1059 592 
Q 1334 256 1672 256 
Q 1956 256 2222 541 
z
" transform="scale(0.015625)"/>
      </defs>
      <use xlink:href="#STIXGeneral-Italic-3c9" transform="translate(0 0.5625)"/>
      <use xlink:href="#TimesNewRomanPSMT-20" transform="translate(68.599991 0.5625)"/>
      <use xlink:href="#TimesNewRomanPSMT-5b" transform="translate(93.599991 0.5625)"/>
      <use xlink:href="#TimesNewRomanPSMT-72" transform="translate(126.900772 0.5625)"/>
      <use xlink:href="#TimesNewRomanPSMT-61" transform="translate(160.201553 0.5625)"/>
      <use xlink:href="#TimesNewRomanPSMT-64" transform="translate(204.586319 0.5625)"/>
      <use xlink:href="#TimesNewRomanPSMT-2f" transform="translate(254.586319 0.5625)"/>
      <use xlink:href="#TimesNewRomanPSMT-73" transform="translate(282.369522 0.5625)"/>
      <use xlink:href="#TimesNewRomanPSMT-5d" transform="translate(321.285538 0.5625)"/>
     </g>
    </g>
   </g>
   <g id="line2d_44">
    <path d="M 304.278908 85.78625 
L 306.849541 85.785357 
L 307.138887 85.606898 
L 308.564929 85.489017 
L 308.850344 85.384184 
L 309.138192 85.505984 
L 309.707256 85.44367 
L 310.277981 85.451608 
L 313.142467 85.543294 
L 313.706489 85.549049 
L 315.706457 85.684642 
L 317.996769 85.800638 
L 318.563343 85.698385 
L 319.705977 85.744128 
L 320.849014 86.047167 
L 321.136202 86.763782 
L 321.708737 86.824012 
L 322.851659 86.654086 
L 323.136138 86.933409 
L 323.422051 87.692791 
L 323.708265 87.789239 
L 323.991421 87.759372 
L 324.278316 87.526487 
L 324.567424 86.948045 
L 324.849135 86.929143 
L 325.135037 86.752222 
L 325.423961 87.377548 
L 325.709849 88.480949 
L 325.992784 88.438777 
L 326.278915 88.06886 
L 326.567451 86.981088 
L 327.420939 86.615487 
L 327.994492 86.282234 
L 328.564065 86.193278 
L 328.851945 86.661132 
L 329.423475 86.544391 
L 329.706236 86.151057 
L 330.279203 86.106901 
L 330.855029 85.65284 
L 332.851859 85.388004 
L 333.137148 83.556726 
L 333.709355 83.514753 
L 334.276978 82.742224 
L 335.137671 83.161258 
L 335.421162 83.811143 
L 336.280272 84.016542 
L 336.566803 83.894791 
L 337.135526 83.979134 
L 337.706852 84.76997 
L 338.278699 84.956318 
L 338.568144 85.43593 
L 338.852534 86.277521 
L 339.710712 86.403886 
L 339.992112 86.100799 
L 340.563847 86.085121 
L 341.14138 86.212577 
L 341.710632 86.206227 
L 342.567496 86.687675 
L 343.135158 86.688369 
L 343.424048 87.708965 
L 343.705799 87.767955 
L 343.992259 87.701424 
L 344.56503 88.116241 
L 345.420425 87.843715 
L 345.995629 87.347433 
L 346.564153 87.167336 
L 346.852877 90.424799 
L 347.420271 90.233043 
L 347.705724 90.450548 
L 347.99133 90.241825 
L 348.277044 90.218159 
L 348.56267 90.023378 
L 348.852718 89.415267 
L 349.705587 61.932953 
L 350.563969 46.935041 
L 351.706022 38.242487 
L 351.991099 36.686067 
L 353.135937 32.715363 
L 353.419863 31.234058 
L 353.709341 31.009111 
L 354.281684 29.501957 
L 354.564186 29.185424 
L 354.851096 29.148909 
L 355.137177 29.307523 
L 355.422407 28.925599 
L 355.708695 27.563862 
L 355.990849 27.750557 
L 356.276147 26.161541 
L 356.565245 27.120121 
L 356.850828 27.409962 
L 357.135616 27.269159 
L 357.42112 27.618883 
L 357.707484 27.721037 
L 357.991201 26.985917 
L 358.278278 28.109956 
L 358.853421 28.814317 
L 359.136951 29.448474 
L 359.424483 28.961718 
L 359.707864 29.407494 
L 359.993582 31.016752 
L 360.565141 31.603281 
L 362.564368 36.548341 
L 362.847405 36.952293 
L 363.136738 37.102373 
L 363.420539 39.023103 
L 363.70489 38.838691 
L 363.99314 37.520365 
L 364.278382 38.311351 
L 364.566248 39.755247 
L 364.847979 42.913335 
L 365.99028 47.827882 
L 367.421414 54.47205 
L 367.70392 54.503605 
L 367.990417 56.695373 
L 368.2761 57.070598 
L 368.560978 58.986417 
L 368.849224 57.564747 
L 369.134756 60.448373 
L 369.421157 61.786495 
L 369.70817 61.834173 
L 369.992378 64.696019 
L 370.278703 65.737949 
L 370.848873 66.360645 
L 371.13277 67.131835 
L 371.703718 70.092015 
L 371.992828 69.398123 
L 372.282204 72.750992 
L 372.563316 73.262952 
L 372.852079 71.248452 
L 373.133561 72.607411 
L 373.703652 72.531403 
L 373.992356 73.441808 
L 374.278058 73.417844 
L 374.562646 72.66526 
L 375.132194 76.419997 
L 375.420632 77.155862 
L 375.992699 79.772023 
L 376.561679 81.351661 
L 376.850428 83.569179 
L 377.706544 85.19605 
L 377.992152 85.700072 
L 378.278219 86.536602 
L 378.8491 87.554866 
L 379.135408 87.675129 
L 379.420828 88.219536 
L 379.703802 87.590737 
L 379.990977 87.839795 
L 380.277666 88.330918 
L 380.563377 88.162332 
L 380.849406 88.265031 
L 381.135157 88.71304 
L 381.419412 88.865849 
L 381.706381 88.558693 
L 381.988921 88.746678 
L 382.56076 90.61581 
L 383.134814 91.187703 
L 383.420495 91.70259 
L 383.706861 91.725164 
L 383.988837 91.946539 
L 384.277706 91.941032 
L 384.56358 91.682795 
L 384.845992 91.703087 
L 385.417847 90.19375 
L 385.703371 90.168199 
L 386.277735 90.539356 
L 386.56385 90.477042 
L 387.136083 90.741828 
L 387.421928 90.512218 
L 387.707776 87.766566 
L 387.992318 87.552534 
L 388.279249 87.789488 
L 388.562344 86.852093 
L 388.846713 86.976772 
L 389.132807 86.0172 
L 389.419218 84.311643 
L 389.709121 84.327767 
L 389.990137 84.476656 
L 390.275845 84.32613 
L 390.565088 83.895535 
L 390.851066 84.221644 
L 391.140987 84.209439 
L 391.706144 85.157649 
L 392.275912 86.112358 
L 392.561853 86.327135 
L 393.135499 88.024853 
L 393.704346 88.350912 
L 393.995254 89.260424 
L 394.278079 90.712259 
L 394.851485 91.169346 
L 395.14016 91.835505 
L 395.705613 92.000816 
L 396.281626 92.119144 
L 396.851097 89.923655 
L 397.709508 89.612976 
L 397.993293 90.498177 
L 398.275451 90.560789 
L 398.563082 90.486121 
L 398.847831 90.914532 
L 399.132215 90.917509 
L 399.417667 91.111993 
L 399.706841 92.079354 
L 400.283621 91.981566 
L 400.561161 91.560597 
L 400.847494 90.774474 
L 401.13573 90.604995 
L 401.703402 114.323839 
L 401.992011 114.127718 
L 402.274476 121.431991 
L 402.563652 123.006073 
L 402.848271 126.607803 
L 403.703234 132.325541 
L 403.989761 133.555605 
L 404.278077 135.328438 
L 405.137595 138.406002 
L 405.41741 139.090815 
L 405.705386 140.239166 
L 406.56008 141.934453 
L 406.852983 142.424434 
L 407.135728 142.542316 
L 407.418043 142.538495 
L 407.706424 143.346746 
L 407.988243 145.025215 
L 408.27409 144.370617 
L 408.561839 141.576245 
L 408.850269 141.541565 
L 409.131365 141.061457 
L 409.702337 140.485992 
L 409.991879 139.799988 
L 410.563509 138.998485 
L 411.420512 137.008445 
L 411.990493 135.030212 
L 413.132595 132.401152 
L 413.420107 132.494078 
L 413.705678 131.122864 
L 413.987669 130.608622 
L 414.559653 128.634805 
L 415.134357 128.353696 
L 415.422879 127.560329 
L 415.705196 126.113108 
L 415.991249 123.727947 
L 416.56223 122.752549 
L 416.848798 121.006954 
L 417.130313 120.374036 
L 417.418794 118.854033 
L 417.705952 118.098025 
L 417.990305 117.70216 
L 418.275723 117.706923 
L 418.562428 116.191087 
L 418.849534 116.430322 
L 419.134661 114.81645 
L 419.416053 114.395679 
L 419.701741 113.503929 
L 419.990334 114.725459 
L 420.559338 110.894318 
L 420.844717 111.116585 
L 421.702987 107.80172 
L 421.991462 107.706115 
L 422.276584 106.565257 
L 422.562238 106.070562 
L 422.844775 106.546503 
L 423.133783 104.201529 
L 424.562502 100.346225 
L 424.844744 100.280488 
L 425.130327 98.67629 
L 426.845237 95.400173 
L 427.133366 95.477818 
L 427.419317 94.923538 
L 427.701612 95.680488 
L 429.416771 92.186767 
L 429.702334 91.086988 
L 429.986836 90.540696 
L 430.5612 88.716761 
L 430.846765 88.450734 
L 431.13036 87.822034 
L 431.415917 87.49662 
L 431.704412 86.821234 
L 431.987531 86.474437 
L 432.275631 85.919263 
L 432.561423 85.654675 
L 432.844611 86.099161 
L 433.415647 85.362701 
L 433.702569 85.401102 
L 433.987404 85.774095 
L 434.558391 85.316858 
L 434.844566 84.773096 
L 435.133074 85.076035 
L 435.704377 84.152334 
L 435.987647 83.914389 
L 436.273684 84.155112 
L 436.558656 83.489302 
L 436.843751 83.430014 
L 437.418917 82.850282 
L 437.989441 82.780823 
L 438.844256 81.125524 
L 439.419485 80.890952 
L 439.70072 81.189773 
L 440.274839 80.866741 
L 440.843784 81.625924 
L 443.986544 80.487348 
L 444.27629 80.214722 
L 445.131597 80.088208 
L 445.414292 79.836073 
L 445.988393 79.823769 
L 446.273915 79.852743 
L 446.559098 80.268602 
L 447.132424 80.423446 
L 447.703807 80.090292 
L 448.556973 80.456687 
L 448.84245 81.730211 
L 449.699606 81.977037 
L 449.985379 82.283698 
L 450.557257 82.393293 
L 450.843976 82.350725 
L 451.128205 82.067185 
L 451.700184 82.203423 
L 452.27131 82.133369 
L 453.129194 82.139819 
L 453.41475 83.535392 
L 453.985414 83.764854 
L 454.271598 84.140228 
L 454.556532 84.770367 
L 455.414589 85.04081 
L 455.70052 85.803664 
L 456.557094 85.968827 
L 456.841865 86.671898 
L 458.842244 86.83835 
L 459.127855 88.216758 
L 459.985006 88.22931 
L 460.269759 91.887152 
L 460.555438 91.965789 
L 460.84179 92.180764 
L 461.412797 92.048792 
L 462.269753 91.849099 
L 462.556086 93.038281 
L 463.412509 92.765705 
L 463.698623 91.055881 
L 464.270017 90.758548 
L 464.555774 91.225509 
L 464.841394 92.219958 
L 467.411965 91.669498 
L 468.269631 90.994162 
L 469.412511 90.496441 
L 469.698235 91.478884 
L 469.983761 93.460688 
L 470.269571 93.46049 
L 470.269571 93.46049 
" clip-path="url(#pdde0726c37)" style="fill: none; stroke: #ff0000; stroke-opacity: 0.8; stroke-linecap: square"/>
   </g>
   <g id="line2d_45">
    <path d="M 304.278908 85.78625 
L 305.425541 85.78625 
L 305.707548 87.11172 
L 305.993417 85.78625 
L 306.2792 87.111769 
L 306.56714 87.111472 
L 306.849541 83.135509 
L 307.138887 88.436991 
L 307.420816 88.682726 
L 307.706608 88.436793 
L 308.281322 85.78625 
L 308.564929 83.135707 
L 308.850344 87.111422 
L 309.138192 80.484916 
L 309.420843 81.810138 
L 309.707256 81.810138 
L 309.996777 88.436793 
L 310.277981 83.135658 
L 310.564937 81.810138 
L 310.85042 83.135558 
L 311.134971 83.135261 
L 311.421458 87.111819 
L 311.713496 85.123565 
L 311.992855 84.46083 
L 312.28197 85.78625 
L 312.566404 89.762362 
L 312.855355 83.13541 
L 313.142467 84.46083 
L 313.421981 88.43709 
L 313.706489 87.111521 
L 313.992134 83.135558 
L 314.277688 87.111422 
L 314.84917 83.135558 
L 315.135777 84.46083 
L 315.420502 84.460879 
L 315.706457 85.78625 
L 315.994006 83.135509 
L 316.277529 83.135459 
L 316.563691 87.11167 
L 317.134704 87.111769 
L 317.42092 83.37653 
L 317.707021 84.46083 
L 317.996769 84.461127 
L 318.278622 86.448935 
L 318.563343 87.111769 
L 318.84882 88.436942 
L 319.134951 85.78625 
L 319.994748 85.78625 
L 320.281992 87.11167 
L 320.564853 87.111571 
L 320.849014 84.460929 
L 321.136202 87.111571 
L 321.708737 81.810138 
L 321.99497 87.111422 
L 322.278326 88.43709 
L 322.565994 84.46083 
L 322.851659 84.461028 
L 323.136138 85.78625 
L 323.422051 85.78625 
L 323.708265 84.46083 
L 323.991421 84.46083 
L 324.278316 88.436991 
L 324.567424 85.78625 
L 324.849135 84.460731 
L 325.135037 88.43709 
L 325.423961 87.11167 
L 325.709849 88.43709 
L 325.992784 88.436793 
L 326.278915 89.762213 
L 326.567451 88.43709 
L 326.850373 87.774207 
L 327.135053 89.762362 
L 327.420939 88.436942 
L 327.709563 85.123614 
L 327.994492 85.78625 
L 328.280157 88.436942 
L 328.851945 83.135509 
L 329.137432 87.111373 
L 329.423475 87.11167 
L 329.706236 87.774355 
L 329.992022 82.889824 
L 330.566374 85.78625 
L 330.855029 88.436942 
L 331.134837 87.11167 
L 331.420114 87.111472 
L 331.706702 88.436942 
L 331.991413 88.436793 
L 332.280901 83.135558 
L 332.563219 85.78625 
L 332.851859 87.11167 
L 333.137148 84.460979 
L 333.419815 85.78625 
L 333.992089 83.13541 
L 334.276978 85.155168 
L 334.565941 84.46083 
L 334.852354 84.460731 
L 335.137671 85.78625 
L 335.709447 81.810138 
L 335.991341 81.810138 
L 336.280272 82.472824 
L 336.566803 81.810039 
L 336.84991 84.460731 
L 337.135526 84.461028 
L 337.422411 81.810188 
L 337.997 84.46078 
L 338.278699 83.135509 
L 338.852534 85.78625 
L 339.137126 85.123465 
L 339.425104 88.43709 
L 339.710712 83.135558 
L 339.992112 84.460979 
L 340.281606 88.436793 
L 340.563847 87.11167 
L 340.854171 87.11167 
L 341.14138 81.810287 
L 341.424771 87.11167 
L 341.710632 87.111819 
L 341.994844 83.135558 
L 342.28365 83.13541 
L 342.567496 85.78625 
L 342.850251 86.448886 
L 343.135158 83.135807 
L 343.424048 87.11167 
L 343.705799 81.810138 
L 343.992259 88.437041 
L 344.279583 88.196019 
L 344.56503 89.762312 
L 344.852869 88.436842 
L 345.140994 88.43714 
L 345.420425 87.111373 
L 345.710483 87.774157 
L 345.995629 87.111472 
L 346.283205 87.111819 
L 346.564153 89.762362 
L 346.852877 89.762511 
L 347.134784 88.43709 
L 347.420271 89.762213 
L 347.705724 92.413004 
L 348.277044 89.762362 
L 348.56267 91.087584 
L 348.852718 88.436942 
L 349.135252 89.762511 
L 349.426473 89.762263 
L 349.705587 92.413252 
L 350.277763 85.78625 
L 350.563969 88.436991 
L 350.849749 88.436991 
L 351.421402 80.484619 
L 351.706022 79.159596 
L 351.991099 79.405082 
L 352.27742 77.834076 
L 352.56457 79.159298 
L 352.851917 73.858113 
L 353.135937 73.858064 
L 353.419863 73.637086 
L 353.709341 64.580519 
L 353.992161 63.255248 
L 354.281684 63.917883 
L 354.564186 68.556432 
L 354.851096 61.929976 
L 355.137177 58.616351 
L 355.422407 56.628494 
L 355.990849 56.628494 
L 356.276147 55.303223 
L 356.565245 55.303223 
L 356.850828 51.326813 
L 357.135616 50.001393 
L 357.707484 43.374937 
L 358.278278 43.37459 
L 358.563659 40.723997 
L 359.136951 38.073405 
L 359.424483 35.422664 
L 359.993582 35.422713 
L 360.277011 36.747985 
L 360.565141 35.422664 
L 360.85075 37.410769 
L 361.134531 36.748034 
L 361.419957 39.398776 
L 361.708657 38.073405 
L 361.991777 38.073405 
L 362.27601 36.748084 
L 362.564368 37.591511 
L 362.847405 31.446651 
L 363.136738 35.422713 
L 363.420539 34.097343 
L 363.70489 37.821022 
L 363.99314 38.073455 
L 364.278382 42.049566 
L 364.566248 39.398776 
L 364.847979 42.049467 
L 365.132594 38.073405 
L 365.708344 40.723997 
L 365.99028 38.073504 
L 366.27592 42.049517 
L 366.564374 42.049418 
L 367.136262 44.454672 
L 367.421414 50.001641 
L 367.70392 51.326813 
L 367.990417 51.327111 
L 368.2761 53.977802 
L 368.560978 55.303074 
L 368.849224 53.977654 
L 369.134756 55.303074 
L 369.421157 55.302875 
L 369.70817 60.604407 
L 369.992378 57.953716 
L 370.278703 59.941871 
L 370.565028 59.278838 
L 370.848873 57.953914 
L 371.13277 65.90579 
L 371.419732 63.255148 
L 371.703718 68.55678 
L 372.282204 68.556482 
L 372.563316 71.207322 
L 372.852079 68.556581 
L 373.133561 68.556482 
L 373.421165 71.452908 
L 373.703652 67.231211 
L 374.278058 76.508656 
L 374.562646 75.183236 
L 374.849316 75.183385 
L 375.132194 75.477989 
L 375.420632 71.207422 
L 375.710038 76.508805 
L 376.277876 81.810287 
L 376.561679 80.484916 
L 376.850428 80.484916 
L 377.134675 76.508656 
L 377.706544 83.13541 
L 377.992152 84.460979 
L 378.278219 81.810138 
L 378.560547 81.810138 
L 378.8491 84.461127 
L 379.135408 85.78625 
L 379.420828 82.889873 
L 379.703802 86.448836 
L 379.990977 88.436942 
L 380.277666 88.437041 
L 380.563377 85.78625 
L 380.849406 91.087534 
L 381.135157 88.437041 
L 381.706381 88.437041 
L 381.988921 89.762362 
L 382.275598 89.762263 
L 382.56076 87.111571 
L 382.848928 88.436942 
L 383.134814 91.087683 
L 383.420495 88.436942 
L 383.706861 89.762511 
L 383.988837 87.111521 
L 384.277706 91.087782 
L 385.132071 91.087683 
L 385.417847 93.738374 
L 385.703371 92.413103 
L 386.277735 87.774207 
L 386.56385 92.413053 
L 386.849979 92.413004 
L 387.136083 91.087633 
L 387.421928 88.437041 
L 387.707776 87.111422 
L 387.992318 90.007749 
L 388.279249 89.762014 
L 388.562344 87.111769 
L 388.846713 91.087584 
L 389.419218 85.78625 
L 389.709121 87.111819 
L 389.990137 87.111521 
L 390.275845 91.087584 
L 390.565088 88.43709 
L 390.851066 84.46083 
L 391.140987 87.111521 
L 391.422083 87.11167 
L 391.993284 84.460681 
L 392.275912 81.809989 
L 392.561853 81.810138 
L 392.852917 86.483714 
L 393.135499 84.46083 
L 393.422586 84.460731 
L 393.995254 86.99106 
L 394.278079 89.762213 
L 394.564847 87.111472 
L 394.851485 89.762312 
L 395.14016 89.762114 
L 395.419935 88.437239 
L 395.705613 89.099528 
L 395.991936 91.087683 
L 396.281626 91.087931 
L 396.563327 89.762263 
L 396.851097 91.810599 
L 397.136142 89.762362 
L 397.418456 91.087782 
L 397.709508 89.762362 
L 398.275451 92.413004 
L 398.563082 89.099726 
L 398.847831 91.087584 
L 399.132215 91.087584 
L 399.417667 90.424997 
L 399.706841 88.436991 
L 400.283621 91.087584 
L 400.561161 89.762263 
L 400.847494 89.762362 
L 401.13573 91.087633 
L 401.421429 89.762213 
L 401.703402 89.762362 
L 401.992011 92.413053 
L 402.274476 91.750368 
L 402.563652 96.389264 
L 403.1364 96.389066 
L 403.418235 100.365376 
L 403.989761 103.01582 
L 404.278077 105.66671 
L 404.849789 99.039807 
L 405.137595 105.666412 
L 405.705386 105.66671 
L 406.56008 116.269377 
L 406.852983 118.920217 
L 407.135728 117.594797 
L 407.418043 120.245488 
L 407.706424 125.547169 
L 407.988243 127.534927 
L 408.27409 133.499145 
L 408.561839 133.499194 
L 408.850269 126.872341 
L 409.416999 132.173774 
L 409.702337 137.475008 
L 409.991879 132.173972 
L 410.276906 134.824515 
L 410.563509 133.499095 
L 410.84739 134.824416 
L 411.130785 132.173824 
L 411.420512 132.173526 
L 411.705783 131.928238 
L 411.990493 136.149588 
L 412.27758 136.149588 
L 412.560429 133.499095 
L 412.848381 136.149935 
L 413.420107 136.149935 
L 413.705678 130.848255 
L 413.987669 133.499095 
L 414.277064 130.847957 
L 414.559653 132.173675 
L 414.845898 128.197563 
L 415.134357 126.872292 
L 415.422879 126.87249 
L 415.705196 128.197563 
L 415.991249 124.221402 
L 416.278061 128.197563 
L 416.56223 128.197563 
L 416.848798 125.546921 
L 417.130313 126.872341 
L 417.705952 118.920167 
L 417.990305 117.594846 
L 418.275723 121.570859 
L 418.562428 116.269625 
L 418.849534 118.920068 
L 419.134661 117.594797 
L 419.416053 113.618933 
L 419.701741 112.293364 
L 419.990334 114.944006 
L 420.275337 112.293414 
L 420.559338 113.618586 
L 420.844717 112.293414 
L 421.133603 112.293364 
L 421.419394 114.944105 
L 421.702987 109.642474 
L 421.991462 106.991733 
L 422.276584 106.991931 
L 422.562238 108.317302 
L 422.844775 108.317401 
L 423.133783 107.237567 
L 423.419329 106.992179 
L 423.704919 104.341041 
L 423.989141 103.015869 
L 424.562502 103.016068 
L 424.844744 101.690548 
L 425.130327 104.341289 
L 425.416413 100.365078 
L 425.704295 100.365227 
L 425.989167 99.039857 
L 426.275672 100.365227 
L 426.558288 99.039807 
L 426.845237 97.051751 
L 427.133366 97.714536 
L 427.419317 95.063695 
L 427.701612 97.714387 
L 427.987913 93.738374 
L 428.279686 93.738275 
L 428.561065 92.413004 
L 428.847317 95.063646 
L 429.135228 93.738374 
L 429.416771 95.063646 
L 429.702334 95.063546 
L 429.986836 92.413202 
L 430.27454 93.738622 
L 430.5612 89.099676 
L 430.846765 92.412954 
L 431.415917 89.762362 
L 432.275631 89.762362 
L 432.561423 89.099577 
L 432.844611 87.111521 
L 433.130996 81.810486 
L 433.415647 85.123714 
L 433.702569 89.762362 
L 434.273169 84.46083 
L 434.558391 88.43709 
L 434.844566 88.436942 
L 435.133074 85.78625 
L 435.987647 85.78625 
L 436.273684 88.436793 
L 436.558656 87.357256 
L 436.843751 85.78625 
L 437.130556 81.810188 
L 437.418917 84.461127 
L 437.700811 84.460929 
L 437.989441 83.13536 
L 438.273363 84.461028 
L 438.560733 81.810188 
L 438.844256 83.135459 
L 439.132743 81.810188 
L 439.419485 77.834126 
L 439.70072 81.810237 
L 440.274839 81.810237 
L 440.558466 80.484718 
L 440.843784 80.484916 
L 441.132016 81.810287 
L 441.414826 84.46083 
L 441.702418 81.810089 
L 441.98901 81.810188 
L 442.274369 80.484817 
L 442.558503 80.484916 
L 442.845807 81.810237 
L 443.129055 79.159496 
L 443.414828 80.484916 
L 443.702622 80.484668 
L 443.986544 77.834374 
L 444.27629 80.484867 
L 444.560575 80.484768 
L 444.845603 83.135509 
L 445.131597 80.484817 
L 445.414292 81.810089 
L 445.702802 80.485065 
L 445.988393 80.484668 
L 446.273915 77.833977 
L 446.559098 84.460681 
L 446.847056 79.159298 
L 447.132424 79.159645 
L 447.41473 77.834225 
L 447.703807 81.810138 
L 447.99135 80.484718 
L 448.273746 81.810287 
L 448.84245 79.159298 
L 449.129817 81.810138 
L 449.415032 79.159496 
L 449.699606 84.461078 
L 449.985379 80.485065 
L 450.270799 81.810089 
L 451.128205 81.810287 
L 451.415296 82.472774 
L 451.700184 81.810188 
L 451.987717 84.460731 
L 452.27131 84.461127 
L 452.557461 79.159596 
L 452.843631 80.966513 
L 453.129194 84.46083 
L 453.41475 81.810089 
L 453.698883 83.135509 
L 453.985414 79.159298 
L 454.271598 85.78625 
L 454.556532 83.135558 
L 454.844236 84.46083 
L 455.127541 83.135558 
L 455.70052 85.78625 
L 456.271353 85.78625 
L 456.557094 87.11167 
L 456.841865 89.762511 
L 457.127163 87.11167 
L 457.699614 87.11167 
L 457.98512 85.78625 
L 458.555541 88.436743 
L 458.842244 85.78625 
L 459.127855 87.111521 
L 459.413667 87.111819 
L 459.69828 85.78625 
L 459.985006 87.111621 
L 460.269759 87.111769 
L 460.555438 91.087633 
L 460.84179 84.46083 
L 461.126727 91.087683 
L 461.412797 93.738474 
L 461.69867 88.436942 
L 461.983996 89.400829 
L 462.269753 89.762411 
L 462.556086 91.087683 
L 462.841686 87.11172 
L 463.127416 93.738225 
L 463.412509 91.087435 
L 463.698623 93.738622 
L 463.984307 92.412805 
L 464.270017 95.063844 
L 464.555774 91.750269 
L 464.841394 93.738275 
L 465.126965 92.413202 
L 465.412777 88.436942 
L 465.698164 93.738424 
L 466.555778 89.762362 
L 466.842119 93.738126 
L 467.126249 88.43709 
L 467.698376 93.738275 
L 467.983892 89.762362 
L 468.269631 91.087584 
L 468.55543 88.43709 
L 468.840815 88.436942 
L 469.127055 90.20397 
L 469.412511 89.762213 
L 469.698235 91.087782 
L 469.983761 88.437239 
L 470.269571 88.437239 
L 470.269571 88.437239 
" clip-path="url(#pdde0726c37)" style="fill: none; stroke: #0000ff; stroke-linecap: square"/>
   </g>
   <g id="line2d_46">
    <path d="M 295.979375 36.172917 
L 478.569105 36.172917 
" clip-path="url(#pdde0726c37)" style="fill: none; stroke-dasharray: 7.4,3.2; stroke-dashoffset: 0; stroke: #000000; stroke-opacity: 0.7; stroke-width: 2"/>
   </g>
   <g id="line2d_47">
    <path d="M 295.979375 135.399583 
L 478.569105 135.399583 
" clip-path="url(#pdde0726c37)" style="fill: none; stroke-dasharray: 7.4,3.2; stroke-dashoffset: 0; stroke: #000000; stroke-opacity: 0.7; stroke-width: 2"/>
   </g>
   <g id="patch_8">
    <path d="M 295.979375 160.20625 
L 295.979375 11.36625 
" style="fill: none; stroke: #000000; stroke-width: 0.8; stroke-linejoin: miter; stroke-linecap: square"/>
   </g>
   <g id="patch_9">
    <path d="M 478.569105 160.20625 
L 478.569105 11.36625 
" style="fill: none; stroke: #000000; stroke-width: 0.8; stroke-linejoin: miter; stroke-linecap: square"/>
   </g>
   <g id="patch_10">
    <path d="M 295.979375 160.20625 
L 478.569105 160.20625 
" style="fill: none; stroke: #000000; stroke-width: 0.8; stroke-linejoin: miter; stroke-linecap: square"/>
   </g>
   <g id="patch_11">
    <path d="M 295.979375 11.36625 
L 478.569105 11.36625 
" style="fill: none; stroke: #000000; stroke-width: 0.8; stroke-linejoin: miter; stroke-linecap: square"/>
   </g>
  </g>
 </g>
 <defs>
  <clipPath id="p124f301558">
   <rect x="50.099375" y="11.36625" width="182.58973" height="148.84"/>
  </clipPath>
  <clipPath id="pdde0726c37">
   <rect x="295.979375" y="11.36625" width="182.58973" height="148.84"/>
  </clipPath>
 </defs>
</svg>
