<?xml version="1.0" encoding="utf-8" standalone="no"?>
<!DOCTYPE svg PUBLIC "-//W3C//DTD SVG 1.1//EN"
  "http://www.w3.org/Graphics/SVG/1.1/DTD/svg11.dtd">
<svg xmlns:xlink="http://www.w3.org/1999/xlink" width="258.51pt" height="95.859375pt" viewBox="0 0 258.51 95.859375" xmlns="http://www.w3.org/2000/svg" version="1.1">
 <metadata>
  <rdf:RDF xmlns:dc="http://purl.org/dc/elements/1.1/" xmlns:cc="http://creativecommons.org/ns#" xmlns:rdf="http://www.w3.org/1999/02/22-rdf-syntax-ns#">
   <cc:Work>
    <dc:type rdf:resource="http://purl.org/dc/dcmitype/StillImage"/>
    <dc:date>2026-01-18T23:30:36.651922</dc:date>
    <dc:format>image/svg+xml</dc:format>
    <dc:creator>
     <cc:Agent>
      <dc:title>Matplotlib v3.6.3, https://matplotlib.org/</dc:title>
     </cc:Agent>
    </dc:creator>
   </cc:Work>
  </rdf:RDF>
 </metadata>
 <defs>
  <style type="text/css">*{stroke-linejoin: round; stroke-linecap: butt}</style>
 </defs>
 <g id="figure_1">
  <g id="patch_1">
   <path d="M 0 95.859375 
L 258.51 95.859375 
L 258.51 0 
L 0 0 
z
" style="fill: #ffffff"/>
  </g>
  <g id="axes_1">
   <g id="patch_2">
    <path d="M 35.2 70.76 
L 126.885 70.76 
L 126.885 7.2 
L 35.2 7.2 
z
" style="fill: #ffffff"/>
   </g>
   <g id="matplotlib.axis_1">
    <g id="xtick_1">
     <g id="line2d_1">
      <path d="M 39.3675 70.76 
L 39.3675 7.2 
" clip-path="url(#p5775a1f13f)" style="fill: none; stroke: #b0b0b0; stroke-opacity: 0.3; stroke-width: 0.8; stroke-linecap: square"/>
     </g>
     <g id="line2d_2">
      <defs>
       <path id="md7fae8fa65" d="M 0 0 
L 0 3.5 
" style="stroke: #000000; stroke-width: 0.8"/>
      </defs>
      <g>
       <use xlink:href="#md7fae8fa65" x="39.3675" y="70.76" style="stroke: #000000; stroke-width: 0.8"/>
      </g>
     </g>
     <g id="text_1">
      <!-- 0 -->
      <g transform="translate(36.3675 86.0925) scale(0.12 -0.12)">
       <defs>
        <path id="TimesNewRomanPSMT-30" d="M 231 2094 
Q 231 2819 450 3342 
Q 669 3866 1031 4122 
Q 1313 4325 1613 4325 
Q 2100 4325 2488 3828 
Q 2972 3213 2972 2159 
Q 2972 1422 2759 906 
Q 2547 391 2217 158 
Q 1888 -75 1581 -75 
Q 975 -75 572 641 
Q 231 1244 231 2094 
z
M 844 2016 
Q 844 1141 1059 588 
Q 1238 122 1591 122 
Q 1759 122 1940 273 
Q 2122 425 2216 781 
Q 2359 1319 2359 2297 
Q 2359 3022 2209 3506 
Q 2097 3866 1919 4016 
Q 1791 4119 1609 4119 
Q 1397 4119 1231 3928 
Q 1006 3669 925 3112 
Q 844 2556 844 2016 
z
" transform="scale(0.015625)"/>
       </defs>
       <use xlink:href="#TimesNewRomanPSMT-30"/>
      </g>
     </g>
    </g>
    <g id="xtick_2">
     <g id="line2d_3">
      <path d="M 109.410118 70.76 
L 109.410118 7.2 
" clip-path="url(#p5775a1f13f)" style="fill: none; stroke: #b0b0b0; stroke-opacity: 0.3; stroke-width: 0.8; stroke-linecap: square"/>
     </g>
     <g id="line2d_4">
      <g>
       <use xlink:href="#md7fae8fa65" x="109.410118" y="70.76" style="stroke: #000000; stroke-width: 0.8"/>
      </g>
     </g>
     <g id="text_2">
      <!-- 20 -->
      <g transform="translate(103.410118 86.0925) scale(0.12 -0.12)">
       <defs>
        <path id="TimesNewRomanPSMT-32" d="M 2934 816 
L 2638 0 
L 138 0 
L 138 116 
Q 1241 1122 1691 1759 
Q 2141 2397 2141 2925 
Q 2141 3328 1894 3587 
Q 1647 3847 1303 3847 
Q 991 3847 742 3664 
Q 494 3481 375 3128 
L 259 3128 
Q 338 3706 661 4015 
Q 984 4325 1469 4325 
Q 1984 4325 2329 3994 
Q 2675 3663 2675 3213 
Q 2675 2891 2525 2569 
Q 2294 2063 1775 1497 
Q 997 647 803 472 
L 1909 472 
Q 2247 472 2383 497 
Q 2519 522 2628 598 
Q 2738 675 2819 816 
L 2934 816 
z
" transform="scale(0.015625)"/>
       </defs>
       <use xlink:href="#TimesNewRomanPSMT-32"/>
       <use xlink:href="#TimesNewRomanPSMT-30" x="50"/>
      </g>
     </g>
    </g>
   </g>
   <g id="matplotlib.axis_2">
    <g id="ytick_1">
     <g id="line2d_5">
      <path d="M 35.2 67.870909 
L 126.885 67.870909 
" clip-path="url(#p5775a1f13f)" style="fill: none; stroke: #b0b0b0; stroke-opacity: 0.3; stroke-width: 0.8; stroke-linecap: square"/>
     </g>
     <g id="line2d_6">
      <defs>
       <path id="mf926b9ca81" d="M 0 0 
L -3.5 0 
" style="stroke: #000000; stroke-width: 0.8"/>
      </defs>
      <g>
       <use xlink:href="#mf926b9ca81" x="35.2" y="67.870909" style="stroke: #000000; stroke-width: 0.8"/>
      </g>
     </g>
     <g id="text_3">
      <!-- 0.00 -->
      <g transform="translate(7.2 72.037159) scale(0.12 -0.12)">
       <defs>
        <path id="TimesNewRomanPSMT-2e" d="M 800 606 
Q 947 606 1047 504 
Q 1147 403 1147 259 
Q 1147 116 1045 14 
Q 944 -88 800 -88 
Q 656 -88 554 14 
Q 453 116 453 259 
Q 453 406 554 506 
Q 656 606 800 606 
z
" transform="scale(0.015625)"/>
       </defs>
       <use xlink:href="#TimesNewRomanPSMT-30"/>
       <use xlink:href="#TimesNewRomanPSMT-2e" x="50"/>
       <use xlink:href="#TimesNewRomanPSMT-30" x="75"/>
       <use xlink:href="#TimesNewRomanPSMT-30" x="125"/>
      </g>
     </g>
    </g>
    <g id="ytick_2">
     <g id="line2d_7">
      <path d="M 35.2 40.951923 
L 126.885 40.951923 
" clip-path="url(#p5775a1f13f)" style="fill: none; stroke: #b0b0b0; stroke-opacity: 0.3; stroke-width: 0.8; stroke-linecap: square"/>
     </g>
     <g id="line2d_8">
      <g>
       <use xlink:href="#mf926b9ca81" x="35.2" y="40.951923" style="stroke: #000000; stroke-width: 0.8"/>
      </g>
     </g>
     <g id="text_4">
      <!-- 0.25 -->
      <g transform="translate(7.2 45.118173) scale(0.12 -0.12)">
       <defs>
        <path id="TimesNewRomanPSMT-35" d="M 2778 4238 
L 2534 3706 
L 1259 3706 
L 981 3138 
Q 1809 3016 2294 2522 
Q 2709 2097 2709 1522 
Q 2709 1188 2573 903 
Q 2438 619 2231 419 
Q 2025 219 1772 97 
Q 1413 -75 1034 -75 
Q 653 -75 479 54 
Q 306 184 306 341 
Q 306 428 378 495 
Q 450 563 559 563 
Q 641 563 702 538 
Q 763 513 909 409 
Q 1144 247 1384 247 
Q 1750 247 2026 523 
Q 2303 800 2303 1197 
Q 2303 1581 2056 1914 
Q 1809 2247 1375 2428 
Q 1034 2569 447 2591 
L 1259 4238 
L 2778 4238 
z
" transform="scale(0.015625)"/>
       </defs>
       <use xlink:href="#TimesNewRomanPSMT-30"/>
       <use xlink:href="#TimesNewRomanPSMT-2e" x="50"/>
       <use xlink:href="#TimesNewRomanPSMT-32" x="75"/>
       <use xlink:href="#TimesNewRomanPSMT-35" x="125"/>
      </g>
     </g>
    </g>
    <g id="ytick_3">
     <g id="line2d_9">
      <path d="M 35.2 14.032938 
L 126.885 14.032938 
" clip-path="url(#p5775a1f13f)" style="fill: none; stroke: #b0b0b0; stroke-opacity: 0.3; stroke-width: 0.8; stroke-linecap: square"/>
     </g>
     <g id="line2d_10">
      <g>
       <use xlink:href="#mf926b9ca81" x="35.2" y="14.032938" style="stroke: #000000; stroke-width: 0.8"/>
      </g>
     </g>
     <g id="text_5">
      <!-- 0.50 -->
      <g transform="translate(7.2 18.199188) scale(0.12 -0.12)">
       <use xlink:href="#TimesNewRomanPSMT-30"/>
       <use xlink:href="#TimesNewRomanPSMT-2e" x="50"/>
       <use xlink:href="#TimesNewRomanPSMT-35" x="75"/>
       <use xlink:href="#TimesNewRomanPSMT-30" x="125"/>
      </g>
     </g>
    </g>
   </g>
   <g id="line2d_11">
    <path d="M 39.3675 66.076274 
L 42.753862 14.032938 
L 51.041064 14.032938 
L 51.274906 17.6221 
L 51.509318 14.032938 
L 57.578847 14.032938 
L 58.395928 26.595167 
L 58.514211 24.800532 
L 59.798272 44.541086 
L 59.914889 43.844315 
L 60.848861 29.487558 
L 62.715818 58.180074 
L 63.065828 55.997806 
L 63.182034 55.253011 
L 63.533897 50.612717 
L 64.234069 46.826938 
L 65.401269 40.951923 
L 68.319441 40.951923 
L 68.435199 40.275503 
L 68.551864 40.951923 
L 68.670081 40.951923 
L 68.785487 40.506683 
L 68.903258 40.69307 
L 69.019793 39.904129 
L 69.135659 40.951923 
L 69.252323 39.568288 
L 69.370586 40.64397 
L 69.485921 39.691899 
L 69.603561 40.002222 
L 69.719279 40.951923 
L 71.121396 19.416735 
L 71.238212 19.598384 
L 71.70371 14.032938 
L 84.896907 14.032938 
L 85.478954 23.005897 
L 85.82925 17.6221 
L 86.996596 35.568126 
L 87.114812 33.773491 
L 88.748013 58.89795 
L 89.798296 42.812025 
L 91.08217 61.652085 
L 91.315843 58.723838 
L 91.666031 54.474514 
L 92.251135 50.330929 
L 92.95147 47.314603 
L 94.002388 40.951923 
L 96.335277 40.951923 
L 96.570733 42.110732 
L 96.685872 40.951923 
L 97.854302 40.951923 
L 97.970877 39.979287 
L 98.087698 40.951923 
L 98.204579 39.625894 
L 98.321223 40.951923 
L 98.437769 40.951923 
L 98.554577 39.157288 
L 98.671324 40.951923 
L 98.7883 40.320727 
L 98.904824 38.5262 
L 99.02032 40.320727 
L 99.255055 36.731565 
L 99.372108 38.5262 
L 101.005083 14.032938 
L 101.122772 14.032938 
L 101.472711 19.416735 
L 101.823243 14.032938 
L 114.196457 14.032938 
L 114.313831 14.655951 
L 114.779442 21.12286 
L 115.363608 27.801137 
L 116.180083 35.727379 
L 116.530357 39.131877 
L 116.997281 43.078954 
L 117.114056 43.500613 
L 117.347462 45.660377 
L 117.814773 48.198945 
L 118.631566 51.359665 
L 118.981661 52.217842 
L 119.215723 52.982018 
L 119.448621 55.796667 
L 119.799102 57.230911 
L 119.915559 57.611222 
L 120.032606 55.816695 
L 120.149143 55.780516 
L 120.732958 56.685101 
L 121.083095 60.846131 
L 121.900319 62.171083 
L 122.017037 62.218676 
L 122.250569 62.487112 
L 122.7175 62.487112 
L 122.7175 62.487112 
" clip-path="url(#p5775a1f13f)" style="fill: none; stroke: #ff0000; stroke-opacity: 0.8; stroke-width: 2; stroke-linecap: square"/>
   </g>
   <g id="line2d_12">
    <path d="M 39.3675 67.870909 
L 39.835513 67.870909 
L 39.952299 66.444095 
L 40.184452 60.737378 
L 40.418044 57.883965 
L 40.535835 57.883965 
L 40.653163 55.743906 
L 40.769894 56.457259 
L 41.001911 45.043609 
L 41.235131 42.190197 
L 41.586111 33.629852 
L 41.703343 35.769911 
L 41.820226 33.629959 
L 41.936679 28.63638 
L 42.053445 29.349841 
L 42.170582 29.349733 
L 42.520451 20.789603 
L 43.104067 11.516228 
L 43.220171 11.383786 
L 43.337033 10.089091 
L 43.454411 10.802767 
L 43.571779 12.229366 
L 43.686827 11.516013 
L 43.920318 15.082778 
L 44.036952 14.369425 
L 44.154782 12.942719 
L 44.271646 13.656072 
L 44.505271 15.796131 
L 44.73861 13.299449 
L 44.855539 15.082778 
L 44.970871 12.942719 
L 45.205445 15.082778 
L 45.322127 15.082778 
L 45.439046 13.656072 
L 45.55567 13.656072 
L 45.672524 14.369425 
L 45.789033 12.942719 
L 45.906101 14.369425 
L 46.02156 14.369425 
L 46.138256 15.082778 
L 46.256446 14.369425 
L 46.372254 12.229366 
L 46.488686 12.942719 
L 46.606232 14.726048 
L 46.838599 14.369425 
L 46.955447 15.082778 
L 47.189505 13.396681 
L 47.424089 13.656072 
L 47.538949 12.942826 
L 47.657276 15.082886 
L 47.773039 14.369425 
L 47.889203 14.369425 
L 48.122945 12.942611 
L 48.240958 12.942826 
L 48.356133 14.369533 
L 48.474366 13.656072 
L 48.824381 15.082563 
L 48.941074 13.656072 
L 49.173362 13.656072 
L 49.290415 12.942934 
L 49.408029 15.082886 
L 49.640259 15.082778 
L 49.757641 13.656072 
L 49.874875 14.369317 
L 49.991749 14.369425 
L 50.10862 14.012802 
L 50.225347 14.369425 
L 50.341912 16.509484 
L 50.57477 12.942611 
L 50.690907 12.942719 
L 50.92481 15.082778 
L 51.041064 15.082778 
L 51.158503 12.942719 
L 51.274906 13.299449 
L 51.509318 15.082778 
L 51.62612 12.942719 
L 51.860307 17.222837 
L 51.975267 15.082778 
L 52.092672 15.796131 
L 52.209356 14.369425 
L 52.443855 14.369425 
L 52.560489 12.942611 
L 52.675814 12.942611 
L 52.793171 15.082778 
L 52.91068 12.229366 
L 53.027736 12.942719 
L 53.377176 16.509484 
L 53.492835 15.796239 
L 53.61122 14.369317 
L 53.844836 15.796131 
L 53.961195 14.369425 
L 54.078487 15.082886 
L 54.194164 14.369533 
L 54.310307 15.08267 
L 54.427164 15.082886 
L 54.54444 12.942611 
L 54.661393 15.796131 
L 54.777567 13.656072 
L 54.893984 14.369533 
L 55.011894 12.229366 
L 55.128747 14.726155 
L 55.244135 14.369425 
L 55.362465 15.082886 
L 55.47928 16.509592 
L 55.5951 13.655964 
L 55.712741 14.369425 
L 55.828881 13.655964 
L 56.061426 13.656072 
L 56.178561 15.082778 
L 56.296107 12.942719 
L 56.412269 12.942611 
L 56.529867 14.369425 
L 56.761561 14.369425 
L 56.879399 15.796131 
L 56.996691 14.369425 
L 57.11231 14.369425 
L 57.34696 15.796131 
L 57.578847 13.656072 
L 57.695484 12.942719 
L 57.930153 15.082778 
L 58.045681 12.942719 
L 58.746187 29.349841 
L 58.865287 26.496536 
L 58.979747 30.776547 
L 59.096209 29.349733 
L 59.214342 29.349841 
L 59.44639 35.056773 
L 59.680067 35.056558 
L 59.798272 42.90355 
L 59.914889 42.190197 
L 60.031721 42.903442 
L 60.265245 45.75707 
L 60.381125 45.043609 
L 60.498049 43.616903 
L 60.965598 32.203145 
L 61.082244 34.343205 
L 61.315702 29.706463 
L 61.432772 30.063409 
L 61.547665 31.357674 
L 61.664371 30.776547 
L 61.899221 41.930805 
L 62.249453 49.323728 
L 62.366318 47.897129 
L 62.483451 51.463787 
L 62.599665 47.183669 
L 62.833078 53.247116 
L 62.948834 53.603739 
L 63.182034 59.667294 
L 63.298808 60.024132 
L 63.533897 58.597319 
L 63.882419 50.750434 
L 63.99913 50.393704 
L 64.117014 48.610375 
L 64.234069 49.323728 
L 64.467335 46.470315 
L 64.582792 45.756855 
L 64.699642 46.470315 
L 64.817513 45.75707 
L 64.933325 47.183669 
L 65.04982 43.617011 
L 65.166558 43.617011 
L 65.284647 41.476736 
L 65.401269 41.476951 
L 65.518143 42.90355 
L 65.634844 39.336892 
L 65.867089 41.476951 
L 65.98369 41.476736 
L 66.102045 37.910078 
L 66.335252 41.476736 
L 66.450675 40.050137 
L 66.801849 42.190089 
L 66.918609 40.76349 
L 67.150952 42.190197 
L 67.384692 42.190197 
L 67.501769 40.050137 
L 67.619077 40.050137 
L 67.735164 41.476844 
L 68.085587 40.763598 
L 68.202374 42.90355 
L 68.319441 42.190197 
L 68.435199 40.05003 
L 68.551864 40.763598 
L 68.785487 40.763383 
L 68.903258 41.476736 
L 69.019793 40.763383 
L 69.135659 41.476736 
L 69.252323 40.633741 
L 69.370586 41.833574 
L 69.485921 40.763598 
L 69.603561 41.476844 
L 69.719279 42.903442 
L 69.953747 39.336784 
L 70.070363 40.050137 
L 70.186136 41.476844 
L 70.303378 37.196617 
L 70.420324 37.19694 
L 70.771144 29.349841 
L 70.887144 29.349948 
L 71.121396 20.789711 
L 71.238212 22.929555 
L 71.470219 17.222837 
L 71.587267 19.362897 
L 71.70371 14.369425 
L 71.82173 17.936191 
L 71.938588 17.222945 
L 72.405291 11.516013 
L 72.638874 14.369425 
L 72.755733 15.082778 
L 72.871967 12.942719 
L 73.104507 15.796131 
L 73.222585 14.012802 
L 73.339753 14.369425 
L 73.455927 12.942719 
L 73.689451 14.369425 
L 73.806148 15.796131 
L 74.041618 12.942719 
L 74.155876 15.082778 
L 74.272932 12.942826 
L 74.389088 14.369425 
L 74.506106 13.65618 
L 74.623565 13.655964 
L 74.739174 15.082886 
L 74.857132 12.229366 
L 75.089348 15.08267 
L 75.206186 13.656072 
L 75.323795 13.656072 
L 75.557818 15.08267 
L 75.789503 12.09714 
L 76.022871 16.509592 
L 76.257544 12.942611 
L 76.374442 15.082886 
L 76.60787 13.656287 
L 76.72474 14.19962 
L 76.840879 12.942611 
L 76.958502 12.942611 
L 77.307645 15.796131 
L 77.423828 12.942719 
L 77.541971 15.082778 
L 77.658456 14.369425 
L 77.774026 15.796131 
L 78.008579 14.369425 
L 78.12588 15.082778 
L 78.2411 13.656072 
L 78.358488 13.656072 
L 78.708996 15.796131 
L 78.825776 14.369425 
L 78.943129 15.082778 
L 79.176057 13.656072 
L 79.291781 13.656072 
L 79.409524 14.369425 
L 79.526788 14.369425 
L 79.643664 15.082778 
L 79.760996 15.082778 
L 79.875561 14.369425 
L 80.110273 14.369425 
L 80.227814 15.082778 
L 80.45942 12.942611 
L 80.576019 14.369317 
L 80.692911 13.656072 
L 80.811131 14.369425 
L 80.927935 13.656072 
L 81.044089 14.369533 
L 81.27668 12.942611 
L 81.393393 15.082886 
L 81.510692 12.810385 
L 81.628268 12.942826 
L 81.744998 15.796024 
L 81.862005 12.942826 
L 81.978872 15.796131 
L 82.095723 15.08267 
L 82.327272 15.08267 
L 82.445774 12.942611 
L 82.562869 13.656072 
L 82.678252 12.942826 
L 82.796013 12.942719 
L 82.910849 15.082778 
L 83.027938 14.369425 
L 83.1447 12.942826 
L 83.379557 15.796131 
L 83.496624 14.369425 
L 83.61216 14.369425 
L 83.728236 12.942719 
L 83.84489 14.369425 
L 83.963831 13.656072 
L 84.078366 15.796131 
L 84.312901 15.796131 
L 84.430351 14.369425 
L 84.545811 14.369425 
L 84.663957 15.082778 
L 84.780268 14.369425 
L 85.013555 14.369425 
L 85.130591 12.942719 
L 85.246845 13.656072 
L 85.598241 22.216417 
L 85.71285 21.502956 
L 85.82925 25.783075 
L 86.064315 19.362897 
L 86.179586 22.216309 
L 86.297792 21.502956 
L 86.414013 21.502956 
L 86.529737 19.362789 
L 86.64674 20.076358 
L 86.764141 22.216309 
L 86.996596 29.349948 
L 87.114812 31.84663 
L 87.34695 38.623539 
L 87.463406 37.196725 
L 87.696956 41.714592 
L 87.814101 42.189981 
L 87.932185 39.627402 
L 88.047229 42.903658 
L 88.16446 42.903442 
L 88.98104 61.318505 
L 89.099191 60.737378 
L 89.215507 57.17072 
L 89.33209 57.17072 
L 89.448897 57.527235 
L 89.565215 56.19776 
L 90.149871 40.763383 
L 90.382851 44.330471 
L 90.500017 44.330471 
L 90.61569 47.183669 
L 90.9681 60.024132 
L 91.08217 56.457367 
L 91.315843 60.024132 
L 91.432524 65.276888 
L 91.551116 65.017497 
L 91.666031 64.304143 
L 92.134167 51.463895 
L 92.251135 52.177033 
L 92.483027 48.967105 
L 92.599935 50.036973 
L 92.71786 49.323728 
L 92.834675 50.037189 
L 92.95147 47.183669 
L 93.184884 49.323728 
L 93.417028 47.183669 
L 93.651925 44.330256 
L 93.767194 44.330148 
L 94.11753 40.050137 
L 94.351056 41.476844 
L 94.584415 39.336892 
L 94.702553 40.050245 
L 94.819083 40.05003 
L 94.934988 38.623431 
L 95.401404 43.616903 
L 95.519219 43.617011 
L 95.75295 40.050245 
L 95.869413 40.76349 
L 95.986372 38.980162 
L 96.102123 39.336784 
L 96.219231 39.336677 
L 96.335277 37.910078 
L 96.570733 42.903442 
L 96.685872 42.190304 
L 96.802885 42.190089 
L 96.919042 40.763383 
L 97.03708 42.190304 
L 97.15325 41.120113 
L 97.26961 42.190197 
L 97.385969 41.476844 
L 97.504176 42.190197 
L 97.619845 41.476844 
L 97.737619 40.050137 
L 97.854302 41.476844 
L 97.970877 40.05003 
L 98.087698 41.476844 
L 98.204579 40.76349 
L 98.437769 42.190197 
L 98.554577 38.623539 
L 98.671324 42.190304 
L 98.7883 41.930913 
L 98.904824 38.623539 
L 99.02032 45.043609 
L 99.138253 40.76349 
L 99.255055 40.763383 
L 99.372108 43.617011 
L 99.606012 35.769911 
L 99.720691 40.050245 
L 100.070966 30.063194 
L 100.189033 27.923134 
L 100.305898 30.776547 
L 100.655614 22.929662 
L 100.771355 23.643016 
L 101.355869 12.229366 
L 101.706862 16.509484 
L 101.938941 16.509484 
L 102.057229 15.082778 
L 102.172188 16.509484 
L 102.289329 16.509592 
L 102.524218 13.299449 
L 102.640866 15.082778 
L 102.756064 14.369425 
L 102.87291 14.369425 
L 103.106299 12.942611 
L 103.457416 15.08267 
L 103.573398 13.656072 
L 103.689862 14.369425 
L 103.806735 14.369425 
L 103.924456 12.229366 
L 104.156972 14.237414 
L 104.274837 13.523846 
L 104.390519 14.369425 
L 104.508003 13.656072 
L 104.624793 12.229473 
L 104.740557 12.942611 
L 104.859235 14.369425 
L 104.97407 14.369425 
L 105.090819 12.229473 
L 105.324781 15.796131 
L 105.441008 15.796131 
L 105.558246 12.942719 
L 105.67449 13.656072 
L 105.791171 13.65618 
L 105.908163 12.942826 
L 106.260458 12.942719 
L 106.374737 13.656072 
L 106.491545 12.942719 
L 106.726144 15.796131 
L 106.959464 12.942719 
L 107.075192 15.082778 
L 107.192216 14.012802 
L 107.308886 14.369425 
L 107.543322 12.942719 
L 107.660502 15.082778 
L 107.776344 13.656072 
L 107.893619 13.656072 
L 108.009434 12.229366 
L 108.243549 15.796131 
L 108.359543 14.369425 
L 108.477504 15.082778 
L 108.710033 12.942719 
L 108.944046 15.08267 
L 109.061849 14.369533 
L 109.176395 11.516013 
L 109.293108 14.369533 
L 109.409941 13.656072 
L 109.526525 14.369425 
L 109.643437 13.656072 
L 109.760136 16.509484 
L 109.993565 12.942611 
L 110.110853 15.796024 
L 110.343733 13.656072 
L 110.46059 13.656072 
L 110.577142 15.082886 
L 110.694812 12.942826 
L 110.810697 12.942826 
L 111.04399 14.369425 
L 111.161834 15.796239 
L 111.395051 12.942719 
L 111.511857 15.796131 
L 111.627711 15.558383 
L 111.745192 12.942826 
L 111.862274 15.082778 
L 112.095051 13.656072 
L 112.21143 13.656072 
L 112.445225 15.082778 
L 112.795589 12.942719 
L 112.912187 14.369425 
L 113.029764 13.656072 
L 113.262497 13.656072 
L 113.37877 14.369425 
L 113.495639 14.369425 
L 113.612226 13.656072 
L 113.729412 14.012695 
L 113.846253 15.082778 
L 113.962435 15.082778 
L 114.196457 13.18036 
L 114.313831 14.369425 
L 114.546564 12.942719 
L 114.66283 15.082778 
L 114.779442 13.65618 
L 115.129441 22.929662 
L 115.246674 24.356476 
L 115.363608 24.356476 
L 115.480201 22.929555 
L 115.830359 32.916714 
L 116.180083 28.636595 
L 116.530357 37.910078 
L 116.647249 37.910078 
L 116.764279 37.196725 
L 116.997281 46.470315 
L 117.114056 39.336784 
L 117.347462 44.330041 
L 117.464277 44.330256 
L 117.580814 47.183669 
L 117.697911 46.470315 
L 117.814773 44.330256 
L 117.931418 47.183776 
L 118.047873 46.470208 
L 118.164642 47.183776 
L 118.281373 51.463787 
L 118.398144 50.037189 
L 118.514901 51.463787 
L 118.631566 51.463787 
L 118.748476 50.393704 
L 118.865329 53.603739 
L 118.981661 52.890494 
L 119.098681 53.247116 
L 119.215723 52.890494 
L 119.332501 54.3172 
L 119.448621 51.46368 
L 119.565509 52.890494 
L 119.682286 52.17714 
L 119.799102 52.890601 
L 120.032606 57.883965 
L 120.149143 57.170612 
L 120.265775 60.024025 
L 120.382528 57.170612 
L 120.499467 58.597211 
L 120.616411 57.170612 
L 120.732958 57.170612 
L 120.966586 55.743906 
L 121.083095 56.457259 
L 121.199953 55.743798 
L 121.316484 57.883965 
L 121.433559 57.170612 
L 121.550045 57.883965 
L 121.666921 62.164084 
L 121.783315 62.164192 
L 121.900319 62.877437 
L 122.017037 64.304143 
L 122.250569 62.877437 
L 122.367115 63.590683 
L 122.600661 62.520815 
L 122.7175 62.164192 
L 122.7175 62.164192 
" clip-path="url(#p5775a1f13f)" style="fill: none; stroke: #0000ff; stroke-width: 2; stroke-linecap: square"/>
   </g>
   <g id="line2d_13">
    <path d="M 35.2 14.032938 
L 126.885 14.032938 
" clip-path="url(#p5775a1f13f)" style="fill: none; stroke-dasharray: 3.7,1.6; stroke-dashoffset: 0; stroke: #000000; stroke-opacity: 0.7"/>
   </g>
   <g id="patch_3">
    <path d="M 35.2 70.76 
L 35.2 7.2 
" style="fill: none; stroke: #000000; stroke-width: 0.8; stroke-linejoin: miter; stroke-linecap: square"/>
   </g>
   <g id="patch_4">
    <path d="M 126.885 70.76 
L 126.885 7.2 
" style="fill: none; stroke: #000000; stroke-width: 0.8; stroke-linejoin: miter; stroke-linecap: square"/>
   </g>
   <g id="patch_5">
    <path d="M 35.2 70.76 
L 126.885 70.76 
" style="fill: none; stroke: #000000; stroke-width: 0.8; stroke-linejoin: miter; stroke-linecap: square"/>
   </g>
   <g id="patch_6">
    <path d="M 35.2 7.2 
L 126.885 7.2 
" style="fill: none; stroke: #000000; stroke-width: 0.8; stroke-linejoin: miter; stroke-linecap: square"/>
   </g>
  </g>
  <g id="axes_2">
   <g id="patch_7">
    <path d="M 159.625 70.76 
L 251.31 70.76 
L 251.31 7.2 
L 159.625 7.2 
z
" style="fill: #ffffff"/>
   </g>
   <g id="matplotlib.axis_3">
    <g id="xtick_3">
     <g id="line2d_14">
      <path d="M 163.7925 70.76 
L 163.7925 7.2 
" clip-path="url(#p4acfde0a2a)" style="fill: none; stroke: #b0b0b0; stroke-opacity: 0.3; stroke-width: 0.8; stroke-linecap: square"/>
     </g>
     <g id="line2d_15">
      <g>
       <use xlink:href="#md7fae8fa65" x="163.7925" y="70.76" style="stroke: #000000; stroke-width: 0.8"/>
      </g>
     </g>
     <g id="text_6">
      <!-- 0 -->
      <g transform="translate(160.7925 86.0925) scale(0.12 -0.12)">
       <use xlink:href="#TimesNewRomanPSMT-30"/>
      </g>
     </g>
    </g>
    <g id="xtick_4">
     <g id="line2d_16">
      <path d="M 233.835118 70.76 
L 233.835118 7.2 
" clip-path="url(#p4acfde0a2a)" style="fill: none; stroke: #b0b0b0; stroke-opacity: 0.3; stroke-width: 0.8; stroke-linecap: square"/>
     </g>
     <g id="line2d_17">
      <g>
       <use xlink:href="#md7fae8fa65" x="233.835118" y="70.76" style="stroke: #000000; stroke-width: 0.8"/>
      </g>
     </g>
     <g id="text_7">
      <!-- 20 -->
      <g transform="translate(227.835118 86.0925) scale(0.12 -0.12)">
       <use xlink:href="#TimesNewRomanPSMT-32"/>
       <use xlink:href="#TimesNewRomanPSMT-30" x="50"/>
      </g>
     </g>
    </g>
   </g>
   <g id="matplotlib.axis_4">
    <g id="ytick_4">
     <g id="line2d_18">
      <path d="M 159.625 60.166667 
L 251.31 60.166667 
" clip-path="url(#p4acfde0a2a)" style="fill: none; stroke: #b0b0b0; stroke-opacity: 0.3; stroke-width: 0.8; stroke-linecap: square"/>
     </g>
     <g id="line2d_19">
      <g>
       <use xlink:href="#mf926b9ca81" x="159.625" y="60.166667" style="stroke: #000000; stroke-width: 0.8"/>
      </g>
     </g>
     <g id="text_8">
      <!-- −1 -->
      <g transform="translate(139.858125 64.332917) scale(0.12 -0.12)">
       <defs>
        <path id="TimesNewRomanPSMT-2212" d="M 3484 2000 
L 116 2000 
L 116 2256 
L 3484 2256 
L 3484 2000 
z
" transform="scale(0.015625)"/>
        <path id="TimesNewRomanPSMT-31" d="M 750 3822 
L 1781 4325 
L 1884 4325 
L 1884 747 
Q 1884 391 1914 303 
Q 1944 216 2037 169 
Q 2131 122 2419 116 
L 2419 0 
L 825 0 
L 825 116 
Q 1125 122 1212 167 
Q 1300 213 1334 289 
Q 1369 366 1369 747 
L 1369 3034 
Q 1369 3497 1338 3628 
Q 1316 3728 1258 3775 
Q 1200 3822 1119 3822 
Q 1003 3822 797 3725 
L 750 3822 
z
" transform="scale(0.015625)"/>
       </defs>
       <use xlink:href="#TimesNewRomanPSMT-2212"/>
       <use xlink:href="#TimesNewRomanPSMT-31" x="56.396484"/>
      </g>
     </g>
    </g>
    <g id="ytick_5">
     <g id="line2d_20">
      <path d="M 159.625 38.98 
L 251.31 38.98 
" clip-path="url(#p4acfde0a2a)" style="fill: none; stroke: #b0b0b0; stroke-opacity: 0.3; stroke-width: 0.8; stroke-linecap: square"/>
     </g>
     <g id="line2d_21">
      <g>
       <use xlink:href="#mf926b9ca81" x="159.625" y="38.98" style="stroke: #000000; stroke-width: 0.8"/>
      </g>
     </g>
     <g id="text_9">
      <!-- 0 -->
      <g transform="translate(146.625 43.14625) scale(0.12 -0.12)">
       <use xlink:href="#TimesNewRomanPSMT-30"/>
      </g>
     </g>
    </g>
    <g id="ytick_6">
     <g id="line2d_22">
      <path d="M 159.625 17.793333 
L 251.31 17.793333 
" clip-path="url(#p4acfde0a2a)" style="fill: none; stroke: #b0b0b0; stroke-opacity: 0.3; stroke-width: 0.8; stroke-linecap: square"/>
     </g>
     <g id="line2d_23">
      <g>
       <use xlink:href="#mf926b9ca81" x="159.625" y="17.793333" style="stroke: #000000; stroke-width: 0.8"/>
      </g>
     </g>
     <g id="text_10">
      <!-- 1 -->
      <g transform="translate(146.625 21.959583) scale(0.12 -0.12)">
       <use xlink:href="#TimesNewRomanPSMT-31"/>
      </g>
     </g>
    </g>
   </g>
   <g id="line2d_24">
    <path d="M 163.7925 38.98 
L 166.710742 38.876016 
L 167.062421 38.859723 
L 169.51243 38.996674 
L 169.747127 38.470079 
L 170.331101 38.433808 
L 170.563256 38.37101 
L 170.797254 38.415015 
L 171.031232 37.861662 
L 171.263599 37.917171 
L 171.49715 37.768377 
L 171.849089 37.896959 
L 172.547945 38.869702 
L 173.014854 39.16568 
L 173.249381 39.393776 
L 173.366074 39.422505 
L 174.065259 40.745273 
L 174.416749 40.48758 
L 174.650347 40.195246 
L 174.766912 40.226857 
L 175.232696 39.761301 
L 175.34981 39.734033 
L 175.8163 37.456636 
L 176.167892 37.183519 
L 176.285307 37.12712 
L 176.517672 37.384792 
L 176.75172 37.5599 
L 176.985489 37.409454 
L 177.218171 37.42992 
L 177.569412 38.355904 
L 178.269836 38.722667 
L 178.619164 39.476912 
L 178.852164 39.555642 
L 179.086393 40.101898 
L 179.318984 40.097342 
L 179.669135 39.717402 
L 179.787465 39.695622 
L 179.90428 39.792424 
L 180.0201 40.301179 
L 180.721107 40.21531 
L 181.06984 39.844352 
L 181.304399 39.800856 
L 181.77196 39.187714 
L 182.003847 39.059386 
L 182.820928 34.115817 
L 182.939211 34.822053 
L 183.055707 34.115817 
L 184.573468 42.830253 
L 184.806125 43.285448 
L 184.923049 43.094768 
L 185.155825 42.083169 
L 185.273861 42.026494 
L 186.324221 35.670494 
L 186.556531 37.082946 
L 189.591558 18.962011 
L 189.709647 18.941545 
L 189.826269 19.036397 
L 189.943143 18.756522 
L 190.175997 19.748227 
L 190.292089 19.737337 
L 190.40869 20.063887 
L 190.642109 21.160043 
L 190.760252 20.917138 
L 190.875675 21.623353 
L 190.993942 21.639773 
L 191.110275 21.797613 
L 191.226849 21.56259 
L 191.343609 22.268826 
L 191.575952 22.034311 
L 191.809692 22.883091 
L 192.39301 25.858102 
L 192.510587 26.140944 
L 192.627374 25.615048 
L 192.860199 27.0275 
L 192.976864 26.636775 
L 193.210487 27.20962 
L 194.144279 27.204747 
L 194.495363 28.980487 
L 194.611136 29.232671 
L 195.546396 34.429358 
L 195.663212 33.723143 
L 195.779855 34.027659 
L 196.12871 35.928378 
L 196.24673 35.646914 
L 196.479196 36.191898 
L 196.712709 36.82021 
L 197.413991 37.356529 
L 197.529507 37.236274 
L 197.764753 37.379644 
L 197.880927 37.335703 
L 197.99719 37.029005 
L 198.580876 37.342398 
L 198.814088 37.570769 
L 199.164174 37.696236 
L 199.282132 37.866895 
L 199.631186 38.892817 
L 199.748795 38.962585 
L 200.331395 39.864077 
L 200.565908 40.002744 
L 200.682544 40.004248 
L 201.03287 40.744256 
L 201.14974 40.708578 
L 201.265879 40.388214 
L 201.499357 39.592718 
L 201.616323 39.569032 
L 201.732645 39.423606 
L 201.966971 39.024895 
L 202.199026 39.013538 
L 202.316908 38.895783 
L 202.55088 38.60025 
L 202.783488 38.699828 
L 203.016485 38.999534 
L 203.368129 39.150044 
L 203.601057 39.31761 
L 203.834524 39.330661 
L 203.951788 39.886493 
L 204.300561 39.915582 
L 204.652814 40.35851 
L 205.469089 39.882319 
L 205.70168 39.443564 
L 205.818393 39.415894 
L 205.935692 39.247185 
L 206.169998 38.540144 
L 206.403872 38.528406 
L 207.103252 38.212174 
L 207.335849 38.051706 
L 208.153236 38.409041 
L 208.503366 37.738567 
L 208.620658 37.75969 
L 209.205268 38.440863 
L 209.555591 40.381583 
L 209.903954 42.500249 
L 210.25425 40.381583 
L 211.539812 47.613821 
L 213.40604 36.918728 
L 213.873897 34.956949 
L 214.106809 34.860253 
L 214.223296 34.596775 
L 218.308995 58.846653 
L 218.427388 58.61862 
L 218.54253 58.009419 
L 218.776056 58.220078 
L 219.009415 57.086549 
L 219.127553 57.15674 
L 219.244083 56.960361 
L 219.359988 56.254146 
L 219.826404 57.319306 
L 219.944219 57.13405 
L 220.527123 53.693843 
L 220.644231 53.599308 
L 220.760277 52.915466 
L 221.110872 54.612985 
L 221.227885 54.329443 
L 221.344042 53.623228 
L 221.46208 54.265078 
L 221.57825 53.558863 
L 221.69461 53.77037 
L 221.810969 53.362081 
L 221.929176 53.5156 
L 222.395877 50.886525 
L 222.512698 50.9957 
L 222.629579 50.75038 
L 222.862769 51.677699 
L 222.979577 50.971463 
L 223.096324 50.953539 
L 223.2133 50.75038 
L 223.329824 50.044143 
L 223.44532 50.75038 
L 223.680055 50.006452 
L 223.797108 50.712668 
L 225.897711 38.516139 
L 226.131862 37.784479 
L 226.248243 37.561828 
L 226.482229 37.689605 
L 226.597188 37.599922 
L 226.831781 37.644032 
L 227.065866 37.58596 
L 227.882416 37.593015 
L 228.114862 37.271973 
L 229.049793 37.213201 
L 229.284235 37.044683 
L 229.39907 37.033009 
L 229.749781 36.705675 
L 229.983246 36.742921 
L 230.09949 36.534571 
L 230.568056 36.757985 
L 230.799737 36.852626 
L 231.151144 36.470609 
L 231.384464 36.749891 
L 231.617216 37.214028 
L 231.851627 37.248668 
L 231.968322 37.030594 
L 232.784543 37.262842 
L 233.019003 37.572421 
L 233.486849 37.777169 
L 233.601395 37.884607 
L 233.834941 37.713885 
L 234.185136 37.908167 
L 234.418565 38.111876 
L 234.535853 38.125076 
L 234.768733 38.802795 
L 234.88559 38.848367 
L 235.119812 39.313902 
L 235.46899 39.378839 
L 235.936857 39.359029 
L 236.170192 39.390831 
L 236.870225 39.182862 
L 237.103887 38.916419 
L 237.337187 38.894342 
L 237.570771 39.343796 
L 238.50397 39.442463 
L 238.738831 39.565896 
L 238.854952 39.552231 
L 238.971564 39.354199 
L 239.204442 38.716798 
L 239.438472 38.80913 
L 239.671674 39.062225 
L 239.905201 39.096802 
L 240.372133 40.155775 
L 240.489033 40.173127 
L 240.722271 40.827054 
L 240.955357 40.761799 
L 241.422281 40.396477 
L 241.539056 40.373384 
L 241.655787 41.036335 
L 241.889277 41.00856 
L 242.122911 40.459973 
L 242.356418 40.432982 
L 242.706373 41.145828 
L 242.939901 41.120891 
L 243.056566 41.283711 
L 243.290329 42.034333 
L 243.523681 41.967638 
L 243.757501 42.4308 
L 244.107286 42.052406 
L 244.340559 41.896112 
L 244.574143 41.978951 
L 245.274707 41.577846 
L 245.391586 41.568989 
L 245.624953 41.352907 
L 246.442037 41.063391 
L 246.55856 41.284114 
L 246.792115 41.866662 
L 247.1425 42.00035 
L 247.1425 42.00035 
" clip-path="url(#p4acfde0a2a)" style="fill: none; stroke: #ff0000; stroke-opacity: 0.8; stroke-width: 2; stroke-linecap: square"/>
   </g>
   <g id="line2d_25">
    <path d="M 163.7925 38.98 
L 164.960835 38.98 
L 165.078163 39.545938 
L 165.194894 38.98 
L 165.310302 38.98 
L 165.426911 37.847996 
L 165.543527 38.98 
L 165.660131 38.414041 
L 165.893798 38.413998 
L 166.011111 37.847996 
L 166.245226 40.11194 
L 166.361679 38.413998 
L 166.478445 38.98 
L 166.595582 37.847996 
L 166.828701 40.112004 
L 166.945451 37.848124 
L 167.178862 38.98 
L 167.295047 38.413935 
L 167.411115 39.546065 
L 167.529067 39.546065 
L 167.645171 38.518957 
L 167.762033 39.545938 
L 167.879411 38.98 
L 167.996779 38.98 
L 168.111827 38.414062 
L 168.228438 38.98 
L 168.345318 38.98 
L 168.461952 38.413998 
L 168.579782 38.414125 
L 168.696646 38.98 
L 168.813579 37.84806 
L 168.930271 38.414062 
L 169.046849 39.546002 
L 169.280539 38.98 
L 169.395871 37.282037 
L 169.630445 40.111982 
L 169.747127 40.11194 
L 169.864046 38.98 
L 169.98067 40.11194 
L 170.097524 39.545981 
L 170.214033 39.545981 
L 170.331101 38.414041 
L 170.44656 39.545981 
L 170.563256 38.98 
L 170.681446 39.545981 
L 170.797254 38.98 
L 170.913686 37.282079 
L 171.147095 39.546044 
L 171.263599 39.546002 
L 171.380447 40.11194 
L 171.49715 37.84806 
L 171.614505 37.950964 
L 171.730895 38.98 
L 171.963949 37.282058 
L 172.082276 37.848124 
L 172.198039 37.84806 
L 172.431294 36.716056 
L 172.547945 37.281931 
L 172.665958 36.150203 
L 172.899366 38.98 
L 173.014854 38.131093 
L 173.132563 39.545938 
L 173.249381 38.98 
L 173.366074 37.847996 
L 173.482237 37.848124 
L 173.715415 39.545938 
L 173.833029 38.98 
L 174.065259 38.98 
L 174.182641 37.847996 
L 174.299875 39.546002 
L 174.416749 39.546065 
L 174.53362 39.828929 
L 174.650347 40.677942 
L 174.766912 40.112004 
L 174.884119 40.111876 
L 174.99977 39.545959 
L 175.115907 39.546002 
L 175.34981 40.111961 
L 175.466064 40.111898 
L 175.583503 41.809861 
L 175.699906 39.828971 
L 175.8163 40.677899 
L 175.934318 40.11194 
L 176.05112 38.414041 
L 176.167892 39.545959 
L 176.285307 39.545981 
L 176.517672 36.150139 
L 176.634356 38.414041 
L 176.75172 38.414041 
L 176.868855 37.282058 
L 176.985489 37.282037 
L 177.100814 38.414041 
L 177.218171 37.84806 
L 177.33568 37.84806 
L 177.452736 37.282122 
L 177.569412 37.282058 
L 177.68681 37.84806 
L 177.802176 38.98 
L 177.917835 37.282122 
L 178.03622 38.413998 
L 178.152424 37.847996 
L 178.269836 39.546002 
L 178.503487 37.848124 
L 178.735307 38.98 
L 178.852164 38.98 
L 178.96944 38.414062 
L 179.086393 38.414062 
L 179.318984 40.677794 
L 179.436894 38.98 
L 179.553747 40.394909 
L 179.669135 39.546065 
L 179.787465 40.111876 
L 179.90428 38.98 
L 180.137741 40.677942 
L 180.253881 38.98 
L 180.486426 41.243859 
L 180.603561 38.98 
L 180.721107 39.546002 
L 180.837269 40.677963 
L 180.954867 39.545959 
L 181.06984 40.111961 
L 181.186561 39.545959 
L 181.304399 40.677899 
L 181.421691 40.677942 
L 181.53731 38.414041 
L 181.655336 38.98 
L 181.77196 40.677921 
L 181.887992 39.828971 
L 182.003847 40.11194 
L 182.120484 38.414019 
L 182.23902 38.69701 
L 182.355153 40.11194 
L 182.470681 39.545981 
L 182.588595 40.523576 
L 182.704293 37.848039 
L 182.820928 38.413998 
L 182.939211 38.414041 
L 183.171187 34.452197 
L 183.290287 35.584159 
L 183.404747 35.584138 
L 183.521209 33.320257 
L 183.639342 34.452197 
L 183.754911 37.282058 
L 183.87139 36.716205 
L 183.989822 35.584138 
L 184.339889 40.112004 
L 184.456721 38.413935 
L 184.573468 39.828907 
L 184.690245 39.546065 
L 185.038779 43.507739 
L 185.155825 42.375862 
L 185.273861 43.610727 
L 185.390598 42.375862 
L 185.507244 42.941949 
L 185.740702 41.526913 
L 185.857772 42.941949 
L 185.972665 42.836927 
L 186.206111 38.98 
L 186.440923 38.98 
L 186.556531 36.715993 
L 186.674453 37.848124 
L 187.024665 33.886196 
L 187.140818 36.716141 
L 187.258078 36.433087 
L 187.373834 37.847996 
L 187.490828 35.018199 
L 187.607034 35.301232 
L 187.723808 35.018051 
L 187.958897 31.622316 
L 188.074095 31.622188 
L 188.192189 31.056399 
L 188.542014 28.226453 
L 188.775722 27.094449 
L 189.007792 23.698714 
L 189.124642 24.264525 
L 189.242513 23.698651 
L 189.358325 24.830718 
L 189.47482 22.000645 
L 189.591558 22.000709 
L 189.826269 19.170869 
L 189.943143 19.170912 
L 190.059844 18.604846 
L 190.175997 19.736956 
L 190.292089 19.170869 
L 190.40869 19.170996 
L 190.527045 18.604931 
L 190.875675 20.302852 
L 190.993942 22.00073 
L 191.226849 20.868875 
L 191.343609 20.868853 
L 191.460502 22.566859 
L 191.575952 22.000772 
L 191.694025 23.132691 
L 191.809692 23.132649 
L 191.926769 22.566859 
L 192.044077 21.434707 
L 192.160164 23.698778 
L 192.277215 23.415681 
L 192.39301 24.264652 
L 192.510587 24.264525 
L 192.627374 27.094513 
L 192.860199 25.962658 
L 192.976864 26.528511 
L 193.095081 28.792518 
L 193.210487 26.52866 
L 193.444793 28.792391 
L 193.677323 27.660472 
L 193.795586 28.509422 
L 194.028561 27.094449 
L 194.144279 28.22658 
L 194.26224 28.226453 
L 194.378747 26.528384 
L 194.611136 29.358457 
L 194.728378 28.226453 
L 194.845324 29.35833 
L 195.07799 29.35833 
L 195.196144 28.792455 
L 195.312144 29.924458 
L 195.428212 32.188402 
L 195.546396 32.188317 
L 196.012267 34.452197 
L 196.12871 33.886259 
L 196.363588 36.15016 
L 196.479196 37.282101 
L 196.596956 33.886238 
L 196.830291 37.282079 
L 196.947013 36.716099 
L 197.296967 38.414019 
L 197.413991 36.921906 
L 197.529507 37.282079 
L 197.647585 38.131029 
L 197.880927 36.150139 
L 197.99719 36.716099 
L 198.114451 38.413998 
L 198.231148 38.413998 
L 198.580876 36.716056 
L 198.697932 37.282058 
L 198.814088 36.716056 
L 198.931106 37.84806 
L 199.164174 37.848124 
L 199.282132 38.98 
L 199.399061 37.282058 
L 199.514348 37.847996 
L 199.631186 37.847996 
L 199.748795 36.716141 
L 199.982818 37.847996 
L 200.214503 40.21675 
L 200.331395 39.545938 
L 200.447871 40.112004 
L 200.565908 38.98 
L 200.682544 39.545938 
L 200.799442 41.244007 
L 200.916136 38.413935 
L 201.03287 38.98 
L 201.14974 41.136104 
L 201.265879 40.678069 
L 201.383502 40.677942 
L 201.499357 40.39493 
L 201.616323 40.677942 
L 201.732645 38.413998 
L 201.848828 38.413998 
L 201.966971 40.11194 
L 202.083456 39.545959 
L 202.199026 40.677899 
L 202.316908 39.26299 
L 202.6661 40.111961 
L 202.900375 37.282058 
L 203.133996 39.545959 
L 203.250776 39.545981 
L 203.368129 37.848039 
L 203.484274 39.545959 
L 203.601057 38.98 
L 203.716781 37.84806 
L 203.834524 39.545981 
L 203.951788 39.546044 
L 204.068664 40.11194 
L 204.185996 40.11194 
L 204.300561 38.414062 
L 204.41816 39.546002 
L 204.535273 39.545938 
L 204.652814 38.98 
L 204.768597 39.608884 
L 205.001019 39.545959 
L 205.352935 41.243859 
L 205.469089 38.414062 
L 205.818393 40.112131 
L 205.935692 38.309188 
L 206.053268 39.546065 
L 206.169998 39.546065 
L 206.287005 37.282058 
L 206.403872 39.545938 
L 206.520723 38.98 
L 206.752272 38.98 
L 206.870774 38.414062 
L 206.987869 38.98 
L 207.103252 38.414062 
L 207.221013 38.413998 
L 207.452938 39.545938 
L 207.5697 38.414062 
L 207.686167 38.696967 
L 207.804557 39.545938 
L 207.921624 39.545938 
L 208.03716 36.150139 
L 208.26989 38.414041 
L 208.388831 37.848039 
L 208.503366 38.414041 
L 208.737901 38.414041 
L 208.855351 38.98 
L 208.970811 37.282079 
L 209.205268 38.414041 
L 209.321907 36.150118 
L 209.671845 38.98 
L 209.788779 38.98 
L 210.023241 40.112004 
L 210.13785 41.809861 
L 210.25425 41.809945 
L 210.489315 37.84806 
L 210.722792 42.941864 
L 210.954737 41.243944 
L 211.07174 40.678069 
L 211.304759 42.941674 
L 211.421596 42.375862 
L 211.77195 47.469815 
L 212.239101 43.507739 
L 212.357185 47.239008 
L 212.705761 42.941949 
L 212.823311 42.375862 
L 213.057211 40.677942 
L 213.173013 40.111876 
L 213.40604 38.309039 
L 213.524191 37.847996 
L 213.640507 35.018199 
L 213.873897 37.565091 
L 214.223296 36.150139 
L 214.341178 37.282058 
L 214.456612 35.584265 
L 214.574871 35.584138 
L 214.69136 36.150203 
L 214.807851 36.150203 
L 214.925017 33.886196 
L 215.275304 40.112004 
L 215.3931 40.677942 
L 215.50717 38.98 
L 215.624359 40.678069 
L 215.740843 40.677942 
L 215.857524 41.038073 
L 215.976116 40.112004 
L 216.324481 44.073741 
L 216.676135 46.903538 
L 216.908027 48.318574 
L 217.024935 47.46954 
L 217.259675 48.601543 
L 217.37647 50.865551 
L 217.491838 49.733547 
L 217.609884 50.299485 
L 217.725372 52.280417 
L 217.842028 51.997406 
L 218.192194 55.393226 
L 218.308995 55.393226 
L 218.54253 57.657127 
L 218.776056 56.525187 
L 219.009415 59.355154 
L 219.127553 58.789194 
L 219.244083 58.789046 
L 219.359988 57.657212 
L 219.477665 57.657148 
L 219.594021 57.091189 
L 219.709931 54.261349 
L 219.826404 55.959249 
L 219.944219 54.827351 
L 220.17795 56.525208 
L 220.294413 54.827288 
L 220.411372 56.242218 
L 220.527123 54.827224 
L 220.644231 57.091147 
L 220.760277 57.09121 
L 221.227885 52.563556 
L 221.344042 55.959291 
L 221.57825 52.280417 
L 221.69461 52.563344 
L 221.810969 54.261349 
L 222.044845 51.997342 
L 222.162619 53.129409 
L 222.395877 53.129346 
L 222.512698 50.865487 
L 222.746223 51.997406 
L 222.862769 51.431489 
L 222.979577 49.733547 
L 223.096324 50.2994 
L 223.2133 50.299464 
L 223.44532 51.431404 
L 223.563253 49.167545 
L 223.797108 51.431489 
L 223.912314 49.733483 
L 224.031012 49.733547 
L 224.145691 50.865487 
L 224.379549 46.903601 
L 224.495966 45.205681 
L 224.614033 45.771746 
L 224.730898 49.167545 
L 224.847852 47.469646 
L 224.964321 47.469646 
L 225.080614 45.205702 
L 225.313491 46.337684 
L 225.547772 42.941801 
L 225.663983 41.243901 
L 225.780869 41.243901 
L 225.897711 38.98 
L 226.131862 40.111919 
L 226.248243 38.98 
L 226.363941 36.716141 
L 226.482229 37.84806 
L 226.597188 37.848039 
L 226.831781 35.584201 
L 227.065866 37.84806 
L 227.181064 37.282058 
L 227.29791 36.150203 
L 227.414884 38.98 
L 227.648129 36.716056 
L 227.766082 38.131093 
L 227.998398 37.847996 
L 228.114862 37.84806 
L 228.349456 36.715993 
L 228.465681 35.584265 
L 228.581972 38.518957 
L 228.815519 37.282058 
L 228.933003 37.847996 
L 229.049793 36.716141 
L 229.165557 37.282206 
L 229.284235 36.150203 
L 229.39907 36.150203 
L 229.632546 37.282058 
L 229.866008 37.282122 
L 229.983246 36.150139 
L 230.09949 36.716141 
L 230.216171 36.716056 
L 230.333163 36.150055 
L 230.449653 37.282058 
L 230.568056 36.150139 
L 230.685458 36.150139 
L 230.799737 37.282079 
L 230.916545 37.282058 
L 231.034552 36.150139 
L 231.267086 36.150139 
L 231.384464 37.282079 
L 231.500192 35.584159 
L 231.733886 37.282058 
L 231.851627 35.584138 
L 232.085502 36.71612 
L 232.201344 36.716099 
L 232.318619 35.584138 
L 232.434434 37.84806 
L 232.552604 36.716056 
L 232.668549 37.282122 
L 232.902504 35.584201 
L 233.019003 36.716141 
L 233.135033 36.150139 
L 233.369046 37.847996 
L 233.486849 38.414062 
L 233.601395 37.281931 
L 233.718108 38.414062 
L 233.834941 36.716141 
L 233.951525 38.413935 
L 234.068437 37.847996 
L 234.185136 37.848124 
L 234.301712 37.31297 
L 234.418565 38.414062 
L 234.535853 37.282058 
L 234.651949 38.414062 
L 234.768733 36.716141 
L 234.88559 36.716141 
L 235.002142 40.111876 
L 235.119812 37.282058 
L 235.35241 40.11194 
L 235.46899 37.282122 
L 235.586834 39.546002 
L 235.703282 38.413998 
L 235.936857 40.677942 
L 236.052711 38.98 
L 236.170192 39.545938 
L 236.287274 41.243838 
L 236.520051 38.98 
L 236.63643 37.848039 
L 236.986832 38.98 
L 237.103887 37.848039 
L 237.220589 40.677921 
L 237.337187 38.414019 
L 237.454764 40.11194 
L 237.570771 37.84806 
L 237.687497 37.84806 
L 237.80377 39.545959 
L 237.920639 38.413998 
L 238.154412 39.26299 
L 238.271253 37.84806 
L 238.50397 40.677899 
L 238.738831 37.282122 
L 238.854952 38.98 
L 238.971564 38.413998 
L 239.08783 38.98 
L 239.32106 41.243859 
L 239.554441 38.413935 
L 239.905201 38.414062 
L 240.021872 39.546065 
L 240.138721 39.546065 
L 240.255359 38.414062 
L 240.372133 39.545938 
L 240.489033 38.414062 
L 240.605083 39.545938 
L 240.722271 39.545938 
L 240.838891 39.828907 
L 241.072249 42.375735 
L 241.189279 40.677942 
L 241.30597 40.678069 
L 241.422281 40.112004 
L 241.539056 40.111876 
L 241.772462 40.677942 
L 241.889277 39.545938 
L 242.005814 39.54579 
L 242.122911 41.243859 
L 242.239773 40.677794 
L 242.356418 40.677794 
L 242.472873 40.111876 
L 242.589642 40.677794 
L 242.939901 40.677942 
L 243.056566 39.546065 
L 243.290329 40.112067 
L 243.523681 42.092872 
L 243.640723 41.809861 
L 243.757501 42.941801 
L 243.873621 40.677878 
L 243.990509 40.678005 
L 244.340559 42.092872 
L 244.457606 41.243944 
L 244.574143 41.809861 
L 244.924467 41.809861 
L 245.041411 40.677878 
L 245.274707 42.375735 
L 245.391586 42.941801 
L 245.508095 41.243859 
L 245.624953 41.809861 
L 245.858559 39.546002 
L 245.975045 41.243859 
L 246.208315 41.243859 
L 246.325319 40.677942 
L 246.442037 40.677878 
L 246.55856 41.243859 
L 246.792115 40.11194 
L 247.025661 40.960911 
L 247.1425 41.243859 
L 247.1425 41.243859 
" clip-path="url(#p4acfde0a2a)" style="fill: none; stroke: #0000ff; stroke-width: 2; stroke-linecap: square"/>
   </g>
   <g id="line2d_26">
    <path d="M 159.625 17.793333 
L 251.31 17.793333 
" clip-path="url(#p4acfde0a2a)" style="fill: none; stroke-dasharray: 7.4,3.2; stroke-dashoffset: 0; stroke: #000000; stroke-opacity: 0.7; stroke-width: 2"/>
   </g>
   <g id="line2d_27">
    <path d="M 159.625 60.166667 
L 251.31 60.166667 
" clip-path="url(#p4acfde0a2a)" style="fill: none; stroke-dasharray: 7.4,3.2; stroke-dashoffset: 0; stroke: #000000; stroke-opacity: 0.7; stroke-width: 2"/>
   </g>
   <g id="patch_8">
    <path d="M 159.625 70.76 
L 159.625 7.2 
" style="fill: none; stroke: #000000; stroke-width: 0.8; stroke-linejoin: miter; stroke-linecap: square"/>
   </g>
   <g id="patch_9">
    <path d="M 251.31 70.76 
L 251.31 7.2 
" style="fill: none; stroke: #000000; stroke-width: 0.8; stroke-linejoin: miter; stroke-linecap: square"/>
   </g>
   <g id="patch_10">
    <path d="M 159.625 70.76 
L 251.31 70.76 
" style="fill: none; stroke: #000000; stroke-width: 0.8; stroke-linejoin: miter; stroke-linecap: square"/>
   </g>
   <g id="patch_11">
    <path d="M 159.625 7.2 
L 251.31 7.2 
" style="fill: none; stroke: #000000; stroke-width: 0.8; stroke-linejoin: miter; stroke-linecap: square"/>
   </g>
  </g>
 </g>
 <defs>
  <clipPath id="p5775a1f13f">
   <rect x="35.2" y="7.2" width="91.685" height="63.56"/>
  </clipPath>
  <clipPath id="p4acfde0a2a">
   <rect x="159.625" y="7.2" width="91.685" height="63.56"/>
  </clipPath>
 </defs>
</svg>
