<?xml version="1.0" encoding="utf-8" standalone="no"?>
<!DOCTYPE svg PUBLIC "-//W3C//DTD SVG 1.1//EN"
  "http://www.w3.org/Graphics/SVG/1.1/DTD/svg11.dtd">
<svg xmlns:xlink="http://www.w3.org/1999/xlink" width="489.009375pt" height="200.205pt" viewBox="0 0 489.009375 200.205" xmlns="http://www.w3.org/2000/svg" version="1.1">
 <metadata>
  <rdf:RDF xmlns:dc="http://purl.org/dc/elements/1.1/" xmlns:cc="http://creativecommons.org/ns#" xmlns:rdf="http://www.w3.org/1999/02/22-rdf-syntax-ns#">
   <cc:Work>
    <dc:type rdf:resource="http://purl.org/dc/dcmitype/StillImage"/>
    <dc:date>2026-01-18T23:30:36.471634</dc:date>
    <dc:format>image/svg+xml</dc:format>
    <dc:creator>
     <cc:Agent>
      <dc:title>Matplotlib v3.6.3, https://matplotlib.org/</dc:title>
     </cc:Agent>
    </dc:creator>
   </cc:Work>
  </rdf:RDF>
 </metadata>
 <defs>
  <style type="text/css">*{stroke-linejoin: round; stroke-linecap: butt}</style>
 </defs>
 <g id="figure_1">
  <g id="patch_1">
   <path d="M 0 200.205 
L 489.009375 200.205 
L 489.009375 -0 
L 0 -0 
z
" style="fill: #ffffff"/>
  </g>
  <g id="axes_1">
   <g id="patch_2">
    <path d="M 50.099375 160.20625 
L 235.929375 160.20625 
L 235.929375 11.36625 
L 50.099375 11.36625 
z
" style="fill: #ffffff"/>
   </g>
   <g id="matplotlib.axis_1">
    <g id="xtick_1">
     <g id="line2d_1">
      <path d="M 58.546193 160.20625 
L 58.546193 11.36625 
" clip-path="url(#pcd4d1e5547)" style="fill: none; stroke: #b0b0b0; stroke-opacity: 0.3; stroke-width: 0.8; stroke-linecap: square"/>
     </g>
     <g id="line2d_2">
      <defs>
       <path id="m13216bef8a" d="M 0 0 
L 0 3.5 
" style="stroke: #000000; stroke-width: 0.8"/>
      </defs>
      <g>
       <use xlink:href="#m13216bef8a" x="58.546193" y="160.20625" style="stroke: #000000; stroke-width: 0.8"/>
      </g>
     </g>
     <g id="text_1">
      <!-- 0 -->
      <g transform="translate(55.546193 175.53875) scale(0.12 -0.12)">
       <defs>
        <path id="TimesNewRomanPSMT-30" d="M 231 2094 
Q 231 2819 450 3342 
Q 669 3866 1031 4122 
Q 1313 4325 1613 4325 
Q 2100 4325 2488 3828 
Q 2972 3213 2972 2159 
Q 2972 1422 2759 906 
Q 2547 391 2217 158 
Q 1888 -75 1581 -75 
Q 975 -75 572 641 
Q 231 1244 231 2094 
z
M 844 2016 
Q 844 1141 1059 588 
Q 1238 122 1591 122 
Q 1759 122 1940 273 
Q 2122 425 2216 781 
Q 2359 1319 2359 2297 
Q 2359 3022 2209 3506 
Q 2097 3866 1919 4016 
Q 1791 4119 1609 4119 
Q 1397 4119 1231 3928 
Q 1006 3669 925 3112 
Q 844 2556 844 2016 
z
" transform="scale(0.015625)"/>
       </defs>
       <use xlink:href="#TimesNewRomanPSMT-30"/>
      </g>
     </g>
    </g>
    <g id="xtick_2">
     <g id="line2d_3">
      <path d="M 129.528467 160.20625 
L 129.528467 11.36625 
" clip-path="url(#pcd4d1e5547)" style="fill: none; stroke: #b0b0b0; stroke-opacity: 0.3; stroke-width: 0.8; stroke-linecap: square"/>
     </g>
     <g id="line2d_4">
      <g>
       <use xlink:href="#m13216bef8a" x="129.528467" y="160.20625" style="stroke: #000000; stroke-width: 0.8"/>
      </g>
     </g>
     <g id="text_2">
      <!-- 10 -->
      <g transform="translate(123.528467 175.53875) scale(0.12 -0.12)">
       <defs>
        <path id="TimesNewRomanPSMT-31" d="M 750 3822 
L 1781 4325 
L 1884 4325 
L 1884 747 
Q 1884 391 1914 303 
Q 1944 216 2037 169 
Q 2131 122 2419 116 
L 2419 0 
L 825 0 
L 825 116 
Q 1125 122 1212 167 
Q 1300 213 1334 289 
Q 1369 366 1369 747 
L 1369 3034 
Q 1369 3497 1338 3628 
Q 1316 3728 1258 3775 
Q 1200 3822 1119 3822 
Q 1003 3822 797 3725 
L 750 3822 
z
" transform="scale(0.015625)"/>
       </defs>
       <use xlink:href="#TimesNewRomanPSMT-31"/>
       <use xlink:href="#TimesNewRomanPSMT-30" x="50"/>
      </g>
     </g>
    </g>
    <g id="xtick_3">
     <g id="line2d_5">
      <path d="M 200.510742 160.20625 
L 200.510742 11.36625 
" clip-path="url(#pcd4d1e5547)" style="fill: none; stroke: #b0b0b0; stroke-opacity: 0.3; stroke-width: 0.8; stroke-linecap: square"/>
     </g>
     <g id="line2d_6">
      <g>
       <use xlink:href="#m13216bef8a" x="200.510742" y="160.20625" style="stroke: #000000; stroke-width: 0.8"/>
      </g>
     </g>
     <g id="text_3">
      <!-- 20 -->
      <g transform="translate(194.510742 175.53875) scale(0.12 -0.12)">
       <defs>
        <path id="TimesNewRomanPSMT-32" d="M 2934 816 
L 2638 0 
L 138 0 
L 138 116 
Q 1241 1122 1691 1759 
Q 2141 2397 2141 2925 
Q 2141 3328 1894 3587 
Q 1647 3847 1303 3847 
Q 991 3847 742 3664 
Q 494 3481 375 3128 
L 259 3128 
Q 338 3706 661 4015 
Q 984 4325 1469 4325 
Q 1984 4325 2329 3994 
Q 2675 3663 2675 3213 
Q 2675 2891 2525 2569 
Q 2294 2063 1775 1497 
Q 997 647 803 472 
L 1909 472 
Q 2247 472 2383 497 
Q 2519 522 2628 598 
Q 2738 675 2819 816 
L 2934 816 
z
" transform="scale(0.015625)"/>
       </defs>
       <use xlink:href="#TimesNewRomanPSMT-32"/>
       <use xlink:href="#TimesNewRomanPSMT-30" x="50"/>
      </g>
     </g>
    </g>
    <g id="text_4">
     <!-- $t$ [s] -->
     <g transform="translate(133.474375 190.438125) scale(0.12 -0.12)">
      <defs>
       <path id="STIXGeneral-Italic-74" d="M 1894 2739 
L 1862 2534 
L 1325 2534 
L 768 435 
Q 755 384 755 346 
Q 755 243 851 243 
Q 928 243 1030 342 
Q 1133 442 1370 749 
L 1453 704 
Q 1158 256 969 93 
Q 781 -70 538 -70 
Q 243 -70 243 166 
Q 243 230 346 640 
L 845 2534 
L 365 2534 
L 358 2573 
Q 358 2688 570 2733 
Q 730 2771 992 2979 
Q 1254 3187 1421 3437 
Q 1459 3494 1510 3494 
Q 1568 3494 1568 3443 
Q 1568 3411 1562 3398 
L 1382 2739 
L 1894 2739 
z
" transform="scale(0.015625)"/>
       <path id="TimesNewRomanPSMT-20" transform="scale(0.015625)"/>
       <path id="TimesNewRomanPSMT-5b" d="M 1900 -1269 
L 525 -1269 
L 525 4334 
L 1900 4334 
L 1900 4088 
L 994 4088 
L 994 -1025 
L 1900 -1025 
L 1900 -1269 
z
" transform="scale(0.015625)"/>
       <path id="TimesNewRomanPSMT-73" d="M 2050 2947 
L 2050 1972 
L 1947 1972 
Q 1828 2431 1642 2597 
Q 1456 2763 1169 2763 
Q 950 2763 815 2647 
Q 681 2531 681 2391 
Q 681 2216 781 2091 
Q 878 1963 1175 1819 
L 1631 1597 
Q 2266 1288 2266 781 
Q 2266 391 1970 151 
Q 1675 -88 1309 -88 
Q 1047 -88 709 6 
Q 606 38 541 38 
Q 469 38 428 -44 
L 325 -44 
L 325 978 
L 428 978 
Q 516 541 762 319 
Q 1009 97 1316 97 
Q 1531 97 1667 223 
Q 1803 350 1803 528 
Q 1803 744 1651 891 
Q 1500 1038 1047 1263 
Q 594 1488 453 1669 
Q 313 1847 313 2119 
Q 313 2472 555 2709 
Q 797 2947 1181 2947 
Q 1350 2947 1591 2875 
Q 1750 2828 1803 2828 
Q 1853 2828 1881 2850 
Q 1909 2872 1947 2947 
L 2050 2947 
z
" transform="scale(0.015625)"/>
       <path id="TimesNewRomanPSMT-5d" d="M 234 4334 
L 1609 4334 
L 1609 -1272 
L 234 -1272 
L 234 -1025 
L 1141 -1025 
L 1141 4088 
L 234 4088 
L 234 4334 
z
" transform="scale(0.015625)"/>
      </defs>
      <use xlink:href="#STIXGeneral-Italic-74" transform="translate(0 0.28125)"/>
      <use xlink:href="#TimesNewRomanPSMT-20" transform="translate(27.799988 0.28125)"/>
      <use xlink:href="#TimesNewRomanPSMT-5b" transform="translate(52.799988 0.28125)"/>
      <use xlink:href="#TimesNewRomanPSMT-73" transform="translate(86.100769 0.28125)"/>
      <use xlink:href="#TimesNewRomanPSMT-5d" transform="translate(125.016785 0.28125)"/>
     </g>
    </g>
   </g>
   <g id="matplotlib.axis_2">
    <g id="ytick_1">
     <g id="line2d_7">
      <path d="M 50.099375 153.440795 
L 235.929375 153.440795 
" clip-path="url(#pcd4d1e5547)" style="fill: none; stroke: #b0b0b0; stroke-opacity: 0.3; stroke-width: 0.8; stroke-linecap: square"/>
     </g>
     <g id="line2d_8">
      <defs>
       <path id="m74e194c188" d="M 0 0 
L -3.5 0 
" style="stroke: #000000; stroke-width: 0.8"/>
      </defs>
      <g>
       <use xlink:href="#m74e194c188" x="50.099375" y="153.440795" style="stroke: #000000; stroke-width: 0.8"/>
      </g>
     </g>
     <g id="text_5">
      <!-- 0.00 -->
      <g transform="translate(22.099375 157.607045) scale(0.12 -0.12)">
       <defs>
        <path id="TimesNewRomanPSMT-2e" d="M 800 606 
Q 947 606 1047 504 
Q 1147 403 1147 259 
Q 1147 116 1045 14 
Q 944 -88 800 -88 
Q 656 -88 554 14 
Q 453 116 453 259 
Q 453 406 554 506 
Q 656 606 800 606 
z
" transform="scale(0.015625)"/>
       </defs>
       <use xlink:href="#TimesNewRomanPSMT-30"/>
       <use xlink:href="#TimesNewRomanPSMT-2e" x="50"/>
       <use xlink:href="#TimesNewRomanPSMT-30" x="75"/>
       <use xlink:href="#TimesNewRomanPSMT-30" x="125"/>
      </g>
     </g>
    </g>
    <g id="ytick_2">
     <g id="line2d_9">
      <path d="M 50.099375 90.403951 
L 235.929375 90.403951 
" clip-path="url(#pcd4d1e5547)" style="fill: none; stroke: #b0b0b0; stroke-opacity: 0.3; stroke-width: 0.8; stroke-linecap: square"/>
     </g>
     <g id="line2d_10">
      <g>
       <use xlink:href="#m74e194c188" x="50.099375" y="90.403951" style="stroke: #000000; stroke-width: 0.8"/>
      </g>
     </g>
     <g id="text_6">
      <!-- 0.25 -->
      <g transform="translate(22.099375 94.570201) scale(0.12 -0.12)">
       <defs>
        <path id="TimesNewRomanPSMT-35" d="M 2778 4238 
L 2534 3706 
L 1259 3706 
L 981 3138 
Q 1809 3016 2294 2522 
Q 2709 2097 2709 1522 
Q 2709 1188 2573 903 
Q 2438 619 2231 419 
Q 2025 219 1772 97 
Q 1413 -75 1034 -75 
Q 653 -75 479 54 
Q 306 184 306 341 
Q 306 428 378 495 
Q 450 563 559 563 
Q 641 563 702 538 
Q 763 513 909 409 
Q 1144 247 1384 247 
Q 1750 247 2026 523 
Q 2303 800 2303 1197 
Q 2303 1581 2056 1914 
Q 1809 2247 1375 2428 
Q 1034 2569 447 2591 
L 1259 4238 
L 2778 4238 
z
" transform="scale(0.015625)"/>
       </defs>
       <use xlink:href="#TimesNewRomanPSMT-30"/>
       <use xlink:href="#TimesNewRomanPSMT-2e" x="50"/>
       <use xlink:href="#TimesNewRomanPSMT-32" x="75"/>
       <use xlink:href="#TimesNewRomanPSMT-35" x="125"/>
      </g>
     </g>
    </g>
    <g id="ytick_3">
     <g id="line2d_11">
      <path d="M 50.099375 27.367107 
L 235.929375 27.367107 
" clip-path="url(#pcd4d1e5547)" style="fill: none; stroke: #b0b0b0; stroke-opacity: 0.3; stroke-width: 0.8; stroke-linecap: square"/>
     </g>
     <g id="line2d_12">
      <g>
       <use xlink:href="#m74e194c188" x="50.099375" y="27.367107" style="stroke: #000000; stroke-width: 0.8"/>
      </g>
     </g>
     <g id="text_7">
      <!-- 0.50 -->
      <g transform="translate(22.099375 31.533357) scale(0.12 -0.12)">
       <use xlink:href="#TimesNewRomanPSMT-30"/>
       <use xlink:href="#TimesNewRomanPSMT-2e" x="50"/>
       <use xlink:href="#TimesNewRomanPSMT-35" x="75"/>
       <use xlink:href="#TimesNewRomanPSMT-30" x="125"/>
      </g>
     </g>
    </g>
    <g id="text_8">
     <!-- $v$ [m/s] -->
     <g transform="translate(15.5325 102.64625) rotate(-90) scale(0.12 -0.12)">
      <defs>
       <path id="STIXGeneral-Italic-76" d="M 1325 448 
L 1523 653 
Q 1869 1005 2134 1456 
Q 2400 1907 2400 2131 
Q 2400 2208 2285 2317 
Q 2125 2458 2125 2605 
Q 2125 2701 2195 2761 
Q 2266 2822 2368 2822 
Q 2522 2822 2624 2704 
Q 2726 2586 2726 2445 
Q 2726 2074 2323 1453 
Q 1971 909 1562 474 
Q 1504 416 1421 326 
Q 1338 237 1299 192 
Q 1261 147 1200 86 
Q 1139 26 1110 -3 
Q 1082 -32 1043 -64 
Q 1005 -96 979 -105 
Q 954 -115 928 -115 
Q 870 -115 870 58 
L 870 211 
Q 870 1094 717 1990 
Q 653 2355 579 2470 
Q 506 2586 326 2586 
Q 198 2586 128 2579 
L 128 2662 
Q 480 2720 845 2797 
Q 915 2822 973 2822 
Q 1011 2822 1033 2739 
Q 1056 2656 1165 2093 
Q 1280 1510 1325 448 
z
" transform="scale(0.015625)"/>
       <path id="TimesNewRomanPSMT-6d" d="M 1050 2338 
Q 1363 2650 1419 2697 
Q 1559 2816 1721 2881 
Q 1884 2947 2044 2947 
Q 2313 2947 2506 2790 
Q 2700 2634 2766 2338 
Q 3088 2713 3309 2830 
Q 3531 2947 3766 2947 
Q 3994 2947 4170 2830 
Q 4347 2713 4450 2447 
Q 4519 2266 4519 1878 
L 4519 647 
Q 4519 378 4559 278 
Q 4591 209 4675 161 
Q 4759 113 4950 113 
L 4950 0 
L 3538 0 
L 3538 113 
L 3597 113 
Q 3781 113 3884 184 
Q 3956 234 3988 344 
Q 4000 397 4000 647 
L 4000 1878 
Q 4000 2228 3916 2372 
Q 3794 2572 3525 2572 
Q 3359 2572 3192 2489 
Q 3025 2406 2788 2181 
L 2781 2147 
L 2788 2013 
L 2788 647 
Q 2788 353 2820 281 
Q 2853 209 2943 161 
Q 3034 113 3253 113 
L 3253 0 
L 1806 0 
L 1806 113 
Q 2044 113 2133 169 
Q 2222 225 2256 338 
Q 2272 391 2272 647 
L 2272 1878 
Q 2272 2228 2169 2381 
Q 2031 2581 1784 2581 
Q 1616 2581 1450 2491 
Q 1191 2353 1050 2181 
L 1050 647 
Q 1050 366 1089 281 
Q 1128 197 1204 155 
Q 1281 113 1516 113 
L 1516 0 
L 100 0 
L 100 113 
Q 297 113 375 155 
Q 453 197 493 289 
Q 534 381 534 647 
L 534 1741 
Q 534 2213 506 2350 
Q 484 2453 437 2492 
Q 391 2531 309 2531 
Q 222 2531 100 2484 
L 53 2597 
L 916 2947 
L 1050 2947 
L 1050 2338 
z
" transform="scale(0.015625)"/>
       <path id="TimesNewRomanPSMT-2f" d="M 1794 4444 
L 259 -88 
L 9 -88 
L 1544 4444 
L 1794 4444 
z
" transform="scale(0.015625)"/>
      </defs>
      <use xlink:href="#STIXGeneral-Italic-76" transform="translate(0 0.5625)"/>
      <use xlink:href="#TimesNewRomanPSMT-20" transform="translate(44.399994 0.5625)"/>
      <use xlink:href="#TimesNewRomanPSMT-5b" transform="translate(69.399994 0.5625)"/>
      <use xlink:href="#TimesNewRomanPSMT-6d" transform="translate(102.700775 0.5625)"/>
      <use xlink:href="#TimesNewRomanPSMT-2f" transform="translate(180.483978 0.5625)"/>
      <use xlink:href="#TimesNewRomanPSMT-73" transform="translate(208.267181 0.5625)"/>
      <use xlink:href="#TimesNewRomanPSMT-5d" transform="translate(247.183197 0.5625)"/>
     </g>
    </g>
   </g>
   <g id="line2d_13">
    <path d="M 58.546193 149.238255 
L 65.409776 27.367107 
L 82.206534 27.367107 
L 82.680494 35.771935 
L 83.155606 27.367107 
L 95.457516 27.367107 
L 97.1136 56.784385 
L 97.35334 52.581844 
L 99.955916 98.80878 
L 100.192278 97.177134 
L 102.085282 63.557568 
L 105.869287 130.747531 
L 106.106954 129.444182 
L 106.814229 123.893157 
L 107.527395 113.026866 
L 108.233792 108.05225 
L 108.709276 105.537837 
L 110.129069 96.887164 
L 110.599915 93.537386 
L 111.075871 90.403951 
L 117.226885 90.403951 
L 117.461508 88.819961 
L 117.697968 90.403951 
L 117.937572 90.403951 
L 118.171482 89.361322 
L 118.410183 89.797789 
L 118.646379 87.950305 
L 118.881221 90.403951 
L 119.117679 87.163857 
L 119.357377 89.68281 
L 119.591143 87.453322 
L 119.829578 88.180011 
L 120.064119 90.403951 
L 122.905975 39.974475 
L 123.142741 40.399848 
L 123.850216 27.792479 
L 124.086226 27.367107 
L 150.826607 27.367107 
L 152.006317 48.379304 
L 152.716308 35.771935 
L 155.082321 77.796582 
L 155.321925 73.594042 
L 158.632147 132.428598 
L 160.760894 94.759797 
L 163.363089 138.878024 
L 163.600612 136.223164 
L 164.313563 124.861907 
L 165.01964 117.563502 
L 165.732383 112.366996 
L 166.91512 106.624088 
L 167.385676 103.53503 
L 169.041916 90.403951 
L 174.010249 90.403951 
L 174.24721 91.350008 
L 174.487478 93.117561 
L 174.720846 90.403951 
L 177.089057 90.403951 
L 177.325335 88.126304 
L 177.562111 90.403951 
L 177.79901 87.298756 
L 178.035426 90.403951 
L 178.271646 90.403951 
L 178.508395 86.201411 
L 178.745021 90.403951 
L 178.982112 88.925863 
L 179.218286 84.723575 
L 179.452377 88.925863 
L 179.928146 80.521035 
L 180.165393 84.723575 
L 183.238845 30.091559 
L 183.475158 27.367107 
L 183.713693 27.367107 
L 184.422959 39.974475 
L 185.13343 27.367107 
L 210.211843 27.367107 
L 210.44974 28.826031 
L 210.92145 36.187978 
L 212.102844 54.457821 
L 212.340454 56.184022 
L 212.813774 62.044431 
L 213.523486 68.107315 
L 213.760168 70.319404 
L 214.706206 84.276518 
L 215.179184 88.794242 
L 215.652896 93.910565 
L 216.125323 96.372279 
L 216.361916 100.09574 
L 216.835162 103.208751 
L 217.071363 105.27636 
L 217.545557 107.374478 
L 218.964599 114.056131 
L 219.438015 115.291149 
L 219.674858 115.523629 
L 220.147822 118.00602 
L 220.385047 118.575117 
L 220.857091 125.166249 
L 221.330691 127.75429 
L 221.803496 129.415437 
L 222.04073 125.213149 
L 222.276931 125.128427 
L 222.749963 125.941602 
L 223.224004 126.55306 
L 223.460225 127.246717 
L 224.169895 136.990701 
L 224.880226 138.638988 
L 225.353211 139.659933 
L 225.826268 140.093374 
L 226.062837 140.204823 
L 226.299009 140.833427 
L 227.482557 140.833427 
L 227.482557 140.833427 
" clip-path="url(#pcd4d1e5547)" style="fill: none; stroke: #ff0000; stroke-opacity: 0.8; stroke-linecap: square"/>
   </g>
   <g id="line2d_14">
    <path d="M 58.546193 153.440795 
L 59.494777 153.440795 
L 59.731482 150.099591 
L 60.202017 136.736032 
L 60.675468 130.054126 
L 60.914211 130.054126 
L 61.152015 125.042697 
L 61.388609 126.713173 
L 61.858867 99.985551 
L 62.331566 93.303646 
L 62.80517 78.269358 
L 63.042943 73.257677 
L 63.280552 78.269106 
L 63.517454 73.257929 
L 63.753484 61.564343 
L 63.990149 63.235071 
L 64.227567 63.234819 
L 64.460976 54.882689 
L 64.700059 53.211961 
L 64.936692 43.189355 
L 65.880515 24.814366 
L 66.119583 21.473666 
L 66.354906 21.163525 
L 66.591766 18.131705 
L 66.829671 19.802937 
L 67.067556 23.143638 
L 67.30074 21.473162 
L 67.773985 29.825543 
L 68.010384 28.155067 
L 68.249205 24.814114 
L 68.486068 26.484591 
L 68.723071 29.825543 
L 68.959587 31.49602 
L 69.432524 25.649479 
L 69.669521 29.825543 
L 69.903279 24.814114 
L 70.37872 29.825543 
L 70.615216 29.825543 
L 70.852191 26.484591 
L 71.088568 26.484591 
L 71.325412 28.155067 
L 71.561556 24.814114 
L 71.798833 28.155067 
L 72.032848 28.155067 
L 72.269371 29.825543 
L 72.508923 28.155067 
L 72.743645 23.143638 
L 72.979634 24.814114 
L 73.21788 28.990179 
L 73.452714 28.155067 
L 73.688847 28.155067 
L 73.92568 29.825543 
L 74.162216 26.484339 
L 74.400076 25.877168 
L 74.635977 26.484339 
L 74.875538 26.484591 
L 75.108339 24.814366 
L 75.348169 29.825796 
L 75.582799 28.155067 
L 75.818246 28.155067 
L 76.292 24.813862 
L 76.531192 24.814366 
L 76.764633 28.155319 
L 77.004271 26.484591 
L 77.476922 28.154563 
L 77.713692 29.825039 
L 77.95021 26.484591 
L 78.421018 26.484591 
L 78.658265 24.814619 
L 78.896648 29.825796 
L 79.367339 29.825543 
L 79.605253 26.484591 
L 79.842867 28.154815 
L 80.079751 28.155067 
L 80.316629 27.319955 
L 80.553214 28.155067 
L 80.789471 33.166496 
L 81.02703 26.484591 
L 81.261435 24.813862 
L 81.496826 24.814114 
L 81.733538 28.914535 
L 81.970907 29.825543 
L 82.206534 29.825543 
L 82.444563 24.814114 
L 82.680494 25.649479 
L 83.155606 29.825543 
L 83.392345 24.814114 
L 83.629022 31.49602 
L 83.867001 34.836973 
L 84.100006 29.825543 
L 84.337967 31.49602 
L 84.574464 28.155067 
L 85.049754 28.155067 
L 85.286153 24.813862 
L 85.519897 24.813862 
L 85.757758 29.825543 
L 85.995931 23.143638 
L 86.233183 24.814114 
L 86.469665 28.155067 
L 86.707611 29.825543 
L 86.941438 33.166496 
L 87.175859 31.496272 
L 87.415806 28.154815 
L 87.889306 31.49602 
L 88.125147 28.155067 
L 88.362878 29.825796 
L 88.597336 28.155319 
L 88.832737 29.825291 
L 89.069588 29.825796 
L 89.307285 24.813862 
L 89.544329 31.49602 
L 89.779794 26.484591 
L 90.015752 28.155319 
L 90.254735 23.143638 
L 90.491578 28.990431 
L 90.725448 28.155067 
L 90.965285 29.825796 
L 91.202048 33.166748 
L 91.436795 26.484339 
L 91.675234 28.155067 
L 91.910631 26.484339 
L 92.381961 26.484591 
L 92.619372 29.825543 
L 92.857619 24.814114 
L 93.09306 24.813862 
L 93.331411 28.155067 
L 93.801016 28.155067 
L 94.039854 31.49602 
L 94.277585 28.155067 
L 94.511924 28.155067 
L 94.98752 31.49602 
L 95.222697 27.319955 
L 95.457516 26.484591 
L 95.693919 24.814114 
L 95.934171 28.990179 
L 96.169553 29.825543 
L 96.40371 24.814114 
L 96.6427 30.432967 
L 96.877201 33.166496 
L 97.35334 48.201036 
L 97.589458 48.200784 
L 97.823517 63.235071 
L 98.064912 56.553418 
L 98.296904 66.576024 
L 98.532951 63.234819 
L 98.772388 63.235071 
L 99.006626 74.928154 
L 99.242711 76.599134 
L 99.716333 76.59863 
L 99.955916 94.974122 
L 100.192278 93.303646 
L 100.429076 94.97387 
L 100.902391 101.65628 
L 101.13726 99.985551 
L 101.374245 96.644599 
L 101.846043 83.28104 
L 102.085282 82.065689 
L 102.321888 69.916724 
L 102.558309 74.928154 
L 102.792176 64.905295 
L 103.03149 64.070183 
L 103.268771 64.906052 
L 103.50164 67.936863 
L 103.738183 66.576024 
L 103.974795 86.62174 
L 104.924046 110.00841 
L 105.16091 106.667709 
L 105.398318 115.019839 
L 105.633864 104.99698 
L 106.106954 119.195904 
L 106.341573 120.031016 
L 106.5787 131.724603 
L 106.814229 134.230191 
L 107.050909 135.065807 
L 107.527395 131.724603 
L 107.760884 125.042697 
L 108.000239 113.34911 
L 108.233792 113.349362 
L 108.470345 112.513998 
L 108.709276 108.337933 
L 108.946526 110.00841 
L 109.182963 104.99698 
L 109.653328 101.655776 
L 109.890164 103.326504 
L 110.129069 101.65628 
L 110.3638 104.99698 
L 110.599915 96.644851 
L 110.836524 96.644851 
L 111.075871 91.632917 
L 111.312243 91.633422 
L 111.549128 94.974122 
L 111.785661 86.621992 
L 112.021083 89.962693 
L 112.256381 91.633422 
L 112.492712 91.632917 
L 112.732598 83.280788 
L 113.205269 91.632917 
L 113.439211 88.292217 
L 113.678919 89.962693 
L 113.914706 90.798057 
L 114.150981 93.303394 
L 114.387634 89.962693 
L 114.858554 93.303646 
L 115.332307 93.303646 
L 115.569601 88.292217 
L 115.807365 88.292217 
L 116.042654 91.633169 
L 116.514592 89.962441 
L 116.752902 89.962945 
L 116.989609 94.974122 
L 117.226885 93.303646 
L 117.461508 88.291965 
L 117.697968 89.962945 
L 118.171482 89.962441 
L 118.410183 91.632917 
L 118.646379 89.962441 
L 118.881221 91.632917 
L 119.117679 89.658856 
L 119.357377 92.468534 
L 119.591143 89.962945 
L 119.829578 91.633169 
L 120.064119 94.97387 
L 120.303207 91.632917 
L 120.539348 86.62174 
L 120.775708 88.292217 
L 121.010361 91.633169 
L 121.24799 81.610059 
L 121.485019 81.610815 
L 121.722349 74.928406 
L 121.956594 64.905547 
L 122.196073 63.235071 
L 122.431184 63.235323 
L 122.666434 46.530559 
L 122.905975 43.189607 
L 123.142741 48.200531 
L 123.379155 43.189355 
L 123.612979 34.836973 
L 123.850216 39.848402 
L 124.086226 28.155067 
L 124.325433 36.507449 
L 124.562284 34.837225 
L 125.508212 21.473162 
L 125.744787 26.484591 
L 126.218498 29.825543 
L 126.454086 24.814114 
L 126.925406 31.49602 
L 127.164729 27.319955 
L 127.402208 28.155067 
L 127.637673 24.814114 
L 128.110988 28.155067 
L 128.347512 31.49602 
L 128.582752 26.484339 
L 128.82477 24.814114 
L 129.056353 29.825543 
L 129.293605 24.814366 
L 129.529034 28.155067 
L 129.766209 26.484843 
L 130.004278 26.484339 
L 130.238599 29.825796 
L 130.477679 23.143638 
L 130.714676 28.155067 
L 130.948342 29.825291 
L 131.185152 26.484591 
L 131.423526 26.484591 
L 131.897851 29.825291 
L 132.367437 22.834001 
L 132.604358 26.484591 
L 132.840436 33.166748 
L 133.079676 26.484591 
L 133.316079 24.813862 
L 133.553011 29.825796 
L 134.026129 26.485095 
L 134.263006 27.757431 
L 134.4984 24.813862 
L 134.736801 24.813862 
L 134.97162 27.319955 
L 135.208691 28.155067 
L 135.444455 31.49602 
L 135.679939 24.814114 
L 135.919394 29.825543 
L 136.155491 28.155067 
L 136.38973 31.49602 
L 136.628658 28.990431 
L 136.86513 28.155067 
L 137.10288 29.825543 
L 137.33641 26.484591 
L 137.574336 26.484591 
L 138.284757 31.49602 
L 138.521449 28.155067 
L 138.759305 29.825543 
L 139.23141 26.484591 
L 139.465964 26.484591 
L 139.704608 28.155067 
L 139.942283 28.155067 
L 140.179171 29.825543 
L 140.416984 29.825543 
L 140.649187 28.155067 
L 141.124908 28.155067 
L 141.363144 29.825543 
L 141.597817 25.371108 
L 141.832569 24.813862 
L 142.068898 28.154815 
L 142.305816 26.484591 
L 142.545429 28.155067 
L 142.78217 26.484591 
L 143.017595 28.155319 
L 143.489019 24.813862 
L 143.725575 29.825796 
L 143.96332 24.504225 
L 144.201628 24.814366 
L 144.43822 31.495768 
L 144.675373 24.814366 
L 144.912242 31.49602 
L 145.14908 29.825291 
L 145.61839 29.825291 
L 145.858574 24.813862 
L 146.095905 26.484591 
L 146.329768 24.814366 
L 146.56845 24.814114 
L 146.801202 29.825543 
L 147.038522 28.155067 
L 147.27518 24.814366 
L 147.511239 27.319703 
L 147.751196 31.49602 
L 147.98847 28.155067 
L 148.222642 28.155067 
L 148.457909 24.814114 
L 148.694347 28.155067 
L 148.935419 26.484591 
L 149.167562 31.49602 
L 149.642926 31.49602 
L 149.880976 28.155067 
L 150.114995 28.155067 
L 150.354457 29.825543 
L 150.590199 28.155067 
L 151.063032 28.155067 
L 151.300245 24.814114 
L 151.535872 26.484591 
L 152.248093 46.530559 
L 152.480386 44.859831 
L 152.716308 54.882689 
L 153.192745 39.848402 
L 153.426381 46.530307 
L 153.665963 44.859831 
L 153.901525 44.859831 
L 154.136077 39.84815 
L 154.373223 41.51913 
L 154.611174 46.530307 
L 154.845512 58.223894 
L 155.321925 69.081864 
L 155.558903 83.280788 
L 155.79243 84.951516 
L 156.028466 81.610311 
L 156.265312 89.962945 
L 156.501833 92.189911 
L 156.739266 93.303142 
L 156.978603 87.302286 
L 157.211777 94.974374 
L 157.449384 94.97387 
L 157.685107 101.65628 
L 157.923361 113.34911 
L 158.160621 113.349362 
L 158.632147 126.713426 
L 159.104454 138.096871 
L 159.343925 136.736032 
L 159.579678 128.383902 
L 159.815974 128.383902 
L 160.052722 129.218762 
L 160.288478 126.105498 
L 160.760894 110.008662 
L 160.999821 98.315579 
L 161.473476 89.962441 
L 161.945689 98.315579 
L 162.183164 98.315579 
L 162.417612 104.99698 
L 162.893137 126.713173 
L 163.131889 135.065807 
L 163.363089 126.713426 
L 163.836705 135.065807 
L 164.073197 147.366313 
L 164.313563 146.75889 
L 164.546476 145.088414 
L 165.49531 115.020091 
L 165.732383 116.690063 
L 165.967488 111.678886 
L 166.202389 109.173298 
L 166.439343 111.678634 
L 166.678357 110.00841 
L 166.91512 111.679138 
L 167.151844 104.99698 
L 167.385676 108.337933 
L 167.624936 110.00841 
L 167.85901 105.832345 
L 168.095451 104.99698 
L 168.571548 98.315075 
L 168.80518 98.314823 
L 169.515251 88.292217 
L 169.988569 91.633169 
L 170.225457 88.292217 
L 170.461548 86.621992 
L 170.700994 88.292469 
L 170.93718 88.291965 
L 171.1721 84.951264 
L 171.410611 88.292217 
L 171.646445 89.962693 
L 171.881375 94.974122 
L 172.117446 96.644599 
L 172.356238 96.644851 
L 172.593193 93.303646 
L 172.829971 88.292469 
L 173.066021 89.962693 
L 173.303079 85.786628 
L 173.537686 86.62174 
L 173.775043 86.621488 
L 174.010249 83.280788 
L 174.487478 94.97387 
L 174.720846 93.303898 
L 174.958012 93.303394 
L 175.193443 89.962441 
L 175.432686 93.303898 
L 175.668142 90.797805 
L 175.903985 93.303646 
L 176.139824 91.633169 
L 176.379411 93.303646 
L 176.613852 91.633169 
L 176.85256 88.292217 
L 177.089057 91.633169 
L 177.325335 88.291965 
L 177.562111 91.633169 
L 177.79901 89.962693 
L 178.271646 93.303646 
L 178.508395 84.951516 
L 178.745021 93.303898 
L 178.982112 92.696475 
L 179.218286 84.951516 
L 179.452377 99.985551 
L 179.691408 89.962693 
L 179.928146 89.962441 
L 180.165393 96.644851 
L 180.639476 78.269106 
L 180.871911 88.292469 
L 181.108911 77.434246 
L 181.345901 73.258181 
L 181.821162 59.894118 
L 182.058027 66.576024 
L 182.295074 58.223642 
L 182.531136 54.882689 
L 182.766843 48.200784 
L 183.00143 49.87126 
L 183.238845 44.859831 
L 183.713693 31.49602 
L 184.186141 23.143638 
L 184.422959 26.484591 
L 184.660201 31.49602 
L 184.897545 33.166496 
L 185.36793 33.166496 
L 185.607678 29.825543 
L 185.840681 33.166496 
L 186.078106 33.166748 
L 186.554187 25.649479 
L 186.790614 29.825543 
L 187.024099 28.155067 
L 187.260926 28.155067 
L 187.733966 24.813862 
L 187.970762 26.484339 
L 188.209831 27.319703 
L 188.445621 29.825291 
L 188.680697 26.484591 
L 188.916749 28.155067 
L 189.153633 28.155067 
L 189.392234 23.143638 
L 189.627802 26.484591 
L 189.863504 27.845934 
L 190.102396 26.174954 
L 190.336864 28.155067 
L 190.574984 26.484591 
L 190.811698 23.14389 
L 191.046331 24.813862 
L 191.286871 28.155067 
L 191.519623 28.155067 
L 191.756253 23.14389 
L 192.230456 31.49602 
L 192.466027 31.49602 
L 192.703648 24.814114 
L 192.939255 26.484591 
L 193.175748 26.484843 
L 193.412871 24.814366 
L 194.126914 24.814114 
L 194.358537 26.484591 
L 194.595289 24.814114 
L 195.070781 31.49602 
L 195.543681 24.814114 
L 195.778242 29.825543 
L 196.01543 27.319955 
L 196.251901 28.155067 
L 196.727062 24.814114 
L 196.964568 29.825543 
L 197.199359 26.484591 
L 197.437055 26.484591 
L 197.671794 23.143638 
L 197.911303 26.484339 
L 198.146305 31.49602 
L 198.381404 28.155067 
L 198.620491 29.825543 
L 198.856616 26.484591 
L 199.091788 24.814114 
L 199.566093 29.825291 
L 199.804861 28.155319 
L 200.037026 21.473162 
L 200.273583 28.155319 
L 200.510385 26.484591 
L 200.746679 28.155067 
L 200.98364 26.484591 
L 201.220169 33.166496 
L 201.45645 26.019127 
L 201.693291 24.813862 
L 201.931014 31.495768 
L 202.166321 28.155319 
L 202.403022 26.484591 
L 202.639871 26.484591 
L 202.876103 29.825796 
L 203.1146 24.814366 
L 203.34948 24.814366 
L 203.822326 28.155067 
L 204.061175 31.496272 
L 204.533865 24.814114 
L 204.770612 31.49602 
L 205.005428 30.939278 
L 205.243542 24.814366 
L 205.480848 29.825543 
L 205.952648 26.484591 
L 206.188529 26.484591 
L 206.426623 29.083222 
L 206.662392 29.825543 
L 207.372519 24.814114 
L 207.608845 28.155067 
L 207.847154 26.484591 
L 208.318864 26.484591 
L 208.554529 28.155067 
L 208.791403 28.155067 
L 209.027704 26.484591 
L 209.265222 27.319703 
L 209.502039 29.825543 
L 209.73752 29.825543 
L 209.973716 28.155067 
L 210.211843 25.370604 
L 210.44974 28.155067 
L 210.92145 24.814114 
L 211.157101 29.825543 
L 211.393455 26.484843 
L 211.62982 36.507449 
L 211.867793 39.848402 
L 212.102844 48.200784 
L 212.340454 51.541989 
L 212.577461 51.541989 
L 212.813774 48.200531 
L 213.28708 64.905295 
L 213.523486 71.587705 
L 214.232318 61.564847 
L 214.706206 77.433994 
L 214.942264 83.280788 
L 215.179184 83.280788 
L 215.416384 81.610311 
L 215.652896 98.315075 
L 215.888639 103.326504 
L 216.125323 86.62174 
L 216.598397 98.314571 
L 216.835162 98.315075 
L 217.071363 104.99698 
L 217.308698 103.326504 
L 217.545557 98.315075 
L 217.781977 104.997233 
L 218.018012 103.326252 
L 218.254682 104.997233 
L 218.491278 115.019839 
L 218.727953 111.679138 
L 218.964599 115.019839 
L 219.201059 115.019839 
L 219.438015 112.513998 
L 219.674858 120.031016 
L 219.910643 118.360792 
L 220.147822 119.195904 
L 220.385047 118.360792 
L 220.621736 121.701744 
L 220.857091 115.019587 
L 221.094004 118.360792 
L 221.330691 116.690315 
L 221.567458 118.361044 
L 222.04073 130.054126 
L 222.276931 128.38365 
L 222.513325 135.065555 
L 222.749963 128.38365 
L 222.986978 131.72435 
L 223.224004 128.38365 
L 223.460225 128.38365 
L 223.933749 125.042697 
L 224.169895 126.713173 
L 224.406746 125.042445 
L 224.642933 130.054126 
L 224.880226 128.38365 
L 225.116322 130.054126 
L 225.353211 140.076984 
L 225.589123 140.077237 
L 225.826268 141.747461 
L 226.062837 145.088414 
L 226.536166 141.747461 
L 226.772386 143.417685 
L 227.008829 141.747461 
L 227.482557 140.077237 
L 227.482557 140.077237 
" clip-path="url(#pcd4d1e5547)" style="fill: none; stroke: #0000ff; stroke-linecap: square"/>
   </g>
   <g id="line2d_15">
    <path d="M 50.099375 27.367107 
L 235.929375 27.367107 
" clip-path="url(#pcd4d1e5547)" style="fill: none; stroke-dasharray: 3.7,1.6; stroke-dashoffset: 0; stroke: #000000; stroke-opacity: 0.7"/>
   </g>
   <g id="patch_3">
    <path d="M 50.099375 160.20625 
L 50.099375 11.36625 
" style="fill: none; stroke: #000000; stroke-width: 0.8; stroke-linejoin: miter; stroke-linecap: square"/>
   </g>
   <g id="patch_4">
    <path d="M 235.929375 160.20625 
L 235.929375 11.36625 
" style="fill: none; stroke: #000000; stroke-width: 0.8; stroke-linejoin: miter; stroke-linecap: square"/>
   </g>
   <g id="patch_5">
    <path d="M 50.099375 160.20625 
L 235.929375 160.20625 
" style="fill: none; stroke: #000000; stroke-width: 0.8; stroke-linejoin: miter; stroke-linecap: square"/>
   </g>
   <g id="patch_6">
    <path d="M 50.099375 11.36625 
L 235.929375 11.36625 
" style="fill: none; stroke: #000000; stroke-width: 0.8; stroke-linejoin: miter; stroke-linecap: square"/>
   </g>
  </g>
  <g id="axes_2">
   <g id="patch_7">
    <path d="M 295.979375 160.20625 
L 481.809375 160.20625 
L 481.809375 11.36625 
L 295.979375 11.36625 
z
" style="fill: #ffffff"/>
   </g>
   <g id="matplotlib.axis_3">
    <g id="xtick_4">
     <g id="line2d_16">
      <path d="M 304.426193 160.20625 
L 304.426193 11.36625 
" clip-path="url(#p29f74933fb)" style="fill: none; stroke: #b0b0b0; stroke-opacity: 0.3; stroke-width: 0.8; stroke-linecap: square"/>
     </g>
     <g id="line2d_17">
      <g>
       <use xlink:href="#m13216bef8a" x="304.426193" y="160.20625" style="stroke: #000000; stroke-width: 0.8"/>
      </g>
     </g>
     <g id="text_9">
      <!-- 0 -->
      <g transform="translate(301.426193 175.53875) scale(0.12 -0.12)">
       <use xlink:href="#TimesNewRomanPSMT-30"/>
      </g>
     </g>
    </g>
    <g id="xtick_5">
     <g id="line2d_18">
      <path d="M 375.408467 160.20625 
L 375.408467 11.36625 
" clip-path="url(#p29f74933fb)" style="fill: none; stroke: #b0b0b0; stroke-opacity: 0.3; stroke-width: 0.8; stroke-linecap: square"/>
     </g>
     <g id="line2d_19">
      <g>
       <use xlink:href="#m13216bef8a" x="375.408467" y="160.20625" style="stroke: #000000; stroke-width: 0.8"/>
      </g>
     </g>
     <g id="text_10">
      <!-- 10 -->
      <g transform="translate(369.408467 175.53875) scale(0.12 -0.12)">
       <use xlink:href="#TimesNewRomanPSMT-31"/>
       <use xlink:href="#TimesNewRomanPSMT-30" x="50"/>
      </g>
     </g>
    </g>
    <g id="xtick_6">
     <g id="line2d_20">
      <path d="M 446.390742 160.20625 
L 446.390742 11.36625 
" clip-path="url(#p29f74933fb)" style="fill: none; stroke: #b0b0b0; stroke-opacity: 0.3; stroke-width: 0.8; stroke-linecap: square"/>
     </g>
     <g id="line2d_21">
      <g>
       <use xlink:href="#m13216bef8a" x="446.390742" y="160.20625" style="stroke: #000000; stroke-width: 0.8"/>
      </g>
     </g>
     <g id="text_11">
      <!-- 20 -->
      <g transform="translate(440.390742 175.53875) scale(0.12 -0.12)">
       <use xlink:href="#TimesNewRomanPSMT-32"/>
       <use xlink:href="#TimesNewRomanPSMT-30" x="50"/>
      </g>
     </g>
    </g>
    <g id="text_12">
     <!-- $t$ [s] -->
     <g transform="translate(379.354375 190.438125) scale(0.12 -0.12)">
      <use xlink:href="#STIXGeneral-Italic-74" transform="translate(0 0.28125)"/>
      <use xlink:href="#TimesNewRomanPSMT-20" transform="translate(27.799988 0.28125)"/>
      <use xlink:href="#TimesNewRomanPSMT-5b" transform="translate(52.799988 0.28125)"/>
      <use xlink:href="#TimesNewRomanPSMT-73" transform="translate(86.100769 0.28125)"/>
      <use xlink:href="#TimesNewRomanPSMT-5d" transform="translate(125.016785 0.28125)"/>
     </g>
    </g>
   </g>
   <g id="matplotlib.axis_4">
    <g id="ytick_4">
     <g id="line2d_22">
      <path d="M 295.979375 160.20625 
L 481.809375 160.20625 
" clip-path="url(#p29f74933fb)" style="fill: none; stroke: #b0b0b0; stroke-opacity: 0.3; stroke-width: 0.8; stroke-linecap: square"/>
     </g>
     <g id="line2d_23">
      <g>
       <use xlink:href="#m74e194c188" x="295.979375" y="160.20625" style="stroke: #000000; stroke-width: 0.8"/>
      </g>
     </g>
     <g id="text_13">
      <!-- −1.5 -->
      <g transform="translate(267.2125 164.3725) scale(0.12 -0.12)">
       <defs>
        <path id="TimesNewRomanPSMT-2212" d="M 3484 2000 
L 116 2000 
L 116 2256 
L 3484 2256 
L 3484 2000 
z
" transform="scale(0.015625)"/>
       </defs>
       <use xlink:href="#TimesNewRomanPSMT-2212"/>
       <use xlink:href="#TimesNewRomanPSMT-31" x="56.396484"/>
       <use xlink:href="#TimesNewRomanPSMT-2e" x="106.396484"/>
       <use xlink:href="#TimesNewRomanPSMT-35" x="131.396484"/>
      </g>
     </g>
    </g>
    <g id="ytick_5">
     <g id="line2d_24">
      <path d="M 295.979375 135.399583 
L 481.809375 135.399583 
" clip-path="url(#p29f74933fb)" style="fill: none; stroke: #b0b0b0; stroke-opacity: 0.3; stroke-width: 0.8; stroke-linecap: square"/>
     </g>
     <g id="line2d_25">
      <g>
       <use xlink:href="#m74e194c188" x="295.979375" y="135.399583" style="stroke: #000000; stroke-width: 0.8"/>
      </g>
     </g>
     <g id="text_14">
      <!-- −1.0 -->
      <g transform="translate(267.2125 139.565833) scale(0.12 -0.12)">
       <use xlink:href="#TimesNewRomanPSMT-2212"/>
       <use xlink:href="#TimesNewRomanPSMT-31" x="56.396484"/>
       <use xlink:href="#TimesNewRomanPSMT-2e" x="106.396484"/>
       <use xlink:href="#TimesNewRomanPSMT-30" x="131.396484"/>
      </g>
     </g>
    </g>
    <g id="ytick_6">
     <g id="line2d_26">
      <path d="M 295.979375 110.592917 
L 481.809375 110.592917 
" clip-path="url(#p29f74933fb)" style="fill: none; stroke: #b0b0b0; stroke-opacity: 0.3; stroke-width: 0.8; stroke-linecap: square"/>
     </g>
     <g id="line2d_27">
      <g>
       <use xlink:href="#m74e194c188" x="295.979375" y="110.592917" style="stroke: #000000; stroke-width: 0.8"/>
      </g>
     </g>
     <g id="text_15">
      <!-- −0.5 -->
      <g transform="translate(267.2125 114.759167) scale(0.12 -0.12)">
       <use xlink:href="#TimesNewRomanPSMT-2212"/>
       <use xlink:href="#TimesNewRomanPSMT-30" x="56.396484"/>
       <use xlink:href="#TimesNewRomanPSMT-2e" x="106.396484"/>
       <use xlink:href="#TimesNewRomanPSMT-35" x="131.396484"/>
      </g>
     </g>
    </g>
    <g id="ytick_7">
     <g id="line2d_28">
      <path d="M 295.979375 85.78625 
L 481.809375 85.78625 
" clip-path="url(#p29f74933fb)" style="fill: none; stroke: #b0b0b0; stroke-opacity: 0.3; stroke-width: 0.8; stroke-linecap: square"/>
     </g>
     <g id="line2d_29">
      <g>
       <use xlink:href="#m74e194c188" x="295.979375" y="85.78625" style="stroke: #000000; stroke-width: 0.8"/>
      </g>
     </g>
     <g id="text_16">
      <!-- 0.0 -->
      <g transform="translate(273.979375 89.9525) scale(0.12 -0.12)">
       <use xlink:href="#TimesNewRomanPSMT-30"/>
       <use xlink:href="#TimesNewRomanPSMT-2e" x="50"/>
       <use xlink:href="#TimesNewRomanPSMT-30" x="75"/>
      </g>
     </g>
    </g>
    <g id="ytick_8">
     <g id="line2d_30">
      <path d="M 295.979375 60.979583 
L 481.809375 60.979583 
" clip-path="url(#p29f74933fb)" style="fill: none; stroke: #b0b0b0; stroke-opacity: 0.3; stroke-width: 0.8; stroke-linecap: square"/>
     </g>
     <g id="line2d_31">
      <g>
       <use xlink:href="#m74e194c188" x="295.979375" y="60.979583" style="stroke: #000000; stroke-width: 0.8"/>
      </g>
     </g>
     <g id="text_17">
      <!-- 0.5 -->
      <g transform="translate(273.979375 65.145833) scale(0.12 -0.12)">
       <use xlink:href="#TimesNewRomanPSMT-30"/>
       <use xlink:href="#TimesNewRomanPSMT-2e" x="50"/>
       <use xlink:href="#TimesNewRomanPSMT-35" x="75"/>
      </g>
     </g>
    </g>
    <g id="ytick_9">
     <g id="line2d_32">
      <path d="M 295.979375 36.172917 
L 481.809375 36.172917 
" clip-path="url(#p29f74933fb)" style="fill: none; stroke: #b0b0b0; stroke-opacity: 0.3; stroke-width: 0.8; stroke-linecap: square"/>
     </g>
     <g id="line2d_33">
      <g>
       <use xlink:href="#m74e194c188" x="295.979375" y="36.172917" style="stroke: #000000; stroke-width: 0.8"/>
      </g>
     </g>
     <g id="text_18">
      <!-- 1.0 -->
      <g transform="translate(273.979375 40.339167) scale(0.12 -0.12)">
       <use xlink:href="#TimesNewRomanPSMT-31"/>
       <use xlink:href="#TimesNewRomanPSMT-2e" x="50"/>
       <use xlink:href="#TimesNewRomanPSMT-30" x="75"/>
      </g>
     </g>
    </g>
    <g id="ytick_10">
     <g id="line2d_34">
      <path d="M 295.979375 11.36625 
L 481.809375 11.36625 
" clip-path="url(#p29f74933fb)" style="fill: none; stroke: #b0b0b0; stroke-opacity: 0.3; stroke-width: 0.8; stroke-linecap: square"/>
     </g>
     <g id="line2d_35">
      <g>
       <use xlink:href="#m74e194c188" x="295.979375" y="11.36625" style="stroke: #000000; stroke-width: 0.8"/>
      </g>
     </g>
     <g id="text_19">
      <!-- 1.5 -->
      <g transform="translate(273.979375 15.5325) scale(0.12 -0.12)">
       <use xlink:href="#TimesNewRomanPSMT-31"/>
       <use xlink:href="#TimesNewRomanPSMT-2e" x="50"/>
       <use xlink:href="#TimesNewRomanPSMT-35" x="75"/>
      </g>
     </g>
    </g>
    <g id="text_20">
     <!-- $\omega$ [rad/s] -->
     <g transform="translate(260.645625 107.08625) rotate(-90) scale(0.12 -0.12)">
      <defs>
       <path id="STIXGeneral-Italic-3c9" d="M 3021 2810 
L 3136 2810 
Q 3648 2810 3898 2598 
Q 4186 2355 4186 1824 
Q 4186 1357 3910 838 
Q 3667 390 3334 160 
Q 3002 -70 2669 -70 
Q 2438 -70 2281 3 
Q 2125 77 2064 160 
Q 2003 243 1939 384 
Q 1741 147 1533 38 
Q 1325 -70 998 -70 
Q 659 -70 416 160 
Q 173 390 173 832 
Q 173 1101 237 1350 
Q 403 1965 883 2387 
Q 1363 2810 2010 2810 
L 2125 2810 
L 2125 2707 
Q 1606 2707 1267 2291 
Q 1024 1990 867 1526 
Q 710 1062 710 666 
Q 710 64 1075 64 
Q 1286 64 1523 285 
Q 1760 506 1856 774 
Q 1837 915 1837 1101 
Q 1837 1363 1914 1651 
Q 1984 1920 2125 2105 
Q 2266 2291 2432 2291 
Q 2656 2291 2656 1997 
Q 2656 1530 2387 1062 
Q 2272 864 2189 736 
Q 2176 691 2176 602 
Q 2176 384 2288 224 
Q 2400 64 2592 64 
Q 3040 64 3341 627 
Q 3482 896 3565 1270 
Q 3648 1645 3648 1971 
Q 3648 2240 3616 2362 
Q 3565 2566 3411 2636 
Q 3258 2707 3021 2707 
L 3021 2810 
z
" transform="scale(0.015625)"/>
       <path id="TimesNewRomanPSMT-72" d="M 1038 2947 
L 1038 2303 
Q 1397 2947 1775 2947 
Q 1947 2947 2059 2842 
Q 2172 2738 2172 2600 
Q 2172 2478 2090 2393 
Q 2009 2309 1897 2309 
Q 1788 2309 1652 2417 
Q 1516 2525 1450 2525 
Q 1394 2525 1328 2463 
Q 1188 2334 1038 2041 
L 1038 669 
Q 1038 431 1097 309 
Q 1138 225 1241 169 
Q 1344 113 1538 113 
L 1538 0 
L 72 0 
L 72 113 
Q 291 113 397 181 
Q 475 231 506 341 
Q 522 394 522 644 
L 522 1753 
Q 522 2253 501 2348 
Q 481 2444 426 2487 
Q 372 2531 291 2531 
Q 194 2531 72 2484 
L 41 2597 
L 906 2947 
L 1038 2947 
z
" transform="scale(0.015625)"/>
       <path id="TimesNewRomanPSMT-61" d="M 1822 413 
Q 1381 72 1269 19 
Q 1100 -59 909 -59 
Q 613 -59 420 144 
Q 228 347 228 678 
Q 228 888 322 1041 
Q 450 1253 767 1440 
Q 1084 1628 1822 1897 
L 1822 2009 
Q 1822 2438 1686 2597 
Q 1550 2756 1291 2756 
Q 1094 2756 978 2650 
Q 859 2544 859 2406 
L 866 2225 
Q 866 2081 792 2003 
Q 719 1925 600 1925 
Q 484 1925 411 2006 
Q 338 2088 338 2228 
Q 338 2497 613 2722 
Q 888 2947 1384 2947 
Q 1766 2947 2009 2819 
Q 2194 2722 2281 2516 
Q 2338 2381 2338 1966 
L 2338 994 
Q 2338 584 2353 492 
Q 2369 400 2405 369 
Q 2441 338 2488 338 
Q 2538 338 2575 359 
Q 2641 400 2828 588 
L 2828 413 
Q 2478 -56 2159 -56 
Q 2006 -56 1915 50 
Q 1825 156 1822 413 
z
M 1822 616 
L 1822 1706 
Q 1350 1519 1213 1441 
Q 966 1303 859 1153 
Q 753 1003 753 825 
Q 753 600 887 451 
Q 1022 303 1197 303 
Q 1434 303 1822 616 
z
" transform="scale(0.015625)"/>
       <path id="TimesNewRomanPSMT-64" d="M 2222 322 
Q 2013 103 1813 7 
Q 1613 -88 1381 -88 
Q 913 -88 563 304 
Q 213 697 213 1313 
Q 213 1928 600 2439 
Q 988 2950 1597 2950 
Q 1975 2950 2222 2709 
L 2222 3238 
Q 2222 3728 2198 3840 
Q 2175 3953 2125 3993 
Q 2075 4034 2000 4034 
Q 1919 4034 1784 3984 
L 1744 4094 
L 2597 4444 
L 2738 4444 
L 2738 1134 
Q 2738 631 2761 520 
Q 2784 409 2836 365 
Q 2888 322 2956 322 
Q 3041 322 3181 375 
L 3216 266 
L 2366 -88 
L 2222 -88 
L 2222 322 
z
M 2222 541 
L 2222 2016 
Q 2203 2228 2109 2403 
Q 2016 2578 1861 2667 
Q 1706 2756 1559 2756 
Q 1284 2756 1069 2509 
Q 784 2184 784 1559 
Q 784 928 1059 592 
Q 1334 256 1672 256 
Q 1956 256 2222 541 
z
" transform="scale(0.015625)"/>
      </defs>
      <use xlink:href="#STIXGeneral-Italic-3c9" transform="translate(0 0.5625)"/>
      <use xlink:href="#TimesNewRomanPSMT-20" transform="translate(68.599991 0.5625)"/>
      <use xlink:href="#TimesNewRomanPSMT-5b" transform="translate(93.599991 0.5625)"/>
      <use xlink:href="#TimesNewRomanPSMT-72" transform="translate(126.900772 0.5625)"/>
      <use xlink:href="#TimesNewRomanPSMT-61" transform="translate(160.201553 0.5625)"/>
      <use xlink:href="#TimesNewRomanPSMT-64" transform="translate(204.586319 0.5625)"/>
      <use xlink:href="#TimesNewRomanPSMT-2f" transform="translate(254.586319 0.5625)"/>
      <use xlink:href="#TimesNewRomanPSMT-73" transform="translate(282.369522 0.5625)"/>
      <use xlink:href="#TimesNewRomanPSMT-5d" transform="translate(321.285538 0.5625)"/>
     </g>
    </g>
   </g>
   <g id="line2d_36">
    <path d="M 304.426193 85.78625 
L 307.268609 85.684741 
L 307.975229 85.66053 
L 308.68517 85.71178 
L 311.760515 85.551629 
L 316.019525 85.825296 
L 316.495216 84.592156 
L 317.441556 84.635766 
L 318.149371 84.360164 
L 318.623645 84.463211 
L 318.859634 83.41637 
L 319.09788 83.16741 
L 319.568847 83.297397 
L 319.80568 83.016635 
L 320.042216 82.948963 
L 320.755538 83.250066 
L 321.462799 84.549142 
L 321.698246 84.696245 
L 322.172 85.527963 
L 322.884271 85.78625 
L 323.356922 86.659197 
L 323.83021 86.822474 
L 324.065653 87.389356 
L 324.301018 88.500397 
L 324.776648 88.580225 
L 325.011089 89.064302 
L 325.247339 89.920033 
L 325.722867 89.747825 
L 326.433214 88.632021 
L 326.669471 88.706044 
L 327.376826 87.64164 
L 327.850907 87.551989 
L 328.560494 82.590655 
L 329.035606 81.883268 
L 329.272345 81.844868 
L 329.747001 81.447316 
L 329.980006 81.969248 
L 330.217967 82.050713 
L 330.692341 82.460767 
L 331.166153 82.108463 
L 331.399897 82.203423 
L 331.637758 82.15639 
L 332.113183 84.256175 
L 332.821438 84.455124 
L 333.295806 85.054701 
L 333.769306 85.183646 
L 334.242878 86.82302 
L 334.949588 87.134244 
L 335.187285 88.263642 
L 335.424329 88.413425 
L 335.895752 88.402758 
L 336.371578 87.547325 
L 336.845285 87.46204 
L 337.082048 87.688723 
L 337.316795 88.880088 
L 338.024918 88.791677 
L 338.737619 88.679005 
L 339.211411 87.917192 
L 339.919854 87.708469 
L 340.631143 86.411973 
L 341.337516 85.972151 
L 342.9936 74.395674 
L 343.23334 76.049484 
L 343.469458 74.395674 
L 346.072278 92.587246 
L 346.309076 93.423528 
L 346.545702 94.802481 
L 347.01726 95.868424 
L 347.254245 95.421904 
L 347.726043 93.053016 
L 347.965282 92.9203 
L 350.094183 78.0363 
L 350.565037 81.343872 
L 356.716524 38.909638 
L 356.955871 38.861711 
L 357.192243 39.08383 
L 357.429128 38.428438 
L 357.665661 40.082199 
L 357.901083 40.750739 
L 358.136381 40.725238 
L 358.372712 41.489928 
L 358.845814 44.056823 
L 359.085269 43.488006 
L 359.319211 45.141767 
L 359.558919 45.180217 
L 359.794706 45.549837 
L 360.030981 44.999476 
L 360.267634 46.653287 
L 360.504558 46.200466 
L 360.738554 46.104117 
L 361.212307 48.091726 
L 361.687365 51.399249 
L 361.922654 51.865217 
L 362.394592 55.058381 
L 362.632902 55.720719 
L 362.869609 54.489217 
L 363.341508 57.796789 
L 363.577968 56.88182 
L 363.817572 57.941809 
L 364.051482 58.223265 
L 365.944119 58.211854 
L 366.655708 62.370146 
L 366.890361 62.960693 
L 367.365019 65.503873 
L 368.076073 70.168568 
L 368.785975 75.129901 
L 369.022741 73.47614 
L 369.259155 74.189233 
L 369.966226 78.640194 
L 370.205433 77.98108 
L 370.442284 78.462925 
L 371.149894 80.728617 
L 371.861645 81.347444 
L 372.098498 81.394924 
L 372.334086 81.872899 
L 372.571273 81.984529 
L 372.805406 81.702924 
L 373.282208 82.038657 
L 373.517673 81.935759 
L 373.753319 81.217557 
L 373.990988 81.324821 
L 374.227512 81.232093 
L 374.462752 81.705355 
L 374.936353 81.951437 
L 375.173605 82.39498 
L 376.118599 82.780029 
L 376.357679 83.179665 
L 376.828342 85.225917 
L 377.539445 86.246066 
L 377.777851 87.218537 
L 378.011451 87.633702 
L 378.484358 87.856515 
L 378.720436 88.139658 
L 379.196079 88.184757 
L 379.669529 89.918346 
L 380.143006 89.834103 
L 380.3784 89.083899 
L 380.616801 87.519045 
L 380.85162 87.221068 
L 381.088691 87.1656 
L 381.324455 86.825054 
L 381.559939 86.000083 
L 381.799394 85.891381 
L 382.035491 85.942135 
L 382.26973 85.864788 
L 382.508658 85.589037 
L 382.74513 84.930222 
L 382.98288 84.896981 
L 383.454336 85.130163 
L 383.691246 85.651649 
L 383.926583 85.831993 
L 384.401449 85.964511 
L 385.11141 86.576838 
L 385.584608 86.6074 
L 385.822283 87.909006 
L 386.529187 87.977125 
L 387.004908 88.948405 
L 387.243144 89.014342 
L 388.425429 88.255406 
L 388.897595 87.899232 
L 389.132968 87.159249 
L 389.369019 86.87179 
L 389.605575 86.806995 
L 389.84332 86.411924 
L 390.081628 84.917074 
L 390.31822 84.756228 
L 390.555373 84.839727 
L 391.02908 84.629565 
L 391.261621 84.308963 
L 391.49839 84.273391 
L 391.975905 84.491193 
L 392.44845 83.616064 
L 392.681202 83.612442 
L 393.391239 84.001162 
L 393.631196 83.946191 
L 394.102642 84.360909 
L 394.337909 84.44922 
L 394.574347 83.915927 
L 394.815419 82.923511 
L 395.285293 82.928621 
L 395.994995 83.991537 
L 396.234457 84.056183 
L 396.470199 84.52374 
L 396.943032 87.41456 
L 397.886317 94.029704 
L 398.596308 89.06837 
L 400.962321 105.606132 
L 401.201925 106.004279 
L 404.749018 81.675587 
L 404.984454 80.959319 
L 405.932722 76.365373 
L 406.404794 76.138937 
L 406.640894 75.521946 
L 414.921916 132.308474 
L 415.161878 131.774486 
L 415.395251 130.347904 
L 415.868569 130.841209 
L 416.341548 128.186797 
L 416.580994 128.351166 
L 416.81718 127.8913 
L 417.0521 126.237539 
L 417.290611 126.789685 
L 417.526445 126.769443 
L 417.761375 128.422758 
L 417.997446 128.731849 
L 418.236238 128.29803 
L 419.417686 120.242015 
L 419.655043 120.020641 
L 419.890249 118.419271 
L 420.367478 121.726843 
L 420.600846 122.394391 
L 420.838012 121.730415 
L 421.073443 120.076654 
L 421.312686 121.57969 
L 421.548142 119.925929 
L 421.783985 120.421219 
L 422.019824 119.46512 
L 422.259411 119.824618 
L 423.205335 113.66805 
L 423.442111 113.923708 
L 423.67901 113.349235 
L 424.151646 115.520761 
L 424.388395 113.86695 
L 424.625021 113.824977 
L 424.862112 113.349235 
L 425.098286 111.695424 
L 425.332377 113.349235 
L 425.571408 111.695424 
L 425.808146 111.607162 
L 426.045393 113.260923 
L 426.519476 109.953351 
L 426.751911 109.506682 
L 430.540201 83.084556 
L 430.777545 82.986669 
L 431.01343 82.465282 
L 431.487678 82.7645 
L 431.720681 82.554487 
L 431.958106 82.706006 
L 432.196162 82.657782 
L 432.434187 82.466969 
L 432.904099 82.543919 
L 433.140926 82.475205 
L 433.378014 82.536378 
L 433.613966 82.788215 
L 434.325621 82.538313 
L 434.560697 81.844768 
L 435.272234 81.692108 
L 435.743504 81.94459 
L 436.454984 81.865259 
L 436.691698 81.648895 
L 436.926331 81.261415 
L 437.399623 81.226934 
L 437.87284 80.493897 
L 438.346027 80.527584 
L 438.583648 80.547628 
L 438.819255 80.05973 
L 439.292871 80.194877 
L 440.238537 80.804526 
L 440.714468 80.002675 
L 440.950781 79.909948 
L 441.423681 80.563951 
L 441.658242 81.418887 
L 442.131901 81.807112 
L 442.37054 81.731948 
L 442.607062 81.221278 
L 442.844568 81.276993 
L 443.079359 81.536521 
L 443.551794 81.360046 
L 443.791303 81.480259 
L 444.026305 81.360195 
L 444.736616 82.490089 
L 445.446093 82.793822 
L 445.917026 83.221141 
L 446.390385 82.821357 
L 446.626679 82.93011 
L 446.86364 83.194698 
L 447.100169 83.276311 
L 447.33645 83.666917 
L 447.811014 83.784253 
L 448.046321 85.20116 
L 448.519871 85.478002 
L 448.756103 86.226271 
L 448.9946 86.568156 
L 449.466036 86.690354 
L 450.177195 86.696605 
L 450.650612 86.673833 
L 450.885428 86.784917 
L 451.832648 86.742349 
L 452.306623 86.749046 
L 452.778734 85.646588 
L 453.488845 85.585663 
L 453.727154 86.596138 
L 455.145222 86.750832 
L 455.853716 86.86921 
L 456.091843 87.128936 
L 456.565098 87.126257 
L 456.80145 86.662521 
L 457.037101 85.446548 
L 457.273455 85.169904 
L 457.50982 85.170549 
L 457.747793 85.386118 
L 457.982844 85.975674 
L 458.693774 86.059768 
L 458.930248 86.829122 
L 459.16708 88.368326 
L 459.403486 88.53339 
L 459.877104 88.580225 
L 460.349838 90.11154 
L 460.822264 89.958731 
L 461.532896 89.195232 
L 462.005323 89.04917 
L 462.241916 90.601621 
L 462.715162 90.536578 
L 463.188698 89.25194 
L 463.661977 89.188732 
L 463.898012 89.803888 
L 464.134682 90.866655 
L 464.844599 90.799628 
L 465.081059 91.180906 
L 465.318015 92.834667 
L 465.554858 92.938657 
L 466.027822 92.782474 
L 466.501736 93.867071 
L 466.974004 93.159436 
L 467.683496 92.61498 
L 467.92073 92.855952 
L 468.156931 92.808968 
L 468.866978 92.36349 
L 469.813749 91.84895 
L 470.049895 91.442815 
L 471.942837 90.664977 
L 472.179009 91.181849 
L 472.416166 92.467033 
L 473.362557 92.859077 
L 473.362557 92.859077 
" clip-path="url(#p29f74933fb)" style="fill: none; stroke: #ff0000; stroke-opacity: 0.8; stroke-linecap: square"/>
   </g>
   <g id="line2d_37">
    <path d="M 304.426193 85.78625 
L 306.794211 85.78625 
L 307.032015 87.111521 
L 307.268609 85.78625 
L 307.50252 85.78625 
L 307.738867 83.13541 
L 307.975229 85.78625 
L 308.211566 84.460929 
L 308.68517 84.46083 
L 308.922943 83.13541 
L 309.160552 87.111521 
L 309.397454 88.436942 
L 309.633484 84.46083 
L 309.870149 85.78625 
L 310.107567 83.13541 
L 310.340976 87.111521 
L 310.580059 88.43709 
L 310.816692 83.135707 
L 311.289776 85.78625 
L 311.525263 84.460681 
L 311.760515 87.111819 
L 311.999583 87.111819 
L 312.234906 84.706614 
L 312.471766 87.111521 
L 312.709671 85.78625 
L 312.947556 85.78625 
L 313.18074 84.460979 
L 313.41709 85.78625 
L 313.653985 85.78625 
L 313.890384 84.46083 
L 314.129205 84.461127 
L 314.366068 85.78625 
L 314.603071 83.135558 
L 314.839587 84.460979 
L 315.075871 87.11167 
L 315.549521 85.78625 
L 315.783279 81.810089 
L 316.25872 88.437041 
L 316.495216 88.436942 
L 316.732191 85.78625 
L 316.968568 88.436942 
L 317.205412 87.111621 
L 317.441556 87.111621 
L 317.678833 84.460929 
L 317.912848 87.111621 
L 318.149371 85.78625 
L 318.388923 87.111621 
L 318.623645 85.78625 
L 318.859634 81.810188 
L 319.332714 87.111769 
L 319.568847 87.11167 
L 319.80568 88.436942 
L 320.042216 83.135558 
L 320.280076 83.37653 
L 320.515977 85.78625 
L 320.755538 83.135558 
L 320.988339 81.810138 
L 321.228169 83.135707 
L 321.462799 83.135558 
L 321.935569 80.484718 
L 322.172 81.809841 
L 322.411192 79.159645 
L 322.644633 84.460979 
L 322.884271 85.78625 
L 323.118345 83.798343 
L 323.356922 87.111521 
L 323.593692 85.78625 
L 323.83021 83.13541 
L 324.065653 83.135707 
L 324.301018 85.78625 
L 324.538265 87.111521 
L 324.776648 85.78625 
L 325.247339 85.78625 
L 325.485253 83.13541 
L 325.722867 87.11167 
L 325.959751 87.111819 
L 326.196629 87.774207 
L 326.433214 89.762362 
L 326.669471 88.43709 
L 326.90703 88.436793 
L 327.141435 87.111571 
L 327.376826 87.11167 
L 327.613538 88.19587 
L 327.850907 88.436991 
L 328.086534 88.436842 
L 328.324563 92.413004 
L 328.560494 87.774306 
L 328.796404 89.762263 
L 329.035606 88.436942 
L 329.272345 84.460929 
L 329.509022 87.111571 
L 329.747001 87.111621 
L 329.980006 80.484867 
L 330.217967 79.159496 
L 330.454464 84.460929 
L 330.692341 84.460929 
L 330.929754 81.810138 
L 331.166153 81.810089 
L 331.399897 84.460929 
L 331.637758 83.135558 
L 331.875931 83.135558 
L 332.113183 81.810287 
L 332.349665 81.810138 
L 332.587611 83.135558 
L 332.821438 85.78625 
L 333.055859 81.810287 
L 333.295806 84.46083 
L 333.531333 83.13541 
L 333.769306 87.11167 
L 334.005147 84.46083 
L 334.242878 83.135707 
L 334.712737 85.78625 
L 334.949588 85.78625 
L 335.187285 84.460979 
L 335.424329 84.460979 
L 335.659794 88.43709 
L 335.895752 89.762014 
L 336.134735 85.78625 
L 336.371578 89.099577 
L 336.605448 87.111819 
L 336.845285 88.436793 
L 337.082048 85.78625 
L 337.316795 88.436942 
L 337.555234 89.762362 
L 337.790631 85.78625 
L 338.261961 91.087584 
L 338.499372 85.78625 
L 338.737619 87.11167 
L 338.97306 89.762411 
L 339.211411 87.111571 
L 339.444441 88.436991 
L 339.681016 87.111571 
L 339.919854 89.762263 
L 340.157585 89.762362 
L 340.391924 84.460929 
L 340.631143 85.78625 
L 340.86752 89.762312 
L 341.102697 87.774306 
L 341.337516 88.436942 
L 341.573919 84.460879 
L 341.814171 85.123565 
L 342.049553 88.436942 
L 342.28371 87.111621 
L 342.5227 89.400879 
L 342.757201 83.135509 
L 342.9936 84.46083 
L 343.23334 84.460929 
L 343.703517 75.183385 
L 343.944912 77.834126 
L 344.176904 77.834076 
L 344.412951 72.532693 
L 344.652388 75.183385 
L 344.886626 81.810138 
L 345.122711 80.485065 
L 345.362752 77.834076 
L 345.835916 84.461127 
L 346.072278 88.43709 
L 346.309076 84.460681 
L 346.545702 87.774157 
L 346.782391 87.111819 
L 347.01726 91.087782 
L 347.254245 92.413004 
L 347.48881 96.388967 
L 347.726043 93.738424 
L 347.965282 96.630137 
L 348.201888 93.738424 
L 348.438309 95.064043 
L 348.672176 92.412855 
L 348.91149 91.750418 
L 349.148771 95.064043 
L 349.38164 94.818109 
L 349.618183 88.436793 
L 349.854795 85.78625 
L 350.330719 85.78625 
L 350.565037 80.484569 
L 350.804046 83.135707 
L 351.04091 80.485214 
L 351.278318 79.159645 
L 351.513864 73.857964 
L 351.749287 80.484916 
L 351.986954 79.822082 
L 352.221573 83.13541 
L 352.4587 76.508805 
L 352.694229 77.171589 
L 352.930909 76.508457 
L 353.407395 68.556581 
L 353.640884 68.556284 
L 353.880239 67.231359 
L 354.350345 62.592463 
L 354.826526 59.279136 
L 355.062963 57.953567 
L 355.533328 50.001691 
L 355.770164 51.326664 
L 356.009069 50.001542 
L 356.2438 52.652531 
L 356.479915 46.025281 
L 356.716524 46.02543 
L 357.192243 39.398726 
L 357.429128 39.398825 
L 357.665661 38.073256 
L 357.901083 40.724345 
L 358.136381 39.398726 
L 358.372712 39.399024 
L 358.612598 38.073455 
L 358.845814 39.398924 
L 359.085269 42.049616 
L 359.319211 42.049517 
L 359.558919 46.02548 
L 359.794706 44.037374 
L 360.030981 43.374987 
L 360.267634 43.374937 
L 360.504558 47.351198 
L 360.738554 46.025579 
L 360.977869 48.676221 
L 361.212307 48.676122 
L 361.449601 47.351198 
L 361.687365 44.70001 
L 361.922654 50.00184 
L 362.159897 49.338906 
L 362.394592 51.326962 
L 362.632902 51.326664 
L 362.869609 57.953716 
L 363.341508 55.303223 
L 363.577968 56.628296 
L 363.817572 61.929976 
L 364.051482 56.628643 
L 364.290183 60.604407 
L 364.526379 61.929679 
L 364.997679 59.279037 
L 365.237377 61.267043 
L 365.709578 57.953567 
L 365.944119 60.604705 
L 366.183207 60.604407 
L 366.419348 56.627998 
L 366.890361 63.255248 
L 367.12799 60.604407 
L 367.365019 63.25495 
L 367.836594 63.25495 
L 368.076073 61.929828 
L 368.311184 64.580668 
L 368.546434 69.8822 
L 368.785975 69.882001 
L 369.730216 75.183385 
L 369.966226 73.858113 
L 370.205433 77.834225 
L 370.442284 79.159546 
L 370.676601 81.810237 
L 370.915282 73.858064 
L 371.149894 79.159496 
L 371.388212 81.810188 
L 371.624787 80.484817 
L 372.334086 84.460879 
L 372.571273 80.966761 
L 372.805406 81.810188 
L 373.044729 83.798194 
L 373.517673 79.159496 
L 373.753319 80.484817 
L 373.990988 84.46083 
L 374.227512 84.46083 
L 374.936353 80.484718 
L 375.173605 81.810138 
L 375.409034 80.484718 
L 375.646209 83.135558 
L 376.118599 83.135707 
L 376.357679 85.78625 
L 376.594676 81.810138 
L 376.828342 83.13541 
L 377.065152 83.13541 
L 377.303526 80.484916 
L 377.777851 83.13541 
L 378.247437 88.682379 
L 378.484358 87.111521 
L 378.720436 88.43709 
L 378.959676 85.78625 
L 379.196079 87.111521 
L 379.433011 91.087931 
L 379.669529 84.460681 
L 379.906129 85.78625 
L 380.143006 90.83525 
L 380.3784 89.762659 
L 380.616801 89.762362 
L 380.85162 89.099627 
L 381.088691 89.762362 
L 381.324455 84.46083 
L 381.559939 84.46083 
L 381.799394 88.436942 
L 382.035491 87.111571 
L 382.26973 89.762263 
L 382.508658 86.448935 
L 382.74513 87.11167 
L 382.98288 88.436991 
L 383.21641 88.436991 
L 383.454336 85.78625 
L 383.691246 81.810138 
L 383.926583 85.78625 
L 384.164757 87.111571 
L 384.401449 87.111621 
L 384.639305 83.135509 
L 384.874711 87.111571 
L 385.11141 85.78625 
L 385.345964 83.135558 
L 385.584608 87.111621 
L 385.822283 87.111769 
L 386.059171 88.436942 
L 386.296984 88.436942 
L 386.529187 84.460979 
L 386.76754 87.11167 
L 387.004908 87.111521 
L 387.243144 85.78625 
L 387.477817 87.258923 
L 387.712569 87.111521 
L 387.948898 87.111571 
L 388.66217 91.087584 
L 388.897595 84.460979 
L 389.605575 88.437388 
L 389.84332 84.215393 
L 390.081628 87.111819 
L 390.31822 87.111819 
L 390.555373 81.810138 
L 390.792242 87.111521 
L 391.02908 85.78625 
L 391.49839 85.78625 
L 391.738574 84.460979 
L 391.975905 85.78625 
L 392.209768 84.460979 
L 392.44845 84.46083 
L 392.918522 87.111521 
L 393.15518 84.460979 
L 393.391239 85.123465 
L 393.631196 87.111521 
L 393.86847 87.111521 
L 394.102642 79.159496 
L 394.574347 84.460929 
L 394.815419 83.135509 
L 395.047562 84.460929 
L 395.522926 84.460929 
L 395.760976 85.78625 
L 395.994995 81.810188 
L 396.470199 84.460929 
L 396.706607 79.159447 
L 397.180245 84.460979 
L 397.415872 85.78625 
L 397.652877 85.78625 
L 398.128093 88.43709 
L 398.360386 92.413004 
L 398.596308 92.413202 
L 398.83332 89.099627 
L 399.072745 83.135558 
L 399.306381 93.738275 
L 399.545963 95.063844 
L 399.781525 92.413004 
L 400.253223 89.762659 
L 400.725512 95.063398 
L 400.962321 93.738424 
L 401.67243 105.667057 
L 401.908466 103.016216 
L 402.145312 101.6903 
L 402.619266 96.388967 
L 402.858603 105.126569 
L 403.329384 97.714536 
L 403.565107 95.064043 
L 403.803361 93.738424 
L 404.040621 91.087584 
L 404.512147 88.436793 
L 404.749018 84.460979 
L 404.984454 84.215045 
L 405.223925 83.13541 
L 405.459678 76.508805 
L 405.695974 81.810486 
L 405.932722 82.472923 
L 406.404794 79.159645 
L 406.640894 79.159496 
L 406.879821 81.810138 
L 407.113785 77.834374 
L 407.353476 77.834076 
L 407.589581 79.159645 
L 407.825689 79.159645 
L 408.063164 73.857964 
L 408.536457 87.111819 
L 409.011889 89.762362 
L 409.243089 85.78625 
L 409.480612 89.762659 
L 409.716705 89.762362 
L 409.953197 90.605689 
L 410.193563 88.43709 
L 410.426476 92.413004 
L 410.667993 93.738275 
L 411.138805 100.36488 
L 411.37531 103.016068 
L 411.847488 105.666908 
L 412.082389 107.654617 
L 412.319343 105.666412 
L 412.79512 108.317252 
L 413.031844 113.618933 
L 413.265676 110.968093 
L 413.504936 112.293364 
L 413.73901 116.932161 
L 413.975451 116.269426 
L 414.68518 124.221501 
L 414.921916 124.221501 
L 415.395251 129.522934 
L 415.868569 126.872242 
L 416.341548 133.499244 
L 416.580994 132.173923 
L 416.81718 132.173576 
L 417.0521 129.523132 
L 417.290611 129.522983 
L 417.526445 128.197662 
L 417.761375 121.570958 
L 417.997446 125.546971 
L 418.236238 122.896378 
L 418.473193 125.546921 
L 418.709971 126.872292 
L 418.946021 122.89623 
L 419.183079 126.209606 
L 419.417686 122.896081 
L 419.655043 128.197563 
L 419.890249 128.197712 
L 420.12721 125.546921 
L 420.367478 121.571107 
L 420.600846 120.245389 
L 420.838012 117.595194 
L 421.073443 125.54707 
L 421.312686 117.594846 
L 421.548142 116.932161 
L 421.783985 117.594698 
L 422.019824 121.570958 
L 422.259411 117.594698 
L 422.493852 116.269277 
L 422.73256 118.920267 
L 423.205335 118.920118 
L 423.442111 113.618784 
L 423.915426 116.269426 
L 424.151646 114.944204 
L 424.388395 110.968093 
L 424.625021 112.293166 
L 424.862112 112.293314 
L 425.332377 114.944006 
L 425.571408 109.642672 
L 426.045393 114.944204 
L 426.278896 110.967944 
L 426.519476 110.968093 
L 426.751911 113.618784 
L 426.988911 105.003875 
L 427.225901 104.341141 
L 427.461859 100.365078 
L 427.701162 101.690647 
L 427.938027 109.642672 
L 428.175074 105.66666 
L 428.411136 105.66666 
L 428.646843 100.365128 
L 429.118845 103.015919 
L 429.355158 96.389115 
L 429.593693 95.063695 
L 429.829232 91.087683 
L 430.066141 91.087683 
L 430.302959 85.78625 
L 430.777545 88.436892 
L 431.01343 85.78625 
L 431.24793 80.484916 
L 431.487678 83.135558 
L 431.720681 83.135509 
L 432.196162 77.834225 
L 432.434187 82.472873 
L 432.670614 83.135558 
L 432.904099 81.810138 
L 433.140926 79.159645 
L 433.378014 85.78625 
L 433.613966 81.810138 
L 433.850762 80.484718 
L 434.089831 83.798343 
L 434.325621 83.13541 
L 434.796749 83.135558 
L 435.272234 80.484569 
L 435.507802 77.834374 
L 435.743504 84.706614 
L 436.216864 81.810138 
L 436.454984 83.13541 
L 436.691698 80.484916 
L 436.926331 81.810486 
L 437.166871 79.159645 
L 437.399623 79.159645 
L 437.87284 81.810138 
L 438.346027 81.810287 
L 438.583648 79.159496 
L 438.819255 80.484916 
L 439.055748 80.484718 
L 439.292871 79.159298 
L 439.528978 81.810138 
L 439.76896 79.159496 
L 440.006914 79.159496 
L 440.238537 81.810188 
L 440.475289 81.810138 
L 440.714468 79.159496 
L 441.185776 79.159496 
L 441.423681 81.810188 
L 441.658242 77.834126 
L 441.89543 81.147503 
L 442.131901 81.810138 
L 442.37054 77.834076 
L 442.844568 80.484867 
L 443.079359 80.484817 
L 443.317055 77.834076 
L 443.551794 83.135558 
L 443.791303 80.484718 
L 444.026305 81.810287 
L 444.261404 79.159496 
L 444.500491 77.834225 
L 444.736616 80.484916 
L 444.971788 79.159496 
L 445.209863 82.841054 
L 445.446093 83.13541 
L 445.684861 84.460979 
L 445.917026 81.809841 
L 446.153583 84.460979 
L 446.390385 80.484916 
L 446.626679 84.460681 
L 446.86364 83.13541 
L 447.100169 83.135707 
L 447.33645 81.882524 
L 447.573291 84.460979 
L 447.811014 81.810138 
L 448.046321 84.460979 
L 448.283022 80.484916 
L 448.519871 80.484916 
L 448.756103 88.436793 
L 448.9946 81.810138 
L 449.22948 84.461326 
L 449.466036 88.436942 
L 449.702326 81.810287 
L 449.941175 87.11167 
L 450.177195 84.46083 
L 450.650612 89.762362 
L 450.885428 85.78625 
L 451.123542 87.111521 
L 451.360848 91.087534 
L 451.596923 87.111571 
L 451.832648 85.78625 
L 452.068529 83.135509 
L 452.542392 85.78625 
L 452.778734 85.78625 
L 453.015984 83.135509 
L 453.252519 89.762312 
L 453.488845 84.460879 
L 453.727154 88.436942 
L 453.96228 83.135558 
L 454.198864 83.135558 
L 454.434529 87.111571 
L 454.671403 84.46083 
L 454.907704 85.78625 
L 455.145222 86.448935 
L 455.382039 83.135558 
L 455.61752 85.78625 
L 455.853716 89.762263 
L 456.091843 84.313577 
L 456.32974 81.810287 
L 456.565098 85.78625 
L 456.80145 84.46083 
L 457.037101 85.78625 
L 457.50982 91.087584 
L 457.747793 85.78625 
L 457.982844 84.460681 
L 458.693774 84.460979 
L 458.930248 87.111819 
L 459.16708 87.111819 
L 459.403486 84.460979 
L 459.640168 87.111521 
L 459.877104 84.460979 
L 460.112318 87.111521 
L 460.349838 87.111521 
L 460.586206 87.774157 
L 461.059184 93.738126 
L 461.296384 89.762362 
L 461.532896 89.762659 
L 461.768639 88.43709 
L 462.005323 88.436793 
L 462.241916 88.941757 
L 462.478397 89.762362 
L 462.715162 87.111521 
L 462.951363 87.111174 
L 463.188698 91.087584 
L 463.425557 89.762014 
L 463.661977 89.762014 
L 463.898012 88.436793 
L 464.134682 89.762014 
L 464.844599 89.762362 
L 465.081059 87.111819 
L 465.554858 88.437239 
L 465.790643 92.413004 
L 466.027822 93.075739 
L 466.265047 92.413004 
L 466.501736 95.063695 
L 466.737091 89.762213 
L 466.974004 89.762511 
L 467.447458 92.412855 
L 467.683496 93.075739 
L 467.92073 91.087782 
L 468.156931 92.413004 
L 468.866978 92.413004 
L 469.104004 89.762213 
L 469.340225 92.413004 
L 469.813749 95.063695 
L 470.049895 91.087584 
L 470.286746 92.413004 
L 470.522933 88.436793 
L 470.760226 87.11167 
L 470.996322 91.087584 
L 471.469123 91.087584 
L 471.706268 89.762362 
L 471.942837 89.762213 
L 472.179009 91.087584 
L 472.652386 88.436942 
L 472.888829 89.762362 
L 473.362557 91.087584 
L 473.362557 91.087584 
" clip-path="url(#p29f74933fb)" style="fill: none; stroke: #0000ff; stroke-linecap: square"/>
   </g>
   <g id="line2d_38">
    <path d="M 295.979375 36.172917 
L 481.809375 36.172917 
" clip-path="url(#p29f74933fb)" style="fill: none; stroke-dasharray: 7.4,3.2; stroke-dashoffset: 0; stroke: #000000; stroke-opacity: 0.7; stroke-width: 2"/>
   </g>
   <g id="line2d_39">
    <path d="M 295.979375 135.399583 
L 481.809375 135.399583 
" clip-path="url(#p29f74933fb)" style="fill: none; stroke-dasharray: 7.4,3.2; stroke-dashoffset: 0; stroke: #000000; stroke-opacity: 0.7; stroke-width: 2"/>
   </g>
   <g id="patch_8">
    <path d="M 295.979375 160.20625 
L 295.979375 11.36625 
" style="fill: none; stroke: #000000; stroke-width: 0.8; stroke-linejoin: miter; stroke-linecap: square"/>
   </g>
   <g id="patch_9">
    <path d="M 481.809375 160.20625 
L 481.809375 11.36625 
" style="fill: none; stroke: #000000; stroke-width: 0.8; stroke-linejoin: miter; stroke-linecap: square"/>
   </g>
   <g id="patch_10">
    <path d="M 295.979375 160.20625 
L 481.809375 160.20625 
" style="fill: none; stroke: #000000; stroke-width: 0.8; stroke-linejoin: miter; stroke-linecap: square"/>
   </g>
   <g id="patch_11">
    <path d="M 295.979375 11.36625 
L 481.809375 11.36625 
" style="fill: none; stroke: #000000; stroke-width: 0.8; stroke-linejoin: miter; stroke-linecap: square"/>
   </g>
  </g>
 </g>
 <defs>
  <clipPath id="pcd4d1e5547">
   <rect x="50.099375" y="11.36625" width="185.83" height="148.84"/>
  </clipPath>
  <clipPath id="p29f74933fb">
   <rect x="295.979375" y="11.36625" width="185.83" height="148.84"/>
  </clipPath>
 </defs>
</svg>
