<?xml version="1.0" encoding="utf-8" standalone="no"?>
<!DOCTYPE svg PUBLIC "-//W3C//DTD SVG 1.1//EN"
  "http://www.w3.org/Graphics/SVG/1.1/DTD/svg11.dtd">
<svg xmlns:xlink="http://www.w3.org/1999/xlink" width="258.51pt" height="95.859375pt" viewBox="0 0 258.51 95.859375" xmlns="http://www.w3.org/2000/svg" version="1.1">
 <metadata>
  <rdf:RDF xmlns:dc="http://purl.org/dc/elements/1.1/" xmlns:cc="http://creativecommons.org/ns#" xmlns:rdf="http://www.w3.org/1999/02/22-rdf-syntax-ns#">
   <cc:Work>
    <dc:type rdf:resource="http://purl.org/dc/dcmitype/StillImage"/>
    <dc:date>2026-01-18T23:30:36.359283</dc:date>
    <dc:format>image/svg+xml</dc:format>
    <dc:creator>
     <cc:Agent>
      <dc:title>Matplotlib v3.6.3, https://matplotlib.org/</dc:title>
     </cc:Agent>
    </dc:creator>
   </cc:Work>
  </rdf:RDF>
 </metadata>
 <defs>
  <style type="text/css">*{stroke-linejoin: round; stroke-linecap: butt}</style>
 </defs>
 <g id="figure_1">
  <g id="patch_1">
   <path d="M 0 95.859375 
L 258.51 95.859375 
L 258.51 0 
L 0 0 
z
" style="fill: #ffffff"/>
  </g>
  <g id="axes_1">
   <g id="patch_2">
    <path d="M 35.2 70.76 
L 126.885 70.76 
L 126.885 7.2 
L 35.2 7.2 
z
" style="fill: #ffffff"/>
   </g>
   <g id="matplotlib.axis_1">
    <g id="xtick_1">
     <g id="line2d_1">
      <path d="M 39.3675 70.76 
L 39.3675 7.2 
" clip-path="url(#pbdd14b0fea)" style="fill: none; stroke: #b0b0b0; stroke-opacity: 0.3; stroke-width: 0.8; stroke-linecap: square"/>
     </g>
     <g id="line2d_2">
      <defs>
       <path id="m2601cd0822" d="M 0 0 
L 0 3.5 
" style="stroke: #000000; stroke-width: 0.8"/>
      </defs>
      <g>
       <use xlink:href="#m2601cd0822" x="39.3675" y="70.76" style="stroke: #000000; stroke-width: 0.8"/>
      </g>
     </g>
     <g id="text_1">
      <!-- 0 -->
      <g transform="translate(36.3675 86.0925) scale(0.12 -0.12)">
       <defs>
        <path id="TimesNewRomanPSMT-30" d="M 231 2094 
Q 231 2819 450 3342 
Q 669 3866 1031 4122 
Q 1313 4325 1613 4325 
Q 2100 4325 2488 3828 
Q 2972 3213 2972 2159 
Q 2972 1422 2759 906 
Q 2547 391 2217 158 
Q 1888 -75 1581 -75 
Q 975 -75 572 641 
Q 231 1244 231 2094 
z
M 844 2016 
Q 844 1141 1059 588 
Q 1238 122 1591 122 
Q 1759 122 1940 273 
Q 2122 425 2216 781 
Q 2359 1319 2359 2297 
Q 2359 3022 2209 3506 
Q 2097 3866 1919 4016 
Q 1791 4119 1609 4119 
Q 1397 4119 1231 3928 
Q 1006 3669 925 3112 
Q 844 2556 844 2016 
z
" transform="scale(0.015625)"/>
       </defs>
       <use xlink:href="#TimesNewRomanPSMT-30"/>
      </g>
     </g>
    </g>
    <g id="xtick_2">
     <g id="line2d_3">
      <path d="M 117.265717 70.76 
L 117.265717 7.2 
" clip-path="url(#pbdd14b0fea)" style="fill: none; stroke: #b0b0b0; stroke-opacity: 0.3; stroke-width: 0.8; stroke-linecap: square"/>
     </g>
     <g id="line2d_4">
      <g>
       <use xlink:href="#m2601cd0822" x="117.265717" y="70.76" style="stroke: #000000; stroke-width: 0.8"/>
      </g>
     </g>
     <g id="text_2">
      <!-- 20 -->
      <g transform="translate(111.265717 86.0925) scale(0.12 -0.12)">
       <defs>
        <path id="TimesNewRomanPSMT-32" d="M 2934 816 
L 2638 0 
L 138 0 
L 138 116 
Q 1241 1122 1691 1759 
Q 2141 2397 2141 2925 
Q 2141 3328 1894 3587 
Q 1647 3847 1303 3847 
Q 991 3847 742 3664 
Q 494 3481 375 3128 
L 259 3128 
Q 338 3706 661 4015 
Q 984 4325 1469 4325 
Q 1984 4325 2329 3994 
Q 2675 3663 2675 3213 
Q 2675 2891 2525 2569 
Q 2294 2063 1775 1497 
Q 997 647 803 472 
L 1909 472 
Q 2247 472 2383 497 
Q 2519 522 2628 598 
Q 2738 675 2819 816 
L 2934 816 
z
" transform="scale(0.015625)"/>
       </defs>
       <use xlink:href="#TimesNewRomanPSMT-32"/>
       <use xlink:href="#TimesNewRomanPSMT-30" x="50"/>
      </g>
     </g>
    </g>
   </g>
   <g id="matplotlib.axis_2">
    <g id="ytick_1">
     <g id="line2d_5">
      <path d="M 35.2 67.870909 
L 126.885 67.870909 
" clip-path="url(#pbdd14b0fea)" style="fill: none; stroke: #b0b0b0; stroke-opacity: 0.3; stroke-width: 0.8; stroke-linecap: square"/>
     </g>
     <g id="line2d_6">
      <defs>
       <path id="mb7fc2e43e6" d="M 0 0 
L -3.5 0 
" style="stroke: #000000; stroke-width: 0.8"/>
      </defs>
      <g>
       <use xlink:href="#mb7fc2e43e6" x="35.2" y="67.870909" style="stroke: #000000; stroke-width: 0.8"/>
      </g>
     </g>
     <g id="text_3">
      <!-- 0.00 -->
      <g transform="translate(7.2 72.037159) scale(0.12 -0.12)">
       <defs>
        <path id="TimesNewRomanPSMT-2e" d="M 800 606 
Q 947 606 1047 504 
Q 1147 403 1147 259 
Q 1147 116 1045 14 
Q 944 -88 800 -88 
Q 656 -88 554 14 
Q 453 116 453 259 
Q 453 406 554 506 
Q 656 606 800 606 
z
" transform="scale(0.015625)"/>
       </defs>
       <use xlink:href="#TimesNewRomanPSMT-30"/>
       <use xlink:href="#TimesNewRomanPSMT-2e" x="50"/>
       <use xlink:href="#TimesNewRomanPSMT-30" x="75"/>
       <use xlink:href="#TimesNewRomanPSMT-30" x="125"/>
      </g>
     </g>
    </g>
    <g id="ytick_2">
     <g id="line2d_7">
      <path d="M 35.2 40.615334 
L 126.885 40.615334 
" clip-path="url(#pbdd14b0fea)" style="fill: none; stroke: #b0b0b0; stroke-opacity: 0.3; stroke-width: 0.8; stroke-linecap: square"/>
     </g>
     <g id="line2d_8">
      <g>
       <use xlink:href="#mb7fc2e43e6" x="35.2" y="40.615334" style="stroke: #000000; stroke-width: 0.8"/>
      </g>
     </g>
     <g id="text_4">
      <!-- 0.25 -->
      <g transform="translate(7.2 44.781584) scale(0.12 -0.12)">
       <defs>
        <path id="TimesNewRomanPSMT-35" d="M 2778 4238 
L 2534 3706 
L 1259 3706 
L 981 3138 
Q 1809 3016 2294 2522 
Q 2709 2097 2709 1522 
Q 2709 1188 2573 903 
Q 2438 619 2231 419 
Q 2025 219 1772 97 
Q 1413 -75 1034 -75 
Q 653 -75 479 54 
Q 306 184 306 341 
Q 306 428 378 495 
Q 450 563 559 563 
Q 641 563 702 538 
Q 763 513 909 409 
Q 1144 247 1384 247 
Q 1750 247 2026 523 
Q 2303 800 2303 1197 
Q 2303 1581 2056 1914 
Q 1809 2247 1375 2428 
Q 1034 2569 447 2591 
L 1259 4238 
L 2778 4238 
z
" transform="scale(0.015625)"/>
       </defs>
       <use xlink:href="#TimesNewRomanPSMT-30"/>
       <use xlink:href="#TimesNewRomanPSMT-2e" x="50"/>
       <use xlink:href="#TimesNewRomanPSMT-32" x="75"/>
       <use xlink:href="#TimesNewRomanPSMT-35" x="125"/>
      </g>
     </g>
    </g>
    <g id="ytick_3">
     <g id="line2d_9">
      <path d="M 35.2 13.35976 
L 126.885 13.35976 
" clip-path="url(#pbdd14b0fea)" style="fill: none; stroke: #b0b0b0; stroke-opacity: 0.3; stroke-width: 0.8; stroke-linecap: square"/>
     </g>
     <g id="line2d_10">
      <g>
       <use xlink:href="#mb7fc2e43e6" x="35.2" y="13.35976" style="stroke: #000000; stroke-width: 0.8"/>
      </g>
     </g>
     <g id="text_5">
      <!-- 0.50 -->
      <g transform="translate(7.2 17.52601) scale(0.12 -0.12)">
       <use xlink:href="#TimesNewRomanPSMT-30"/>
       <use xlink:href="#TimesNewRomanPSMT-2e" x="50"/>
       <use xlink:href="#TimesNewRomanPSMT-35" x="75"/>
       <use xlink:href="#TimesNewRomanPSMT-30" x="125"/>
      </g>
     </g>
    </g>
   </g>
   <g id="line2d_11">
    <path d="M 39.3675 13.35976 
L 60.271947 13.35976 
L 60.401866 16.221595 
L 60.78967 35.542745 
L 61.051224 36.129503 
L 61.179058 35.009517 
L 61.310627 35.278802 
L 61.44041 32.920323 
L 61.570526 27.13996 
L 61.699008 13.35976 
L 61.958999 37.668244 
L 62.088215 37.052922 
L 62.219281 40.615334 
L 62.866901 40.615334 
L 63.128526 30.77629 
L 63.386718 22.530825 
L 63.517597 22.161893 
L 63.645743 39.730837 
L 63.775495 36.25248 
L 63.907108 40.615334 
L 64.424856 40.615334 
L 64.556641 40.110234 
L 64.684861 40.615334 
L 64.814258 40.615334 
L 64.944409 35.840594 
L 65.074166 40.615334 
L 67.41189 40.615334 
L 67.541924 40.413207 
L 67.671713 39.859919 
L 67.930008 39.915084 
L 68.06027 39.838224 
L 68.190894 39.101342 
L 68.320146 40.42956 
L 68.450912 39.846073 
L 68.579265 40.339726 
L 68.84025 39.394067 
L 68.969033 37.532075 
L 69.100559 40.615334 
L 69.228588 40.615334 
L 69.359916 39.660408 
L 69.488004 40.615334 
L 69.619033 40.615334 
L 69.748597 38.782343 
L 69.877555 38.871959 
L 70.008215 39.881505 
L 70.138561 35.030231 
L 70.268657 35.152663 
L 70.526643 31.932908 
L 70.656798 33.917223 
L 70.789587 29.591981 
L 70.918903 20.562754 
L 71.046136 20.121105 
L 71.177217 13.35976 
L 87.017492 13.35976 
L 87.276823 25.174833 
L 87.406147 28.215901 
L 87.536372 16.680906 
L 87.666378 17.4566 
L 87.796454 13.35976 
L 88.053955 35.392839 
L 88.185555 35.984721 
L 88.444014 38.197874 
L 88.575539 37.906239 
L 88.70315 36.301322 
L 88.833049 38.408505 
L 88.962742 38.413738 
L 89.222404 40.615334 
L 89.352459 40.05267 
L 89.484565 21.551695 
L 89.612601 40.312143 
L 89.871781 13.35976 
L 90.003234 33.541532 
L 90.260998 21.623432 
L 90.522325 38.536933 
L 90.652568 40.058231 
L 90.780877 37.405173 
L 90.911669 40.615334 
L 91.040799 40.521684 
L 91.169894 40.615334 
L 91.300855 37.373993 
L 91.560706 27.234701 
L 91.691737 30.157698 
L 91.949306 40.615334 
L 92.47006 40.615334 
L 92.598052 40.36938 
L 92.727948 40.615334 
L 92.989681 38.756395 
L 93.118894 40.615334 
L 96.363086 40.615334 
L 96.49293 40.365673 
L 96.623553 40.615334 
L 96.753777 40.513181 
L 97.01349 40.615334 
L 97.142033 40.615334 
L 97.271848 40.151445 
L 97.401529 38.473373 
L 97.532767 38.648463 
L 97.66257 38.550343 
L 97.922355 32.801924 
L 98.051991 33.054311 
L 98.180558 31.212161 
L 98.569983 13.35976 
L 114.279756 13.35976 
L 114.409262 13.875326 
L 114.669096 16.559019 
L 114.928062 17.949381 
L 115.318145 22.006536 
L 115.707408 25.566551 
L 115.837484 25.771076 
L 116.226813 28.867964 
L 116.48597 32.454252 
L 118.563314 47.302544 
L 118.693478 47.645201 
L 119.212199 50.785589 
L 119.471892 52.015578 
L 120.640374 55.525551 
L 120.770354 55.265424 
L 120.900153 55.415548 
L 121.549443 56.932375 
L 122.7175 59.377745 
L 122.7175 59.377745 
" clip-path="url(#pbdd14b0fea)" style="fill: none; stroke: #ff0000; stroke-opacity: 0.8; stroke-width: 2; stroke-linecap: square"/>
   </g>
   <g id="line2d_12">
    <path d="M 39.3675 67.870909 
L 39.88911 67.870909 
L 40.016647 62.815 
L 40.146299 62.092618 
L 40.407234 56.314545 
L 40.537052 56.314654 
L 40.66701 55.592273 
L 41.056587 49.091818 
L 41.18715 49.091818 
L 41.314831 44.035909 
L 41.446236 44.035909 
L 41.70559 36.813182 
L 41.834141 38.257727 
L 42.093785 32.840736 
L 42.353716 25.979091 
L 42.483177 28.868182 
L 42.614633 23.089891 
L 42.742916 25.256818 
L 43.393523 10.744424 
L 43.523365 10.0892 
L 43.651789 10.811364 
L 43.782851 12.256018 
L 43.913079 10.811364 
L 44.171497 12.49663 
L 44.301121 11.533745 
L 44.563085 12.978182 
L 44.690559 15.867273 
L 44.950108 12.978073 
L 45.080228 12.978073 
L 45.209777 13.700237 
L 45.340323 12.256018 
L 45.469583 12.978073 
L 45.599216 12.2558 
L 45.729066 13.700455 
L 45.859031 12.978182 
L 45.990678 12.978182 
L 46.119397 13.700455 
L 46.249033 13.700455 
L 46.508348 12.255909 
L 46.638042 13.700455 
L 46.767622 13.700455 
L 46.898754 12.255909 
L 47.027355 12.978182 
L 47.157671 11.533636 
L 47.417393 15.145 
L 47.548146 11.533636 
L 47.806404 12.978182 
L 47.936172 12.255909 
L 48.066036 12.978182 
L 48.32715 12.978182 
L 48.45669 14.422727 
L 48.715396 12.255909 
L 48.975947 13.339264 
L 49.104657 11.533636 
L 49.234495 13.700455 
L 49.495044 12.978182 
L 49.625456 12.978073 
L 49.755105 12.256018 
L 50.144655 14.422836 
L 50.274669 13.339264 
L 50.405081 14.422618 
L 50.534127 14.422618 
L 50.662811 13.700237 
L 50.92218 15.145 
L 51.053294 14.422836 
L 51.182223 12.978073 
L 51.311898 13.700564 
L 51.441505 15.145 
L 51.573013 13.700346 
L 51.701942 14.422618 
L 51.831085 12.255909 
L 51.962574 14.422618 
L 52.220681 11.533636 
L 52.350737 12.978073 
L 52.480156 12.978182 
L 52.741259 11.533636 
L 52.999529 14.422618 
L 53.131231 13.700455 
L 53.260611 14.061645 
L 53.39065 12.255909 
L 53.519127 13.700455 
L 53.649524 12.978182 
L 53.778788 15.145 
L 53.908366 12.255909 
L 54.039199 13.700455 
L 54.168171 12.255909 
L 54.299501 12.255909 
L 54.429481 13.700455 
L 54.557794 12.6171 
L 54.689754 14.422727 
L 54.947505 14.422727 
L 55.079355 14.028721 
L 55.208211 15.145 
L 55.336795 14.422618 
L 55.467401 12.255909 
L 55.59676 12.255909 
L 55.726466 12.978073 
L 55.856813 11.533636 
L 55.987794 12.256018 
L 56.117466 13.700455 
L 56.377207 12.978073 
L 56.507068 12.2558 
L 56.766697 13.372297 
L 56.896928 12.9784 
L 57.284228 15.145218 
L 57.545136 12.256018 
L 57.805268 12.256018 
L 57.935228 12.978182 
L 58.065235 12.256018 
L 58.195159 12.978073 
L 58.32297 14.422727 
L 58.455063 14.061645 
L 58.582587 14.685362 
L 58.713766 12.255909 
L 58.84227 14.422727 
L 58.973743 13.700455 
L 59.102235 12.2558 
L 59.233659 14.101766 
L 59.363765 12.255909 
L 59.493139 12.978182 
L 59.623006 12.978182 
L 59.751058 12.255909 
L 60.012747 15.145 
L 60.142136 15.145 
L 60.271947 12.978182 
L 60.532074 12.978182 
L 60.660129 12.255909 
L 60.921471 18.756255 
L 61.179058 21.645455 
L 61.310627 22.367727 
L 61.699008 31.757273 
L 61.82862 31.396082 
L 61.958999 28.868291 
L 62.088215 30.312727 
L 62.219281 28.146018 
L 62.608892 31.757273 
L 62.737147 30.312727 
L 62.866901 32.479654 
L 62.998502 37.535455 
L 63.128526 38.257836 
L 63.256294 38.177487 
L 63.517597 39.702273 
L 63.645743 36.0908 
L 63.775495 38.979891 
L 63.907108 33.201709 
L 64.035229 33.924091 
L 64.165061 33.070555 
L 64.296567 33.201709 
L 64.944409 44.758182 
L 65.074166 42.591255 
L 65.333611 42.591255 
L 65.594872 38.98 
L 65.723506 40.424545 
L 65.852878 39.702273 
L 66.114289 41.146818 
L 66.242679 40.424654 
L 66.372964 40.424436 
L 66.502307 39.702273 
L 66.762493 41.146818 
L 66.891486 40.424545 
L 67.022846 40.424436 
L 67.150973 41.869091 
L 67.282565 40.424545 
L 67.41189 41.146818 
L 67.541924 41.146927 
L 67.671713 40.424436 
L 67.801792 41.8692 
L 67.930008 41.146818 
L 68.06027 41.146818 
L 68.190894 38.98 
L 68.320146 39.702273 
L 68.450912 38.257727 
L 68.710129 40.063464 
L 68.84025 40.424545 
L 68.969033 37.535455 
L 69.100559 40.424545 
L 69.359916 36.813291 
L 69.619033 41.146818 
L 69.748597 38.979891 
L 70.008215 42.591364 
L 70.138561 38.979891 
L 70.268657 40.424436 
L 70.39819 38.257618 
L 70.526643 38.257836 
L 70.656798 40.424545 
L 70.918903 33.201818 
L 71.046136 36.0908 
L 71.306402 28.145909 
L 72.214474 16.589545 
L 72.345592 19.344975 
L 72.733616 10.089091 
L 72.863491 12.256018 
L 73.124558 10.089091 
L 73.384495 13.700455 
L 73.642655 13.700455 
L 73.77373 12.978182 
L 73.902244 13.700564 
L 74.032249 12.255909 
L 74.161994 13.700455 
L 74.292194 12.2558 
L 74.422193 12.978182 
L 74.551439 10.811364 
L 74.812335 13.700455 
L 74.942681 14.422727 
L 75.070772 13.700455 
L 75.331916 13.700455 
L 75.590027 12.715438 
L 75.721123 13.700455 
L 75.851269 12.256018 
L 75.98075 13.700455 
L 76.110798 12.978182 
L 76.370202 12.978182 
L 76.630245 15.145 
L 76.759689 12.978073 
L 76.889728 13.700455 
L 77.019518 12.256018 
L 77.148079 13.700564 
L 77.407812 13.700455 
L 77.537455 12.978182 
L 77.798719 12.9784 
L 78.056784 14.422836 
L 78.317696 11.533636 
L 78.577416 13.700455 
L 78.705972 14.422727 
L 78.835731 14.422727 
L 78.966894 13.700346 
L 79.095555 13.700455 
L 79.225981 15.145 
L 79.485578 12.256018 
L 79.74596 12.978182 
L 79.875806 12.978182 
L 80.004866 12.255909 
L 80.263892 14.061645 
L 80.393717 12.255909 
L 80.654908 15.867273 
L 80.785217 12.978182 
L 80.913317 13.700455 
L 81.043284 13.700455 
L 81.174586 12.255909 
L 81.434248 15.145 
L 81.564341 12.616991 
L 81.692316 15.145 
L 81.822334 13.700455 
L 81.953387 14.422727 
L 82.081977 12.978182 
L 82.213514 13.700455 
L 82.343466 12.978182 
L 82.602544 12.978291 
L 82.731251 13.700455 
L 82.861042 13.700455 
L 82.991989 12.256018 
L 83.12271 12.978291 
L 83.250497 11.533636 
L 83.380304 12.978291 
L 83.510052 12.256018 
L 83.641257 13.700564 
L 83.770035 13.372188 
L 83.899957 13.700564 
L 84.029918 12.978073 
L 84.161483 11.533745 
L 84.290298 14.422618 
L 84.420873 12.256018 
L 84.548921 12.2558 
L 84.680845 15.145 
L 84.938563 12.122139 
L 85.069223 12.2558 
L 85.197969 13.700346 
L 85.459622 12.2558 
L 85.589085 12.256018 
L 85.717268 15.145 
L 85.848977 13.700455 
L 85.97673 13.700346 
L 86.107533 12.978291 
L 86.238646 13.700455 
L 86.368108 12.978182 
L 86.497843 11.533745 
L 86.626855 12.255909 
L 86.756159 15.145 
L 87.146481 12.6171 
L 87.276823 13.700455 
L 87.406147 13.700455 
L 87.666378 18.756364 
L 87.796454 20.923182 
L 87.926438 16.589545 
L 88.053955 17.311818 
L 88.185555 18.756364 
L 88.314839 16.589436 
L 88.70315 25.256818 
L 88.833049 24.895736 
L 89.222404 28.1458 
L 89.352459 30.312727 
L 89.484565 36.090909 
L 89.612601 33.924091 
L 89.871781 40.424545 
L 90.133165 37.896645 
L 90.260998 37.535346 
L 90.652568 32.479654 
L 90.780877 35.368636 
L 90.911669 31.757273 
L 91.560706 42.591364 
L 91.691737 42.591364 
L 91.818948 41.146818 
L 91.949306 38.257836 
L 92.079481 38.257727 
L 92.208543 36.0908 
L 92.340168 31.757273 
L 92.859522 42.591364 
L 92.989681 43.313636 
L 93.118894 41.869091 
L 93.247605 42.591364 
L 93.376931 42.591255 
L 93.508419 41.869091 
L 93.636886 39.702273 
L 93.766453 40.424436 
L 93.897636 39.702273 
L 94.155876 41.869091 
L 94.286365 40.424545 
L 94.545992 41.387539 
L 94.676358 40.424436 
L 94.805552 41.869091 
L 94.935958 41.869091 
L 95.064778 40.424654 
L 95.454232 40.424545 
L 95.584091 41.146818 
L 95.715506 40.424436 
L 95.974434 40.424654 
L 96.10472 38.98 
L 96.23315 40.424545 
L 96.363086 40.424545 
L 96.49293 39.702382 
L 96.623553 41.146709 
L 96.753777 41.146818 
L 96.8837 40.424327 
L 97.01349 40.785627 
L 97.142033 41.869091 
L 97.401529 40.785736 
L 97.532767 41.146818 
L 97.66257 40.424436 
L 97.790961 37.535237 
L 97.922355 37.535455 
L 98.051991 38.257836 
L 98.180558 37.535564 
L 98.569983 30.312727 
L 98.700327 30.312727 
L 99.349356 18.034309 
L 99.478923 15.867382 
L 99.608594 18.756364 
L 99.869843 10.811146 
L 99.99959 12.255909 
L 100.259135 11.402264 
L 100.389625 10.811364 
L 100.517409 11.533636 
L 100.778555 15.145109 
L 100.90879 12.255909 
L 101.166742 14.422727 
L 101.296548 15.030963 
L 101.427524 12.978182 
L 101.556197 14.422836 
L 101.685986 12.255909 
L 101.816683 15.145 
L 101.946789 12.255909 
L 102.076046 12.255909 
L 102.205224 11.533636 
L 102.466243 14.422727 
L 102.594945 14.422727 
L 102.726089 15.867273 
L 102.855852 14.422727 
L 102.984535 15.145 
L 103.114114 12.255909 
L 103.374288 13.700455 
L 103.504915 12.2558 
L 103.893204 14.422509 
L 104.024217 12.978073 
L 104.154346 12.978073 
L 104.283869 13.528526 
L 104.543783 13.700455 
L 104.672966 12.978291 
L 104.933098 12.978291 
L 105.061977 14.422836 
L 105.191348 14.422836 
L 105.321212 12.978182 
L 105.451639 12.978182 
L 105.581238 13.700455 
L 105.710971 13.700455 
L 105.840567 14.422836 
L 105.970552 12.978182 
L 106.101683 13.700564 
L 106.23042 12.978073 
L 106.49136 12.978073 
L 106.620839 14.422836 
L 106.750274 13.700455 
L 106.880491 15.867382 
L 107.138718 12.2558 
L 107.270576 12.616991 
L 107.398383 13.700455 
L 107.528717 13.700455 
L 107.65849 12.978182 
L 107.787967 14.422727 
L 107.919126 12.978182 
L 108.049135 14.422727 
L 108.30759 12.978182 
L 108.438361 13.700455 
L 108.5671 13.339264 
L 108.698026 13.700455 
L 108.827559 13.700455 
L 108.95634 12.978182 
L 109.087344 14.422727 
L 109.217816 13.700455 
L 109.345847 13.700455 
L 109.475603 13.339264 
L 109.60687 13.700455 
L 109.735196 13.700455 
L 109.865155 11.533527 
L 109.994934 13.700455 
L 110.124914 12.2558 
L 110.25455 13.700455 
L 110.385709 13.700455 
L 110.515237 12.978291 
L 110.644107 14.422727 
L 110.904233 11.533745 
L 111.034317 14.422727 
L 111.42403 12.978073 
L 111.553524 13.700455 
L 111.812478 12.978073 
L 112.0722 14.422618 
L 112.332385 12.978182 
L 112.46204 13.339373 
L 112.592215 15.145109 
L 112.721755 12.256018 
L 112.851222 12.6171 
L 112.981038 13.700455 
L 113.110525 13.700455 
L 113.240624 12.978291 
L 113.370498 12.978073 
L 113.500987 13.700455 
L 113.630507 15.145 
L 113.890216 11.533745 
L 114.019435 12.978182 
L 114.149103 12.255909 
L 114.279756 13.700455 
L 114.409262 12.978182 
L 114.669096 15.145 
L 114.798676 14.422727 
L 114.928062 17.311818 
L 115.057936 15.867273 
L 115.318145 17.311818 
L 115.707408 26.701364 
L 115.837484 24.534545 
L 115.966573 28.145909 
L 116.096713 27.423636 
L 116.226813 25.979091 
L 116.356248 29.590455 
L 116.48597 28.145909 
L 116.616269 28.54722 
L 116.746095 31.396191 
L 116.875433 31.035 
L 117.135185 33.924091 
L 117.395121 37.535455 
L 117.524869 36.813182 
L 117.78427 40.424763 
L 117.915084 39.702382 
L 118.563314 46.925 
L 118.693478 43.90203 
L 118.952974 49.091818 
L 119.082308 51.258418 
L 119.212199 51.258636 
L 119.342069 47.00524 
L 119.601615 51.258636 
L 119.731981 51.619718 
L 119.861579 51.258745 
L 120.121204 54.87 
L 120.380765 54.87 
L 120.510994 54.147727 
L 120.640374 56.708552 
L 120.770354 56.314654 
L 121.030704 57.759091 
L 121.159609 56.314545 
L 121.289739 57.036927 
L 121.419627 56.314654 
L 121.549443 54.869891 
L 121.809667 56.314327 
L 121.938664 58.481582 
L 122.068774 56.314654 
L 122.328113 57.759091 
L 122.587918 60.6484 
L 122.7175 59.925909 
L 122.7175 59.925909 
" clip-path="url(#pbdd14b0fea)" style="fill: none; stroke: #0000ff; stroke-width: 2; stroke-linecap: square"/>
   </g>
   <g id="line2d_13">
    <path d="M 35.2 13.35976 
L 126.885 13.35976 
" clip-path="url(#pbdd14b0fea)" style="fill: none; stroke-dasharray: 3.7,1.6; stroke-dashoffset: 0; stroke: #000000; stroke-opacity: 0.7"/>
   </g>
   <g id="patch_3">
    <path d="M 35.2 70.76 
L 35.2 7.2 
" style="fill: none; stroke: #000000; stroke-width: 0.8; stroke-linejoin: miter; stroke-linecap: square"/>
   </g>
   <g id="patch_4">
    <path d="M 126.885 70.76 
L 126.885 7.2 
" style="fill: none; stroke: #000000; stroke-width: 0.8; stroke-linejoin: miter; stroke-linecap: square"/>
   </g>
   <g id="patch_5">
    <path d="M 35.2 70.76 
L 126.885 70.76 
" style="fill: none; stroke: #000000; stroke-width: 0.8; stroke-linejoin: miter; stroke-linecap: square"/>
   </g>
   <g id="patch_6">
    <path d="M 35.2 7.2 
L 126.885 7.2 
" style="fill: none; stroke: #000000; stroke-width: 0.8; stroke-linejoin: miter; stroke-linecap: square"/>
   </g>
  </g>
  <g id="axes_2">
   <g id="patch_7">
    <path d="M 159.625 70.76 
L 251.31 70.76 
L 251.31 7.2 
L 159.625 7.2 
z
" style="fill: #ffffff"/>
   </g>
   <g id="matplotlib.axis_3">
    <g id="xtick_3">
     <g id="line2d_14">
      <path d="M 163.7925 70.76 
L 163.7925 7.2 
" clip-path="url(#p66bbc1bb27)" style="fill: none; stroke: #b0b0b0; stroke-opacity: 0.3; stroke-width: 0.8; stroke-linecap: square"/>
     </g>
     <g id="line2d_15">
      <g>
       <use xlink:href="#m2601cd0822" x="163.7925" y="70.76" style="stroke: #000000; stroke-width: 0.8"/>
      </g>
     </g>
     <g id="text_6">
      <!-- 0 -->
      <g transform="translate(160.7925 86.0925) scale(0.12 -0.12)">
       <use xlink:href="#TimesNewRomanPSMT-30"/>
      </g>
     </g>
    </g>
    <g id="xtick_4">
     <g id="line2d_16">
      <path d="M 241.690717 70.76 
L 241.690717 7.2 
" clip-path="url(#p66bbc1bb27)" style="fill: none; stroke: #b0b0b0; stroke-opacity: 0.3; stroke-width: 0.8; stroke-linecap: square"/>
     </g>
     <g id="line2d_17">
      <g>
       <use xlink:href="#m2601cd0822" x="241.690717" y="70.76" style="stroke: #000000; stroke-width: 0.8"/>
      </g>
     </g>
     <g id="text_7">
      <!-- 20 -->
      <g transform="translate(235.690717 86.0925) scale(0.12 -0.12)">
       <use xlink:href="#TimesNewRomanPSMT-32"/>
       <use xlink:href="#TimesNewRomanPSMT-30" x="50"/>
      </g>
     </g>
    </g>
   </g>
   <g id="matplotlib.axis_4">
    <g id="ytick_4">
     <g id="line2d_18">
      <path d="M 159.625 60.166667 
L 251.31 60.166667 
" clip-path="url(#p66bbc1bb27)" style="fill: none; stroke: #b0b0b0; stroke-opacity: 0.3; stroke-width: 0.8; stroke-linecap: square"/>
     </g>
     <g id="line2d_19">
      <g>
       <use xlink:href="#mb7fc2e43e6" x="159.625" y="60.166667" style="stroke: #000000; stroke-width: 0.8"/>
      </g>
     </g>
     <g id="text_8">
      <!-- −1 -->
      <g transform="translate(139.858125 64.332917) scale(0.12 -0.12)">
       <defs>
        <path id="TimesNewRomanPSMT-2212" d="M 3484 2000 
L 116 2000 
L 116 2256 
L 3484 2256 
L 3484 2000 
z
" transform="scale(0.015625)"/>
        <path id="TimesNewRomanPSMT-31" d="M 750 3822 
L 1781 4325 
L 1884 4325 
L 1884 747 
Q 1884 391 1914 303 
Q 1944 216 2037 169 
Q 2131 122 2419 116 
L 2419 0 
L 825 0 
L 825 116 
Q 1125 122 1212 167 
Q 1300 213 1334 289 
Q 1369 366 1369 747 
L 1369 3034 
Q 1369 3497 1338 3628 
Q 1316 3728 1258 3775 
Q 1200 3822 1119 3822 
Q 1003 3822 797 3725 
L 750 3822 
z
" transform="scale(0.015625)"/>
       </defs>
       <use xlink:href="#TimesNewRomanPSMT-2212"/>
       <use xlink:href="#TimesNewRomanPSMT-31" x="56.396484"/>
      </g>
     </g>
    </g>
    <g id="ytick_5">
     <g id="line2d_20">
      <path d="M 159.625 38.98 
L 251.31 38.98 
" clip-path="url(#p66bbc1bb27)" style="fill: none; stroke: #b0b0b0; stroke-opacity: 0.3; stroke-width: 0.8; stroke-linecap: square"/>
     </g>
     <g id="line2d_21">
      <g>
       <use xlink:href="#mb7fc2e43e6" x="159.625" y="38.98" style="stroke: #000000; stroke-width: 0.8"/>
      </g>
     </g>
     <g id="text_9">
      <!-- 0 -->
      <g transform="translate(146.625 43.14625) scale(0.12 -0.12)">
       <use xlink:href="#TimesNewRomanPSMT-30"/>
      </g>
     </g>
    </g>
    <g id="ytick_6">
     <g id="line2d_22">
      <path d="M 159.625 17.793333 
L 251.31 17.793333 
" clip-path="url(#p66bbc1bb27)" style="fill: none; stroke: #b0b0b0; stroke-opacity: 0.3; stroke-width: 0.8; stroke-linecap: square"/>
     </g>
     <g id="line2d_23">
      <g>
       <use xlink:href="#mb7fc2e43e6" x="159.625" y="17.793333" style="stroke: #000000; stroke-width: 0.8"/>
      </g>
     </g>
     <g id="text_10">
      <!-- 1 -->
      <g transform="translate(146.625 21.959583) scale(0.12 -0.12)">
       <use xlink:href="#TimesNewRomanPSMT-31"/>
      </g>
     </g>
    </g>
   </g>
   <g id="line2d_24">
    <path d="M 163.7925 38.98 
L 165.61215 38.904427 
L 166.000744 38.874321 
L 169.765323 38.945656 
L 170.154066 38.964131 
L 170.415678 39.738122 
L 170.803746 39.741724 
L 170.933348 39.692232 
L 171.192622 39.327525 
L 171.582671 39.241804 
L 171.842393 38.940127 
L 171.973146 38.931906 
L 172.101968 38.7854 
L 172.361172 38.038825 
L 173.400947 38.203954 
L 173.920044 38.476096 
L 174.050456 37.990222 
L 174.439253 38.066897 
L 174.699669 37.502781 
L 174.959127 37.504412 
L 175.478294 38.458215 
L 175.736898 38.694128 
L 175.998013 38.791629 
L 176.256085 36.452897 
L 176.387574 36.377218 
L 176.517499 36.558555 
L 176.645681 36.344527 
L 176.775737 35.899416 
L 177.036451 36.053528 
L 177.294726 37.179938 
L 177.685611 37.263986 
L 177.81565 37.22282 
L 178.203788 37.392949 
L 178.333366 38.057702 
L 178.724501 38.378616 
L 178.982794 39.584095 
L 179.242446 39.699054 
L 179.633211 40.473067 
L 180.281813 40.546902 
L 180.542466 39.979693 
L 180.932068 39.881514 
L 181.191697 39.746025 
L 181.321928 39.724902 
L 181.45054 41.080764 
L 181.709228 41.163222 
L 182.230268 40.946652 
L 182.360228 40.904215 
L 182.74797 41.572485 
L 182.880063 41.497612 
L 183.007587 41.790242 
L 183.26727 41.596871 
L 183.398743 41.451912 
L 183.788765 40.742243 
L 184.437747 40.396964 
L 184.826866 27.20962 
L 185.995526 27.20962 
L 186.124008 29.656511 
L 186.25362 27.20962 
L 186.513215 27.20962 
L 186.772539 26.831883 
L 186.903984 26.858939 
L 187.033892 26.623957 
L 187.162147 26.066133 
L 187.553526 27.20962 
L 188.200495 27.20962 
L 188.460229 25.549412 
L 188.590061 25.248413 
L 188.849856 25.935327 
L 188.981641 27.20962 
L 189.109861 26.382705 
L 189.369409 27.20962 
L 190.148506 24.945401 
L 190.407717 24.722242 
L 190.539289 24.658873 
L 190.797964 26.038464 
L 191.056862 26.03162 
L 191.316486 25.741278 
L 191.447846 25.775685 
L 191.707565 27.060657 
L 191.83689 27.049428 
L 192.096713 27.20962 
L 193.394033 27.20962 
L 193.525559 26.986631 
L 193.653588 27.011398 
L 193.784916 27.20962 
L 194.044033 27.092818 
L 194.302555 27.20962 
L 195.471136 27.20962 
L 196.120965 30.944152 
L 196.381243 32.435502 
L 196.639474 33.633629 
L 196.770592 33.450916 
L 197.158616 35.507357 
L 197.418413 35.702211 
L 197.809495 36.099885 
L 198.067655 36.382621 
L 198.457249 36.41332 
L 198.717194 37.072543 
L 198.847193 37.139154 
L 199.10635 37.097692 
L 199.237335 37.130256 
L 199.625446 37.628842 
L 199.886464 37.610409 
L 200.146123 37.728271 
L 200.40575 37.704541 
L 200.665343 37.825178 
L 200.923744 38.174758 
L 201.962455 38.413553 
L 202.223719 38.45438 
L 202.352711 38.481605 
L 202.742696 39.26388 
L 202.873119 39.293944 
L 203.130972 38.744192 
L 203.520555 38.903325 
L 204.04125 39.044471 
L 204.300806 38.217471 
L 204.688892 38.255691 
L 204.949643 38.113995 
L 205.079908 38.032808 
L 205.859248 38.99625 
L 206.117316 38.71362 
L 206.506977 38.938707 
L 206.898283 39.012839 
L 207.027544 38.571288 
L 207.54771 38.501287 
L 207.675497 38.418045 
L 208.066257 38.53936 
L 208.195035 38.378405 
L 208.586483 38.550059 
L 208.845873 39.258647 
L 209.23341 39.470069 
L 209.494223 39.668927 
L 209.622969 39.680855 
L 209.754621 40.405015 
L 210.142268 40.47063 
L 210.40173 39.638969 
L 210.793108 39.615113 
L 210.922843 39.113116 
L 211.310633 38.964152 
L 211.442492 49.435938 
L 211.571481 50.75038 
L 212.091378 50.75038 
L 212.221454 50.112598 
L 212.351438 50.75038 
L 214.166694 50.75038 
L 214.296781 46.665739 
L 214.428234 50.75038 
L 215.465799 50.75038 
L 215.594894 51.010891 
L 215.725855 50.75038 
L 216.243948 50.75038 
L 216.633543 51.869883 
L 216.765168 51.870498 
L 216.89506 51.66969 
L 217.023052 50.75038 
L 217.152948 51.079981 
L 217.284522 50.75038 
L 217.414681 50.75038 
L 217.543894 51.563842 
L 217.672605 51.594096 
L 217.801931 51.762255 
L 217.933419 50.904153 
L 218.191453 51.165872 
L 218.451528 57.582317 
L 218.580876 58.158806 
L 218.711365 56.904471 
L 218.8403 57.014472 
L 218.970992 57.299348 
L 219.101358 56.55523 
L 219.230552 57.210703 
L 219.360958 57.051104 
L 219.6209 55.65433 
L 219.879232 54.856695 
L 220.009091 55.025891 
L 220.268659 51.512761 
L 220.52972 50.959704 
L 220.65815 51.16566 
L 220.91793 50.75038 
L 221.048553 50.976971 
L 221.178777 50.75038 
L 221.43849 50.944704 
L 221.567033 51.24958 
L 221.696848 50.75038 
L 222.865348 50.75038 
L 222.994983 50.491182 
L 223.125327 49.947638 
L 223.644518 44.300078 
L 223.903923 42.921822 
L 224.033594 43.184494 
L 224.294843 41.9559 
L 225.072278 40.624763 
L 225.203555 41.107078 
L 225.463033 40.876503 
L 225.721548 41.385619 
L 226.110986 40.700739 
L 226.241683 40.752392 
L 226.760996 40.423532 
L 227.151089 40.243658 
L 227.539114 39.568777 
L 228.708869 37.931768 
L 228.968783 37.602973 
L 229.226814 37.520175 
L 229.486977 37.012797 
L 229.616348 36.961292 
L 229.746212 37.038242 
L 230.006238 37.706745 
L 230.395552 37.695029 
L 230.65542 37.196337 
L 230.91636 37.215426 
L 231.305491 36.665124 
L 231.563718 36.807307 
L 231.695576 37.653884 
L 232.73259 37.990667 
L 232.863361 38.453702 
L 233.252559 38.504232 
L 233.512344 38.278192 
L 234.419934 38.290882 
L 234.67955 38.00874 
L 235.069107 38.045011 
L 235.329233 38.831248 
L 236.109027 39.000996 
L 236.368396 39.204939 
L 236.757385 39.19246 
L 237.017215 40.334675 
L 237.925987 39.983803 
L 238.185265 40.275353 
L 238.574103 40.269463 
L 238.834262 40.677116 
L 239.094096 40.613979 
L 239.353062 40.189123 
L 239.61291 40.1305 
L 240.002782 42.129779 
L 240.132408 42.126962 
L 240.391573 39.345682 
L 240.651813 39.220511 
L 240.91097 41.633016 
L 241.300433 41.634308 
L 241.560185 42.801079 
L 241.820121 42.838389 
L 242.469021 42.702455 
L 243.118478 42.37849 
L 243.507308 41.823759 
L 243.637199 41.764394 
L 243.896892 41.033539 
L 244.286579 40.791439 
L 244.546204 39.761576 
L 245.065374 39.482844 
L 245.325153 39.101272 
L 245.844627 39.05284 
L 246.104172 39.038221 
L 246.363664 38.487791 
L 247.1425 38.407875 
L 247.1425 38.407875 
" clip-path="url(#p66bbc1bb27)" style="fill: none; stroke: #ff0000; stroke-opacity: 0.8; stroke-width: 2; stroke-linecap: square"/>
   </g>
   <g id="line2d_25">
    <path d="M 163.7925 38.98 
L 164.31411 38.98 
L 164.441647 38.414041 
L 164.571299 38.98 
L 164.702394 37.848081 
L 164.832234 38.98 
L 164.962052 38.98 
L 165.221806 40.111982 
L 165.351908 38.413998 
L 165.481587 38.98 
L 165.61215 38.98 
L 165.739831 39.545938 
L 165.871236 39.545959 
L 166.000744 38.413935 
L 166.13059 39.546044 
L 166.259141 39.546002 
L 166.389062 40.111961 
L 166.649952 38.98 
L 166.778716 40.11194 
L 166.908177 38.98 
L 167.039633 38.98 
L 167.167916 39.545938 
L 167.297799 38.98 
L 167.4289 38.98 
L 167.687691 40.112004 
L 167.818523 39.032437 
L 167.948365 38.98 
L 168.076789 38.414062 
L 168.207851 39.546065 
L 168.338079 38.414062 
L 168.596497 38.351031 
L 168.726121 40.112004 
L 168.855997 38.413935 
L 168.988085 40.112004 
L 169.115559 37.848124 
L 169.375108 38.98 
L 169.505228 38.413998 
L 169.634777 39.545938 
L 169.765323 37.282058 
L 169.894583 37.84806 
L 170.024216 39.545938 
L 170.154066 39.546002 
L 170.284031 37.848039 
L 170.415678 39.545981 
L 170.544397 39.545938 
L 170.674033 40.677921 
L 170.933348 38.413998 
L 171.063042 38.414062 
L 171.192622 39.545981 
L 171.323754 39.545959 
L 171.452355 38.98 
L 171.582671 38.98 
L 171.712101 39.828971 
L 171.842393 39.545959 
L 171.973146 38.98 
L 172.101968 39.545959 
L 172.491036 37.848081 
L 173.01157 37.847996 
L 173.140396 38.414041 
L 173.271481 37.848124 
L 173.400947 38.131071 
L 173.529657 38.98 
L 173.659495 36.150203 
L 173.920044 37.847996 
L 174.050456 37.848124 
L 174.180105 37.282058 
L 174.310152 39.084747 
L 174.439253 38.413935 
L 174.569655 38.98 
L 174.830081 37.847996 
L 174.959127 40.112004 
L 175.087811 38.414062 
L 175.218177 38.98 
L 175.34718 38.414062 
L 175.478294 35.584138 
L 175.607223 37.84806 
L 175.736898 37.282206 
L 175.866505 38.414062 
L 175.998013 38.413998 
L 176.126942 38.98 
L 176.256085 38.413998 
L 176.387574 38.98 
L 176.645681 35.584201 
L 176.775737 36.716056 
L 176.905156 35.584159 
L 177.424529 37.847996 
L 177.556231 37.282058 
L 177.685611 35.867149 
L 177.81565 37.282058 
L 177.944127 36.150118 
L 178.203788 37.282079 
L 178.464199 37.282079 
L 178.593171 38.414019 
L 178.724501 38.414041 
L 178.854481 37.282079 
L 179.114754 37.84806 
L 179.372505 37.848039 
L 179.504355 40.0091 
L 179.633211 39.546065 
L 179.761795 40.112004 
L 179.892401 39.546002 
L 180.02176 39.546002 
L 180.151466 40.11194 
L 180.281813 40.11194 
L 180.412794 40.677942 
L 180.542466 40.677942 
L 180.802207 40.111876 
L 180.932068 39.545938 
L 181.061664 40.111728 
L 181.191697 39.494476 
L 181.321928 40.111876 
L 181.579409 38.98 
L 181.709228 39.546065 
L 181.84111 39.545938 
L 182.099032 41.809861 
L 182.230268 39.546065 
L 182.360228 41.243859 
L 182.490235 40.677942 
L 182.620159 41.243944 
L 182.74797 40.11194 
L 183.007587 41.552612 
L 183.138766 41.809861 
L 183.398743 40.677899 
L 183.527235 40.677899 
L 183.658659 40.86663 
L 183.788765 40.677878 
L 183.918139 40.111982 
L 184.048006 41.243901 
L 184.306183 40.111961 
L 184.437747 40.677899 
L 184.567136 40.677963 
L 184.696947 38.98 
L 184.826866 40.11194 
L 184.957074 39.545959 
L 185.21467 37.282101 
L 185.346471 37.848102 
L 185.476224 37.282079 
L 185.604058 34.452219 
L 185.735627 36.150076 
L 185.86541 35.018178 
L 185.995526 35.584201 
L 186.25362 34.169228 
L 186.383999 33.320257 
L 186.513215 33.320194 
L 186.644281 31.622316 
L 186.772539 28.226453 
L 186.903984 28.226326 
L 187.033892 29.924331 
L 187.291901 28.22639 
L 187.553526 27.094598 
L 187.811718 25.396508 
L 187.942597 26.528511 
L 188.070743 26.52866 
L 188.200495 27.660663 
L 188.332108 26.528511 
L 188.460229 27.094598 
L 188.590061 27.146103 
L 188.721567 27.660388 
L 188.849856 26.811544 
L 188.981641 27.660388 
L 189.109861 27.660388 
L 189.239258 27.094513 
L 189.369409 27.660515 
L 189.499166 25.962594 
L 189.758611 25.962594 
L 189.890029 29.358457 
L 190.148506 27.094513 
L 190.277878 27.094598 
L 190.667679 25.396656 
L 190.797964 26.52866 
L 191.056862 24.264652 
L 191.187493 25.962594 
L 191.316486 25.396592 
L 191.447846 25.39672 
L 191.575973 26.528511 
L 191.707565 25.396614 
L 191.966924 28.226347 
L 192.096713 26.52866 
L 192.355008 28.226517 
L 192.48527 28.226517 
L 192.615894 27.660515 
L 192.745146 28.226474 
L 192.875912 27.094534 
L 193.004265 28.226474 
L 193.135129 27.943442 
L 193.26525 28.792455 
L 193.394033 27.660451 
L 193.525559 28.792455 
L 193.653588 28.226432 
L 193.784916 27.094492 
L 193.913004 27.660388 
L 194.044033 25.962594 
L 194.173597 26.528596 
L 194.302555 27.660557 
L 194.563561 26.528596 
L 194.693657 26.52866 
L 194.82319 28.22658 
L 194.951643 28.226453 
L 195.081798 28.792455 
L 195.343903 26.528448 
L 195.471136 27.660515 
L 195.602217 26.528511 
L 195.731402 28.226517 
L 195.860553 27.145997 
L 195.991133 27.094513 
L 196.381243 32.188254 
L 196.510048 32.188317 
L 196.639474 30.490397 
L 196.770592 30.385502 
L 197.158616 33.949141 
L 197.288491 32.754319 
L 197.549558 35.584159 
L 197.678093 35.018136 
L 197.809495 35.018178 
L 197.937664 36.150076 
L 198.067655 36.150139 
L 198.19873 37.848039 
L 198.327244 37.282122 
L 198.457249 36.150118 
L 198.717194 36.150097 
L 198.847193 35.584159 
L 198.976439 38.413998 
L 199.10635 37.848039 
L 199.237335 38.413998 
L 199.367681 36.716078 
L 199.495772 37.282101 
L 199.625446 36.150118 
L 199.756916 38.414062 
L 200.015027 36.921948 
L 200.146123 38.414062 
L 200.276269 37.282058 
L 200.40575 37.848039 
L 200.535798 36.716099 
L 200.665343 36.716099 
L 200.923744 38.98 
L 201.055245 37.282122 
L 201.184689 37.848124 
L 201.314728 37.282058 
L 201.444518 39.545875 
L 201.573079 39.545938 
L 201.703173 38.413935 
L 201.832812 38.413935 
L 201.962455 37.847996 
L 202.092348 38.98 
L 202.223719 37.848124 
L 202.481784 38.98 
L 202.611822 37.282058 
L 202.742696 38.98 
L 202.873119 38.98 
L 203.130972 40.11194 
L 203.260731 40.11194 
L 203.391894 38.413956 
L 203.520555 39.546002 
L 203.650981 39.545938 
L 203.781436 38.413956 
L 203.910578 39.546065 
L 204.04125 38.98 
L 204.300806 38.98 
L 204.429866 38.413998 
L 204.560345 38.98 
L 204.688892 38.13105 
L 204.818717 39.545981 
L 204.949643 38.414041 
L 205.079908 40.111961 
L 205.468284 37.282101 
L 205.599586 38.414041 
L 205.729396 37.84806 
L 205.989341 39.26299 
L 206.117316 38.414041 
L 206.378387 38.414041 
L 206.506977 38.98 
L 206.638514 38.413998 
L 206.768466 38.98 
L 206.898283 38.98 
L 207.027544 37.848039 
L 207.286042 38.98 
L 207.416989 37.282058 
L 207.54771 38.98 
L 207.805304 38.98 
L 207.935052 38.413935 
L 208.066257 39.545938 
L 208.195035 39.494603 
L 208.324957 38.414062 
L 208.454918 40.111876 
L 208.586483 37.847996 
L 208.715298 38.98 
L 208.845873 38.413935 
L 209.105845 38.414062 
L 209.23341 37.847996 
L 209.363563 38.309315 
L 209.494223 39.545938 
L 209.622969 39.545875 
L 209.754621 40.112004 
L 209.884622 39.545938 
L 210.014085 39.546065 
L 210.142268 40.677878 
L 210.40173 39.545875 
L 210.532533 40.111961 
L 210.663646 38.414041 
L 210.793108 38.98 
L 210.922843 38.98 
L 211.051855 39.545981 
L 211.181159 39.545959 
L 211.442492 38.414041 
L 211.701823 40.677921 
L 211.831147 39.545959 
L 211.961372 41.809861 
L 212.221454 40.677942 
L 212.351438 44.073741 
L 212.478955 40.111961 
L 212.610555 42.375884 
L 212.739839 41.809924 
L 212.869014 41.809882 
L 213.12815 47.469582 
L 213.517763 45.205681 
L 213.777459 48.035542 
L 214.037601 50.865402 
L 214.166694 51.43151 
L 214.296781 51.431446 
L 214.558165 50.016474 
L 214.685998 50.299549 
L 214.817314 49.733547 
L 214.947325 50.865402 
L 215.205877 50.865487 
L 215.336669 48.035605 
L 215.465799 49.733589 
L 215.594894 48.035605 
L 215.725855 50.299485 
L 215.854572 50.299549 
L 215.985706 49.733483 
L 216.116737 49.733483 
L 216.243948 46.337684 
L 216.504481 51.997342 
L 216.633543 50.299485 
L 216.765168 46.903601 
L 217.023052 49.733483 
L 217.152948 51.431404 
L 217.284522 50.865487 
L 217.414681 51.431404 
L 217.543894 50.299485 
L 217.672605 53.129346 
L 217.801931 50.865402 
L 217.933419 51.431489 
L 218.191453 50.299464 
L 218.322636 51.997406 
L 218.580876 50.299485 
L 218.8403 52.280375 
L 218.970992 50.928369 
L 219.101358 51.431362 
L 219.230552 51.431468 
L 219.489778 53.695454 
L 219.6209 53.695305 
L 219.750525 55.959249 
L 219.879232 54.827394 
L 220.140506 57.09121 
L 220.268659 54.827224 
L 220.399434 55.959228 
L 220.65815 53.695284 
L 220.788086 53.695284 
L 220.91793 53.129346 
L 221.178777 50.865551 
L 221.3087 52.563344 
L 221.567033 50.299337 
L 221.696848 50.865551 
L 221.957767 48.601543 
L 222.08757 48.035478 
L 222.215961 50.299485 
L 222.476991 48.60167 
L 222.736846 50.582454 
L 222.865348 51.997279 
L 223.125327 49.167609 
L 223.384777 50.865551 
L 223.774356 47.46954 
L 223.903923 48.035669 
L 224.294843 45.205681 
L 224.42459 45.205744 
L 224.553091 42.375799 
L 224.814625 44.073698 
L 224.942409 42.375841 
L 225.072278 43.507781 
L 225.203555 39.546044 
L 225.463033 39.546002 
L 225.591742 42.37582 
L 225.721548 39.873654 
L 225.981197 42.375884 
L 226.110986 40.677942 
L 226.371789 40.677899 
L 226.501046 41.809861 
L 226.630224 40.11194 
L 226.891243 41.243922 
L 227.019945 40.11194 
L 227.280852 40.11194 
L 227.409535 40.677921 
L 227.539114 40.677899 
L 227.668875 40.111961 
L 227.799288 40.677942 
L 227.929915 39.545959 
L 228.05839 40.111961 
L 228.188133 38.414125 
L 228.318204 38.98 
L 228.449217 38.98 
L 228.579346 37.848124 
L 228.837442 40.782689 
L 229.097966 37.84806 
L 229.226814 38.98 
L 229.486977 36.715993 
L 229.616348 37.848124 
L 229.876639 37.847996 
L 230.006238 37.282058 
L 230.135971 37.282058 
L 230.265567 37.848124 
L 230.395552 37.847996 
L 230.526683 38.414062 
L 230.65542 37.84806 
L 230.786473 36.715993 
L 230.91636 37.84806 
L 231.045839 37.848124 
L 231.175274 37.282058 
L 231.305491 37.84806 
L 231.434276 37.847996 
L 231.695576 36.999068 
L 231.823383 35.018178 
L 232.08349 37.848039 
L 232.344126 37.848039 
L 232.474135 36.716078 
L 232.602925 37.282058 
L 232.73259 36.716099 
L 233.123026 38.414041 
L 233.252559 39.545959 
L 233.38134 36.71612 
L 233.770847 39.545959 
L 234.03187 37.282079 
L 234.160196 39.545959 
L 234.290155 37.848102 
L 234.419934 38.413998 
L 234.810709 38.413998 
L 234.940237 37.84806 
L 235.459317 37.84806 
L 235.588983 38.749447 
L 235.717994 38.414062 
L 235.84903 38.98 
L 235.978524 38.98 
L 236.109027 37.722211 
L 236.237478 38.98 
L 236.368396 38.413935 
L 236.4972 40.112004 
L 236.627176 39.545938 
L 236.757385 37.847996 
L 236.88704 38.69701 
L 237.017215 40.678005 
L 237.146755 39.546065 
L 237.276222 39.828929 
L 237.406038 39.546002 
L 237.535525 38.414125 
L 237.665624 40.11194 
L 237.795498 40.111876 
L 237.925987 39.546002 
L 238.055507 39.545959 
L 238.185265 40.112004 
L 238.315216 41.243922 
L 238.444435 40.111982 
L 238.574103 40.677878 
L 238.704756 39.545938 
L 238.834262 40.111919 
L 238.964128 40.11194 
L 239.223676 41.243922 
L 239.353062 38.98 
L 239.482936 38.98 
L 239.61291 39.545938 
L 239.743145 41.243901 
L 240.002782 40.112004 
L 240.262484 42.375841 
L 240.391573 40.677942 
L 240.521713 42.375862 
L 240.651813 40.11194 
L 240.781248 41.809903 
L 240.91097 39.545959 
L 241.041269 40.866524 
L 241.171095 40.96089 
L 241.300433 39.546002 
L 241.430147 40.111876 
L 241.560185 42.94178 
L 241.689801 39.545959 
L 241.820121 40.112004 
L 242.079299 42.375862 
L 242.20927 42.375799 
L 242.340084 40.677878 
L 242.469021 44.073804 
L 242.598688 43.507866 
L 242.728448 44.073741 
L 242.858767 42.658832 
L 242.988314 44.073804 
L 243.118478 40.782879 
L 243.248076 40.678005 
L 243.377974 42.375862 
L 243.507308 41.809945 
L 243.637199 41.809797 
L 243.767069 42.753197 
L 244.026615 40.677942 
L 244.286579 41.809861 
L 244.546204 40.11194 
L 244.676542 41.243795 
L 244.935994 39.545938 
L 245.065374 40.523576 
L 245.195354 38.98 
L 245.325153 39.545938 
L 245.455704 38.98 
L 245.584609 38.98 
L 245.714739 39.545938 
L 245.844627 38.98 
L 245.974443 38.98 
L 246.104172 39.546065 
L 246.234667 38.98 
L 246.363664 39.546065 
L 246.62353 37.282058 
L 246.753113 37.848124 
L 246.88287 38.98 
L 247.1425 38.98 
L 247.1425 38.98 
" clip-path="url(#p66bbc1bb27)" style="fill: none; stroke: #0000ff; stroke-width: 2; stroke-linecap: square"/>
   </g>
   <g id="line2d_26">
    <path d="M 159.625 17.793333 
L 251.31 17.793333 
" clip-path="url(#p66bbc1bb27)" style="fill: none; stroke-dasharray: 7.4,3.2; stroke-dashoffset: 0; stroke: #000000; stroke-opacity: 0.7; stroke-width: 2"/>
   </g>
   <g id="line2d_27">
    <path d="M 159.625 60.166667 
L 251.31 60.166667 
" clip-path="url(#p66bbc1bb27)" style="fill: none; stroke-dasharray: 7.4,3.2; stroke-dashoffset: 0; stroke: #000000; stroke-opacity: 0.7; stroke-width: 2"/>
   </g>
   <g id="patch_8">
    <path d="M 159.625 70.76 
L 159.625 7.2 
" style="fill: none; stroke: #000000; stroke-width: 0.8; stroke-linejoin: miter; stroke-linecap: square"/>
   </g>
   <g id="patch_9">
    <path d="M 251.31 70.76 
L 251.31 7.2 
" style="fill: none; stroke: #000000; stroke-width: 0.8; stroke-linejoin: miter; stroke-linecap: square"/>
   </g>
   <g id="patch_10">
    <path d="M 159.625 70.76 
L 251.31 70.76 
" style="fill: none; stroke: #000000; stroke-width: 0.8; stroke-linejoin: miter; stroke-linecap: square"/>
   </g>
   <g id="patch_11">
    <path d="M 159.625 7.2 
L 251.31 7.2 
" style="fill: none; stroke: #000000; stroke-width: 0.8; stroke-linejoin: miter; stroke-linecap: square"/>
   </g>
  </g>
 </g>
 <defs>
  <clipPath id="pbdd14b0fea">
   <rect x="35.2" y="7.2" width="91.685" height="63.56"/>
  </clipPath>
  <clipPath id="p66bbc1bb27">
   <rect x="159.625" y="7.2" width="91.685" height="63.56"/>
  </clipPath>
 </defs>
</svg>
