<?xml version="1.0" encoding="utf-8" standalone="no"?>
<!DOCTYPE svg PUBLIC "-//W3C//DTD SVG 1.1//EN"
  "http://www.w3.org/Graphics/SVG/1.1/DTD/svg11.dtd">
<svg xmlns:xlink="http://www.w3.org/1999/xlink" width="127.48587pt" height="200.35875pt" viewBox="0 0 127.48587 200.35875" xmlns="http://www.w3.org/2000/svg" version="1.1">
 <metadata>
  <rdf:RDF xmlns:dc="http://purl.org/dc/elements/1.1/" xmlns:cc="http://creativecommons.org/ns#" xmlns:rdf="http://www.w3.org/1999/02/22-rdf-syntax-ns#">
   <cc:Work>
    <dc:type rdf:resource="http://purl.org/dc/dcmitype/StillImage"/>
    <dc:date>2026-01-18T23:30:34.552482</dc:date>
    <dc:format>image/svg+xml</dc:format>
    <dc:creator>
     <cc:Agent>
      <dc:title>Matplotlib v3.6.3, https://matplotlib.org/</dc:title>
     </cc:Agent>
    </dc:creator>
   </cc:Work>
  </rdf:RDF>
 </metadata>
 <defs>
  <style type="text/css">*{stroke-linejoin: round; stroke-linecap: butt}</style>
 </defs>
 <g id="figure_1">
  <g id="patch_1">
   <path d="M 0 200.35875 
L 127.48587 200.35875 
L 127.48587 -0 
L 0 -0 
z
" style="fill: #ffffff"/>
  </g>
  <g id="axes_1">
   <g id="patch_2">
    <path d="M 35.099375 160.36 
L 120.28587 160.36 
L 120.28587 7.2 
L 35.099375 7.2 
z
" style="fill: #ffffff"/>
   </g>
   <g id="matplotlib.axis_1">
    <g id="xtick_1">
     <g id="line2d_1">
      <path d="M 114.539183 160.36 
L 114.539183 7.2 
" clip-path="url(#p41ed08e060)" style="fill: none; stroke: #b0b0b0; stroke-opacity: 0.3; stroke-width: 0.8; stroke-linecap: square"/>
     </g>
     <g id="line2d_2">
      <defs>
       <path id="m25cbb46045" d="M 0 0 
L 0 3.5 
" style="stroke: #000000; stroke-width: 0.8"/>
      </defs>
      <g>
       <use xlink:href="#m25cbb46045" x="114.539183" y="160.36" style="stroke: #000000; stroke-width: 0.8"/>
      </g>
     </g>
     <g id="text_1">
      <!-- 0 -->
      <g transform="translate(111.539183 175.6925) scale(0.12 -0.12)">
       <defs>
        <path id="TimesNewRomanPSMT-30" d="M 231 2094 
Q 231 2819 450 3342 
Q 669 3866 1031 4122 
Q 1313 4325 1613 4325 
Q 2100 4325 2488 3828 
Q 2972 3213 2972 2159 
Q 2972 1422 2759 906 
Q 2547 391 2217 158 
Q 1888 -75 1581 -75 
Q 975 -75 572 641 
Q 231 1244 231 2094 
z
M 844 2016 
Q 844 1141 1059 588 
Q 1238 122 1591 122 
Q 1759 122 1940 273 
Q 2122 425 2216 781 
Q 2359 1319 2359 2297 
Q 2359 3022 2209 3506 
Q 2097 3866 1919 4016 
Q 1791 4119 1609 4119 
Q 1397 4119 1231 3928 
Q 1006 3669 925 3112 
Q 844 2556 844 2016 
z
" transform="scale(0.015625)"/>
       </defs>
       <use xlink:href="#TimesNewRomanPSMT-30"/>
      </g>
     </g>
    </g>
    <g id="xtick_2">
     <g id="line2d_3">
      <path d="M 68.12758 160.36 
L 68.12758 7.2 
" clip-path="url(#p41ed08e060)" style="fill: none; stroke: #b0b0b0; stroke-opacity: 0.3; stroke-width: 0.8; stroke-linecap: square"/>
     </g>
     <g id="line2d_4">
      <g>
       <use xlink:href="#m25cbb46045" x="68.12758" y="160.36" style="stroke: #000000; stroke-width: 0.8"/>
      </g>
     </g>
     <g id="text_2">
      <!-- 2 -->
      <g transform="translate(65.12758 175.6925) scale(0.12 -0.12)">
       <defs>
        <path id="TimesNewRomanPSMT-32" d="M 2934 816 
L 2638 0 
L 138 0 
L 138 116 
Q 1241 1122 1691 1759 
Q 2141 2397 2141 2925 
Q 2141 3328 1894 3587 
Q 1647 3847 1303 3847 
Q 991 3847 742 3664 
Q 494 3481 375 3128 
L 259 3128 
Q 338 3706 661 4015 
Q 984 4325 1469 4325 
Q 1984 4325 2329 3994 
Q 2675 3663 2675 3213 
Q 2675 2891 2525 2569 
Q 2294 2063 1775 1497 
Q 997 647 803 472 
L 1909 472 
Q 2247 472 2383 497 
Q 2519 522 2628 598 
Q 2738 675 2819 816 
L 2934 816 
z
" transform="scale(0.015625)"/>
       </defs>
       <use xlink:href="#TimesNewRomanPSMT-32"/>
      </g>
     </g>
    </g>
    <g id="text_3">
     <!-- $y$ [m] -->
     <g transform="translate(64.852623 190.591875) scale(0.12 -0.12)">
      <defs>
       <path id="STIXGeneral-Italic-79" d="M 1555 1190 
L 1690 486 
Q 2118 1190 2294 1558 
Q 2470 1926 2470 2131 
Q 2470 2234 2304 2336 
Q 2138 2445 2138 2586 
Q 2138 2688 2211 2755 
Q 2285 2822 2394 2822 
Q 2534 2822 2630 2720 
Q 2726 2618 2726 2470 
Q 2726 1914 1888 518 
Q 1389 -307 918 -812 
Q 448 -1318 173 -1318 
Q 26 -1318 -64 -1241 
Q -154 -1165 -154 -1043 
Q -154 -934 -80 -860 
Q -6 -787 96 -787 
Q 218 -787 314 -876 
Q 410 -966 486 -966 
Q 602 -966 794 -755 
Q 877 -672 1040 -457 
Q 1203 -243 1248 -173 
Q 1312 -45 1312 51 
Q 1312 243 1113 1046 
Q 915 1850 787 2176 
Q 698 2413 592 2499 
Q 486 2586 294 2586 
Q 192 2586 96 2560 
L 96 2669 
Q 237 2694 301 2707 
Q 563 2758 986 2822 
L 1011 2822 
Q 1082 2822 1277 2227 
Q 1472 1632 1555 1190 
z
" transform="scale(0.015625)"/>
       <path id="TimesNewRomanPSMT-20" transform="scale(0.015625)"/>
       <path id="TimesNewRomanPSMT-5b" d="M 1900 -1269 
L 525 -1269 
L 525 4334 
L 1900 4334 
L 1900 4088 
L 994 4088 
L 994 -1025 
L 1900 -1025 
L 1900 -1269 
z
" transform="scale(0.015625)"/>
       <path id="TimesNewRomanPSMT-6d" d="M 1050 2338 
Q 1363 2650 1419 2697 
Q 1559 2816 1721 2881 
Q 1884 2947 2044 2947 
Q 2313 2947 2506 2790 
Q 2700 2634 2766 2338 
Q 3088 2713 3309 2830 
Q 3531 2947 3766 2947 
Q 3994 2947 4170 2830 
Q 4347 2713 4450 2447 
Q 4519 2266 4519 1878 
L 4519 647 
Q 4519 378 4559 278 
Q 4591 209 4675 161 
Q 4759 113 4950 113 
L 4950 0 
L 3538 0 
L 3538 113 
L 3597 113 
Q 3781 113 3884 184 
Q 3956 234 3988 344 
Q 4000 397 4000 647 
L 4000 1878 
Q 4000 2228 3916 2372 
Q 3794 2572 3525 2572 
Q 3359 2572 3192 2489 
Q 3025 2406 2788 2181 
L 2781 2147 
L 2788 2013 
L 2788 647 
Q 2788 353 2820 281 
Q 2853 209 2943 161 
Q 3034 113 3253 113 
L 3253 0 
L 1806 0 
L 1806 113 
Q 2044 113 2133 169 
Q 2222 225 2256 338 
Q 2272 391 2272 647 
L 2272 1878 
Q 2272 2228 2169 2381 
Q 2031 2581 1784 2581 
Q 1616 2581 1450 2491 
Q 1191 2353 1050 2181 
L 1050 647 
Q 1050 366 1089 281 
Q 1128 197 1204 155 
Q 1281 113 1516 113 
L 1516 0 
L 100 0 
L 100 113 
Q 297 113 375 155 
Q 453 197 493 289 
Q 534 381 534 647 
L 534 1741 
Q 534 2213 506 2350 
Q 484 2453 437 2492 
Q 391 2531 309 2531 
Q 222 2531 100 2484 
L 53 2597 
L 916 2947 
L 1050 2947 
L 1050 2338 
z
" transform="scale(0.015625)"/>
       <path id="TimesNewRomanPSMT-5d" d="M 234 4334 
L 1609 4334 
L 1609 -1272 
L 234 -1272 
L 234 -1025 
L 1141 -1025 
L 1141 4088 
L 234 4088 
L 234 4334 
z
" transform="scale(0.015625)"/>
      </defs>
      <use xlink:href="#STIXGeneral-Italic-79" transform="translate(0 0.28125)"/>
      <use xlink:href="#TimesNewRomanPSMT-20" transform="translate(44.399994 0.28125)"/>
      <use xlink:href="#TimesNewRomanPSMT-5b" transform="translate(69.399994 0.28125)"/>
      <use xlink:href="#TimesNewRomanPSMT-6d" transform="translate(102.700775 0.28125)"/>
      <use xlink:href="#TimesNewRomanPSMT-5d" transform="translate(180.483978 0.28125)"/>
     </g>
    </g>
   </g>
   <g id="matplotlib.axis_2">
    <g id="ytick_1">
     <g id="line2d_5">
      <path d="M 35.099375 153.396627 
L 120.28587 153.396627 
" clip-path="url(#p41ed08e060)" style="fill: none; stroke: #b0b0b0; stroke-opacity: 0.3; stroke-width: 0.8; stroke-linecap: square"/>
     </g>
     <g id="line2d_6">
      <defs>
       <path id="m04203bc6dd" d="M 0 0 
L -3.5 0 
" style="stroke: #000000; stroke-width: 0.8"/>
      </defs>
      <g>
       <use xlink:href="#m04203bc6dd" x="35.099375" y="153.396627" style="stroke: #000000; stroke-width: 0.8"/>
      </g>
     </g>
     <g id="text_4">
      <!-- 0 -->
      <g transform="translate(22.099375 157.562877) scale(0.12 -0.12)">
       <use xlink:href="#TimesNewRomanPSMT-30"/>
      </g>
     </g>
    </g>
    <g id="ytick_2">
     <g id="line2d_7">
      <path d="M 35.099375 106.985024 
L 120.28587 106.985024 
" clip-path="url(#p41ed08e060)" style="fill: none; stroke: #b0b0b0; stroke-opacity: 0.3; stroke-width: 0.8; stroke-linecap: square"/>
     </g>
     <g id="line2d_8">
      <g>
       <use xlink:href="#m04203bc6dd" x="35.099375" y="106.985024" style="stroke: #000000; stroke-width: 0.8"/>
      </g>
     </g>
     <g id="text_5">
      <!-- 2 -->
      <g transform="translate(22.099375 111.151274) scale(0.12 -0.12)">
       <use xlink:href="#TimesNewRomanPSMT-32"/>
      </g>
     </g>
    </g>
    <g id="ytick_3">
     <g id="line2d_9">
      <path d="M 35.099375 60.573421 
L 120.28587 60.573421 
" clip-path="url(#p41ed08e060)" style="fill: none; stroke: #b0b0b0; stroke-opacity: 0.3; stroke-width: 0.8; stroke-linecap: square"/>
     </g>
     <g id="line2d_10">
      <g>
       <use xlink:href="#m04203bc6dd" x="35.099375" y="60.573421" style="stroke: #000000; stroke-width: 0.8"/>
      </g>
     </g>
     <g id="text_6">
      <!-- 4 -->
      <g transform="translate(22.099375 64.739671) scale(0.12 -0.12)">
       <defs>
        <path id="TimesNewRomanPSMT-34" d="M 2978 1563 
L 2978 1119 
L 2409 1119 
L 2409 0 
L 1894 0 
L 1894 1119 
L 100 1119 
L 100 1519 
L 2066 4325 
L 2409 4325 
L 2409 1563 
L 2978 1563 
z
M 1894 1563 
L 1894 3666 
L 406 1563 
L 1894 1563 
z
" transform="scale(0.015625)"/>
       </defs>
       <use xlink:href="#TimesNewRomanPSMT-34"/>
      </g>
     </g>
    </g>
    <g id="ytick_4">
     <g id="line2d_11">
      <path d="M 35.099375 14.161818 
L 120.28587 14.161818 
" clip-path="url(#p41ed08e060)" style="fill: none; stroke: #b0b0b0; stroke-opacity: 0.3; stroke-width: 0.8; stroke-linecap: square"/>
     </g>
     <g id="line2d_12">
      <g>
       <use xlink:href="#m04203bc6dd" x="35.099375" y="14.161818" style="stroke: #000000; stroke-width: 0.8"/>
      </g>
     </g>
     <g id="text_7">
      <!-- 6 -->
      <g transform="translate(22.099375 18.328068) scale(0.12 -0.12)">
       <defs>
        <path id="TimesNewRomanPSMT-36" d="M 2869 4325 
L 2869 4209 
Q 2456 4169 2195 4045 
Q 1934 3922 1679 3669 
Q 1425 3416 1258 3105 
Q 1091 2794 978 2366 
Q 1428 2675 1881 2675 
Q 2316 2675 2634 2325 
Q 2953 1975 2953 1425 
Q 2953 894 2631 456 
Q 2244 -75 1606 -75 
Q 1172 -75 869 213 
Q 275 772 275 1663 
Q 275 2231 503 2743 
Q 731 3256 1154 3653 
Q 1578 4050 1965 4187 
Q 2353 4325 2688 4325 
L 2869 4325 
z
M 925 2138 
Q 869 1716 869 1456 
Q 869 1156 980 804 
Q 1091 453 1309 247 
Q 1469 100 1697 100 
Q 1969 100 2183 356 
Q 2397 613 2397 1088 
Q 2397 1622 2184 2012 
Q 1972 2403 1581 2403 
Q 1463 2403 1327 2353 
Q 1191 2303 925 2138 
z
" transform="scale(0.015625)"/>
       </defs>
       <use xlink:href="#TimesNewRomanPSMT-36"/>
      </g>
     </g>
    </g>
    <g id="text_8">
     <!-- $x$ [m] -->
     <g transform="translate(15.5325 96.62) rotate(-90) scale(0.12 -0.12)">
      <defs>
       <path id="STIXGeneral-Italic-78" d="M 1555 2272 
L 1632 1907 
Q 1971 2426 2179 2624 
Q 2387 2822 2598 2822 
Q 2714 2822 2787 2755 
Q 2861 2688 2861 2585 
Q 2861 2483 2800 2419 
Q 2739 2355 2643 2355 
Q 2586 2355 2490 2409 
Q 2394 2464 2310 2464 
Q 2125 2464 1683 1690 
Q 1683 1606 1734 1402 
L 1939 544 
Q 2003 282 2131 282 
Q 2234 282 2432 538 
Q 2451 563 2476 598 
Q 2502 634 2521 662 
Q 2541 691 2566 717 
L 2662 659 
Q 2387 230 2227 80 
Q 2067 -70 1882 -70 
Q 1728 -70 1645 26 
Q 1562 122 1504 365 
L 1318 1126 
L 755 365 
Q 557 96 432 13 
Q 307 -70 147 -70 
Q 0 -70 -86 0 
Q -173 70 -173 198 
Q -173 294 -112 361 
Q -51 429 45 429 
Q 122 429 250 358 
Q 346 301 416 301 
Q 525 301 742 614 
L 1267 1357 
L 1088 2150 
Q 1024 2432 969 2509 
Q 915 2586 794 2586 
Q 717 2586 544 2541 
L 429 2509 
L 410 2611 
L 480 2637 
Q 992 2822 1229 2822 
Q 1350 2822 1420 2707 
Q 1491 2592 1555 2272 
z
" transform="scale(0.015625)"/>
      </defs>
      <use xlink:href="#STIXGeneral-Italic-78" transform="translate(0 0.28125)"/>
      <use xlink:href="#TimesNewRomanPSMT-20" transform="translate(44.399994 0.28125)"/>
      <use xlink:href="#TimesNewRomanPSMT-5b" transform="translate(69.399994 0.28125)"/>
      <use xlink:href="#TimesNewRomanPSMT-6d" transform="translate(102.700775 0.28125)"/>
      <use xlink:href="#TimesNewRomanPSMT-5d" transform="translate(180.483978 0.28125)"/>
     </g>
    </g>
   </g>
   <g id="line2d_13">
    <path d="M 114.539183 153.396627 
L 114.630754 141.531798 
L 114.711669 140.669657 
L 114.668577 137.738457 
L 114.49617 137.37097 
L 114.489666 136.554659 
L 114.79408 135.854514 
L 114.828452 134.303943 
L 114.968742 133.949138 
L 114.879925 132.38714 
L 114.828175 131.349623 
L 115.189792 131.636077 
L 115.074107 129.848093 
L 114.996178 128.194121 
L 114.464435 126.976494 
L 114.437748 126.170657 
L 114.626698 125.852413 
L 114.592963 124.274591 
L 114.661253 123.402744 
L 114.642503 121.754184 
L 114.740208 121.061062 
L 115.256592 119.551749 
L 115.15537 117.065515 
L 115.089234 116.528602 
L 114.766507 112.518234 
L 114.50756 112.158978 
L 114.407576 111.285933 
L 114.31213 110.531076 
L 114.31286 107.43046 
L 114.4127 107.394941 
L 114.446423 106.599383 
L 114.611735 106.301239 
L 114.68856 104.252243 
L 114.798111 103.728025 
L 114.81651 95.924235 
L 114.972377 95.144379 
L 114.790121 91.417442 
L 114.470227 89.963652 
L 114.325903 89.805251 
L 113.606514 86.443137 
L 113.002442 85.693985 
L 112.536465 84.3606 
L 112.184775 84.036108 
L 111.439267 84.12624 
L 111.026863 83.559456 
L 110.897569 83.144738 
L 108.830243 80.85955 
L 108.160082 80.46272 
L 105.044258 79.589888 
L 104.050285 79.574006 
L 101.444551 78.60786 
L 100.526106 78.447003 
L 98.797048 78.017188 
L 99.460847 79.117079 
L 98.592204 79.493658 
L 98.058041 79.488143 
L 96.528786 78.354066 
L 95.687455 78.915715 
L 94.170296 79.436173 
L 92.622926 80.040625 
L 92.021093 80.307912 
L 92.015546 80.650577 
L 92.189651 81.130141 
L 91.862707 81.233352 
L 91.419259 81.200394 
L 90.750591 81.032066 
L 89.963806 81.253148 
L 89.338923 81.982328 
L 88.613405 82.106868 
L 87.853106 82.2695 
L 87.823917 82.298051 
L 86.014406 82.623742 
L 85.031105 82.593535 
L 83.199201 82.794119 
L 82.512269 82.959261 
L 81.414285 83.003355 
L 79.958231 83.533833 
L 79.479342 83.902657 
L 78.790827 84.020374 
L 78.289276 83.826262 
L 77.804194 83.366822 
L 77.075033 83.519226 
L 76.441288 83.628268 
L 74.130289 83.837402 
L 72.158809 83.98436 
L 67.998401 83.934081 
L 67.678172 83.835157 
L 66.897929 83.930801 
L 66.350185 84.035351 
L 64.322794 84.01388 
L 62.929672 84.168591 
L 62.083303 84.136909 
L 61.247019 83.992279 
L 52.364854 83.828096 
L 50.381326 83.455599 
L 49.686828 83.379691 
L 46.407901 82.430516 
L 43.9716 81.108792 
L 42.276916 79.615107 
L 41.311625 78.311771 
L 40.919499 77.429375 
L 40.324559 76.418667 
L 40.05156 75.8209 
L 39.690871 75.548133 
L 39.593782 75.211319 
L 39.164219 74.614778 
L 38.971488 73.164527 
L 38.976881 72.101058 
L 39.055712 70.535946 
L 39.463956 68.660797 
L 39.634603 68.135391 
L 39.704355 66.98583 
L 40.058043 65.47232 
L 40.387384 63.856082 
L 41.394023 61.217309 
L 41.562048 60.534602 
L 42.682411 57.296774 
L 43.153712 55.48313 
L 43.513794 53.504306 
L 43.769323 52.019065 
L 43.627256 51.972901 
L 44.112461 48.974447 
L 44.030843 48.835039 
L 44.084864 48.130649 
L 44.179645 46.622289 
L 44.52764 44.468273 
L 44.669592 43.282658 
L 44.742474 41.428567 
L 44.820624 40.704586 
L 44.853116 38.788064 
L 44.824159 38.140667 
L 44.759866 37.059051 
L 44.73179 34.396896 
L 44.676314 32.657645 
L 44.619973 29.986349 
L 44.559104 29.268542 
L 44.6627 26.778009 
L 44.713972 25.450665 
L 44.684889 24.569792 
L 44.632641 23.113453 
L 44.47789 22.76818 
L 44.566303 19.938102 
L 44.637237 19.445893 
L 44.587073 16.905008 
L 44.654293 16.71814 
L 44.654293 16.71814 
" clip-path="url(#p41ed08e060)" style="fill: none; stroke: #0000ff; stroke-width: 0.5; stroke-linecap: square"/>
   </g>
   <g id="line2d_14">
    <path d="M 114.539183 153.396627 
L 114.622012 140.449687 
L 114.737584 139.721165 
L 114.624042 136.630287 
L 114.445725 133.542314 
L 114.425776 131.616086 
L 114.261649 130.898374 
L 114.118343 122.376455 
L 114.040784 121.36655 
L 114.167065 120.010811 
L 114.327246 119.182355 
L 114.305078 116.56436 
L 114.184231 113.083517 
L 114.279592 109.749353 
L 114.423602 106.160803 
L 114.562271 105.909426 
L 114.613503 103.989837 
L 114.498322 102.979832 
L 114.630424 99.295951 
L 114.716285 96.622328 
L 114.669883 92.835172 
L 114.428124 92.591521 
L 114.204933 90.476603 
L 113.698415 87.334274 
L 113.395355 86.553117 
L 113.119113 86.023703 
L 112.454249 84.951068 
L 111.78204 84.060194 
L 110.739974 82.71396 
L 109.21691 81.131352 
L 108.33764 80.558331 
L 107.164889 80.036211 
L 106.734973 79.847143 
L 106.418334 80.008045 
L 104.892437 79.492314 
L 101.798478 78.741658 
L 100.720092 78.85184 
L 99.846165 79.301558 
L 99.098357 79.247152 
L 97.767592 79.747212 
L 97.072135 79.951356 
L 96.889378 80.220261 
L 95.742911 80.383091 
L 94.855217 80.607344 
L 93.667405 80.869805 
L 92.505584 81.263776 
L 88.482386 82.059877 
L 87.763635 82.336316 
L 82.679604 83.223944 
L 81.409366 83.322595 
L 79.258275 83.470977 
L 77.587469 83.632282 
L 76.86486 83.796471 
L 74.8524 83.741777 
L 74.08715 83.869893 
L 73.47841 83.794263 
L 73.353949 83.660445 
L 72.588213 83.63806 
L 71.975902 83.567691 
L 68.776771 83.616608 
L 68.516355 83.469442 
L 66.877035 83.554439 
L 66.384456 83.343237 
L 63.707457 83.335313 
L 63.371201 83.192614 
L 62.68587 83.166108 
L 62.251782 83.006079 
L 60.450674 83.144727 
L 58.157581 83.424299 
L 57.469088 83.402808 
L 57.008299 83.422292 
L 56.697793 83.290434 
L 54.843391 83.307292 
L 54.639798 83.225524 
L 51.218231 83.097523 
L 50.271302 82.72078 
L 47.907566 82.168511 
L 46.765156 81.779439 
L 46.207801 81.719083 
L 44.256636 80.60236 
L 43.337274 79.806663 
L 42.958583 79.302302 
L 41.19145 77.211127 
L 41.194833 76.715583 
L 40.884799 76.088635 
L 40.617917 75.285663 
L 40.313529 74.910644 
L 39.70423 72.863939 
L 39.435824 70.986609 
L 39.603295 68.501718 
L 39.41138 67.516368 
L 39.33509 66.370411 
L 39.240431 65.867762 
L 39.489047 63.581791 
L 39.990181 61.617197 
L 39.950655 60.950049 
L 40.454037 59.416565 
L 40.457479 58.940618 
L 40.571126 58.613913 
L 40.511153 58.408421 
L 42.280637 53.239756 
L 42.900105 51.327696 
L 42.982051 50.524135 
L 43.171158 49.745438 
L 43.113265 49.434586 
L 43.721651 46.74832 
L 43.647116 46.615781 
L 44.661889 40.564666 
L 44.699146 40.217671 
L 44.485114 40.052872 
L 44.806905 35.780012 
L 44.701624 35.321937 
L 44.70057 34.017696 
L 44.628143 33.273115 
L 44.727689 31.330203 
L 44.911236 31.352206 
L 45.016843 29.516309 
L 45.05344 25.260285 
L 44.826912 23.568459 
L 44.89494 21.95471 
L 44.811361 20.83124 
L 44.94628 19.437686 
L 44.955953 16.301451 
L 44.955953 16.301451 
" clip-path="url(#p41ed08e060)" style="fill: none; stroke: #0000ff; stroke-width: 0.5; stroke-linecap: square"/>
   </g>
   <g id="line2d_15">
    <path d="M 114.539183 153.396627 
L 114.561395 142.457618 
L 114.620297 142.502202 
L 114.715145 142.423169 
L 114.580587 136.949866 
L 114.767496 136.700038 
L 114.825881 135.991861 
L 114.962085 134.920851 
L 114.964774 134.336637 
L 114.009871 134.76091 
L 113.98801 134.063273 
L 114.293537 133.324555 
L 114.340726 132.505967 
L 114.416666 131.807352 
L 114.34809 130.805349 
L 114.169388 128.559597 
L 114.35568 126.214759 
L 114.581 125.129568 
L 114.65288 123.341431 
L 114.815771 123.126254 
L 114.872319 122.34186 
L 114.772492 119.571599 
L 114.742338 117.879053 
L 114.635467 117.73519 
L 114.679578 116.693826 
L 114.7333 115.885041 
L 114.652118 115.382082 
L 114.487578 115.050951 
L 114.386808 112.90341 
L 114.410982 111.911517 
L 114.444916 110.630721 
L 114.411432 110.593049 
L 114.418397 109.571168 
L 114.528793 109.017478 
L 114.60552 108.048933 
L 114.666058 107.865308 
L 114.661721 107.050505 
L 115.22337 107.244683 
L 115.25484 106.095774 
L 115.362321 105.850625 
L 115.380271 105.045223 
L 115.500422 104.883767 
L 115.438117 102.48994 
L 115.365888 100.774128 
L 115.234143 99.971179 
L 115.027512 95.613569 
L 114.924716 95.391425 
L 114.984222 94.84953 
L 114.989805 94.293884 
L 114.757553 92.010401 
L 114.073871 89.77445 
L 113.922606 89.088095 
L 113.62738 88.330398 
L 113.353914 88.078195 
L 112.631607 86.784187 
L 112.192026 86.229177 
L 111.859575 85.897883 
L 111.387045 85.28421 
L 111.287888 85.027718 
L 110.350617 84.020109 
L 110.05381 83.538784 
L 109.392871 83.013293 
L 109.134969 82.608909 
L 108.429728 82.192147 
L 108.148087 81.814019 
L 105.999799 80.900033 
L 105.663025 80.808501 
L 105.450573 80.520494 
L 105.012998 80.122232 
L 104.348234 80.073661 
L 103.572644 80.099912 
L 102.943003 80.214703 
L 101.42053 80.524543 
L 100.331748 80.533917 
L 99.660898 80.602836 
L 99.294779 80.031813 
L 96.930681 80.433001 
L 96.477599 80.280739 
L 96.137447 80.023431 
L 95.425911 80.085798 
L 95.255894 80.022829 
L 94.60381 80.199125 
L 94.336342 80.417865 
L 93.784012 80.546453 
L 92.493956 78.521164 
L 91.925007 78.708756 
L 91.111186 78.994543 
L 89.52175 79.074442 
L 89.181689 79.152892 
L 89.402317 81.605774 
L 87.501888 82.21311 
L 86.563712 82.491219 
L 85.974017 82.138908 
L 85.174021 80.657617 
L 84.612508 80.385984 
L 84.433552 81.51283 
L 84.436888 82.89966 
L 81.878596 83.485514 
L 81.53755 83.55952 
L 80.764509 83.586229 
L 80.288972 83.645727 
L 79.561924 83.564176 
L 76.857146 83.885107 
L 74.083722 83.768338 
L 71.018898 84.020491 
L 69.865137 84.172556 
L 69.535005 84.304732 
L 68.755663 84.279665 
L 68.477471 84.189092 
L 67.963706 84.163935 
L 67.105086 84.055688 
L 65.136836 83.946775 
L 61.041494 84.004933 
L 57.540449 84.354912 
L 53.776213 84.275445 
L 51.809003 84.199981 
L 51.47662 84.317798 
L 50.68457 84.109714 
L 50.388477 83.834536 
L 49.602531 83.632973 
L 49.31589 83.427959 
L 48.12596 82.953702 
L 46.551104 82.248534 
L 45.123734 81.260183 
L 43.044136 78.961455 
L 41.700252 76.866097 
L 41.531037 76.557581 
L 41.166265 76.358355 
L 40.50659 74.744693 
L 40.413944 73.900146 
L 40.408298 73.413119 
L 40.586702 72.866921 
L 40.10264 72.061011 
L 39.92608 71.757123 
L 40.020114 71.416605 
L 40.090466 71.016253 
L 40.260866 70.852828 
L 40.595164 68.918882 
L 40.739507 67.818156 
L 40.915966 65.9648 
L 40.784466 65.45601 
L 40.943699 64.821934 
L 40.577187 64.089038 
L 40.815003 63.026099 
L 40.719354 62.763642 
L 40.819372 62.31797 
L 41.367366 61.678617 
L 41.661942 60.594738 
L 41.968208 59.728775 
L 42.00745 58.751161 
L 42.11237 57.985308 
L 42.231124 57.104753 
L 42.732285 55.331622 
L 42.808178 54.367335 
L 42.891342 54.031559 
L 43.352632 53.113076 
L 43.882343 50.607355 
L 43.809982 49.902198 
L 44.098304 47.817898 
L 44.007459 46.726001 
L 44.090938 46.017572 
L 44.050596 45.222904 
L 44.365006 41.967655 
L 44.218786 41.710222 
L 44.334121 39.002297 
L 44.265697 38.693268 
L 44.117727 38.604713 
L 44.29338 34.334247 
L 44.165837 33.455683 
L 44.187914 32.991921 
L 44.216118 33.166721 
L 44.266571 33.992186 
L 44.324263 33.224144 
L 44.284344 28.246288 
L 44.262675 26.690686 
L 44.165152 26.551941 
L 44.222414 24.788732 
L 44.124266 24.277628 
L 44.141833 23.921099 
L 44.58546 24.529622 
L 44.803115 21.824678 
L 44.965291 20.453431 
L 43.839814 20.041772 
L 43.962578 16.734122 
L 44.018118 16.459818 
L 44.018118 16.459818 
" clip-path="url(#p41ed08e060)" style="fill: none; stroke: #0000ff; stroke-width: 0.5; stroke-linecap: square"/>
   </g>
   <g id="line2d_16">
    <path d="M 114.539183 153.396627 
L 114.560724 142.825597 
L 114.736392 142.043133 
L 114.716417 138.562242 
L 114.933373 137.890315 
L 114.864296 132.001221 
L 114.744569 130.599213 
L 114.649337 130.372334 
L 114.535703 129.208873 
L 114.370018 127.109367 
L 114.47646 126.063552 
L 114.42465 124.442355 
L 114.476441 122.920137 
L 114.429692 121.637923 
L 114.356159 118.050599 
L 114.277171 116.457661 
L 114.441842 116.014413 
L 114.393461 104.336455 
L 114.309755 103.613279 
L 114.288054 98.653577 
L 114.256852 96.772304 
L 114.517742 96.073159 
L 114.433842 94.930004 
L 114.230904 94.437187 
L 114.098912 89.543069 
L 113.44482 86.848631 
L 112.74539 85.49419 
L 111.889458 84.460597 
L 111.51373 83.937154 
L 109.731156 82.435996 
L 108.725417 81.930539 
L 106.762406 80.974294 
L 105.806877 80.464561 
L 105.265399 80.192224 
L 104.467968 80.14059 
L 103.075688 80.078949 
L 98.296781 80.161199 
L 97.37304 80.338728 
L 95.553107 80.221041 
L 94.496286 80.540141 
L 93.589445 80.461197 
L 92.943451 80.682583 
L 91.410594 81.160968 
L 90.169235 81.492159 
L 89.475778 81.816511 
L 88.788282 82.062256 
L 88.543287 82.192741 
L 86.806492 82.483607 
L 86.158927 82.433464 
L 84.467894 82.678289 
L 83.061543 82.779992 
L 80.070958 83.253782 
L 77.279037 83.603399 
L 76.438621 83.484672 
L 74.513385 83.600271 
L 72.004766 83.477824 
L 70.779353 83.428206 
L 64.949383 83.632368 
L 56.737432 83.824119 
L 56.385376 83.823422 
L 55.089497 84.041404 
L 53.676329 83.809115 
L 51.576798 83.589584 
L 48.950738 83.101637 
L 47.185542 82.473572 
L 46.131344 81.887687 
L 44.950235 81.088199 
L 43.794212 80.105207 
L 42.540851 78.48411 
L 40.978823 75.554624 
L 40.821021 74.923409 
L 40.546843 74.185948 
L 40.184043 72.482446 
L 40.184918 70.667076 
L 40.17538 69.500557 
L 40.137509 68.181107 
L 39.86409 68.237168 
L 40.575238 66.966989 
L 40.413767 66.580044 
L 40.792092 64.400886 
L 40.82545 63.426353 
L 40.253075 63.562346 
L 40.196817 63.158534 
L 40.964749 61.657487 
L 41.233984 58.250766 
L 41.355023 57.804126 
L 40.986498 58.284162 
L 41.281183 57.636112 
L 41.431259 57.392618 
L 42.594944 52.93049 
L 43.366336 49.420625 
L 43.344088 49.17904 
L 43.738473 46.93936 
L 43.628751 46.583107 
L 43.907704 44.631261 
L 43.854696 43.752861 
L 43.99434 41.904863 
L 44.005532 41.311403 
L 44.12624 39.463434 
L 44.254438 35.525443 
L 44.573669 32.386766 
L 44.852978 28.628485 
L 44.881415 27.330865 
L 44.738074 27.024486 
L 44.97216 21.259549 
L 45.102837 20.403846 
L 45.197444 17.638937 
L 45.184843 17.393276 
L 44.978147 17.453529 
L 44.971181 16.545403 
L 44.971181 16.545403 
" clip-path="url(#p41ed08e060)" style="fill: none; stroke: #0000ff; stroke-width: 0.5; stroke-linecap: square"/>
   </g>
   <g id="line2d_17">
    <path d="M 114.539183 153.396627 
L 114.539167 153.398159 
L 114.767985 135.760787 
L 114.912031 135.35127 
L 114.985334 131.719933 
L 115.085546 131.005788 
L 114.88218 123.712271 
L 115.073554 122.883846 
L 115.056297 122.076909 
L 114.920621 121.773494 
L 114.923456 120.48726 
L 114.979897 119.76855 
L 114.95631 116.480645 
L 115.181568 116.040556 
L 115.171816 115.225787 
L 114.993887 115.070965 
L 115.050983 114.178837 
L 115.14927 113.362652 
L 115.131807 112.5511 
L 114.94879 112.124863 
L 114.78874 110.415152 
L 114.596774 106.14423 
L 114.632357 105.379024 
L 114.188251 102.841446 
L 113.963862 101.763168 
L 113.860221 96.100688 
L 114.1229 93.065778 
L 113.981565 92.043048 
L 114.040164 90.631838 
L 113.91375 89.605446 
L 113.36486 87.712797 
L 113.414266 87.573835 
L 112.959288 86.238814 
L 112.163353 84.327654 
L 111.332587 83.223255 
L 111.253306 82.806874 
L 110.266065 81.7029 
L 109.677973 81.143601 
L 108.849169 80.558611 
L 107.908016 79.656143 
L 106.653739 79.096788 
L 106.216289 78.947469 
L 105.980817 79.058823 
L 104.461481 78.412727 
L 104.104104 78.064908 
L 103.417445 78.006 
L 102.611691 78.100709 
L 101.461683 77.937327 
L 100.435181 78.396138 
L 100.074916 78.58428 
L 99.063545 78.647474 
L 98.903222 78.61179 
L 98.469256 78.703186 
L 98.375324 79.192692 
L 98.039483 79.275487 
L 96.686873 79.244719 
L 97.001775 79.850734 
L 96.672125 79.955548 
L 95.959491 79.937587 
L 95.077765 79.68815 
L 94.91487 79.957873 
L 95.543469 80.930582 
L 94.893898 81.102789 
L 93.966161 81.403442 
L 93.285575 81.550708 
L 92.902112 81.497619 
L 92.329788 81.65356 
L 91.503145 81.809331 
L 90.167301 82.179237 
L 89.824539 82.116314 
L 86.996573 82.725709 
L 86.52405 82.91317 
L 84.337168 83.293243 
L 84.121647 83.264407 
L 82.972096 83.42343 
L 82.55176 83.244016 
L 80.757883 83.475408 
L 80.627661 83.031138 
L 80.312821 82.742801 
L 79.366134 82.9103 
L 79.183619 83.070509 
L 76.660099 83.287664 
L 76.008794 83.28418 
L 72.080089 83.667618 
L 71.078977 84.545408 
L 70.733489 84.562917 
L 70.427003 84.247491 
L 70.393793 83.598607 
L 69.699396 83.624941 
L 69.221823 83.883316 
L 68.836644 84.561572 
L 68.486118 84.713986 
L 66.89279 84.614982 
L 66.663371 84.520666 
L 65.444866 84.436879 
L 61.940386 84.279716 
L 57.498368 83.909986 
L 57.266104 83.817351 
L 54.011883 83.619402 
L 53.338643 83.548925 
L 53.093824 83.390644 
L 49.810937 83.016539 
L 49.596583 82.807289 
L 48.677245 82.614811 
L 48.316531 82.606486 
L 46.417108 81.843313 
L 44.679333 80.930416 
L 43.980903 80.449986 
L 43.346243 80.035815 
L 41.790716 78.404668 
L 40.660265 76.33577 
L 40.035265 75.219968 
L 39.623369 75.081168 
L 39.546644 74.907888 
L 39.579036 75.285344 
L 39.347607 73.692632 
L 39.279749 73.231786 
L 39.379797 72.684225 
L 39.658266 71.912638 
L 39.632309 71.402849 
L 39.391482 71.061453 
L 39.39493 70.830882 
L 39.215767 70.374164 
L 39.189307 68.906982 
L 39.348499 68.684751 
L 39.70912 67.664884 
L 39.876156 67.376859 
L 39.930203 67.037152 
L 39.786778 66.429904 
L 39.817333 65.996149 
L 39.813607 64.84174 
L 40.189539 65.637221 
L 40.82265 64.510536 
L 40.42815 62.636373 
L 40.971287 61.043199 
L 41.316886 60.727319 
L 41.506372 60.315186 
L 41.317485 59.241149 
L 41.547676 58.704291 
L 41.820273 58.13106 
L 42.327143 57.168717 
L 42.638018 57.11334 
L 42.9667 56.298773 
L 43.488619 55.044587 
L 43.624069 53.025464 
L 44.450797 47.851569 
L 44.545747 46.160002 
L 44.392695 46.017848 
L 44.472447 44.906376 
L 44.389598 44.719152 
L 44.558878 42.665449 
L 44.643542 41.974916 
L 44.823395 41.167214 
L 44.812275 40.557907 
L 44.657931 40.008855 
L 44.658006 38.581858 
L 44.493396 38.335231 
L 44.529854 37.527394 
L 44.400619 37.212873 
L 44.441499 36.05352 
L 44.347001 35.285479 
L 44.548893 31.682468 
L 44.702409 30.110971 
L 44.560275 29.711036 
L 44.337824 29.453831 
L 44.360148 28.281035 
L 44.735337 23.583387 
L 44.755601 21.959029 
L 44.896846 20.443061 
L 44.880472 19.057472 
L 44.816278 18.76903 
L 44.744548 17.031367 
L 44.671829 17.075907 
L 44.670098 16.947333 
L 44.781077 16.45721 
L 44.798502 16.316072 
L 44.798502 16.316072 
" clip-path="url(#p41ed08e060)" style="fill: none; stroke: #0000ff; stroke-width: 0.5; stroke-linecap: square"/>
   </g>
   <g id="line2d_18">
    <path d="M 114.539183 153.396627 
L 114.607982 142.246137 
L 114.73494 142.049396 
L 114.666202 138.546736 
L 114.554703 138.137632 
L 114.546445 137.086306 
L 114.668998 136.761088 
L 114.661561 135.593672 
L 114.467831 135.234463 
L 114.404926 133.914248 
L 114.297557 133.129875 
L 114.296786 128.301644 
L 114.448262 126.801191 
L 114.378229 124.963528 
L 114.311045 124.177156 
L 114.24582 122.066498 
L 114.191505 120.963783 
L 114.342034 119.24132 
L 114.248639 115.290204 
L 114.336445 115.108183 
L 114.44257 111.609098 
L 114.565157 109.405979 
L 114.708356 105.400949 
L 114.783644 104.462033 
L 114.711508 102.650336 
L 114.654951 102.469729 
L 114.617789 95.04065 
L 114.432402 94.677173 
L 114.24451 93.394511 
L 114.042197 92.566878 
L 113.586742 89.912209 
L 111.477019 85.409726 
L 110.844113 84.399886 
L 108.983036 82.307493 
L 106.742433 80.561476 
L 105.4596 80.27779 
L 104.78398 80.290008 
L 102.725065 79.675652 
L 102.067413 79.64916 
L 101.793296 79.741089 
L 100.713163 79.777147 
L 100.144707 79.558813 
L 99.85009 79.611608 
L 99.710058 79.799523 
L 99.170426 79.776509 
L 95.660453 79.850005 
L 95.211408 79.642364 
L 94.506442 79.662616 
L 94.165516 79.857204 
L 89.078049 80.616746 
L 88.192105 80.42154 
L 87.03443 80.637472 
L 86.799957 80.934702 
L 84.194865 81.371965 
L 84.044571 81.326561 
L 79.949804 81.990512 
L 78.418067 82.076005 
L 77.278984 82.233672 
L 77.114731 82.360173 
L 75.943511 82.623945 
L 75.731797 82.778555 
L 69.606756 83.560367 
L 68.685325 83.557113 
L 67.803989 83.586005 
L 67.186283 83.564483 
L 66.385724 83.620403 
L 66.105303 83.869515 
L 60.939061 84.123887 
L 56.122505 83.98984 
L 55.858411 83.833903 
L 53.462786 83.595882 
L 50.208065 82.454444 
L 49.603717 82.110511 
L 48.355993 81.416056 
L 46.799052 80.425781 
L 46.619145 80.136471 
L 44.349753 77.573988 
L 44.116011 77.270784 
L 43.559423 76.837902 
L 43.392179 76.529852 
L 42.721778 75.858272 
L 42.344752 74.811464 
L 42.255852 74.348522 
L 41.350574 71.660417 
L 41.1291 71.244943 
L 40.648928 67.38705 
L 40.62439 66.28423 
L 40.557475 65.473111 
L 40.535679 65.197351 
L 40.925091 63.425388 
L 40.891439 62.588891 
L 41.220098 59.826695 
L 41.840646 56.338295 
L 41.738407 56.153826 
L 41.905855 55.133167 
L 41.811178 54.524645 
L 42.003591 53.498658 
L 42.189751 53.53711 
L 42.759726 50.135066 
L 42.912413 49.087742 
L 43.255857 47.573755 
L 43.275182 47.068172 
L 43.401832 45.702951 
L 43.305948 45.140571 
L 43.522809 43.516388 
L 43.499707 42.7619 
L 43.575707 42.100632 
L 43.516342 41.767032 
L 44.225348 35.363407 
L 44.141347 32.514541 
L 44.253556 29.854684 
L 44.124389 29.710002 
L 44.177886 27.25584 
L 43.967792 27.025296 
L 44.163144 23.179325 
L 44.353081 22.683177 
L 44.576634 19.550052 
L 44.474616 19.168247 
L 44.532049 18.090575 
L 44.413467 17.954463 
L 44.600015 16.664179 
L 44.600015 16.664179 
" clip-path="url(#p41ed08e060)" style="fill: none; stroke: #008000; stroke-width: 0.5; stroke-linecap: square"/>
   </g>
   <g id="line2d_19">
    <path d="M 114.539183 153.396627 
L 114.55339 142.115027 
L 114.811428 141.211164 
L 114.838219 134.520932 
L 115.042233 132.15176 
L 114.743931 131.396155 
L 114.77548 128.648058 
L 114.9368 128.177264 
L 114.877228 125.58825 
L 115.029712 124.791579 
L 115.034908 122.470415 
L 115.086558 122.483319 
L 115.129659 122.425981 
L 115.21414 121.373631 
L 115.517992 118.857626 
L 115.19753 116.987023 
L 115.19022 116.756541 
L 114.823695 116.224831 
L 114.877385 115.113842 
L 114.991072 114.801879 
L 114.810894 111.988051 
L 114.677503 111.585473 
L 114.727532 110.550565 
L 114.81197 110.20581 
L 114.544206 99.602331 
L 114.273279 98.59901 
L 114.231712 97.905562 
L 114.101764 97.223156 
L 114.081269 96.74555 
L 113.854014 95.793702 
L 113.618903 93.625658 
L 113.382529 92.376571 
L 112.910178 90.437079 
L 111.778435 86.74349 
L 111.016869 85.607152 
L 110.619074 84.930711 
L 110.257199 84.364734 
L 109.767024 83.897457 
L 109.455676 83.928828 
L 108.843005 83.389555 
L 108.374225 83.256655 
L 106.786472 82.236209 
L 104.13322 81.483821 
L 103.316588 81.337618 
L 102.193175 80.960941 
L 102.228274 81.261998 
L 102.551471 81.718633 
L 100.384115 80.508176 
L 100.018974 80.561644 
L 100.600829 81.220548 
L 100.24827 81.193429 
L 99.601703 81.616216 
L 99.254481 81.603724 
L 99.158369 81.814362 
L 98.899153 82.109909 
L 96.878897 81.999626 
L 95.637732 82.022992 
L 92.395713 82.226923 
L 91.779947 82.659429 
L 91.551612 82.677778 
L 90.310153 82.354239 
L 89.510549 82.414262 
L 89.292197 82.709403 
L 88.370813 82.778507 
L 88.19832 82.963277 
L 87.433993 83.069508 
L 87.095293 83.096277 
L 87.120411 82.987665 
L 87.107991 82.859653 
L 86.18257 82.936266 
L 85.830826 82.731666 
L 85.146037 82.789288 
L 84.149293 82.297369 
L 82.088916 82.351416 
L 81.443739 82.304906 
L 79.78792 82.31759 
L 79.521573 82.194316 
L 78.495016 82.26224 
L 76.754947 83.274736 
L 74.22629 83.363545 
L 73.01132 83.266715 
L 72.320129 83.265739 
L 71.646785 83.19843 
L 71.174712 83.199996 
L 70.767133 83.009819 
L 69.963031 83.160544 
L 69.371165 83.279604 
L 66.755439 83.651053 
L 64.839256 83.516799 
L 64.593192 83.334588 
L 63.384144 83.491867 
L 61.650523 83.595855 
L 60.983904 83.311597 
L 60.249839 83.388401 
L 60.055697 83.506963 
L 55.303657 83.558176 
L 53.134351 83.351891 
L 52.056849 82.99324 
L 50.857663 82.644669 
L 49.235375 82.054082 
L 48.643485 81.659966 
L 46.882643 80.588752 
L 45.482208 79.419459 
L 43.795907 76.847262 
L 43.230716 75.83198 
L 42.371674 75.093997 
L 41.93337 74.137587 
L 41.496986 73.387286 
L 41.337148 73.225018 
L 40.935154 72.422443 
L 40.27379 68.913335 
L 40.576715 66.464537 
L 40.7559 65.055449 
L 41.056276 62.741694 
L 41.090175 62.115516 
L 41.019419 61.914356 
L 41.866496 56.45222 
L 42.166477 55.239216 
L 42.074535 54.555114 
L 42.3859 53.495117 
L 42.680125 53.174376 
L 42.849844 52.390507 
L 42.941089 50.701876 
L 43.322167 48.705373 
L 43.289024 48.383912 
L 43.551088 47.104565 
L 43.787225 46.269668 
L 43.999687 44.369415 
L 43.517665 44.149697 
L 42.477615 44.281294 
L 42.534338 43.383629 
L 42.858843 41.924032 
L 43.208353 39.664704 
L 43.472471 39.132789 
L 43.860699 36.698275 
L 43.712571 35.514192 
L 43.836522 33.456624 
L 43.675333 33.025079 
L 43.859785 31.905561 
L 44.024915 31.131059 
L 44.007671 30.438555 
L 43.885651 29.991363 
L 44.153529 22.750979 
L 44.155223 22.133626 
L 44.46664 19.639783 
L 44.315961 18.75381 
L 44.51584 17.669841 
L 44.529515 17.039921 
L 44.667333 17.121129 
L 44.674103 17.052279 
L 44.709179 16.698883 
L 44.579664 16.422858 
L 44.579664 16.422858 
" clip-path="url(#p41ed08e060)" style="fill: none; stroke: #008000; stroke-width: 0.5; stroke-linecap: square"/>
   </g>
   <g id="line2d_20">
    <path d="M 114.539183 153.396627 
L 114.563897 142.787175 
L 114.743262 141.352712 
L 114.66786 138.364346 
L 114.53257 137.557038 
L 114.440575 135.919683 
L 114.297158 133.953131 
L 113.899323 133.972476 
L 113.883685 128.85612 
L 113.982884 126.337241 
L 114.050909 125.655259 
L 114.120537 119.826157 
L 115.346892 119.946279 
L 115.663117 109.868579 
L 114.973829 103.543936 
L 115.008011 102.647954 
L 114.504036 95.936104 
L 114.367261 95.598496 
L 113.979954 92.798865 
L 113.27843 89.916845 
L 112.825354 88.850144 
L 111.947163 87.40518 
L 111.324787 86.687651 
L 110.387611 85.515296 
L 109.651896 84.963432 
L 107.540495 83.401342 
L 106.553834 82.903772 
L 105.919753 82.460075 
L 104.677825 81.840193 
L 103.922439 81.69536 
L 102.334111 81.425646 
L 101.438323 81.423271 
L 99.734209 80.804711 
L 99.05872 80.753789 
L 97.973979 80.754664 
L 96.258486 80.56795 
L 95.482686 80.629398 
L 95.202666 80.741327 
L 94.395564 80.763773 
L 94.168802 80.6808 
L 92.234133 80.734986 
L 90.531219 81.022693 
L 86.745627 81.531504 
L 86.215427 81.780786 
L 84.40491 82.009246 
L 83.097789 82.078136 
L 75.268711 83.046462 
L 74.859933 82.960348 
L 73.733552 83.00946 
L 72.716544 82.971779 
L 71.994045 83.056936 
L 70.728236 83.251605 
L 69.366719 83.247735 
L 68.90486 83.276378 
L 68.647634 83.408468 
L 67.596905 83.466751 
L 66.777594 83.406334 
L 66.315552 83.431941 
L 65.778182 83.325079 
L 64.528589 83.42451 
L 63.887279 83.53456 
L 58.723655 83.743226 
L 57.977085 83.67437 
L 55.560886 83.562592 
L 53.517742 83.25477 
L 51.506923 82.834829 
L 49.677844 82.275571 
L 47.901492 81.223445 
L 46.557759 80.192144 
L 45.155536 78.823946 
L 44.418969 77.817472 
L 43.847304 77.047743 
L 43.421901 76.780749 
L 42.150883 74.487482 
L 41.997456 73.768795 
L 41.721554 72.336858 
L 41.573782 71.19836 
L 41.071987 67.673707 
L 41.181808 66.937701 
L 41.587902 64.512794 
L 41.349501 63.124177 
L 41.573479 61.415298 
L 42.047233 57.60779 
L 41.929825 57.16549 
L 43.231059 48.565464 
L 43.21931 47.914316 
L 43.334008 47.113244 
L 43.178579 46.672624 
L 43.611078 43.957775 
L 43.760219 43.326002 
L 43.782362 42.434698 
L 44.109688 39.2626 
L 44.160997 38.570795 
L 44.10909 37.757714 
L 44.181718 36.947583 
L 44.008481 36.388084 
L 44.060271 35.204742 
L 43.844432 34.825208 
L 43.897518 33.675211 
L 43.821839 33.320218 
L 43.901433 30.795014 
L 43.810591 30.35144 
L 43.893773 29.192164 
L 43.691501 28.954032 
L 43.740136 28.137601 
L 43.590845 26.726858 
L 43.758835 22.818391 
L 43.545068 22.1874 
L 43.94115 18.554785 
L 44.007847 18.105051 
L 43.997903 17.724466 
L 44.283912 16.515138 
L 44.283912 16.515138 
" clip-path="url(#p41ed08e060)" style="fill: none; stroke: #008000; stroke-width: 0.5; stroke-linecap: square"/>
   </g>
   <g id="line2d_21">
    <path d="M 114.539183 153.396627 
L 114.503649 134.022467 
L 114.347768 133.634478 
L 114.350231 131.972272 
L 114.236091 130.810773 
L 114.043992 130.461592 
L 114.071221 129.675109 
L 114.200607 129.446009 
L 114.343493 121.533002 
L 114.59435 121.100715 
L 114.659853 115.26685 
L 114.539386 113.30435 
L 114.422763 107.922303 
L 114.322507 107.734325 
L 114.262832 103.662109 
L 113.808033 103.137498 
L 113.787981 100.288887 
L 113.890251 99.511072 
L 113.897969 98.697823 
L 114.053703 97.482129 
L 114.166368 96.757914 
L 114.29195 96.01668 
L 114.298171 95.664401 
L 114.129085 95.003983 
L 114.062924 93.783954 
L 113.963464 93.138463 
L 113.923294 91.189154 
L 113.994348 90.847152 
L 113.578037 88.969268 
L 112.802181 86.798934 
L 111.712484 84.881733 
L 110.596679 83.63424 
L 109.151762 82.282817 
L 108.881068 81.642288 
L 108.657853 80.599944 
L 108.360808 80.371272 
L 106.846289 80.083928 
L 106.093959 79.81782 
L 105.041853 79.811818 
L 103.663634 79.551361 
L 98.456562 79.540428 
L 97.590837 79.561317 
L 97.171912 79.307962 
L 95.155306 79.167004 
L 92.781446 79.751397 
L 91.230897 80.208868 
L 90.132323 80.438639 
L 89.106953 80.694182 
L 88.769695 80.751045 
L 88.483694 80.66917 
L 86.35156 81.077202 
L 85.377464 81.086925 
L 84.272159 81.44805 
L 82.500844 81.825597 
L 80.165589 81.8839 
L 79.365113 82.027683 
L 79.110224 81.932194 
L 77.994657 82.093187 
L 77.850897 81.738937 
L 77.049561 81.860436 
L 76.758218 81.790738 
L 76.415574 81.838279 
L 76.034137 81.760398 
L 75.824189 81.563479 
L 74.674449 81.632056 
L 73.864748 81.649321 
L 71.868034 81.907788 
L 70.812529 82.182021 
L 70.466582 82.227951 
L 70.467597 82.437948 
L 71.102451 82.7337 
L 67.906487 83.255589 
L 66.839355 83.100249 
L 64.892088 83.381471 
L 62.631753 83.796206 
L 60.817155 83.824934 
L 59.082115 84.280203 
L 57.888386 84.303837 
L 57.142909 84.247327 
L 55.692118 84.370898 
L 54.429108 84.210219 
L 51.576213 83.951539 
L 50.30822 83.512033 
L 47.882132 82.133948 
L 47.808115 81.94461 
L 46.212688 80.709759 
L 43.971169 78.491155 
L 43.655803 77.234358 
L 43.143767 76.147867 
L 42.751776 74.77537 
L 42.337473 73.989733 
L 41.721734 72.695571 
L 41.09053 70.010968 
L 41.066199 69.665924 
L 40.867516 69.249601 
L 40.740477 68.00807 
L 40.783789 62.357299 
L 40.677329 61.948208 
L 41.289296 58.014948 
L 41.60929 56.057256 
L 41.633865 55.063963 
L 41.719367 54.276661 
L 41.746785 53.600758 
L 42.156458 51.310538 
L 42.384177 49.420773 
L 43.089723 45.568951 
L 43.174819 44.197313 
L 43.923688 39.162388 
L 44.500874 34.31802 
L 44.39135 33.95558 
L 44.786667 28.421674 
L 44.63398 28.027638 
L 44.610308 26.222233 
L 44.634371 23.893042 
L 44.565613 23.311638 
L 44.557065 21.884591 
L 44.430556 21.826647 
L 44.450878 21.255083 
L 44.252766 20.515618 
L 44.388043 16.395068 
L 44.388043 16.395068 
" clip-path="url(#p41ed08e060)" style="fill: none; stroke: #008000; stroke-width: 0.5; stroke-linecap: square"/>
   </g>
   <g id="line2d_22">
    <path d="M 114.539183 153.396627 
L 114.612713 139.353686 
L 114.743241 137.480289 
L 114.794934 133.504609 
L 114.818799 131.210435 
L 115.014323 131.172552 
L 115.05248 130.313945 
L 114.823303 128.026805 
L 114.677722 124.222382 
L 114.486556 123.465288 
L 114.359865 122.608566 
L 114.27678 121.773673 
L 114.257602 118.761594 
L 114.309575 118.034744 
L 114.21277 116.46519 
L 114.463171 116.367572 
L 114.524035 116.108838 
L 114.498255 115.641158 
L 114.180245 114.904843 
L 114.182099 114.441631 
L 114.437969 113.672933 
L 114.542662 112.836116 
L 114.634993 112.2233 
L 114.383232 111.277378 
L 114.427563 108.334402 
L 114.245741 106.229353 
L 114.169035 103.872463 
L 114.133402 102.681933 
L 113.777796 93.516129 
L 113.462475 91.923549 
L 113.310471 91.134916 
L 112.704215 88.681383 
L 112.059302 86.870776 
L 112.204227 86.453299 
L 111.503454 85.139304 
L 110.242775 83.301386 
L 108.973023 81.963444 
L 108.815397 82.07978 
L 106.895186 80.702556 
L 104.081151 79.640539 
L 103.715925 79.919623 
L 101.833811 79.80191 
L 101.192077 79.736701 
L 100.842783 79.518884 
L 100.374849 79.408427 
L 99.780717 79.607237 
L 98.736272 79.541026 
L 96.439609 79.934454 
L 96.261083 80.233197 
L 95.795005 80.28731 
L 94.49891 80.052407 
L 93.019059 80.260782 
L 92.353187 80.502632 
L 89.538444 81.034293 
L 88.465627 81.242775 
L 86.244502 81.66511 
L 85.183748 81.960471 
L 83.610942 82.25237 
L 82.739032 82.20669 
L 79.781224 82.63278 
L 79.533847 82.517018 
L 78.79509 82.525199 
L 77.406243 82.599557 
L 77.028607 82.613795 
L 75.446394 82.475444 
L 74.55761 82.498482 
L 73.557783 82.754558 
L 72.354962 82.745326 
L 71.7169 82.440846 
L 70.081703 82.500479 
L 69.344544 82.070031 
L 67.649481 82.124366 
L 67.189571 82.359911 
L 66.038982 82.467901 
L 65.691647 82.776263 
L 65.009322 82.843862 
L 64.667833 82.73206 
L 63.86014 82.795367 
L 63.617815 82.66324 
L 62.737135 82.686519 
L 62.565722 82.97473 
L 60.640284 83.24319 
L 60.31935 86.701478 
L 57.147664 86.906566 
L 55.785395 83.512415 
L 55.324288 83.522521 
L 55.301345 84.091784 
L 55.463418 84.957655 
L 54.212937 84.826266 
L 53.123552 84.612407 
L 52.220425 84.368941 
L 50.409675 83.79269 
L 49.453484 83.776175 
L 48.389112 83.287967 
L 48.041479 82.916098 
L 47.435471 82.418834 
L 47.043565 82.02668 
L 46.501392 81.570382 
L 45.984561 81.430792 
L 45.422134 80.961368 
L 44.415236 79.752519 
L 44.208159 79.46401 
L 44.045112 78.730872 
L 41.823969 75.135822 
L 41.584981 74.815491 
L 40.609438 69.970792 
L 40.452406 68.740406 
L 40.699876 68.552766 
L 41.129411 64.802232 
L 41.066304 63.99284 
L 41.154132 62.488267 
L 41.119061 61.629674 
L 41.294985 60.916845 
L 41.694607 59.292698 
L 41.735519 58.931219 
L 41.552336 58.014406 
L 41.929526 55.840584 
L 41.97875 54.860218 
L 42.221967 54.07412 
L 42.374584 53.487622 
L 43.231573 48.679317 
L 43.419469 47.146997 
L 43.247011 46.588924 
L 43.780551 42.461397 
L 43.759798 41.784407 
L 44.155878 38.007558 
L 44.043588 37.74836 
L 44.290401 33.902566 
L 44.39469 31.774309 
L 44.332038 31.230941 
L 44.310622 30.012824 
L 44.231918 29.716876 
L 44.27124 28.913788 
L 44.151523 27.400557 
L 44.134898 25.315806 
L 43.994292 23.402134 
L 43.981902 21.945619 
L 43.906254 21.39623 
L 44.15223 19.072143 
L 44.421976 17.513441 
L 44.678274 16.558592 
L 44.678274 16.558592 
" clip-path="url(#p41ed08e060)" style="fill: none; stroke: #008000; stroke-width: 0.5; stroke-linecap: square"/>
   </g>
   <g id="line2d_23">
    <path d="M 114.539183 153.396627 
L 114.469552 145.387765 
L 114.395668 144.651781 
L 114.318852 139.343499 
L 114.238853 138.627193 
L 114.337689 135.399361 
L 114.497576 134.891179 
L 114.59006 130.187113 
L 114.771252 129.825363 
L 114.874607 128.467289 
L 114.95446 127.338072 
L 115.000184 124.277891 
L 114.89048 123.722253 
L 114.811222 123.5553 
L 114.808458 118.256046 
L 114.949571 118.073845 
L 115.002204 117.330566 
L 114.689024 103.112681 
L 114.685593 100.217842 
L 114.66885 98.812894 
L 114.533595 98.471451 
L 114.553162 97.386916 
L 114.660907 97.057139 
L 114.55283 94.72748 
L 114.447552 94.728684 
L 114.290325 93.597414 
L 114.117597 93.472291 
L 113.214796 90.290836 
L 113.166249 90.330495 
L 113.10718 90.311383 
L 112.86553 89.81353 
L 112.473063 89.532345 
L 112.208774 89.093589 
L 111.797196 89.088818 
L 111.417078 88.557451 
L 111.049213 88.246405 
L 110.695235 87.937522 
L 110.499073 87.771875 
L 110.155174 87.724796 
L 110.020835 87.56831 
L 109.915624 86.92706 
L 109.031853 86.273847 
L 108.619064 86.141193 
L 106.972308 85.101554 
L 106.53959 84.501824 
L 104.62306 83.726559 
L 102.268541 83.108675 
L 101.351349 82.828541 
L 100.096185 82.579012 
L 92.99973 81.725751 
L 89.676404 81.880945 
L 88.992284 81.833126 
L 86.492967 81.996039 
L 85.516901 81.801251 
L 84.076242 81.854587 
L 82.960824 81.859124 
L 82.341915 81.811017 
L 81.506039 81.810714 
L 80.833308 81.921518 
L 80.09335 82.135105 
L 79.741712 82.172339 
L 79.340488 82.436865 
L 78.070295 82.668248 
L 77.897879 82.75789 
L 74.490425 83.026513 
L 72.207812 83.199344 
L 71.23376 83.086128 
L 70.191083 83.128838 
L 69.792009 82.969385 
L 68.735416 82.944997 
L 66.472656 83.020896 
L 63.404298 83.221857 
L 62.326179 83.092792 
L 61.862274 83.112047 
L 60.824296 82.996547 
L 60.010029 83.026282 
L 59.585109 83.166435 
L 56.212927 83.253722 
L 54.474746 83.126682 
L 51.138317 82.737811 
L 48.887377 81.816065 
L 48.939891 81.773145 
L 48.335965 81.277313 
L 47.334625 80.427611 
L 47.120428 80.074475 
L 47.081156 79.877412 
L 46.110414 78.669456 
L 45.515074 77.458798 
L 45.173542 76.813443 
L 44.982362 76.123028 
L 44.941291 75.481251 
L 44.86957 74.766053 
L 44.663084 74.786387 
L 44.322414 72.633082 
L 43.908379 69.434232 
L 43.684959 68.844321 
L 43.602306 67.400148 
L 43.375324 66.485164 
L 43.361547 61.460626 
L 43.421106 59.342058 
L 43.259706 58.703842 
L 43.335664 57.431625 
L 43.121536 56.813959 
L 43.251698 53.316519 
L 43.336937 50.661878 
L 43.467251 48.106809 
L 43.35024 47.2602 
L 43.993895 38.996393 
L 44.193316 35.576468 
L 44.295096 34.508337 
L 44.045215 33.682021 
L 44.179927 30.845904 
L 44.107483 30.768041 
L 44.27307 25.977166 
L 44.281583 24.01842 
L 44.307738 22.14814 
L 44.257842 20.690418 
L 44.530633 16.491817 
L 44.530633 16.491817 
" clip-path="url(#p41ed08e060)" style="fill: none; stroke: #ffa500; stroke-width: 0.5; stroke-linecap: square"/>
   </g>
   <g id="line2d_24">
    <path d="M 114.539183 153.396627 
L 114.557635 142.331814 
L 114.805757 141.340283 
L 114.854749 139.939873 
L 114.957689 139.12058 
L 115.046699 136.612722 
L 115.276042 133.893727 
L 115.200031 132.580972 
L 115.186272 132.635279 
L 115.100011 129.26817 
L 114.860409 129.083826 
L 114.759278 126.382891 
L 114.528159 126.039134 
L 114.478597 125.010079 
L 114.562528 124.510586 
L 114.33616 120.241732 
L 114.758397 120.217985 
L 114.807051 118.976813 
L 114.862938 118.076868 
L 115.070798 115.9492 
L 115.015101 116.007702 
L 115.00166 113.590683 
L 114.793012 113.12807 
L 114.757876 112.199283 
L 114.865573 111.623031 
L 114.785297 108.46216 
L 114.674662 108.267998 
L 114.672134 107.44695 
L 114.841176 106.618852 
L 114.79151 105.748177 
L 114.6671 105.714026 
L 114.561406 102.745661 
L 114.271142 101.520496 
L 114.253817 100.582101 
L 114.371686 100.203737 
L 114.398095 98.136201 
L 114.514078 97.092618 
L 114.519918 95.535004 
L 114.735734 95.067397 
L 114.501856 92.915253 
L 114.379096 92.189895 
L 114.000889 91.871713 
L 113.849122 91.351342 
L 113.631553 91.269526 
L 113.451405 90.749491 
L 113.53437 90.633728 
L 113.165117 88.94103 
L 112.06914 87.032587 
L 112.009861 87.09742 
L 111.169589 86.06441 
L 111.081957 85.790959 
L 110.906986 85.640739 
L 110.576901 85.794739 
L 108.758335 84.393719 
L 108.122251 84.180338 
L 107.792654 84.109753 
L 107.612964 84.041583 
L 107.141428 83.645104 
L 106.271354 83.343319 
L 106.007103 83.143535 
L 105.337027 83.038274 
L 104.59743 82.985395 
L 103.205651 82.676973 
L 102.663864 82.864149 
L 100.786053 82.637223 
L 100.020586 82.525601 
L 99.203172 82.497733 
L 98.863317 82.688966 
L 98.085064 82.725938 
L 97.847436 82.893304 
L 91.976829 83.004061 
L 91.40734 83.093018 
L 89.339317 83.252604 
L 87.128613 83.515277 
L 84.453623 83.503265 
L 83.376748 83.47338 
L 82.93722 83.33253 
L 81.766036 83.321139 
L 81.279796 83.532797 
L 80.129794 83.60054 
L 79.463868 83.703093 
L 74.482459 83.741371 
L 72.572588 83.822486 
L 71.916641 83.887921 
L 71.131451 83.942243 
L 70.867912 84.08347 
L 66.5835 84.094561 
L 65.431758 84.012764 
L 62.335746 84.074788 
L 62.142755 84.046747 
L 62.021874 83.880767 
L 59.889345 83.774427 
L 57.289652 83.525647 
L 56.720835 83.52206 
L 56.534483 83.604603 
L 54.342301 83.360531 
L 52.991164 83.138068 
L 51.611772 82.535806 
L 49.048518 81.517775 
L 47.581931 80.495797 
L 47.163692 80.216945 
L 46.703973 79.965401 
L 46.746076 79.661388 
L 47.387748 79.02173 
L 47.166331 78.750828 
L 46.727446 78.46601 
L 46.655802 78.360427 
L 45.480781 78.597774 
L 45.013716 77.779743 
L 45.461385 76.825057 
L 44.720664 75.589329 
L 44.393974 75.438827 
L 43.994069 75.419833 
L 43.931122 75.169341 
L 44.222403 74.273936 
L 44.184151 73.982887 
L 44.008976 73.791825 
L 43.614633 73.648385 
L 43.261713 72.36775 
L 43.275392 71.335433 
L 43.168345 69.117798 
L 43.326307 68.632993 
L 43.356689 66.505406 
L 43.271761 64.918718 
L 43.368336 60.808415 
L 43.621444 60.304212 
L 43.629545 59.128662 
L 43.607018 58.527974 
L 43.99726 52.61397 
L 43.97225 51.845316 
L 44.278634 46.632534 
L 44.232762 44.821958 
L 44.086416 44.327121 
L 44.150634 41.340844 
L 43.997415 40.924108 
L 43.989504 39.507105 
L 44.177754 38.106729 
L 44.186812 35.846586 
L 44.230981 32.953061 
L 44.177502 32.330638 
L 44.23031 29.710836 
L 44.209295 28.958292 
L 44.243619 28.267312 
L 44.149723 27.861394 
L 44.139087 25.837555 
L 44.152904 25.513457 
L 43.916398 24.166714 
L 43.963926 22.674732 
L 43.751589 21.988758 
L 43.941346 19.825911 
L 44.064923 19.820635 
L 44.565289 20.210513 
L 44.715434 18.158632 
L 44.723675 17.523383 
L 44.8034 16.544684 
L 44.8034 16.544684 
" clip-path="url(#p41ed08e060)" style="fill: none; stroke: #ffa500; stroke-width: 0.5; stroke-linecap: square"/>
   </g>
   <g id="line2d_25">
    <path d="M 114.539183 153.396627 
L 114.559732 138.344749 
L 114.397969 138.092999 
L 114.197056 135.584743 
L 114.253107 135.21836 
L 114.396728 135.110494 
L 114.283165 132.506362 
L 114.081861 129.868499 
L 114.231264 127.885077 
L 114.319369 127.384742 
L 114.460058 126.738224 
L 114.541343 125.517845 
L 114.776001 125.245489 
L 114.779118 123.010159 
L 114.629146 122.564858 
L 114.369219 118.780307 
L 114.501502 118.648398 
L 114.558367 117.803501 
L 114.561714 115.91444 
L 114.369568 115.429746 
L 114.237211 112.613972 
L 114.147996 112.437695 
L 114.140381 108.05195 
L 114.23194 107.211551 
L 114.238967 106.518217 
L 114.141337 105.390051 
L 114.152016 104.69524 
L 114.002019 104.464048 
L 114.112021 98.872824 
L 114.153918 98.736915 
L 114.168686 97.953621 
L 114.310447 97.761138 
L 114.593718 97.565752 
L 114.76869 94.615312 
L 114.827625 94.010262 
L 114.7251 93.258401 
L 114.506771 92.098417 
L 114.199574 90.433959 
L 114.076163 90.076482 
L 114.008149 89.504866 
L 113.875742 89.186979 
L 113.82923 89.266217 
L 113.75352 89.270005 
L 113.573334 88.904635 
L 113.198342 88.996732 
L 112.533424 89.303081 
L 111.046146 87.505873 
L 110.799769 87.35431 
L 110.505246 87.053157 
L 110.411054 86.698121 
L 109.572401 85.893625 
L 109.192361 85.756628 
L 107.386634 84.540516 
L 106.342416 84.137437 
L 106.018135 83.573489 
L 105.379397 83.428753 
L 102.838329 83.085215 
L 102.481523 82.944013 
L 101.510689 82.835402 
L 100.782272 82.86092 
L 99.183701 82.748931 
L 99.002987 82.867386 
L 97.029105 82.741 
L 95.965409 82.412497 
L 94.480469 82.328823 
L 94.275073 82.434557 
L 90.623137 82.506224 
L 90.418236 82.624183 
L 81.694296 82.912724 
L 81.537364 82.807314 
L 80.502714 82.858461 
L 79.904296 83.19103 
L 77.351973 83.426505 
L 76.724882 83.564102 
L 75.911247 83.607707 
L 75.596255 83.748694 
L 73.123646 83.920003 
L 72.713526 83.709746 
L 70.712618 83.689204 
L 62.072949 83.818917 
L 61.362234 83.882662 
L 61.00725 83.972862 
L 56.854257 83.899226 
L 56.320289 83.810581 
L 54.546582 83.644585 
L 53.402907 83.445231 
L 52.669555 83.343903 
L 51.60223 82.925649 
L 51.093682 82.59161 
L 50.658124 82.342276 
L 50.233441 82.009983 
L 49.133816 81.42803 
L 47.969772 80.260572 
L 47.178938 79.808382 
L 46.371323 78.808933 
L 45.947517 78.070462 
L 45.560965 77.813574 
L 44.821032 76.24071 
L 44.918505 76.102008 
L 44.708322 74.132921 
L 44.796074 73.780303 
L 44.53325 71.760302 
L 44.53507 70.947482 
L 43.936631 65.746016 
L 43.660176 65.448439 
L 43.625085 63.57917 
L 43.421728 63.14662 
L 43.524661 61.953219 
L 43.637096 61.699907 
L 44.013289 46.3423 
L 44.105546 45.178481 
L 43.748622 45.12368 
L 43.809926 39.713897 
L 43.524041 38.091204 
L 43.559501 35.914374 
L 43.712904 32.789822 
L 43.769668 32.627932 
L 44.676091 17.500246 
L 44.743926 16.244335 
L 44.747331 16.18909 
L 44.747331 16.18909 
" clip-path="url(#p41ed08e060)" style="fill: none; stroke: #ffa500; stroke-width: 0.5; stroke-linecap: square"/>
   </g>
   <g id="line2d_26">
    <path d="M 114.539183 153.396627 
L 114.612201 136.332107 
L 114.663375 135.593819 
L 114.885294 135.184828 
L 114.966296 134.425015 
L 115.072181 131.927714 
L 115.095171 131.195956 
L 115.082824 130.385867 
L 115.203302 129.760656 
L 115.301504 128.500121 
L 115.372143 127.27147 
L 115.104563 124.945278 
L 115.083098 124.135354 
L 116.14604 123.953233 
L 116.21504 122.827843 
L 116.410372 121.963334 
L 116.404464 121.611329 
L 116.085607 121.466473 
L 116.098889 119.763787 
L 116.109642 118.653202 
L 116.09353 118.312279 
L 115.932038 117.410379 
L 115.873724 116.599404 
L 115.656086 116.303118 
L 115.485892 115.449077 
L 115.458266 115.107365 
L 115.092231 114.349732 
L 114.947115 111.551886 
L 114.950089 110.72363 
L 114.82857 109.307829 
L 114.165752 108.436476 
L 113.958458 105.120413 
L 113.843516 104.837041 
L 113.724815 99.447839 
L 113.860725 99.422673 
L 113.883464 98.263718 
L 114.155219 95.786976 
L 114.154051 95.477947 
L 113.816495 95.376334 
L 113.653501 95.125982 
L 113.645066 94.401935 
L 114.340557 94.32921 
L 114.336737 93.537476 
L 114.220375 92.907265 
L 114.056954 91.577148 
L 113.719722 90.171237 
L 113.525849 90.124956 
L 113.300402 89.767394 
L 113.215104 89.544892 
L 113.194239 89.102909 
L 112.631806 88.07358 
L 112.448404 87.771291 
L 112.180981 87.817878 
L 111.820348 87.392625 
L 111.66755 87.070809 
L 111.517778 86.89746 
L 111.054311 86.914682 
L 110.451527 86.428678 
L 109.919937 86.070066 
L 109.707467 85.720728 
L 109.335061 85.557208 
L 109.023867 85.39758 
L 108.619582 84.662476 
L 108.406428 84.536694 
L 108.287959 84.627183 
L 107.525751 84.348457 
L 107.235419 84.352394 
L 106.458978 83.936056 
L 105.966006 84.009315 
L 103.561324 83.32836 
L 102.469152 83.213131 
L 102.06265 83.343801 
L 98.618606 83.048942 
L 97.677529 83.019805 
L 97.392717 83.132256 
L 95.378754 83.177873 
L 94.628053 83.225735 
L 91.273351 83.191453 
L 89.692029 83.242236 
L 89.614724 83.210986 
L 87.104275 83.176417 
L 86.386004 83.366695 
L 85.28819 83.309082 
L 84.523546 83.264246 
L 82.172902 83.31506 
L 81.958 83.025197 
L 81.175103 82.938159 
L 78.334896 83.046444 
L 77.701786 83.151374 
L 77.354594 83.16497 
L 76.700372 83.007724 
L 74.28359 83.041273 
L 73.650892 82.998614 
L 72.841184 83.026945 
L 72.085456 82.838876 
L 70.814787 82.890117 
L 69.332187 82.826034 
L 67.526243 83.029358 
L 65.856985 83.187274 
L 65.739179 83.433842 
L 64.585283 83.50735 
L 63.762268 83.296733 
L 62.719647 83.348183 
L 62.227464 83.186764 
L 61.122821 83.163632 
L 60.298604 82.693806 
L 59.276716 82.510665 
L 58.931093 82.524751 
L 58.862297 83.013486 
L 58.641123 83.421736 
L 57.874258 83.442197 
L 56.754731 83.274878 
L 56.045174 83.266167 
L 55.527279 83.076268 
L 54.968108 83.054378 
L 54.303217 82.488245 
L 52.649012 82.305613 
L 52.963993 82.803749 
L 52.33932 82.601933 
L 52.066473 82.469337 
L 51.001266 82.018633 
L 49.884566 81.527501 
L 49.919579 81.094552 
L 49.368744 80.754893 
L 48.887826 80.626585 
L 48.748425 80.525491 
L 48.921587 80.458021 
L 48.643072 80.20099 
L 46.658018 79.411907 
L 46.201173 78.95011 
L 45.837174 78.496073 
L 45.571819 78.03222 
L 45.398674 77.793181 
L 45.885641 78.070962 
L 45.860726 77.97776 
L 44.423536 76.148357 
L 44.255023 75.695679 
L 43.950888 75.312176 
L 43.518252 73.07579 
L 43.273175 70.605773 
L 43.157505 69.347205 
L 43.244982 67.866823 
L 43.08868 67.482495 
L 42.887967 66.121555 
L 42.838219 65.248007 
L 42.965007 64.704938 
L 42.994882 64.246226 
L 42.914963 63.299681 
L 43.235225 59.682944 
L 43.517715 57.470016 
L 43.805389 56.92796 
L 44.047633 55.556876 
L 44.230144 54.147036 
L 44.125369 53.130757 
L 44.217627 52.092511 
L 44.471497 51.358537 
L 44.78279 48.401035 
L 44.606501 48.112219 
L 44.74991 45.172264 
L 44.637238 45.092865 
L 44.903418 40.358271 
L 44.969179 38.881659 
L 44.787443 38.661528 
L 44.752134 38.026734 
L 44.736016 34.170546 
L 44.351365 33.42616 
L 44.23469 29.765515 
L 44.131268 27.244308 
L 44.319504 26.898785 
L 44.331206 26.124025 
L 43.724695 25.487715 
L 43.735391 24.90207 
L 44.137245 24.886515 
L 44.461478 24.641555 
L 44.472233 24.113992 
L 43.885159 23.148526 
L 43.915322 22.437365 
L 43.698766 22.027086 
L 43.90492 19.226928 
L 44.465841 16.849774 
L 44.536297 16.664458 
L 44.596667 16.306684 
L 44.596667 16.306684 
" clip-path="url(#p41ed08e060)" style="fill: none; stroke: #ffa500; stroke-width: 0.5; stroke-linecap: square"/>
   </g>
   <g id="line2d_27">
    <path d="M 114.539183 153.396627 
L 114.552895 144.358068 
L 114.834027 142.922492 
L 114.828116 140.470373 
L 114.607648 139.819453 
L 114.595856 135.981634 
L 114.789624 135.568422 
L 115.392253 134.746805 
L 115.495616 132.39752 
L 114.137114 132.449288 
L 113.998836 131.682676 
L 114.420134 131.033056 
L 115.627685 129.962861 
L 115.630333 129.155741 
L 114.079905 129.735807 
L 113.991537 126.752283 
L 114.261604 125.555736 
L 114.247515 123.338433 
L 114.605412 122.676272 
L 114.552864 122.01082 
L 114.490758 121.446127 
L 114.59316 119.148365 
L 114.835343 119.023426 
L 114.839275 117.982623 
L 115.088117 117.766546 
L 115.379438 117.302515 
L 115.377691 116.28334 
L 115.121477 116.172459 
L 115.138618 114.9994 
L 115.239902 114.10797 
L 115.143086 113.367746 
L 115.035477 113.101525 
L 115.010185 112.101938 
L 114.876375 114.076835 
L 115.121155 108.923827 
L 114.868894 106.077097 
L 115.00656 105.534894 
L 114.98165 104.505148 
L 115.132135 104.290724 
L 115.11395 102.501848 
L 114.993897 99.862133 
L 114.912602 99.251605 
L 114.793268 96.813945 
L 114.631936 96.356691 
L 114.46155 95.22206 
L 114.19424 94.057976 
L 114.057958 93.878753 
L 113.476604 91.28528 
L 113.194062 90.629127 
L 113.26262 90.380661 
L 112.472743 88.759848 
L 112.492915 88.482182 
L 110.65837 85.849769 
L 109.996773 85.374068 
L 109.528979 85.200776 
L 109.431895 85.336953 
L 109.125664 85.200085 
L 108.86686 85.282341 
L 107.69772 84.749692 
L 107.702038 84.483827 
L 107.324353 84.254151 
L 106.862818 83.998919 
L 106.664268 83.797523 
L 103.703017 82.935155 
L 102.610868 82.635488 
L 101.874247 82.373264 
L 99.881155 82.095374 
L 93.774347 81.648664 
L 91.508937 81.806162 
L 88.067121 82.109358 
L 88.06028 82.220809 
L 86.928301 82.312274 
L 86.233887 82.240892 
L 81.726385 82.66656 
L 81.115471 82.521354 
L 77.388925 82.913931 
L 75.759818 83.113617 
L 74.763163 83.084957 
L 71.653092 83.251081 
L 71.510619 83.199846 
L 68.813868 83.388003 
L 68.194121 83.502159 
L 66.03569 83.627894 
L 65.588788 83.814066 
L 58.467179 84.09536 
L 54.340116 83.56124 
L 53.126107 83.429084 
L 51.425825 82.915477 
L 50.675136 82.633011 
L 50.020061 82.432712 
L 48.962308 81.871718 
L 48.640717 81.442028 
L 46.755911 80.17778 
L 46.703116 80.236123 
L 46.518826 80.011492 
L 46.440169 79.588498 
L 45.908569 78.849036 
L 46.100631 78.333571 
L 45.973368 77.93994 
L 45.899887 77.479104 
L 45.580536 76.499217 
L 45.24346 74.964256 
L 44.851883 73.973997 
L 44.383279 71.91326 
L 44.063132 70.397626 
L 43.88326 69.500925 
L 43.681772 68.341466 
L 43.574468 67.18422 
L 43.450509 65.7887 
L 43.353429 64.518567 
L 43.278383 63.835036 
L 42.982867 61.263013 
L 42.929509 60.272657 
L 42.924613 59.185352 
L 42.907053 56.557249 
L 43.142726 52.67676 
L 43.159334 51.766127 
L 43.838405 43.91257 
L 43.702483 42.815583 
L 43.703699 41.485215 
L 43.865718 39.313405 
L 43.703379 38.382866 
L 43.853494 35.763262 
L 43.864821 34.499797 
L 43.966633 32.367001 
L 43.993499 31.230586 
L 44.186344 27.259954 
L 44.121192 26.543665 
L 44.29802 22.421691 
L 44.298903 21.419501 
L 44.093651 21.438223 
L 44.152858 19.428815 
L 44.026489 18.451916 
L 44.318379 16.330219 
L 44.297782 16.355737 
" clip-path="url(#p41ed08e060)" style="fill: none; stroke: #ffa500; stroke-width: 0.5; stroke-linecap: square"/>
   </g>
   <g id="line2d_28">
    <path d="M 114.539183 153.396627 
L 114.593647 139.10256 
L 114.6503 137.79694 
L 114.651914 137.083588 
L 114.44411 136.678296 
L 114.415828 135.057087 
L 114.287573 134.747366 
L 114.17395 132.349317 
L 114.027848 131.429598 
L 114.074141 130.19417 
L 114.189775 129.927203 
L 114.267059 125.700451 
L 114.321295 124.586659 
L 114.336931 123.893141 
L 114.647348 123.257418 
L 114.711028 116.92519 
L 114.565445 113.649412 
L 114.381344 112.702667 
L 114.223534 106.757248 
L 114.07501 105.717859 
L 114.112712 99.688474 
L 114.241995 98.058077 
L 114.211633 93.644953 
L 114.039658 91.696286 
L 113.900269 91.195991 
L 114.008254 90.847536 
L 113.767472 88.430536 
L 113.569681 87.800495 
L 112.769666 85.95227 
L 112.146269 85.153183 
L 110.639965 83.736339 
L 110.351521 83.719022 
L 110.096389 83.685223 
L 109.923038 83.839512 
L 109.551932 83.672497 
L 109.229814 83.413697 
L 107.902792 82.92328 
L 107.730759 82.945581 
L 107.539235 83.11757 
L 106.083318 83.201993 
L 105.846881 83.1759 
L 104.927613 82.935356 
L 104.535145 83.142618 
L 102.00133 83.016484 
L 101.371572 83.110745 
L 99.735406 83.015155 
L 99.066358 83.084831 
L 96.71846 83.071409 
L 96.37299 82.903866 
L 95.238043 82.893834 
L 94.479404 82.788386 
L 93.36412 82.720372 
L 92.338203 82.726122 
L 81.175882 83.420369 
L 80.83048 83.40941 
L 80.021494 83.220924 
L 77.76287 83.413086 
L 69.72865 83.928379 
L 66.335311 84.074201 
L 65.758903 84.15847 
L 63.430661 84.287058 
L 62.599532 84.423426 
L 55.721042 84.335849 
L 55.085167 84.168048 
L 54.377135 84.047309 
L 53.37991 83.735671 
L 52.890841 83.674423 
L 52.887264 83.760479 
L 52.215246 83.562453 
L 51.404202 83.19273 
L 50.175846 82.67817 
L 49.330762 82.188624 
L 49.074314 81.921671 
L 48.256347 81.449995 
L 47.699477 81.306772 
L 46.887147 80.503949 
L 46.646601 80.118794 
L 46.541943 79.984025 
L 46.694097 79.85753 
L 46.066992 78.835601 
L 44.816402 78.592998 
L 43.654402 76.277869 
L 43.817135 76.121056 
L 43.456096 75.463957 
L 43.410569 74.063807 
L 43.272646 73.427737 
L 43.292072 71.879506 
L 43.263155 67.838107 
L 43.265399 67.111441 
L 43.157601 66.316441 
L 43.286751 63.243004 
L 43.495296 62.921872 
L 43.630058 60.293346 
L 43.720786 55.028108 
L 43.93123 50.881034 
L 44.056862 49.310512 
L 44.204886 48.691234 
L 44.376295 47.765249 
L 44.574831 45.464089 
L 44.794632 37.99671 
L 44.788867 36.474111 
L 44.539589 36.021328 
L 44.654331 32.827815 
L 44.795645 30.48179 
L 44.815944 29.32433 
L 44.665355 28.81521 
L 44.638734 25.915144 
L 44.534666 24.582363 
L 44.436257 21.643074 
L 44.349297 20.616443 
L 44.88053 17.856909 
L 44.841902 16.667598 
L 44.852254 16.261859 
L 44.852254 16.261859 
" clip-path="url(#p41ed08e060)" style="fill: none; stroke: #ff0000; stroke-width: 0.5; stroke-linecap: square"/>
   </g>
   <g id="line2d_29">
    <path d="M 114.539183 153.396627 
L 114.6092 143.340585 
L 114.672803 142.105826 
L 114.704674 136.763863 
L 114.968693 135.137327 
L 115.035158 129.580583 
L 115.109954 129.172068 
L 115.090056 128.013041 
L 115.213801 127.169435 
L 115.254434 125.896578 
L 115.291421 124.643107 
L 115.303886 121.224451 
L 115.113825 114.12487 
L 114.951205 110.686807 
L 115.160322 110.350943 
L 115.129406 109.184495 
L 114.850143 108.21476 
L 114.675728 101.775099 
L 114.866356 101.474578 
L 114.739517 99.755329 
L 114.420288 95.28306 
L 114.704992 95.514402 
L 114.560199 94.83759 
L 114.487505 94.785382 
L 114.310959 93.548004 
L 113.725227 91.975666 
L 113.508044 89.262235 
L 113.272278 89.309758 
L 113.266707 89.248496 
L 113.045503 87.939476 
L 112.754614 87.315976 
L 112.303759 86.576821 
L 111.612779 85.674322 
L 110.716035 84.845217 
L 110.528317 84.56857 
L 110.151667 84.22083 
L 109.290218 83.274458 
L 109.027092 83.254256 
L 108.701698 83.217064 
L 108.241995 83.079258 
L 107.765842 83.039436 
L 107.437161 82.864319 
L 106.54489 82.685555 
L 107.00382 83.597625 
L 106.418588 83.573127 
L 105.794813 83.603644 
L 105.202359 83.314802 
L 103.903895 83.17807 
L 102.275617 82.988768 
L 101.338051 82.988334 
L 100.483105 83.214863 
L 99.838476 83.286492 
L 99.087083 83.36879 
L 96.748098 83.080677 
L 96.403809 83.088388 
L 95.26803 82.800431 
L 94.070379 82.748686 
L 93.668853 82.610774 
L 90.905369 82.605108 
L 87.299362 82.50234 
L 85.375143 82.571369 
L 84.520153 82.494387 
L 82.636903 82.70269 
L 79.098984 82.865306 
L 77.318444 82.943554 
L 76.238726 83.077297 
L 75.47896 83.220038 
L 75.039265 83.36535 
L 72.528405 83.451206 
L 71.963314 83.556806 
L 71.284372 83.669405 
L 66.200617 83.92939 
L 65.587754 83.81628 
L 62.82949 83.947038 
L 61.974598 83.998478 
L 61.287439 84.006573 
L 60.349524 83.833206 
L 55.263976 83.865998 
L 54.920966 84.021374 
L 53.558492 83.954623 
L 53.227059 83.968439 
L 52.884828 83.823718 
L 52.687028 83.666961 
L 52.08762 83.61078 
L 50.598018 83.595417 
L 49.31239 83.408422 
L 47.492745 82.665519 
L 46.635408 82.113781 
L 45.695205 81.22717 
L 44.827623 80.109771 
L 44.374394 79.489932 
L 44.158335 79.153098 
L 43.451251 77.032922 
L 43.516648 76.457404 
L 43.612412 76.249189 
L 43.327342 75.503439 
L 43.211322 72.67039 
L 43.42437 68.605575 
L 43.464138 67.451808 
L 43.851829 62.492153 
L 44.140159 53.359252 
L 43.918246 52.807857 
L 44.133066 47.449037 
L 44.060807 47.157577 
L 44.153178 45.739251 
L 44.328429 43.990597 
L 44.386228 43.071509 
L 44.215947 42.310294 
L 44.355526 38.683912 
L 44.305869 37.619825 
L 44.256491 36.821586 
L 44.183914 36.126457 
L 44.229993 32.575074 
L 44.001105 31.662312 
L 44.272036 24.660094 
L 44.400557 23.416366 
L 44.503446 23.380899 
L 44.87909 16.543303 
L 44.87909 16.543303 
" clip-path="url(#p41ed08e060)" style="fill: none; stroke: #ff0000; stroke-width: 0.5; stroke-linecap: square"/>
   </g>
   <g id="line2d_30">
    <path d="M 114.539183 153.396627 
L 114.539168 153.398182 
L 114.554251 141.496177 
L 114.406841 140.341547 
L 114.437319 138.347121 
L 114.535668 137.475663 
L 114.647919 135.016036 
L 114.963066 134.207295 
L 114.930796 130.717202 
L 114.885998 127.783045 
L 115.150068 127.379938 
L 115.049615 125.934601 
L 115.009139 124.771109 
L 115.006916 124.420592 
L 114.808149 124.005495 
L 114.889641 123.042247 
L 115.266443 123.242535 
L 115.367777 123.076715 
L 115.166723 116.934395 
L 115.266359 116.764287 
L 115.282864 115.759985 
L 115.244571 115.057661 
L 115.076218 114.112798 
L 115.004415 113.313087 
L 114.524152 110.776353 
L 114.529475 109.81109 
L 114.734792 109.261121 
L 114.697934 108.445607 
L 114.765893 108.502634 
L 115.205106 109.977285 
L 115.168162 107.366758 
L 115.306288 106.63668 
L 115.037242 98.477018 
L 114.8613 97.729176 
L 114.888069 96.555032 
L 114.841247 94.221823 
L 114.600779 93.788044 
L 114.174299 90.8629 
L 114.035118 90.835956 
L 113.441593 89.218477 
L 113.419806 89.320068 
L 112.857155 88.272048 
L 112.531061 87.728479 
L 111.584141 86.602444 
L 111.131654 86.238253 
L 110.651733 85.855755 
L 110.232825 85.174127 
L 109.152659 84.455223 
L 108.728482 83.993939 
L 108.565581 83.897671 
L 108.214581 83.493721 
L 106.247278 82.854146 
L 104.695796 82.671363 
L 102.062028 82.398702 
L 101.200028 82.224886 
L 99.793485 82.196348 
L 98.977277 82.360513 
L 96.177943 82.376166 
L 95.876457 82.170273 
L 94.957436 82.151883 
L 90.602865 82.52444 
L 87.860157 82.806542 
L 87.333477 82.632462 
L 84.33772 82.699084 
L 83.981671 82.477212 
L 81.052711 82.577851 
L 80.859405 82.502907 
L 78.241476 82.792478 
L 75.882478 82.995085 
L 75.273929 83.205398 
L 74.117991 83.295706 
L 73.864025 82.965411 
L 70.748964 83.198533 
L 70.087664 83.054319 
L 69.277332 83.085845 
L 68.546045 82.934061 
L 65.362079 83.179163 
L 64.631288 83.265302 
L 60.3141 83.538513 
L 60.025972 83.725345 
L 58.801795 83.830611 
L 58.055438 84.008935 
L 52.985462 84.122209 
L 51.800517 83.829845 
L 48.760585 82.337445 
L 48.757426 82.126741 
L 46.11017 79.700896 
L 46.135699 79.533899 
L 45.696681 78.818698 
L 45.072994 78.304014 
L 44.532201 76.855196 
L 44.519361 76.438549 
L 44.570437 76.267236 
L 43.847435 72.860596 
L 43.736687 71.425947 
L 43.922263 70.705975 
L 43.768389 64.412957 
L 43.741206 61.147257 
L 43.774428 59.852339 
L 44.088594 55.042916 
L 43.924868 54.806469 
L 43.862839 53.939115 
L 43.898293 51.15779 
L 43.812938 50.397418 
L 43.855383 49.588338 
L 43.693681 49.149778 
L 42.158087 49.014218 
L 42.199342 48.198906 
L 42.409622 47.860263 
L 43.499423 47.428894 
L 43.920119 47.099621 
L 43.988171 46.122663 
L 42.481636 45.590368 
L 42.340762 45.243336 
L 42.607013 42.892885 
L 43.405412 42.840841 
L 43.671426 42.635268 
L 43.796834 41.494973 
L 43.047424 40.997618 
L 42.542101 40.431021 
L 42.647429 39.307512 
L 43.304645 39.929331 
L 43.390031 39.012884 
L 43.12871 38.218748 
L 43.494745 35.177983 
L 43.644094 34.193763 
L 43.687864 33.739252 
L 43.24632 31.695357 
L 43.499341 29.115535 
L 43.384194 28.716197 
L 43.586895 26.069894 
L 43.485306 25.883291 
L 43.544441 25.008957 
L 43.368844 24.922169 
L 43.432696 24.070347 
L 45.742762 22.732893 
L 45.83113 21.956623 
L 44.931392 21.620863 
L 45.104364 19.612152 
L 44.942293 19.604611 
L 44.915202 18.912239 
L 44.893081 18.275242 
L 44.969979 17.158758 
L 44.969979 17.158758 
" clip-path="url(#p41ed08e060)" style="fill: none; stroke: #ff0000; stroke-width: 0.5; stroke-linecap: square"/>
   </g>
   <g id="line2d_31">
    <path d="M 114.539183 153.396627 
L 114.645506 140.517742 
L 114.71823 139.821026 
L 114.825512 136.495036 
L 114.981338 136.144126 
L 115.094735 132.962127 
L 114.949242 132.018755 
L 114.841388 130.169834 
L 114.689942 129.350693 
L 114.600674 128.594789 
L 114.427446 128.250637 
L 114.338535 127.064919 
L 114.216085 126.194538 
L 114.223563 124.169142 
L 114.231477 122.57244 
L 115.158146 121.268956 
L 115.315089 116.838028 
L 115.370786 115.967931 
L 114.61926 107.337658 
L 114.43064 106.452181 
L 114.421654 103.181103 
L 114.464901 100.189831 
L 114.438398 99.009464 
L 114.350712 98.249465 
L 114.39466 97.54557 
L 114.472138 96.888404 
L 114.347581 95.530352 
L 114.280881 95.462041 
L 113.860065 88.602297 
L 113.487517 87.464986 
L 112.968548 86.483869 
L 112.250597 85.575697 
L 111.640959 85.009308 
L 110.403091 84.597761 
L 110.001289 84.416847 
L 109.783625 84.096598 
L 108.978188 83.776021 
L 108.641106 83.579203 
L 107.737385 83.24305 
L 107.574237 83.20721 
L 107.287548 83.457537 
L 106.911276 83.272815 
L 106.646565 83.06638 
L 106.222726 83.107922 
L 106.052136 83.289846 
L 105.384219 83.141758 
L 105.167088 82.897241 
L 104.755685 82.817166 
L 104.349944 83.048641 
L 97.99149 82.769913 
L 97.865108 82.629046 
L 93.575678 82.71105 
L 93.004892 82.987976 
L 92.058543 83.11014 
L 91.592654 83.322205 
L 89.546637 83.487055 
L 88.660339 83.837166 
L 88.185976 83.862566 
L 87.844818 83.757759 
L 87.410483 83.464355 
L 86.198276 83.449276 
L 85.715623 83.325504 
L 84.170705 83.302983 
L 83.384505 83.190935 
L 82.460848 83.214288 
L 82.391589 83.332937 
L 81.699834 83.399998 
L 79.514873 83.475193 
L 79.34049 83.606448 
L 78.074683 83.65635 
L 76.956361 83.935452 
L 74.451582 83.925145 
L 73.55638 83.803211 
L 72.733331 83.748625 
L 72.347033 83.484281 
L 70.999957 83.455686 
L 70.302405 83.372171 
L 69.375387 83.377617 
L 68.466345 83.175343 
L 65.473919 83.194649 
L 64.463931 82.860512 
L 61.69 83.001783 
L 61.333571 83.1513 
L 57.803184 83.344269 
L 56.996503 83.505781 
L 56.696746 83.510423 
L 55.570033 83.785126 
L 55.022815 83.83276 
L 54.574509 83.927414 
L 53.470339 83.824614 
L 53.121452 83.723663 
L 52.704101 83.814824 
L 51.897626 83.67869 
L 51.487115 83.554951 
L 51.211628 83.462721 
L 50.783215 83.420777 
L 51.188153 83.207574 
L 50.998154 83.192106 
L 51.173782 83.256793 
L 49.167659 82.961125 
L 47.586568 82.302197 
L 46.606868 81.538815 
L 45.474133 80.327163 
L 45.062643 79.846907 
L 44.518131 79.330988 
L 44.306325 78.986807 
L 44.067053 78.691024 
L 43.631629 77.452252 
L 43.169392 77.063576 
L 42.949985 76.221661 
L 42.52905 74.150421 
L 42.809893 72.205854 
L 42.825415 71.528144 
L 43.50525 65.000732 
L 44.787857 54.332655 
L 44.908319 53.648162 
L 45.008592 53.051886 
L 45.026309 52.382468 
L 44.926605 52.14105 
L 45.030391 50.997094 
L 45.129668 50.680734 
L 45.179425 47.473857 
L 45.304641 41.721099 
L 45.14078 41.407855 
L 45.135164 40.591231 
L 45.013816 40.271633 
L 44.961142 38.683922 
L 45.020119 32.512197 
L 44.776671 32.21042 
L 44.831798 27.094901 
L 44.931195 26.251719 
L 44.877007 24.25546 
L 44.679265 23.338476 
L 44.627104 20.457529 
L 44.544536 19.648883 
L 44.582972 18.9602 
L 44.540269 18.756479 
L 44.527962 18.413737 
L 44.424956 18.423119 
L 44.41595 17.978972 
L 44.313649 18.028295 
L 44.316533 17.962232 
L 44.354125 16.187079 
L 44.354125 16.187079 
" clip-path="url(#p41ed08e060)" style="fill: none; stroke: #ff0000; stroke-width: 0.5; stroke-linecap: square"/>
   </g>
   <g id="line2d_32">
    <path d="M 114.539183 153.396627 
L 114.492621 139.858353 
L 114.418455 139.727747 
L 114.27952 139.771988 
L 114.133416 134.177383 
L 114.005772 133.927513 
L 113.981194 132.693995 
L 114.087124 132.414447 
L 114.182485 131.227656 
L 114.224574 129.733284 
L 114.49925 125.265508 
L 114.448938 125.498833 
L 114.328746 126.425549 
L 114.328763 125.730529 
L 114.333187 125.38618 
L 114.536069 125.046366 
L 114.545564 124.351519 
L 114.963135 123.290655 
L 115.099963 122.317666 
L 115.141396 121.182943 
L 114.957618 120.42285 
L 114.878281 118.004779 
L 114.776286 114.101553 
L 114.915548 113.243644 
L 114.990451 111.127 
L 115.034726 110.311026 
L 114.887999 107.84052 
L 114.49046 102.528302 
L 114.411592 101.002439 
L 114.317307 99.910859 
L 114.147768 97.394786 
L 113.993954 96.110485 
L 113.868151 96.018177 
L 113.664586 94.655684 
L 113.550903 94.155408 
L 113.816586 93.984162 
L 113.793992 92.830054 
L 113.915312 92.915511 
L 113.851552 88.663619 
L 113.626233 87.828076 
L 113.521778 87.674421 
L 113.352997 87.672337 
L 112.772138 86.569621 
L 112.109347 85.618229 
L 111.921119 85.109062 
L 111.56087 84.649312 
L 111.521556 84.476677 
L 111.21532 84.143 
L 111.098087 83.896478 
L 110.743397 83.632065 
L 110.447902 83.332 
L 110.268606 83.295368 
L 107.942341 81.25884 
L 107.173604 81.204517 
L 106.847515 81.268205 
L 106.486056 80.799369 
L 105.091036 80.969807 
L 104.474667 80.666173 
L 103.874993 80.848161 
L 103.766032 80.966932 
L 100.914547 81.449703 
L 100.150644 81.466251 
L 100.005077 81.346647 
L 99.488153 81.521254 
L 99.246658 81.666772 
L 97.90811 82.112261 
L 97.751681 82.256224 
L 97.082635 82.508191 
L 96.817749 82.739149 
L 95.721083 82.977141 
L 95.501007 82.810661 
L 93.871216 83.046546 
L 93.184036 83.062841 
L 89.609511 83.517043 
L 88.925747 83.581616 
L 88.219532 83.539296 
L 87.095892 83.565175 
L 86.961896 83.372823 
L 85.602162 83.434773 
L 85.304369 83.157276 
L 85.265385 82.811688 
L 84.149087 82.99431 
L 83.90078 83.248624 
L 81.421516 83.575831 
L 80.280798 83.547816 
L 79.955968 83.452105 
L 78.599311 83.585978 
L 77.72231 83.756576 
L 77.056201 83.698787 
L 76.269907 83.620953 
L 75.461515 83.642612 
L 74.815834 83.422881 
L 71.722799 83.392928 
L 70.549215 83.395297 
L 69.264955 83.672391 
L 68.249165 83.762504 
L 67.342457 83.863463 
L 63.697024 83.977287 
L 62.975221 84.10024 
L 58.085454 84.119851 
L 57.272071 84.161839 
L 57.091903 84.236953 
L 55.996671 84.180465 
L 54.616472 83.889755 
L 52.049584 83.439208 
L 50.830234 83.03718 
L 49.739346 82.440279 
L 49.379683 82.168939 
L 49.42162 82.081093 
L 48.848731 81.652326 
L 48.87651 81.436644 
L 48.472405 81.025864 
L 48.298051 80.758049 
L 46.977016 79.324848 
L 46.182096 78.018831 
L 45.714353 77.005053 
L 45.516969 76.389487 
L 45.041101 75.101722 
L 44.886564 74.43457 
L 44.482671 73.499222 
L 43.673924 70.386132 
L 43.431308 69.430093 
L 43.08587 64.100642 
L 43.061825 57.886005 
L 42.938738 57.635623 
L 43.14509 54.629806 
L 42.915999 53.948957 
L 43.174112 51.54799 
L 43.080664 50.557354 
L 43.209934 48.358448 
L 43.147852 47.528898 
L 43.425944 43.984861 
L 43.489422 42.840008 
L 43.535878 42.367227 
L 43.67946 42.108552 
L 43.744684 40.884057 
L 43.75564 40.107883 
L 43.956095 37.985091 
L 43.810222 37.408426 
L 44.202043 33.521545 
L 44.031627 33.049393 
L 44.021464 31.803775 
L 43.932737 31.345564 
L 44.189601 26.145197 
L 44.154552 23.880384 
L 44.186062 23.369408 
L 43.875459 22.946087 
L 43.908127 21.322408 
L 43.876021 20.508743 
L 43.925097 19.730231 
L 43.975337 18.582211 
L 43.914347 18.334581 
L 43.918077 17.936111 
L 43.871144 17.673003 
L 44.038454 16.383812 
L 44.038454 16.383812 
" clip-path="url(#p41ed08e060)" style="fill: none; stroke: #ff0000; stroke-width: 0.5; stroke-linecap: square"/>
   </g>
   <g id="line2d_33">
    <path d="M 114.539183 153.396627 
L 114.539183 83.779223 
L 114.539183 83.779223 
L 44.921779 83.779223 
L 44.921779 83.779223 
L 44.921779 14.161818 
L 44.921779 14.161818 
" clip-path="url(#p41ed08e060)" style="fill: none; stroke-dasharray: 3.7,1.6; stroke-dashoffset: 0; stroke: #000000; stroke-opacity: 0.7"/>
   </g>
   <g id="patch_3">
    <path d="M 35.099375 160.36 
L 35.099375 7.2 
" style="fill: none; stroke: #000000; stroke-width: 0.8; stroke-linejoin: miter; stroke-linecap: square"/>
   </g>
   <g id="patch_4">
    <path d="M 120.28587 160.36 
L 120.28587 7.2 
" style="fill: none; stroke: #000000; stroke-width: 0.8; stroke-linejoin: miter; stroke-linecap: square"/>
   </g>
   <g id="patch_5">
    <path d="M 35.099375 160.36 
L 120.28587 160.36 
" style="fill: none; stroke: #000000; stroke-width: 0.8; stroke-linejoin: miter; stroke-linecap: square"/>
   </g>
   <g id="patch_6">
    <path d="M 35.099375 7.2 
L 120.28587 7.2 
" style="fill: none; stroke: #000000; stroke-width: 0.8; stroke-linejoin: miter; stroke-linecap: square"/>
   </g>
  </g>
 </g>
 <defs>
  <clipPath id="p41ed08e060">
   <rect x="35.099375" y="7.2" width="85.186495" height="153.16"/>
  </clipPath>
 </defs>
</svg>
