<?xml version="1.0" encoding="utf-8" standalone="no"?>
<!DOCTYPE svg PUBLIC "-//W3C//DTD SVG 1.1//EN"
  "http://www.w3.org/Graphics/SVG/1.1/DTD/svg11.dtd">
<svg xmlns:xlink="http://www.w3.org/1999/xlink" width="258.704879pt" height="95.859375pt" viewBox="0 0 258.704879 95.859375" xmlns="http://www.w3.org/2000/svg" version="1.1">
 <metadata>
  <rdf:RDF xmlns:dc="http://purl.org/dc/elements/1.1/" xmlns:cc="http://creativecommons.org/ns#" xmlns:rdf="http://www.w3.org/1999/02/22-rdf-syntax-ns#">
   <cc:Work>
    <dc:type rdf:resource="http://purl.org/dc/dcmitype/StillImage"/>
    <dc:date>2026-01-18T23:30:35.414611</dc:date>
    <dc:format>image/svg+xml</dc:format>
    <dc:creator>
     <cc:Agent>
      <dc:title>Matplotlib v3.6.3, https://matplotlib.org/</dc:title>
     </cc:Agent>
    </dc:creator>
   </cc:Work>
  </rdf:RDF>
 </metadata>
 <defs>
  <style type="text/css">*{stroke-linejoin: round; stroke-linecap: butt}</style>
 </defs>
 <g id="figure_1">
  <g id="patch_1">
   <path d="M 0 95.859375 
L 258.704879 95.859375 
L 258.704879 0 
L 0 0 
z
" style="fill: #ffffff"/>
  </g>
  <g id="axes_1">
   <g id="patch_2">
    <path d="M 35.2 70.76 
L 124.59568 70.76 
L 124.59568 7.2 
L 35.2 7.2 
z
" style="fill: #ffffff"/>
   </g>
   <g id="matplotlib.axis_1">
    <g id="xtick_1">
     <g id="line2d_1">
      <path d="M 39.26344 70.76 
L 39.26344 7.2 
" clip-path="url(#peab90407e6)" style="fill: none; stroke: #b0b0b0; stroke-opacity: 0.3; stroke-width: 0.8; stroke-linecap: square"/>
     </g>
     <g id="line2d_2">
      <defs>
       <path id="m3ce14eaca5" d="M 0 0 
L 0 3.5 
" style="stroke: #000000; stroke-width: 0.8"/>
      </defs>
      <g>
       <use xlink:href="#m3ce14eaca5" x="39.26344" y="70.76" style="stroke: #000000; stroke-width: 0.8"/>
      </g>
     </g>
     <g id="text_1">
      <!-- 0 -->
      <g transform="translate(36.26344 86.0925) scale(0.12 -0.12)">
       <defs>
        <path id="TimesNewRomanPSMT-30" d="M 231 2094 
Q 231 2819 450 3342 
Q 669 3866 1031 4122 
Q 1313 4325 1613 4325 
Q 2100 4325 2488 3828 
Q 2972 3213 2972 2159 
Q 2972 1422 2759 906 
Q 2547 391 2217 158 
Q 1888 -75 1581 -75 
Q 975 -75 572 641 
Q 231 1244 231 2094 
z
M 844 2016 
Q 844 1141 1059 588 
Q 1238 122 1591 122 
Q 1759 122 1940 273 
Q 2122 425 2216 781 
Q 2359 1319 2359 2297 
Q 2359 3022 2209 3506 
Q 2097 3866 1919 4016 
Q 1791 4119 1609 4119 
Q 1397 4119 1231 3928 
Q 1006 3669 925 3112 
Q 844 2556 844 2016 
z
" transform="scale(0.015625)"/>
       </defs>
       <use xlink:href="#TimesNewRomanPSMT-30"/>
      </g>
     </g>
    </g>
    <g id="xtick_2">
     <g id="line2d_3">
      <path d="M 121.079879 70.76 
L 121.079879 7.2 
" clip-path="url(#peab90407e6)" style="fill: none; stroke: #b0b0b0; stroke-opacity: 0.3; stroke-width: 0.8; stroke-linecap: square"/>
     </g>
     <g id="line2d_4">
      <g>
       <use xlink:href="#m3ce14eaca5" x="121.079879" y="70.76" style="stroke: #000000; stroke-width: 0.8"/>
      </g>
     </g>
     <g id="text_2">
      <!-- 20 -->
      <g transform="translate(115.079879 86.0925) scale(0.12 -0.12)">
       <defs>
        <path id="TimesNewRomanPSMT-32" d="M 2934 816 
L 2638 0 
L 138 0 
L 138 116 
Q 1241 1122 1691 1759 
Q 2141 2397 2141 2925 
Q 2141 3328 1894 3587 
Q 1647 3847 1303 3847 
Q 991 3847 742 3664 
Q 494 3481 375 3128 
L 259 3128 
Q 338 3706 661 4015 
Q 984 4325 1469 4325 
Q 1984 4325 2329 3994 
Q 2675 3663 2675 3213 
Q 2675 2891 2525 2569 
Q 2294 2063 1775 1497 
Q 997 647 803 472 
L 1909 472 
Q 2247 472 2383 497 
Q 2519 522 2628 598 
Q 2738 675 2819 816 
L 2934 816 
z
" transform="scale(0.015625)"/>
       </defs>
       <use xlink:href="#TimesNewRomanPSMT-32"/>
       <use xlink:href="#TimesNewRomanPSMT-30" x="50"/>
      </g>
     </g>
    </g>
   </g>
   <g id="matplotlib.axis_2">
    <g id="ytick_1">
     <g id="line2d_5">
      <path d="M 35.2 67.870909 
L 124.59568 67.870909 
" clip-path="url(#peab90407e6)" style="fill: none; stroke: #b0b0b0; stroke-opacity: 0.3; stroke-width: 0.8; stroke-linecap: square"/>
     </g>
     <g id="line2d_6">
      <defs>
       <path id="me51c77f433" d="M 0 0 
L -3.5 0 
" style="stroke: #000000; stroke-width: 0.8"/>
      </defs>
      <g>
       <use xlink:href="#me51c77f433" x="35.2" y="67.870909" style="stroke: #000000; stroke-width: 0.8"/>
      </g>
     </g>
     <g id="text_3">
      <!-- 0.00 -->
      <g transform="translate(7.2 72.037159) scale(0.12 -0.12)">
       <defs>
        <path id="TimesNewRomanPSMT-2e" d="M 800 606 
Q 947 606 1047 504 
Q 1147 403 1147 259 
Q 1147 116 1045 14 
Q 944 -88 800 -88 
Q 656 -88 554 14 
Q 453 116 453 259 
Q 453 406 554 506 
Q 656 606 800 606 
z
" transform="scale(0.015625)"/>
       </defs>
       <use xlink:href="#TimesNewRomanPSMT-30"/>
       <use xlink:href="#TimesNewRomanPSMT-2e" x="50"/>
       <use xlink:href="#TimesNewRomanPSMT-30" x="75"/>
       <use xlink:href="#TimesNewRomanPSMT-30" x="125"/>
      </g>
     </g>
    </g>
    <g id="ytick_2">
     <g id="line2d_7">
      <path d="M 35.2 40.678288 
L 124.59568 40.678288 
" clip-path="url(#peab90407e6)" style="fill: none; stroke: #b0b0b0; stroke-opacity: 0.3; stroke-width: 0.8; stroke-linecap: square"/>
     </g>
     <g id="line2d_8">
      <g>
       <use xlink:href="#me51c77f433" x="35.2" y="40.678288" style="stroke: #000000; stroke-width: 0.8"/>
      </g>
     </g>
     <g id="text_4">
      <!-- 0.25 -->
      <g transform="translate(7.2 44.844538) scale(0.12 -0.12)">
       <defs>
        <path id="TimesNewRomanPSMT-35" d="M 2778 4238 
L 2534 3706 
L 1259 3706 
L 981 3138 
Q 1809 3016 2294 2522 
Q 2709 2097 2709 1522 
Q 2709 1188 2573 903 
Q 2438 619 2231 419 
Q 2025 219 1772 97 
Q 1413 -75 1034 -75 
Q 653 -75 479 54 
Q 306 184 306 341 
Q 306 428 378 495 
Q 450 563 559 563 
Q 641 563 702 538 
Q 763 513 909 409 
Q 1144 247 1384 247 
Q 1750 247 2026 523 
Q 2303 800 2303 1197 
Q 2303 1581 2056 1914 
Q 1809 2247 1375 2428 
Q 1034 2569 447 2591 
L 1259 4238 
L 2778 4238 
z
" transform="scale(0.015625)"/>
       </defs>
       <use xlink:href="#TimesNewRomanPSMT-30"/>
       <use xlink:href="#TimesNewRomanPSMT-2e" x="50"/>
       <use xlink:href="#TimesNewRomanPSMT-32" x="75"/>
       <use xlink:href="#TimesNewRomanPSMT-35" x="125"/>
      </g>
     </g>
    </g>
    <g id="ytick_3">
     <g id="line2d_9">
      <path d="M 35.2 13.485667 
L 124.59568 13.485667 
" clip-path="url(#peab90407e6)" style="fill: none; stroke: #b0b0b0; stroke-opacity: 0.3; stroke-width: 0.8; stroke-linecap: square"/>
     </g>
     <g id="line2d_10">
      <g>
       <use xlink:href="#me51c77f433" x="35.2" y="13.485667" style="stroke: #000000; stroke-width: 0.8"/>
      </g>
     </g>
     <g id="text_5">
      <!-- 0.50 -->
      <g transform="translate(7.2 17.651917) scale(0.12 -0.12)">
       <use xlink:href="#TimesNewRomanPSMT-30"/>
       <use xlink:href="#TimesNewRomanPSMT-2e" x="50"/>
       <use xlink:href="#TimesNewRomanPSMT-35" x="75"/>
       <use xlink:href="#TimesNewRomanPSMT-30" x="125"/>
      </g>
     </g>
    </g>
   </g>
   <g id="line2d_11">
    <path d="M 39.26344 13.485667 
L 109.48849 13.485667 
L 109.760133 16.314461 
L 110.85142 26.506146 
L 111.39609 30.010514 
L 112.350451 38.357126 
L 113.168764 42.600045 
L 113.441646 43.796085 
L 113.986788 47.017541 
L 115.077995 50.929254 
L 116.441383 55.325321 
L 116.578159 55.631184 
L 116.986708 60.915145 
L 117.532509 61.849593 
L 117.668543 61.961191 
L 117.804863 62.432385 
L 120.53224 62.432385 
L 120.53224 62.432385 
" clip-path="url(#peab90407e6)" style="fill: none; stroke: #ff0000; stroke-opacity: 0.8; stroke-width: 2; stroke-linecap: square"/>
   </g>
   <g id="line2d_12">
    <path d="M 39.26344 67.870909 
L 39.808647 67.870909 
L 39.943845 55.620633 
L 40.082028 67.870909 
L 40.490556 56.734334 
L 41.308823 43.370357 
L 41.444629 41.929149 
L 41.581039 42.649753 
L 41.853185 35.443708 
L 42.398379 26.075742 
L 42.671604 28.958268 
L 42.943881 21.031619 
L 43.07999 16.708101 
L 43.216673 17.428597 
L 43.489216 12.384474 
L 43.62546 13.104861 
L 43.763271 11.66387 
L 43.898156 11.957333 
L 44.034896 11.66387 
L 44.171143 10.089091 
L 44.307553 10.222661 
L 44.443885 14.54607 
L 44.71636 14.546288 
L 44.989177 13.10497 
L 45.125802 13.105188 
L 45.261779 12.384257 
L 45.398259 12.384366 
L 45.534488 13.10497 
L 45.671038 14.546179 
L 45.807729 13.825575 
L 45.94409 14.546179 
L 46.216938 12.384366 
L 46.352808 13.825466 
L 46.489765 13.825575 
L 46.626985 12.744722 
L 46.762192 13.10497 
L 47.034708 13.10497 
L 47.172621 14.546179 
L 47.308221 13.825575 
L 47.445139 12.384366 
L 47.581431 13.825575 
L 47.716393 13.825575 
L 47.852878 14.546179 
L 47.989213 11.663761 
L 48.125746 13.825575 
L 48.262266 13.825575 
L 48.398014 13.465327 
L 48.534402 13.825575 
L 48.670894 13.10497 
L 48.943769 15.266784 
L 49.081327 13.10497 
L 49.216412 13.825575 
L 49.353125 12.384366 
L 49.490924 14.546288 
L 49.625573 14.546179 
L 49.899928 12.624531 
L 50.036462 13.825683 
L 50.170869 13.104861 
L 50.579984 13.10497 
L 50.717626 12.9714 
L 50.852652 14.546288 
L 50.990421 12.971618 
L 51.125399 13.825575 
L 51.263085 12.384257 
L 51.39853 13.105188 
L 51.535763 12.384474 
L 51.670734 13.10497 
L 51.808572 15.266784 
L 51.945157 13.105188 
L 52.081139 13.10497 
L 52.216323 13.825575 
L 52.354231 13.104861 
L 52.490141 13.465218 
L 52.62731 13.105079 
L 52.763078 15.266784 
L 52.898037 14.546179 
L 53.035223 13.104861 
L 53.172277 14.546179 
L 53.307092 12.384366 
L 53.443553 15.266784 
L 53.580108 14.546179 
L 53.7162 11.663761 
L 53.852773 14.546179 
L 53.990324 14.546179 
L 54.261774 12.744614 
L 54.398154 13.825575 
L 54.670881 12.384366 
L 54.808735 13.10497 
L 55.079809 15.987388 
L 55.216346 15.266892 
L 55.354038 13.10497 
L 55.489154 15.266784 
L 55.761889 13.10497 
L 55.899173 13.825575 
L 56.037666 13.825575 
L 56.172165 12.384366 
L 56.308117 13.825466 
L 56.445514 13.825575 
L 56.580506 14.54607 
L 56.71784 13.825575 
L 56.98981 15.266675 
L 57.125977 13.104861 
L 57.261829 13.825575 
L 57.399012 13.825575 
L 57.534781 12.384257 
L 57.672241 12.384257 
L 57.807901 12.971618 
L 57.945311 11.66387 
L 58.216159 15.266784 
L 58.352523 13.825683 
L 58.489734 13.825575 
L 58.626764 13.10497 
L 58.762161 14.546179 
L 58.899664 14.54607 
L 59.035932 12.384366 
L 59.171847 13.10497 
L 59.307572 14.546288 
L 59.443452 13.825575 
L 59.580262 15.266784 
L 59.716316 13.825575 
L 59.852488 13.825575 
L 59.988833 15.987388 
L 60.263085 12.384366 
L 60.399183 13.10497 
L 60.670837 13.10497 
L 60.807025 13.825575 
L 60.944251 15.266784 
L 61.081242 13.10497 
L 61.216453 13.825575 
L 61.354244 11.663761 
L 61.491024 11.663761 
L 61.626931 13.10497 
L 61.761944 12.384257 
L 61.89785 13.10497 
L 62.035426 10.943157 
L 62.308768 15.266784 
L 62.443454 13.10497 
L 62.58209 13.10497 
L 62.853269 14.185931 
L 62.989838 14.54607 
L 63.261511 13.465218 
L 63.39992 13.105188 
L 63.535315 15.266784 
L 63.670829 14.546288 
L 63.809589 15.266784 
L 63.943424 12.384474 
L 64.080276 13.825575 
L 64.21771 12.9714 
L 64.352447 13.104861 
L 64.627255 15.266675 
L 64.761648 13.825575 
L 65.034519 13.825575 
L 65.171948 11.663761 
L 65.307831 15.266784 
L 65.580631 13.105079 
L 65.717741 12.384257 
L 65.853561 14.546288 
L 65.988717 12.384366 
L 66.262148 12.384257 
L 66.534089 14.546179 
L 66.670996 11.663761 
L 66.806949 13.10497 
L 67.353558 13.10497 
L 67.490367 13.825575 
L 67.625713 12.384366 
L 67.763331 12.384366 
L 67.898379 11.663761 
L 68.03411 13.10497 
L 68.579867 13.10497 
L 68.717178 13.825683 
L 68.852598 11.663761 
L 68.989813 13.104861 
L 69.127122 13.10497 
L 69.26129 13.825575 
L 69.400208 13.825575 
L 69.536404 14.54607 
L 69.671047 14.546179 
L 70.080823 12.384474 
L 70.217713 15.266675 
L 70.35356 12.384366 
L 70.490141 13.825575 
L 70.625039 13.825466 
L 70.761692 15.463223 
L 70.898903 15.266784 
L 71.034567 13.104861 
L 71.170737 13.104861 
L 71.443046 14.546288 
L 71.580306 12.384474 
L 71.715865 13.825466 
L 71.853355 11.663761 
L 72.126363 15.266784 
L 72.262398 15.266784 
L 72.534129 12.384366 
L 72.67138 12.384366 
L 72.809112 13.692004 
L 72.94404 13.825466 
L 73.080802 12.384257 
L 73.216069 14.54607 
L 73.352182 13.10497 
L 73.762842 13.825575 
L 74.034603 12.384257 
L 74.171631 12.384366 
L 74.443098 14.546179 
L 74.579786 12.384366 
L 74.716221 15.266784 
L 74.853532 13.105079 
L 75.127465 13.10497 
L 75.262543 13.825575 
L 75.398476 13.104861 
L 75.535925 13.825683 
L 75.671784 13.105079 
L 75.807314 14.546179 
L 75.9437 13.825575 
L 76.08147 13.825683 
L 76.216022 15.266784 
L 76.490663 11.5303 
L 76.624753 14.546179 
L 76.899145 13.10497 
L 77.035808 13.825575 
L 77.170278 13.105079 
L 77.30756 13.825683 
L 77.444246 13.104861 
L 77.580181 13.104861 
L 77.715652 14.546179 
L 77.852797 14.54607 
L 78.126375 13.465327 
L 78.261573 13.10497 
L 78.398454 13.825575 
L 78.53431 13.104861 
L 78.670715 13.105079 
L 78.80882 16.707884 
L 78.947104 13.825466 
L 79.079614 14.185931 
L 79.216048 15.266892 
L 79.352583 13.825683 
L 79.488639 13.825683 
L 79.624701 12.384366 
L 79.899179 13.825683 
L 80.034988 13.825683 
L 80.170815 14.54607 
L 80.443181 12.384366 
L 80.579767 13.105079 
L 80.717343 13.10497 
L 80.854352 13.465327 
L 80.988728 12.384366 
L 81.262634 13.825575 
L 81.400673 11.663761 
L 81.5339 13.105079 
L 81.672022 12.384366 
L 81.808049 14.546179 
L 81.94359 13.825575 
L 82.079433 14.546179 
L 82.352149 13.104861 
L 82.488839 13.105079 
L 82.625313 12.384366 
L 82.898998 14.546179 
L 83.035473 14.546179 
L 83.171574 13.825575 
L 83.309183 10.943157 
L 83.444434 13.825575 
L 83.853973 13.104861 
L 83.989588 13.104861 
L 84.126767 12.384366 
L 84.262538 12.384148 
L 84.398602 14.546179 
L 84.533792 14.546179 
L 84.670435 16.708101 
L 84.943252 13.825575 
L 85.217562 13.825466 
L 85.352383 14.546179 
L 85.625484 14.54607 
L 85.898931 12.384366 
L 86.171572 13.825575 
L 86.30813 11.66387 
L 86.442768 13.825683 
L 86.579767 13.825575 
L 86.717106 14.185822 
L 86.853807 12.384257 
L 86.990203 13.104861 
L 87.126422 14.546179 
L 87.262586 13.10497 
L 87.3995 13.825575 
L 87.670361 13.825575 
L 87.808176 12.384366 
L 87.944396 14.153083 
L 88.080536 13.10497 
L 88.217311 14.546179 
L 88.488604 13.10497 
L 88.624939 13.10497 
L 88.761579 13.825575 
L 88.897701 15.266784 
L 89.034115 14.546179 
L 89.170456 11.66387 
L 89.309626 13.104861 
L 89.444355 13.10497 
L 89.580848 13.825575 
L 89.718639 13.825575 
L 89.988555 12.384474 
L 90.125344 13.825575 
L 90.261931 12.384366 
L 90.670327 14.546288 
L 90.808087 12.384474 
L 90.944114 14.54607 
L 91.080557 10.943157 
L 91.217154 11.663761 
L 91.353183 13.825575 
L 91.490281 13.825357 
L 91.625956 12.384474 
L 91.897313 13.825683 
L 92.03675 12.384474 
L 92.170935 13.10497 
L 92.308803 15.266784 
L 92.443844 13.825575 
L 92.580381 13.825683 
L 92.715332 12.384257 
L 92.853321 14.54607 
L 93.124692 12.384474 
L 93.262629 13.825575 
L 93.397285 13.825575 
L 93.533644 14.546179 
L 93.671481 15.987388 
L 93.806197 13.10497 
L 94.078998 13.10497 
L 94.215904 13.825575 
L 94.353117 13.10497 
L 94.489163 11.663761 
L 94.626291 13.825575 
L 94.761095 13.10497 
L 94.897513 13.825575 
L 95.037028 11.663761 
L 95.171843 14.546179 
L 95.306563 13.825575 
L 95.44356 14.546179 
L 95.581362 12.384366 
L 95.715841 12.384366 
L 95.853346 13.825575 
L 95.991098 12.384366 
L 96.125379 13.10497 
L 96.262743 15.266784 
L 96.397582 14.546179 
L 96.535982 12.384366 
L 96.670369 15.266784 
L 96.944307 11.663761 
L 97.079169 12.744614 
L 97.217789 10.943157 
L 97.35228 15.266784 
L 97.488076 13.825466 
L 97.624819 13.825575 
L 97.761037 12.384257 
L 97.89718 13.10497 
L 98.035158 13.10497 
L 98.30642 14.546288 
L 98.579149 13.10497 
L 98.715751 13.10497 
L 98.852648 14.546288 
L 98.988035 13.10497 
L 99.124744 13.10497 
L 99.260746 13.825683 
L 99.398716 15.266892 
L 99.533683 13.825575 
L 99.943925 13.825575 
L 100.078977 12.384474 
L 100.489635 15.266784 
L 100.761397 13.498067 
L 100.897022 13.825575 
L 101.171046 12.384366 
L 101.306178 13.825575 
L 101.443886 13.10497 
L 101.58038 13.825575 
L 101.715853 13.825575 
L 101.85165 14.546179 
L 101.988126 13.825575 
L 102.125034 11.663761 
L 102.397279 13.10497 
L 102.533331 14.546179 
L 102.806339 11.663761 
L 102.942529 14.546179 
L 103.215414 14.546179 
L 103.351488 13.105079 
L 103.489085 13.825575 
L 103.624809 13.10497 
L 103.896924 14.546179 
L 104.033419 13.104861 
L 104.16956 14.546179 
L 104.306635 11.663652 
L 104.578562 14.54607 
L 104.716004 14.185822 
L 104.851196 12.384257 
L 105.124777 13.104861 
L 105.260338 13.104861 
L 105.398178 13.825575 
L 105.532986 13.825575 
L 105.66936 13.691787 
L 105.806456 13.825575 
L 105.943242 15.266675 
L 106.214878 12.384474 
L 106.489604 15.266784 
L 106.76116 12.384366 
L 106.89776 13.825683 
L 107.034178 13.825575 
L 107.169132 13.104861 
L 107.306379 14.546179 
L 107.442922 12.384366 
L 107.579079 13.825575 
L 107.714443 13.10497 
L 107.851091 13.10497 
L 107.988676 13.825575 
L 108.124014 13.825575 
L 108.260511 12.384366 
L 108.396903 14.546179 
L 108.53316 12.384366 
L 108.669478 13.10497 
L 108.805302 11.663761 
L 108.942069 13.825575 
L 109.078055 13.825575 
L 109.351463 12.384366 
L 109.48849 14.546179 
L 109.760133 12.384366 
L 109.89619 13.104861 
L 110.16889 20.311015 
L 110.441508 17.428597 
L 110.85142 25.355355 
L 110.987029 25.355355 
L 111.260229 30.399477 
L 111.39609 28.958377 
L 111.669308 31.840686 
L 111.941513 28.958377 
L 112.214632 32.561073 
L 112.759806 42.649644 
L 112.896527 41.208544 
L 113.032659 44.091179 
L 113.168764 42.649862 
L 113.441646 43.370466 
L 113.578123 44.811675 
L 113.714014 43.370357 
L 113.850849 43.370249 
L 113.986788 44.091179 
L 114.123391 45.532388 
L 114.259731 45.53228 
L 114.395818 46.252775 
L 114.532419 47.694093 
L 114.668691 47.694093 
L 114.807076 52.017611 
L 115.077995 50.936759 
L 115.214297 50.576402 
L 115.350314 52.738215 
L 115.623377 52.017611 
L 115.759888 53.458711 
L 115.896035 52.738215 
L 116.168789 54.89992 
L 116.30511 54.179424 
L 116.441383 54.900029 
L 116.578159 56.341129 
L 116.71413 55.620742 
L 116.850553 56.341238 
L 116.986708 55.620633 
L 117.123435 56.341238 
L 117.532509 62.106073 
L 117.668543 62.826569 
L 117.804863 64.267778 
L 117.941431 64.267996 
L 118.077729 63.547391 
L 118.350199 63.547391 
L 118.48663 62.826787 
L 118.623166 63.547391 
L 118.759501 62.826569 
L 118.895683 62.826787 
L 119.032006 62.106182 
L 119.16897 63.547282 
L 119.305144 62.826787 
L 119.986676 62.826678 
L 120.12288 63.547282 
L 120.259464 63.547282 
L 120.395797 62.826678 
L 120.53224 63.547282 
L 120.53224 63.547282 
" clip-path="url(#peab90407e6)" style="fill: none; stroke: #0000ff; stroke-width: 2; stroke-linecap: square"/>
   </g>
   <g id="line2d_13">
    <path d="M 35.2 13.485667 
L 124.59568 13.485667 
" clip-path="url(#peab90407e6)" style="fill: none; stroke-dasharray: 3.7,1.6; stroke-dashoffset: 0; stroke: #000000; stroke-opacity: 0.7"/>
   </g>
   <g id="patch_3">
    <path d="M 35.2 70.76 
L 35.2 7.2 
" style="fill: none; stroke: #000000; stroke-width: 0.8; stroke-linejoin: miter; stroke-linecap: square"/>
   </g>
   <g id="patch_4">
    <path d="M 124.59568 70.76 
L 124.59568 7.2 
" style="fill: none; stroke: #000000; stroke-width: 0.8; stroke-linejoin: miter; stroke-linecap: square"/>
   </g>
   <g id="patch_5">
    <path d="M 35.2 70.76 
L 124.59568 70.76 
" style="fill: none; stroke: #000000; stroke-width: 0.8; stroke-linejoin: miter; stroke-linecap: square"/>
   </g>
   <g id="patch_6">
    <path d="M 35.2 7.2 
L 124.59568 7.2 
" style="fill: none; stroke: #000000; stroke-width: 0.8; stroke-linejoin: miter; stroke-linecap: square"/>
   </g>
  </g>
  <g id="axes_2">
   <g id="patch_7">
    <path d="M 159.625 70.76 
L 249.02068 70.76 
L 249.02068 7.2 
L 159.625 7.2 
z
" style="fill: #ffffff"/>
   </g>
   <g id="matplotlib.axis_3">
    <g id="xtick_3">
     <g id="line2d_14">
      <path d="M 163.68844 70.76 
L 163.68844 7.2 
" clip-path="url(#p16c58cc5a2)" style="fill: none; stroke: #b0b0b0; stroke-opacity: 0.3; stroke-width: 0.8; stroke-linecap: square"/>
     </g>
     <g id="line2d_15">
      <g>
       <use xlink:href="#m3ce14eaca5" x="163.68844" y="70.76" style="stroke: #000000; stroke-width: 0.8"/>
      </g>
     </g>
     <g id="text_6">
      <!-- 0 -->
      <g transform="translate(160.68844 86.0925) scale(0.12 -0.12)">
       <use xlink:href="#TimesNewRomanPSMT-30"/>
      </g>
     </g>
    </g>
    <g id="xtick_4">
     <g id="line2d_16">
      <path d="M 245.504879 70.76 
L 245.504879 7.2 
" clip-path="url(#p16c58cc5a2)" style="fill: none; stroke: #b0b0b0; stroke-opacity: 0.3; stroke-width: 0.8; stroke-linecap: square"/>
     </g>
     <g id="line2d_17">
      <g>
       <use xlink:href="#m3ce14eaca5" x="245.504879" y="70.76" style="stroke: #000000; stroke-width: 0.8"/>
      </g>
     </g>
     <g id="text_7">
      <!-- 20 -->
      <g transform="translate(239.504879 86.0925) scale(0.12 -0.12)">
       <use xlink:href="#TimesNewRomanPSMT-32"/>
       <use xlink:href="#TimesNewRomanPSMT-30" x="50"/>
      </g>
     </g>
    </g>
   </g>
   <g id="matplotlib.axis_4">
    <g id="ytick_4">
     <g id="line2d_18">
      <path d="M 159.625 60.166667 
L 249.02068 60.166667 
" clip-path="url(#p16c58cc5a2)" style="fill: none; stroke: #b0b0b0; stroke-opacity: 0.3; stroke-width: 0.8; stroke-linecap: square"/>
     </g>
     <g id="line2d_19">
      <g>
       <use xlink:href="#me51c77f433" x="159.625" y="60.166667" style="stroke: #000000; stroke-width: 0.8"/>
      </g>
     </g>
     <g id="text_8">
      <!-- −1 -->
      <g transform="translate(139.858125 64.332917) scale(0.12 -0.12)">
       <defs>
        <path id="TimesNewRomanPSMT-2212" d="M 3484 2000 
L 116 2000 
L 116 2256 
L 3484 2256 
L 3484 2000 
z
" transform="scale(0.015625)"/>
        <path id="TimesNewRomanPSMT-31" d="M 750 3822 
L 1781 4325 
L 1884 4325 
L 1884 747 
Q 1884 391 1914 303 
Q 1944 216 2037 169 
Q 2131 122 2419 116 
L 2419 0 
L 825 0 
L 825 116 
Q 1125 122 1212 167 
Q 1300 213 1334 289 
Q 1369 366 1369 747 
L 1369 3034 
Q 1369 3497 1338 3628 
Q 1316 3728 1258 3775 
Q 1200 3822 1119 3822 
Q 1003 3822 797 3725 
L 750 3822 
z
" transform="scale(0.015625)"/>
       </defs>
       <use xlink:href="#TimesNewRomanPSMT-2212"/>
       <use xlink:href="#TimesNewRomanPSMT-31" x="56.396484"/>
      </g>
     </g>
    </g>
    <g id="ytick_5">
     <g id="line2d_20">
      <path d="M 159.625 38.98 
L 249.02068 38.98 
" clip-path="url(#p16c58cc5a2)" style="fill: none; stroke: #b0b0b0; stroke-opacity: 0.3; stroke-width: 0.8; stroke-linecap: square"/>
     </g>
     <g id="line2d_21">
      <g>
       <use xlink:href="#me51c77f433" x="159.625" y="38.98" style="stroke: #000000; stroke-width: 0.8"/>
      </g>
     </g>
     <g id="text_9">
      <!-- 0 -->
      <g transform="translate(146.625 43.14625) scale(0.12 -0.12)">
       <use xlink:href="#TimesNewRomanPSMT-30"/>
      </g>
     </g>
    </g>
    <g id="ytick_6">
     <g id="line2d_22">
      <path d="M 159.625 17.793333 
L 249.02068 17.793333 
" clip-path="url(#p16c58cc5a2)" style="fill: none; stroke: #b0b0b0; stroke-opacity: 0.3; stroke-width: 0.8; stroke-linecap: square"/>
     </g>
     <g id="line2d_23">
      <g>
       <use xlink:href="#me51c77f433" x="159.625" y="17.793333" style="stroke: #000000; stroke-width: 0.8"/>
      </g>
     </g>
     <g id="text_10">
      <!-- 1 -->
      <g transform="translate(146.625 21.959583) scale(0.12 -0.12)">
       <use xlink:href="#TimesNewRomanPSMT-31"/>
      </g>
     </g>
    </g>
   </g>
   <g id="line2d_24">
    <path d="M 163.68844 38.98 
L 168.188271 38.879808 
L 169.14136 38.896503 
L 170.50512 38.998877 
L 170.777808 39.522972 
L 171.323207 39.450619 
L 171.459708 40.412748 
L 171.733221 40.399952 
L 171.870139 40.319463 
L 172.006431 39.034619 
L 172.414213 38.959385 
L 172.687266 38.196072 
L 172.959402 38.145711 
L 173.095894 37.689054 
L 173.368769 37.613269 
L 173.641412 37.784945 
L 173.915924 38.29406 
L 174.324928 38.41743 
L 174.461462 38.32226 
L 174.868469 38.425185 
L 175.277652 38.397367 
L 175.550399 38.486266 
L 175.688085 37.081081 
L 175.960763 37.107544 
L 176.641323 37.962129 
L 176.915141 38.675548 
L 177.188078 38.770231 
L 177.323037 39.704859 
L 178.005108 40.312472 
L 178.415324 40.318637 
L 178.550759 39.569011 
L 178.959531 39.489984 
L 179.233735 38.481499 
L 179.504809 38.350502 
L 179.914154 38.413341 
L 180.050644 38.460609 
L 180.324173 38.821164 
L 180.597165 38.859914 
L 180.870514 39.425937 
L 181.279466 39.471022 
L 181.41481 39.811471 
L 181.824012 39.824606 
L 182.097241 40.135309 
L 182.370311 40.133741 
L 182.777523 39.186104 
L 182.914734 39.140892 
L 183.051764 39.422187 
L 183.460932 39.385428 
L 183.732572 39.610918 
L 184.141316 39.597146 
L 184.277488 39.193583 
L 184.688085 39.21407 
L 184.960996 39.900306 
L 185.232025 38.747921 
L 185.369251 38.590907 
L 185.641453 36.232683 
L 185.916024 34.297344 
L 186.186944 32.18033 
L 186.597052 30.937224 
L 187.141149 29.552696 
L 187.414838 30.207279 
L 187.686511 29.896365 
L 187.82492 30.637941 
L 187.960315 30.750124 
L 188.368424 30.493638 
L 188.64271 30.745866 
L 189.052255 30.724509 
L 189.186648 30.402239 
L 189.596948 30.427684 
L 189.869264 30.615568 
L 190.278561 31.029767 
L 190.551155 31.434263 
L 190.822897 31.613375 
L 190.959089 31.300554 
L 191.505889 31.723863 
L 191.641126 30.520291 
L 192.188331 30.998919 
L 192.733206 31.790644 
L 193.004867 32.750463 
L 193.277598 33.143052 
L 193.414813 33.021292 
L 193.961404 33.300723 
L 194.23167 33.979671 
L 194.505823 34.289166 
L 194.642713 34.02357 
L 194.915141 34.461901 
L 195.050039 34.619042 
L 195.186692 34.262471 
L 195.323903 34.235543 
L 195.732641 35.396445 
L 196.140865 35.87645 
L 196.416481 35.372716 
L 196.551363 35.331571 
L 196.687398 35.47831 
L 196.959129 36.301349 
L 198.596631 38.02196 
L 199.278532 38.452113 
L 199.413571 38.558915 
L 199.687543 38.380735 
L 199.823476 38.471139 
L 200.096784 38.270268 
L 200.232314 38.27084 
L 200.50647 38.708027 
L 200.641022 38.753684 
L 200.915663 39.214706 
L 201.595278 39.326953 
L 201.869246 38.8943 
L 202.005181 38.94233 
L 202.140652 39.505302 
L 202.551375 39.725474 
L 202.686573 39.444052 
L 202.95931 39.52937 
L 203.23382 38.342175 
L 203.504614 38.800146 
L 203.777583 39.005382 
L 204.324179 39.286084 
L 204.868181 39.666342 
L 205.142343 40.395354 
L 205.413728 40.510927 
L 205.687634 40.501118 
L 206.777149 40.542008 
L 206.913839 40.783451 
L 207.186248 40.695209 
L 207.460473 40.390735 
L 207.596574 40.343807 
L 207.734183 41.066865 
L 208.006091 41.067014 
L 208.142525 40.255819 
L 208.414588 40.216348 
L 208.687538 39.544603 
L 208.958792 39.543777 
L 209.233008 39.645473 
L 209.505855 41.704266 
L 210.323931 45.404136 
L 210.73313 46.470652 
L 211.004767 47.584032 
L 211.142106 47.812954 
L 211.415203 48.55595 
L 211.551422 48.621056 
L 211.8245 49.029111 
L 211.959295 49.113328 
L 212.095361 48.62523 
L 212.505536 48.565314 
L 212.642311 49.046188 
L 212.913604 48.925848 
L 213.049939 48.59559 
L 213.459115 48.621988 
L 213.734626 48.370079 
L 213.869355 48.275544 
L 214.005848 48.376414 
L 214.277768 48.135649 
L 214.550344 48.325036 
L 215.233087 47.361975 
L 215.369114 47.86054 
L 215.778183 47.074811 
L 216.050956 46.733028 
L 216.595935 45.89018 
L 216.733803 45.943951 
L 217.005381 45.167947 
L 217.278321 44.875465 
L 217.414563 45.35492 
L 217.549692 45.371445 
L 217.822285 45.1089 
L 217.958644 44.228319 
L 218.096481 44.166729 
L 218.503998 43.014471 
L 218.640904 42.932457 
L 219.186095 42.126644 
L 219.596843 41.827255 
L 219.86856 42.265226 
L 220.278346 41.762847 
L 220.416098 42.030774 
L 220.550379 41.887912 
L 220.687743 41.958549 
L 220.822582 41.785115 
L 221.095369 42.168551 
L 221.369307 41.737996 
L 221.642789 41.518671 
L 221.77728 41.543756 
L 222.32218 40.461054 
L 222.73142 40.13069 
L 223.004149 39.127184 
L 223.549744 38.789066 
L 224.503977 38.371307 
L 224.777006 38.9093 
L 224.914635 38.959661 
L 225.049223 38.828494 
L 225.322022 38.890105 
L 225.596046 38.786926 
L 225.868886 38.48438 
L 226.27665 38.423363 
L 226.550034 38.370481 
L 226.687117 38.181665 
L 226.958331 37.694457 
L 227.231339 37.701999 
L 227.505313 37.564392 
L 228.186251 37.546129 
L 228.321924 38.065181 
L 228.458419 39.110425 
L 228.59456 39.293944 
L 229.413251 39.081781 
L 229.549777 39.546256 
L 229.957986 39.36261 
L 230.231456 39.108836 
L 231.049834 38.904342 
L 231.18616 38.516563 
L 231.594132 38.53258 
L 231.867922 38.689404 
L 232.139443 38.653535 
L 232.276091 38.883007 
L 232.685511 38.833897 
L 232.821903 39.31208 
L 233.230302 39.234706 
L 233.776463 39.267842 
L 234.049044 38.954173 
L 234.32119 38.97161 
L 234.458361 39.352631 
L 234.730855 39.38564 
L 234.866508 39.580473 
L 235.140356 40.22978 
L 235.412029 40.258806 
L 235.548928 40.692984 
L 235.958397 40.680633 
L 236.094308 40.109334 
L 236.502822 40.096071 
L 236.639632 40.259759 
L 237.048376 40.185225 
L 237.321527 39.584223 
L 237.593764 39.543205 
L 237.730417 39.147798 
L 238.139014 39.019217 
L 238.411788 38.782434 
L 238.820818 38.803939 
L 238.957419 39.938464 
L 239.366461 40.005498 
L 239.639297 40.742053 
L 240.184888 40.757519 
L 240.457608 40.921228 
L 241.003159 40.856397 
L 241.13913 41.520514 
L 241.548435 41.278181 
L 242.093543 41.123053 
L 242.229863 41.367123 
L 243.320683 41.442929 
L 243.457006 42.268955 
L 244.138953 42.452219 
L 244.95724 42.490715 
L 244.95724 42.490715 
" clip-path="url(#p16c58cc5a2)" style="fill: none; stroke: #ff0000; stroke-opacity: 0.8; stroke-width: 2; stroke-linecap: square"/>
   </g>
   <g id="line2d_25">
    <path d="M 163.68844 38.98 
L 164.233647 38.98 
L 164.368845 38.413998 
L 164.643466 39.545938 
L 164.778323 38.98 
L 164.915556 39.494476 
L 165.051812 39.545959 
L 165.188502 38.98 
L 165.459776 41.243901 
L 165.733823 36.716056 
L 165.869629 40.111876 
L 166.006039 38.413998 
L 166.142013 39.545938 
L 166.278185 38.413998 
L 166.414139 40.11194 
L 166.551791 39.546002 
L 166.687555 38.413998 
L 166.823379 38.98 
L 166.961205 38.697031 
L 167.096604 38.98 
L 167.232905 38.98 
L 167.368881 38.414062 
L 167.50499 38.413935 
L 167.779008 39.545938 
L 167.914216 38.98 
L 168.188271 38.98 
L 168.323156 39.31547 
L 168.459896 40.112004 
L 168.732553 37.847869 
L 168.868885 37.847996 
L 169.14136 40.111876 
L 169.278035 38.696967 
L 169.414177 38.98 
L 169.550802 38.98 
L 169.686779 38.414062 
L 169.823259 39.546002 
L 169.959488 38.98 
L 170.096038 40.11194 
L 170.36909 37.84806 
L 170.50512 38.98 
L 170.641938 37.281995 
L 170.777808 38.413956 
L 170.914765 38.414041 
L 171.051985 40.39493 
L 171.187192 38.98 
L 171.323207 40.111961 
L 171.459708 38.98 
L 171.733221 40.677921 
L 171.870139 39.545959 
L 172.006431 40.677921 
L 172.141393 40.677921 
L 172.277878 41.243901 
L 172.550746 37.282058 
L 172.687266 40.677942 
L 172.823014 39.26299 
L 172.959402 40.677878 
L 173.095894 37.847996 
L 173.232164 37.84806 
L 173.368769 38.413935 
L 173.641412 37.282122 
L 173.915924 38.98 
L 174.050573 37.84806 
L 174.187 38.98 
L 174.324928 37.093412 
L 174.461462 39.545938 
L 174.595869 37.84806 
L 174.73247 38.98 
L 174.868469 37.848124 
L 175.004984 38.98 
L 175.142626 37.953146 
L 175.415421 37.74325 
L 175.550399 38.413935 
L 175.688085 37.281931 
L 175.82353 38.98 
L 175.960763 38.413935 
L 176.095734 38.98 
L 176.233572 35.018199 
L 176.370157 36.715993 
L 176.506139 36.716141 
L 176.779231 37.84806 
L 176.915141 36.999089 
L 177.188078 38.414062 
L 177.323037 37.84806 
L 177.460223 37.84806 
L 177.597277 38.98 
L 177.732092 38.414041 
L 178.005108 40.11194 
L 178.1412 38.98 
L 178.277773 40.111961 
L 178.415324 40.11194 
L 178.550759 38.98 
L 178.823154 41.809861 
L 178.959531 37.848039 
L 179.095881 40.677921 
L 179.233735 40.11194 
L 179.368576 38.98 
L 179.504809 40.11194 
L 179.641346 38.413956 
L 179.779038 40.111961 
L 179.914154 38.413998 
L 180.050644 38.414041 
L 180.186889 38.98 
L 180.324173 37.282058 
L 180.597165 39.546002 
L 180.733117 38.413998 
L 180.870514 38.413998 
L 181.005506 37.847996 
L 181.279466 41.244007 
L 181.41481 38.413935 
L 181.550977 38.98 
L 181.686829 40.677942 
L 181.824012 39.546065 
L 181.959781 39.545938 
L 182.097241 40.677794 
L 182.232901 38.875126 
L 182.370311 38.98 
L 182.506776 40.677794 
L 182.641159 39.545938 
L 182.914734 41.809797 
L 183.187161 39.545959 
L 183.324664 38.98 
L 183.596847 40.112004 
L 183.732572 41.243859 
L 183.868452 39.545938 
L 184.005262 39.546002 
L 184.141316 38.98 
L 184.277488 40.677899 
L 184.552253 39.828971 
L 184.688085 39.545938 
L 184.824183 38.98 
L 184.960996 38.98 
L 185.095837 37.848039 
L 185.232025 39.545981 
L 185.369251 39.545959 
L 185.506242 35.584159 
L 185.779244 37.848039 
L 185.916024 38.98 
L 186.051931 38.98 
L 186.186944 38.414041 
L 186.597052 32.754298 
L 186.733768 36.150139 
L 186.868454 33.320257 
L 187.00709 33.320257 
L 187.141149 33.886196 
L 187.55017 29.358393 
L 187.686511 30.207364 
L 187.82492 28.792391 
L 187.960315 31.622316 
L 188.234589 30.49046 
L 188.368424 30.490333 
L 188.505276 29.358457 
L 188.777447 29.924522 
L 188.914276 32.188254 
L 189.052255 30.490333 
L 189.186648 30.490333 
L 189.459519 32.754319 
L 189.596948 31.056399 
L 189.732831 31.622252 
L 189.869264 31.622252 
L 190.142741 30.49046 
L 190.278561 31.056399 
L 190.413717 30.490397 
L 190.687148 30.49046 
L 190.822897 30.207364 
L 190.959089 31.056335 
L 191.231949 31.056356 
L 191.369158 29.924458 
L 191.778558 32.754298 
L 191.915367 32.754319 
L 192.050713 31.622294 
L 192.188331 31.622316 
L 192.323379 31.056335 
L 192.45911 32.188254 
L 192.595285 31.056293 
L 192.733206 31.056314 
L 192.869407 32.18836 
L 193.004867 31.056314 
L 193.142178 31.622379 
L 193.277598 34.452219 
L 193.414813 31.056314 
L 193.825208 33.886196 
L 193.961404 34.452134 
L 194.096047 35.584201 
L 194.23167 32.75415 
L 194.505823 35.018305 
L 194.642713 33.886153 
L 194.77856 35.018136 
L 195.050039 35.018136 
L 195.186692 34.863748 
L 195.323903 35.018199 
L 195.459567 33.320321 
L 195.732641 35.018199 
L 195.868046 34.452261 
L 196.005306 35.018136 
L 196.140865 36.150139 
L 196.278355 35.584138 
L 196.416481 36.149991 
L 196.551363 35.018199 
L 196.687398 36.150055 
L 196.82299 33.886196 
L 196.959129 36.150139 
L 197.09638 36.150139 
L 197.234112 37.386975 
L 197.36904 35.018263 
L 197.505802 35.01822 
L 197.641069 36.716141 
L 197.777182 36.71612 
L 197.914103 36.464592 
L 198.051151 36.716141 
L 198.187842 37.282058 
L 198.323411 36.716141 
L 198.459603 37.282206 
L 198.732637 39.546002 
L 198.868098 38.98 
L 199.004786 37.281995 
L 199.141221 38.413998 
L 199.278532 37.84806 
L 199.413571 37.84806 
L 199.552465 36.716141 
L 199.823476 38.98 
L 199.960925 38.414104 
L 200.096784 38.98 
L 200.232314 40.11194 
L 200.3687 37.282058 
L 200.50647 38.414104 
L 200.77715 38.413998 
L 200.915663 37.743186 
L 201.049753 38.98 
L 201.324145 37.848039 
L 201.460808 39.546044 
L 201.73256 38.414104 
L 201.869246 38.98 
L 202.277797 38.98 
L 202.415437 39.546002 
L 202.686573 38.98 
L 202.823454 39.546002 
L 202.95931 38.98 
L 203.095715 38.98 
L 203.23382 40.678005 
L 203.504614 38.696989 
L 203.641048 38.413892 
L 203.777583 39.545896 
L 204.049701 39.545981 
L 204.187458 40.111961 
L 204.324179 39.545896 
L 204.459988 39.545896 
L 204.595815 40.112004 
L 204.733232 40.111982 
L 205.004767 38.98 
L 205.142343 40.111961 
L 205.279352 39.26299 
L 205.413728 40.677899 
L 205.549951 40.11194 
L 205.9589 40.11194 
L 206.097022 39.546002 
L 206.233049 41.243944 
L 206.36859 38.414062 
L 206.504433 40.11194 
L 206.642433 39.828929 
L 206.777149 40.111876 
L 206.913839 40.111961 
L 207.050313 40.677963 
L 207.186248 40.677899 
L 207.323998 40.11194 
L 207.460473 38.98 
L 207.596574 40.677921 
L 207.734183 39.545959 
L 207.869434 40.677921 
L 208.006091 40.523618 
L 208.142525 40.111961 
L 208.278973 38.98 
L 208.414588 38.98 
L 208.551767 40.677963 
L 208.687538 40.677878 
L 208.823602 40.111961 
L 208.958792 40.11194 
L 209.095435 39.546065 
L 209.368252 39.546002 
L 209.505855 40.677942 
L 209.642562 39.546002 
L 209.777383 41.243901 
L 210.050484 41.243859 
L 210.323931 42.941864 
L 210.459198 41.243859 
L 210.596572 41.809861 
L 210.867768 46.337621 
L 211.004767 45.205723 
L 211.278807 46.337706 
L 211.415203 46.903686 
L 211.551422 48.035626 
L 211.687586 46.903686 
L 211.8245 49.733483 
L 211.959295 48.601564 
L 212.233176 48.601501 
L 212.369396 49.270428 
L 212.505536 48.035584 
L 212.642311 49.167503 
L 212.778301 47.469603 
L 213.049939 49.167503 
L 213.186579 48.601543 
L 213.322701 48.601564 
L 213.459115 48.035647 
L 213.869355 48.035605 
L 214.005848 48.601543 
L 214.143639 49.733505 
L 214.413555 47.469667 
L 214.550344 48.601543 
L 214.686931 48.601607 
L 214.959934 47.46954 
L 215.095327 49.167609 
L 215.233087 47.469667 
L 215.369114 48.035605 
L 215.642154 46.903601 
L 215.778183 48.601543 
L 216.050956 46.337536 
L 216.322313 47.46954 
L 216.46175 46.337536 
L 216.595935 46.90375 
L 216.733803 46.337684 
L 217.005381 46.337684 
L 217.140332 45.205808 
L 217.278321 45.771598 
L 217.549692 42.941801 
L 217.687629 45.205744 
L 217.958644 43.507803 
L 218.096481 44.639743 
L 218.231197 43.507866 
L 218.503998 44.639743 
L 218.640904 42.941843 
L 218.778117 43.507803 
L 218.914163 43.507781 
L 219.462028 41.243901 
L 219.596843 42.375841 
L 219.731563 41.809861 
L 219.86856 43.507781 
L 220.006362 42.941822 
L 220.140841 41.809861 
L 220.278346 42.94178 
L 220.550379 41.243922 
L 220.687743 41.809903 
L 220.822582 43.507803 
L 220.960982 40.677899 
L 221.095369 41.809945 
L 221.232628 41.243944 
L 221.369307 41.243859 
L 221.504169 42.09283 
L 221.642789 41.809945 
L 222.186037 41.809945 
L 222.32218 41.243859 
L 222.460158 40.112004 
L 222.73142 41.244007 
L 222.869462 40.11194 
L 223.004149 40.112004 
L 223.140751 41.243859 
L 223.277648 40.111876 
L 223.413035 37.847996 
L 223.549744 40.111728 
L 223.685746 38.414062 
L 223.823716 40.678005 
L 224.096201 37.282206 
L 224.231756 39.546002 
L 224.503977 37.282058 
L 224.777006 40.677942 
L 224.914635 38.414062 
L 225.049223 38.98 
L 225.186397 37.436445 
L 225.459793 38.98 
L 225.596046 38.414019 
L 225.731178 39.545938 
L 226.00538 38.414041 
L 226.140853 40.677921 
L 226.413126 38.414041 
L 226.687117 37.282079 
L 226.822279 37.84806 
L 226.958331 37.84806 
L 227.095253 37.282122 
L 227.231339 37.848039 
L 227.367529 37.84806 
L 227.505313 38.98 
L 227.640414 37.84806 
L 227.776488 37.848039 
L 227.914085 36.150139 
L 228.186251 38.414062 
L 228.321924 37.84806 
L 228.458419 36.716056 
L 228.731635 36.716205 
L 229.003562 37.847996 
L 229.141004 39.262969 
L 229.276196 37.281931 
L 229.685338 38.98 
L 229.823178 40.677942 
L 229.957986 40.677942 
L 230.09436 38.309188 
L 230.231456 38.413935 
L 230.368242 40.677942 
L 230.503323 39.546002 
L 230.639878 39.546002 
L 230.914604 38.414062 
L 231.18616 39.545875 
L 231.32276 38.414062 
L 231.459178 38.413998 
L 231.594132 37.84806 
L 231.731379 38.98 
L 231.867922 37.282101 
L 232.004079 38.414041 
L 232.139443 37.848039 
L 232.276091 38.98 
L 232.413676 38.414041 
L 232.549014 39.545959 
L 232.685511 38.414041 
L 232.821903 40.11194 
L 232.95816 39.545981 
L 233.094478 37.84806 
L 233.230302 38.98 
L 233.367069 37.282079 
L 233.640135 38.98 
L 233.91349 37.84806 
L 234.049044 38.98 
L 234.32119 37.84806 
L 234.59389 38.98 
L 234.730855 37.282058 
L 234.866508 38.98 
L 235.002881 38.98 
L 235.140356 38.414062 
L 235.412029 40.677878 
L 235.548928 39.546065 
L 235.685229 40.11194 
L 235.82109 38.98 
L 236.094308 41.243859 
L 236.231278 40.112004 
L 236.366513 40.112131 
L 236.639632 38.414062 
L 236.775451 40.677878 
L 236.91226 40.677942 
L 237.048376 39.546065 
L 237.184806 39.546065 
L 237.321527 40.677942 
L 237.457659 40.677942 
L 237.593764 38.414062 
L 237.730417 39.263033 
L 237.866646 37.848124 
L 238.003123 40.112004 
L 238.275849 37.847996 
L 238.411788 40.677942 
L 238.548391 39.545938 
L 238.684731 39.546065 
L 238.820818 37.847996 
L 238.957419 40.112131 
L 239.093691 38.98 
L 239.232076 41.243859 
L 239.366461 40.677942 
L 239.502995 39.262969 
L 239.775314 40.677878 
L 239.911674 40.960932 
L 240.048377 40.11194 
L 240.184888 40.11194 
L 240.321035 40.677878 
L 240.457608 39.546065 
L 240.593789 40.111876 
L 240.73011 39.545938 
L 240.866383 40.11194 
L 241.003159 40.111792 
L 241.13913 39.546002 
L 241.275553 40.677942 
L 241.411708 40.677942 
L 241.684815 39.546002 
L 241.820964 40.677942 
L 241.957509 38.98 
L 242.093543 39.546002 
L 242.229863 40.677794 
L 242.366431 40.677942 
L 242.502729 40.112004 
L 242.775199 40.112004 
L 242.91163 40.678005 
L 243.048166 40.112004 
L 243.184501 40.677878 
L 243.320683 40.678005 
L 243.457006 41.244007 
L 243.59397 40.111876 
L 243.730144 40.678005 
L 243.866309 40.677878 
L 244.00252 41.243965 
L 244.138953 40.677878 
L 244.275447 41.809734 
L 244.411676 41.809945 
L 244.54788 42.375862 
L 244.684464 42.375862 
L 244.820797 42.941801 
L 244.95724 42.375841 
L 244.95724 42.375841 
" clip-path="url(#p16c58cc5a2)" style="fill: none; stroke: #0000ff; stroke-width: 2; stroke-linecap: square"/>
   </g>
   <g id="line2d_26">
    <path d="M 159.625 17.793333 
L 249.02068 17.793333 
" clip-path="url(#p16c58cc5a2)" style="fill: none; stroke-dasharray: 7.4,3.2; stroke-dashoffset: 0; stroke: #000000; stroke-opacity: 0.7; stroke-width: 2"/>
   </g>
   <g id="line2d_27">
    <path d="M 159.625 60.166667 
L 249.02068 60.166667 
" clip-path="url(#p16c58cc5a2)" style="fill: none; stroke-dasharray: 7.4,3.2; stroke-dashoffset: 0; stroke: #000000; stroke-opacity: 0.7; stroke-width: 2"/>
   </g>
   <g id="patch_8">
    <path d="M 159.625 70.76 
L 159.625 7.2 
" style="fill: none; stroke: #000000; stroke-width: 0.8; stroke-linejoin: miter; stroke-linecap: square"/>
   </g>
   <g id="patch_9">
    <path d="M 249.02068 70.76 
L 249.02068 7.2 
" style="fill: none; stroke: #000000; stroke-width: 0.8; stroke-linejoin: miter; stroke-linecap: square"/>
   </g>
   <g id="patch_10">
    <path d="M 159.625 70.76 
L 249.02068 70.76 
" style="fill: none; stroke: #000000; stroke-width: 0.8; stroke-linejoin: miter; stroke-linecap: square"/>
   </g>
   <g id="patch_11">
    <path d="M 159.625 7.2 
L 249.02068 7.2 
" style="fill: none; stroke: #000000; stroke-width: 0.8; stroke-linejoin: miter; stroke-linecap: square"/>
   </g>
  </g>
 </g>
 <defs>
  <clipPath id="peab90407e6">
   <rect x="35.2" y="7.2" width="89.39568" height="63.56"/>
  </clipPath>
  <clipPath id="p16c58cc5a2">
   <rect x="159.625" y="7.2" width="89.39568" height="63.56"/>
  </clipPath>
 </defs>
</svg>
