<?xml version="1.0" encoding="utf-8" standalone="no"?>
<!DOCTYPE svg PUBLIC "-//W3C//DTD SVG 1.1//EN"
  "http://www.w3.org/Graphics/SVG/1.1/DTD/svg11.dtd">
<svg xmlns:xlink="http://www.w3.org/1999/xlink" width="489.009375pt" height="200.205pt" viewBox="0 0 489.009375 200.205" xmlns="http://www.w3.org/2000/svg" version="1.1">
 <metadata>
  <rdf:RDF xmlns:dc="http://purl.org/dc/elements/1.1/" xmlns:cc="http://creativecommons.org/ns#" xmlns:rdf="http://www.w3.org/1999/02/22-rdf-syntax-ns#">
   <cc:Work>
    <dc:type rdf:resource="http://purl.org/dc/dcmitype/StillImage"/>
    <dc:date>2026-01-18T23:30:35.060923</dc:date>
    <dc:format>image/svg+xml</dc:format>
    <dc:creator>
     <cc:Agent>
      <dc:title>Matplotlib v3.6.3, https://matplotlib.org/</dc:title>
     </cc:Agent>
    </dc:creator>
   </cc:Work>
  </rdf:RDF>
 </metadata>
 <defs>
  <style type="text/css">*{stroke-linejoin: round; stroke-linecap: butt}</style>
 </defs>
 <g id="figure_1">
  <g id="patch_1">
   <path d="M 0 200.205 
L 489.009375 200.205 
L 489.009375 -0 
L 0 -0 
z
" style="fill: #ffffff"/>
  </g>
  <g id="axes_1">
   <g id="patch_2">
    <path d="M 50.099375 160.20625 
L 235.929375 160.20625 
L 235.929375 11.36625 
L 50.099375 11.36625 
z
" style="fill: #ffffff"/>
   </g>
   <g id="matplotlib.axis_1">
    <g id="xtick_1">
     <g id="line2d_1">
      <path d="M 58.546193 160.20625 
L 58.546193 11.36625 
" clip-path="url(#p7938d3ea9a)" style="fill: none; stroke: #b0b0b0; stroke-opacity: 0.3; stroke-width: 0.8; stroke-linecap: square"/>
     </g>
     <g id="line2d_2">
      <defs>
       <path id="m925739a029" d="M 0 0 
L 0 3.5 
" style="stroke: #000000; stroke-width: 0.8"/>
      </defs>
      <g>
       <use xlink:href="#m925739a029" x="58.546193" y="160.20625" style="stroke: #000000; stroke-width: 0.8"/>
      </g>
     </g>
     <g id="text_1">
      <!-- 0 -->
      <g transform="translate(55.546193 175.53875) scale(0.12 -0.12)">
       <defs>
        <path id="TimesNewRomanPSMT-30" d="M 231 2094 
Q 231 2819 450 3342 
Q 669 3866 1031 4122 
Q 1313 4325 1613 4325 
Q 2100 4325 2488 3828 
Q 2972 3213 2972 2159 
Q 2972 1422 2759 906 
Q 2547 391 2217 158 
Q 1888 -75 1581 -75 
Q 975 -75 572 641 
Q 231 1244 231 2094 
z
M 844 2016 
Q 844 1141 1059 588 
Q 1238 122 1591 122 
Q 1759 122 1940 273 
Q 2122 425 2216 781 
Q 2359 1319 2359 2297 
Q 2359 3022 2209 3506 
Q 2097 3866 1919 4016 
Q 1791 4119 1609 4119 
Q 1397 4119 1231 3928 
Q 1006 3669 925 3112 
Q 844 2556 844 2016 
z
" transform="scale(0.015625)"/>
       </defs>
       <use xlink:href="#TimesNewRomanPSMT-30"/>
      </g>
     </g>
    </g>
    <g id="xtick_2">
     <g id="line2d_3">
      <path d="M 103.397809 160.20625 
L 103.397809 11.36625 
" clip-path="url(#p7938d3ea9a)" style="fill: none; stroke: #b0b0b0; stroke-opacity: 0.3; stroke-width: 0.8; stroke-linecap: square"/>
     </g>
     <g id="line2d_4">
      <g>
       <use xlink:href="#m925739a029" x="103.397809" y="160.20625" style="stroke: #000000; stroke-width: 0.8"/>
      </g>
     </g>
     <g id="text_2">
      <!-- 5 -->
      <g transform="translate(100.397809 175.53875) scale(0.12 -0.12)">
       <defs>
        <path id="TimesNewRomanPSMT-35" d="M 2778 4238 
L 2534 3706 
L 1259 3706 
L 981 3138 
Q 1809 3016 2294 2522 
Q 2709 2097 2709 1522 
Q 2709 1188 2573 903 
Q 2438 619 2231 419 
Q 2025 219 1772 97 
Q 1413 -75 1034 -75 
Q 653 -75 479 54 
Q 306 184 306 341 
Q 306 428 378 495 
Q 450 563 559 563 
Q 641 563 702 538 
Q 763 513 909 409 
Q 1144 247 1384 247 
Q 1750 247 2026 523 
Q 2303 800 2303 1197 
Q 2303 1581 2056 1914 
Q 1809 2247 1375 2428 
Q 1034 2569 447 2591 
L 1259 4238 
L 2778 4238 
z
" transform="scale(0.015625)"/>
       </defs>
       <use xlink:href="#TimesNewRomanPSMT-35"/>
      </g>
     </g>
    </g>
    <g id="xtick_3">
     <g id="line2d_5">
      <path d="M 148.249425 160.20625 
L 148.249425 11.36625 
" clip-path="url(#p7938d3ea9a)" style="fill: none; stroke: #b0b0b0; stroke-opacity: 0.3; stroke-width: 0.8; stroke-linecap: square"/>
     </g>
     <g id="line2d_6">
      <g>
       <use xlink:href="#m925739a029" x="148.249425" y="160.20625" style="stroke: #000000; stroke-width: 0.8"/>
      </g>
     </g>
     <g id="text_3">
      <!-- 10 -->
      <g transform="translate(142.249425 175.53875) scale(0.12 -0.12)">
       <defs>
        <path id="TimesNewRomanPSMT-31" d="M 750 3822 
L 1781 4325 
L 1884 4325 
L 1884 747 
Q 1884 391 1914 303 
Q 1944 216 2037 169 
Q 2131 122 2419 116 
L 2419 0 
L 825 0 
L 825 116 
Q 1125 122 1212 167 
Q 1300 213 1334 289 
Q 1369 366 1369 747 
L 1369 3034 
Q 1369 3497 1338 3628 
Q 1316 3728 1258 3775 
Q 1200 3822 1119 3822 
Q 1003 3822 797 3725 
L 750 3822 
z
" transform="scale(0.015625)"/>
       </defs>
       <use xlink:href="#TimesNewRomanPSMT-31"/>
       <use xlink:href="#TimesNewRomanPSMT-30" x="50"/>
      </g>
     </g>
    </g>
    <g id="xtick_4">
     <g id="line2d_7">
      <path d="M 193.101041 160.20625 
L 193.101041 11.36625 
" clip-path="url(#p7938d3ea9a)" style="fill: none; stroke: #b0b0b0; stroke-opacity: 0.3; stroke-width: 0.8; stroke-linecap: square"/>
     </g>
     <g id="line2d_8">
      <g>
       <use xlink:href="#m925739a029" x="193.101041" y="160.20625" style="stroke: #000000; stroke-width: 0.8"/>
      </g>
     </g>
     <g id="text_4">
      <!-- 15 -->
      <g transform="translate(187.101041 175.53875) scale(0.12 -0.12)">
       <use xlink:href="#TimesNewRomanPSMT-31"/>
       <use xlink:href="#TimesNewRomanPSMT-35" x="50"/>
      </g>
     </g>
    </g>
    <g id="text_5">
     <!-- $t$ [s] -->
     <g transform="translate(133.474375 190.438125) scale(0.12 -0.12)">
      <defs>
       <path id="STIXGeneral-Italic-74" d="M 1894 2739 
L 1862 2534 
L 1325 2534 
L 768 435 
Q 755 384 755 346 
Q 755 243 851 243 
Q 928 243 1030 342 
Q 1133 442 1370 749 
L 1453 704 
Q 1158 256 969 93 
Q 781 -70 538 -70 
Q 243 -70 243 166 
Q 243 230 346 640 
L 845 2534 
L 365 2534 
L 358 2573 
Q 358 2688 570 2733 
Q 730 2771 992 2979 
Q 1254 3187 1421 3437 
Q 1459 3494 1510 3494 
Q 1568 3494 1568 3443 
Q 1568 3411 1562 3398 
L 1382 2739 
L 1894 2739 
z
" transform="scale(0.015625)"/>
       <path id="TimesNewRomanPSMT-20" transform="scale(0.015625)"/>
       <path id="TimesNewRomanPSMT-5b" d="M 1900 -1269 
L 525 -1269 
L 525 4334 
L 1900 4334 
L 1900 4088 
L 994 4088 
L 994 -1025 
L 1900 -1025 
L 1900 -1269 
z
" transform="scale(0.015625)"/>
       <path id="TimesNewRomanPSMT-73" d="M 2050 2947 
L 2050 1972 
L 1947 1972 
Q 1828 2431 1642 2597 
Q 1456 2763 1169 2763 
Q 950 2763 815 2647 
Q 681 2531 681 2391 
Q 681 2216 781 2091 
Q 878 1963 1175 1819 
L 1631 1597 
Q 2266 1288 2266 781 
Q 2266 391 1970 151 
Q 1675 -88 1309 -88 
Q 1047 -88 709 6 
Q 606 38 541 38 
Q 469 38 428 -44 
L 325 -44 
L 325 978 
L 428 978 
Q 516 541 762 319 
Q 1009 97 1316 97 
Q 1531 97 1667 223 
Q 1803 350 1803 528 
Q 1803 744 1651 891 
Q 1500 1038 1047 1263 
Q 594 1488 453 1669 
Q 313 1847 313 2119 
Q 313 2472 555 2709 
Q 797 2947 1181 2947 
Q 1350 2947 1591 2875 
Q 1750 2828 1803 2828 
Q 1853 2828 1881 2850 
Q 1909 2872 1947 2947 
L 2050 2947 
z
" transform="scale(0.015625)"/>
       <path id="TimesNewRomanPSMT-5d" d="M 234 4334 
L 1609 4334 
L 1609 -1272 
L 234 -1272 
L 234 -1025 
L 1141 -1025 
L 1141 4088 
L 234 4088 
L 234 4334 
z
" transform="scale(0.015625)"/>
      </defs>
      <use xlink:href="#STIXGeneral-Italic-74" transform="translate(0 0.28125)"/>
      <use xlink:href="#TimesNewRomanPSMT-20" transform="translate(27.799988 0.28125)"/>
      <use xlink:href="#TimesNewRomanPSMT-5b" transform="translate(52.799988 0.28125)"/>
      <use xlink:href="#TimesNewRomanPSMT-73" transform="translate(86.100769 0.28125)"/>
      <use xlink:href="#TimesNewRomanPSMT-5d" transform="translate(125.016785 0.28125)"/>
     </g>
    </g>
   </g>
   <g id="matplotlib.axis_2">
    <g id="ytick_1">
     <g id="line2d_9">
      <path d="M 50.099375 153.440795 
L 235.929375 153.440795 
" clip-path="url(#p7938d3ea9a)" style="fill: none; stroke: #b0b0b0; stroke-opacity: 0.3; stroke-width: 0.8; stroke-linecap: square"/>
     </g>
     <g id="line2d_10">
      <defs>
       <path id="m9979f5ba8c" d="M 0 0 
L -3.5 0 
" style="stroke: #000000; stroke-width: 0.8"/>
      </defs>
      <g>
       <use xlink:href="#m9979f5ba8c" x="50.099375" y="153.440795" style="stroke: #000000; stroke-width: 0.8"/>
      </g>
     </g>
     <g id="text_6">
      <!-- 0.00 -->
      <g transform="translate(22.099375 157.607045) scale(0.12 -0.12)">
       <defs>
        <path id="TimesNewRomanPSMT-2e" d="M 800 606 
Q 947 606 1047 504 
Q 1147 403 1147 259 
Q 1147 116 1045 14 
Q 944 -88 800 -88 
Q 656 -88 554 14 
Q 453 116 453 259 
Q 453 406 554 506 
Q 656 606 800 606 
z
" transform="scale(0.015625)"/>
       </defs>
       <use xlink:href="#TimesNewRomanPSMT-30"/>
       <use xlink:href="#TimesNewRomanPSMT-2e" x="50"/>
       <use xlink:href="#TimesNewRomanPSMT-30" x="75"/>
       <use xlink:href="#TimesNewRomanPSMT-30" x="125"/>
      </g>
     </g>
    </g>
    <g id="ytick_2">
     <g id="line2d_11">
      <path d="M 50.099375 89.615753 
L 235.929375 89.615753 
" clip-path="url(#p7938d3ea9a)" style="fill: none; stroke: #b0b0b0; stroke-opacity: 0.3; stroke-width: 0.8; stroke-linecap: square"/>
     </g>
     <g id="line2d_12">
      <g>
       <use xlink:href="#m9979f5ba8c" x="50.099375" y="89.615753" style="stroke: #000000; stroke-width: 0.8"/>
      </g>
     </g>
     <g id="text_7">
      <!-- 0.25 -->
      <g transform="translate(22.099375 93.782003) scale(0.12 -0.12)">
       <defs>
        <path id="TimesNewRomanPSMT-32" d="M 2934 816 
L 2638 0 
L 138 0 
L 138 116 
Q 1241 1122 1691 1759 
Q 2141 2397 2141 2925 
Q 2141 3328 1894 3587 
Q 1647 3847 1303 3847 
Q 991 3847 742 3664 
Q 494 3481 375 3128 
L 259 3128 
Q 338 3706 661 4015 
Q 984 4325 1469 4325 
Q 1984 4325 2329 3994 
Q 2675 3663 2675 3213 
Q 2675 2891 2525 2569 
Q 2294 2063 1775 1497 
Q 997 647 803 472 
L 1909 472 
Q 2247 472 2383 497 
Q 2519 522 2628 598 
Q 2738 675 2819 816 
L 2934 816 
z
" transform="scale(0.015625)"/>
       </defs>
       <use xlink:href="#TimesNewRomanPSMT-30"/>
       <use xlink:href="#TimesNewRomanPSMT-2e" x="50"/>
       <use xlink:href="#TimesNewRomanPSMT-32" x="75"/>
       <use xlink:href="#TimesNewRomanPSMT-35" x="125"/>
      </g>
     </g>
    </g>
    <g id="ytick_3">
     <g id="line2d_13">
      <path d="M 50.099375 25.79071 
L 235.929375 25.79071 
" clip-path="url(#p7938d3ea9a)" style="fill: none; stroke: #b0b0b0; stroke-opacity: 0.3; stroke-width: 0.8; stroke-linecap: square"/>
     </g>
     <g id="line2d_14">
      <g>
       <use xlink:href="#m9979f5ba8c" x="50.099375" y="25.79071" style="stroke: #000000; stroke-width: 0.8"/>
      </g>
     </g>
     <g id="text_8">
      <!-- 0.50 -->
      <g transform="translate(22.099375 29.95696) scale(0.12 -0.12)">
       <use xlink:href="#TimesNewRomanPSMT-30"/>
       <use xlink:href="#TimesNewRomanPSMT-2e" x="50"/>
       <use xlink:href="#TimesNewRomanPSMT-35" x="75"/>
       <use xlink:href="#TimesNewRomanPSMT-30" x="125"/>
      </g>
     </g>
    </g>
    <g id="text_9">
     <!-- $v$ [m/s] -->
     <g transform="translate(15.5325 102.64625) rotate(-90) scale(0.12 -0.12)">
      <defs>
       <path id="STIXGeneral-Italic-76" d="M 1325 448 
L 1523 653 
Q 1869 1005 2134 1456 
Q 2400 1907 2400 2131 
Q 2400 2208 2285 2317 
Q 2125 2458 2125 2605 
Q 2125 2701 2195 2761 
Q 2266 2822 2368 2822 
Q 2522 2822 2624 2704 
Q 2726 2586 2726 2445 
Q 2726 2074 2323 1453 
Q 1971 909 1562 474 
Q 1504 416 1421 326 
Q 1338 237 1299 192 
Q 1261 147 1200 86 
Q 1139 26 1110 -3 
Q 1082 -32 1043 -64 
Q 1005 -96 979 -105 
Q 954 -115 928 -115 
Q 870 -115 870 58 
L 870 211 
Q 870 1094 717 1990 
Q 653 2355 579 2470 
Q 506 2586 326 2586 
Q 198 2586 128 2579 
L 128 2662 
Q 480 2720 845 2797 
Q 915 2822 973 2822 
Q 1011 2822 1033 2739 
Q 1056 2656 1165 2093 
Q 1280 1510 1325 448 
z
" transform="scale(0.015625)"/>
       <path id="TimesNewRomanPSMT-6d" d="M 1050 2338 
Q 1363 2650 1419 2697 
Q 1559 2816 1721 2881 
Q 1884 2947 2044 2947 
Q 2313 2947 2506 2790 
Q 2700 2634 2766 2338 
Q 3088 2713 3309 2830 
Q 3531 2947 3766 2947 
Q 3994 2947 4170 2830 
Q 4347 2713 4450 2447 
Q 4519 2266 4519 1878 
L 4519 647 
Q 4519 378 4559 278 
Q 4591 209 4675 161 
Q 4759 113 4950 113 
L 4950 0 
L 3538 0 
L 3538 113 
L 3597 113 
Q 3781 113 3884 184 
Q 3956 234 3988 344 
Q 4000 397 4000 647 
L 4000 1878 
Q 4000 2228 3916 2372 
Q 3794 2572 3525 2572 
Q 3359 2572 3192 2489 
Q 3025 2406 2788 2181 
L 2781 2147 
L 2788 2013 
L 2788 647 
Q 2788 353 2820 281 
Q 2853 209 2943 161 
Q 3034 113 3253 113 
L 3253 0 
L 1806 0 
L 1806 113 
Q 2044 113 2133 169 
Q 2222 225 2256 338 
Q 2272 391 2272 647 
L 2272 1878 
Q 2272 2228 2169 2381 
Q 2031 2581 1784 2581 
Q 1616 2581 1450 2491 
Q 1191 2353 1050 2181 
L 1050 647 
Q 1050 366 1089 281 
Q 1128 197 1204 155 
Q 1281 113 1516 113 
L 1516 0 
L 100 0 
L 100 113 
Q 297 113 375 155 
Q 453 197 493 289 
Q 534 381 534 647 
L 534 1741 
Q 534 2213 506 2350 
Q 484 2453 437 2492 
Q 391 2531 309 2531 
Q 222 2531 100 2484 
L 53 2597 
L 916 2947 
L 1050 2947 
L 1050 2338 
z
" transform="scale(0.015625)"/>
       <path id="TimesNewRomanPSMT-2f" d="M 1794 4444 
L 259 -88 
L 9 -88 
L 1544 4444 
L 1794 4444 
z
" transform="scale(0.015625)"/>
      </defs>
      <use xlink:href="#STIXGeneral-Italic-76" transform="translate(0 0.5625)"/>
      <use xlink:href="#TimesNewRomanPSMT-20" transform="translate(44.399994 0.5625)"/>
      <use xlink:href="#TimesNewRomanPSMT-5b" transform="translate(69.399994 0.5625)"/>
      <use xlink:href="#TimesNewRomanPSMT-6d" transform="translate(102.700775 0.5625)"/>
      <use xlink:href="#TimesNewRomanPSMT-2f" transform="translate(180.483978 0.5625)"/>
      <use xlink:href="#TimesNewRomanPSMT-73" transform="translate(208.267181 0.5625)"/>
      <use xlink:href="#TimesNewRomanPSMT-5d" transform="translate(247.183197 0.5625)"/>
     </g>
    </g>
   </g>
   <g id="line2d_15">
    <path d="M 58.546193 25.79071 
L 213.132641 25.79071 
L 213.429934 27.668187 
L 214.029514 35.080572 
L 214.625283 43.03113 
L 215.821398 58.180642 
L 216.121347 59.927917 
L 217.615579 72.416691 
L 217.914356 75.855584 
L 218.512206 79.201803 
L 219.110428 83.724701 
L 219.70807 87.639219 
L 220.008512 88.612678 
L 220.60526 91.445744 
L 220.905214 95.85197 
L 221.20364 104.454564 
L 221.501962 108.617234 
L 221.802583 110.474542 
L 222.100982 111.360945 
L 222.998193 116.42176 
L 223.296087 117.404666 
L 223.595699 119.029651 
L 223.894893 121.74145 
L 224.791783 124.443036 
L 225.389267 115.219296 
L 226.288299 117.72762 
L 226.585876 118.206819 
L 226.884681 120.047022 
L 227.18366 122.977102 
L 227.482557 123.848953 
L 227.482557 123.848953 
" clip-path="url(#p7938d3ea9a)" style="fill: none; stroke: #ff0000; stroke-opacity: 0.8; stroke-linecap: square"/>
   </g>
   <g id="line2d_16">
    <path d="M 58.546193 153.440795 
L 59.445774 153.440795 
L 59.743129 150.058068 
L 60.637571 136.527159 
L 60.935606 122.99625 
L 61.236486 117.922159 
L 61.537618 116.230795 
L 61.836369 117.922159 
L 62.131926 112.848068 
L 62.434048 111.156705 
L 62.731491 103.545696 
L 63.029182 104.39125 
L 63.33343 102.699886 
L 63.626679 89.168977 
L 64.225273 80.712159 
L 64.523338 77.329432 
L 64.822787 75.638068 
L 65.723031 46.884886 
L 66.022197 48.57625 
L 66.317968 38.428068 
L 66.617532 45.193523 
L 66.918596 38.427813 
L 67.519568 38.428068 
L 67.81696 28.279886 
L 68.411839 19.823323 
L 68.71271 19.823068 
L 69.307758 26.588523 
L 69.609384 22.964026 
L 69.909426 23.206051 
L 70.205158 24.89767 
L 70.504594 24.897159 
L 70.80298 23.20554 
L 71.102685 28.279631 
L 71.405069 23.20554 
L 71.699372 24.896904 
L 72.002779 24.896904 
L 72.3005 22.892542 
L 72.598692 26.588523 
L 72.897403 23.206051 
L 73.197666 23.206051 
L 74.094567 28.280142 
L 74.393586 23.20554 
L 74.690319 21.514432 
L 74.99449 28.279886 
L 75.287634 23.205795 
L 75.591487 26.588523 
L 75.889817 24.897159 
L 76.184636 24.897159 
L 76.788239 26.588523 
L 77.085006 23.205795 
L 77.382956 24.897159 
L 77.681754 28.279886 
L 78.27982 24.897159 
L 78.876541 26.588523 
L 79.176009 26.588523 
L 79.477002 25.742713 
L 79.772674 23.205795 
L 80.073441 26.588523 
L 80.373869 26.588523 
L 80.673014 23.205795 
L 80.969244 23.205795 
L 81.267953 26.588523 
L 81.566981 23.205795 
L 81.866789 28.279886 
L 82.172308 26.588523 
L 82.463779 26.588523 
L 82.763844 24.897159 
L 83.065119 19.823323 
L 83.662732 28.279886 
L 83.962303 29.97125 
L 84.260533 24.897159 
L 84.556825 24.897159 
L 84.858002 26.588012 
L 85.454256 26.588523 
L 86.053377 29.97125 
L 86.353204 24.897414 
L 86.653277 24.58365 
L 86.951854 29.97125 
L 87.248112 26.588523 
L 87.550371 24.89767 
L 88.147365 28.280142 
L 88.746128 26.588523 
L 89.043717 28.279631 
L 89.342233 25.742713 
L 89.640029 29.97125 
L 89.942228 24.897414 
L 90.241844 23.206051 
L 90.542116 28.279631 
L 90.838316 26.588523 
L 91.136953 23.20554 
L 91.735459 23.205795 
L 92.333972 26.588523 
L 92.633472 24.897159 
L 92.931997 24.897159 
L 93.230268 25.742713 
L 93.529783 29.97125 
L 93.828111 26.588523 
L 94.125543 26.588523 
L 94.42545 24.897159 
L 94.725158 28.279886 
L 95.022359 26.588523 
L 95.321895 25.742969 
L 95.621346 26.588523 
L 95.92077 24.897159 
L 96.21886 26.588523 
L 96.520929 21.514432 
L 96.816916 24.897414 
L 97.119776 26.588523 
L 97.718216 23.205795 
L 98.012778 27.357232 
L 98.312443 26.588523 
L 99.213181 26.588267 
L 99.510807 23.205795 
L 99.809457 24.896904 
L 100.108069 23.20554 
L 100.708013 29.97125 
L 101.301786 26.588778 
L 101.604676 26.588523 
L 101.903005 28.279631 
L 102.199701 24.897159 
L 102.796899 28.279631 
L 103.096001 28.279631 
L 103.40039 26.588012 
L 103.993572 26.588523 
L 104.29184 24.896904 
L 104.594751 26.588523 
L 105.192914 23.205795 
L 105.49053 26.588523 
L 105.787605 31.662614 
L 106.388421 24.897159 
L 106.983999 28.279886 
L 107.283209 24.897159 
L 107.585532 24.897159 
L 107.880571 23.205795 
L 108.181635 23.205795 
L 108.478213 28.279886 
L 108.780862 28.279886 
L 109.079323 26.588523 
L 109.377121 29.97125 
L 109.67494 29.97125 
L 109.976566 26.588523 
L 110.275671 31.662614 
L 110.575288 26.588523 
L 110.873204 29.97125 
L 111.169629 24.897159 
L 111.473319 28.279886 
L 111.768467 23.205795 
L 112.066784 26.588523 
L 112.365602 27.357232 
L 112.966288 23.20554 
L 113.26677 23.206051 
L 113.56454 28.279886 
L 113.865112 26.588523 
L 114.160296 25.742713 
L 114.458244 28.279631 
L 114.757042 26.588523 
L 115.056213 23.20554 
L 115.360585 24.897159 
L 115.957689 24.897159 
L 116.255185 26.588523 
L 116.554593 21.514687 
L 116.854064 23.206051 
L 117.150632 29.97125 
L 117.448233 21.514432 
L 117.750659 26.588523 
L 118.04734 26.588523 
L 118.348483 24.896904 
L 118.647806 24.897159 
L 118.946861 26.588778 
L 119.245085 24.896904 
L 119.541347 24.896904 
L 120.139434 28.279886 
L 120.438237 28.279886 
L 120.739857 29.971505 
L 121.039056 26.588523 
L 121.33705 24.897414 
L 121.634617 21.514432 
L 121.933641 24.897159 
L 122.534354 24.897159 
L 122.833196 21.514432 
L 123.132777 28.279886 
L 123.430301 23.205795 
L 123.727911 28.279631 
L 124.026663 26.588523 
L 124.325727 29.97125 
L 124.627447 26.588523 
L 124.928615 26.588523 
L 125.22334 28.279886 
L 125.521888 26.588523 
L 125.820537 25.742713 
L 126.419305 27.357232 
L 126.721902 26.588523 
L 127.016509 23.20554 
L 127.315464 23.205795 
L 127.616703 28.280142 
L 127.915046 23.205795 
L 128.512866 26.588523 
L 128.811408 25.586214 
L 129.112566 28.279631 
L 129.409273 26.588778 
L 129.707988 28.280142 
L 130.009548 24.897159 
L 130.305635 23.20554 
L 130.605768 29.97125 
L 130.904225 24.897159 
L 131.205932 23.205795 
L 131.504669 26.588267 
L 131.803485 28.279886 
L 132.101552 26.588523 
L 132.399311 23.205795 
L 132.699629 26.588523 
L 132.997373 24.897159 
L 133.298967 26.588523 
L 133.598029 29.970995 
L 133.897024 23.205795 
L 134.196443 26.588267 
L 134.495022 24.897159 
L 134.79539 27.434077 
L 135.089965 24.897159 
L 135.393163 28.279886 
L 135.689419 28.279886 
L 135.988271 26.588267 
L 136.28945 23.20554 
L 136.588112 23.20554 
L 136.886937 21.514432 
L 137.187004 29.97125 
L 137.789127 26.588523 
L 138.082722 26.588523 
L 138.382436 28.279886 
L 138.679986 26.588267 
L 139.277763 26.588523 
L 139.577954 23.206051 
L 140.174882 35.045341 
L 140.471897 28.280142 
L 140.771004 24.897414 
L 141.072078 31.662614 
L 141.372413 23.205795 
L 141.670767 26.588523 
L 141.971152 24.897159 
L 142.271102 28.279631 
L 142.566324 26.588267 
L 142.86468 28.279886 
L 143.163672 26.588523 
L 143.46379 22.892542 
L 143.765016 26.588267 
L 144.061897 23.20554 
L 144.359245 26.588267 
L 144.658309 26.588523 
L 144.957236 29.97125 
L 145.260199 28.894904 
L 145.559047 26.588267 
L 145.856933 28.279886 
L 146.153229 24.897414 
L 146.456395 26.588523 
L 146.757347 24.897159 
L 147.050703 26.588523 
L 147.352892 24.897159 
L 147.651547 25.742969 
L 147.947923 24.897159 
L 148.250417 24.897159 
L 148.548226 28.280397 
L 148.845525 26.588778 
L 149.144247 28.279631 
L 149.445349 31.662358 
L 150.041475 21.200923 
L 150.340492 24.897159 
L 150.642578 24.897414 
L 150.939662 26.588267 
L 151.236886 26.588778 
L 151.536256 24.051605 
L 151.835699 29.97125 
L 152.133672 23.205795 
L 152.735342 23.206051 
L 153.033713 24.897159 
L 153.330522 24.897159 
L 153.628977 28.279886 
L 153.927485 29.971505 
L 154.227967 23.205795 
L 154.530814 27.434332 
L 154.826563 28.279886 
L 155.126001 19.823068 
L 155.426902 26.588523 
L 155.725273 23.205795 
L 156.321573 23.206051 
L 156.61921 28.279886 
L 156.918137 26.588267 
L 157.217748 31.662614 
L 157.516032 26.588523 
L 157.814623 26.588267 
L 158.114196 28.279886 
L 158.416357 24.896904 
L 158.71266 27.966378 
L 159.310469 24.897414 
L 159.612587 24.896904 
L 159.912149 23.20554 
L 160.210527 24.897159 
L 160.506351 25.742713 
L 160.805427 29.97125 
L 161.103929 26.588267 
L 161.405829 27.434077 
L 161.703567 26.588523 
L 162.000723 29.97125 
L 162.303846 24.897159 
L 162.901831 24.897159 
L 163.198852 26.588523 
L 164.094337 26.588267 
L 164.393675 24.05135 
L 164.694809 23.20554 
L 164.99389 24.897159 
L 165.294156 23.206051 
L 165.589146 26.588523 
L 165.888593 26.588267 
L 166.190463 29.971505 
L 166.489405 28.280142 
L 166.788174 21.514432 
L 167.0877 26.588523 
L 167.3864 28.279631 
L 167.686653 24.896904 
L 167.981951 26.588267 
L 168.280123 24.897159 
L 168.582867 31.662614 
L 168.878678 24.897159 
L 169.177139 24.897159 
L 169.477649 29.97125 
L 169.777062 22.744468 
L 170.074128 26.588523 
L 170.377046 24.05135 
L 170.677121 19.823068 
L 170.976081 24.897159 
L 171.271224 26.588523 
L 171.573633 24.897159 
L 171.871613 33.353977 
L 172.169969 26.588523 
L 172.466678 24.897414 
L 173.064203 28.279886 
L 173.363594 26.588778 
L 173.662369 28.894904 
L 173.961814 23.205795 
L 174.2639 28.279631 
L 174.562416 26.588523 
L 174.864389 26.588267 
L 175.158816 29.97125 
L 175.456212 26.588523 
L 175.759228 24.897159 
L 176.059178 29.971761 
L 176.353556 25.819559 
L 176.652457 26.588523 
L 176.951506 26.588778 
L 177.250519 23.049041 
L 177.549606 24.897159 
L 177.849331 28.279631 
L 178.447356 28.279631 
L 179.046695 24.897159 
L 179.343404 24.89767 
L 179.645513 23.20554 
L 179.944455 28.279886 
L 180.245592 24.897159 
L 180.542949 23.205795 
L 180.840069 26.588523 
L 181.138132 23.205795 
L 181.737975 23.20554 
L 182.0365 26.588523 
L 182.335089 26.588523 
L 182.63596 29.97125 
L 182.935548 23.205795 
L 183.23337 28.279886 
L 183.532237 26.588523 
L 183.832913 18.131705 
L 184.726091 28.279886 
L 185.024941 28.279886 
L 185.324123 26.588523 
L 185.623244 23.205795 
L 186.519604 28.279886 
L 186.822751 23.205795 
L 187.118996 24.897159 
L 187.417459 23.20554 
L 188.018735 26.588523 
L 188.317098 24.897159 
L 188.914518 31.662614 
L 189.212153 27.434332 
L 189.50982 24.897159 
L 189.810625 26.588523 
L 190.108998 26.588523 
L 190.705687 23.20554 
L 191.307399 26.588523 
L 191.606284 26.588523 
L 191.904922 24.897159 
L 192.500605 30.432322 
L 192.799286 24.58365 
L 193.099208 24.896904 
L 193.396918 24.897159 
L 193.698641 26.588523 
L 193.997606 26.588523 
L 194.297402 23.20554 
L 194.593747 21.514432 
L 194.892561 26.588267 
L 195.191674 28.280142 
L 195.492949 23.205795 
L 195.792734 23.206051 
L 196.088156 25.742713 
L 196.389681 24.897414 
L 196.688085 26.588523 
L 196.987871 24.897159 
L 197.287541 26.588778 
L 197.583476 26.588778 
L 197.882309 23.205795 
L 198.181187 28.279886 
L 198.480704 23.205795 
L 198.782315 24.897159 
L 199.078329 29.97125 
L 199.380528 24.897159 
L 199.679533 26.588523 
L 199.975224 24.897159 
L 200.274514 24.897159 
L 200.575809 23.205795 
L 200.874524 24.897159 
L 201.171708 24.897159 
L 201.471696 26.588523 
L 201.769804 31.662614 
L 202.069649 24.897159 
L 202.369632 24.896904 
L 202.665764 29.97125 
L 203.263924 23.206051 
L 203.565617 26.588523 
L 204.161011 26.588523 
L 204.759039 29.970995 
L 205.060522 26.588523 
L 205.359156 24.89767 
L 205.656055 28.279631 
L 205.958006 24.740405 
L 206.256245 23.206051 
L 206.553114 26.588778 
L 206.854364 26.588523 
L 207.15077 24.896904 
L 207.450274 21.514687 
L 207.748605 26.588778 
L 208.047495 23.20554 
L 208.348948 24.897159 
L 208.647796 24.897414 
L 208.94452 23.206051 
L 209.24617 26.588523 
L 209.542706 28.279376 
L 209.842029 28.279631 
L 210.141071 24.897414 
L 210.44153 24.897159 
L 210.739933 26.588523 
L 211.038445 24.896904 
L 211.337364 28.89516 
L 211.934337 24.897159 
L 212.233576 26.588523 
L 213.132641 26.588523 
L 213.429934 31.662614 
L 213.729193 24.897159 
L 214.326211 24.897159 
L 214.924752 28.279886 
L 215.224421 24.897159 
L 215.821398 58.724432 
L 216.419111 48.57625 
L 216.718975 55.341705 
L 217.017111 58.724432 
L 217.615579 68.872614 
L 217.914356 67.18125 
L 218.213082 75.638068 
L 218.512206 70.564233 
L 218.812497 75.637813 
L 219.410131 75.638068 
L 219.70807 82.403523 
L 220.008512 82.403523 
L 220.307131 85.785995 
L 220.60526 87.477358 
L 220.905214 94.242813 
L 221.501962 90.860596 
L 221.802583 94.242813 
L 222.100982 106.082614 
L 222.398936 104.390995 
L 222.698549 112.002259 
L 222.998193 112.848068 
L 223.595699 116.231051 
L 223.894893 122.995995 
L 224.193948 124.687614 
L 224.493228 122.995995 
L 224.791783 126.378977 
L 225.389267 119.613523 
L 225.68905 126.378977 
L 225.987045 118.07585 
L 226.288299 114.538921 
L 226.585876 126.378977 
L 226.884681 116.230795 
L 227.18366 119.614033 
L 227.482557 116.231051 
L 227.482557 116.231051 
" clip-path="url(#p7938d3ea9a)" style="fill: none; stroke: #0000ff; stroke-linecap: square"/>
   </g>
   <g id="line2d_17">
    <path d="M 50.099375 25.79071 
L 235.929375 25.79071 
" clip-path="url(#p7938d3ea9a)" style="fill: none; stroke-dasharray: 3.7,1.6; stroke-dashoffset: 0; stroke: #000000; stroke-opacity: 0.7"/>
   </g>
   <g id="patch_3">
    <path d="M 50.099375 160.20625 
L 50.099375 11.36625 
" style="fill: none; stroke: #000000; stroke-width: 0.8; stroke-linejoin: miter; stroke-linecap: square"/>
   </g>
   <g id="patch_4">
    <path d="M 235.929375 160.20625 
L 235.929375 11.36625 
" style="fill: none; stroke: #000000; stroke-width: 0.8; stroke-linejoin: miter; stroke-linecap: square"/>
   </g>
   <g id="patch_5">
    <path d="M 50.099375 160.20625 
L 235.929375 160.20625 
" style="fill: none; stroke: #000000; stroke-width: 0.8; stroke-linejoin: miter; stroke-linecap: square"/>
   </g>
   <g id="patch_6">
    <path d="M 50.099375 11.36625 
L 235.929375 11.36625 
" style="fill: none; stroke: #000000; stroke-width: 0.8; stroke-linejoin: miter; stroke-linecap: square"/>
   </g>
  </g>
  <g id="axes_2">
   <g id="patch_7">
    <path d="M 295.979375 160.20625 
L 481.809375 160.20625 
L 481.809375 11.36625 
L 295.979375 11.36625 
z
" style="fill: #ffffff"/>
   </g>
   <g id="matplotlib.axis_3">
    <g id="xtick_5">
     <g id="line2d_18">
      <path d="M 304.426193 160.20625 
L 304.426193 11.36625 
" clip-path="url(#pbc0df5dd1b)" style="fill: none; stroke: #b0b0b0; stroke-opacity: 0.3; stroke-width: 0.8; stroke-linecap: square"/>
     </g>
     <g id="line2d_19">
      <g>
       <use xlink:href="#m925739a029" x="304.426193" y="160.20625" style="stroke: #000000; stroke-width: 0.8"/>
      </g>
     </g>
     <g id="text_10">
      <!-- 0 -->
      <g transform="translate(301.426193 175.53875) scale(0.12 -0.12)">
       <use xlink:href="#TimesNewRomanPSMT-30"/>
      </g>
     </g>
    </g>
    <g id="xtick_6">
     <g id="line2d_20">
      <path d="M 349.277809 160.20625 
L 349.277809 11.36625 
" clip-path="url(#pbc0df5dd1b)" style="fill: none; stroke: #b0b0b0; stroke-opacity: 0.3; stroke-width: 0.8; stroke-linecap: square"/>
     </g>
     <g id="line2d_21">
      <g>
       <use xlink:href="#m925739a029" x="349.277809" y="160.20625" style="stroke: #000000; stroke-width: 0.8"/>
      </g>
     </g>
     <g id="text_11">
      <!-- 5 -->
      <g transform="translate(346.277809 175.53875) scale(0.12 -0.12)">
       <use xlink:href="#TimesNewRomanPSMT-35"/>
      </g>
     </g>
    </g>
    <g id="xtick_7">
     <g id="line2d_22">
      <path d="M 394.129425 160.20625 
L 394.129425 11.36625 
" clip-path="url(#pbc0df5dd1b)" style="fill: none; stroke: #b0b0b0; stroke-opacity: 0.3; stroke-width: 0.8; stroke-linecap: square"/>
     </g>
     <g id="line2d_23">
      <g>
       <use xlink:href="#m925739a029" x="394.129425" y="160.20625" style="stroke: #000000; stroke-width: 0.8"/>
      </g>
     </g>
     <g id="text_12">
      <!-- 10 -->
      <g transform="translate(388.129425 175.53875) scale(0.12 -0.12)">
       <use xlink:href="#TimesNewRomanPSMT-31"/>
       <use xlink:href="#TimesNewRomanPSMT-30" x="50"/>
      </g>
     </g>
    </g>
    <g id="xtick_8">
     <g id="line2d_24">
      <path d="M 438.981041 160.20625 
L 438.981041 11.36625 
" clip-path="url(#pbc0df5dd1b)" style="fill: none; stroke: #b0b0b0; stroke-opacity: 0.3; stroke-width: 0.8; stroke-linecap: square"/>
     </g>
     <g id="line2d_25">
      <g>
       <use xlink:href="#m925739a029" x="438.981041" y="160.20625" style="stroke: #000000; stroke-width: 0.8"/>
      </g>
     </g>
     <g id="text_13">
      <!-- 15 -->
      <g transform="translate(432.981041 175.53875) scale(0.12 -0.12)">
       <use xlink:href="#TimesNewRomanPSMT-31"/>
       <use xlink:href="#TimesNewRomanPSMT-35" x="50"/>
      </g>
     </g>
    </g>
    <g id="text_14">
     <!-- $t$ [s] -->
     <g transform="translate(379.354375 190.438125) scale(0.12 -0.12)">
      <use xlink:href="#STIXGeneral-Italic-74" transform="translate(0 0.28125)"/>
      <use xlink:href="#TimesNewRomanPSMT-20" transform="translate(27.799988 0.28125)"/>
      <use xlink:href="#TimesNewRomanPSMT-5b" transform="translate(52.799988 0.28125)"/>
      <use xlink:href="#TimesNewRomanPSMT-73" transform="translate(86.100769 0.28125)"/>
      <use xlink:href="#TimesNewRomanPSMT-5d" transform="translate(125.016785 0.28125)"/>
     </g>
    </g>
   </g>
   <g id="matplotlib.axis_4">
    <g id="ytick_4">
     <g id="line2d_26">
      <path d="M 295.979375 160.20625 
L 481.809375 160.20625 
" clip-path="url(#pbc0df5dd1b)" style="fill: none; stroke: #b0b0b0; stroke-opacity: 0.3; stroke-width: 0.8; stroke-linecap: square"/>
     </g>
     <g id="line2d_27">
      <g>
       <use xlink:href="#m9979f5ba8c" x="295.979375" y="160.20625" style="stroke: #000000; stroke-width: 0.8"/>
      </g>
     </g>
     <g id="text_15">
      <!-- −1.5 -->
      <g transform="translate(267.2125 164.3725) scale(0.12 -0.12)">
       <defs>
        <path id="TimesNewRomanPSMT-2212" d="M 3484 2000 
L 116 2000 
L 116 2256 
L 3484 2256 
L 3484 2000 
z
" transform="scale(0.015625)"/>
       </defs>
       <use xlink:href="#TimesNewRomanPSMT-2212"/>
       <use xlink:href="#TimesNewRomanPSMT-31" x="56.396484"/>
       <use xlink:href="#TimesNewRomanPSMT-2e" x="106.396484"/>
       <use xlink:href="#TimesNewRomanPSMT-35" x="131.396484"/>
      </g>
     </g>
    </g>
    <g id="ytick_5">
     <g id="line2d_28">
      <path d="M 295.979375 135.399583 
L 481.809375 135.399583 
" clip-path="url(#pbc0df5dd1b)" style="fill: none; stroke: #b0b0b0; stroke-opacity: 0.3; stroke-width: 0.8; stroke-linecap: square"/>
     </g>
     <g id="line2d_29">
      <g>
       <use xlink:href="#m9979f5ba8c" x="295.979375" y="135.399583" style="stroke: #000000; stroke-width: 0.8"/>
      </g>
     </g>
     <g id="text_16">
      <!-- −1.0 -->
      <g transform="translate(267.2125 139.565833) scale(0.12 -0.12)">
       <use xlink:href="#TimesNewRomanPSMT-2212"/>
       <use xlink:href="#TimesNewRomanPSMT-31" x="56.396484"/>
       <use xlink:href="#TimesNewRomanPSMT-2e" x="106.396484"/>
       <use xlink:href="#TimesNewRomanPSMT-30" x="131.396484"/>
      </g>
     </g>
    </g>
    <g id="ytick_6">
     <g id="line2d_30">
      <path d="M 295.979375 110.592917 
L 481.809375 110.592917 
" clip-path="url(#pbc0df5dd1b)" style="fill: none; stroke: #b0b0b0; stroke-opacity: 0.3; stroke-width: 0.8; stroke-linecap: square"/>
     </g>
     <g id="line2d_31">
      <g>
       <use xlink:href="#m9979f5ba8c" x="295.979375" y="110.592917" style="stroke: #000000; stroke-width: 0.8"/>
      </g>
     </g>
     <g id="text_17">
      <!-- −0.5 -->
      <g transform="translate(267.2125 114.759167) scale(0.12 -0.12)">
       <use xlink:href="#TimesNewRomanPSMT-2212"/>
       <use xlink:href="#TimesNewRomanPSMT-30" x="56.396484"/>
       <use xlink:href="#TimesNewRomanPSMT-2e" x="106.396484"/>
       <use xlink:href="#TimesNewRomanPSMT-35" x="131.396484"/>
      </g>
     </g>
    </g>
    <g id="ytick_7">
     <g id="line2d_32">
      <path d="M 295.979375 85.78625 
L 481.809375 85.78625 
" clip-path="url(#pbc0df5dd1b)" style="fill: none; stroke: #b0b0b0; stroke-opacity: 0.3; stroke-width: 0.8; stroke-linecap: square"/>
     </g>
     <g id="line2d_33">
      <g>
       <use xlink:href="#m9979f5ba8c" x="295.979375" y="85.78625" style="stroke: #000000; stroke-width: 0.8"/>
      </g>
     </g>
     <g id="text_18">
      <!-- 0.0 -->
      <g transform="translate(273.979375 89.9525) scale(0.12 -0.12)">
       <use xlink:href="#TimesNewRomanPSMT-30"/>
       <use xlink:href="#TimesNewRomanPSMT-2e" x="50"/>
       <use xlink:href="#TimesNewRomanPSMT-30" x="75"/>
      </g>
     </g>
    </g>
    <g id="ytick_8">
     <g id="line2d_34">
      <path d="M 295.979375 60.979583 
L 481.809375 60.979583 
" clip-path="url(#pbc0df5dd1b)" style="fill: none; stroke: #b0b0b0; stroke-opacity: 0.3; stroke-width: 0.8; stroke-linecap: square"/>
     </g>
     <g id="line2d_35">
      <g>
       <use xlink:href="#m9979f5ba8c" x="295.979375" y="60.979583" style="stroke: #000000; stroke-width: 0.8"/>
      </g>
     </g>
     <g id="text_19">
      <!-- 0.5 -->
      <g transform="translate(273.979375 65.145833) scale(0.12 -0.12)">
       <use xlink:href="#TimesNewRomanPSMT-30"/>
       <use xlink:href="#TimesNewRomanPSMT-2e" x="50"/>
       <use xlink:href="#TimesNewRomanPSMT-35" x="75"/>
      </g>
     </g>
    </g>
    <g id="ytick_9">
     <g id="line2d_36">
      <path d="M 295.979375 36.172917 
L 481.809375 36.172917 
" clip-path="url(#pbc0df5dd1b)" style="fill: none; stroke: #b0b0b0; stroke-opacity: 0.3; stroke-width: 0.8; stroke-linecap: square"/>
     </g>
     <g id="line2d_37">
      <g>
       <use xlink:href="#m9979f5ba8c" x="295.979375" y="36.172917" style="stroke: #000000; stroke-width: 0.8"/>
      </g>
     </g>
     <g id="text_20">
      <!-- 1.0 -->
      <g transform="translate(273.979375 40.339167) scale(0.12 -0.12)">
       <use xlink:href="#TimesNewRomanPSMT-31"/>
       <use xlink:href="#TimesNewRomanPSMT-2e" x="50"/>
       <use xlink:href="#TimesNewRomanPSMT-30" x="75"/>
      </g>
     </g>
    </g>
    <g id="ytick_10">
     <g id="line2d_38">
      <path d="M 295.979375 11.36625 
L 481.809375 11.36625 
" clip-path="url(#pbc0df5dd1b)" style="fill: none; stroke: #b0b0b0; stroke-opacity: 0.3; stroke-width: 0.8; stroke-linecap: square"/>
     </g>
     <g id="line2d_39">
      <g>
       <use xlink:href="#m9979f5ba8c" x="295.979375" y="11.36625" style="stroke: #000000; stroke-width: 0.8"/>
      </g>
     </g>
     <g id="text_21">
      <!-- 1.5 -->
      <g transform="translate(273.979375 15.5325) scale(0.12 -0.12)">
       <use xlink:href="#TimesNewRomanPSMT-31"/>
       <use xlink:href="#TimesNewRomanPSMT-2e" x="50"/>
       <use xlink:href="#TimesNewRomanPSMT-35" x="75"/>
      </g>
     </g>
    </g>
    <g id="text_22">
     <!-- $\omega$ [rad/s] -->
     <g transform="translate(260.645625 107.08625) rotate(-90) scale(0.12 -0.12)">
      <defs>
       <path id="STIXGeneral-Italic-3c9" d="M 3021 2810 
L 3136 2810 
Q 3648 2810 3898 2598 
Q 4186 2355 4186 1824 
Q 4186 1357 3910 838 
Q 3667 390 3334 160 
Q 3002 -70 2669 -70 
Q 2438 -70 2281 3 
Q 2125 77 2064 160 
Q 2003 243 1939 384 
Q 1741 147 1533 38 
Q 1325 -70 998 -70 
Q 659 -70 416 160 
Q 173 390 173 832 
Q 173 1101 237 1350 
Q 403 1965 883 2387 
Q 1363 2810 2010 2810 
L 2125 2810 
L 2125 2707 
Q 1606 2707 1267 2291 
Q 1024 1990 867 1526 
Q 710 1062 710 666 
Q 710 64 1075 64 
Q 1286 64 1523 285 
Q 1760 506 1856 774 
Q 1837 915 1837 1101 
Q 1837 1363 1914 1651 
Q 1984 1920 2125 2105 
Q 2266 2291 2432 2291 
Q 2656 2291 2656 1997 
Q 2656 1530 2387 1062 
Q 2272 864 2189 736 
Q 2176 691 2176 602 
Q 2176 384 2288 224 
Q 2400 64 2592 64 
Q 3040 64 3341 627 
Q 3482 896 3565 1270 
Q 3648 1645 3648 1971 
Q 3648 2240 3616 2362 
Q 3565 2566 3411 2636 
Q 3258 2707 3021 2707 
L 3021 2810 
z
" transform="scale(0.015625)"/>
       <path id="TimesNewRomanPSMT-72" d="M 1038 2947 
L 1038 2303 
Q 1397 2947 1775 2947 
Q 1947 2947 2059 2842 
Q 2172 2738 2172 2600 
Q 2172 2478 2090 2393 
Q 2009 2309 1897 2309 
Q 1788 2309 1652 2417 
Q 1516 2525 1450 2525 
Q 1394 2525 1328 2463 
Q 1188 2334 1038 2041 
L 1038 669 
Q 1038 431 1097 309 
Q 1138 225 1241 169 
Q 1344 113 1538 113 
L 1538 0 
L 72 0 
L 72 113 
Q 291 113 397 181 
Q 475 231 506 341 
Q 522 394 522 644 
L 522 1753 
Q 522 2253 501 2348 
Q 481 2444 426 2487 
Q 372 2531 291 2531 
Q 194 2531 72 2484 
L 41 2597 
L 906 2947 
L 1038 2947 
z
" transform="scale(0.015625)"/>
       <path id="TimesNewRomanPSMT-61" d="M 1822 413 
Q 1381 72 1269 19 
Q 1100 -59 909 -59 
Q 613 -59 420 144 
Q 228 347 228 678 
Q 228 888 322 1041 
Q 450 1253 767 1440 
Q 1084 1628 1822 1897 
L 1822 2009 
Q 1822 2438 1686 2597 
Q 1550 2756 1291 2756 
Q 1094 2756 978 2650 
Q 859 2544 859 2406 
L 866 2225 
Q 866 2081 792 2003 
Q 719 1925 600 1925 
Q 484 1925 411 2006 
Q 338 2088 338 2228 
Q 338 2497 613 2722 
Q 888 2947 1384 2947 
Q 1766 2947 2009 2819 
Q 2194 2722 2281 2516 
Q 2338 2381 2338 1966 
L 2338 994 
Q 2338 584 2353 492 
Q 2369 400 2405 369 
Q 2441 338 2488 338 
Q 2538 338 2575 359 
Q 2641 400 2828 588 
L 2828 413 
Q 2478 -56 2159 -56 
Q 2006 -56 1915 50 
Q 1825 156 1822 413 
z
M 1822 616 
L 1822 1706 
Q 1350 1519 1213 1441 
Q 966 1303 859 1153 
Q 753 1003 753 825 
Q 753 600 887 451 
Q 1022 303 1197 303 
Q 1434 303 1822 616 
z
" transform="scale(0.015625)"/>
       <path id="TimesNewRomanPSMT-64" d="M 2222 322 
Q 2013 103 1813 7 
Q 1613 -88 1381 -88 
Q 913 -88 563 304 
Q 213 697 213 1313 
Q 213 1928 600 2439 
Q 988 2950 1597 2950 
Q 1975 2950 2222 2709 
L 2222 3238 
Q 2222 3728 2198 3840 
Q 2175 3953 2125 3993 
Q 2075 4034 2000 4034 
Q 1919 4034 1784 3984 
L 1744 4094 
L 2597 4444 
L 2738 4444 
L 2738 1134 
Q 2738 631 2761 520 
Q 2784 409 2836 365 
Q 2888 322 2956 322 
Q 3041 322 3181 375 
L 3216 266 
L 2366 -88 
L 2222 -88 
L 2222 322 
z
M 2222 541 
L 2222 2016 
Q 2203 2228 2109 2403 
Q 2016 2578 1861 2667 
Q 1706 2756 1559 2756 
Q 1284 2756 1069 2509 
Q 784 2184 784 1559 
Q 784 928 1059 592 
Q 1334 256 1672 256 
Q 1956 256 2222 541 
z
" transform="scale(0.015625)"/>
      </defs>
      <use xlink:href="#STIXGeneral-Italic-3c9" transform="translate(0 0.5625)"/>
      <use xlink:href="#TimesNewRomanPSMT-20" transform="translate(68.599991 0.5625)"/>
      <use xlink:href="#TimesNewRomanPSMT-5b" transform="translate(93.599991 0.5625)"/>
      <use xlink:href="#TimesNewRomanPSMT-72" transform="translate(126.900772 0.5625)"/>
      <use xlink:href="#TimesNewRomanPSMT-61" transform="translate(160.201553 0.5625)"/>
      <use xlink:href="#TimesNewRomanPSMT-64" transform="translate(204.586319 0.5625)"/>
      <use xlink:href="#TimesNewRomanPSMT-2f" transform="translate(254.586319 0.5625)"/>
      <use xlink:href="#TimesNewRomanPSMT-73" transform="translate(282.369522 0.5625)"/>
      <use xlink:href="#TimesNewRomanPSMT-5d" transform="translate(321.285538 0.5625)"/>
     </g>
    </g>
   </g>
   <g id="line2d_40">
    <path d="M 304.426193 85.78625 
L 307.417618 85.697343 
L 307.716369 85.562543 
L 308.011926 85.648375 
L 309.21343 85.494524 
L 309.506679 85.612752 
L 310.403338 85.404128 
L 311.603031 85.477903 
L 313.099005 85.299394 
L 313.69696 85.284758 
L 316.085158 85.503305 
L 316.68298 85.593849 
L 316.982685 85.426256 
L 317.285069 84.964207 
L 317.579372 84.824992 
L 319.077666 84.935133 
L 319.373914 85.280492 
L 319.673446 86.106008 
L 320.273586 86.152148 
L 320.87449 86.144111 
L 321.167634 86.826592 
L 322.064636 86.820539 
L 322.364521 86.362162 
L 322.668239 85.518685 
L 323.561754 85.306489 
L 323.860557 86.136471 
L 324.462834 86.099459 
L 325.056009 87.697703 
L 325.652674 87.63514 
L 325.953441 88.185352 
L 326.253869 89.313361 
L 327.147953 89.012109 
L 327.446981 88.237347 
L 327.746789 88.276046 
L 328.052308 88.024307 
L 328.343779 88.8272 
L 328.643844 89.323929 
L 329.542732 89.039297 
L 330.436825 88.247667 
L 330.738002 88.220181 
L 331.040578 88.942204 
L 331.334256 88.774858 
L 331.636143 88.759131 
L 331.933377 88.567772 
L 332.233204 88.135094 
L 332.533277 87.986056 
L 332.831854 87.986998 
L 333.128112 88.128247 
L 333.430371 88.666552 
L 333.726522 88.677864 
L 334.324507 88.377505 
L 334.626128 80.027779 
L 335.222233 79.477022 
L 335.520029 80.306011 
L 335.822228 81.563907 
L 336.422116 81.392344 
L 336.718316 82.374837 
L 337.016953 84.202146 
L 337.315657 84.493624 
L 337.913849 84.533017 
L 338.213972 82.364567 
L 338.811997 82.495943 
L 339.409783 83.627772 
L 340.005543 83.819032 
L 340.30545 83.516539 
L 340.605158 82.659667 
L 341.201895 82.799974 
L 341.80077 83.021497 
L 342.09886 83.03276 
L 342.696916 83.334706 
L 342.999776 84.135714 
L 343.294875 85.464458 
L 343.598216 85.62967 
L 344.192443 85.679432 
L 344.490801 86.200422 
L 345.390807 86.333535 
L 345.689457 85.526425 
L 346.284599 85.510946 
L 346.588013 85.786399 
L 346.885635 86.274495 
L 347.484676 86.251325 
L 347.783005 86.262687 
L 348.079701 86.150561 
L 348.381766 85.505835 
L 349.28039 85.33973 
L 349.574476 84.19004 
L 350.474751 84.189594 
L 350.770269 84.278402 
L 351.072914 82.398255 
L 351.37053 81.368083 
L 351.667605 82.388878 
L 352.268421 76.23613 
L 352.863999 74.544365 
L 353.163209 71.855719 
L 354.061635 68.704479 
L 354.358213 68.819482 
L 354.660862 68.097608 
L 354.959323 67.055579 
L 355.257121 67.274027 
L 355.55494 68.478192 
L 355.856566 67.643547 
L 356.155671 67.741434 
L 356.455288 66.417651 
L 356.753204 60.686914 
L 357.353319 60.198024 
L 357.648467 60.232456 
L 357.946784 61.36746 
L 358.547592 61.519575 
L 358.846288 61.585313 
L 359.14677 61.999286 
L 359.44454 62.024738 
L 359.745112 62.29513 
L 360.040296 62.824455 
L 360.338244 65.18213 
L 360.936213 66.010276 
L 361.537881 66.295354 
L 362.434593 67.170534 
L 362.734064 68.008056 
L 363.030632 67.968713 
L 363.328233 68.560798 
L 363.630659 68.764511 
L 363.92734 69.507322 
L 365.125085 70.743438 
L 365.722595 71.205735 
L 366.019434 71.724244 
L 366.619857 72.111724 
L 366.919056 72.747221 
L 367.21705 72.450434 
L 367.813641 73.151272 
L 368.414354 76.229531 
L 369.310301 77.176848 
L 369.906663 77.859627 
L 370.205727 78.127489 
L 370.507447 78.957967 
L 370.808615 79.170064 
L 371.401888 75.889878 
L 371.700537 76.156947 
L 372.003179 74.625631 
L 372.299305 72.512649 
L 372.601902 72.69731 
L 373.195464 73.385794 
L 373.496703 72.317421 
L 373.795046 73.065242 
L 374.093175 73.382123 
L 374.691408 75.53425 
L 374.992566 75.429764 
L 375.587988 75.680113 
L 375.889548 76.752853 
L 376.185635 78.64193 
L 376.485768 78.40071 
L 376.784225 79.455043 
L 377.085932 78.550592 
L 377.683485 79.018644 
L 378.877373 81.203863 
L 379.178967 81.509878 
L 379.478029 81.493456 
L 380.076443 84.14896 
L 380.67539 84.926749 
L 380.969965 86.301633 
L 381.569419 86.550742 
L 381.868271 84.350291 
L 382.468112 84.596919 
L 382.766937 84.255728 
L 383.067004 82.969006 
L 383.962722 83.628417 
L 384.262436 84.339575 
L 384.85687 84.893061 
L 385.157763 86.471658 
L 386.054882 87.570296 
L 386.351897 88.714429 
L 386.952078 88.919233 
L 387.252413 89.541483 
L 387.550767 91.094678 
L 387.851152 91.335997 
L 388.151102 91.372811 
L 388.446324 91.242129 
L 388.74468 90.516931 
L 390.538309 89.50596 
L 390.837236 89.429357 
L 391.439047 88.820205 
L 391.736933 88.803386 
L 392.033229 88.654298 
L 392.336395 89.144973 
L 394.130417 88.613317 
L 395.325349 88.644028 
L 396.220492 88.177712 
L 396.522578 88.095106 
L 396.819662 89.901279 
L 397.116886 89.838469 
L 397.416256 89.627513 
L 397.715699 89.687743 
L 398.013672 89.21086 
L 398.615342 88.853842 
L 398.913713 88.243896 
L 399.508977 87.888516 
L 399.807485 85.101288 
L 400.107967 80.471074 
L 400.410814 80.125121 
L 400.706563 80.010712 
L 401.006001 80.235312 
L 401.306902 80.022272 
L 402.201573 80.561023 
L 402.49921 82.2128 
L 402.798137 82.582022 
L 403.097748 82.623301 
L 403.396032 84.808371 
L 403.694623 85.751173 
L 404.296357 86.070634 
L 404.59266 88.090889 
L 404.89355 91.08287 
L 405.190469 91.101326 
L 405.792149 94.180032 
L 406.090527 97.838222 
L 406.386351 99.410419 
L 406.685427 99.667366 
L 406.983929 100.763622 
L 407.285829 101.309915 
L 407.583567 102.348967 
L 407.880723 102.358989 
L 408.183846 103.640997 
L 408.482916 103.781353 
L 409.37794 105.305326 
L 409.678909 108.254442 
L 410.273675 109.154874 
L 410.87389 107.971596 
L 411.469146 108.158142 
L 411.768593 107.487866 
L 412.070463 106.077756 
L 412.668174 106.129949 
L 412.9677 106.080981 
L 413.2664 104.401966 
L 413.861951 104.279471 
L 414.462867 103.393873 
L 414.758678 103.472411 
L 415.057139 103.435945 
L 415.357649 102.249095 
L 415.657062 100.038375 
L 415.954128 99.851878 
L 416.557121 99.856641 
L 416.856081 100.3752 
L 418.346678 100.150898 
L 418.645494 100.391721 
L 418.944203 100.905665 
L 419.243594 100.754295 
L 419.841814 100.7408 
L 420.1439 101.631558 
L 420.442416 101.528958 
L 420.744389 102.006089 
L 421.038816 105.852958 
L 421.336212 105.047634 
L 421.639228 104.741967 
L 421.939178 105.041036 
L 422.233556 102.295831 
L 422.532457 102.111418 
L 422.831506 101.698586 
L 423.130519 103.249498 
L 423.429606 102.919421 
L 423.729331 102.970225 
L 424.030681 102.892778 
L 424.327356 102.400168 
L 424.626204 101.620593 
L 424.926695 102.045432 
L 425.525513 101.175711 
L 425.824455 101.818749 
L 426.125592 100.765905 
L 426.720069 100.05048 
L 427.018132 99.9196 
L 427.9165 97.825372 
L 428.215089 97.038207 
L 428.51596 96.869224 
L 428.815548 95.568461 
L 429.11337 95.266415 
L 429.412237 94.596834 
L 429.712913 94.510705 
L 430.012307 94.726225 
L 430.310325 94.33428 
L 430.606091 94.232573 
L 430.904941 93.842761 
L 431.204123 94.133793 
L 431.503244 93.793247 
L 432.103832 92.87927 
L 432.399604 92.927345 
L 432.998996 91.842252 
L 433.297459 91.687855 
L 433.599592 91.884919 
L 433.898735 91.745109 
L 434.197098 91.242972 
L 434.493101 91.308809 
L 434.794518 91.564864 
L 435.38982 89.922315 
L 435.690625 89.985175 
L 435.988998 90.197074 
L 436.585687 89.444043 
L 438.083058 88.335631 
L 438.380605 87.157513 
L 438.979208 85.969174 
L 439.276918 86.082094 
L 439.578641 86.546773 
L 440.473747 85.706621 
L 440.772561 84.994421 
L 441.672734 84.331537 
L 441.968156 84.143106 
L 442.269681 82.475751 
L 442.867871 82.198859 
L 443.167541 82.444345 
L 443.463476 82.832024 
L 444.061187 82.821258 
L 444.360704 82.74525 
L 444.662315 82.054434 
L 445.559533 81.892447 
L 445.855224 82.770801 
L 446.154514 83.039606 
L 446.754524 82.98781 
L 447.351696 84.251561 
L 447.649804 84.30941 
L 448.545764 84.033262 
L 448.847313 83.538171 
L 449.445617 83.479776 
L 450.340732 82.381237 
L 450.940522 81.896217 
L 451.239156 81.144625 
L 451.536055 79.852694 
L 452.136245 79.781499 
L 452.433114 80.443638 
L 452.734364 82.013702 
L 453.03077 82.521494 
L 453.330274 82.689733 
L 453.628605 84.062931 
L 453.927495 87.681033 
L 454.527796 87.763738 
L 454.82452 87.466554 
L 455.12617 86.920163 
L 455.722029 86.87819 
L 456.021071 86.479051 
L 456.32153 85.8568 
L 456.619933 85.553266 
L 458.414406 85.183746 
L 458.713795 84.872521 
L 459.012641 84.133729 
L 459.909514 84.134573 
L 460.206211 85.13443 
L 460.505283 85.669956 
L 461.104421 85.775385 
L 461.403737 86.451118 
L 461.701398 87.592423 
L 462.598975 87.773066 
L 462.897111 86.314632 
L 463.495579 86.297267 
L 463.794356 86.230934 
L 464.392206 83.692865 
L 465.290131 83.425945 
L 465.58807 84.103961 
L 465.888512 85.659786 
L 466.48526 85.812495 
L 466.785214 85.040512 
L 467.08364 82.079439 
L 467.381962 81.040239 
L 467.980982 80.798026 
L 468.578549 78.636721 
L 469.176087 78.541066 
L 469.475699 78.290122 
L 469.774893 77.480978 
L 470.073948 77.362353 
L 470.671783 77.509059 
L 470.970531 81.467112 
L 471.269267 83.632535 
L 471.867045 84.232162 
L 472.465876 84.558915 
L 472.764681 86.271915 
L 473.06366 91.357877 
L 473.362557 91.656252 
L 473.362557 91.656252 
" clip-path="url(#pbc0df5dd1b)" style="fill: none; stroke: #ff0000; stroke-opacity: 0.8; stroke-linecap: square"/>
   </g>
   <g id="line2d_41">
    <path d="M 304.426193 85.78625 
L 305.623129 85.78625 
L 305.920091 87.111621 
L 306.220913 84.460879 
L 306.517571 86.991159 
L 306.815606 85.78625 
L 307.116486 87.111521 
L 307.417618 85.78625 
L 307.716369 87.111571 
L 308.314048 84.460879 
L 308.611491 86.448935 
L 308.909182 87.111621 
L 309.21343 85.78625 
L 309.506679 85.78625 
L 309.807362 87.111621 
L 310.105273 84.460879 
L 310.403338 89.762312 
L 311.001971 83.135558 
L 311.304247 88.436991 
L 311.603031 87.111571 
L 311.902197 88.436942 
L 312.197968 85.78625 
L 313.69696 85.78625 
L 313.992052 87.111373 
L 314.291839 87.11167 
L 314.888679 81.809989 
L 315.187758 84.46083 
L 315.489384 85.78625 
L 316.085158 83.135707 
L 316.384594 83.13541 
L 316.68298 87.111521 
L 316.982685 88.43709 
L 317.285069 84.460979 
L 317.579372 83.135707 
L 317.882779 85.78625 
L 318.1805 84.215045 
L 318.478692 85.78625 
L 318.777403 84.461326 
L 319.077666 81.810138 
L 319.373914 83.135707 
L 319.673446 89.762362 
L 319.974567 85.78625 
L 320.273586 84.460979 
L 320.570319 88.436594 
L 320.87449 88.436942 
L 321.167634 87.111373 
L 321.471487 87.11167 
L 321.769817 83.13541 
L 322.064636 85.78625 
L 322.364521 86.448935 
L 322.668239 84.460979 
L 322.965006 89.762411 
L 323.262956 85.78625 
L 323.561754 88.436942 
L 323.860557 89.762362 
L 324.15982 85.78625 
L 324.756541 84.460929 
L 325.056009 84.460879 
L 325.357002 87.774306 
L 325.652674 84.460879 
L 325.953441 87.111621 
L 326.253869 84.460879 
L 326.849244 89.762362 
L 327.147953 89.762362 
L 327.446981 87.111571 
L 327.746789 85.78625 
L 328.052308 89.762411 
L 328.343779 89.762362 
L 328.643844 91.087584 
L 328.945119 87.11167 
L 329.244485 91.087782 
L 329.542732 88.436942 
L 329.842303 89.762362 
L 330.140533 88.43709 
L 330.436825 91.087584 
L 331.040578 84.460681 
L 331.334256 88.436942 
L 331.636143 85.78625 
L 332.233204 88.436942 
L 332.533277 88.682676 
L 332.831854 87.111521 
L 333.128112 84.461326 
L 333.430371 88.436793 
L 333.726522 87.111819 
L 334.027365 91.087286 
L 334.324507 89.099726 
L 334.626128 84.460681 
L 334.923717 88.43709 
L 335.520029 89.762213 
L 335.822228 85.78625 
L 336.121844 87.111819 
L 336.718316 84.460979 
L 337.016953 81.810138 
L 337.615459 81.810287 
L 337.913849 91.087683 
L 338.213972 83.135509 
L 338.513472 80.484916 
L 338.811997 83.135509 
L 339.110268 82.472873 
L 339.409783 84.460879 
L 339.708111 81.810188 
L 340.005543 81.810188 
L 340.30545 83.135558 
L 340.605158 80.484817 
L 340.902359 84.460879 
L 341.201895 83.798194 
L 341.501346 79.159447 
L 341.80077 83.135509 
L 342.09886 84.460929 
L 342.400929 83.135558 
L 342.696916 83.135509 
L 342.999776 81.810237 
L 343.294875 83.13541 
L 343.598216 79.159496 
L 343.892778 80.966811 
L 344.192443 87.111521 
L 344.490801 84.460979 
L 344.789912 87.11167 
L 345.390807 87.11167 
L 345.689457 85.78625 
L 345.988069 81.809841 
L 346.284599 87.111521 
L 346.588013 87.111521 
L 346.885635 83.135707 
L 347.181786 89.762014 
L 347.484676 87.111819 
L 347.783005 83.13541 
L 348.079701 84.460979 
L 348.381766 89.762362 
L 348.676899 88.43709 
L 348.976001 88.43709 
L 349.28039 84.460979 
L 349.574476 87.111819 
L 349.873572 87.111819 
L 350.17184 83.135707 
L 350.474751 84.461127 
L 350.770269 83.13541 
L 351.072914 83.135509 
L 351.37053 87.111521 
L 351.667605 85.78625 
L 351.97012 83.135558 
L 352.268421 83.135707 
L 352.566681 81.810138 
L 352.863999 85.78625 
L 353.163209 77.834225 
L 353.465532 77.834126 
L 353.760571 73.858113 
L 354.061635 79.159447 
L 354.358213 75.183385 
L 354.660862 75.183385 
L 354.959323 72.532693 
L 355.257121 71.207322 
L 355.55494 71.207322 
L 355.856566 65.905939 
L 356.155671 69.881902 
L 356.455288 68.556581 
L 356.753204 68.556631 
L 357.049629 69.882001 
L 357.353319 67.23126 
L 357.648467 65.905939 
L 357.946784 65.905989 
L 358.245602 61.688905 
L 358.547592 61.929828 
L 358.846288 60.604407 
L 359.14677 63.255248 
L 359.44454 61.929828 
L 359.745112 63.255099 
L 360.040296 61.267043 
L 360.338244 61.929976 
L 360.637042 63.255099 
L 360.936213 60.604407 
L 361.537881 67.231359 
L 361.837689 64.580519 
L 362.434593 67.231012 
L 362.734064 65.90579 
L 363.030632 65.906088 
L 363.630659 68.556929 
L 363.92734 71.206975 
L 364.228483 67.231508 
L 364.527806 67.231012 
L 364.826861 68.556532 
L 365.125085 67.231508 
L 365.421347 67.231508 
L 365.722595 71.207422 
L 366.019434 69.881803 
L 366.318237 75.183385 
L 366.619857 71.207223 
L 366.919056 72.532743 
L 367.21705 75.183285 
L 367.514617 69.881952 
L 368.112198 72.532693 
L 368.414354 69.881902 
L 369.012777 75.183385 
L 369.607911 72.532693 
L 369.906663 81.810138 
L 370.507447 76.508805 
L 370.808615 79.159546 
L 371.10334 77.834225 
L 371.401888 79.159546 
L 371.700537 77.17144 
L 372.003179 79.159496 
L 372.299305 78.557042 
L 372.601902 81.810138 
L 372.896509 71.207124 
L 373.195464 73.858064 
L 373.496703 72.532941 
L 373.795046 73.858064 
L 374.093175 72.532743 
L 374.392866 73.857964 
L 374.691408 73.072536 
L 375.289273 76.508854 
L 375.587988 75.183533 
L 375.889548 72.532693 
L 376.185635 71.207124 
L 376.485768 76.508805 
L 377.384669 76.508656 
L 377.683485 75.183385 
L 377.981552 79.159496 
L 378.579629 79.159645 
L 379.178967 81.810138 
L 379.478029 79.159645 
L 379.777024 79.159546 
L 380.076443 76.508954 
L 380.375022 80.484817 
L 380.67539 82.472873 
L 381.273163 77.833977 
L 381.569419 85.78625 
L 381.868271 84.461127 
L 382.468112 84.461028 
L 382.766937 80.484718 
L 383.067004 87.111521 
L 383.362787 88.43709 
L 383.962722 81.810138 
L 384.262436 85.78625 
L 384.559986 87.11167 
L 384.85687 84.46083 
L 385.157763 84.460979 
L 385.457954 81.810138 
L 386.054882 88.436942 
L 386.351897 85.78625 
L 386.952078 85.78625 
L 387.252413 89.762411 
L 387.550767 89.762362 
L 387.851152 88.437041 
L 388.151102 91.087584 
L 388.446324 92.412904 
L 388.74468 88.436942 
L 389.043672 89.762312 
L 389.34379 89.516825 
L 389.645016 87.111373 
L 390.239245 92.412954 
L 390.538309 89.762312 
L 390.837236 89.762213 
L 391.140199 89.40073 
L 391.439047 87.111373 
L 391.736933 88.436942 
L 392.033229 88.436942 
L 392.336395 89.762362 
L 392.637347 85.78625 
L 392.930703 87.111521 
L 393.232892 91.087584 
L 393.531547 89.099577 
L 393.827923 88.43709 
L 394.130417 88.43709 
L 394.428226 91.087435 
L 394.725525 87.111422 
L 395.024247 88.43709 
L 395.325349 91.087782 
L 395.624486 87.111422 
L 395.921475 88.682478 
L 396.220492 88.436991 
L 396.522578 85.78625 
L 396.819662 87.111769 
L 397.116886 87.111422 
L 397.416256 90.424948 
L 397.715699 92.413103 
L 398.013672 87.11167 
L 398.615342 87.111373 
L 398.913713 85.78625 
L 399.508977 91.087683 
L 399.807485 92.413004 
L 400.107967 87.11167 
L 400.410814 87.774306 
L 400.706563 85.78625 
L 401.006001 87.111521 
L 401.306902 87.111521 
L 401.605273 84.46083 
L 402.201573 84.461127 
L 402.49921 80.484768 
L 402.798137 79.159199 
L 403.097748 83.135608 
L 403.396032 81.810138 
L 403.694623 84.46078 
L 403.994196 80.484768 
L 404.296357 85.78625 
L 404.59266 80.239182 
L 404.89355 84.460731 
L 405.190469 85.78625 
L 405.492587 85.78625 
L 406.090527 88.43709 
L 406.386351 89.099726 
L 406.685427 95.063695 
L 406.983929 95.063546 
L 407.285829 97.051652 
L 407.583567 97.714387 
L 407.880723 100.365227 
L 408.183846 99.039807 
L 408.781831 99.039807 
L 409.078852 100.365227 
L 409.37794 103.015968 
L 409.974337 103.016068 
L 410.273675 103.678654 
L 410.574809 108.31755 
L 411.174156 110.967845 
L 411.768593 105.66671 
L 412.070463 108.317103 
L 412.369405 106.991733 
L 412.668174 106.992031 
L 412.9677 105.666561 
L 413.2664 106.992031 
L 413.566653 104.341339 
L 413.861951 105.66671 
L 414.160123 103.015869 
L 414.462867 106.991931 
L 414.758678 101.690548 
L 415.057139 104.341289 
L 415.657062 101.449626 
L 415.954128 105.666561 
L 416.557121 97.714486 
L 416.856081 101.690449 
L 417.151224 100.365078 
L 417.453633 96.389066 
L 417.751613 100.365178 
L 418.049969 97.714436 
L 418.346678 96.389215 
L 418.645494 100.365227 
L 418.944203 96.389115 
L 419.243594 99.039857 
L 419.542369 99.039708 
L 420.1439 101.6903 
L 420.442416 97.714387 
L 420.744389 100.365227 
L 421.038816 97.714238 
L 421.336212 103.015571 
L 421.639228 99.039807 
L 421.939178 100.365078 
L 422.233556 103.859147 
L 422.532457 100.365078 
L 422.831506 103.015919 
L 423.130519 100.48802 
L 423.429606 99.039807 
L 423.729331 104.341488 
L 424.030681 106.991981 
L 424.327356 99.039807 
L 424.926695 101.6903 
L 425.223404 104.341141 
L 425.824455 101.690499 
L 426.125592 103.01582 
L 426.422949 100.365227 
L 426.720069 103.015919 
L 427.018132 100.365227 
L 427.9165 100.365277 
L 428.215089 97.714436 
L 428.815548 97.714387 
L 429.11337 96.389115 
L 429.412237 92.413053 
L 429.712913 93.738374 
L 430.012307 99.039807 
L 430.310325 93.738374 
L 430.606091 96.389115 
L 430.904941 91.087683 
L 431.204123 97.714436 
L 431.503244 92.413004 
L 431.803793 99.039807 
L 432.103832 95.063794 
L 432.702751 92.413004 
L 433.297459 92.412954 
L 433.599592 91.087584 
L 433.898735 92.412855 
L 434.197098 91.087584 
L 434.493101 88.436793 
L 434.794518 93.738424 
L 435.092153 90.424898 
L 435.38982 91.087584 
L 435.690625 92.412855 
L 435.988998 89.762213 
L 436.289168 91.088228 
L 436.585687 95.063695 
L 436.888047 93.738424 
L 437.187399 89.762362 
L 437.486284 92.412855 
L 437.784922 91.087584 
L 438.083058 91.087584 
L 438.380605 88.196118 
L 438.679286 82.889824 
L 438.979208 88.436793 
L 439.276918 83.13541 
L 439.578641 81.810138 
L 439.877606 87.111521 
L 440.177402 87.111521 
L 440.473747 85.78625 
L 440.772561 87.111373 
L 441.372949 84.46083 
L 441.672734 87.111521 
L 441.968156 86.448886 
L 442.269681 83.135658 
L 442.568085 81.810287 
L 442.867871 84.460879 
L 443.167541 76.508904 
L 443.463476 81.810287 
L 443.762309 81.810237 
L 444.061187 80.484867 
L 444.662315 83.135558 
L 444.958329 81.810138 
L 445.260528 83.135509 
L 445.559533 81.810188 
L 445.855224 83.135558 
L 446.154514 83.135558 
L 446.754524 85.78625 
L 447.051708 83.135608 
L 447.351696 84.460979 
L 447.649804 83.135509 
L 447.949649 80.484817 
L 448.249632 85.78625 
L 448.545764 84.46083 
L 448.847313 84.46083 
L 449.143924 81.810138 
L 449.445617 81.810138 
L 449.741676 84.46083 
L 450.041011 84.46083 
L 450.340732 88.436793 
L 450.639039 89.762362 
L 450.940522 87.111819 
L 451.239156 85.78625 
L 451.536055 83.13541 
L 451.838006 84.583623 
L 452.136245 81.810138 
L 452.433114 76.508805 
L 452.734364 81.810138 
L 453.03077 80.484569 
L 453.330274 77.834374 
L 453.628605 76.508805 
L 453.927495 84.460979 
L 454.228948 83.13541 
L 454.527796 80.484718 
L 454.82452 81.810138 
L 455.12617 87.11167 
L 455.422706 85.78625 
L 456.32153 85.78625 
L 456.619933 87.11167 
L 456.918445 80.484718 
L 457.217364 89.400978 
L 457.516885 84.460929 
L 457.814337 85.78625 
L 458.113576 89.762362 
L 458.713795 84.460879 
L 459.012641 89.762362 
L 459.609193 83.135558 
L 459.909514 85.78625 
L 460.206211 83.135509 
L 460.505283 84.460879 
L 460.804752 83.135558 
L 461.104421 83.135509 
L 461.403737 85.78625 
L 461.701398 83.135509 
L 462.001347 87.111769 
L 462.299111 85.78625 
L 462.897111 91.087584 
L 463.198198 87.111521 
L 463.495579 85.78625 
L 463.794356 89.762411 
L 464.093082 85.78625 
L 464.692497 88.436942 
L 464.990428 85.78625 
L 465.58807 85.78625 
L 465.888512 83.135558 
L 466.187131 83.135558 
L 466.48526 84.46083 
L 466.785214 87.111819 
L 467.381962 84.46083 
L 467.682583 87.111819 
L 467.980982 83.135558 
L 468.278936 84.461127 
L 468.878193 83.13541 
L 469.475699 80.484569 
L 469.774893 80.484569 
L 470.073948 81.810138 
L 470.373228 80.484569 
L 470.671783 77.833729 
L 471.269267 77.834076 
L 471.867045 82.171621 
L 472.168299 84.460979 
L 472.465876 80.484916 
L 472.764681 83.13541 
L 473.362557 83.135707 
L 473.362557 83.135707 
" clip-path="url(#pbc0df5dd1b)" style="fill: none; stroke: #0000ff; stroke-linecap: square"/>
   </g>
   <g id="line2d_42">
    <path d="M 295.979375 36.172917 
L 481.809375 36.172917 
" clip-path="url(#pbc0df5dd1b)" style="fill: none; stroke-dasharray: 7.4,3.2; stroke-dashoffset: 0; stroke: #000000; stroke-opacity: 0.7; stroke-width: 2"/>
   </g>
   <g id="line2d_43">
    <path d="M 295.979375 135.399583 
L 481.809375 135.399583 
" clip-path="url(#pbc0df5dd1b)" style="fill: none; stroke-dasharray: 7.4,3.2; stroke-dashoffset: 0; stroke: #000000; stroke-opacity: 0.7; stroke-width: 2"/>
   </g>
   <g id="patch_8">
    <path d="M 295.979375 160.20625 
L 295.979375 11.36625 
" style="fill: none; stroke: #000000; stroke-width: 0.8; stroke-linejoin: miter; stroke-linecap: square"/>
   </g>
   <g id="patch_9">
    <path d="M 481.809375 160.20625 
L 481.809375 11.36625 
" style="fill: none; stroke: #000000; stroke-width: 0.8; stroke-linejoin: miter; stroke-linecap: square"/>
   </g>
   <g id="patch_10">
    <path d="M 295.979375 160.20625 
L 481.809375 160.20625 
" style="fill: none; stroke: #000000; stroke-width: 0.8; stroke-linejoin: miter; stroke-linecap: square"/>
   </g>
   <g id="patch_11">
    <path d="M 295.979375 11.36625 
L 481.809375 11.36625 
" style="fill: none; stroke: #000000; stroke-width: 0.8; stroke-linejoin: miter; stroke-linecap: square"/>
   </g>
  </g>
 </g>
 <defs>
  <clipPath id="p7938d3ea9a">
   <rect x="50.099375" y="11.36625" width="185.83" height="148.84"/>
  </clipPath>
  <clipPath id="pbc0df5dd1b">
   <rect x="295.979375" y="11.36625" width="185.83" height="148.84"/>
  </clipPath>
 </defs>
</svg>
