<?xml version="1.0" encoding="utf-8" standalone="no"?>
<!DOCTYPE svg PUBLIC "-//W3C//DTD SVG 1.1//EN"
  "http://www.w3.org/Graphics/SVG/1.1/DTD/svg11.dtd">
<svg xmlns:xlink="http://www.w3.org/1999/xlink" width="85.50653pt" height="200.35875pt" viewBox="0 0 85.50653 200.35875" xmlns="http://www.w3.org/2000/svg" version="1.1">
 <metadata>
  <rdf:RDF xmlns:dc="http://purl.org/dc/elements/1.1/" xmlns:cc="http://creativecommons.org/ns#" xmlns:rdf="http://www.w3.org/1999/02/22-rdf-syntax-ns#">
   <cc:Work>
    <dc:type rdf:resource="http://purl.org/dc/dcmitype/StillImage"/>
    <dc:date>2026-01-18T23:30:34.475476</dc:date>
    <dc:format>image/svg+xml</dc:format>
    <dc:creator>
     <cc:Agent>
      <dc:title>Matplotlib v3.6.3, https://matplotlib.org/</dc:title>
     </cc:Agent>
    </dc:creator>
   </cc:Work>
  </rdf:RDF>
 </metadata>
 <defs>
  <style type="text/css">*{stroke-linejoin: round; stroke-linecap: butt}</style>
 </defs>
 <g id="figure_1">
  <g id="patch_1">
   <path d="M 0 200.35875 
L 85.50653 200.35875 
L 85.50653 -0 
L 0 -0 
z
" style="fill: #ffffff"/>
  </g>
  <g id="axes_1">
   <g id="patch_2">
    <path d="M 35.099375 160.36 
L 78.129174 160.36 
L 78.129174 7.2 
L 35.099375 7.2 
z
" style="fill: #ffffff"/>
   </g>
   <g id="matplotlib.axis_1">
    <g id="xtick_1">
     <g id="line2d_1">
      <path d="M 75.30653 160.36 
L 75.30653 7.2 
" clip-path="url(#p8f00e796a5)" style="fill: none; stroke: #b0b0b0; stroke-opacity: 0.3; stroke-width: 0.8; stroke-linecap: square"/>
     </g>
     <g id="line2d_2">
      <defs>
       <path id="mc8bbb9f6df" d="M 0 0 
L 0 3.5 
" style="stroke: #000000; stroke-width: 0.8"/>
      </defs>
      <g>
       <use xlink:href="#mc8bbb9f6df" x="75.30653" y="160.36" style="stroke: #000000; stroke-width: 0.8"/>
      </g>
     </g>
     <g id="text_1">
      <!-- 0 -->
      <g transform="translate(72.30653 175.6925) scale(0.12 -0.12)">
       <defs>
        <path id="TimesNewRomanPSMT-30" d="M 231 2094 
Q 231 2819 450 3342 
Q 669 3866 1031 4122 
Q 1313 4325 1613 4325 
Q 2100 4325 2488 3828 
Q 2972 3213 2972 2159 
Q 2972 1422 2759 906 
Q 2547 391 2217 158 
Q 1888 -75 1581 -75 
Q 975 -75 572 641 
Q 231 1244 231 2094 
z
M 844 2016 
Q 844 1141 1059 588 
Q 1238 122 1591 122 
Q 1759 122 1940 273 
Q 2122 425 2216 781 
Q 2359 1319 2359 2297 
Q 2359 3022 2209 3506 
Q 2097 3866 1919 4016 
Q 1791 4119 1609 4119 
Q 1397 4119 1231 3928 
Q 1006 3669 925 3112 
Q 844 2556 844 2016 
z
" transform="scale(0.015625)"/>
       </defs>
       <use xlink:href="#TimesNewRomanPSMT-30"/>
      </g>
     </g>
    </g>
    <g id="xtick_2">
     <g id="line2d_3">
      <path d="M 41.017714 160.36 
L 41.017714 7.2 
" clip-path="url(#p8f00e796a5)" style="fill: none; stroke: #b0b0b0; stroke-opacity: 0.3; stroke-width: 0.8; stroke-linecap: square"/>
     </g>
     <g id="line2d_4">
      <g>
       <use xlink:href="#mc8bbb9f6df" x="41.017714" y="160.36" style="stroke: #000000; stroke-width: 0.8"/>
      </g>
     </g>
     <g id="text_2">
      <!-- 2 -->
      <g transform="translate(38.017714 175.6925) scale(0.12 -0.12)">
       <defs>
        <path id="TimesNewRomanPSMT-32" d="M 2934 816 
L 2638 0 
L 138 0 
L 138 116 
Q 1241 1122 1691 1759 
Q 2141 2397 2141 2925 
Q 2141 3328 1894 3587 
Q 1647 3847 1303 3847 
Q 991 3847 742 3664 
Q 494 3481 375 3128 
L 259 3128 
Q 338 3706 661 4015 
Q 984 4325 1469 4325 
Q 1984 4325 2329 3994 
Q 2675 3663 2675 3213 
Q 2675 2891 2525 2569 
Q 2294 2063 1775 1497 
Q 997 647 803 472 
L 1909 472 
Q 2247 472 2383 497 
Q 2519 522 2628 598 
Q 2738 675 2819 816 
L 2934 816 
z
" transform="scale(0.015625)"/>
       </defs>
       <use xlink:href="#TimesNewRomanPSMT-32"/>
      </g>
     </g>
    </g>
    <g id="text_3">
     <!-- $y$ [m] -->
     <g transform="translate(43.774274 190.591875) scale(0.12 -0.12)">
      <defs>
       <path id="STIXGeneral-Italic-79" d="M 1555 1190 
L 1690 486 
Q 2118 1190 2294 1558 
Q 2470 1926 2470 2131 
Q 2470 2234 2304 2336 
Q 2138 2445 2138 2586 
Q 2138 2688 2211 2755 
Q 2285 2822 2394 2822 
Q 2534 2822 2630 2720 
Q 2726 2618 2726 2470 
Q 2726 1914 1888 518 
Q 1389 -307 918 -812 
Q 448 -1318 173 -1318 
Q 26 -1318 -64 -1241 
Q -154 -1165 -154 -1043 
Q -154 -934 -80 -860 
Q -6 -787 96 -787 
Q 218 -787 314 -876 
Q 410 -966 486 -966 
Q 602 -966 794 -755 
Q 877 -672 1040 -457 
Q 1203 -243 1248 -173 
Q 1312 -45 1312 51 
Q 1312 243 1113 1046 
Q 915 1850 787 2176 
Q 698 2413 592 2499 
Q 486 2586 294 2586 
Q 192 2586 96 2560 
L 96 2669 
Q 237 2694 301 2707 
Q 563 2758 986 2822 
L 1011 2822 
Q 1082 2822 1277 2227 
Q 1472 1632 1555 1190 
z
" transform="scale(0.015625)"/>
       <path id="TimesNewRomanPSMT-20" transform="scale(0.015625)"/>
       <path id="TimesNewRomanPSMT-5b" d="M 1900 -1269 
L 525 -1269 
L 525 4334 
L 1900 4334 
L 1900 4088 
L 994 4088 
L 994 -1025 
L 1900 -1025 
L 1900 -1269 
z
" transform="scale(0.015625)"/>
       <path id="TimesNewRomanPSMT-6d" d="M 1050 2338 
Q 1363 2650 1419 2697 
Q 1559 2816 1721 2881 
Q 1884 2947 2044 2947 
Q 2313 2947 2506 2790 
Q 2700 2634 2766 2338 
Q 3088 2713 3309 2830 
Q 3531 2947 3766 2947 
Q 3994 2947 4170 2830 
Q 4347 2713 4450 2447 
Q 4519 2266 4519 1878 
L 4519 647 
Q 4519 378 4559 278 
Q 4591 209 4675 161 
Q 4759 113 4950 113 
L 4950 0 
L 3538 0 
L 3538 113 
L 3597 113 
Q 3781 113 3884 184 
Q 3956 234 3988 344 
Q 4000 397 4000 647 
L 4000 1878 
Q 4000 2228 3916 2372 
Q 3794 2572 3525 2572 
Q 3359 2572 3192 2489 
Q 3025 2406 2788 2181 
L 2781 2147 
L 2788 2013 
L 2788 647 
Q 2788 353 2820 281 
Q 2853 209 2943 161 
Q 3034 113 3253 113 
L 3253 0 
L 1806 0 
L 1806 113 
Q 2044 113 2133 169 
Q 2222 225 2256 338 
Q 2272 391 2272 647 
L 2272 1878 
Q 2272 2228 2169 2381 
Q 2031 2581 1784 2581 
Q 1616 2581 1450 2491 
Q 1191 2353 1050 2181 
L 1050 647 
Q 1050 366 1089 281 
Q 1128 197 1204 155 
Q 1281 113 1516 113 
L 1516 0 
L 100 0 
L 100 113 
Q 297 113 375 155 
Q 453 197 493 289 
Q 534 381 534 647 
L 534 1741 
Q 534 2213 506 2350 
Q 484 2453 437 2492 
Q 391 2531 309 2531 
Q 222 2531 100 2484 
L 53 2597 
L 916 2947 
L 1050 2947 
L 1050 2338 
z
" transform="scale(0.015625)"/>
       <path id="TimesNewRomanPSMT-5d" d="M 234 4334 
L 1609 4334 
L 1609 -1272 
L 234 -1272 
L 234 -1025 
L 1141 -1025 
L 1141 4088 
L 234 4088 
L 234 4334 
z
" transform="scale(0.015625)"/>
      </defs>
      <use xlink:href="#STIXGeneral-Italic-79" transform="translate(0 0.28125)"/>
      <use xlink:href="#TimesNewRomanPSMT-20" transform="translate(44.399994 0.28125)"/>
      <use xlink:href="#TimesNewRomanPSMT-5b" transform="translate(69.399994 0.28125)"/>
      <use xlink:href="#TimesNewRomanPSMT-6d" transform="translate(102.700775 0.28125)"/>
      <use xlink:href="#TimesNewRomanPSMT-5d" transform="translate(180.483978 0.28125)"/>
     </g>
    </g>
   </g>
   <g id="matplotlib.axis_2">
    <g id="ytick_1">
     <g id="line2d_5">
      <path d="M 35.099375 153.397049 
L 78.129174 153.397049 
" clip-path="url(#p8f00e796a5)" style="fill: none; stroke: #b0b0b0; stroke-opacity: 0.3; stroke-width: 0.8; stroke-linecap: square"/>
     </g>
     <g id="line2d_6">
      <defs>
       <path id="mb87bf6a7d0" d="M 0 0 
L -3.5 0 
" style="stroke: #000000; stroke-width: 0.8"/>
      </defs>
      <g>
       <use xlink:href="#mb87bf6a7d0" x="35.099375" y="153.397049" style="stroke: #000000; stroke-width: 0.8"/>
      </g>
     </g>
     <g id="text_4">
      <!-- 0 -->
      <g transform="translate(22.099375 157.563299) scale(0.12 -0.12)">
       <use xlink:href="#TimesNewRomanPSMT-30"/>
      </g>
     </g>
    </g>
    <g id="ytick_2">
     <g id="line2d_7">
      <path d="M 35.099375 119.108233 
L 78.129174 119.108233 
" clip-path="url(#p8f00e796a5)" style="fill: none; stroke: #b0b0b0; stroke-opacity: 0.3; stroke-width: 0.8; stroke-linecap: square"/>
     </g>
     <g id="line2d_8">
      <g>
       <use xlink:href="#mb87bf6a7d0" x="35.099375" y="119.108233" style="stroke: #000000; stroke-width: 0.8"/>
      </g>
     </g>
     <g id="text_5">
      <!-- 2 -->
      <g transform="translate(22.099375 123.274483) scale(0.12 -0.12)">
       <use xlink:href="#TimesNewRomanPSMT-32"/>
      </g>
     </g>
    </g>
    <g id="ytick_3">
     <g id="line2d_9">
      <path d="M 35.099375 84.819416 
L 78.129174 84.819416 
" clip-path="url(#p8f00e796a5)" style="fill: none; stroke: #b0b0b0; stroke-opacity: 0.3; stroke-width: 0.8; stroke-linecap: square"/>
     </g>
     <g id="line2d_10">
      <g>
       <use xlink:href="#mb87bf6a7d0" x="35.099375" y="84.819416" style="stroke: #000000; stroke-width: 0.8"/>
      </g>
     </g>
     <g id="text_6">
      <!-- 4 -->
      <g transform="translate(22.099375 88.985666) scale(0.12 -0.12)">
       <defs>
        <path id="TimesNewRomanPSMT-34" d="M 2978 1563 
L 2978 1119 
L 2409 1119 
L 2409 0 
L 1894 0 
L 1894 1119 
L 100 1119 
L 100 1519 
L 2066 4325 
L 2409 4325 
L 2409 1563 
L 2978 1563 
z
M 1894 1563 
L 1894 3666 
L 406 1563 
L 1894 1563 
z
" transform="scale(0.015625)"/>
       </defs>
       <use xlink:href="#TimesNewRomanPSMT-34"/>
      </g>
     </g>
    </g>
    <g id="ytick_4">
     <g id="line2d_11">
      <path d="M 35.099375 50.5306 
L 78.129174 50.5306 
" clip-path="url(#p8f00e796a5)" style="fill: none; stroke: #b0b0b0; stroke-opacity: 0.3; stroke-width: 0.8; stroke-linecap: square"/>
     </g>
     <g id="line2d_12">
      <g>
       <use xlink:href="#mb87bf6a7d0" x="35.099375" y="50.5306" style="stroke: #000000; stroke-width: 0.8"/>
      </g>
     </g>
     <g id="text_7">
      <!-- 6 -->
      <g transform="translate(22.099375 54.69685) scale(0.12 -0.12)">
       <defs>
        <path id="TimesNewRomanPSMT-36" d="M 2869 4325 
L 2869 4209 
Q 2456 4169 2195 4045 
Q 1934 3922 1679 3669 
Q 1425 3416 1258 3105 
Q 1091 2794 978 2366 
Q 1428 2675 1881 2675 
Q 2316 2675 2634 2325 
Q 2953 1975 2953 1425 
Q 2953 894 2631 456 
Q 2244 -75 1606 -75 
Q 1172 -75 869 213 
Q 275 772 275 1663 
Q 275 2231 503 2743 
Q 731 3256 1154 3653 
Q 1578 4050 1965 4187 
Q 2353 4325 2688 4325 
L 2869 4325 
z
M 925 2138 
Q 869 1716 869 1456 
Q 869 1156 980 804 
Q 1091 453 1309 247 
Q 1469 100 1697 100 
Q 1969 100 2183 356 
Q 2397 613 2397 1088 
Q 2397 1622 2184 2012 
Q 1972 2403 1581 2403 
Q 1463 2403 1327 2353 
Q 1191 2303 925 2138 
z
" transform="scale(0.015625)"/>
       </defs>
       <use xlink:href="#TimesNewRomanPSMT-36"/>
      </g>
     </g>
    </g>
    <g id="ytick_5">
     <g id="line2d_13">
      <path d="M 35.099375 16.241784 
L 78.129174 16.241784 
" clip-path="url(#p8f00e796a5)" style="fill: none; stroke: #b0b0b0; stroke-opacity: 0.3; stroke-width: 0.8; stroke-linecap: square"/>
     </g>
     <g id="line2d_14">
      <g>
       <use xlink:href="#mb87bf6a7d0" x="35.099375" y="16.241784" style="stroke: #000000; stroke-width: 0.8"/>
      </g>
     </g>
     <g id="text_8">
      <!-- 8 -->
      <g transform="translate(22.099375 20.408034) scale(0.12 -0.12)">
       <defs>
        <path id="TimesNewRomanPSMT-38" d="M 1228 2134 
Q 725 2547 579 2797 
Q 434 3047 434 3316 
Q 434 3728 753 4026 
Q 1072 4325 1600 4325 
Q 2113 4325 2425 4047 
Q 2738 3769 2738 3413 
Q 2738 3175 2569 2928 
Q 2400 2681 1866 2347 
Q 2416 1922 2594 1678 
Q 2831 1359 2831 1006 
Q 2831 559 2490 242 
Q 2150 -75 1597 -75 
Q 994 -75 656 303 
Q 388 606 388 966 
Q 388 1247 577 1523 
Q 766 1800 1228 2134 
z
M 1719 2469 
Q 2094 2806 2194 3001 
Q 2294 3197 2294 3444 
Q 2294 3772 2109 3958 
Q 1925 4144 1606 4144 
Q 1288 4144 1088 3959 
Q 888 3775 888 3528 
Q 888 3366 970 3203 
Q 1053 3041 1206 2894 
L 1719 2469 
z
M 1375 2016 
Q 1116 1797 991 1539 
Q 866 1281 866 981 
Q 866 578 1086 336 
Q 1306 94 1647 94 
Q 1984 94 2187 284 
Q 2391 475 2391 747 
Q 2391 972 2272 1150 
Q 2050 1481 1375 2016 
z
" transform="scale(0.015625)"/>
       </defs>
       <use xlink:href="#TimesNewRomanPSMT-38"/>
      </g>
     </g>
    </g>
    <g id="text_9">
     <!-- $x$ [m] -->
     <g transform="translate(15.5325 96.62) rotate(-90) scale(0.12 -0.12)">
      <defs>
       <path id="STIXGeneral-Italic-78" d="M 1555 2272 
L 1632 1907 
Q 1971 2426 2179 2624 
Q 2387 2822 2598 2822 
Q 2714 2822 2787 2755 
Q 2861 2688 2861 2585 
Q 2861 2483 2800 2419 
Q 2739 2355 2643 2355 
Q 2586 2355 2490 2409 
Q 2394 2464 2310 2464 
Q 2125 2464 1683 1690 
Q 1683 1606 1734 1402 
L 1939 544 
Q 2003 282 2131 282 
Q 2234 282 2432 538 
Q 2451 563 2476 598 
Q 2502 634 2521 662 
Q 2541 691 2566 717 
L 2662 659 
Q 2387 230 2227 80 
Q 2067 -70 1882 -70 
Q 1728 -70 1645 26 
Q 1562 122 1504 365 
L 1318 1126 
L 755 365 
Q 557 96 432 13 
Q 307 -70 147 -70 
Q 0 -70 -86 0 
Q -173 70 -173 198 
Q -173 294 -112 361 
Q -51 429 45 429 
Q 122 429 250 358 
Q 346 301 416 301 
Q 525 301 742 614 
L 1267 1357 
L 1088 2150 
Q 1024 2432 969 2509 
Q 915 2586 794 2586 
Q 717 2586 544 2541 
L 429 2509 
L 410 2611 
L 480 2637 
Q 992 2822 1229 2822 
Q 1350 2822 1420 2707 
Q 1491 2592 1555 2272 
z
" transform="scale(0.015625)"/>
      </defs>
      <use xlink:href="#STIXGeneral-Italic-78" transform="translate(0 0.28125)"/>
      <use xlink:href="#TimesNewRomanPSMT-20" transform="translate(44.399994 0.28125)"/>
      <use xlink:href="#TimesNewRomanPSMT-5b" transform="translate(69.399994 0.28125)"/>
      <use xlink:href="#TimesNewRomanPSMT-6d" transform="translate(102.700775 0.28125)"/>
      <use xlink:href="#TimesNewRomanPSMT-5d" transform="translate(180.483978 0.28125)"/>
     </g>
    </g>
   </g>
   <g id="line2d_15">
    <path d="M 75.30653 153.397049 
L 75.341314 147.817137 
L 75.461407 147.342825 
L 75.461308 145.029175 
L 75.273943 144.802104 
L 75.385467 143.130313 
L 75.412548 142.082079 
L 75.349342 141.719908 
L 75.163144 141.404989 
L 75.113343 140.641096 
L 74.96682 140.187131 
L 74.950488 139.093996 
L 75.148246 139.030272 
L 75.051095 137.173182 
L 74.872135 136.81851 
L 74.868411 136.474374 
L 75.061055 135.800912 
L 75.111281 134.533483 
L 74.645182 133.601056 
L 74.65333 132.745825 
L 75.267616 133.439903 
L 75.290313 132.846309 
L 74.72808 131.557293 
L 74.736907 131.126849 
L 74.887804 131.01653 
L 75.514581 131.730654 
L 75.538002 131.306963 
L 75.346981 131.025083 
L 75.337312 129.875382 
L 75.305223 128.57914 
L 75.314758 128.241943 
L 75.231612 126.307753 
L 75.270223 124.820457 
L 75.180913 124.195282 
L 75.240939 122.731964 
L 75.054917 122.411043 
L 74.904723 118.843325 
L 74.815989 116.62141 
L 75.061154 115.15045 
L 75.306785 110.769329 
L 75.282767 109.680511 
L 74.980713 106.014824 
L 74.908947 105.177286 
L 74.565147 103.934742 
L 74.414342 103.828086 
L 73.20182 100.32436 
L 72.475246 99.123057 
L 71.780578 98.142296 
L 71.035723 97.297144 
L 70.713583 96.893052 
L 70.725617 96.648138 
L 69.76017 95.590434 
L 69.000387 94.705905 
L 68.610509 93.926334 
L 67.407482 92.809763 
L 67.091401 92.689345 
L 66.497362 92.262072 
L 65.872277 91.721733 
L 65.509584 91.190823 
L 64.231642 89.971376 
L 63.825209 89.429104 
L 63.445239 89.090664 
L 63.032793 88.464136 
L 61.949523 87.628665 
L 58.059636 84.423118 
L 57.678209 83.920047 
L 57.043935 83.344606 
L 57.005551 83.512854 
L 55.261992 82.064794 
L 54.564739 81.493732 
L 52.536168 79.816527 
L 52.054662 79.482742 
L 51.714593 79.197437 
L 51.113312 78.87032 
L 49.644482 77.357384 
L 49.376937 76.932887 
L 49.026253 76.56262 
L 49.436342 76.041752 
L 48.666717 75.352272 
L 48.010001 74.768963 
L 47.832971 74.581507 
L 47.088821 74.406664 
L 45.5691 72.682306 
L 45.267415 72.179031 
L 43.071291 69.755843 
L 42.105831 67.929391 
L 41.791519 67.417388 
L 41.81968 66.876046 
L 40.997285 65.180988 
L 40.909175 64.936359 
L 40.943997 64.53012 
L 40.347753 63.118383 
L 40.119269 62.962872 
L 39.709461 61.985932 
L 39.513091 61.445009 
L 39.424108 61.112553 
L 39.026373 60.887447 
L 38.822903 60.05211 
L 38.58969 59.882505 
L 38.426771 59.125739 
L 38.100032 58.534109 
L 37.61615 55.154676 
L 37.574215 50.765185 
L 37.463575 50.067885 
L 37.969694 42.831989 
L 37.935723 42.263692 
L 38.599414 35.151491 
L 38.643156 33.914119 
L 38.788944 31.924873 
L 38.675187 31.17509 
L 38.687681 30.918701 
L 38.571125 30.147808 
L 38.735365 28.171635 
L 38.871486 28.016844 
L 38.904204 25.842355 
L 38.802451 24.739437 
L 38.833612 22.781184 
L 38.945464 22.692801 
L 39.061831 20.989787 
L 39.121863 20.278673 
L 38.999877 20.312608 
L 39.008327 18.853908 
L 38.807609 18.507185 
L 38.874654 15.533318 
L 38.923616 15.919867 
L 38.940889 16.026121 
L 38.981493 15.583454 
L 38.981493 15.583454 
" clip-path="url(#p8f00e796a5)" style="fill: none; stroke: #0000ff; stroke-width: 0.5; stroke-linecap: square"/>
   </g>
   <g id="line2d_16">
    <path d="M 75.30653 153.397049 
L 75.30653 153.398181 
L 75.412878 143.199782 
L 75.478292 141.452213 
L 75.508372 130.043697 
L 75.682586 129.345555 
L 75.703219 125.016008 
L 75.802106 124.731632 
L 75.709051 122.969175 
L 75.401176 120.7501 
L 75.30941 119.003673 
L 75.118931 118.604522 
L 75.080316 116.808029 
L 75.119597 116.869179 
L 74.975493 114.872777 
L 74.867794 111.860503 
L 74.980353 111.163704 
L 74.981513 108.446039 
L 74.836383 107.450109 
L 74.583279 104.578216 
L 74.40358 103.825961 
L 74.030033 103.288652 
L 73.497967 101.997121 
L 73.383375 101.432201 
L 73.241609 101.124852 
L 73.079766 101.206635 
L 71.399855 98.359229 
L 70.277274 96.393292 
L 69.72725 95.846478 
L 67.448539 93.137648 
L 67.345917 93.131878 
L 66.644139 92.290794 
L 66.055039 91.519472 
L 62.384532 87.991257 
L 62.160926 87.406037 
L 61.510502 86.91199 
L 61.044509 86.636018 
L 60.591673 86.239067 
L 61.112418 87.063033 
L 60.916296 86.893917 
L 60.656385 86.670092 
L 58.696751 85.22124 
L 57.433289 84.004535 
L 55.646059 82.346772 
L 54.367479 81.309561 
L 53.958986 80.987658 
L 53.567467 80.557888 
L 52.728032 79.585984 
L 52.217765 79.070546 
L 51.465931 78.639605 
L 50.11117 77.458419 
L 49.554786 76.929807 
L 49.481986 76.350538 
L 49.127201 75.977893 
L 48.93008 75.447861 
L 48.575402 75.064207 
L 48.288739 74.346799 
L 47.041256 72.959915 
L 47.343204 72.687729 
L 45.274165 70.673347 
L 43.456444 69.370288 
L 43.012744 69.026405 
L 42.465184 68.619895 
L 41.552274 67.596754 
L 41.136699 66.812058 
L 40.481964 65.801508 
L 40.136639 64.886484 
L 40.01697 64.659406 
L 39.493871 64.104983 
L 39.032018 63.23522 
L 38.610234 62.61711 
L 37.909975 60.504256 
L 37.991108 59.833756 
L 37.878948 59.207397 
L 37.612065 58.761717 
L 37.437196 57.978492 
L 37.085026 55.71482 
L 37.240802 51.945202 
L 37.442547 49.428769 
L 37.199288 49.160848 
L 37.426479 47.552839 
L 37.611501 47.145387 
L 38.289428 41.382737 
L 38.302468 40.584942 
L 38.635981 38.639926 
L 38.705591 36.891984 
L 38.792371 35.550546 
L 38.92261 33.448765 
L 38.92046 32.432206 
L 38.998879 32.232037 
L 38.952925 30.683883 
L 38.921419 29.302036 
L 38.495475 27.402829 
L 38.503489 26.898588 
L 38.956861 27.873122 
L 38.955272 24.764956 
L 38.900154 23.9387 
L 38.85529 22.010172 
L 38.664598 21.48234 
L 38.689366 15.508549 
L 38.689366 15.508549 
" clip-path="url(#p8f00e796a5)" style="fill: none; stroke: #0000ff; stroke-width: 0.5; stroke-linecap: square"/>
   </g>
   <g id="line2d_17">
    <path d="M 75.30653 153.397049 
L 75.216499 143.401041 
L 75.116132 141.356348 
L 75.201683 140.2912 
L 75.47771 139.49768 
L 75.455879 138.103401 
L 75.30655 137.277323 
L 75.313523 136.766258 
L 75.502368 136.502991 
L 75.445727 135.526286 
L 75.369661 134.386424 
L 75.46163 132.222348 
L 75.427352 128.777647 
L 75.426972 125.898298 
L 75.565717 125.128204 
L 75.63453 123.044281 
L 75.74097 122.522894 
L 75.600857 117.301343 
L 75.570267 114.742918 
L 75.67629 114.53641 
L 75.489513 109.970511 
L 75.365658 110.021333 
L 75.249 107.601158 
L 75.042616 107.630546 
L 74.705391 105.361946 
L 74.430557 104.810313 
L 74.275002 104.229975 
L 73.606306 104.597547 
L 73.218501 103.343383 
L 73.26967 102.984104 
L 72.831293 101.248832 
L 72.622372 101.118946 
L 71.520961 98.990033 
L 70.241177 96.669605 
L 68.708009 94.568319 
L 69.085128 93.808219 
L 68.988442 93.52209 
L 68.104372 92.442234 
L 67.691685 91.911761 
L 65.839486 90.245936 
L 64.820062 89.43007 
L 64.604403 88.956345 
L 60.179219 85.32135 
L 59.819907 85.279871 
L 58.389464 84.397064 
L 57.964365 83.837266 
L 53.874458 80.676644 
L 53.355797 80.347754 
L 52.904679 79.949162 
L 52.246241 80.246129 
L 51.498725 79.485758 
L 51.920088 79.234947 
L 51.941185 78.965923 
L 50.492979 77.70985 
L 50.15634 77.560602 
L 49.654542 77.84292 
L 49.342255 77.800764 
L 48.920323 77.413018 
L 48.536637 77.204544 
L 47.350716 75.822676 
L 47.148537 75.218533 
L 47.045847 74.206742 
L 46.776611 73.768655 
L 46.319297 73.070542 
L 43.42909 69.450211 
L 43.39683 69.77074 
L 43.482772 70.574803 
L 43.027493 70.027489 
L 42.329566 68.202046 
L 41.504013 66.953364 
L 41.438273 66.725954 
L 41.544637 66.640172 
L 41.159138 65.892298 
L 40.866106 66.12596 
L 40.551304 65.419486 
L 40.275089 66.013988 
L 39.490423 63.996507 
L 39.407044 63.754944 
L 39.023434 63.612683 
L 38.772966 62.789046 
L 38.851963 62.611459 
L 37.958097 59.329802 
L 37.658552 58.889471 
L 37.456701 57.313306 
L 37.340551 57.032036 
L 37.375485 55.299981 
L 37.522744 54.608426 
L 37.495401 53.396518 
L 37.34905 52.461705 
L 37.398396 51.867434 
L 37.244894 51.146794 
L 37.347108 48.976117 
L 37.55027 48.878879 
L 37.605421 48.163437 
L 37.495717 47.704986 
L 37.791975 44.671133 
L 37.92278 43.528247 
L 38.057529 43.049884 
L 38.229056 41.344429 
L 38.249293 40.426583 
L 38.675419 37.455615 
L 38.655701 36.872261 
L 38.88096 34.895681 
L 38.972754 34.273339 
L 38.943623 31.76991 
L 38.798546 30.938976 
L 38.744653 28.688954 
L 38.702136 26.175518 
L 38.62907 25.439938 
L 38.54049 24.8392 
L 38.488084 24.243458 
L 38.509237 23.891565 
L 38.679594 23.328965 
L 38.651282 20.71075 
L 38.55632 20.045345 
L 38.681089 19.737305 
L 38.73877 19.289936 
L 38.719581 16.854275 
L 38.682603 16.876139 
L 38.671079 16.764267 
L 38.744236 16.177822 
L 38.744236 16.177822 
" clip-path="url(#p8f00e796a5)" style="fill: none; stroke: #0000ff; stroke-width: 0.5; stroke-linecap: square"/>
   </g>
   <g id="line2d_18">
    <path d="M 75.30653 153.397049 
L 75.398977 143.933931 
L 75.426798 143.266481 
L 75.594105 141.803695 
L 75.626896 139.733032 
L 75.50344 138.666495 
L 75.542427 138.592469 
L 75.606695 137.480108 
L 75.597739 133.912015 
L 75.536727 129.592158 
L 75.691173 128.89779 
L 75.721987 125.588378 
L 74.988711 119.382763 
L 75.036333 118.133332 
L 74.810693 116.076611 
L 74.671721 105.758015 
L 74.359913 104.132754 
L 73.733735 102.059587 
L 73.295785 101.17888 
L 72.658621 99.978692 
L 72.224675 99.316828 
L 69.133984 94.919068 
L 68.313171 94.153546 
L 68.043298 93.681428 
L 67.633328 93.238053 
L 67.303468 92.63703 
L 66.877668 92.270597 
L 66.660546 92.336778 
L 66.014657 91.801127 
L 65.86694 91.766748 
L 64.512485 90.624259 
L 60.904152 87.456363 
L 60.190098 86.59543 
L 59.062453 85.249219 
L 58.982378 85.01637 
L 51.763245 78.136959 
L 51.454712 77.674405 
L 50.981131 77.072917 
L 48.397212 74.431414 
L 48.244464 74.43037 
L 47.666007 73.904997 
L 46.831369 73.291691 
L 44.781589 71.287154 
L 43.290083 69.303484 
L 42.904842 68.840669 
L 42.547163 68.669245 
L 41.3428 66.947717 
L 40.693799 65.813009 
L 40.399078 65.038786 
L 39.237809 62.278148 
L 38.976719 61.045149 
L 38.710241 60.157835 
L 38.404211 57.954771 
L 38.230204 57.722654 
L 38.168489 57.125004 
L 37.979355 56.663986 
L 37.932785 56.067231 
L 37.72463 55.35513 
L 37.707678 53.635299 
L 37.786665 53.100148 
L 37.943175 51.671139 
L 37.990522 50.588137 
L 37.916123 50.093239 
L 38.102136 46.726716 
L 38.052744 45.184641 
L 38.064244 43.735912 
L 38.035194 43.206309 
L 38.475926 36.497889 
L 37.782153 36.221657 
L 37.842604 34.259015 
L 37.742407 33.095395 
L 38.149891 28.684372 
L 38.515261 24.084245 
L 38.308265 20.810032 
L 38.413087 20.830398 
L 38.434797 19.202988 
L 38.347664 19.142791 
L 38.545067 15.760964 
L 38.545067 15.760964 
" clip-path="url(#p8f00e796a5)" style="fill: none; stroke: #0000ff; stroke-width: 0.5; stroke-linecap: square"/>
   </g>
   <g id="line2d_19">
    <path d="M 75.30653 153.397049 
L 75.403024 140.729038 
L 75.385692 140.016796 
L 75.385304 139.49546 
L 75.242372 139.557214 
L 75.142213 138.904474 
L 75.106813 137.683596 
L 75.142391 137.248198 
L 75.393068 136.057744 
L 75.370383 135.553001 
L 75.247237 135.773536 
L 75.202093 135.688881 
L 75.092315 129.673379 
L 75.346093 129.0317 
L 75.351452 124.485464 
L 75.275804 124.241361 
L 75.330903 122.929913 
L 75.469009 122.170685 
L 75.457998 120.738318 
L 75.227504 120.336619 
L 75.182886 119.39748 
L 75.172243 114.456724 
L 75.280061 113.461279 
L 75.211919 113.121149 
L 75.130187 111.69232 
L 75.168884 110.790461 
L 75.219581 110.174426 
L 75.116556 108.296196 
L 74.95548 106.443969 
L 74.642066 105.141489 
L 73.810502 102.577222 
L 72.761357 100.271836 
L 72.518327 99.598751 
L 71.888266 98.719895 
L 69.195071 94.715127 
L 67.752197 93.258102 
L 66.980679 92.562763 
L 66.724028 92.45696 
L 65.453757 91.094597 
L 65.148792 90.668749 
L 63.201194 88.901817 
L 63.103637 88.60417 
L 60.587182 86.240312 
L 60.268343 85.873682 
L 58.726026 84.42572 
L 58.719832 84.348447 
L 57.589566 83.251165 
L 56.560296 82.443929 
L 54.17249 80.502094 
L 52.912921 79.504941 
L 52.340563 78.98974 
L 51.660785 78.218685 
L 46.903286 73.750999 
L 43.391774 70.156684 
L 42.83539 69.50869 
L 42.584893 68.926487 
L 42.057132 68.146729 
L 41.862806 67.647165 
L 41.181893 66.349802 
L 40.705105 65.17167 
L 40.560247 64.561945 
L 39.727734 62.509719 
L 39.712756 61.909405 
L 38.149857 55.878249 
L 38.102314 55.362519 
L 37.905475 55.205234 
L 37.697101 53.816113 
L 37.448993 52.699212 
L 37.392982 51.211032 
L 37.453722 51.122326 
L 37.681761 47.182968 
L 37.973183 45.520694 
L 38.165177 42.477672 
L 38.610264 36.773822 
L 38.435503 32.184003 
L 38.478941 29.455553 
L 38.405889 28.773902 
L 38.604629 25.606008 
L 38.679057 23.693877 
L 38.685492 21.106052 
L 38.596341 20.387377 
L 38.765362 15.52575 
L 38.765362 15.52575 
" clip-path="url(#p8f00e796a5)" style="fill: none; stroke: #0000ff; stroke-width: 0.5; stroke-linecap: square"/>
   </g>
   <g id="line2d_20">
    <path d="M 75.30653 153.397049 
L 75.202862 140.211563 
L 74.996306 139.416929 
L 74.939575 137.902352 
L 74.844388 136.799851 
L 74.965859 135.189929 
L 74.933207 132.323786 
L 74.761321 132.223819 
L 74.822056 130.54037 
L 75.109273 130.676204 
L 75.56456 131.153952 
L 75.600542 130.300576 
L 74.866697 129.113314 
L 74.977349 127.381345 
L 75.050076 125.944106 
L 75.436462 126.602586 
L 75.44134 126.08127 
L 74.984489 124.151653 
L 75.094377 123.585275 
L 75.105499 122.734613 
L 75.284133 122.95159 
L 75.322773 120.646363 
L 75.371843 119.428414 
L 75.378822 116.5488 
L 75.138928 115.591378 
L 75.13742 114.174367 
L 75.29478 113.950989 
L 75.21663 107.77945 
L 75.035525 107.148843 
L 74.513656 104.567085 
L 74.304893 104.344341 
L 73.704412 102.872368 
L 72.407183 99.98995 
L 71.007516 97.668965 
L 70.709698 96.929299 
L 70.352952 96.294873 
L 70.096981 95.792695 
L 69.26421 94.8605 
L 68.782695 94.350466 
L 67.824137 93.389793 
L 67.233166 92.635951 
L 66.468795 91.744505 
L 65.26059 90.666003 
L 63.34565 88.858353 
L 62.829129 88.629967 
L 59.906401 85.874361 
L 59.646864 85.527865 
L 57.520439 83.707061 
L 57.316623 83.639623 
L 56.044906 82.440922 
L 55.33774 81.648989 
L 54.570641 80.937953 
L 54.306275 80.573617 
L 51.527637 77.865737 
L 50.975078 77.330187 
L 49.616427 76.123423 
L 48.483052 74.937041 
L 47.209818 73.626552 
L 45.062761 71.538157 
L 44.753218 71.455601 
L 43.565276 70.081696 
L 42.285365 68.189912 
L 41.767251 67.083639 
L 40.901037 65.646917 
L 39.806391 63.522456 
L 38.404327 58.58225 
L 38.321181 58.0722 
L 37.958603 57.325474 
L 37.59759 54.430553 
L 37.703918 54.242225 
L 37.723913 53.713019 
L 37.798246 53.513693 
L 37.781315 48.184506 
L 37.86711 48.043928 
L 37.931118 45.093598 
L 37.92209 44.833083 
L 37.803443 44.219431 
L 38.474849 35.504392 
L 38.669101 34.800132 
L 38.771823 32.12891 
L 38.689876 31.392299 
L 38.804145 27.218486 
L 38.703375 26.710628 
L 38.719299 22.085415 
L 38.626319 21.682072 
L 38.628178 21.306114 
L 38.928807 21.106058 
L 38.910859 20.362211 
L 38.758434 20.002358 
L 38.82009 19.484901 
L 38.907167 19.175156 
L 38.817891 18.693398 
L 38.890238 18.14717 
L 38.833831 17.873794 
L 38.736741 17.55606 
L 38.720091 15.828144 
L 38.720091 15.828144 
" clip-path="url(#p8f00e796a5)" style="fill: none; stroke: #008000; stroke-width: 0.5; stroke-linecap: square"/>
   </g>
   <g id="line2d_21">
    <path d="M 75.30653 153.397049 
L 75.306523 153.398182 
L 75.28265 144.718098 
L 75.23518 143.269027 
L 75.309575 136.866189 
L 75.425543 136.124399 
L 75.464177 131.308552 
L 75.358907 131.215694 
L 75.439167 130.041805 
L 75.631676 128.978497 
L 75.649406 125.926672 
L 75.589613 125.201045 
L 75.58307 124.948981 
L 75.344191 124.21132 
L 75.32167 121.412323 
L 75.455005 121.359726 
L 75.47076 118.173445 
L 75.493671 117.836405 
L 75.400716 110.33435 
L 75.145902 109.397104 
L 73.955913 103.572554 
L 73.106713 101.31993 
L 72.941853 100.858129 
L 71.805229 98.77567 
L 71.438844 98.284498 
L 70.788836 97.308978 
L 70.024738 96.579934 
L 66.808591 92.547839 
L 66.502842 92.300317 
L 61.17852 86.864593 
L 59.129549 85.100583 
L 58.026748 84.311684 
L 56.433908 82.924673 
L 56.064658 82.442656 
L 54.896903 81.51077 
L 53.3677 80.226409 
L 53.003016 80.08553 
L 51.316779 78.643506 
L 49.378689 77.057166 
L 49.547509 77.211739 
L 48.093867 75.632803 
L 47.78054 75.604719 
L 47.113783 74.831429 
L 46.564014 74.173579 
L 45.091677 72.69661 
L 44.705331 71.135908 
L 43.37242 69.422326 
L 42.289463 67.780094 
L 41.709023 66.552924 
L 41.41912 65.931511 
L 40.564858 64.393244 
L 40.432071 64.079055 
L 40.346324 63.376602 
L 40.168372 62.889974 
L 39.921916 62.731565 
L 39.652441 62.723405 
L 38.484888 58.951322 
L 38.438181 58.698904 
L 37.857064 57.876597 
L 37.819652 57.589239 
L 37.894155 57.625901 
L 37.890774 57.151657 
L 37.605901 54.06786 
L 37.459279 53.812673 
L 37.463035 52.949474 
L 37.244343 52.290353 
L 37.155789 51.822162 
L 37.06792 50.931916 
L 37.212373 50.175842 
L 37.231512 48.501917 
L 37.222343 46.790211 
L 37.214319 46.043788 
L 37.153012 45.804008 
L 37.344798 42.943404 
L 37.206653 42.162256 
L 37.64876 38.853263 
L 37.771379 38.656861 
L 38.584826 31.025414 
L 38.632378 29.950134 
L 38.701774 28.848821 
L 38.746708 27.64189 
L 38.954986 26.499859 
L 39.093651 21.366475 
L 39.01832 18.978635 
L 38.973773 17.849938 
L 39.038171 17.264035 
L 39.129333 16.996125 
L 39.126192 15.705695 
L 39.126192 15.705695 
" clip-path="url(#p8f00e796a5)" style="fill: none; stroke: #008000; stroke-width: 0.5; stroke-linecap: square"/>
   </g>
   <g id="line2d_22">
    <path d="M 75.30653 153.397049 
L 75.363339 144.85521 
L 75.429044 143.908887 
L 75.398233 143.083996 
L 75.30317 143.025208 
L 75.270355 142.197139 
L 75.325274 141.128513 
L 75.267934 140.838086 
L 75.102344 140.738657 
L 75.197357 138.940213 
L 75.215151 138.940956 
L 75.307595 137.951027 
L 75.537822 137.372747 
L 75.539624 137.114916 
L 75.412787 136.910627 
L 74.966913 136.766981 
L 74.842239 136.564391 
L 74.831116 135.96137 
L 75.424037 135.584214 
L 75.60281 135.209 
L 75.575775 132.446894 
L 75.388987 132.137581 
L 75.115605 129.290186 
L 75.222424 128.958031 
L 75.232377 127.925591 
L 75.133224 127.64295 
L 75.128205 120.924426 
L 74.993036 121.346448 
L 74.993845 121.089746 
L 75.044184 118.206244 
L 74.891158 117.824733 
L 74.794204 114.655047 
L 74.74316 113.888617 
L 74.745314 113.542935 
L 75.166219 112.728708 
L 75.163741 112.105552 
L 74.977363 111.686276 
L 74.913009 110.849149 
L 74.807838 110.742858 
L 74.800173 109.889896 
L 74.950156 109.773947 
L 74.797882 107.210252 
L 74.515241 105.69257 
L 74.276931 104.79585 
L 73.904232 103.606622 
L 72.96947 100.982879 
L 71.423459 98.843202 
L 70.964468 98.282982 
L 70.194731 96.752648 
L 68.942551 95.192943 
L 67.539813 93.602034 
L 66.426638 92.686911 
L 66.354125 92.413035 
L 65.944065 91.972303 
L 65.674702 91.513345 
L 62.5935 88.381763 
L 61.912957 87.819249 
L 60.970402 86.81492 
L 60.495438 86.281225 
L 59.276865 85.101942 
L 59.267793 84.812052 
L 58.704827 84.296638 
L 58.554156 84.375523 
L 56.985213 82.970852 
L 56.822569 83.001881 
L 56.177471 82.440101 
L 55.75492 81.929059 
L 54.518812 80.765956 
L 54.383941 80.331368 
L 53.140556 79.060396 
L 52.602639 78.245388 
L 52.225403 78.008479 
L 52.154419 78.157923 
L 51.602146 77.643269 
L 51.111439 76.477539 
L 49.774526 75.104489 
L 48.779959 74.140823 
L 48.969123 74.796979 
L 46.645272 72.503144 
L 46.19549 71.826989 
L 45.08128 70.701707 
L 44.676829 70.250627 
L 44.385962 69.779361 
L 43.610635 68.846433 
L 42.048621 66.955395 
L 41.3217 65.842928 
L 40.969454 65.0962 
L 39.878967 62.800169 
L 39.626769 62.560861 
L 39.296001 61.722786 
L 38.9565 61.04842 
L 38.819814 60.29891 
L 38.252728 56.990356 
L 37.892125 54.41503 
L 37.726556 53.901186 
L 37.657568 50.786108 
L 37.738497 48.555631 
L 37.61022 48.316567 
L 37.668281 47.062521 
L 37.656876 46.169299 
L 37.530743 46.016172 
L 37.525911 44.694332 
L 37.530323 42.90895 
L 37.530083 42.928563 
L 38.003154 36.97882 
L 38.189055 34.295593 
L 38.492195 31.810353 
L 38.524129 30.931614 
L 38.473457 30.189478 
L 38.582929 20.521072 
L 38.734257 20.113206 
L 38.720626 18.702173 
L 38.62263 18.770684 
L 38.604371 18.65944 
L 38.586033 18.39118 
L 38.457736 18.130813 
L 38.586311 15.874614 
L 38.586311 15.874614 
" clip-path="url(#p8f00e796a5)" style="fill: none; stroke: #008000; stroke-width: 0.5; stroke-linecap: square"/>
   </g>
   <g id="line2d_23">
    <path d="M 75.30653 153.397049 
L 75.212667 139.292017 
L 75.04106 137.953768 
L 74.986302 137.407592 
L 74.882299 136.737583 
L 74.736783 129.183826 
L 75.595604 129.105552 
L 75.555841 128.208077 
L 75.493421 127.732781 
L 75.418257 127.001958 
L 75.220566 126.476168 
L 75.228029 125.60115 
L 75.505224 125.564034 
L 75.435684 124.428679 
L 75.356902 123.546134 
L 75.623263 121.660993 
L 75.654615 120.74934 
L 75.45585 120.101699 
L 75.449621 119.494082 
L 75.323901 119.564996 
L 75.35407 115.639144 
L 75.50777 113.906683 
L 75.519142 113.058424 
L 75.671779 112.936925 
L 75.563674 109.147628 
L 75.462082 106.532732 
L 75.467275 106.627856 
L 75.136127 105.369754 
L 74.937935 104.641893 
L 74.728698 104.45373 
L 74.119262 102.894622 
L 73.647397 101.99472 
L 72.587545 100.362006 
L 71.321954 98.104106 
L 70.971477 98.177455 
L 70.368027 97.516786 
L 70.019342 97.119821 
L 69.944747 97.168855 
L 69.635933 96.793846 
L 69.462394 95.917855 
L 69.250364 95.645354 
L 69.158783 94.923566 
L 68.630913 94.244896 
L 68.627972 94.014168 
L 66.894821 92.024659 
L 63.845566 89.11096 
L 63.597512 89.055625 
L 63.404157 88.89026 
L 62.682671 87.965635 
L 61.806275 87.02704 
L 60.985237 86.332863 
L 60.376029 86.020316 
L 59.912871 85.740289 
L 59.694308 85.722264 
L 59.241174 85.334649 
L 59.229639 85.496929 
L 59.34616 86.025966 
L 58.748527 85.574721 
L 57.653905 84.421648 
L 51.488958 78.71441 
L 50.83775 76.158491 
L 49.217709 74.654727 
L 48.692133 74.634219 
L 48.375532 74.34421 
L 47.837557 74.409321 
L 47.206208 74.715792 
L 46.583676 74.122727 
L 46.191945 73.998026 
L 44.906138 72.681033 
L 44.220203 71.914819 
L 43.311941 70.995124 
L 42.999558 70.509986 
L 42.424171 69.58126 
L 42.054789 68.841616 
L 41.668979 67.97832 
L 41.653901 67.147168 
L 41.803573 65.928758 
L 41.195982 64.587873 
L 40.181234 62.28811 
L 39.834603 61.528177 
L 39.459514 61.741903 
L 39.075462 62.122462 
L 38.857205 61.248656 
L 39.039989 59.557085 
L 38.980237 59.306282 
L 38.628514 58.585799 
L 38.343922 57.463051 
L 38.14292 56.976039 
L 37.687906 53.641156 
L 37.552431 51.359122 
L 37.382687 50.900294 
L 37.424758 49.442708 
L 37.389541 47.697575 
L 37.4812 44.663878 
L 37.530155 44.067295 
L 37.678591 43.91673 
L 37.760256 42.979036 
L 37.764724 42.370652 
L 37.985733 40.440409 
L 38.194204 39.701229 
L 38.415479 37.056488 
L 38.311661 34.990442 
L 38.648515 31.797766 
L 38.863521 31.107667 
L 38.845381 30.628724 
L 38.707118 30.460451 
L 38.726749 29.786484 
L 38.573536 29.617888 
L 38.105873 29.528557 
L 38.277824 27.597645 
L 38.380431 26.825337 
L 38.547119 22.202022 
L 38.531899 21.29995 
L 38.641999 20.684445 
L 38.723277 20.273505 
L 38.816981 19.935311 
L 39.031983 17.40537 
L 39.088499 16.930734 
L 39.103304 16.492738 
L 38.975982 17.241673 
L 38.977575 17.000877 
L 38.81729 16.543446 
L 38.81729 16.543446 
" clip-path="url(#p8f00e796a5)" style="fill: none; stroke: #008000; stroke-width: 0.5; stroke-linecap: square"/>
   </g>
   <g id="line2d_24">
    <path d="M 75.30653 153.397049 
L 75.317613 144.14428 
L 75.61198 143.013914 
L 75.520036 137.716695 
L 75.530967 135.46485 
L 74.972519 135.460907 
L 74.776566 135.2817 
L 74.611881 133.235462 
L 75.781174 133.043785 
L 75.849313 131.94298 
L 75.922627 131.507028 
L 75.90545 128.559571 
L 75.858241 127.140473 
L 75.959077 125.777689 
L 75.867562 123.757527 
L 75.776351 123.09701 
L 75.6431 121.570502 
L 75.512855 121.082634 
L 75.416625 120.219608 
L 75.325439 119.960832 
L 74.612652 107.144136 
L 74.246922 105.293831 
L 74.066514 104.422845 
L 73.754751 103.796856 
L 72.924938 101.492773 
L 72.609522 100.652614 
L 72.457812 100.064977 
L 70.667226 96.80063 
L 68.463794 93.850466 
L 65.366164 90.585553 
L 61.127862 86.522781 
L 60.919746 86.499465 
L 59.126979 84.803104 
L 57.264173 83.035064 
L 56.243053 82.108271 
L 55.699669 81.982887 
L 54.823224 81.150522 
L 53.41676 79.680763 
L 47.888256 74.577759 
L 46.198214 72.803769 
L 45.690423 72.116428 
L 45.18146 71.72331 
L 41.61826 67.477253 
L 40.118226 64.841667 
L 39.770952 63.716039 
L 38.988377 60.596893 
L 38.939606 60.038991 
L 38.402577 57.48605 
L 38.171048 56.70867 
L 37.970667 53.836639 
L 37.850591 46.989358 
L 38.00086 45.507843 
L 37.989031 43.283045 
L 38.134852 40.427105 
L 37.986022 39.819006 
L 38.09807 37.699885 
L 38.045895 37.04763 
L 38.462825 32.190261 
L 38.573456 31.348004 
L 38.551642 30.474026 
L 38.687144 30.013202 
L 38.832927 27.937196 
L 38.696023 19.590636 
L 38.734929 18.893781 
L 38.686466 18.590888 
L 38.684439 16.332387 
L 38.610979 16.12407 
L 38.670809 15.770272 
L 38.670809 15.770272 
" clip-path="url(#p8f00e796a5)" style="fill: none; stroke: #008000; stroke-width: 0.5; stroke-linecap: square"/>
   </g>
   <g id="line2d_25">
    <path d="M 75.30653 153.397049 
L 75.242851 139.133221 
L 75.156717 138.085447 
L 75.257314 137.478201 
L 75.346097 136.462776 
L 75.472807 133.448351 
L 75.578272 133.086016 
L 75.671954 132.331911 
L 76.045458 132.50828 
L 76.041695 131.816575 
L 75.449282 130.661846 
L 75.448561 129.79976 
L 75.713075 129.794152 
L 76.155225 130.084876 
L 76.089646 127.837953 
L 75.826397 127.191939 
L 75.832098 126.334964 
L 75.961071 126.077428 
L 75.87455 124.936346 
L 75.59006 122.90702 
L 75.520648 118.212642 
L 75.587397 117.680664 
L 75.45786 113.242036 
L 75.341107 112.993533 
L 75.13653 112.839918 
L 74.923915 110.617214 
L 74.789771 108.845801 
L 74.385446 105.887093 
L 73.760918 103.431526 
L 73.460746 102.82517 
L 72.67455 101.126611 
L 71.475227 98.933681 
L 71.431825 98.517871 
L 69.895671 96.133491 
L 69.372775 95.33145 
L 69.106278 94.874357 
L 66.65456 91.897085 
L 66.002 91.41079 
L 63.390523 88.701825 
L 62.983376 88.136645 
L 61.356567 86.59776 
L 61.416944 86.54311 
L 58.701993 84.285609 
L 58.108884 83.842079 
L 55.361723 81.308655 
L 54.613881 80.572107 
L 53.226111 79.28406 
L 52.883826 78.842 
L 48.109553 74.495031 
L 47.860506 74.25753 
L 47.517598 73.719576 
L 45.87225 72.165721 
L 45.771329 71.930456 
L 42.863834 68.958708 
L 42.292609 68.171998 
L 40.196696 64.813207 
L 39.82668 63.675014 
L 39.572593 62.827933 
L 39.504205 62.400839 
L 38.072866 57.145052 
L 37.780082 55.268217 
L 37.708757 54.782431 
L 37.641252 52.855323 
L 37.732548 51.561053 
L 37.653851 50.085178 
L 37.894446 46.240827 
L 37.763646 45.157903 
L 38.223685 36.756982 
L 38.151146 36.004114 
L 38.133318 35.292692 
L 38.072809 33.304359 
L 38.155843 30.39287 
L 38.151798 28.141791 
L 38.201959 27.365376 
L 38.005554 27.027654 
L 38.165225 25.041631 
L 37.993706 24.833117 
L 37.957499 23.960386 
L 37.921347 23.506358 
L 37.999639 23.029227 
L 38.124056 22.584544 
L 38.191236 21.878221 
L 38.341757 22.031395 
L 38.497781 19.2699 
L 38.437361 19.080973 
L 38.591013 17.402084 
L 38.775704 16.903645 
L 38.886473 15.592313 
L 38.939536 15.645689 
" clip-path="url(#p8f00e796a5)" style="fill: none; stroke: #ffa500; stroke-width: 0.5; stroke-linecap: square"/>
   </g>
   <g id="line2d_26">
    <path d="M 75.30653 153.397049 
L 75.19365 144.553375 
L 75.046951 143.775589 
L 75.040381 142.911265 
L 75.375262 142.596816 
L 75.475482 141.979094 
L 75.540457 138.077483 
L 75.247745 137.897592 
L 75.046301 137.607523 
L 74.942162 135.643339 
L 74.857727 135.33024 
L 74.885852 132.101225 
L 74.965025 130.177905 
L 75.072629 127.650862 
L 75.138509 126.71696 
L 75.434603 126.117707 
L 75.508742 124.369011 
L 75.69035 123.26222 
L 75.616003 122.732678 
L 75.58369 121.905225 
L 75.378799 119.299306 
L 75.347378 114.820706 
L 75.446438 114.297384 
L 75.327254 109.220585 
L 75.157452 107.650553 
L 74.947551 107.189709 
L 74.528297 105.292475 
L 74.290874 104.525398 
L 73.385066 101.93631 
L 71.641373 98.353399 
L 69.66273 95.4573 
L 67.971541 93.696439 
L 67.586337 93.421624 
L 64.497422 90.116209 
L 63.610409 89.120878 
L 59.961885 85.833995 
L 59.538178 85.508642 
L 59.164333 85.068056 
L 58.778931 84.730595 
L 58.840911 84.534897 
L 57.928178 83.63667 
L 57.430499 83.128115 
L 56.759228 82.645988 
L 55.241934 81.196667 
L 54.619699 80.686467 
L 51.348662 77.720487 
L 47.38474 74.117848 
L 47.015013 73.83158 
L 45.560301 72.313078 
L 44.073926 70.633515 
L 43.19623 69.465346 
L 42.444763 68.570008 
L 41.960261 67.931399 
L 41.43297 67.017325 
L 41.495752 66.868252 
L 40.635787 65.089894 
L 40.179787 63.900243 
L 38.610687 59.202764 
L 38.164508 56.107324 
L 37.846978 51.314828 
L 37.969644 50.723394 
L 37.985083 50.121612 
L 37.843819 49.341753 
L 37.819629 47.018933 
L 37.781428 46.425896 
L 37.887303 42.587639 
L 37.748705 42.14096 
L 37.792219 41.244228 
L 37.932565 40.344225 
L 37.914244 39.612347 
L 37.902222 38.990451 
L 38.168863 35.14287 
L 38.20561 32.323226 
L 38.504764 27.296138 
L 38.488113 26.910371 
L 38.509923 24.960075 
L 38.349008 24.365913 
L 38.281326 23.780771 
L 38.202577 22.727126 
L 38.252804 21.570886 
L 38.710223 17.507358 
L 38.796358 16.617944 
L 38.7648 15.80266 
L 38.7648 15.80266 
" clip-path="url(#p8f00e796a5)" style="fill: none; stroke: #ffa500; stroke-width: 0.5; stroke-linecap: square"/>
   </g>
   <g id="line2d_27">
    <path d="M 75.30653 153.397049 
L 75.257467 142.554781 
L 75.207121 137.134513 
L 75.378194 136.423704 
L 75.31175 133.502386 
L 75.211742 133.033547 
L 75.094614 131.310333 
L 75.035824 130.204697 
L 75.061097 129.095746 
L 74.960018 128.27878 
L 75.055713 126.34699 
L 75.2059 119.288275 
L 75.322588 119.075018 
L 75.341582 116.16253 
L 75.259586 108.220094 
L 75.134795 107.654185 
L 75.003259 107.180408 
L 74.654098 105.572047 
L 74.422022 105.014427 
L 73.910491 103.490792 
L 72.2488 99.67637 
L 70.805543 97.08272 
L 70.757032 96.729447 
L 69.997577 95.837823 
L 69.215841 94.973081 
L 68.856316 94.280255 
L 67.059645 92.265132 
L 67.118688 92.054601 
L 63.40139 88.153399 
L 62.888675 88.012592 
L 60.102159 85.599567 
L 59.337061 84.777743 
L 58.797405 84.467202 
L 58.075406 83.927403 
L 57.040962 82.944112 
L 54.734198 80.923336 
L 54.284356 80.410595 
L 52.984171 79.381288 
L 52.431576 78.945804 
L 49.883038 76.626982 
L 49.369979 76.011153 
L 48.190875 74.989067 
L 45.883039 72.95344 
L 44.919911 71.994023 
L 44.380525 71.126522 
L 42.617208 69.020077 
L 42.024426 68.065585 
L 41.611174 67.565989 
L 39.851612 64.464675 
L 38.773494 61.662145 
L 38.73642 61.277241 
L 38.128195 58.175062 
L 38.09163 57.28703 
L 38.05012 55.591877 
L 37.913051 47.947988 
L 37.90182 46.136858 
L 37.887327 44.032405 
L 38.169923 42.44985 
L 38.212006 41.249069 
L 38.106733 39.137371 
L 37.848527 38.786929 
L 37.628806 38.270699 
L 37.591215 37.396521 
L 37.515286 35.845219 
L 37.613811 35.002078 
L 37.75003 34.070187 
L 37.731098 33.175568 
L 38.413184 26.004895 
L 38.614997 24.807701 
L 38.79041 23.496103 
L 38.792707 22.658443 
L 38.807085 22.430612 
L 38.626492 21.918881 
L 38.60168 21.393873 
L 38.523437 20.212539 
L 38.651463 18.693878 
L 38.717135 18.440858 
L 38.872173 16.14201 
L 38.872173 16.14201 
" clip-path="url(#p8f00e796a5)" style="fill: none; stroke: #ffa500; stroke-width: 0.5; stroke-linecap: square"/>
   </g>
   <g id="line2d_28">
    <path d="M 75.30653 153.397049 
L 75.230178 143.57555 
L 75.190595 142.701466 
L 75.186712 142.099509 
L 75.024757 141.482396 
L 75.01335 140.962321 
L 75.247667 140.343752 
L 75.250758 139.736099 
L 75.440469 139.428767 
L 75.509753 133.902453 
L 76.16017 133.593698 
L 76.145288 132.657555 
L 76.065218 132.152659 
L 75.936065 131.139297 
L 75.886644 130.340558 
L 75.658295 130.037737 
L 75.569576 127.467069 
L 75.634838 126.414767 
L 75.695166 125.630619 
L 75.559583 123.10772 
L 75.467518 122.840515 
L 75.274222 119.894424 
L 75.348313 119.017428 
L 75.4454 118.321608 
L 75.34871 116.908196 
L 75.246581 116.335667 
L 75.222958 114.424709 
L 75.044709 114.056333 
L 74.903126 108.091454 
L 74.869882 107.750043 
L 74.632966 107.611126 
L 74.460256 106.530304 
L 74.719371 106.501389 
L 74.770819 106.111126 
L 74.531768 105.311247 
L 73.95223 104.360936 
L 73.854456 103.931639 
L 74.158011 104.07675 
L 73.665994 102.919499 
L 72.756793 100.917689 
L 72.377333 100.152528 
L 72.703289 99.995552 
L 71.656987 98.1489 
L 71.263809 97.749189 
L 67.983102 92.995092 
L 67.186187 92.179878 
L 66.726175 91.374375 
L 64.957455 89.785226 
L 56.840842 82.379335 
L 57.311812 82.275574 
L 57.063815 82.014429 
L 55.541712 80.790243 
L 54.236994 79.830646 
L 53.47873 79.25683 
L 52.700147 78.534259 
L 49.973593 76.26871 
L 49.416888 76.003716 
L 49.15318 75.775589 
L 48.796211 75.247095 
L 48.606276 75.076131 
L 48.501152 74.820084 
L 47.319634 73.827636 
L 45.509965 72.065323 
L 44.939695 71.458564 
L 44.164959 70.767269 
L 42.935697 69.673569 
L 42.687716 69.143114 
L 40.985611 66.664856 
L 39.55224 63.822958 
L 38.755349 61.277816 
L 38.541076 59.821759 
L 38.500231 59.568336 
L 38.152256 58.949557 
L 38.080976 58.438839 
L 38.281303 58.311298 
L 38.074244 54.540584 
L 38.011097 53.916513 
L 37.887691 52.210919 
L 37.739167 51.567538 
L 37.849646 48.430068 
L 37.982201 47.905133 
L 38.078117 46.571349 
L 38.170604 43.166944 
L 38.158686 42.324329 
L 38.394502 39.841974 
L 38.463362 39.733657 
L 38.706422 36.542075 
L 38.604796 36.287441 
L 38.377428 36.118825 
L 38.413089 35.072628 
L 38.44635 34.218015 
L 38.299101 34.09741 
L 38.541566 30.291451 
L 38.489416 29.168382 
L 38.480197 27.15445 
L 38.388569 26.502144 
L 38.483973 22.633153 
L 38.425233 21.968922 
L 38.627931 18.378155 
L 38.695665 17.764067 
L 38.605131 17.593683 
L 38.608193 16.453327 
L 38.542387 16.092975 
L 38.510936 15.872883 
L 38.426667 15.863743 
L 38.44093 15.759091 
L 38.469566 15.578487 
L 38.469566 15.578487 
" clip-path="url(#p8f00e796a5)" style="fill: none; stroke: #ffa500; stroke-width: 0.5; stroke-linecap: square"/>
   </g>
   <g id="line2d_29">
    <path d="M 75.30653 153.397049 
L 75.432506 143.145917 
L 75.466525 142.234166 
L 75.415301 141.705265 
L 75.281599 141.060169 
L 75.268354 140.203868 
L 75.561524 140.110229 
L 75.422479 134.443705 
L 75.239768 133.078418 
L 74.894138 132.72489 
L 74.965027 131.845613 
L 75.167442 131.722653 
L 75.195833 130.54065 
L 74.753866 130.230608 
L 74.627339 127.811245 
L 74.838248 127.500982 
L 74.910764 123.041554 
L 75.082663 121.673824 
L 75.125944 120.381328 
L 75.319111 120.222966 
L 75.337079 119.794009 
L 75.205084 119.092727 
L 74.885311 117.853776 
L 75.055276 111.781468 
L 75.227682 110.752316 
L 75.206857 110.161974 
L 75.095735 109.688031 
L 74.910952 106.349111 
L 74.768694 105.834298 
L 74.386078 104.494566 
L 73.858702 103.127489 
L 72.712303 100.798266 
L 72.525532 100.700328 
L 72.100761 99.96457 
L 72.079091 99.586001 
L 69.845088 96.039384 
L 69.469817 95.458136 
L 69.149447 94.947548 
L 67.129429 92.590781 
L 66.525171 91.994938 
L 65.234882 90.486926 
L 64.590935 89.970063 
L 64.343085 89.92516 
L 63.891322 89.572481 
L 63.690464 89.543063 
L 62.200737 88.277009 
L 61.949144 88.045532 
L 61.894528 87.75964 
L 59.646954 85.595887 
L 59.549887 84.988218 
L 55.606828 81.471167 
L 55.12192 81.169012 
L 53.670143 79.997024 
L 52.357001 78.945892 
L 50.321413 77.220177 
L 49.888283 76.921393 
L 47.750945 74.816847 
L 47.525284 74.78526 
L 45.835419 73.024945 
L 45.210546 72.365716 
L 44.663245 71.765525 
L 44.438857 71.394425 
L 42.672613 69.222453 
L 41.968994 68.01988 
L 41.33204 66.618689 
L 40.563144 64.838496 
L 39.837124 62.731055 
L 39.514968 61.764465 
L 38.397433 56.960439 
L 38.332839 56.364222 
L 38.038263 55.982968 
L 37.957602 55.136077 
L 38.021634 54.641218 
L 37.918182 53.899408 
L 37.732026 53.16378 
L 37.569561 49.943119 
L 37.480838 49.33434 
L 37.695439 43.749086 
L 37.524944 43.500323 
L 37.54396 42.524003 
L 37.50218 41.869157 
L 37.779016 39.85864 
L 37.854944 38.589721 
L 37.80331 37.762374 
L 38.250814 33.764739 
L 38.316606 33.707951 
L 38.408315 32.90856 
L 38.379627 31.772729 
L 38.444656 30.289054 
L 38.351015 29.807725 
L 38.59251 25.399974 
L 38.455065 23.031664 
L 38.782988 15.650271 
L 38.782988 15.650271 
" clip-path="url(#p8f00e796a5)" style="fill: none; stroke: #ffa500; stroke-width: 0.5; stroke-linecap: square"/>
   </g>
   <g id="line2d_30">
    <path d="M 75.30653 153.397049 
L 75.221341 144.798469 
L 75.037801 143.842094 
L 74.904249 141.823222 
L 74.649049 141.053765 
L 74.679672 140.437948 
L 75.19383 139.957174 
L 75.314826 138.320939 
L 75.403136 138.162659 
L 75.590008 135.971993 
L 75.671019 136.304242 
L 75.67976 136.047706 
L 75.545465 134.222018 
L 75.547424 133.966452 
L 75.301506 133.787291 
L 74.768372 133.969819 
L 74.702244 133.756186 
L 74.690472 132.63323 
L 74.503891 131.774246 
L 74.535911 130.458616 
L 74.819161 129.520677 
L 75.476412 127.62663 
L 75.468591 124.395974 
L 75.455614 123.32811 
L 75.501495 122.593331 
L 75.590934 121.362179 
L 75.684652 121.219966 
L 75.682099 120.362421 
L 75.500001 119.685903 
L 75.498959 117.325327 
L 75.073545 117.362953 
L 74.779772 117.248959 
L 74.661055 116.3275 
L 75.412138 115.284458 
L 75.506136 114.706258 
L 75.043282 114.991995 
L 74.875586 114.961316 
L 74.968986 111.964297 
L 74.948468 111.459195 
L 74.86557 111.358549 
L 74.801326 110.127285 
L 75.771965 109.506784 
L 75.770811 109.277362 
L 75.366444 109.161603 
L 74.808083 109.206144 
L 74.677961 106.460094 
L 75.447876 105.509893 
L 75.182353 104.598258 
L 74.664146 102.879375 
L 74.312825 102.139222 
L 74.005189 101.700007 
L 72.156072 98.059312 
L 71.595124 97.359751 
L 71.382831 96.789939 
L 69.507277 94.441625 
L 67.86656 92.944953 
L 67.118102 92.329795 
L 65.882002 91.253694 
L 65.438047 90.959787 
L 64.927417 90.501642 
L 64.76859 90.684379 
L 64.335947 90.443089 
L 63.895864 89.923867 
L 63.526261 89.401834 
L 60.342464 86.602234 
L 60.117945 86.703805 
L 58.687248 85.309335 
L 57.661221 84.350186 
L 57.207086 84.067707 
L 56.778419 83.645848 
L 56.65492 83.366963 
L 53.370994 80.128319 
L 53.46951 79.054269 
L 53.04345 78.637085 
L 52.143792 78.715305 
L 51.617226 78.192998 
L 52.066162 77.506677 
L 51.463912 76.91876 
L 50.970802 76.744256 
L 50.094544 76.632748 
L 48.237185 74.707601 
L 47.971065 74.038251 
L 46.595421 72.673614 
L 42.394081 68.070513 
L 41.312969 66.444397 
L 41.041414 66.104329 
L 40.573648 65.076063 
L 40.267178 64.228278 
L 39.926255 63.361293 
L 39.958021 62.913993 
L 38.789735 59.052655 
L 38.329868 56.51167 
L 37.98513 53.221981 
L 37.828449 51.737716 
L 37.874341 50.878723 
L 37.797699 50.019018 
L 37.436972 47.764403 
L 37.435673 44.784864 
L 37.476518 43.913944 
L 37.600016 43.129406 
L 37.699975 43.021212 
L 37.896819 40.470996 
L 37.834617 40.212036 
L 38.084723 38.821214 
L 38.183065 38.708762 
L 38.203123 38.037116 
L 38.130986 37.169012 
L 38.228975 36.776981 
L 38.389788 36.584117 
L 38.460646 35.175267 
L 37.907671 33.533913 
L 38.007009 31.279441 
L 37.540876 31.612115 
L 37.562992 30.50961 
L 37.472496 29.343825 
L 38.148411 22.23352 
L 38.273161 20.175174 
L 38.06213 20.020088 
L 38.267641 18.533488 
L 38.282933 18.569095 
L 38.480603 16.107152 
L 38.428879 16.116173 
L 38.439526 16.020791 
L 38.504962 15.684046 
L 38.504962 15.684046 
" clip-path="url(#p8f00e796a5)" style="fill: none; stroke: #ff0000; stroke-width: 0.5; stroke-linecap: square"/>
   </g>
   <g id="line2d_31">
    <path d="M 75.30653 153.397049 
L 75.195922 140.088349 
L 75.053923 139.162978 
L 75.162453 138.148967 
L 75.168856 137.630186 
L 74.928823 137.283417 
L 74.901746 136.529476 
L 74.813934 136.319003 
L 74.801165 134.782431 
L 75.073994 134.33656 
L 75.156706 125.640944 
L 75.126564 125.1307 
L 75.235761 124.067423 
L 75.358083 122.586051 
L 75.419017 120.181463 
L 75.513635 119.566067 
L 75.484921 115.687319 
L 75.413219 115.104867 
L 75.252074 111.957808 
L 75.060484 109.453562 
L 74.949029 108.799976 
L 74.775238 108.014413 
L 74.76387 106.205988 
L 74.149718 103.514264 
L 73.77687 102.520449 
L 73.135161 101.603639 
L 71.14304 97.461001 
L 70.708095 96.753525 
L 70.690247 96.53752 
L 68.954162 94.230256 
L 68.049083 93.506871 
L 66.934952 92.132045 
L 65.225952 90.404287 
L 64.398444 89.536128 
L 63.777407 88.855377 
L 62.741242 87.748704 
L 62.648048 87.448543 
L 60.22654 85.328047 
L 59.85077 84.842853 
L 58.693205 83.795215 
L 58.306294 83.340688 
L 55.462089 81.079549 
L 54.648462 80.62229 
L 51.719253 78.08492 
L 50.338467 76.903901 
L 50.007792 76.836004 
L 48.186225 75.111988 
L 43.784004 70.445167 
L 41.605207 67.766932 
L 39.985599 64.831565 
L 39.92869 64.32767 
L 39.705141 63.559577 
L 39.66126 63.128826 
L 39.483898 62.185403 
L 39.042335 59.976305 
L 38.457069 57.613525 
L 38.270582 56.943976 
L 38.165192 55.266865 
L 38.144322 54.648656 
L 37.453227 50.541141 
L 37.576612 46.583152 
L 37.646214 45.665856 
L 37.639555 45.248058 
L 37.765383 43.766232 
L 37.972178 40.558306 
L 37.809944 40.301915 
L 38.234635 34.823725 
L 38.241231 34.417605 
L 38.419802 33.495137 
L 38.447066 33.153196 
L 38.371975 32.54681 
L 38.664613 26.177653 
L 38.908259 22.100944 
L 39.003136 21.693227 
L 39.004142 20.83595 
L 38.915134 20.475059 
L 39.002428 19.779157 
L 38.915034 19.05463 
L 39.002165 18.086721 
L 39.036994 17.918157 
L 39.15206 16.637291 
L 39.116237 16.182252 
L 39.022101 16.043754 
L 39.006954 15.904583 
L 39.006954 15.904583 
" clip-path="url(#p8f00e796a5)" style="fill: none; stroke: #ff0000; stroke-width: 0.5; stroke-linecap: square"/>
   </g>
   <g id="line2d_32">
    <path d="M 75.30653 153.397049 
L 75.287826 146.123861 
L 75.034291 145.403946 
L 75.066656 143.706912 
L 75.155069 143.141396 
L 75.207437 131.493636 
L 75.082268 130.657064 
L 75.178656 129.208436 
L 75.266452 128.972205 
L 75.331108 126.961069 
L 75.441201 126.599988 
L 75.368542 122.238122 
L 75.419722 120.168415 
L 75.449928 119.270101 
L 75.446882 119.014565 
L 75.639288 117.441902 
L 75.515206 109.012644 
L 75.487879 108.759693 
L 75.542026 108.103071 
L 75.507458 107.847562 
L 74.736471 107.745663 
L 74.629149 107.2411 
L 74.764079 106.875224 
L 75.195701 106.62356 
L 75.11467 106.029606 
L 75.053974 105.78488 
L 74.396139 105.347816 
L 73.287723 101.817651 
L 73.105726 101.229305 
L 73.011202 100.789129 
L 72.857155 100.48392 
L 72.792588 100.030092 
L 72.802082 99.275845 
L 72.406429 98.459082 
L 72.043088 98.07616 
L 70.980982 96.535654 
L 70.704663 96.251794 
L 69.661127 94.782081 
L 69.406275 94.330911 
L 68.333879 93.256157 
L 67.444841 92.468812 
L 66.450773 91.561059 
L 66.348725 91.294903 
L 64.930264 89.806181 
L 62.680054 87.674704 
L 62.342408 87.325571 
L 61.911274 87.022416 
L 61.597354 86.945818 
L 58.067774 84.391557 
L 57.117547 83.474103 
L 56.579104 82.924543 
L 54.939665 81.32861 
L 54.698867 81.311004 
L 54.071278 80.756739 
L 53.958679 80.831964 
L 50.96376 77.906524 
L 50.470501 77.23787 
L 49.958697 76.823075 
L 49.491472 76.538717 
L 49.062942 76.119187 
L 48.784351 76.017416 
L 44.83466 72.024611 
L 43.618511 70.675918 
L 42.694576 69.599919 
L 42.115235 68.647322 
L 41.653294 67.779814 
L 41.276418 66.951891 
L 40.235393 64.028961 
L 39.473829 61.166048 
L 39.010819 59.003951 
L 38.997275 58.442339 
L 38.896281 57.846595 
L 38.488447 56.962975 
L 38.272608 56.104041 
L 38.072844 55.580629 
L 38.009934 54.740391 
L 38.092511 54.54372 
L 37.940016 53.399177 
L 37.778398 52.154897 
L 37.47283 51.668873 
L 37.408162 50.957438 
L 37.282009 51.329912 
L 37.283418 51.068678 
L 37.398049 50.107608 
L 37.551396 49.184078 
L 37.533339 43.017824 
L 37.477884 42.364616 
L 37.724167 40.55717 
L 37.762821 39.247969 
L 37.781458 37.200012 
L 37.641111 36.283307 
L 37.791283 34.157759 
L 38.005346 33.576957 
L 38.203576 31.326575 
L 38.336926 29.938586 
L 38.229903 29.551208 
L 38.699734 24.449435 
L 38.848329 23.383855 
L 38.815208 22.066187 
L 38.886948 20.577087 
L 38.83965 20.207622 
L 38.908875 18.432991 
L 39.036541 17.940692 
L 39.002395 16.97995 
L 38.916808 17.089389 
L 38.916605 16.954227 
L 38.853124 16.271075 
L 38.853124 16.271075 
" clip-path="url(#p8f00e796a5)" style="fill: none; stroke: #ff0000; stroke-width: 0.5; stroke-linecap: square"/>
   </g>
   <g id="line2d_33">
    <path d="M 75.30653 153.397049 
L 75.365313 143.556077 
L 75.520383 143.031126 
L 75.656521 138.87924 
L 75.868492 138.626267 
L 75.829454 137.37453 
L 75.707454 136.879452 
L 75.607693 134.524028 
L 75.305979 133.95521 
L 75.19468 133.136859 
L 75.02549 132.293151 
L 75.106249 131.876026 
L 74.89807 125.462444 
L 75.024473 125.08448 
L 75.145985 123.66482 
L 75.274495 120.562438 
L 75.184616 119.87176 
L 75.218923 118.417578 
L 74.979892 117.624592 
L 75.033034 115.607201 
L 75.177705 115.227799 
L 75.181184 114.973413 
L 75.368748 114.678203 
L 75.376031 110.553882 
L 75.24262 109.693147 
L 75.042919 107.317513 
L 74.810948 106.431688 
L 74.548757 105.478294 
L 73.997545 103.696816 
L 73.267792 101.874241 
L 72.093571 99.503911 
L 71.169564 98.09882 
L 70.98109 97.81905 
L 70.679508 97.120661 
L 70.147164 96.540832 
L 69.430834 95.819031 
L 69.24169 95.768951 
L 68.916624 95.371588 
L 68.413702 94.518945 
L 68.057387 93.937806 
L 66.832002 92.465906 
L 66.490809 91.945773 
L 65.658876 91.004126 
L 65.099462 90.438599 
L 65.057714 90.107781 
L 64.523439 89.549306 
L 63.75318 88.944601 
L 63.318411 88.541486 
L 63.138606 88.14513 
L 62.408419 87.363807 
L 61.984203 86.902559 
L 60.552089 85.748914 
L 58.289379 83.87204 
L 52.133308 78.854545 
L 51.594126 78.481978 
L 51.148734 78.087199 
L 50.991002 78.139234 
L 49.187683 76.424187 
L 49.186414 76.293169 
L 44.387536 71.58335 
L 44.527182 71.373397 
L 44.50236 71.2087 
L 44.010675 70.659523 
L 43.975134 70.451035 
L 42.04548 67.676613 
L 41.339873 66.46145 
L 40.959312 65.522057 
L 39.751744 62.826952 
L 38.845363 59.822782 
L 38.578445 58.625949 
L 38.411891 57.418487 
L 38.148858 56.326967 
L 37.964137 55.005555 
L 37.99446 54.556753 
L 37.624701 49.538702 
L 37.62416 48.387501 
L 37.905922 44.322371 
L 38.162458 40.576923 
L 38.151945 39.043456 
L 38.286396 37.738723 
L 38.195764 37.127642 
L 38.164857 36.074419 
L 38.082832 35.374173 
L 38.190917 31.888118 
L 38.207288 31.202831 
L 38.361153 30.366553 
L 38.362801 28.987879 
L 38.227438 27.47725 
L 38.144724 26.516458 
L 38.326827 21.121645 
L 38.326372 19.629717 
L 38.690227 15.794727 
L 38.690227 15.794727 
" clip-path="url(#p8f00e796a5)" style="fill: none; stroke: #ff0000; stroke-width: 0.5; stroke-linecap: square"/>
   </g>
   <g id="line2d_34">
    <path d="M 75.30653 153.397049 
L 75.409061 146.557468 
L 75.490249 145.923757 
L 75.598732 144.61476 
L 75.674006 144.144527 
L 75.62845 142.077096 
L 75.49837 140.812895 
L 75.55724 140.058736 
L 75.433545 137.696994 
L 75.322353 135.806508 
L 75.194953 134.330132 
L 75.152157 133.8306 
L 75.184361 133.562367 
L 75.333067 133.264591 
L 75.417793 132.745942 
L 75.491482 131.979039 
L 75.520512 131.12878 
L 75.521512 126.432166 
L 75.586455 125.47484 
L 75.37003 124.988783 
L 75.397911 124.174954 
L 75.491574 123.471625 
L 75.571913 121.402837 
L 75.469372 115.742648 
L 75.382468 114.78531 
L 75.53812 113.656008 
L 75.263531 111.725867 
L 75.221973 109.620367 
L 74.917711 107.149846 
L 74.588824 105.484966 
L 73.869145 102.653717 
L 73.451494 101.566642 
L 72.983627 100.75291 
L 72.532948 100.08012 
L 72.190175 99.490016 
L 71.739558 98.985019 
L 71.394079 98.229105 
L 71.101665 97.626854 
L 70.684782 96.933383 
L 70.018404 95.771005 
L 69.605327 95.305391 
L 69.445545 95.103043 
L 69.176224 95.776913 
L 66.757841 93.000091 
L 62.645633 88.758845 
L 62.460036 88.753936 
L 60.381843 86.910789 
L 59.631425 86.303218 
L 57.835423 84.40814 
L 56.978503 83.582378 
L 56.439744 82.713976 
L 54.615229 80.911132 
L 54.124931 80.32867 
L 53.001215 79.262967 
L 52.935923 79.056408 
L 51.076099 77.121246 
L 48.173137 74.011751 
L 46.929743 73.005708 
L 45.055117 71.211016 
L 43.536317 69.155919 
L 42.826301 68.26957 
L 41.341342 65.832713 
L 41.320274 65.612675 
L 40.431572 63.818673 
L 39.794465 62.197582 
L 39.328435 60.498206 
L 39.112189 59.898738 
L 38.906434 59.372548 
L 38.532116 57.159389 
L 38.551926 56.307279 
L 38.448509 55.779619 
L 38.295204 55.150627 
L 38.085498 52.531728 
L 37.723121 52.037132 
L 37.731469 49.385554 
L 37.62339 45.995347 
L 37.586852 45.486723 
L 37.622321 43.409912 
L 37.578688 42.07025 
L 37.444997 42.087965 
L 37.482317 41.661396 
L 37.90904 40.969375 
L 37.949688 40.541972 
L 37.577001 40.059512 
L 37.516482 39.193484 
L 37.593724 38.14187 
L 37.776624 36.134926 
L 38.426835 35.465201 
L 38.660673 34.222841 
L 38.018605 33.307011 
L 38.040898 33.058133 
L 38.289072 32.789347 
L 38.686723 32.660431 
L 38.730972 32.15009 
L 38.42171 31.609064 
L 38.074279 31.234696 
L 38.122584 29.935959 
L 38.078151 29.066738 
L 38.035375 28.438177 
L 37.967811 27.881473 
L 38.255032 25.748285 
L 38.309096 23.775782 
L 38.875553 24.000993 
L 38.879244 21.665071 
L 38.834283 20.748787 
L 38.98096 20.554131 
L 38.940424 19.573153 
L 38.779938 19.434495 
L 38.789432 19.117752 
L 38.507958 18.186211 
L 38.628367 17.847321 
L 38.58063 16.893692 
L 38.54688 16.5529 
L 38.5861 16.118911 
L 38.5861 16.118911 
" clip-path="url(#p8f00e796a5)" style="fill: none; stroke: #ff0000; stroke-width: 0.5; stroke-linecap: square"/>
   </g>
   <g id="line2d_35">
    <path d="M 75.30653 153.397049 
L 75.30653 101.963825 
L 75.30653 101.963825 
L 38.937748 65.595043 
L 38.937748 65.595043 
L 38.937748 14.161818 
L 38.937748 14.161818 
" clip-path="url(#p8f00e796a5)" style="fill: none; stroke-dasharray: 3.7,1.6; stroke-dashoffset: 0; stroke: #000000; stroke-opacity: 0.7"/>
   </g>
   <g id="patch_3">
    <path d="M 35.099375 160.36 
L 35.099375 7.2 
" style="fill: none; stroke: #000000; stroke-width: 0.8; stroke-linejoin: miter; stroke-linecap: square"/>
   </g>
   <g id="patch_4">
    <path d="M 78.129174 160.36 
L 78.129174 7.2 
" style="fill: none; stroke: #000000; stroke-width: 0.8; stroke-linejoin: miter; stroke-linecap: square"/>
   </g>
   <g id="patch_5">
    <path d="M 35.099375 160.36 
L 78.129174 160.36 
" style="fill: none; stroke: #000000; stroke-width: 0.8; stroke-linejoin: miter; stroke-linecap: square"/>
   </g>
   <g id="patch_6">
    <path d="M 35.099375 7.2 
L 78.129174 7.2 
" style="fill: none; stroke: #000000; stroke-width: 0.8; stroke-linejoin: miter; stroke-linecap: square"/>
   </g>
  </g>
 </g>
 <defs>
  <clipPath id="p8f00e796a5">
   <rect x="35.099375" y="7.2" width="43.029799" height="153.16"/>
  </clipPath>
 </defs>
</svg>
