<?xml version="1.0" encoding="utf-8" standalone="no"?>
<!DOCTYPE svg PUBLIC "-//W3C//DTD SVG 1.1//EN"
  "http://www.w3.org/Graphics/SVG/1.1/DTD/svg11.dtd">
<svg xmlns:xlink="http://www.w3.org/1999/xlink" width="488.900251pt" height="200.205pt" viewBox="0 0 488.900251 200.205" xmlns="http://www.w3.org/2000/svg" version="1.1">
 <metadata>
  <rdf:RDF xmlns:dc="http://purl.org/dc/elements/1.1/" xmlns:cc="http://creativecommons.org/ns#" xmlns:rdf="http://www.w3.org/1999/02/22-rdf-syntax-ns#">
   <cc:Work>
    <dc:type rdf:resource="http://purl.org/dc/dcmitype/StillImage"/>
    <dc:date>2026-01-18T23:30:35.521280</dc:date>
    <dc:format>image/svg+xml</dc:format>
    <dc:creator>
     <cc:Agent>
      <dc:title>Matplotlib v3.6.3, https://matplotlib.org/</dc:title>
     </cc:Agent>
    </dc:creator>
   </cc:Work>
  </rdf:RDF>
 </metadata>
 <defs>
  <style type="text/css">*{stroke-linejoin: round; stroke-linecap: butt}</style>
 </defs>
 <g id="figure_1">
  <g id="patch_1">
   <path d="M 0 200.205 
L 488.900251 200.205 
L 488.900251 -0 
L 0 -0 
z
" style="fill: #ffffff"/>
  </g>
  <g id="axes_1">
   <g id="patch_2">
    <path d="M 50.099375 160.20625 
L 232.686035 160.20625 
L 232.686035 11.36625 
L 50.099375 11.36625 
z
" style="fill: #ffffff"/>
   </g>
   <g id="matplotlib.axis_1">
    <g id="xtick_1">
     <g id="line2d_1">
      <path d="M 58.398769 160.20625 
L 58.398769 11.36625 
" clip-path="url(#pbb030cc017)" style="fill: none; stroke: #b0b0b0; stroke-opacity: 0.3; stroke-width: 0.8; stroke-linecap: square"/>
     </g>
     <g id="line2d_2">
      <defs>
       <path id="mb8fb2f3308" d="M 0 0 
L 0 3.5 
" style="stroke: #000000; stroke-width: 0.8"/>
      </defs>
      <g>
       <use xlink:href="#mb8fb2f3308" x="58.398769" y="160.20625" style="stroke: #000000; stroke-width: 0.8"/>
      </g>
     </g>
     <g id="text_1">
      <!-- 0 -->
      <g transform="translate(55.398769 175.53875) scale(0.12 -0.12)">
       <defs>
        <path id="TimesNewRomanPSMT-30" d="M 231 2094 
Q 231 2819 450 3342 
Q 669 3866 1031 4122 
Q 1313 4325 1613 4325 
Q 2100 4325 2488 3828 
Q 2972 3213 2972 2159 
Q 2972 1422 2759 906 
Q 2547 391 2217 158 
Q 1888 -75 1581 -75 
Q 975 -75 572 641 
Q 231 1244 231 2094 
z
M 844 2016 
Q 844 1141 1059 588 
Q 1238 122 1591 122 
Q 1759 122 1940 273 
Q 2122 425 2216 781 
Q 2359 1319 2359 2297 
Q 2359 3022 2209 3506 
Q 2097 3866 1919 4016 
Q 1791 4119 1609 4119 
Q 1397 4119 1231 3928 
Q 1006 3669 925 3112 
Q 844 2556 844 2016 
z
" transform="scale(0.015625)"/>
       </defs>
       <use xlink:href="#TimesNewRomanPSMT-30"/>
      </g>
     </g>
    </g>
    <g id="xtick_2">
     <g id="line2d_3">
      <path d="M 101.254139 160.20625 
L 101.254139 11.36625 
" clip-path="url(#pbb030cc017)" style="fill: none; stroke: #b0b0b0; stroke-opacity: 0.3; stroke-width: 0.8; stroke-linecap: square"/>
     </g>
     <g id="line2d_4">
      <g>
       <use xlink:href="#mb8fb2f3308" x="101.254139" y="160.20625" style="stroke: #000000; stroke-width: 0.8"/>
      </g>
     </g>
     <g id="text_2">
      <!-- 5 -->
      <g transform="translate(98.254139 175.53875) scale(0.12 -0.12)">
       <defs>
        <path id="TimesNewRomanPSMT-35" d="M 2778 4238 
L 2534 3706 
L 1259 3706 
L 981 3138 
Q 1809 3016 2294 2522 
Q 2709 2097 2709 1522 
Q 2709 1188 2573 903 
Q 2438 619 2231 419 
Q 2025 219 1772 97 
Q 1413 -75 1034 -75 
Q 653 -75 479 54 
Q 306 184 306 341 
Q 306 428 378 495 
Q 450 563 559 563 
Q 641 563 702 538 
Q 763 513 909 409 
Q 1144 247 1384 247 
Q 1750 247 2026 523 
Q 2303 800 2303 1197 
Q 2303 1581 2056 1914 
Q 1809 2247 1375 2428 
Q 1034 2569 447 2591 
L 1259 4238 
L 2778 4238 
z
" transform="scale(0.015625)"/>
       </defs>
       <use xlink:href="#TimesNewRomanPSMT-35"/>
      </g>
     </g>
    </g>
    <g id="xtick_3">
     <g id="line2d_5">
      <path d="M 144.10951 160.20625 
L 144.10951 11.36625 
" clip-path="url(#pbb030cc017)" style="fill: none; stroke: #b0b0b0; stroke-opacity: 0.3; stroke-width: 0.8; stroke-linecap: square"/>
     </g>
     <g id="line2d_6">
      <g>
       <use xlink:href="#mb8fb2f3308" x="144.10951" y="160.20625" style="stroke: #000000; stroke-width: 0.8"/>
      </g>
     </g>
     <g id="text_3">
      <!-- 10 -->
      <g transform="translate(138.10951 175.53875) scale(0.12 -0.12)">
       <defs>
        <path id="TimesNewRomanPSMT-31" d="M 750 3822 
L 1781 4325 
L 1884 4325 
L 1884 747 
Q 1884 391 1914 303 
Q 1944 216 2037 169 
Q 2131 122 2419 116 
L 2419 0 
L 825 0 
L 825 116 
Q 1125 122 1212 167 
Q 1300 213 1334 289 
Q 1369 366 1369 747 
L 1369 3034 
Q 1369 3497 1338 3628 
Q 1316 3728 1258 3775 
Q 1200 3822 1119 3822 
Q 1003 3822 797 3725 
L 750 3822 
z
" transform="scale(0.015625)"/>
       </defs>
       <use xlink:href="#TimesNewRomanPSMT-31"/>
       <use xlink:href="#TimesNewRomanPSMT-30" x="50"/>
      </g>
     </g>
    </g>
    <g id="xtick_4">
     <g id="line2d_7">
      <path d="M 186.96488 160.20625 
L 186.96488 11.36625 
" clip-path="url(#pbb030cc017)" style="fill: none; stroke: #b0b0b0; stroke-opacity: 0.3; stroke-width: 0.8; stroke-linecap: square"/>
     </g>
     <g id="line2d_8">
      <g>
       <use xlink:href="#mb8fb2f3308" x="186.96488" y="160.20625" style="stroke: #000000; stroke-width: 0.8"/>
      </g>
     </g>
     <g id="text_4">
      <!-- 15 -->
      <g transform="translate(180.96488 175.53875) scale(0.12 -0.12)">
       <use xlink:href="#TimesNewRomanPSMT-31"/>
       <use xlink:href="#TimesNewRomanPSMT-35" x="50"/>
      </g>
     </g>
    </g>
    <g id="xtick_5">
     <g id="line2d_9">
      <path d="M 229.820251 160.20625 
L 229.820251 11.36625 
" clip-path="url(#pbb030cc017)" style="fill: none; stroke: #b0b0b0; stroke-opacity: 0.3; stroke-width: 0.8; stroke-linecap: square"/>
     </g>
     <g id="line2d_10">
      <g>
       <use xlink:href="#mb8fb2f3308" x="229.820251" y="160.20625" style="stroke: #000000; stroke-width: 0.8"/>
      </g>
     </g>
     <g id="text_5">
      <!-- 20 -->
      <g transform="translate(223.820251 175.53875) scale(0.12 -0.12)">
       <defs>
        <path id="TimesNewRomanPSMT-32" d="M 2934 816 
L 2638 0 
L 138 0 
L 138 116 
Q 1241 1122 1691 1759 
Q 2141 2397 2141 2925 
Q 2141 3328 1894 3587 
Q 1647 3847 1303 3847 
Q 991 3847 742 3664 
Q 494 3481 375 3128 
L 259 3128 
Q 338 3706 661 4015 
Q 984 4325 1469 4325 
Q 1984 4325 2329 3994 
Q 2675 3663 2675 3213 
Q 2675 2891 2525 2569 
Q 2294 2063 1775 1497 
Q 997 647 803 472 
L 1909 472 
Q 2247 472 2383 497 
Q 2519 522 2628 598 
Q 2738 675 2819 816 
L 2934 816 
z
" transform="scale(0.015625)"/>
       </defs>
       <use xlink:href="#TimesNewRomanPSMT-32"/>
       <use xlink:href="#TimesNewRomanPSMT-30" x="50"/>
      </g>
     </g>
    </g>
    <g id="text_6">
     <!-- $t$ [s] -->
     <g transform="translate(131.852705 190.438125) scale(0.12 -0.12)">
      <defs>
       <path id="STIXGeneral-Italic-74" d="M 1894 2739 
L 1862 2534 
L 1325 2534 
L 768 435 
Q 755 384 755 346 
Q 755 243 851 243 
Q 928 243 1030 342 
Q 1133 442 1370 749 
L 1453 704 
Q 1158 256 969 93 
Q 781 -70 538 -70 
Q 243 -70 243 166 
Q 243 230 346 640 
L 845 2534 
L 365 2534 
L 358 2573 
Q 358 2688 570 2733 
Q 730 2771 992 2979 
Q 1254 3187 1421 3437 
Q 1459 3494 1510 3494 
Q 1568 3494 1568 3443 
Q 1568 3411 1562 3398 
L 1382 2739 
L 1894 2739 
z
" transform="scale(0.015625)"/>
       <path id="TimesNewRomanPSMT-20" transform="scale(0.015625)"/>
       <path id="TimesNewRomanPSMT-5b" d="M 1900 -1269 
L 525 -1269 
L 525 4334 
L 1900 4334 
L 1900 4088 
L 994 4088 
L 994 -1025 
L 1900 -1025 
L 1900 -1269 
z
" transform="scale(0.015625)"/>
       <path id="TimesNewRomanPSMT-73" d="M 2050 2947 
L 2050 1972 
L 1947 1972 
Q 1828 2431 1642 2597 
Q 1456 2763 1169 2763 
Q 950 2763 815 2647 
Q 681 2531 681 2391 
Q 681 2216 781 2091 
Q 878 1963 1175 1819 
L 1631 1597 
Q 2266 1288 2266 781 
Q 2266 391 1970 151 
Q 1675 -88 1309 -88 
Q 1047 -88 709 6 
Q 606 38 541 38 
Q 469 38 428 -44 
L 325 -44 
L 325 978 
L 428 978 
Q 516 541 762 319 
Q 1009 97 1316 97 
Q 1531 97 1667 223 
Q 1803 350 1803 528 
Q 1803 744 1651 891 
Q 1500 1038 1047 1263 
Q 594 1488 453 1669 
Q 313 1847 313 2119 
Q 313 2472 555 2709 
Q 797 2947 1181 2947 
Q 1350 2947 1591 2875 
Q 1750 2828 1803 2828 
Q 1853 2828 1881 2850 
Q 1909 2872 1947 2947 
L 2050 2947 
z
" transform="scale(0.015625)"/>
       <path id="TimesNewRomanPSMT-5d" d="M 234 4334 
L 1609 4334 
L 1609 -1272 
L 234 -1272 
L 234 -1025 
L 1141 -1025 
L 1141 4088 
L 234 4088 
L 234 4334 
z
" transform="scale(0.015625)"/>
      </defs>
      <use xlink:href="#STIXGeneral-Italic-74" transform="translate(0 0.28125)"/>
      <use xlink:href="#TimesNewRomanPSMT-20" transform="translate(27.799988 0.28125)"/>
      <use xlink:href="#TimesNewRomanPSMT-5b" transform="translate(52.799988 0.28125)"/>
      <use xlink:href="#TimesNewRomanPSMT-73" transform="translate(86.100769 0.28125)"/>
      <use xlink:href="#TimesNewRomanPSMT-5d" transform="translate(125.016785 0.28125)"/>
     </g>
    </g>
   </g>
   <g id="matplotlib.axis_2">
    <g id="ytick_1">
     <g id="line2d_11">
      <path d="M 50.099375 153.440795 
L 232.686035 153.440795 
" clip-path="url(#pbb030cc017)" style="fill: none; stroke: #b0b0b0; stroke-opacity: 0.3; stroke-width: 0.8; stroke-linecap: square"/>
     </g>
     <g id="line2d_12">
      <defs>
       <path id="ma87441cd1b" d="M 0 0 
L -3.5 0 
" style="stroke: #000000; stroke-width: 0.8"/>
      </defs>
      <g>
       <use xlink:href="#ma87441cd1b" x="50.099375" y="153.440795" style="stroke: #000000; stroke-width: 0.8"/>
      </g>
     </g>
     <g id="text_7">
      <!-- 0.00 -->
      <g transform="translate(22.099375 157.607045) scale(0.12 -0.12)">
       <defs>
        <path id="TimesNewRomanPSMT-2e" d="M 800 606 
Q 947 606 1047 504 
Q 1147 403 1147 259 
Q 1147 116 1045 14 
Q 944 -88 800 -88 
Q 656 -88 554 14 
Q 453 116 453 259 
Q 453 406 554 506 
Q 656 606 800 606 
z
" transform="scale(0.015625)"/>
       </defs>
       <use xlink:href="#TimesNewRomanPSMT-30"/>
       <use xlink:href="#TimesNewRomanPSMT-2e" x="50"/>
       <use xlink:href="#TimesNewRomanPSMT-30" x="75"/>
       <use xlink:href="#TimesNewRomanPSMT-30" x="125"/>
      </g>
     </g>
    </g>
    <g id="ytick_2">
     <g id="line2d_13">
      <path d="M 50.099375 91.922458 
L 232.686035 91.922458 
" clip-path="url(#pbb030cc017)" style="fill: none; stroke: #b0b0b0; stroke-opacity: 0.3; stroke-width: 0.8; stroke-linecap: square"/>
     </g>
     <g id="line2d_14">
      <g>
       <use xlink:href="#ma87441cd1b" x="50.099375" y="91.922458" style="stroke: #000000; stroke-width: 0.8"/>
      </g>
     </g>
     <g id="text_8">
      <!-- 0.25 -->
      <g transform="translate(22.099375 96.088708) scale(0.12 -0.12)">
       <use xlink:href="#TimesNewRomanPSMT-30"/>
       <use xlink:href="#TimesNewRomanPSMT-2e" x="50"/>
       <use xlink:href="#TimesNewRomanPSMT-32" x="75"/>
       <use xlink:href="#TimesNewRomanPSMT-35" x="125"/>
      </g>
     </g>
    </g>
    <g id="ytick_3">
     <g id="line2d_15">
      <path d="M 50.099375 30.404121 
L 232.686035 30.404121 
" clip-path="url(#pbb030cc017)" style="fill: none; stroke: #b0b0b0; stroke-opacity: 0.3; stroke-width: 0.8; stroke-linecap: square"/>
     </g>
     <g id="line2d_16">
      <g>
       <use xlink:href="#ma87441cd1b" x="50.099375" y="30.404121" style="stroke: #000000; stroke-width: 0.8"/>
      </g>
     </g>
     <g id="text_9">
      <!-- 0.50 -->
      <g transform="translate(22.099375 34.570371) scale(0.12 -0.12)">
       <use xlink:href="#TimesNewRomanPSMT-30"/>
       <use xlink:href="#TimesNewRomanPSMT-2e" x="50"/>
       <use xlink:href="#TimesNewRomanPSMT-35" x="75"/>
       <use xlink:href="#TimesNewRomanPSMT-30" x="125"/>
      </g>
     </g>
    </g>
    <g id="text_10">
     <!-- $v$ [m/s] -->
     <g transform="translate(15.5325 102.64625) rotate(-90) scale(0.12 -0.12)">
      <defs>
       <path id="STIXGeneral-Italic-76" d="M 1325 448 
L 1523 653 
Q 1869 1005 2134 1456 
Q 2400 1907 2400 2131 
Q 2400 2208 2285 2317 
Q 2125 2458 2125 2605 
Q 2125 2701 2195 2761 
Q 2266 2822 2368 2822 
Q 2522 2822 2624 2704 
Q 2726 2586 2726 2445 
Q 2726 2074 2323 1453 
Q 1971 909 1562 474 
Q 1504 416 1421 326 
Q 1338 237 1299 192 
Q 1261 147 1200 86 
Q 1139 26 1110 -3 
Q 1082 -32 1043 -64 
Q 1005 -96 979 -105 
Q 954 -115 928 -115 
Q 870 -115 870 58 
L 870 211 
Q 870 1094 717 1990 
Q 653 2355 579 2470 
Q 506 2586 326 2586 
Q 198 2586 128 2579 
L 128 2662 
Q 480 2720 845 2797 
Q 915 2822 973 2822 
Q 1011 2822 1033 2739 
Q 1056 2656 1165 2093 
Q 1280 1510 1325 448 
z
" transform="scale(0.015625)"/>
       <path id="TimesNewRomanPSMT-6d" d="M 1050 2338 
Q 1363 2650 1419 2697 
Q 1559 2816 1721 2881 
Q 1884 2947 2044 2947 
Q 2313 2947 2506 2790 
Q 2700 2634 2766 2338 
Q 3088 2713 3309 2830 
Q 3531 2947 3766 2947 
Q 3994 2947 4170 2830 
Q 4347 2713 4450 2447 
Q 4519 2266 4519 1878 
L 4519 647 
Q 4519 378 4559 278 
Q 4591 209 4675 161 
Q 4759 113 4950 113 
L 4950 0 
L 3538 0 
L 3538 113 
L 3597 113 
Q 3781 113 3884 184 
Q 3956 234 3988 344 
Q 4000 397 4000 647 
L 4000 1878 
Q 4000 2228 3916 2372 
Q 3794 2572 3525 2572 
Q 3359 2572 3192 2489 
Q 3025 2406 2788 2181 
L 2781 2147 
L 2788 2013 
L 2788 647 
Q 2788 353 2820 281 
Q 2853 209 2943 161 
Q 3034 113 3253 113 
L 3253 0 
L 1806 0 
L 1806 113 
Q 2044 113 2133 169 
Q 2222 225 2256 338 
Q 2272 391 2272 647 
L 2272 1878 
Q 2272 2228 2169 2381 
Q 2031 2581 1784 2581 
Q 1616 2581 1450 2491 
Q 1191 2353 1050 2181 
L 1050 647 
Q 1050 366 1089 281 
Q 1128 197 1204 155 
Q 1281 113 1516 113 
L 1516 0 
L 100 0 
L 100 113 
Q 297 113 375 155 
Q 453 197 493 289 
Q 534 381 534 647 
L 534 1741 
Q 534 2213 506 2350 
Q 484 2453 437 2492 
Q 391 2531 309 2531 
Q 222 2531 100 2484 
L 53 2597 
L 916 2947 
L 1050 2947 
L 1050 2338 
z
" transform="scale(0.015625)"/>
       <path id="TimesNewRomanPSMT-2f" d="M 1794 4444 
L 259 -88 
L 9 -88 
L 1544 4444 
L 1794 4444 
z
" transform="scale(0.015625)"/>
      </defs>
      <use xlink:href="#STIXGeneral-Italic-76" transform="translate(0 0.5625)"/>
      <use xlink:href="#TimesNewRomanPSMT-20" transform="translate(44.399994 0.5625)"/>
      <use xlink:href="#TimesNewRomanPSMT-5b" transform="translate(69.399994 0.5625)"/>
      <use xlink:href="#TimesNewRomanPSMT-6d" transform="translate(102.700775 0.5625)"/>
      <use xlink:href="#TimesNewRomanPSMT-2f" transform="translate(180.483978 0.5625)"/>
      <use xlink:href="#TimesNewRomanPSMT-73" transform="translate(208.267181 0.5625)"/>
      <use xlink:href="#TimesNewRomanPSMT-5d" transform="translate(247.183197 0.5625)"/>
     </g>
    </g>
   </g>
   <g id="line2d_17">
    <path d="M 58.398769 149.339491 
L 66.682414 30.404121 
L 77.823171 30.404121 
L 78.11165 34.505425 
L 78.397166 30.404121 
L 82.394729 30.404121 
L 82.68255 34.505425 
L 82.966787 30.404121 
L 98.393533 30.404121 
L 98.687217 34.505425 
L 98.967872 30.404121 
L 104.10979 30.404121 
L 104.679376 38.606484 
L 105.25059 30.404121 
L 105.539962 30.404121 
L 106.395853 42.707788 
L 107.254079 30.878796 
L 107.538883 30.404121 
L 107.82221 31.888435 
L 108.11052 30.404121 
L 108.393758 34.505425 
L 108.682311 33.128891 
L 108.9662 30.404121 
L 130.392285 30.404121 
L 130.681118 34.505425 
L 130.964801 30.404121 
L 155.533923 30.404121 
L 156.678304 46.809093 
L 157.534382 34.505425 
L 158.681233 50.910151 
L 158.963077 52.420057 
L 160.105408 36.015085 
L 160.393591 40.11639 
L 160.676355 38.782672 
L 161.248703 30.580309 
L 161.537242 30.404121 
L 206.960438 30.404121 
L 207.531983 35.831268 
L 210.102635 62.926897 
L 210.959686 73.77947 
L 211.244552 76.376774 
L 211.53088 77.761675 
L 213.24421 92.971469 
L 214.101178 97.564428 
L 214.387618 98.566931 
L 214.672732 99.013062 
L 215.244616 101.347067 
L 215.815859 104.526335 
L 216.387458 106.64355 
L 216.958754 111.058106 
L 217.530644 113.957096 
L 217.815155 114.376897 
L 218.101146 115.040065 
L 218.672417 117.184348 
L 219.243914 125.386957 
L 219.529896 121.285653 
L 219.815469 120.064391 
L 220.101186 120.784155 
L 220.957814 124.172339 
L 221.529476 125.802575 
L 222.100809 127.084125 
L 222.672099 128.578282 
L 223.529167 130.575414 
L 224.100383 138.777777 
L 224.386641 134.676472 
L 224.386641 134.676472 
" clip-path="url(#pbb030cc017)" style="fill: none; stroke: #ff0000; stroke-opacity: 0.8; stroke-linecap: square"/>
   </g>
   <g id="line2d_18">
    <path d="M 58.398769 153.440795 
L 59.542062 153.440795 
L 59.823532 143.659626 
L 60.113454 143.65938 
L 60.39633 137.13819 
L 60.682878 133.877718 
L 60.96706 120.836077 
L 61.537902 120.836077 
L 61.823676 101.273245 
L 62.109699 102.903481 
L 62.395011 99.643255 
L 62.969503 98.01302 
L 63.25233 93.122066 
L 63.823579 71.928998 
L 64.109296 71.928998 
L 64.395848 73.559234 
L 64.6805 78.147764 
L 64.967377 78.449942 
L 65.256236 65.408301 
L 65.541166 61.060677 
L 65.823997 50.735931 
L 66.108884 49.105449 
L 66.394396 57.256875 
L 66.682414 37.693798 
L 66.971304 36.063808 
L 67.538398 18.131705 
L 68.108585 24.652156 
L 68.394594 29.542618 
L 68.68114 26.282146 
L 68.968642 31.172854 
L 69.252873 31.1731 
L 69.537652 27.912874 
L 69.826184 31.173346 
L 70.109653 31.173346 
L 70.680138 34.433572 
L 71.25239 27.912628 
L 71.541015 29.542864 
L 71.823611 32.803336 
L 72.112006 29.542864 
L 72.39695 27.912628 
L 72.680413 31.1731 
L 72.969203 31.1731 
L 73.251464 29.542864 
L 73.537411 26.282392 
L 73.827584 29.542864 
L 74.114907 31.1731 
L 74.395445 30.431927 
L 74.680886 27.46822 
L 74.968317 29.542864 
L 75.539006 29.542864 
L 75.822853 27.912382 
L 76.109074 31.172854 
L 76.397478 27.912874 
L 76.682483 27.912628 
L 76.966598 32.80309 
L 77.25494 29.54311 
L 77.540035 32.803336 
L 77.823171 31.172854 
L 78.11165 27.912874 
L 78.397166 29.542864 
L 78.680418 32.803336 
L 78.965704 37.694044 
L 79.252005 24.652156 
L 79.537141 25.980214 
L 79.826491 31.1731 
L 80.107953 29.542864 
L 80.396154 29.542618 
L 80.684333 32.80309 
L 80.965803 29.542864 
L 81.252554 29.543356 
L 81.826776 31.172608 
L 82.108489 29.542618 
L 82.394729 34.433572 
L 82.68255 27.912628 
L 82.966787 31.172854 
L 83.255465 29.54311 
L 83.537971 37.694044 
L 83.82239 32.803336 
L 84.111891 36.063808 
L 84.68334 29.542864 
L 85.5376 34.433572 
L 86.108694 27.912628 
L 86.394688 31.1731 
L 86.679845 26.282392 
L 87.536876 31.1731 
L 87.827724 34.433572 
L 88.109318 29.542864 
L 88.394518 32.803336 
L 88.679863 29.542864 
L 88.965295 32.803336 
L 89.251091 32.803336 
L 89.541097 34.433572 
L 89.823769 29.542864 
L 90.112358 28.727623 
L 90.393929 31.1731 
L 90.67988 31.1731 
L 90.965623 30.358105 
L 91.250927 32.803336 
L 91.536545 31.172854 
L 91.825544 34.433572 
L 92.11192 31.173346 
L 92.394735 36.064054 
L 92.965271 27.912628 
L 93.251171 31.173346 
L 93.540092 29.542618 
L 93.822825 29.542618 
L 94.108262 27.912382 
L 94.394076 27.912874 
L 94.685762 29.542864 
L 95.255063 29.542864 
L 95.539456 37.693798 
L 95.822307 29.542864 
L 96.393965 25.98046 
L 96.679381 31.1731 
L 96.965948 27.912628 
L 97.253182 32.80309 
L 97.53746 32.80309 
L 97.824883 36.064054 
L 98.107565 32.803336 
L 98.393533 31.173346 
L 98.967872 31.1731 
L 99.250725 32.803336 
L 99.828798 27.912874 
L 100.110642 36.063808 
L 100.396072 37.694044 
L 100.682028 29.542864 
L 100.965133 29.542864 
L 101.253414 27.912628 
L 101.536833 29.542864 
L 101.823608 29.542864 
L 102.393139 32.803336 
L 102.679773 29.542864 
L 102.964932 29.542864 
L 103.253728 31.988095 
L 103.538345 32.803336 
L 103.823653 31.1731 
L 104.10979 31.172854 
L 104.393518 27.912382 
L 104.679376 31.1731 
L 104.96481 31.1731 
L 105.539962 37.694044 
L 105.821808 29.542864 
L 106.108919 31.988341 
L 106.395853 32.803828 
L 106.678733 40.954516 
L 106.965218 40.954269 
L 107.538883 37.69429 
L 107.82221 31.1731 
L 108.11052 44.214741 
L 108.393758 37.69429 
L 108.682311 37.693798 
L 108.9662 32.80309 
L 109.250063 36.063808 
L 109.536493 29.543356 
L 109.826278 26.282638 
L 110.110597 31.1731 
L 110.393272 29.543356 
L 110.968529 31.1731 
L 111.254715 31.1731 
L 111.821583 27.912628 
L 112.107594 34.433326 
L 112.393016 27.912874 
L 112.681786 31.1731 
L 112.965271 29.54311 
L 113.250689 31.172854 
L 113.535786 27.912628 
L 113.82212 26.282392 
L 114.110474 32.803336 
L 114.395584 29.542618 
L 114.680293 31.988341 
L 114.964295 27.912628 
L 115.25349 26.282392 
L 115.536819 31.988095 
L 115.821594 31.1731 
L 116.110171 31.1731 
L 116.393871 32.803336 
L 116.679804 32.803336 
L 116.967022 27.912628 
L 117.540646 31.1731 
L 117.824893 27.912628 
L 118.107608 30.431927 
L 118.392605 27.912628 
L 118.681064 31.1731 
L 118.963797 26.282392 
L 119.25283 29.542864 
L 119.537271 27.912628 
L 119.821431 30.432173 
L 120.110541 31.1731 
L 120.395365 32.803336 
L 120.681488 29.542864 
L 120.967634 27.912382 
L 121.249425 32.803336 
L 121.5393 32.802844 
L 121.822356 31.1731 
L 122.106832 31.1731 
L 122.392759 26.282146 
L 122.682215 27.912382 
L 123.249722 27.912874 
L 123.535404 26.282638 
L 123.821104 29.542864 
L 124.108167 29.54311 
L 124.394446 27.912874 
L 124.681942 31.172854 
L 124.965533 26.282638 
L 125.249556 25.98046 
L 125.535552 34.433572 
L 125.820879 32.80309 
L 126.108681 32.803336 
L 126.39607 29.542864 
L 126.678222 29.542864 
L 126.964029 31.1731 
L 127.25165 29.542864 
L 127.535159 31.172854 
L 127.823896 31.172854 
L 128.108609 34.433572 
L 128.393447 29.542864 
L 128.678426 30.358105 
L 129.249626 26.282392 
L 129.537273 29.542864 
L 130.392285 29.54311 
L 130.681118 32.803336 
L 130.964801 27.912628 
L 131.252273 26.282392 
L 131.537019 26.282392 
L 131.820578 32.803336 
L 132.395454 24.652156 
L 132.677635 31.172854 
L 132.963319 34.433572 
L 133.251833 32.803336 
L 133.534885 27.912628 
L 133.82373 27.912628 
L 134.110143 32.80309 
L 134.394301 24.652156 
L 134.679629 26.282392 
L 134.965856 31.1731 
L 135.24974 31.172854 
L 135.535068 27.610696 
L 135.820478 32.80309 
L 136.106227 27.912628 
L 136.679904 31.172854 
L 137.250417 31.1731 
L 137.538253 27.912628 
L 137.822406 28.950319 
L 138.10657 27.912874 
L 138.391724 26.282392 
L 138.678407 34.433572 
L 138.963351 34.433572 
L 139.249168 27.912628 
L 139.534962 31.1731 
L 139.822587 36.063808 
L 140.108087 31.1731 
L 140.391823 31.1731 
L 140.677742 26.282392 
L 140.965547 29.542864 
L 141.249952 29.54311 
L 141.537552 31.172854 
L 141.819705 29.542864 
L 142.105937 32.803582 
L 142.392524 32.803582 
L 142.681418 27.912382 
L 142.963854 31.1731 
L 143.539987 27.912628 
L 143.822375 31.988095 
L 144.107395 27.912628 
L 144.391897 29.54311 
L 144.677383 29.542864 
L 144.964448 32.803336 
L 145.248665 27.912628 
L 145.535256 26.282392 
L 145.82028 29.542618 
L 146.108459 34.433572 
L 146.391521 36.063808 
L 146.680382 31.1731 
L 146.964257 31.1731 
L 147.249604 32.803336 
L 147.538157 29.542864 
L 147.820332 29.542864 
L 148.106694 32.803582 
L 148.395239 29.542864 
L 148.680391 34.433818 
L 148.962671 32.803336 
L 149.248808 36.063808 
L 149.538808 32.803336 
L 149.821196 32.80309 
L 150.108416 27.610204 
L 150.391223 34.433818 
L 150.677121 31.1731 
L 150.963034 32.803582 
L 151.248838 27.912628 
L 151.5363 36.063562 
L 151.820535 27.912382 
L 152.105246 29.542864 
L 152.390878 32.80309 
L 152.677237 32.80309 
L 152.963 31.172854 
L 153.248525 30.358105 
L 153.537631 34.433572 
L 153.820849 29.542618 
L 154.105911 27.61045 
L 154.680655 31.1731 
L 154.962924 27.912628 
L 155.252071 30.358105 
L 155.533923 34.433326 
L 156.105571 31.988341 
L 156.393004 29.54311 
L 156.678304 32.80309 
L 156.965506 34.433572 
L 157.24821 44.215234 
L 157.534382 49.105695 
L 158.105253 37.694044 
L 158.391428 44.214987 
L 158.681233 44.215234 
L 158.963077 42.584752 
L 159.249846 42.584752 
L 159.534059 49.105695 
L 159.822242 49.105695 
L 160.105408 53.996403 
L 160.393591 44.214987 
L 161.248703 44.214987 
L 161.537242 39.32428 
L 161.819815 31.1731 
L 162.108509 27.912382 
L 162.395646 31.172854 
L 162.963225 29.542864 
L 163.250537 27.912382 
L 163.534574 31.1731 
L 163.819845 32.803336 
L 164.677424 27.912382 
L 164.96228 28.456204 
L 165.248233 34.433326 
L 165.538047 27.912874 
L 165.819464 29.543356 
L 166.10635 32.803582 
L 166.393989 31.1731 
L 166.676959 34.433326 
L 166.964194 26.282392 
L 167.248296 31.1731 
L 167.533352 29.542864 
L 167.819046 26.282392 
L 168.106962 31.173346 
L 168.390567 31.172854 
L 168.680297 29.542618 
L 168.965231 32.803582 
L 169.249542 27.912382 
L 169.533519 31.173346 
L 169.818997 27.912628 
L 170.107842 32.803336 
L 170.961785 27.912628 
L 171.249059 28.727869 
L 171.537542 31.1731 
L 171.820013 29.54311 
L 172.107066 29.542864 
L 172.390555 31.1731 
L 172.676378 26.282392 
L 172.961629 27.912628 
L 173.247942 27.912628 
L 173.53343 29.542864 
L 173.819073 32.078896 
L 174.105179 32.803336 
L 174.391411 29.542864 
L 174.678063 32.803336 
L 174.96406 27.912628 
L 175.250187 31.1731 
L 175.533296 29.542864 
L 175.822076 31.1731 
L 176.105434 31.1731 
L 176.390141 32.803336 
L 176.676722 27.912628 
L 176.962653 29.542618 
L 177.24877 34.433572 
L 177.53326 31.1731 
L 177.821813 29.542618 
L 178.10803 26.282392 
L 178.39156 31.1731 
L 178.676476 29.542618 
L 178.961612 31.1731 
L 179.250451 31.172854 
L 179.535677 29.54311 
L 180.106775 29.542618 
L 180.390023 31.1731 
L 180.677495 29.542864 
L 180.964509 29.542864 
L 181.249839 26.2819 
L 181.533204 29.542864 
L 181.821286 29.543356 
L 182.104757 32.803582 
L 182.390002 32.803582 
L 182.676094 29.542618 
L 182.963877 33.396373 
L 183.247729 29.542864 
L 183.532837 29.542864 
L 183.820995 31.173346 
L 184.105304 31.1731 
L 184.395647 28.727869 
L 184.678699 36.063808 
L 184.962382 31.172854 
L 185.247659 31.172854 
L 185.532785 26.282392 
L 185.818557 31.1731 
L 186.107234 29.542864 
L 186.392199 28.727869 
L 186.675342 29.542864 
L 186.962937 29.542864 
L 187.249397 28.727869 
L 187.532813 29.542864 
L 187.821503 31.1731 
L 188.104971 31.1731 
L 188.389783 27.912628 
L 188.675297 27.912628 
L 188.962699 31.1731 
L 189.247512 32.803336 
L 189.821659 29.542864 
L 190.103818 29.542864 
L 190.67673 32.803336 
L 190.961021 28.727869 
L 191.247285 29.542618 
L 191.533016 27.912382 
L 191.818209 27.912382 
L 192.1082 32.803336 
L 192.675215 29.542618 
L 192.960899 31.988341 
L 193.246755 31.172854 
L 193.532291 31.1731 
L 193.818175 29.542864 
L 194.10416 26.282392 
L 194.389292 31.172854 
L 194.674712 31.172854 
L 194.962825 27.912382 
L 195.248597 31.1731 
L 195.531865 26.282392 
L 196.10403 32.80309 
L 196.391761 27.912382 
L 196.674594 29.542864 
L 197.532753 29.542618 
L 198.102785 32.80309 
L 198.674365 29.542618 
L 199.24845 32.803336 
L 199.819107 26.282392 
L 200.388384 29.542864 
L 200.674773 29.542864 
L 200.961723 27.46822 
L 201.245601 29.542864 
L 201.53427 32.803336 
L 201.817199 34.433572 
L 202.102613 31.1731 
L 202.390725 29.542864 
L 202.675648 32.803336 
L 202.959787 32.803336 
L 203.247263 31.1731 
L 203.530769 26.282638 
L 203.817092 31.1731 
L 204.104401 31.172854 
L 204.389943 32.803336 
L 204.673792 27.912628 
L 205.247044 31.1731 
L 205.530891 29.542618 
L 206.103781 29.54311 
L 206.388868 32.803582 
L 206.960438 29.542864 
L 207.244601 32.803582 
L 207.531983 34.433572 
L 207.817565 34.433818 
L 208.101845 29.54311 
L 208.388687 27.912628 
L 208.674839 34.433572 
L 208.959111 34.433572 
L 209.246033 36.063808 
L 209.816983 53.996157 
L 210.102635 53.815539 
L 210.387906 62.147583 
L 210.672989 65.407809 
L 211.244552 75.189716 
L 211.53088 75.18947 
L 211.815842 73.559234 
L 212.102219 73.559234 
L 212.387989 80.079932 
L 212.673597 80.079932 
L 212.959303 76.819706 
L 213.530205 86.601122 
L 213.815801 98.012773 
L 214.101178 98.012281 
L 214.387618 101.273245 
L 214.672732 107.793943 
L 214.958348 99.643009 
L 215.244616 101.273245 
L 215.529634 98.827768 
L 215.815859 101.273245 
L 216.101941 101.273245 
L 216.387458 107.793943 
L 216.672994 104.533471 
L 216.958754 107.794189 
L 217.530644 119.205841 
L 217.815155 114.314887 
L 218.101146 112.684651 
L 218.387064 114.315133 
L 218.672417 120.836323 
L 218.958166 115.945369 
L 219.243914 120.836077 
L 219.529896 119.205841 
L 219.815469 128.987256 
L 220.101186 132.247482 
L 220.387023 122.466313 
L 220.957814 122.466313 
L 221.244845 120.836077 
L 221.529476 124.096549 
L 221.814996 125.726784 
L 222.100809 125.726784 
L 222.386605 124.096549 
L 222.672099 127.357266 
L 222.958218 127.357266 
L 223.243896 128.987256 
L 223.529167 132.247728 
L 223.8152 130.617492 
L 224.386641 130.617492 
L 224.386641 130.617492 
" clip-path="url(#pbb030cc017)" style="fill: none; stroke: #0000ff; stroke-linecap: square"/>
   </g>
   <g id="line2d_19">
    <path d="M 50.099375 30.404121 
L 232.686035 30.404121 
" clip-path="url(#pbb030cc017)" style="fill: none; stroke-dasharray: 3.7,1.6; stroke-dashoffset: 0; stroke: #000000; stroke-opacity: 0.7"/>
   </g>
   <g id="patch_3">
    <path d="M 50.099375 160.20625 
L 50.099375 11.36625 
" style="fill: none; stroke: #000000; stroke-width: 0.8; stroke-linejoin: miter; stroke-linecap: square"/>
   </g>
   <g id="patch_4">
    <path d="M 232.686035 160.20625 
L 232.686035 11.36625 
" style="fill: none; stroke: #000000; stroke-width: 0.8; stroke-linejoin: miter; stroke-linecap: square"/>
   </g>
   <g id="patch_5">
    <path d="M 50.099375 160.20625 
L 232.686035 160.20625 
" style="fill: none; stroke: #000000; stroke-width: 0.8; stroke-linejoin: miter; stroke-linecap: square"/>
   </g>
   <g id="patch_6">
    <path d="M 50.099375 11.36625 
L 232.686035 11.36625 
" style="fill: none; stroke: #000000; stroke-width: 0.8; stroke-linejoin: miter; stroke-linecap: square"/>
   </g>
  </g>
  <g id="axes_2">
   <g id="patch_7">
    <path d="M 295.979375 160.20625 
L 478.566035 160.20625 
L 478.566035 11.36625 
L 295.979375 11.36625 
z
" style="fill: #ffffff"/>
   </g>
   <g id="matplotlib.axis_3">
    <g id="xtick_6">
     <g id="line2d_20">
      <path d="M 304.278769 160.20625 
L 304.278769 11.36625 
" clip-path="url(#pc9f7a342cf)" style="fill: none; stroke: #b0b0b0; stroke-opacity: 0.3; stroke-width: 0.8; stroke-linecap: square"/>
     </g>
     <g id="line2d_21">
      <g>
       <use xlink:href="#mb8fb2f3308" x="304.278769" y="160.20625" style="stroke: #000000; stroke-width: 0.8"/>
      </g>
     </g>
     <g id="text_11">
      <!-- 0 -->
      <g transform="translate(301.278769 175.53875) scale(0.12 -0.12)">
       <use xlink:href="#TimesNewRomanPSMT-30"/>
      </g>
     </g>
    </g>
    <g id="xtick_7">
     <g id="line2d_22">
      <path d="M 347.134139 160.20625 
L 347.134139 11.36625 
" clip-path="url(#pc9f7a342cf)" style="fill: none; stroke: #b0b0b0; stroke-opacity: 0.3; stroke-width: 0.8; stroke-linecap: square"/>
     </g>
     <g id="line2d_23">
      <g>
       <use xlink:href="#mb8fb2f3308" x="347.134139" y="160.20625" style="stroke: #000000; stroke-width: 0.8"/>
      </g>
     </g>
     <g id="text_12">
      <!-- 5 -->
      <g transform="translate(344.134139 175.53875) scale(0.12 -0.12)">
       <use xlink:href="#TimesNewRomanPSMT-35"/>
      </g>
     </g>
    </g>
    <g id="xtick_8">
     <g id="line2d_24">
      <path d="M 389.98951 160.20625 
L 389.98951 11.36625 
" clip-path="url(#pc9f7a342cf)" style="fill: none; stroke: #b0b0b0; stroke-opacity: 0.3; stroke-width: 0.8; stroke-linecap: square"/>
     </g>
     <g id="line2d_25">
      <g>
       <use xlink:href="#mb8fb2f3308" x="389.98951" y="160.20625" style="stroke: #000000; stroke-width: 0.8"/>
      </g>
     </g>
     <g id="text_13">
      <!-- 10 -->
      <g transform="translate(383.98951 175.53875) scale(0.12 -0.12)">
       <use xlink:href="#TimesNewRomanPSMT-31"/>
       <use xlink:href="#TimesNewRomanPSMT-30" x="50"/>
      </g>
     </g>
    </g>
    <g id="xtick_9">
     <g id="line2d_26">
      <path d="M 432.84488 160.20625 
L 432.84488 11.36625 
" clip-path="url(#pc9f7a342cf)" style="fill: none; stroke: #b0b0b0; stroke-opacity: 0.3; stroke-width: 0.8; stroke-linecap: square"/>
     </g>
     <g id="line2d_27">
      <g>
       <use xlink:href="#mb8fb2f3308" x="432.84488" y="160.20625" style="stroke: #000000; stroke-width: 0.8"/>
      </g>
     </g>
     <g id="text_14">
      <!-- 15 -->
      <g transform="translate(426.84488 175.53875) scale(0.12 -0.12)">
       <use xlink:href="#TimesNewRomanPSMT-31"/>
       <use xlink:href="#TimesNewRomanPSMT-35" x="50"/>
      </g>
     </g>
    </g>
    <g id="xtick_10">
     <g id="line2d_28">
      <path d="M 475.700251 160.20625 
L 475.700251 11.36625 
" clip-path="url(#pc9f7a342cf)" style="fill: none; stroke: #b0b0b0; stroke-opacity: 0.3; stroke-width: 0.8; stroke-linecap: square"/>
     </g>
     <g id="line2d_29">
      <g>
       <use xlink:href="#mb8fb2f3308" x="475.700251" y="160.20625" style="stroke: #000000; stroke-width: 0.8"/>
      </g>
     </g>
     <g id="text_15">
      <!-- 20 -->
      <g transform="translate(469.700251 175.53875) scale(0.12 -0.12)">
       <use xlink:href="#TimesNewRomanPSMT-32"/>
       <use xlink:href="#TimesNewRomanPSMT-30" x="50"/>
      </g>
     </g>
    </g>
    <g id="text_16">
     <!-- $t$ [s] -->
     <g transform="translate(377.732705 190.438125) scale(0.12 -0.12)">
      <use xlink:href="#STIXGeneral-Italic-74" transform="translate(0 0.28125)"/>
      <use xlink:href="#TimesNewRomanPSMT-20" transform="translate(27.799988 0.28125)"/>
      <use xlink:href="#TimesNewRomanPSMT-5b" transform="translate(52.799988 0.28125)"/>
      <use xlink:href="#TimesNewRomanPSMT-73" transform="translate(86.100769 0.28125)"/>
      <use xlink:href="#TimesNewRomanPSMT-5d" transform="translate(125.016785 0.28125)"/>
     </g>
    </g>
   </g>
   <g id="matplotlib.axis_4">
    <g id="ytick_4">
     <g id="line2d_30">
      <path d="M 295.979375 160.20625 
L 478.566035 160.20625 
" clip-path="url(#pc9f7a342cf)" style="fill: none; stroke: #b0b0b0; stroke-opacity: 0.3; stroke-width: 0.8; stroke-linecap: square"/>
     </g>
     <g id="line2d_31">
      <g>
       <use xlink:href="#ma87441cd1b" x="295.979375" y="160.20625" style="stroke: #000000; stroke-width: 0.8"/>
      </g>
     </g>
     <g id="text_17">
      <!-- −1.5 -->
      <g transform="translate(267.2125 164.3725) scale(0.12 -0.12)">
       <defs>
        <path id="TimesNewRomanPSMT-2212" d="M 3484 2000 
L 116 2000 
L 116 2256 
L 3484 2256 
L 3484 2000 
z
" transform="scale(0.015625)"/>
       </defs>
       <use xlink:href="#TimesNewRomanPSMT-2212"/>
       <use xlink:href="#TimesNewRomanPSMT-31" x="56.396484"/>
       <use xlink:href="#TimesNewRomanPSMT-2e" x="106.396484"/>
       <use xlink:href="#TimesNewRomanPSMT-35" x="131.396484"/>
      </g>
     </g>
    </g>
    <g id="ytick_5">
     <g id="line2d_32">
      <path d="M 295.979375 135.399583 
L 478.566035 135.399583 
" clip-path="url(#pc9f7a342cf)" style="fill: none; stroke: #b0b0b0; stroke-opacity: 0.3; stroke-width: 0.8; stroke-linecap: square"/>
     </g>
     <g id="line2d_33">
      <g>
       <use xlink:href="#ma87441cd1b" x="295.979375" y="135.399583" style="stroke: #000000; stroke-width: 0.8"/>
      </g>
     </g>
     <g id="text_18">
      <!-- −1.0 -->
      <g transform="translate(267.2125 139.565833) scale(0.12 -0.12)">
       <use xlink:href="#TimesNewRomanPSMT-2212"/>
       <use xlink:href="#TimesNewRomanPSMT-31" x="56.396484"/>
       <use xlink:href="#TimesNewRomanPSMT-2e" x="106.396484"/>
       <use xlink:href="#TimesNewRomanPSMT-30" x="131.396484"/>
      </g>
     </g>
    </g>
    <g id="ytick_6">
     <g id="line2d_34">
      <path d="M 295.979375 110.592917 
L 478.566035 110.592917 
" clip-path="url(#pc9f7a342cf)" style="fill: none; stroke: #b0b0b0; stroke-opacity: 0.3; stroke-width: 0.8; stroke-linecap: square"/>
     </g>
     <g id="line2d_35">
      <g>
       <use xlink:href="#ma87441cd1b" x="295.979375" y="110.592917" style="stroke: #000000; stroke-width: 0.8"/>
      </g>
     </g>
     <g id="text_19">
      <!-- −0.5 -->
      <g transform="translate(267.2125 114.759167) scale(0.12 -0.12)">
       <use xlink:href="#TimesNewRomanPSMT-2212"/>
       <use xlink:href="#TimesNewRomanPSMT-30" x="56.396484"/>
       <use xlink:href="#TimesNewRomanPSMT-2e" x="106.396484"/>
       <use xlink:href="#TimesNewRomanPSMT-35" x="131.396484"/>
      </g>
     </g>
    </g>
    <g id="ytick_7">
     <g id="line2d_36">
      <path d="M 295.979375 85.78625 
L 478.566035 85.78625 
" clip-path="url(#pc9f7a342cf)" style="fill: none; stroke: #b0b0b0; stroke-opacity: 0.3; stroke-width: 0.8; stroke-linecap: square"/>
     </g>
     <g id="line2d_37">
      <g>
       <use xlink:href="#ma87441cd1b" x="295.979375" y="85.78625" style="stroke: #000000; stroke-width: 0.8"/>
      </g>
     </g>
     <g id="text_20">
      <!-- 0.0 -->
      <g transform="translate(273.979375 89.9525) scale(0.12 -0.12)">
       <use xlink:href="#TimesNewRomanPSMT-30"/>
       <use xlink:href="#TimesNewRomanPSMT-2e" x="50"/>
       <use xlink:href="#TimesNewRomanPSMT-30" x="75"/>
      </g>
     </g>
    </g>
    <g id="ytick_8">
     <g id="line2d_38">
      <path d="M 295.979375 60.979583 
L 478.566035 60.979583 
" clip-path="url(#pc9f7a342cf)" style="fill: none; stroke: #b0b0b0; stroke-opacity: 0.3; stroke-width: 0.8; stroke-linecap: square"/>
     </g>
     <g id="line2d_39">
      <g>
       <use xlink:href="#ma87441cd1b" x="295.979375" y="60.979583" style="stroke: #000000; stroke-width: 0.8"/>
      </g>
     </g>
     <g id="text_21">
      <!-- 0.5 -->
      <g transform="translate(273.979375 65.145833) scale(0.12 -0.12)">
       <use xlink:href="#TimesNewRomanPSMT-30"/>
       <use xlink:href="#TimesNewRomanPSMT-2e" x="50"/>
       <use xlink:href="#TimesNewRomanPSMT-35" x="75"/>
      </g>
     </g>
    </g>
    <g id="ytick_9">
     <g id="line2d_40">
      <path d="M 295.979375 36.172917 
L 478.566035 36.172917 
" clip-path="url(#pc9f7a342cf)" style="fill: none; stroke: #b0b0b0; stroke-opacity: 0.3; stroke-width: 0.8; stroke-linecap: square"/>
     </g>
     <g id="line2d_41">
      <g>
       <use xlink:href="#ma87441cd1b" x="295.979375" y="36.172917" style="stroke: #000000; stroke-width: 0.8"/>
      </g>
     </g>
     <g id="text_22">
      <!-- 1.0 -->
      <g transform="translate(273.979375 40.339167) scale(0.12 -0.12)">
       <use xlink:href="#TimesNewRomanPSMT-31"/>
       <use xlink:href="#TimesNewRomanPSMT-2e" x="50"/>
       <use xlink:href="#TimesNewRomanPSMT-30" x="75"/>
      </g>
     </g>
    </g>
    <g id="ytick_10">
     <g id="line2d_42">
      <path d="M 295.979375 11.36625 
L 478.566035 11.36625 
" clip-path="url(#pc9f7a342cf)" style="fill: none; stroke: #b0b0b0; stroke-opacity: 0.3; stroke-width: 0.8; stroke-linecap: square"/>
     </g>
     <g id="line2d_43">
      <g>
       <use xlink:href="#ma87441cd1b" x="295.979375" y="11.36625" style="stroke: #000000; stroke-width: 0.8"/>
      </g>
     </g>
     <g id="text_23">
      <!-- 1.5 -->
      <g transform="translate(273.979375 15.5325) scale(0.12 -0.12)">
       <use xlink:href="#TimesNewRomanPSMT-31"/>
       <use xlink:href="#TimesNewRomanPSMT-2e" x="50"/>
       <use xlink:href="#TimesNewRomanPSMT-35" x="75"/>
      </g>
     </g>
    </g>
    <g id="text_24">
     <!-- $\omega$ [rad/s] -->
     <g transform="translate(260.645625 107.08625) rotate(-90) scale(0.12 -0.12)">
      <defs>
       <path id="STIXGeneral-Italic-3c9" d="M 3021 2810 
L 3136 2810 
Q 3648 2810 3898 2598 
Q 4186 2355 4186 1824 
Q 4186 1357 3910 838 
Q 3667 390 3334 160 
Q 3002 -70 2669 -70 
Q 2438 -70 2281 3 
Q 2125 77 2064 160 
Q 2003 243 1939 384 
Q 1741 147 1533 38 
Q 1325 -70 998 -70 
Q 659 -70 416 160 
Q 173 390 173 832 
Q 173 1101 237 1350 
Q 403 1965 883 2387 
Q 1363 2810 2010 2810 
L 2125 2810 
L 2125 2707 
Q 1606 2707 1267 2291 
Q 1024 1990 867 1526 
Q 710 1062 710 666 
Q 710 64 1075 64 
Q 1286 64 1523 285 
Q 1760 506 1856 774 
Q 1837 915 1837 1101 
Q 1837 1363 1914 1651 
Q 1984 1920 2125 2105 
Q 2266 2291 2432 2291 
Q 2656 2291 2656 1997 
Q 2656 1530 2387 1062 
Q 2272 864 2189 736 
Q 2176 691 2176 602 
Q 2176 384 2288 224 
Q 2400 64 2592 64 
Q 3040 64 3341 627 
Q 3482 896 3565 1270 
Q 3648 1645 3648 1971 
Q 3648 2240 3616 2362 
Q 3565 2566 3411 2636 
Q 3258 2707 3021 2707 
L 3021 2810 
z
" transform="scale(0.015625)"/>
       <path id="TimesNewRomanPSMT-72" d="M 1038 2947 
L 1038 2303 
Q 1397 2947 1775 2947 
Q 1947 2947 2059 2842 
Q 2172 2738 2172 2600 
Q 2172 2478 2090 2393 
Q 2009 2309 1897 2309 
Q 1788 2309 1652 2417 
Q 1516 2525 1450 2525 
Q 1394 2525 1328 2463 
Q 1188 2334 1038 2041 
L 1038 669 
Q 1038 431 1097 309 
Q 1138 225 1241 169 
Q 1344 113 1538 113 
L 1538 0 
L 72 0 
L 72 113 
Q 291 113 397 181 
Q 475 231 506 341 
Q 522 394 522 644 
L 522 1753 
Q 522 2253 501 2348 
Q 481 2444 426 2487 
Q 372 2531 291 2531 
Q 194 2531 72 2484 
L 41 2597 
L 906 2947 
L 1038 2947 
z
" transform="scale(0.015625)"/>
       <path id="TimesNewRomanPSMT-61" d="M 1822 413 
Q 1381 72 1269 19 
Q 1100 -59 909 -59 
Q 613 -59 420 144 
Q 228 347 228 678 
Q 228 888 322 1041 
Q 450 1253 767 1440 
Q 1084 1628 1822 1897 
L 1822 2009 
Q 1822 2438 1686 2597 
Q 1550 2756 1291 2756 
Q 1094 2756 978 2650 
Q 859 2544 859 2406 
L 866 2225 
Q 866 2081 792 2003 
Q 719 1925 600 1925 
Q 484 1925 411 2006 
Q 338 2088 338 2228 
Q 338 2497 613 2722 
Q 888 2947 1384 2947 
Q 1766 2947 2009 2819 
Q 2194 2722 2281 2516 
Q 2338 2381 2338 1966 
L 2338 994 
Q 2338 584 2353 492 
Q 2369 400 2405 369 
Q 2441 338 2488 338 
Q 2538 338 2575 359 
Q 2641 400 2828 588 
L 2828 413 
Q 2478 -56 2159 -56 
Q 2006 -56 1915 50 
Q 1825 156 1822 413 
z
M 1822 616 
L 1822 1706 
Q 1350 1519 1213 1441 
Q 966 1303 859 1153 
Q 753 1003 753 825 
Q 753 600 887 451 
Q 1022 303 1197 303 
Q 1434 303 1822 616 
z
" transform="scale(0.015625)"/>
       <path id="TimesNewRomanPSMT-64" d="M 2222 322 
Q 2013 103 1813 7 
Q 1613 -88 1381 -88 
Q 913 -88 563 304 
Q 213 697 213 1313 
Q 213 1928 600 2439 
Q 988 2950 1597 2950 
Q 1975 2950 2222 2709 
L 2222 3238 
Q 2222 3728 2198 3840 
Q 2175 3953 2125 3993 
Q 2075 4034 2000 4034 
Q 1919 4034 1784 3984 
L 1744 4094 
L 2597 4444 
L 2738 4444 
L 2738 1134 
Q 2738 631 2761 520 
Q 2784 409 2836 365 
Q 2888 322 2956 322 
Q 3041 322 3181 375 
L 3216 266 
L 2366 -88 
L 2222 -88 
L 2222 322 
z
M 2222 541 
L 2222 2016 
Q 2203 2228 2109 2403 
Q 2016 2578 1861 2667 
Q 1706 2756 1559 2756 
Q 1284 2756 1069 2509 
Q 784 2184 784 1559 
Q 784 928 1059 592 
Q 1334 256 1672 256 
Q 1956 256 2222 541 
z
" transform="scale(0.015625)"/>
      </defs>
      <use xlink:href="#STIXGeneral-Italic-3c9" transform="translate(0 0.5625)"/>
      <use xlink:href="#TimesNewRomanPSMT-20" transform="translate(68.599991 0.5625)"/>
      <use xlink:href="#TimesNewRomanPSMT-5b" transform="translate(93.599991 0.5625)"/>
      <use xlink:href="#TimesNewRomanPSMT-72" transform="translate(126.900772 0.5625)"/>
      <use xlink:href="#TimesNewRomanPSMT-61" transform="translate(160.201553 0.5625)"/>
      <use xlink:href="#TimesNewRomanPSMT-64" transform="translate(204.586319 0.5625)"/>
      <use xlink:href="#TimesNewRomanPSMT-2f" transform="translate(254.586319 0.5625)"/>
      <use xlink:href="#TimesNewRomanPSMT-73" transform="translate(282.369522 0.5625)"/>
      <use xlink:href="#TimesNewRomanPSMT-5d" transform="translate(321.285538 0.5625)"/>
     </g>
    </g>
   </g>
   <g id="line2d_44">
    <path d="M 304.278769 85.78625 
L 308.849503 85.721802 
L 310.847377 85.289124 
L 311.703997 85.299692 
L 314.56114 85.22165 
L 315.417652 85.250773 
L 316.847281 85.446051 
L 317.13239 85.403533 
L 317.703611 84.815119 
L 318.560413 84.844142 
L 318.849203 84.793041 
L 319.417411 83.768079 
L 320.275445 83.85907 
L 320.560886 84.178034 
L 321.419006 84.326675 
L 321.989074 83.928925 
L 322.562483 84.106839 
L 323.13494 83.358025 
L 323.420035 83.357231 
L 323.703171 83.525321 
L 323.99165 81.87156 
L 324.277166 81.340796 
L 324.560418 81.250004 
L 324.845704 81.507199 
L 325.132005 82.012958 
L 325.417141 82.18591 
L 325.706491 83.74481 
L 325.987953 84.247046 
L 327.42186 85.24482 
L 327.706776 85.78625 
L 327.988489 86.075595 
L 328.274729 86.069294 
L 328.846787 89.123441 
L 329.135465 89.192205 
L 329.417971 89.387434 
L 329.70239 89.936951 
L 329.991891 91.339917 
L 330.276109 91.07647 
L 330.56334 90.365313 
L 330.848791 90.145873 
L 331.133627 90.115212 
L 331.4176 90.205756 
L 331.988694 89.860249 
L 332.559845 89.202227 
L 333.132277 89.023718 
L 333.707724 89.23656 
L 333.989318 88.887828 
L 334.274518 89.184863 
L 334.559863 88.999309 
L 334.845295 89.02615 
L 335.131091 88.468595 
L 335.421097 88.333994 
L 335.992358 87.866537 
L 336.55988 87.628691 
L 336.845623 87.595152 
L 337.130927 88.389114 
L 337.416545 88.513941 
L 337.705544 88.47435 
L 337.99192 87.298316 
L 338.274735 86.868664 
L 338.563218 86.681523 
L 339.131171 85.717932 
L 339.420092 85.656065 
L 340.274076 85.104414 
L 340.565762 85.064376 
L 340.846997 84.34915 
L 341.135063 84.042887 
L 341.702307 83.864527 
L 341.991581 83.805487 
L 342.273965 83.884968 
L 342.845948 85.582637 
L 343.987565 85.893514 
L 344.273533 85.914252 
L 344.567217 87.568063 
L 344.847872 88.121698 
L 345.130725 88.205148 
L 345.708798 87.946613 
L 346.276072 88.034429 
L 346.845133 87.034869 
L 347.133414 86.80377 
L 347.416833 86.006484 
L 347.703608 85.626247 
L 347.991834 85.533024 
L 348.273139 84.3107 
L 348.559773 83.677584 
L 348.844932 83.621075 
L 349.418345 83.959636 
L 350.273518 79.572478 
L 350.84481 76.811893 
L 351.13059 77.252112 
L 351.419962 77.941042 
L 352.275853 72.979709 
L 352.558733 73.635845 
L 353.70221 67.863632 
L 353.99052 69.000521 
L 354.8462 64.191699 
L 355.130063 64.063846 
L 355.416493 63.762147 
L 355.706278 63.731536 
L 355.990597 63.498998 
L 356.273272 63.936935 
L 356.561458 64.896358 
L 357.701583 64.726283 
L 358.273016 65.678115 
L 359.415786 65.665811 
L 359.990474 65.914076 
L 360.275584 66.321451 
L 360.560293 66.332217 
L 360.844295 66.103301 
L 361.416819 66.304334 
L 361.701594 66.647609 
L 362.273871 67.737912 
L 362.847022 68.520363 
L 363.132099 68.502652 
L 363.420646 68.135811 
L 363.987608 68.685377 
L 364.272605 69.672335 
L 364.561064 69.882448 
L 365.13283 70.622381 
L 365.990541 70.963026 
L 366.275365 71.62467 
L 366.561488 72.58186 
L 367.129425 73.145517 
L 367.4193 73.224551 
L 367.702356 72.641644 
L 368.272759 73.466267 
L 368.562215 74.343927 
L 369.415404 75.364324 
L 369.988167 77.755141 
L 370.561942 78.306445 
L 370.845533 78.449133 
L 371.129556 77.842808 
L 371.415552 77.626097 
L 371.700879 77.957514 
L 371.988681 77.31264 
L 374.273447 79.452612 
L 374.558426 78.845196 
L 375.417273 79.716704 
L 375.986624 80.284627 
L 376.272285 80.513444 
L 376.561118 78.859683 
L 376.844801 78.920955 
L 377.417019 79.342718 
L 377.700578 80.99648 
L 377.986296 81.825171 
L 378.557635 82.361392 
L 378.843319 82.373448 
L 379.131833 81.072289 
L 379.414885 81.621508 
L 379.990143 81.989242 
L 380.274301 81.773623 
L 380.559629 81.719197 
L 380.845856 81.795552 
L 381.12974 82.023376 
L 381.415068 82.594575 
L 381.700478 83.415824 
L 382.275473 84.192074 
L 382.559904 84.410125 
L 383.130417 85.50137 
L 383.702406 85.936678 
L 383.98657 86.134734 
L 384.271724 86.605416 
L 384.843351 86.925074 
L 385.414962 87.416346 
L 385.702587 87.410839 
L 386.271823 87.764731 
L 386.557742 87.856416 
L 387.129952 88.282594 
L 387.699705 88.379886 
L 387.985937 89.005758 
L 388.561418 89.255512 
L 390.844448 89.108607 
L 391.415256 89.032599 
L 391.70028 88.657919 
L 392.560382 88.547778 
L 392.844257 89.102405 
L 393.129604 89.176875 
L 393.700332 88.993554 
L 394.275239 91.317045 
L 394.560391 91.438846 
L 394.842671 91.265646 
L 395.128808 91.248926 
L 395.418808 91.776068 
L 395.988416 91.359812 
L 396.271223 91.51912 
L 396.557121 91.211021 
L 396.843034 91.238061 
L 397.128838 90.953528 
L 397.4163 91.130995 
L 397.700535 90.140614 
L 397.985246 88.71552 
L 399.128525 87.95852 
L 399.417631 87.991166 
L 399.985911 87.561217 
L 400.274151 87.382857 
L 400.842924 87.203405 
L 401.132071 87.745977 
L 401.413923 86.952263 
L 402.845506 94.950626 
L 403.414382 91.94773 
L 404.843077 100.216635 
L 405.129846 99.359367 
L 405.414059 97.846507 
L 405.702242 99.297499 
L 405.985408 98.84562 
L 406.842564 103.460802 
L 407.699815 106.733049 
L 408.275646 107.033855 
L 408.558526 107.318784 
L 408.843225 107.443958 
L 409.130537 106.570863 
L 409.990697 106.602119 
L 411.128233 106.552605 
L 412.273989 105.435263 
L 412.556959 105.500902 
L 412.844194 105.064255 
L 413.128296 105.41393 
L 413.413352 105.564903 
L 413.986962 105.254125 
L 414.270567 104.945679 
L 414.560297 104.800014 
L 414.845231 105.055573 
L 415.698997 103.692198 
L 415.987842 103.682672 
L 416.559504 103.010213 
L 417.129059 102.28958 
L 417.417542 102.479946 
L 417.700013 102.335273 
L 419.41343 100.043832 
L 420.558063 98.381587 
L 420.84406 98.159915 
L 421.130187 98.351174 
L 421.413296 97.813167 
L 421.985434 97.35474 
L 422.270141 97.508144 
L 422.842653 96.408564 
L 423.12877 96.34744 
L 423.701813 95.008476 
L 425.130451 93.179877 
L 425.415677 93.147678 
L 425.986775 92.609076 
L 426.270023 92.338286 
L 426.557495 92.8946 
L 427.701286 91.943165 
L 427.984757 92.136906 
L 428.270002 91.753643 
L 428.556094 91.576225 
L 428.843877 92.015254 
L 429.127729 91.345474 
L 429.700995 90.76346 
L 430.275647 90.0205 
L 430.558699 90.250557 
L 430.842382 89.480657 
L 431.127659 89.271487 
L 431.698557 88.025796 
L 431.987234 87.720773 
L 432.272199 86.918426 
L 434.269783 85.141723 
L 437.127285 84.168955 
L 437.698209 84.374751 
L 437.9882 84.335457 
L 438.840899 84.824942 
L 439.126755 84.266941 
L 439.98416 83.790504 
L 440.269292 84.869247 
L 440.842825 84.70969 
L 441.128597 85.433598 
L 441.411865 85.50916 
L 441.70003 85.425115 
L 441.98403 86.165842 
L 442.271761 86.370894 
L 442.554594 86.28923 
L 442.840319 85.735396 
L 443.412753 85.572565 
L 443.69761 85.873619 
L 443.982785 85.883244 
L 444.554365 85.540714 
L 445.12845 85.707563 
L 445.411968 85.585167 
L 445.983485 85.86707 
L 446.268384 85.704388 
L 446.554773 84.943915 
L 446.841723 84.554252 
L 447.41427 84.390726 
L 447.982613 85.015953 
L 448.270725 84.798101 
L 449.127263 84.72646 
L 449.410769 85.959004 
L 449.697092 86.178394 
L 449.984401 86.132799 
L 450.269943 87.0116 
L 450.553792 87.186884 
L 451.410891 86.818356 
L 451.983781 86.877297 
L 452.553808 86.425419 
L 452.840438 86.332542 
L 453.124601 86.002118 
L 453.697565 85.78625 
L 453.981845 86.007873 
L 454.839111 85.862208 
L 455.410903 86.643618 
L 455.696983 86.712184 
L 455.982635 87.280107 
L 456.267906 88.149234 
L 456.552989 88.156477 
L 457.124552 88.597986 
L 457.695842 88.524311 
L 457.982219 88.828738 
L 458.267989 89.316834 
L 458.839303 89.127758 
L 459.410205 88.777537 
L 459.695801 89.456148 
L 459.981178 89.631482 
L 460.838348 89.109798 
L 461.124616 89.129693 
L 461.695859 89.428762 
L 462.267458 89.322242 
L 463.124918 88.848534 
L 463.410644 88.750696 
L 463.695155 88.245732 
L 463.981146 88.010763 
L 464.267064 87.930737 
L 464.552417 87.616635 
L 465.123914 84.309063 
L 465.409896 83.789462 
L 465.981186 83.64469 
L 466.267023 84.684685 
L 466.552449 84.983457 
L 467.409476 85.030937 
L 467.980809 84.883535 
L 469.409167 84.869941 
L 470.266641 89.332214 
L 470.266641 89.332214 
" clip-path="url(#pc9f7a342cf)" style="fill: none; stroke: #ff0000; stroke-opacity: 0.8; stroke-linecap: square"/>
   </g>
   <g id="line2d_45">
    <path d="M 304.278769 85.78625 
L 305.422062 85.78625 
L 305.703532 80.484718 
L 305.993454 85.78625 
L 307.703676 85.78625 
L 307.989699 87.11167 
L 308.275011 87.11167 
L 308.56405 86.448886 
L 308.849503 83.135707 
L 309.13233 87.11167 
L 309.418703 88.436942 
L 309.703579 83.13541 
L 309.989296 85.78625 
L 310.275848 87.111819 
L 310.5605 86.031836 
L 310.847377 85.78625 
L 311.136236 85.78625 
L 311.703997 87.111819 
L 311.988884 85.78625 
L 312.274396 87.111521 
L 312.562414 87.111521 
L 312.851304 85.78625 
L 313.133203 87.111521 
L 313.988585 87.111521 
L 314.274594 83.135558 
L 314.56114 83.135261 
L 314.848642 84.46083 
L 315.132873 84.461127 
L 315.417652 87.111819 
L 315.706184 84.460979 
L 315.989653 84.461078 
L 316.276461 83.13541 
L 316.560138 87.111571 
L 316.847281 87.111521 
L 317.13239 84.461028 
L 317.421015 83.135509 
L 317.703611 85.78625 
L 317.992006 85.78625 
L 318.27695 84.46083 
L 318.560413 84.460929 
L 318.849203 89.762312 
L 319.131464 85.78625 
L 319.707584 85.78625 
L 319.994907 84.460929 
L 320.275445 86.991209 
L 320.560886 84.581291 
L 320.848317 84.460929 
L 321.133809 80.484668 
L 321.419006 83.135459 
L 321.702853 84.461028 
L 321.989074 84.460929 
L 322.277478 81.810138 
L 322.562483 81.810089 
L 322.846598 85.78625 
L 323.13494 85.78625 
L 323.420035 83.135558 
L 323.703171 84.461127 
L 323.99165 81.810138 
L 324.277166 80.484916 
L 324.560418 84.461078 
L 324.845704 79.159496 
L 325.132005 84.460979 
L 325.417141 83.381343 
L 325.706491 84.460681 
L 325.987953 83.13541 
L 326.564333 77.834374 
L 326.845803 83.13541 
L 327.132554 85.78625 
L 327.706776 84.460979 
L 328.274729 87.11167 
L 328.56255 84.46083 
L 328.846787 84.46083 
L 329.135465 85.78625 
L 329.417971 88.436942 
L 329.70239 88.436942 
L 329.991891 85.78625 
L 330.276109 91.087782 
L 330.56334 88.436842 
L 330.848791 89.762263 
L 331.133627 88.436942 
L 331.4176 89.762362 
L 331.988694 89.762362 
L 332.274688 92.413053 
L 332.559845 88.436991 
L 332.845316 89.762312 
L 333.132277 88.436942 
L 333.416876 89.762362 
L 333.707724 89.762362 
L 333.989318 88.436991 
L 334.274518 91.087732 
L 334.559863 88.436942 
L 334.845295 91.087732 
L 335.131091 85.78625 
L 335.421097 89.762263 
L 335.703769 88.436991 
L 335.992358 86.448935 
L 336.273929 89.762362 
L 336.55988 87.111571 
L 336.845623 87.774355 
L 337.130927 85.78625 
L 337.416545 87.11167 
L 337.705544 89.762511 
L 337.99192 87.111521 
L 338.274735 85.78625 
L 338.563218 87.259121 
L 338.845271 87.11167 
L 339.131171 89.762014 
L 339.420092 88.436942 
L 339.702825 88.436942 
L 340.274076 81.810138 
L 340.565762 85.78625 
L 340.846997 85.78625 
L 341.135063 88.43709 
L 341.419456 89.762659 
L 341.702307 85.78625 
L 341.991581 87.111521 
L 342.273965 82.889972 
L 342.559381 83.13541 
L 342.845948 84.46083 
L 343.133182 83.13541 
L 343.41746 83.13541 
L 343.987565 88.436942 
L 344.273533 87.111571 
L 344.567217 84.461078 
L 344.847872 87.11167 
L 345.130725 85.78625 
L 345.418506 86.448886 
L 345.708798 84.460979 
L 346.562028 88.437041 
L 346.845133 91.087633 
L 347.133414 87.111571 
L 347.416833 88.436991 
L 347.703608 85.78625 
L 347.991834 84.460929 
L 348.273139 88.436892 
L 348.844932 83.135558 
L 349.418345 88.436942 
L 349.703653 84.460979 
L 349.98979 87.111769 
L 350.84481 79.159496 
L 351.13059 81.810287 
L 351.419962 79.159397 
L 351.701808 77.834275 
L 351.988919 79.822082 
L 352.275853 80.484718 
L 352.558733 73.857964 
L 352.845218 76.508954 
L 353.418883 73.857964 
L 353.70221 71.207422 
L 354.273758 76.508457 
L 354.8462 67.231012 
L 355.130063 67.231359 
L 355.416493 69.881853 
L 355.706278 67.231012 
L 356.561458 62.893666 
L 356.848529 63.255248 
L 357.134715 68.556929 
L 357.416312 64.580519 
L 357.701583 65.905939 
L 358.273016 65.906088 
L 358.561786 67.23126 
L 358.845271 64.580668 
L 359.130689 65.905939 
L 359.415786 65.905939 
L 359.70212 67.231211 
L 359.990474 69.882001 
L 360.275584 64.580519 
L 360.560293 67.893946 
L 360.844295 68.55668 
L 361.13349 67.23126 
L 361.416819 67.893995 
L 361.701594 63.255148 
L 361.990171 68.556631 
L 362.273871 67.23126 
L 362.559804 64.580519 
L 362.847022 68.556581 
L 363.132099 64.580569 
L 363.420646 65.90589 
L 363.704893 68.556581 
L 363.987608 67.713204 
L 364.272605 68.55668 
L 364.561064 68.556532 
L 364.843797 67.23126 
L 365.13283 68.556581 
L 365.417271 68.55668 
L 365.701431 70.123023 
L 365.990541 68.556581 
L 366.275365 69.882001 
L 366.561488 72.532693 
L 366.847634 68.556581 
L 367.129425 71.207273 
L 367.4193 69.881704 
L 367.986832 72.532643 
L 368.272759 72.532544 
L 368.562215 68.556581 
L 368.846456 73.857964 
L 369.129722 73.857964 
L 369.415404 75.183236 
L 369.701104 72.532693 
L 369.988167 75.183385 
L 370.274446 73.857964 
L 370.561942 71.207273 
L 370.845533 75.183236 
L 371.129556 75.428673 
L 371.415552 79.159298 
L 371.700879 80.484916 
L 371.988681 75.183385 
L 372.27607 80.484916 
L 372.558222 80.484916 
L 372.844029 81.810237 
L 373.13165 80.484817 
L 373.415159 76.508954 
L 373.703896 79.159596 
L 373.988609 76.508755 
L 374.273447 77.834076 
L 374.558426 78.496761 
L 374.84443 76.508854 
L 375.129626 77.834126 
L 375.986624 77.834076 
L 376.272285 80.484668 
L 376.561118 80.484817 
L 376.844801 81.810138 
L 377.132273 80.484817 
L 377.700578 80.484768 
L 377.986296 81.810237 
L 378.275454 79.159546 
L 378.557635 84.460731 
L 378.843319 81.810188 
L 379.131833 85.78625 
L 379.414885 81.810237 
L 379.70373 84.460879 
L 379.990143 75.183236 
L 380.274301 84.460929 
L 380.559629 83.135558 
L 380.845856 87.11167 
L 381.12974 84.460731 
L 381.415068 78.91401 
L 381.700478 83.13541 
L 381.986227 84.46083 
L 382.275473 83.135558 
L 382.559904 84.46083 
L 382.843389 87.11167 
L 383.130417 84.460929 
L 383.418253 84.46083 
L 383.702406 85.78625 
L 384.271724 83.135261 
L 384.558407 84.46083 
L 384.843351 84.460979 
L 385.129168 87.11167 
L 385.414962 84.46083 
L 385.988087 87.111571 
L 386.271823 87.111819 
L 386.557742 88.436942 
L 386.845547 88.436991 
L 387.129952 85.78625 
L 387.417552 87.111769 
L 387.699705 91.087584 
L 387.985937 88.436793 
L 388.272524 88.436793 
L 388.561418 84.461028 
L 388.843854 89.762362 
L 389.419987 87.11167 
L 389.702375 89.099676 
L 389.987395 87.11167 
L 390.271897 88.436842 
L 390.557383 85.78625 
L 390.844448 91.087683 
L 391.415256 88.436991 
L 391.70028 88.436942 
L 391.988459 87.111571 
L 392.271521 91.087584 
L 392.560382 88.436991 
L 392.844257 89.762312 
L 393.129604 88.436942 
L 393.418157 91.087683 
L 393.986694 91.087881 
L 394.275239 88.43709 
L 394.560391 92.413103 
L 394.842671 88.436942 
L 395.128808 93.738424 
L 395.418808 91.087435 
L 395.701196 91.087584 
L 395.988416 89.516428 
L 396.271223 89.762511 
L 396.557121 89.762362 
L 396.843034 93.738424 
L 397.128838 89.762511 
L 397.4163 91.087435 
L 397.700535 87.111521 
L 397.985246 91.087584 
L 398.270878 88.43709 
L 398.557237 91.087584 
L 398.843 87.11167 
L 399.128525 87.774207 
L 399.417631 87.111521 
L 399.700849 85.78625 
L 400.274151 88.436942 
L 400.560655 89.762362 
L 400.842924 89.762213 
L 401.132071 86.448935 
L 401.413923 89.762411 
L 401.985571 89.099577 
L 402.273004 85.78625 
L 402.558304 88.43714 
L 402.845506 89.762263 
L 403.12821 92.412904 
L 403.414382 93.738325 
L 403.702046 93.738474 
L 403.985253 92.413004 
L 404.561233 92.412904 
L 404.843077 91.087683 
L 405.129846 96.389215 
L 405.414059 96.389115 
L 405.702242 99.039807 
L 405.985408 97.714486 
L 406.273591 92.413004 
L 406.556355 100.365128 
L 406.842564 97.714536 
L 407.128703 100.365178 
L 407.417242 104.34124 
L 407.699815 101.690548 
L 407.988509 103.01582 
L 408.275646 105.666511 
L 408.843225 106.991981 
L 409.130537 105.66666 
L 409.414574 105.666561 
L 409.699845 104.341289 
L 409.990697 105.666561 
L 410.271145 104.341289 
L 410.557424 105.666412 
L 410.84228 104.930497 
L 411.128233 105.66671 
L 411.418047 103.016216 
L 411.699464 101.690647 
L 411.98635 106.991683 
L 412.273989 105.66671 
L 412.556959 105.66671 
L 412.844194 104.341141 
L 413.128296 105.66671 
L 413.413352 104.341488 
L 413.699046 101.690647 
L 413.986962 105.666412 
L 414.270567 104.341289 
L 414.845231 104.341141 
L 415.129542 105.666412 
L 415.413519 108.31755 
L 415.698997 103.016068 
L 415.987842 104.341289 
L 416.272122 103.015919 
L 416.559504 106.991981 
L 416.841785 103.01572 
L 417.129059 103.678455 
L 417.417542 105.666561 
L 417.700013 101.690548 
L 417.987066 104.34124 
L 418.841629 100.365178 
L 419.127942 100.365178 
L 419.41343 101.690499 
L 419.699073 101.985103 
L 419.985179 101.690499 
L 420.271411 99.039807 
L 420.558063 101.690499 
L 420.84406 99.039807 
L 421.130187 97.714436 
L 421.413296 99.039807 
L 421.702076 97.714337 
L 421.985434 97.714387 
L 422.270141 96.389066 
L 422.556722 100.365227 
L 422.842653 96.389115 
L 423.12877 97.714436 
L 423.41326 92.413004 
L 423.701813 95.063844 
L 423.98803 93.738424 
L 424.27156 97.714536 
L 424.556476 96.389115 
L 424.841612 97.714536 
L 425.130451 95.063844 
L 425.415677 93.738275 
L 425.986775 93.738622 
L 426.557495 91.087584 
L 426.844509 96.389264 
L 427.129839 91.087584 
L 427.413204 93.738126 
L 427.701286 88.436793 
L 428.270002 93.738424 
L 428.556094 91.087782 
L 428.843877 94.220318 
L 429.127729 88.43709 
L 429.412837 88.43709 
L 429.700995 92.413202 
L 429.985304 92.412855 
L 430.275647 91.750318 
L 430.558699 93.738374 
L 430.842382 92.412954 
L 431.127659 92.412954 
L 431.412785 91.087782 
L 431.698557 92.413053 
L 431.987234 91.087683 
L 432.272199 89.099627 
L 432.555342 88.437041 
L 432.842937 88.436892 
L 433.129397 85.123614 
L 433.412813 85.78625 
L 433.701503 87.11167 
L 433.984971 87.111571 
L 434.269783 84.460929 
L 434.555297 84.46083 
L 434.842699 87.111571 
L 435.127512 83.135558 
L 435.701659 85.78625 
L 435.983818 85.78625 
L 436.272013 87.111571 
L 436.55673 85.78625 
L 436.841021 83.798145 
L 437.127285 83.135757 
L 437.413016 84.460979 
L 437.698209 84.460979 
L 437.9882 85.78625 
L 438.272766 84.461127 
L 438.555215 85.78625 
L 439.126755 84.461127 
L 439.412291 81.810138 
L 439.698175 85.78625 
L 439.98416 85.78625 
L 440.269292 84.461127 
L 440.554712 84.461127 
L 440.842825 81.810486 
L 441.128597 84.460681 
L 441.411865 83.135707 
L 441.70003 83.798343 
L 441.98403 88.43709 
L 442.554594 85.78625 
L 442.840319 80.484916 
L 443.412753 85.78625 
L 443.69761 87.11167 
L 443.982785 83.13541 
L 444.270152 87.11167 
L 444.554365 85.78625 
L 444.842899 81.810089 
L 445.12845 85.78625 
L 445.699107 83.135558 
L 445.983485 84.46083 
L 446.268384 84.460879 
L 446.841723 86.991209 
L 447.125601 83.135509 
L 447.41427 88.436991 
L 447.697199 87.111571 
L 447.982613 84.460929 
L 448.270725 87.111571 
L 448.555648 88.436942 
L 448.839787 83.135509 
L 449.697092 87.111571 
L 449.984401 87.111769 
L 450.269943 80.484768 
L 450.841481 88.436842 
L 451.127044 81.810237 
L 451.410891 85.78625 
L 451.699149 83.135509 
L 452.268868 88.436793 
L 452.553808 84.46083 
L 452.840438 85.78625 
L 453.124601 85.78625 
L 453.411983 87.111521 
L 453.697565 89.762213 
L 453.981845 85.78625 
L 454.268687 87.11167 
L 454.554839 89.762511 
L 454.839111 85.78625 
L 455.126033 85.78625 
L 455.410903 84.460979 
L 455.696983 84.461326 
L 455.982635 87.258774 
L 456.267906 85.78625 
L 456.552989 85.78625 
L 456.839686 87.111819 
L 457.124552 85.78625 
L 457.41088 88.436942 
L 457.695842 87.111521 
L 457.982219 89.762362 
L 458.267989 84.460979 
L 458.839303 89.762213 
L 459.12421 88.436793 
L 459.410205 89.762213 
L 459.695801 88.436942 
L 459.981178 85.78625 
L 460.267618 91.087782 
L 460.552732 91.087584 
L 460.838348 87.111571 
L 461.124616 85.78625 
L 461.409634 86.448737 
L 461.695859 83.135558 
L 461.981941 85.78625 
L 462.267458 91.087584 
L 462.552994 88.436693 
L 462.838754 91.087534 
L 463.124918 87.111819 
L 463.410644 87.111571 
L 463.981146 89.762114 
L 464.267064 88.436892 
L 464.552417 88.43719 
L 464.838166 89.762362 
L 465.123914 85.78625 
L 465.409896 87.111621 
L 465.695469 81.810237 
L 466.267023 87.111621 
L 466.552449 87.111521 
L 466.837814 84.460929 
L 467.124845 85.78625 
L 467.409476 83.135558 
L 467.694996 87.111571 
L 467.980809 87.111571 
L 468.266605 88.436942 
L 468.552099 85.78625 
L 468.838218 85.78625 
L 469.123896 84.460879 
L 469.409167 84.460929 
L 469.6952 85.78625 
L 469.980383 88.436942 
L 470.266641 80.484916 
L 470.266641 80.484916 
" clip-path="url(#pc9f7a342cf)" style="fill: none; stroke: #0000ff; stroke-linecap: square"/>
   </g>
   <g id="line2d_46">
    <path d="M 295.979375 36.172917 
L 478.566035 36.172917 
" clip-path="url(#pc9f7a342cf)" style="fill: none; stroke-dasharray: 7.4,3.2; stroke-dashoffset: 0; stroke: #000000; stroke-opacity: 0.7; stroke-width: 2"/>
   </g>
   <g id="line2d_47">
    <path d="M 295.979375 135.399583 
L 478.566035 135.399583 
" clip-path="url(#pc9f7a342cf)" style="fill: none; stroke-dasharray: 7.4,3.2; stroke-dashoffset: 0; stroke: #000000; stroke-opacity: 0.7; stroke-width: 2"/>
   </g>
   <g id="patch_8">
    <path d="M 295.979375 160.20625 
L 295.979375 11.36625 
" style="fill: none; stroke: #000000; stroke-width: 0.8; stroke-linejoin: miter; stroke-linecap: square"/>
   </g>
   <g id="patch_9">
    <path d="M 478.566035 160.20625 
L 478.566035 11.36625 
" style="fill: none; stroke: #000000; stroke-width: 0.8; stroke-linejoin: miter; stroke-linecap: square"/>
   </g>
   <g id="patch_10">
    <path d="M 295.979375 160.20625 
L 478.566035 160.20625 
" style="fill: none; stroke: #000000; stroke-width: 0.8; stroke-linejoin: miter; stroke-linecap: square"/>
   </g>
   <g id="patch_11">
    <path d="M 295.979375 11.36625 
L 478.566035 11.36625 
" style="fill: none; stroke: #000000; stroke-width: 0.8; stroke-linejoin: miter; stroke-linecap: square"/>
   </g>
  </g>
 </g>
 <defs>
  <clipPath id="pbb030cc017">
   <rect x="50.099375" y="11.36625" width="182.58666" height="148.84"/>
  </clipPath>
  <clipPath id="pc9f7a342cf">
   <rect x="295.979375" y="11.36625" width="182.58666" height="148.84"/>
  </clipPath>
 </defs>
</svg>
