<?xml version="1.0" encoding="utf-8" standalone="no"?>
<!DOCTYPE svg PUBLIC "-//W3C//DTD SVG 1.1//EN"
  "http://www.w3.org/Graphics/SVG/1.1/DTD/svg11.dtd">
<svg xmlns:xlink="http://www.w3.org/1999/xlink" width="258.605027pt" height="95.859375pt" viewBox="0 0 258.605027 95.859375" xmlns="http://www.w3.org/2000/svg" version="1.1">
 <metadata>
  <rdf:RDF xmlns:dc="http://purl.org/dc/elements/1.1/" xmlns:cc="http://creativecommons.org/ns#" xmlns:rdf="http://www.w3.org/1999/02/22-rdf-syntax-ns#">
   <cc:Work>
    <dc:type rdf:resource="http://purl.org/dc/dcmitype/StillImage"/>
    <dc:date>2026-01-18T23:30:35.643171</dc:date>
    <dc:format>image/svg+xml</dc:format>
    <dc:creator>
     <cc:Agent>
      <dc:title>Matplotlib v3.6.3, https://matplotlib.org/</dc:title>
     </cc:Agent>
    </dc:creator>
   </cc:Work>
  </rdf:RDF>
 </metadata>
 <defs>
  <style type="text/css">*{stroke-linejoin: round; stroke-linecap: butt}</style>
 </defs>
 <g id="figure_1">
  <g id="patch_1">
   <path d="M 0 95.859375 
L 258.605027 95.859375 
L 258.605027 0 
L 0 0 
z
" style="fill: #ffffff"/>
  </g>
  <g id="axes_1">
   <g id="patch_2">
    <path d="M 35.2 70.76 
L 122.347853 70.76 
L 122.347853 7.2 
L 35.2 7.2 
z
" style="fill: #ffffff"/>
   </g>
   <g id="matplotlib.axis_1">
    <g id="xtick_1">
     <g id="line2d_1">
      <path d="M 39.161266 70.76 
L 39.161266 7.2 
" clip-path="url(#p5889220b6e)" style="fill: none; stroke: #b0b0b0; stroke-opacity: 0.3; stroke-width: 0.8; stroke-linecap: square"/>
     </g>
     <g id="line2d_2">
      <defs>
       <path id="m665a3d161c" d="M 0 0 
L 0 3.5 
" style="stroke: #000000; stroke-width: 0.8"/>
      </defs>
      <g>
       <use xlink:href="#m665a3d161c" x="39.161266" y="70.76" style="stroke: #000000; stroke-width: 0.8"/>
      </g>
     </g>
     <g id="text_1">
      <!-- 0 -->
      <g transform="translate(36.161266 86.0925) scale(0.12 -0.12)">
       <defs>
        <path id="TimesNewRomanPSMT-30" d="M 231 2094 
Q 231 2819 450 3342 
Q 669 3866 1031 4122 
Q 1313 4325 1613 4325 
Q 2100 4325 2488 3828 
Q 2972 3213 2972 2159 
Q 2972 1422 2759 906 
Q 2547 391 2217 158 
Q 1888 -75 1581 -75 
Q 975 -75 572 641 
Q 231 1244 231 2094 
z
M 844 2016 
Q 844 1141 1059 588 
Q 1238 122 1591 122 
Q 1759 122 1940 273 
Q 2122 425 2216 781 
Q 2359 1319 2359 2297 
Q 2359 3022 2209 3506 
Q 2097 3866 1919 4016 
Q 1791 4119 1609 4119 
Q 1397 4119 1231 3928 
Q 1006 3669 925 3112 
Q 844 2556 844 2016 
z
" transform="scale(0.015625)"/>
       </defs>
       <use xlink:href="#TimesNewRomanPSMT-30"/>
      </g>
     </g>
    </g>
    <g id="xtick_2">
     <g id="line2d_3">
      <path d="M 120.980027 70.76 
L 120.980027 7.2 
" clip-path="url(#p5889220b6e)" style="fill: none; stroke: #b0b0b0; stroke-opacity: 0.3; stroke-width: 0.8; stroke-linecap: square"/>
     </g>
     <g id="line2d_4">
      <g>
       <use xlink:href="#m665a3d161c" x="120.980027" y="70.76" style="stroke: #000000; stroke-width: 0.8"/>
      </g>
     </g>
     <g id="text_2">
      <!-- 20 -->
      <g transform="translate(114.980027 86.0925) scale(0.12 -0.12)">
       <defs>
        <path id="TimesNewRomanPSMT-32" d="M 2934 816 
L 2638 0 
L 138 0 
L 138 116 
Q 1241 1122 1691 1759 
Q 2141 2397 2141 2925 
Q 2141 3328 1894 3587 
Q 1647 3847 1303 3847 
Q 991 3847 742 3664 
Q 494 3481 375 3128 
L 259 3128 
Q 338 3706 661 4015 
Q 984 4325 1469 4325 
Q 1984 4325 2329 3994 
Q 2675 3663 2675 3213 
Q 2675 2891 2525 2569 
Q 2294 2063 1775 1497 
Q 997 647 803 472 
L 1909 472 
Q 2247 472 2383 497 
Q 2519 522 2628 598 
Q 2738 675 2819 816 
L 2934 816 
z
" transform="scale(0.015625)"/>
       </defs>
       <use xlink:href="#TimesNewRomanPSMT-32"/>
       <use xlink:href="#TimesNewRomanPSMT-30" x="50"/>
      </g>
     </g>
    </g>
   </g>
   <g id="matplotlib.axis_2">
    <g id="ytick_1">
     <g id="line2d_5">
      <path d="M 35.2 67.870909 
L 122.347853 67.870909 
" clip-path="url(#p5889220b6e)" style="fill: none; stroke: #b0b0b0; stroke-opacity: 0.3; stroke-width: 0.8; stroke-linecap: square"/>
     </g>
     <g id="line2d_6">
      <defs>
       <path id="mbbb5d6e425" d="M 0 0 
L -3.5 0 
" style="stroke: #000000; stroke-width: 0.8"/>
      </defs>
      <g>
       <use xlink:href="#mbbb5d6e425" x="35.2" y="67.870909" style="stroke: #000000; stroke-width: 0.8"/>
      </g>
     </g>
     <g id="text_3">
      <!-- 0.00 -->
      <g transform="translate(7.2 72.037159) scale(0.12 -0.12)">
       <defs>
        <path id="TimesNewRomanPSMT-2e" d="M 800 606 
Q 947 606 1047 504 
Q 1147 403 1147 259 
Q 1147 116 1045 14 
Q 944 -88 800 -88 
Q 656 -88 554 14 
Q 453 116 453 259 
Q 453 406 554 506 
Q 656 606 800 606 
z
" transform="scale(0.015625)"/>
       </defs>
       <use xlink:href="#TimesNewRomanPSMT-30"/>
       <use xlink:href="#TimesNewRomanPSMT-2e" x="50"/>
       <use xlink:href="#TimesNewRomanPSMT-30" x="75"/>
       <use xlink:href="#TimesNewRomanPSMT-30" x="125"/>
      </g>
     </g>
    </g>
    <g id="ytick_2">
     <g id="line2d_7">
      <path d="M 35.2 41.60038 
L 122.347853 41.60038 
" clip-path="url(#p5889220b6e)" style="fill: none; stroke: #b0b0b0; stroke-opacity: 0.3; stroke-width: 0.8; stroke-linecap: square"/>
     </g>
     <g id="line2d_8">
      <g>
       <use xlink:href="#mbbb5d6e425" x="35.2" y="41.60038" style="stroke: #000000; stroke-width: 0.8"/>
      </g>
     </g>
     <g id="text_4">
      <!-- 0.25 -->
      <g transform="translate(7.2 45.76663) scale(0.12 -0.12)">
       <defs>
        <path id="TimesNewRomanPSMT-35" d="M 2778 4238 
L 2534 3706 
L 1259 3706 
L 981 3138 
Q 1809 3016 2294 2522 
Q 2709 2097 2709 1522 
Q 2709 1188 2573 903 
Q 2438 619 2231 419 
Q 2025 219 1772 97 
Q 1413 -75 1034 -75 
Q 653 -75 479 54 
Q 306 184 306 341 
Q 306 428 378 495 
Q 450 563 559 563 
Q 641 563 702 538 
Q 763 513 909 409 
Q 1144 247 1384 247 
Q 1750 247 2026 523 
Q 2303 800 2303 1197 
Q 2303 1581 2056 1914 
Q 1809 2247 1375 2428 
Q 1034 2569 447 2591 
L 1259 4238 
L 2778 4238 
z
" transform="scale(0.015625)"/>
       </defs>
       <use xlink:href="#TimesNewRomanPSMT-30"/>
       <use xlink:href="#TimesNewRomanPSMT-2e" x="50"/>
       <use xlink:href="#TimesNewRomanPSMT-32" x="75"/>
       <use xlink:href="#TimesNewRomanPSMT-35" x="125"/>
      </g>
     </g>
    </g>
    <g id="ytick_3">
     <g id="line2d_9">
      <path d="M 35.2 15.329851 
L 122.347853 15.329851 
" clip-path="url(#p5889220b6e)" style="fill: none; stroke: #b0b0b0; stroke-opacity: 0.3; stroke-width: 0.8; stroke-linecap: square"/>
     </g>
     <g id="line2d_10">
      <g>
       <use xlink:href="#mbbb5d6e425" x="35.2" y="15.329851" style="stroke: #000000; stroke-width: 0.8"/>
      </g>
     </g>
     <g id="text_5">
      <!-- 0.50 -->
      <g transform="translate(7.2 19.496101) scale(0.12 -0.12)">
       <use xlink:href="#TimesNewRomanPSMT-30"/>
       <use xlink:href="#TimesNewRomanPSMT-2e" x="50"/>
       <use xlink:href="#TimesNewRomanPSMT-35" x="75"/>
       <use xlink:href="#TimesNewRomanPSMT-30" x="125"/>
      </g>
     </g>
    </g>
   </g>
   <g id="line2d_11">
    <path d="M 39.161266 66.119505 
L 43.115015 15.329851 
L 48.432452 15.329851 
L 48.570142 17.081255 
L 48.706418 15.329851 
L 50.614438 15.329851 
L 50.751814 17.081255 
L 50.887479 15.329851 
L 58.250601 15.329851 
L 58.390775 17.081255 
L 58.52473 15.329851 
L 60.978946 15.329851 
L 61.250807 18.832553 
L 61.523446 15.329851 
L 61.661562 15.329851 
L 62.070075 20.583957 
L 62.479703 15.532555 
L 62.615638 15.329851 
L 62.750869 15.963707 
L 62.888478 15.329851 
L 63.023666 17.081255 
L 63.161392 16.493426 
L 63.296891 15.329851 
L 73.523472 15.329851 
L 73.661331 17.081255 
L 73.796732 15.329851 
L 85.523472 15.329851 
L 86.069679 22.335361 
L 86.478282 17.081255 
L 87.160192 24.731443 
L 87.705422 17.725934 
L 87.842971 19.477337 
L 87.977933 18.907792 
L 88.251112 15.40509 
L 88.523702 15.329851 
L 110.069133 15.329851 
L 110.887409 22.360685 
L 111.43255 27.956098 
L 112.932366 40.966525 
L 113.341169 43.496062 
L 113.750179 44.628321 
L 114.023137 45.625025 
L 114.432335 47.359406 
L 114.56861 47.886813 
L 114.977872 50.415509 
L 115.250045 51.189228 
L 115.386547 51.472425 
L 115.659212 52.38811 
L 115.931985 55.890917 
L 116.204786 53.617991 
L 116.477586 54.477563 
L 116.887021 55.778374 
L 117.977318 58.106574 
L 118.249958 61.609276 
L 118.386587 59.857872 
L 118.386587 59.857872 
" clip-path="url(#p5889220b6e)" style="fill: none; stroke: #ff0000; stroke-opacity: 0.8; stroke-width: 2; stroke-linecap: square"/>
   </g>
   <g id="line2d_12">
    <path d="M 39.161266 67.870909 
L 39.706955 67.870909 
L 39.8413 63.694 
L 39.979678 63.693895 
L 40.523247 53.947529 
L 40.659562 53.947529 
L 40.79596 45.593501 
L 40.932478 46.28967 
L 41.206613 44.5493 
L 41.342859 44.201268 
L 41.477851 42.112655 
L 41.750506 33.062458 
L 41.886877 33.062458 
L 42.023647 33.758627 
L 42.15951 35.718094 
L 42.296436 35.847134 
L 42.570303 28.421296 
L 42.705297 24.012261 
L 42.841272 23.315987 
L 42.977546 26.796937 
L 43.115015 18.442804 
L 43.252901 17.74674 
L 43.523573 10.089091 
L 43.932232 14.961959 
L 44.068999 13.569621 
L 44.206223 15.658128 
L 44.341885 15.658233 
L 44.477809 14.266 
L 44.615524 15.658338 
L 44.750822 15.658338 
L 45.023112 17.050571 
L 45.296246 14.265895 
L 45.434005 14.962064 
L 45.568887 16.354402 
L 45.84254 14.265895 
L 45.977835 15.658233 
L 46.115674 15.658233 
L 46.250396 14.962064 
L 46.386877 13.569726 
L 46.662514 15.658233 
L 46.796413 15.341726 
L 46.932653 14.076117 
L 47.069843 14.962064 
L 47.34223 14.962064 
L 47.477709 14.26579 
L 47.614321 15.658128 
L 47.751975 14.266 
L 47.888007 14.265895 
L 48.023614 16.354297 
L 48.161238 14.962169 
L 48.297313 16.354402 
L 48.432452 15.658128 
L 48.570142 14.266 
L 48.706418 14.962064 
L 48.977779 18.442909 
L 49.114429 12.873557 
L 49.250523 13.440685 
L 49.388629 15.658233 
L 49.522969 14.962064 
L 49.660527 14.961959 
L 49.798073 16.354297 
L 49.932418 14.962064 
L 50.069283 14.962274 
L 50.343357 15.658023 
L 50.477817 14.961959 
L 50.614438 17.050571 
L 50.751814 14.265895 
L 50.887479 15.658128 
L 51.025264 14.962169 
L 51.160103 18.442909 
L 51.295855 16.354402 
L 51.434032 17.74674 
L 51.706783 14.962064 
L 52.114518 17.050571 
L 52.387098 14.265895 
L 52.523602 15.658233 
L 52.659706 13.569726 
L 53.068764 15.658233 
L 53.207584 17.050571 
L 53.341988 14.962064 
L 53.478112 16.354402 
L 53.614306 14.962064 
L 53.750542 16.354402 
L 53.886951 16.354402 
L 54.02537 17.050571 
L 54.160288 14.962064 
L 54.298031 14.613927 
L 54.432423 15.658233 
L 54.568906 15.658233 
L 54.70529 15.310201 
L 54.841465 16.354402 
L 54.977789 15.658128 
L 55.115727 17.050571 
L 55.252413 15.658338 
L 55.387399 17.746845 
L 55.659714 14.265895 
L 55.796173 15.658338 
L 55.934074 14.961959 
L 56.069021 14.961959 
L 56.205259 14.26579 
L 56.341677 14.266 
L 56.480897 14.962064 
L 56.752622 14.962064 
L 56.888362 18.442804 
L 57.161435 14.26579 
L 57.296215 13.44079 
L 57.432443 15.658233 
L 57.56922 14.265895 
L 57.706316 16.354297 
L 57.842001 16.354297 
L 57.979187 17.746845 
L 58.250601 15.658338 
L 58.52473 15.658233 
L 58.659735 16.354402 
L 58.935647 14.266 
L 59.206404 18.442909 
L 59.34289 14.962064 
L 59.478015 14.962064 
L 59.61561 14.265895 
L 59.750885 14.962064 
L 59.887762 14.962064 
L 60.159596 16.354402 
L 60.296405 14.962064 
L 60.43251 14.962064 
L 60.706198 16.354402 
L 60.842374 15.658233 
L 60.978946 15.658128 
L 61.114369 14.26579 
L 61.250807 15.658233 
L 61.387044 15.658233 
L 61.661562 18.442909 
L 61.796086 14.962064 
L 62.070075 16.354612 
L 62.205092 19.835247 
L 62.34183 19.835142 
L 62.615638 18.443014 
L 62.750869 15.658233 
L 62.888478 21.22748 
L 63.023666 18.443014 
L 63.161392 18.442804 
L 63.296891 16.354297 
L 63.432377 17.74674 
L 63.707402 13.569831 
L 63.843107 15.658233 
L 63.978027 14.962274 
L 64.252594 15.658233 
L 64.38919 15.658233 
L 64.659753 14.265895 
L 64.796265 17.050466 
L 64.932496 14.266 
L 65.070324 15.658233 
L 65.205631 14.962169 
L 65.341859 15.658128 
L 65.614601 13.569726 
L 65.752232 16.354402 
L 65.888313 14.961959 
L 66.024204 16.00637 
L 66.297788 13.569726 
L 66.43302 16.006265 
L 66.568942 15.658233 
L 66.706679 15.658233 
L 66.842087 16.354402 
L 66.978562 16.354402 
L 67.11565 14.265895 
L 67.389438 15.658233 
L 67.525108 14.265895 
L 67.660047 15.341726 
L 67.796075 14.265895 
L 67.933755 15.658233 
L 68.068702 13.569726 
L 68.206657 14.962064 
L 68.342419 14.265895 
L 68.616039 15.658233 
L 68.751984 16.354402 
L 69.025125 14.26579 
L 69.159623 16.354402 
L 69.297979 16.354192 
L 69.43308 15.658233 
L 69.56886 15.658233 
L 69.705331 13.569621 
L 69.843488 14.26579 
L 70.114357 14.266 
L 70.250711 13.569831 
L 70.387075 14.962064 
L 70.524089 14.962169 
L 70.660728 14.266 
L 70.797949 15.658128 
L 70.933306 13.569831 
L 71.068869 13.44079 
L 71.205374 17.050571 
L 71.341559 16.354297 
L 71.478926 16.354402 
L 71.616095 14.962064 
L 71.750765 14.962064 
L 71.88718 15.658233 
L 72.02446 14.962064 
L 72.159778 15.658128 
L 72.297591 15.658128 
L 72.433483 17.050571 
L 72.569435 14.962064 
L 72.705454 15.310201 
L 72.978086 13.569726 
L 73.115379 14.962064 
L 73.523472 14.962169 
L 73.661331 16.354402 
L 73.933941 13.569726 
L 74.069849 13.569726 
L 74.20519 16.354402 
L 74.479576 12.873557 
L 74.750616 17.050571 
L 74.888322 16.354402 
L 75.023422 14.265895 
L 75.161286 14.265895 
L 75.29799 16.354297 
L 75.433617 12.873557 
L 75.569803 13.569726 
L 75.706419 15.658233 
L 75.841915 15.658128 
L 75.978101 14.136959 
L 76.114326 16.354297 
L 76.250713 14.265895 
L 76.524526 15.658128 
L 76.79683 15.658233 
L 76.934213 14.265895 
L 77.069838 14.709026 
L 77.341571 13.569726 
L 77.478404 17.050571 
L 77.614406 17.050571 
L 77.750825 14.265895 
L 78.024516 17.74674 
L 78.160784 15.658233 
L 78.29621 15.658233 
L 78.432678 13.569726 
L 78.570046 14.962064 
L 78.705791 14.962169 
L 78.843062 15.658128 
L 78.977732 14.962064 
L 79.114349 16.354507 
L 79.251136 16.354507 
L 79.389024 14.26579 
L 79.52383 15.658233 
L 79.798816 14.265895 
L 79.933598 16.006265 
L 80.069637 14.265895 
L 80.205429 14.962169 
L 80.34169 14.962064 
L 80.478705 16.354402 
L 80.751149 13.569726 
L 81.159841 17.74674 
L 81.297713 15.658233 
L 81.433206 15.658233 
L 81.5694 16.354402 
L 81.707125 14.962064 
L 81.841806 14.962064 
L 81.978486 16.354507 
L 82.116207 14.962064 
L 82.252309 17.050676 
L 82.38704 16.354402 
L 82.523612 17.74674 
L 82.662028 16.354402 
L 82.79681 16.354297 
L 82.933899 14.136749 
L 83.068882 17.050676 
L 83.20534 15.658233 
L 83.341805 16.354507 
L 83.478218 14.265895 
L 83.615422 17.746635 
L 83.751086 14.26579 
L 83.886978 14.962064 
L 84.023309 16.354297 
L 84.159987 16.354297 
L 84.43266 15.310201 
L 84.57065 17.050571 
L 84.841887 14.136854 
L 85.11621 15.658233 
L 85.250936 14.265895 
L 85.523472 17.050466 
L 85.6605 16.607545 
L 85.933507 14.962169 
L 86.20676 17.050571 
L 86.478282 23.316092 
L 86.750757 18.442909 
L 86.887346 21.227585 
L 87.025669 21.22769 
L 87.160192 20.531416 
L 87.297066 20.531416 
L 87.432719 23.316092 
L 87.570268 23.316092 
L 87.705422 25.404599 
L 87.842971 21.227585 
L 88.251112 21.227585 
L 88.661494 14.26579 
L 88.798543 15.658128 
L 89.069446 14.962064 
L 89.206579 14.26579 
L 89.478307 16.354402 
L 89.887626 14.26579 
L 90.023587 14.498021 
L 90.160071 17.050466 
L 90.298398 14.266 
L 90.432717 14.962274 
L 90.569647 16.354507 
L 90.706936 15.658233 
L 90.841996 17.050466 
L 90.979092 13.569726 
L 91.114693 15.658233 
L 91.250749 14.962064 
L 91.38711 13.569726 
L 91.52453 15.658338 
L 91.659894 15.658128 
L 91.798181 14.961959 
L 91.934179 16.354507 
L 92.069879 14.26579 
L 92.20542 15.658338 
L 92.341678 14.265895 
L 92.479542 16.354402 
L 92.887126 14.265895 
L 93.02424 14.614032 
L 93.161932 15.658233 
L 93.296755 14.962169 
L 93.433764 14.962064 
L 93.569072 15.658233 
L 93.705494 13.569726 
L 93.841643 14.265895 
L 93.978299 14.265895 
L 94.387455 16.354402 
L 94.524072 14.962064 
L 94.66089 16.354402 
L 94.797395 14.265895 
L 94.933962 15.658233 
L 95.069089 14.962064 
L 95.206922 15.658233 
L 95.342168 15.658233 
L 95.478057 16.354402 
L 95.614841 14.265895 
L 95.751315 14.961959 
L 95.887878 17.050571 
L 96.297999 13.569726 
L 96.433327 15.658233 
L 96.569316 14.961959 
L 96.70541 15.658233 
L 96.843272 15.658128 
L 96.979409 14.962169 
L 97.251991 14.961959 
L 97.387184 15.658233 
L 97.524394 14.962064 
L 97.661384 14.962064 
L 97.797571 13.569516 
L 97.93282 14.962064 
L 98.070321 14.962274 
L 98.20562 16.354507 
L 98.341766 16.354507 
L 98.478317 14.961959 
L 98.615674 16.60765 
L 98.751156 14.962064 
L 98.887237 14.962064 
L 99.024773 15.658338 
L 99.160473 15.658233 
L 99.299052 14.614032 
L 99.434152 17.74674 
L 99.569552 15.658128 
L 99.705714 15.658128 
L 99.841803 13.569726 
L 99.978201 15.658233 
L 100.251998 14.614032 
L 100.387141 14.962064 
L 100.524409 14.962064 
L 100.661135 14.614032 
L 100.796408 14.962064 
L 100.934199 15.658233 
L 101.069497 15.658233 
L 101.205436 14.265895 
L 101.341711 14.265895 
L 101.614827 16.354402 
L 101.888865 14.962064 
L 102.023538 14.962064 
L 102.296987 16.354402 
L 102.432678 14.614032 
L 102.56931 14.961959 
L 102.705688 14.26579 
L 102.84181 14.26579 
L 102.980222 16.354402 
L 103.250856 14.961959 
L 103.387211 16.00637 
L 103.523649 15.658128 
L 103.659934 15.658233 
L 103.796386 14.962064 
L 103.932885 13.569726 
L 104.068977 15.658128 
L 104.205207 15.658128 
L 104.342722 14.26579 
L 104.47912 15.658233 
L 104.614323 13.569726 
L 104.887415 16.354297 
L 105.024748 14.26579 
L 105.159743 14.962064 
L 105.569338 14.961959 
L 105.841412 16.354297 
L 106.114225 14.961959 
L 106.388233 16.354402 
L 106.660605 13.569726 
L 106.932319 14.962064 
L 107.069011 14.962064 
L 107.205972 14.076117 
L 107.614287 17.050571 
L 107.888028 14.962064 
L 108.024021 16.354402 
L 108.159639 16.354402 
L 108.29685 15.658233 
L 108.432166 13.569831 
L 108.568827 15.658233 
L 108.705958 15.658128 
L 108.842247 16.354402 
L 108.977727 14.265895 
L 109.251337 15.658233 
L 109.386816 14.961959 
L 109.660254 14.962169 
L 109.796325 16.354507 
L 110.069133 14.962064 
L 110.341929 17.050571 
L 110.478236 17.050676 
L 110.75083 14.265895 
L 110.887409 17.050571 
L 111.023091 17.050571 
L 111.160038 17.74674 
L 111.43255 25.404494 
L 111.56889 25.327364 
L 111.841118 30.277677 
L 112.113923 34.454901 
L 112.250586 34.454796 
L 112.386597 33.758627 
L 112.523284 33.758627 
L 112.65968 36.543198 
L 112.796 36.543198 
L 112.932366 35.150965 
L 113.204855 39.327979 
L 113.341169 44.201163 
L 113.477379 44.200952 
L 113.614095 45.593501 
L 113.750179 48.378072 
L 113.886502 44.897332 
L 114.023137 45.593501 
L 114.159175 44.549195 
L 114.295789 45.593501 
L 114.432335 45.593501 
L 114.56861 48.378072 
L 114.704896 46.985734 
L 114.977872 50.466789 
L 115.114249 53.25136 
L 115.386547 50.466579 
L 115.523014 51.162853 
L 115.659212 53.947634 
L 115.795599 51.859022 
L 115.931985 53.947529 
L 116.068483 53.25136 
L 116.341157 58.820607 
L 116.477586 54.643698 
L 116.750022 54.643698 
L 116.887021 53.947529 
L 117.159152 56.036036 
L 117.295569 56.036036 
L 117.431978 55.339867 
L 117.568243 56.73231 
L 117.704807 56.73231 
L 117.84116 57.428374 
L 117.977318 58.820712 
L 118.113841 58.124543 
L 118.386587 58.124543 
L 118.386587 58.124543 
" clip-path="url(#p5889220b6e)" style="fill: none; stroke: #0000ff; stroke-width: 2; stroke-linecap: square"/>
   </g>
   <g id="line2d_13">
    <path d="M 35.2 15.329851 
L 122.347853 15.329851 
" clip-path="url(#p5889220b6e)" style="fill: none; stroke-dasharray: 3.7,1.6; stroke-dashoffset: 0; stroke: #000000; stroke-opacity: 0.7"/>
   </g>
   <g id="patch_3">
    <path d="M 35.2 70.76 
L 35.2 7.2 
" style="fill: none; stroke: #000000; stroke-width: 0.8; stroke-linejoin: miter; stroke-linecap: square"/>
   </g>
   <g id="patch_4">
    <path d="M 122.347853 70.76 
L 122.347853 7.2 
" style="fill: none; stroke: #000000; stroke-width: 0.8; stroke-linejoin: miter; stroke-linecap: square"/>
   </g>
   <g id="patch_5">
    <path d="M 35.2 70.76 
L 122.347853 70.76 
" style="fill: none; stroke: #000000; stroke-width: 0.8; stroke-linejoin: miter; stroke-linecap: square"/>
   </g>
   <g id="patch_6">
    <path d="M 35.2 7.2 
L 122.347853 7.2 
" style="fill: none; stroke: #000000; stroke-width: 0.8; stroke-linejoin: miter; stroke-linecap: square"/>
   </g>
  </g>
  <g id="axes_2">
   <g id="patch_7">
    <path d="M 159.625 70.76 
L 246.772853 70.76 
L 246.772853 7.2 
L 159.625 7.2 
z
" style="fill: #ffffff"/>
   </g>
   <g id="matplotlib.axis_3">
    <g id="xtick_3">
     <g id="line2d_14">
      <path d="M 163.586266 70.76 
L 163.586266 7.2 
" clip-path="url(#p5b52a97d44)" style="fill: none; stroke: #b0b0b0; stroke-opacity: 0.3; stroke-width: 0.8; stroke-linecap: square"/>
     </g>
     <g id="line2d_15">
      <g>
       <use xlink:href="#m665a3d161c" x="163.586266" y="70.76" style="stroke: #000000; stroke-width: 0.8"/>
      </g>
     </g>
     <g id="text_6">
      <!-- 0 -->
      <g transform="translate(160.586266 86.0925) scale(0.12 -0.12)">
       <use xlink:href="#TimesNewRomanPSMT-30"/>
      </g>
     </g>
    </g>
    <g id="xtick_4">
     <g id="line2d_16">
      <path d="M 245.405027 70.76 
L 245.405027 7.2 
" clip-path="url(#p5b52a97d44)" style="fill: none; stroke: #b0b0b0; stroke-opacity: 0.3; stroke-width: 0.8; stroke-linecap: square"/>
     </g>
     <g id="line2d_17">
      <g>
       <use xlink:href="#m665a3d161c" x="245.405027" y="70.76" style="stroke: #000000; stroke-width: 0.8"/>
      </g>
     </g>
     <g id="text_7">
      <!-- 20 -->
      <g transform="translate(239.405027 86.0925) scale(0.12 -0.12)">
       <use xlink:href="#TimesNewRomanPSMT-32"/>
       <use xlink:href="#TimesNewRomanPSMT-30" x="50"/>
      </g>
     </g>
    </g>
   </g>
   <g id="matplotlib.axis_4">
    <g id="ytick_4">
     <g id="line2d_18">
      <path d="M 159.625 60.166667 
L 246.772853 60.166667 
" clip-path="url(#p5b52a97d44)" style="fill: none; stroke: #b0b0b0; stroke-opacity: 0.3; stroke-width: 0.8; stroke-linecap: square"/>
     </g>
     <g id="line2d_19">
      <g>
       <use xlink:href="#mbbb5d6e425" x="159.625" y="60.166667" style="stroke: #000000; stroke-width: 0.8"/>
      </g>
     </g>
     <g id="text_8">
      <!-- −1 -->
      <g transform="translate(139.858125 64.332917) scale(0.12 -0.12)">
       <defs>
        <path id="TimesNewRomanPSMT-2212" d="M 3484 2000 
L 116 2000 
L 116 2256 
L 3484 2256 
L 3484 2000 
z
" transform="scale(0.015625)"/>
        <path id="TimesNewRomanPSMT-31" d="M 750 3822 
L 1781 4325 
L 1884 4325 
L 1884 747 
Q 1884 391 1914 303 
Q 1944 216 2037 169 
Q 2131 122 2419 116 
L 2419 0 
L 825 0 
L 825 116 
Q 1125 122 1212 167 
Q 1300 213 1334 289 
Q 1369 366 1369 747 
L 1369 3034 
Q 1369 3497 1338 3628 
Q 1316 3728 1258 3775 
Q 1200 3822 1119 3822 
Q 1003 3822 797 3725 
L 750 3822 
z
" transform="scale(0.015625)"/>
       </defs>
       <use xlink:href="#TimesNewRomanPSMT-2212"/>
       <use xlink:href="#TimesNewRomanPSMT-31" x="56.396484"/>
      </g>
     </g>
    </g>
    <g id="ytick_5">
     <g id="line2d_20">
      <path d="M 159.625 38.98 
L 246.772853 38.98 
" clip-path="url(#p5b52a97d44)" style="fill: none; stroke: #b0b0b0; stroke-opacity: 0.3; stroke-width: 0.8; stroke-linecap: square"/>
     </g>
     <g id="line2d_21">
      <g>
       <use xlink:href="#mbbb5d6e425" x="159.625" y="38.98" style="stroke: #000000; stroke-width: 0.8"/>
      </g>
     </g>
     <g id="text_9">
      <!-- 0 -->
      <g transform="translate(146.625 43.14625) scale(0.12 -0.12)">
       <use xlink:href="#TimesNewRomanPSMT-30"/>
      </g>
     </g>
    </g>
    <g id="ytick_6">
     <g id="line2d_22">
      <path d="M 159.625 17.793333 
L 246.772853 17.793333 
" clip-path="url(#p5b52a97d44)" style="fill: none; stroke: #b0b0b0; stroke-opacity: 0.3; stroke-width: 0.8; stroke-linecap: square"/>
     </g>
     <g id="line2d_23">
      <g>
       <use xlink:href="#mbbb5d6e425" x="159.625" y="17.793333" style="stroke: #000000; stroke-width: 0.8"/>
      </g>
     </g>
     <g id="text_10">
      <!-- 1 -->
      <g transform="translate(146.625 21.959583) scale(0.12 -0.12)">
       <use xlink:href="#TimesNewRomanPSMT-31"/>
      </g>
     </g>
    </g>
   </g>
   <g id="line2d_24">
    <path d="M 163.586266 38.98 
L 166.175506 38.895783 
L 166.859307 38.780697 
L 168.493999 38.738896 
L 169.448112 38.796248 
L 169.721246 38.816566 
L 169.993887 38.565292 
L 170.540674 38.555864 
L 170.811877 38.118169 
L 171.221413 38.157025 
L 171.494843 38.305692 
L 171.76723 38.356709 
L 172.039321 38.186856 
L 172.313007 38.262831 
L 172.586238 37.943061 
L 172.857452 38.014502 
L 173.131418 37.081632 
L 173.266613 37.042861 
L 173.675523 37.442526 
L 173.947969 38.322705 
L 175.039438 39.10087 
L 175.312479 40.4051 
L 175.585103 40.517834 
L 175.720855 40.752498 
L 175.859032 41.351614 
L 175.994689 41.239113 
L 176.268027 40.841715 
L 176.812098 40.719743 
L 177.22096 40.374125 
L 177.493764 40.427176 
L 177.632584 40.453406 
L 177.766988 40.304484 
L 177.903112 40.431329 
L 179.13029 39.752466 
L 179.402789 40.144822 
L 179.540727 40.127915 
L 179.812399 39.44223 
L 179.950091 39.362313 
L 180.221173 38.950826 
L 180.494021 38.829702 
L 180.766677 38.688832 
L 180.905897 38.671734 
L 181.177622 38.235522 
L 181.586435 38.134144 
L 181.721215 38.168085 
L 182.131316 38.938771 
L 182.675601 39.034662 
L 182.94973 39.97732 
L 183.222092 39.934841 
L 183.631404 39.940053 
L 183.903015 39.513205 
L 184.04061 39.414517 
L 184.312762 38.911673 
L 184.450331 38.871863 
L 184.721405 38.079524 
L 184.995351 38.118402 
L 185.131198 38.19997 
L 185.812044 35.147629 
L 186.086562 35.629816 
L 186.495075 33.511149 
L 186.630092 33.791343 
L 187.175869 31.326401 
L 187.313478 31.811894 
L 187.721891 29.758355 
L 188.268107 29.462547 
L 188.403027 29.649561 
L 188.540576 30.059269 
L 189.084753 29.986641 
L 189.357496 30.393108 
L 190.177232 30.493871 
L 190.449204 30.672433 
L 190.584757 30.574677 
L 190.993942 30.807116 
L 191.403562 31.418118 
L 191.54065 31.606849 
L 191.676716 31.599286 
L 191.814438 31.442631 
L 192.085047 31.677316 
L 192.358755 32.188508 
L 192.767419 32.5383 
L 193.041039 32.649954 
L 193.584623 33.581955 
L 193.722979 33.615705 
L 193.85808 33.366783 
L 194.130331 33.718927 
L 194.404155 34.232894 
L 194.675711 34.529465 
L 195.085728 35.677232 
L 195.358306 35.846789 
L 195.630374 35.495323 
L 195.766559 35.63685 
L 195.903926 35.361466 
L 196.994435 36.27531 
L 197.130454 36.015922 
L 197.948472 36.728323 
L 198.086331 36.022108 
L 198.358941 36.1373 
L 198.494849 36.228382 
L 198.766562 37.288478 
L 199.175616 37.522612 
L 199.313322 36.96697 
L 199.586286 37.283223 
L 199.72299 37.358542 
L 199.994803 37.243223 
L 200.266915 37.373118 
L 201.22183 38.858346 
L 202.312234 39.676109 
L 202.585784 39.777064 
L 203.402732 40.087575 
L 203.676136 40.435524 
L 204.084979 40.449804 
L 204.358598 40.401032 
L 205.176149 40.366307 
L 205.449736 40.193085 
L 205.722713 40.159271 
L 205.9944 40.427918 
L 206.266806 40.349633 
L 206.541207 41.341847 
L 206.677309 41.39386 
L 206.948612 41.312758 
L 207.087028 41.537866 
L 207.903218 41.186613 
L 208.040422 41.262397 
L 208.448309 40.137449 
L 209.54121 39.643439 
L 209.675936 39.585176 
L 209.813945 39.816873 
L 209.948472 39.477929 
L 210.63176 42.893516 
L 210.903282 41.611172 
L 211.585192 45.14229 
L 211.857719 44.130161 
L 211.995268 44.749786 
L 212.130422 44.556818 
L 212.81383 47.536023 
L 212.948702 47.925032 
L 213.494446 48.228616 
L 213.631579 47.855773 
L 214.312626 47.835666 
L 214.723398 47.738123 
L 215.131936 47.370831 
L 215.266996 47.398861 
L 215.404092 47.212397 
L 215.675749 47.426192 
L 216.494879 47.017035 
L 216.766678 46.62648 
L 216.904542 46.622412 
L 217.44924 46.027512 
L 217.586932 46.108805 
L 217.858764 45.895582 
L 219.222395 44.263997 
L 219.358962 44.345672 
L 219.631922 44.002384 
L 219.767168 43.920159 
L 219.903057 43.985668 
L 220.176315 43.516108 
L 220.312878 43.490006 
L 220.722999 42.764151 
L 221.812184 41.777954 
L 221.949394 42.01552 
L 222.495321 41.609223 
L 222.63062 41.691957 
L 222.903317 41.452526 
L 223.040674 41.640007 
L 223.312237 41.202397 
L 223.859152 40.886419 
L 224.130714 40.468321 
L 224.812141 39.346678 
L 225.903887 38.588979 
L 226.175914 38.570102 
L 226.99431 38.289357 
L 227.812211 38.569487 
L 228.084934 38.261136 
L 228.357885 38.127745 
L 228.493977 38.588407 
L 228.767722 38.520271 
L 229.039323 38.861672 
L 229.176863 38.825782 
L 229.449748 39.229664 
L 229.584743 39.19479 
L 229.859502 38.922881 
L 229.994338 38.888749 
L 230.266412 39.02142 
L 230.676941 38.91322 
L 231.221338 39.014513 
L 231.357319 38.945042 
L 231.630972 38.453893 
L 231.904246 38.384061 
L 232.175514 38.651056 
L 232.449021 38.561118 
L 232.72185 38.527432 
L 232.993827 39.147459 
L 233.130958 39.127989 
L 233.402727 39.578121 
L 235.312409 39.011166 
L 235.448091 39.012437 
L 236.402958 40.119588 
L 236.675586 40.145521 
L 236.811597 40.14925 
L 237.221 40.453766 
L 237.629855 40.257387 
L 237.902379 40.622051 
L 238.311502 40.399274 
L 239.129896 40.406689 
L 239.402872 40.287705 
L 239.539249 40.245925 
L 239.811547 39.929947 
L 240.084212 39.76164 
L 240.493483 38.1273 
L 240.766157 38.065478 
L 241.038819 38.637179 
L 241.584152 38.611521 
L 242.402318 38.588703 
L 242.811587 40.494253 
L 242.811587 40.494253 
" clip-path="url(#p5b52a97d44)" style="fill: none; stroke: #ff0000; stroke-opacity: 0.8; stroke-width: 2; stroke-linecap: square"/>
   </g>
   <g id="line2d_25">
    <path d="M 163.586266 38.98 
L 164.131955 38.98 
L 164.2663 36.716056 
L 164.404678 38.98 
L 165.22096 38.98 
L 165.357478 39.546002 
L 165.493656 39.546002 
L 165.631613 39.262969 
L 165.767859 37.848124 
L 166.039535 40.11194 
L 166.175506 37.847996 
L 166.448647 39.546065 
L 166.721436 38.98 
L 166.859307 38.98 
L 167.130297 39.546065 
L 167.266272 38.98 
L 167.402546 39.545938 
L 167.540015 39.545938 
L 167.677901 38.98 
L 167.812451 39.545938 
L 168.220721 39.545938 
L 168.357232 37.84806 
L 168.493999 37.847933 
L 168.631223 38.413998 
L 168.766885 38.414125 
L 168.902809 39.546065 
L 169.040524 38.414062 
L 169.175822 38.414104 
L 169.312715 37.847996 
L 169.448112 39.545959 
L 169.585165 39.545938 
L 169.859005 37.848039 
L 169.993887 38.98 
L 170.131537 38.98 
L 170.26754 38.413998 
L 170.402835 38.414041 
L 170.540674 40.677921 
L 170.675396 38.98 
L 170.950376 38.98 
L 171.087514 38.414041 
L 171.221413 39.494561 
L 171.357653 38.465439 
L 171.494843 38.414041 
L 171.631107 36.716035 
L 171.902709 38.414083 
L 172.039321 38.414041 
L 172.176975 37.282058 
L 172.313007 37.282037 
L 172.448614 38.98 
L 172.586238 38.98 
L 172.722313 37.84806 
L 172.857452 38.414125 
L 173.131418 36.716141 
L 173.266613 38.414104 
L 173.402779 36.150139 
L 173.539429 38.414062 
L 173.675523 37.953019 
L 173.813629 38.413935 
L 173.947969 37.847996 
L 174.223073 35.584265 
L 174.494283 38.98 
L 174.768357 38.414062 
L 175.039438 39.546002 
L 175.176814 38.413998 
L 175.312479 38.413998 
L 175.450264 38.98 
L 175.585103 40.11194 
L 175.720855 40.11194 
L 175.859032 38.98 
L 175.994689 41.243944 
L 176.131783 40.111898 
L 176.268027 40.677899 
L 176.403978 40.11194 
L 176.539518 40.677942 
L 176.812098 40.677942 
L 176.948602 41.809882 
L 177.084706 40.111961 
L 177.22096 40.677921 
L 177.357926 40.11194 
L 177.493764 40.677942 
L 177.632584 40.677942 
L 177.766988 40.111961 
L 177.903112 41.243922 
L 178.039306 40.11194 
L 178.175542 41.243922 
L 178.311951 38.98 
L 178.45037 40.677899 
L 178.723031 39.26299 
L 178.857423 40.677942 
L 178.993906 39.545959 
L 179.13029 39.828992 
L 179.266465 38.98 
L 179.402789 39.546002 
L 179.540727 40.678005 
L 179.812399 38.98 
L 179.950091 39.608969 
L 180.084714 39.546002 
L 180.221173 40.677794 
L 180.359074 40.11194 
L 180.494021 40.11194 
L 180.766677 37.282058 
L 180.905897 38.98 
L 181.040129 38.98 
L 181.313362 40.678069 
L 181.448365 38.98 
L 181.586435 39.545938 
L 181.721215 37.743186 
L 181.857443 37.847996 
L 181.99422 38.413998 
L 182.131316 37.847996 
L 182.267001 37.847996 
L 182.539109 40.11194 
L 182.675601 39.545959 
L 182.815775 38.414104 
L 182.94973 39.546002 
L 183.084735 38.98 
L 183.222092 39.262969 
L 183.360647 38.414062 
L 183.76789 40.111982 
L 183.903015 41.24388 
L 184.04061 39.545959 
L 184.175885 40.111961 
L 184.450331 38.414041 
L 184.584596 40.111919 
L 184.85751 37.84806 
L 185.131198 40.11194 
L 185.267374 38.414062 
L 185.403946 39.546044 
L 185.812044 36.150139 
L 185.948446 37.282122 
L 186.221086 35.584222 
L 186.495075 36.716056 
L 186.630092 33.886196 
L 186.76683 35.018263 
L 187.040638 33.886196 
L 187.175869 32.754319 
L 187.448666 35.018051 
L 187.721891 31.05625 
L 187.857377 31.056399 
L 187.994089 32.188254 
L 188.268107 30.490333 
L 188.540576 29.204048 
L 188.677594 29.358457 
L 188.81419 31.622464 
L 188.948595 29.924395 
L 189.084753 30.490397 
L 189.357496 30.49046 
L 189.495324 31.056356 
L 189.630631 29.924458 
L 189.766859 30.490397 
L 189.902935 30.490397 
L 190.039601 31.056335 
L 190.177232 32.188317 
L 190.313313 29.924395 
L 190.584757 31.622358 
L 190.722788 31.056356 
L 190.85802 31.339368 
L 190.993942 29.358414 
L 191.131679 31.622337 
L 191.267087 31.056356 
L 191.403562 29.924395 
L 191.54065 31.622316 
L 191.676716 29.924416 
L 191.814438 30.490376 
L 191.950108 31.622316 
L 192.085047 31.262163 
L 192.221075 31.622358 
L 192.358755 31.622294 
L 192.493702 31.056356 
L 192.631657 31.622316 
L 192.767419 31.622358 
L 192.903047 32.291242 
L 193.041039 31.622316 
L 193.176984 32.188317 
L 193.313549 33.320257 
L 193.450125 31.622316 
L 193.584623 32.754256 
L 193.722979 32.18819 
L 193.99386 33.320236 
L 194.130331 33.320194 
L 194.268488 31.622316 
L 194.404155 33.886196 
L 194.539357 33.886196 
L 194.675711 34.452134 
L 194.812075 33.320257 
L 194.949089 34.452197 
L 195.085728 33.886196 
L 195.222949 32.754256 
L 195.358306 34.452134 
L 195.493869 34.556944 
L 195.766559 36.716141 
L 195.903926 34.452197 
L 196.041095 36.716141 
L 196.175765 36.716141 
L 196.31218 37.282101 
L 196.44946 36.716099 
L 196.584778 35.018263 
L 196.722591 36.150182 
L 196.858483 35.018178 
L 197.130454 35.867128 
L 197.266963 35.01822 
L 197.403086 35.584159 
L 197.812127 35.584138 
L 197.948472 36.716035 
L 198.086331 36.716099 
L 198.221732 37.282058 
L 198.358941 36.716099 
L 198.63019 36.716078 
L 198.766562 37.282101 
L 198.904576 36.15016 
L 199.03926 38.413956 
L 199.175616 37.282079 
L 199.313322 38.98 
L 199.448422 37.282101 
L 199.586286 38.414019 
L 199.72299 34.452134 
L 199.858617 38.414041 
L 199.994803 37.84806 
L 200.131419 39.546002 
L 200.266915 38.413956 
L 200.403101 36.045308 
L 200.675713 38.413998 
L 200.813769 37.84806 
L 200.949526 38.413998 
L 201.084833 39.546002 
L 201.22183 38.414041 
L 201.359213 38.413998 
L 201.494838 38.98 
L 201.766571 37.847933 
L 201.903404 38.413998 
L 202.039406 38.414062 
L 202.175825 39.546002 
L 202.312234 38.413998 
L 202.585784 39.545959 
L 202.72121 39.546065 
L 202.857678 40.11194 
L 202.995046 40.111961 
L 203.130791 38.98 
L 203.268062 39.546044 
L 203.402732 41.243859 
L 203.539349 40.111876 
L 203.676136 40.111876 
L 203.814024 38.414083 
L 203.94883 40.677942 
L 204.223816 39.546002 
L 204.358598 40.394952 
L 204.494637 39.546002 
L 204.630429 40.111898 
L 204.76669 38.98 
L 204.903705 41.243901 
L 205.176149 40.111961 
L 205.31219 40.11194 
L 205.449736 39.545959 
L 205.584841 41.243859 
L 205.722713 40.111961 
L 205.858206 40.677921 
L 205.9944 40.11194 
L 206.132125 41.243901 
L 206.403486 41.243986 
L 206.541207 40.112004 
L 206.677309 41.809903 
L 206.81204 40.11194 
L 206.948612 42.375862 
L 207.087028 41.243795 
L 207.22181 41.243859 
L 207.358899 40.57292 
L 207.63034 40.677942 
L 207.766805 42.375862 
L 207.903218 40.678005 
L 208.040422 41.243795 
L 208.176086 39.545938 
L 208.311978 41.243859 
L 208.448309 40.112004 
L 208.584987 41.243859 
L 208.721381 39.546002 
L 208.85766 39.828929 
L 208.99565 39.545938 
L 209.130828 38.98 
L 209.54121 40.677942 
L 209.675936 40.677878 
L 209.813945 39.26299 
L 209.948472 40.677963 
L 210.221317 40.394909 
L 210.358507 38.98 
L 210.766693 41.809818 
L 210.903282 42.37582 
L 211.040583 42.375884 
L 211.175757 41.809861 
L 211.450669 41.809818 
L 211.585192 41.243901 
L 211.722066 43.507845 
L 211.857719 43.507803 
L 211.995268 44.639743 
L 212.130422 44.073783 
L 212.267971 41.809861 
L 212.402933 45.205702 
L 212.539539 44.073804 
L 212.81383 46.903644 
L 212.948702 45.771704 
L 213.086494 46.337642 
L 213.358561 47.752636 
L 213.494446 48.035605 
L 213.631579 47.469646 
L 213.767149 47.469603 
L 213.903307 46.903665 
L 214.04213 47.469603 
L 214.175987 46.903665 
L 214.312626 47.46954 
L 214.448587 47.155278 
L 214.585071 47.469667 
L 214.857717 45.771746 
L 214.994647 48.035478 
L 215.131936 47.469667 
L 215.266996 47.469667 
L 215.404092 46.903601 
L 215.539693 47.469667 
L 215.675749 46.90375 
L 215.81211 45.771746 
L 215.94953 47.46954 
L 216.084894 46.903665 
L 216.359179 46.903601 
L 216.494879 47.46954 
L 216.63042 48.60167 
L 216.766678 46.337748 
L 216.904542 46.903665 
L 217.040228 46.337684 
L 217.177394 48.035605 
L 217.312126 46.3376 
L 217.44924 46.620611 
L 217.586932 47.469603 
L 217.721755 45.771704 
L 217.858764 46.903644 
L 218.266643 45.205723 
L 218.403299 45.205723 
L 218.675897 45.897489 
L 218.812455 45.771683 
L 218.949072 44.639743 
L 219.08589 45.771683 
L 219.358962 44.073762 
L 219.494089 44.639743 
L 219.631922 44.07372 
L 219.767168 44.073741 
L 219.903057 43.507781 
L 220.039841 45.205744 
L 220.176315 43.507803 
L 220.312878 44.073762 
L 220.448664 41.809861 
L 220.586389 42.941864 
L 220.722999 42.375862 
L 220.858327 44.073804 
L 220.994316 43.507803 
L 221.13041 44.073804 
L 221.404409 42.375799 
L 221.676991 42.375947 
L 221.949394 41.243859 
L 222.086384 43.507866 
L 222.222571 41.243859 
L 222.35782 42.375735 
L 222.495321 40.111876 
L 222.766766 42.375862 
L 222.903317 41.243944 
L 223.040674 42.581649 
L 223.176156 40.112004 
L 223.312237 40.112004 
L 223.449773 41.809945 
L 223.585473 41.809797 
L 223.724052 41.52687 
L 223.859152 42.375841 
L 223.994552 41.80984 
L 224.130714 41.80984 
L 224.266803 41.243944 
L 224.403201 41.809882 
L 224.812141 40.111982 
L 224.949409 40.111919 
L 225.086135 38.697031 
L 225.221408 38.98 
L 225.359199 39.546002 
L 225.494497 39.545959 
L 225.630436 38.414041 
L 225.766711 38.413998 
L 225.903887 39.545959 
L 226.039827 37.84806 
L 226.313865 38.98 
L 226.448538 38.98 
L 226.586093 39.545959 
L 226.99431 37.848145 
L 227.130688 38.414062 
L 227.26681 38.414062 
L 227.405222 38.98 
L 227.541044 38.414125 
L 227.675856 38.98 
L 227.948649 38.414125 
L 228.084934 37.282058 
L 228.221386 38.98 
L 228.357885 38.98 
L 228.493977 38.414125 
L 228.630207 38.414125 
L 228.767722 37.282206 
L 228.90412 38.413935 
L 229.039323 37.848124 
L 229.176863 38.131093 
L 229.312415 40.112004 
L 229.584743 38.98 
L 229.721118 36.716141 
L 230.130299 39.546002 
L 230.266412 37.847996 
L 230.403571 39.546002 
L 230.539225 38.98 
L 230.676941 37.282037 
L 230.813233 38.98 
L 231.085605 37.84806 
L 231.221338 38.413998 
L 231.357319 38.414019 
L 231.630972 39.494561 
L 231.766465 37.848039 
L 231.904246 40.111961 
L 232.039287 39.545959 
L 232.175514 38.414041 
L 232.449021 40.11194 
L 232.584639 37.848039 
L 232.993827 39.545959 
L 233.130958 39.546044 
L 233.267247 36.716078 
L 233.540039 40.111898 
L 233.676337 37.282101 
L 233.811816 38.98 
L 233.949401 37.848039 
L 234.221325 40.111876 
L 234.357326 38.413998 
L 234.494133 38.98 
L 234.629763 38.98 
L 234.766929 39.545938 
L 234.903236 40.677878 
L 235.038922 38.98 
L 235.17583 39.546002 
L 235.312409 40.678005 
L 235.448091 38.98 
L 235.585038 38.98 
L 235.721005 38.414062 
L 235.85755 38.41421 
L 235.99389 39.60882 
L 236.130049 38.98 
L 236.266118 38.98 
L 236.402958 39.546065 
L 236.538923 38.98 
L 236.675586 40.11194 
L 236.811597 39.545938 
L 236.948284 40.677942 
L 237.08468 38.414062 
L 237.357366 40.677878 
L 237.493351 40.111876 
L 237.629855 40.677878 
L 237.766169 40.11194 
L 237.902379 38.98 
L 238.039095 41.243944 
L 238.175179 41.243859 
L 238.448137 38.98 
L 238.584175 39.262906 
L 238.720789 37.84806 
L 238.857335 38.98 
L 238.99361 41.243859 
L 239.129896 40.111834 
L 239.266288 41.243838 
L 239.402872 39.546065 
L 239.539249 39.545959 
L 239.811547 40.677836 
L 239.948014 40.111919 
L 240.084212 40.112046 
L 240.220599 40.677942 
L 240.356985 38.98 
L 240.493483 39.545981 
L 240.629786 37.282101 
L 240.902586 39.545981 
L 241.038819 39.545938 
L 241.175022 38.414041 
L 241.312021 38.98 
L 241.447874 37.84806 
L 241.584152 39.545959 
L 241.720569 39.545959 
L 241.856978 40.11194 
L 241.993243 38.98 
L 242.129807 38.98 
L 242.26616 38.414019 
L 242.402318 38.414041 
L 242.538841 38.98 
L 242.674958 40.11194 
L 242.811587 36.716141 
L 242.811587 36.716141 
" clip-path="url(#p5b52a97d44)" style="fill: none; stroke: #0000ff; stroke-width: 2; stroke-linecap: square"/>
   </g>
   <g id="line2d_26">
    <path d="M 159.625 17.793333 
L 246.772853 17.793333 
" clip-path="url(#p5b52a97d44)" style="fill: none; stroke-dasharray: 7.4,3.2; stroke-dashoffset: 0; stroke: #000000; stroke-opacity: 0.7; stroke-width: 2"/>
   </g>
   <g id="line2d_27">
    <path d="M 159.625 60.166667 
L 246.772853 60.166667 
" clip-path="url(#p5b52a97d44)" style="fill: none; stroke-dasharray: 7.4,3.2; stroke-dashoffset: 0; stroke: #000000; stroke-opacity: 0.7; stroke-width: 2"/>
   </g>
   <g id="patch_8">
    <path d="M 159.625 70.76 
L 159.625 7.2 
" style="fill: none; stroke: #000000; stroke-width: 0.8; stroke-linejoin: miter; stroke-linecap: square"/>
   </g>
   <g id="patch_9">
    <path d="M 246.772853 70.76 
L 246.772853 7.2 
" style="fill: none; stroke: #000000; stroke-width: 0.8; stroke-linejoin: miter; stroke-linecap: square"/>
   </g>
   <g id="patch_10">
    <path d="M 159.625 70.76 
L 246.772853 70.76 
" style="fill: none; stroke: #000000; stroke-width: 0.8; stroke-linejoin: miter; stroke-linecap: square"/>
   </g>
   <g id="patch_11">
    <path d="M 159.625 7.2 
L 246.772853 7.2 
" style="fill: none; stroke: #000000; stroke-width: 0.8; stroke-linejoin: miter; stroke-linecap: square"/>
   </g>
  </g>
 </g>
 <defs>
  <clipPath id="p5889220b6e">
   <rect x="35.2" y="7.2" width="87.147853" height="63.56"/>
  </clipPath>
  <clipPath id="p5b52a97d44">
   <rect x="159.625" y="7.2" width="87.147853" height="63.56"/>
  </clipPath>
 </defs>
</svg>
