<?xml version="1.0" encoding="utf-8" standalone="no"?>
<!DOCTYPE svg PUBLIC "-//W3C//DTD SVG 1.1//EN"
  "http://www.w3.org/Graphics/SVG/1.1/DTD/svg11.dtd">
<svg xmlns:xlink="http://www.w3.org/1999/xlink" width="258.51pt" height="95.859375pt" viewBox="0 0 258.51 95.859375" xmlns="http://www.w3.org/2000/svg" version="1.1">
 <metadata>
  <rdf:RDF xmlns:dc="http://purl.org/dc/elements/1.1/" xmlns:cc="http://creativecommons.org/ns#" xmlns:rdf="http://www.w3.org/1999/02/22-rdf-syntax-ns#">
   <cc:Work>
    <dc:type rdf:resource="http://purl.org/dc/dcmitype/StillImage"/>
    <dc:date>2026-01-18T23:30:35.180821</dc:date>
    <dc:format>image/svg+xml</dc:format>
    <dc:creator>
     <cc:Agent>
      <dc:title>Matplotlib v3.6.3, https://matplotlib.org/</dc:title>
     </cc:Agent>
    </dc:creator>
   </cc:Work>
  </rdf:RDF>
 </metadata>
 <defs>
  <style type="text/css">*{stroke-linejoin: round; stroke-linecap: butt}</style>
 </defs>
 <g id="figure_1">
  <g id="patch_1">
   <path d="M 0 95.859375 
L 258.51 95.859375 
L 258.51 0 
L 0 0 
z
" style="fill: #ffffff"/>
  </g>
  <g id="axes_1">
   <g id="patch_2">
    <path d="M 35.2 70.76 
L 126.885 70.76 
L 126.885 7.2 
L 35.2 7.2 
z
" style="fill: #ffffff"/>
   </g>
   <g id="matplotlib.axis_1">
    <g id="xtick_1">
     <g id="line2d_1">
      <path d="M 39.3675 70.76 
L 39.3675 7.2 
" clip-path="url(#pb3e4d3c038)" style="fill: none; stroke: #b0b0b0; stroke-opacity: 0.3; stroke-width: 0.8; stroke-linecap: square"/>
     </g>
     <g id="line2d_2">
      <defs>
       <path id="m3e826e38fd" d="M 0 0 
L 0 3.5 
" style="stroke: #000000; stroke-width: 0.8"/>
      </defs>
      <g>
       <use xlink:href="#m3e826e38fd" x="39.3675" y="70.76" style="stroke: #000000; stroke-width: 0.8"/>
      </g>
     </g>
     <g id="text_1">
      <!-- 0 -->
      <g transform="translate(36.3675 86.0925) scale(0.12 -0.12)">
       <defs>
        <path id="TimesNewRomanPSMT-30" d="M 231 2094 
Q 231 2819 450 3342 
Q 669 3866 1031 4122 
Q 1313 4325 1613 4325 
Q 2100 4325 2488 3828 
Q 2972 3213 2972 2159 
Q 2972 1422 2759 906 
Q 2547 391 2217 158 
Q 1888 -75 1581 -75 
Q 975 -75 572 641 
Q 231 1244 231 2094 
z
M 844 2016 
Q 844 1141 1059 588 
Q 1238 122 1591 122 
Q 1759 122 1940 273 
Q 2122 425 2216 781 
Q 2359 1319 2359 2297 
Q 2359 3022 2209 3506 
Q 2097 3866 1919 4016 
Q 1791 4119 1609 4119 
Q 1397 4119 1231 3928 
Q 1006 3669 925 3112 
Q 844 2556 844 2016 
z
" transform="scale(0.015625)"/>
       </defs>
       <use xlink:href="#TimesNewRomanPSMT-30"/>
      </g>
     </g>
    </g>
    <g id="xtick_2">
     <g id="line2d_3">
      <path d="M 83.625374 70.76 
L 83.625374 7.2 
" clip-path="url(#pb3e4d3c038)" style="fill: none; stroke: #b0b0b0; stroke-opacity: 0.3; stroke-width: 0.8; stroke-linecap: square"/>
     </g>
     <g id="line2d_4">
      <g>
       <use xlink:href="#m3e826e38fd" x="83.625374" y="70.76" style="stroke: #000000; stroke-width: 0.8"/>
      </g>
     </g>
     <g id="text_2">
      <!-- 10 -->
      <g transform="translate(77.625374 86.0925) scale(0.12 -0.12)">
       <defs>
        <path id="TimesNewRomanPSMT-31" d="M 750 3822 
L 1781 4325 
L 1884 4325 
L 1884 747 
Q 1884 391 1914 303 
Q 1944 216 2037 169 
Q 2131 122 2419 116 
L 2419 0 
L 825 0 
L 825 116 
Q 1125 122 1212 167 
Q 1300 213 1334 289 
Q 1369 366 1369 747 
L 1369 3034 
Q 1369 3497 1338 3628 
Q 1316 3728 1258 3775 
Q 1200 3822 1119 3822 
Q 1003 3822 797 3725 
L 750 3822 
z
" transform="scale(0.015625)"/>
       </defs>
       <use xlink:href="#TimesNewRomanPSMT-31"/>
       <use xlink:href="#TimesNewRomanPSMT-30" x="50"/>
      </g>
     </g>
    </g>
   </g>
   <g id="matplotlib.axis_2">
    <g id="ytick_1">
     <g id="line2d_5">
      <path d="M 35.2 67.870909 
L 126.885 67.870909 
" clip-path="url(#pb3e4d3c038)" style="fill: none; stroke: #b0b0b0; stroke-opacity: 0.3; stroke-width: 0.8; stroke-linecap: square"/>
     </g>
     <g id="line2d_6">
      <defs>
       <path id="mdfd9b88666" d="M 0 0 
L -3.5 0 
" style="stroke: #000000; stroke-width: 0.8"/>
      </defs>
      <g>
       <use xlink:href="#mdfd9b88666" x="35.2" y="67.870909" style="stroke: #000000; stroke-width: 0.8"/>
      </g>
     </g>
     <g id="text_3">
      <!-- 0.00 -->
      <g transform="translate(7.2 72.037159) scale(0.12 -0.12)">
       <defs>
        <path id="TimesNewRomanPSMT-2e" d="M 800 606 
Q 947 606 1047 504 
Q 1147 403 1147 259 
Q 1147 116 1045 14 
Q 944 -88 800 -88 
Q 656 -88 554 14 
Q 453 116 453 259 
Q 453 406 554 506 
Q 656 606 800 606 
z
" transform="scale(0.015625)"/>
       </defs>
       <use xlink:href="#TimesNewRomanPSMT-30"/>
       <use xlink:href="#TimesNewRomanPSMT-2e" x="50"/>
       <use xlink:href="#TimesNewRomanPSMT-30" x="75"/>
       <use xlink:href="#TimesNewRomanPSMT-30" x="125"/>
      </g>
     </g>
    </g>
    <g id="ytick_2">
     <g id="line2d_7">
      <path d="M 35.2 40.615334 
L 126.885 40.615334 
" clip-path="url(#pb3e4d3c038)" style="fill: none; stroke: #b0b0b0; stroke-opacity: 0.3; stroke-width: 0.8; stroke-linecap: square"/>
     </g>
     <g id="line2d_8">
      <g>
       <use xlink:href="#mdfd9b88666" x="35.2" y="40.615334" style="stroke: #000000; stroke-width: 0.8"/>
      </g>
     </g>
     <g id="text_4">
      <!-- 0.25 -->
      <g transform="translate(7.2 44.781584) scale(0.12 -0.12)">
       <defs>
        <path id="TimesNewRomanPSMT-32" d="M 2934 816 
L 2638 0 
L 138 0 
L 138 116 
Q 1241 1122 1691 1759 
Q 2141 2397 2141 2925 
Q 2141 3328 1894 3587 
Q 1647 3847 1303 3847 
Q 991 3847 742 3664 
Q 494 3481 375 3128 
L 259 3128 
Q 338 3706 661 4015 
Q 984 4325 1469 4325 
Q 1984 4325 2329 3994 
Q 2675 3663 2675 3213 
Q 2675 2891 2525 2569 
Q 2294 2063 1775 1497 
Q 997 647 803 472 
L 1909 472 
Q 2247 472 2383 497 
Q 2519 522 2628 598 
Q 2738 675 2819 816 
L 2934 816 
z
" transform="scale(0.015625)"/>
        <path id="TimesNewRomanPSMT-35" d="M 2778 4238 
L 2534 3706 
L 1259 3706 
L 981 3138 
Q 1809 3016 2294 2522 
Q 2709 2097 2709 1522 
Q 2709 1188 2573 903 
Q 2438 619 2231 419 
Q 2025 219 1772 97 
Q 1413 -75 1034 -75 
Q 653 -75 479 54 
Q 306 184 306 341 
Q 306 428 378 495 
Q 450 563 559 563 
Q 641 563 702 538 
Q 763 513 909 409 
Q 1144 247 1384 247 
Q 1750 247 2026 523 
Q 2303 800 2303 1197 
Q 2303 1581 2056 1914 
Q 1809 2247 1375 2428 
Q 1034 2569 447 2591 
L 1259 4238 
L 2778 4238 
z
" transform="scale(0.015625)"/>
       </defs>
       <use xlink:href="#TimesNewRomanPSMT-30"/>
       <use xlink:href="#TimesNewRomanPSMT-2e" x="50"/>
       <use xlink:href="#TimesNewRomanPSMT-32" x="75"/>
       <use xlink:href="#TimesNewRomanPSMT-35" x="125"/>
      </g>
     </g>
    </g>
    <g id="ytick_3">
     <g id="line2d_9">
      <path d="M 35.2 13.35976 
L 126.885 13.35976 
" clip-path="url(#pb3e4d3c038)" style="fill: none; stroke: #b0b0b0; stroke-opacity: 0.3; stroke-width: 0.8; stroke-linecap: square"/>
     </g>
     <g id="line2d_10">
      <g>
       <use xlink:href="#mdfd9b88666" x="35.2" y="13.35976" style="stroke: #000000; stroke-width: 0.8"/>
      </g>
     </g>
     <g id="text_5">
      <!-- 0.50 -->
      <g transform="translate(7.2 17.52601) scale(0.12 -0.12)">
       <use xlink:href="#TimesNewRomanPSMT-30"/>
       <use xlink:href="#TimesNewRomanPSMT-2e" x="50"/>
       <use xlink:href="#TimesNewRomanPSMT-35" x="75"/>
       <use xlink:href="#TimesNewRomanPSMT-30" x="125"/>
      </g>
     </g>
    </g>
   </g>
   <g id="line2d_11">
    <path d="M 39.3675 13.35976 
L 115.637524 13.35976 
L 115.931851 15.521563 
L 116.964105 27.191419 
L 117.406953 29.98348 
L 117.702598 32.367907 
L 119.177281 40.915255 
L 119.324372 41.396806 
L 119.472364 43.278422 
L 119.766788 48.729646 
L 120.357161 51.594752 
L 120.799798 53.176121 
L 121.094963 54.739282 
L 121.389923 55.487829 
L 121.684711 51.548963 
L 122.42252 53.610574 
L 122.7175 55.234134 
L 122.7175 55.234134 
" clip-path="url(#pb3e4d3c038)" style="fill: none; stroke: #ff0000; stroke-opacity: 0.8; stroke-width: 2; stroke-linecap: square"/>
   </g>
   <g id="line2d_12">
    <path d="M 39.3675 67.870909 
L 39.811336 67.870909 
L 40.252981 62.815 
L 40.399346 60.648182 
L 40.694839 52.703182 
L 40.843412 51.980909 
L 40.990811 52.703182 
L 41.432447 46.563918 
L 41.579322 46.925 
L 41.729432 46.202727 
L 42.022467 38.257727 
L 42.464252 34.646364 
L 42.908416 22.367727 
L 43.056019 23.09 
L 43.201946 18.756364 
L 43.349746 21.645455 
L 43.498285 18.756255 
L 43.794793 18.756364 
L 44.087114 12.255909 
L 44.235023 10.811473 
L 44.383467 10.811364 
L 44.677052 13.700455 
L 44.825869 12.152665 
L 44.973904 12.256018 
L 45.119812 12.9784 
L 45.267548 12.978182 
L 45.414766 12.2558 
L 45.562635 14.422618 
L 45.711825 12.2558 
L 45.857029 12.978073 
L 46.006725 12.978073 
L 46.153614 12.122139 
L 46.300736 13.700455 
L 46.448115 12.256018 
L 46.596259 12.256018 
L 47.038773 14.422836 
L 47.332706 11.533636 
L 47.482778 14.422727 
L 47.62741 12.255909 
L 47.777325 13.700455 
L 47.924515 12.978182 
L 48.069973 12.978182 
L 48.36778 13.700455 
L 48.514199 12.255909 
L 48.661202 12.978182 
L 48.808623 14.422727 
L 49.103698 12.978182 
L 49.398108 13.700455 
L 49.54586 13.700455 
L 49.694364 13.339264 
L 49.840243 12.255909 
L 49.988636 13.700455 
L 50.136862 13.700455 
L 50.284454 12.255909 
L 50.430608 12.255909 
L 50.577986 13.700455 
L 50.72552 12.255909 
L 50.87344 14.422727 
L 51.024177 13.700455 
L 51.167984 13.700455 
L 51.31603 12.978182 
L 51.464674 10.811473 
L 51.759524 14.422727 
L 51.907327 15.145 
L 52.054468 12.978182 
L 52.200653 12.978182 
L 52.349248 13.700237 
L 52.643428 13.700455 
L 52.939023 15.145 
L 53.086952 12.978291 
L 53.235003 12.844302 
L 53.382315 15.145 
L 53.677612 12.9784 
L 53.972157 14.422836 
L 54.267576 13.700455 
L 54.4144 14.422618 
L 54.561682 13.339264 
L 54.708609 15.145 
L 55.005533 12.256018 
L 55.153682 14.422618 
L 55.299822 13.700455 
L 55.447163 12.2558 
L 55.742455 12.255909 
L 56.03775 13.700455 
L 56.185517 12.978182 
L 56.332804 12.978182 
L 56.479965 13.339264 
L 56.62774 15.145 
L 56.77493 13.700455 
L 56.921677 13.700455 
L 57.069645 12.978182 
L 57.217515 14.422727 
L 57.511934 13.339373 
L 57.659678 13.700455 
L 57.807408 12.978182 
L 57.95448 13.700455 
L 58.103515 11.533636 
L 58.398975 13.700455 
L 58.694234 12.255909 
L 58.839565 14.028721 
L 58.987414 13.700455 
L 59.431821 13.700346 
L 59.578664 12.255909 
L 59.726012 12.978073 
L 59.873342 12.2558 
L 60.169343 15.145 
L 60.462299 13.700564 
L 60.61174 13.700455 
L 60.758929 14.422618 
L 60.905313 12.978182 
L 61.199959 14.422618 
L 61.347531 14.422618 
L 61.497711 13.700237 
L 61.790375 13.700455 
L 61.937535 12.978073 
L 62.086986 13.700455 
L 62.382108 12.255909 
L 62.675517 15.867273 
L 62.971948 12.978182 
L 63.265796 14.422727 
L 63.41342 12.978182 
L 63.56258 12.978182 
L 63.708147 12.255909 
L 63.856686 12.255909 
L 64.003012 14.422727 
L 64.152333 14.422727 
L 64.299588 13.700455 
L 64.446516 15.145 
L 64.593455 15.145 
L 64.742271 13.700455 
L 64.889844 15.867273 
L 65.037669 13.700455 
L 65.184655 15.145 
L 65.330906 12.978182 
L 65.480741 14.422727 
L 65.626361 12.255909 
L 65.773545 13.700455 
L 65.920976 14.028721 
L 66.217343 12.2558 
L 66.365595 12.256018 
L 66.51251 14.422727 
L 66.806444 13.339264 
L 66.953446 14.422618 
L 67.100868 13.700455 
L 67.248473 12.2558 
L 67.398644 12.978182 
L 67.693244 12.978182 
L 67.840023 13.700455 
L 67.987745 11.533745 
L 68.135498 12.256018 
L 68.281819 15.145 
L 68.42865 11.533636 
L 68.577861 13.700455 
L 68.724238 13.700455 
L 68.872816 12.978073 
L 69.020497 12.978182 
L 69.168045 13.700564 
L 69.315183 12.978073 
L 69.461353 12.978073 
L 69.756438 14.422727 
L 69.903862 14.422727 
L 70.052675 15.145109 
L 70.494133 11.533636 
L 70.641665 12.978182 
L 70.938046 12.978182 
L 71.085489 11.533636 
L 71.233296 14.422727 
L 71.380089 12.255909 
L 71.526924 14.422618 
L 71.674323 13.700455 
L 71.821875 15.145 
L 71.970738 13.700455 
L 72.119329 13.700455 
L 72.26474 14.422727 
L 72.559386 13.339264 
L 72.854807 14.028721 
L 73.004103 13.700455 
L 73.149456 12.2558 
L 73.296955 12.255909 
L 73.44558 14.422836 
L 73.592777 12.255909 
L 73.88773 13.700455 
L 74.035025 13.272433 
L 74.183611 14.422618 
L 74.33 13.700564 
L 74.477381 14.422836 
L 74.772248 12.2558 
L 74.920329 15.145 
L 75.216438 12.255909 
L 75.511259 14.422727 
L 75.65832 13.700455 
L 75.805229 12.255909 
L 75.9534 13.700455 
L 76.100301 12.978182 
L 76.249102 13.700455 
L 76.396653 15.144891 
L 76.544172 12.255909 
L 76.6919 13.700346 
L 76.839213 12.978182 
L 76.987409 14.061536 
L 77.132746 12.978182 
L 77.282339 14.422727 
L 77.428506 14.422727 
L 77.575954 13.700346 
L 77.72455 12.2558 
L 77.871904 12.2558 
L 78.019338 11.533636 
L 78.167385 15.145 
L 78.464461 13.700455 
L 78.609316 13.700455 
L 78.757189 14.422727 
L 78.903995 13.700346 
L 79.198926 13.700455 
L 79.347035 12.256018 
L 79.641548 17.311818 
L 79.935663 12.978291 
L 80.084208 15.867273 
L 80.232387 12.255909 
L 80.379589 13.700455 
L 80.527794 12.978182 
L 80.675783 14.422618 
L 80.82144 13.700346 
L 80.968644 14.422727 
L 81.11616 13.700455 
L 81.264233 12.122139 
L 81.412852 13.700346 
L 81.559327 12.2558 
L 81.706034 13.700346 
L 81.853586 13.700455 
L 82.001071 15.145 
L 82.150547 14.685362 
L 82.297993 13.700346 
L 82.444964 14.422727 
L 82.591151 12.978291 
L 82.740727 13.700455 
L 82.889212 12.978182 
L 83.033948 13.700455 
L 83.183042 12.978182 
L 83.330393 13.339373 
L 83.476619 12.978182 
L 83.625864 12.978182 
L 83.772797 14.422945 
L 83.919479 13.700564 
L 84.066863 14.422618 
L 84.215421 15.867164 
L 84.509538 11.399757 
L 84.657067 12.978182 
L 84.806111 12.978291 
L 84.952686 13.700346 
L 85.099331 13.700564 
L 85.247035 12.6171 
L 85.394774 15.145 
L 85.541788 12.255909 
L 85.838641 12.256018 
L 85.985851 12.978182 
L 86.132292 12.978182 
L 86.426821 15.145109 
L 86.575074 12.255909 
L 86.724493 14.061645 
L 86.87041 14.422727 
L 87.018147 10.811364 
L 87.166606 13.700455 
L 87.313816 12.255909 
L 87.608019 12.256018 
L 87.754868 14.422727 
L 87.902353 13.700346 
L 88.050175 15.867273 
L 88.197343 13.700455 
L 88.344662 13.700346 
L 88.492466 14.422727 
L 88.641546 12.978073 
L 88.787736 14.288848 
L 89.379542 12.2558 
L 89.672709 13.339264 
L 89.820268 15.145 
L 89.967543 13.700346 
L 90.116495 14.061536 
L 90.263393 13.700455 
L 90.410004 15.145 
L 90.559559 12.978182 
L 90.854594 12.978182 
L 91.001139 13.700455 
L 91.442954 13.700346 
L 91.739215 12.2558 
L 91.886776 12.978182 
L 92.034922 12.256018 
L 92.180464 13.700455 
L 92.328206 13.700346 
L 92.477142 15.145109 
L 92.624635 14.422836 
L 92.772042 11.533636 
L 93.067195 14.422618 
L 93.215334 12.978073 
L 93.361029 13.700346 
L 93.508141 12.978182 
L 93.65751 15.867273 
L 93.803457 12.978182 
L 93.950712 12.978182 
L 94.098978 15.145 
L 94.246702 12.058906 
L 94.393269 13.700455 
L 94.690775 10.811364 
L 94.983894 13.700455 
L 95.133097 12.978182 
L 95.280114 16.589545 
L 95.573708 12.978291 
L 95.868516 14.422727 
L 96.016229 13.700564 
L 96.16364 14.685362 
L 96.31138 12.255909 
L 96.460423 14.422618 
L 96.607706 13.700455 
L 96.756693 13.700346 
L 96.901958 15.145 
L 97.19819 12.978182 
L 97.346179 15.145218 
L 97.49142 13.372079 
L 97.638892 13.700455 
L 97.786437 13.700564 
L 97.933964 12.188969 
L 98.081529 12.978182 
L 98.229407 14.422618 
L 98.524461 14.422618 
L 98.820164 12.978182 
L 98.966554 12.9784 
L 99.115609 12.2558 
L 99.263102 14.422727 
L 99.558387 12.255909 
L 99.70498 13.700455 
L 99.852039 12.255909 
L 100.14799 12.2558 
L 100.295277 13.700455 
L 100.442595 13.700455 
L 100.591039 15.145 
L 100.73885 12.255909 
L 100.88579 14.422727 
L 101.033245 13.700455 
L 101.181593 10.089091 
L 101.62227 14.422727 
L 101.769717 14.422727 
L 101.917328 13.700455 
L 102.064909 12.255909 
L 102.507156 14.422727 
L 102.656722 12.255909 
L 102.802884 12.978182 
L 102.95014 12.2558 
L 103.246798 13.700455 
L 103.394005 12.978182 
L 103.68876 15.867273 
L 103.982472 12.978182 
L 104.130883 13.700455 
L 104.278095 13.700455 
L 104.572489 12.2558 
L 104.869363 13.700455 
L 105.016827 13.700455 
L 105.164169 12.978182 
L 105.458068 15.341894 
L 105.605432 12.844302 
L 105.900292 12.978182 
L 106.049156 13.700455 
L 106.19666 13.700455 
L 106.490785 11.533636 
L 106.78579 14.422836 
L 106.934434 12.255909 
L 107.082342 12.256018 
L 107.228098 13.339264 
L 107.376865 12.978291 
L 107.524091 13.700455 
L 107.672 12.978182 
L 107.819851 13.700564 
L 107.96586 13.700564 
L 108.113299 12.255909 
L 108.260759 14.422727 
L 108.408535 12.255909 
L 108.557345 12.978182 
L 108.703392 15.145 
L 108.852492 12.978182 
L 109.000015 13.700455 
L 109.145903 12.978182 
L 109.293568 12.978182 
L 109.442221 12.255909 
L 109.589601 12.978182 
L 109.736226 12.978182 
L 109.884234 13.700455 
L 110.031315 15.867273 
L 110.179253 12.978182 
L 110.327259 12.978073 
L 110.473365 15.145 
L 110.768486 12.256018 
L 110.917335 13.700455 
L 111.211091 13.700455 
L 111.506147 15.144891 
L 111.802233 12.9784 
L 111.948718 14.422618 
L 112.24484 12.256018 
L 112.39131 13.700564 
L 112.539941 13.700455 
L 112.686182 12.978073 
L 112.833951 11.533745 
L 112.981142 13.700564 
L 113.128609 12.2558 
L 113.27734 12.978182 
L 113.424786 12.978291 
L 113.571184 12.256018 
L 113.866318 14.422509 
L 114.013998 14.422618 
L 114.16154 12.978291 
L 114.30978 12.978182 
L 114.457007 13.700455 
L 114.604287 12.978073 
L 114.751768 14.685471 
L 115.046303 12.978182 
L 115.193942 13.700455 
L 115.637524 13.700455 
L 115.784202 15.867273 
L 115.931851 12.978182 
L 116.226408 12.978182 
L 116.521717 14.422727 
L 116.669568 12.978182 
L 116.964105 27.423636 
L 117.259006 23.09 
L 117.702598 29.590455 
L 117.84932 31.757273 
L 117.996731 31.035 
L 118.144117 34.646364 
L 118.291699 32.479654 
L 118.439857 34.646255 
L 118.734718 34.646364 
L 118.881716 37.535455 
L 119.029948 37.535455 
L 119.472364 42.591255 
L 119.766788 41.146927 
L 119.915109 42.591255 
L 120.062333 47.647273 
L 120.209338 46.924891 
L 120.357161 50.175173 
L 120.505 50.536364 
L 120.799798 51.981018 
L 121.094963 55.592273 
L 121.242622 54.869891 
L 121.389923 56.314545 
L 121.684711 53.425455 
L 121.832618 56.314545 
L 122.128276 51.258418 
L 122.275095 56.314545 
L 122.42252 51.980909 
L 122.57003 53.425673 
L 122.7175 51.981018 
L 122.7175 51.981018 
" clip-path="url(#pb3e4d3c038)" style="fill: none; stroke: #0000ff; stroke-width: 2; stroke-linecap: square"/>
   </g>
   <g id="line2d_13">
    <path d="M 35.2 13.35976 
L 126.885 13.35976 
" clip-path="url(#pb3e4d3c038)" style="fill: none; stroke-dasharray: 3.7,1.6; stroke-dashoffset: 0; stroke: #000000; stroke-opacity: 0.7"/>
   </g>
   <g id="patch_3">
    <path d="M 35.2 70.76 
L 35.2 7.2 
" style="fill: none; stroke: #000000; stroke-width: 0.8; stroke-linejoin: miter; stroke-linecap: square"/>
   </g>
   <g id="patch_4">
    <path d="M 126.885 70.76 
L 126.885 7.2 
" style="fill: none; stroke: #000000; stroke-width: 0.8; stroke-linejoin: miter; stroke-linecap: square"/>
   </g>
   <g id="patch_5">
    <path d="M 35.2 70.76 
L 126.885 70.76 
" style="fill: none; stroke: #000000; stroke-width: 0.8; stroke-linejoin: miter; stroke-linecap: square"/>
   </g>
   <g id="patch_6">
    <path d="M 35.2 7.2 
L 126.885 7.2 
" style="fill: none; stroke: #000000; stroke-width: 0.8; stroke-linejoin: miter; stroke-linecap: square"/>
   </g>
  </g>
  <g id="axes_2">
   <g id="patch_7">
    <path d="M 159.625 70.76 
L 251.31 70.76 
L 251.31 7.2 
L 159.625 7.2 
z
" style="fill: #ffffff"/>
   </g>
   <g id="matplotlib.axis_3">
    <g id="xtick_3">
     <g id="line2d_14">
      <path d="M 163.7925 70.76 
L 163.7925 7.2 
" clip-path="url(#p60a3149cfc)" style="fill: none; stroke: #b0b0b0; stroke-opacity: 0.3; stroke-width: 0.8; stroke-linecap: square"/>
     </g>
     <g id="line2d_15">
      <g>
       <use xlink:href="#m3e826e38fd" x="163.7925" y="70.76" style="stroke: #000000; stroke-width: 0.8"/>
      </g>
     </g>
     <g id="text_6">
      <!-- 0 -->
      <g transform="translate(160.7925 86.0925) scale(0.12 -0.12)">
       <use xlink:href="#TimesNewRomanPSMT-30"/>
      </g>
     </g>
    </g>
    <g id="xtick_4">
     <g id="line2d_16">
      <path d="M 208.050374 70.76 
L 208.050374 7.2 
" clip-path="url(#p60a3149cfc)" style="fill: none; stroke: #b0b0b0; stroke-opacity: 0.3; stroke-width: 0.8; stroke-linecap: square"/>
     </g>
     <g id="line2d_17">
      <g>
       <use xlink:href="#m3e826e38fd" x="208.050374" y="70.76" style="stroke: #000000; stroke-width: 0.8"/>
      </g>
     </g>
     <g id="text_7">
      <!-- 10 -->
      <g transform="translate(202.050374 86.0925) scale(0.12 -0.12)">
       <use xlink:href="#TimesNewRomanPSMT-31"/>
       <use xlink:href="#TimesNewRomanPSMT-30" x="50"/>
      </g>
     </g>
    </g>
   </g>
   <g id="matplotlib.axis_4">
    <g id="ytick_4">
     <g id="line2d_18">
      <path d="M 159.625 60.166667 
L 251.31 60.166667 
" clip-path="url(#p60a3149cfc)" style="fill: none; stroke: #b0b0b0; stroke-opacity: 0.3; stroke-width: 0.8; stroke-linecap: square"/>
     </g>
     <g id="line2d_19">
      <g>
       <use xlink:href="#mdfd9b88666" x="159.625" y="60.166667" style="stroke: #000000; stroke-width: 0.8"/>
      </g>
     </g>
     <g id="text_8">
      <!-- −1 -->
      <g transform="translate(139.858125 64.332917) scale(0.12 -0.12)">
       <defs>
        <path id="TimesNewRomanPSMT-2212" d="M 3484 2000 
L 116 2000 
L 116 2256 
L 3484 2256 
L 3484 2000 
z
" transform="scale(0.015625)"/>
       </defs>
       <use xlink:href="#TimesNewRomanPSMT-2212"/>
       <use xlink:href="#TimesNewRomanPSMT-31" x="56.396484"/>
      </g>
     </g>
    </g>
    <g id="ytick_5">
     <g id="line2d_20">
      <path d="M 159.625 38.98 
L 251.31 38.98 
" clip-path="url(#p60a3149cfc)" style="fill: none; stroke: #b0b0b0; stroke-opacity: 0.3; stroke-width: 0.8; stroke-linecap: square"/>
     </g>
     <g id="line2d_21">
      <g>
       <use xlink:href="#mdfd9b88666" x="159.625" y="38.98" style="stroke: #000000; stroke-width: 0.8"/>
      </g>
     </g>
     <g id="text_9">
      <!-- 0 -->
      <g transform="translate(146.625 43.14625) scale(0.12 -0.12)">
       <use xlink:href="#TimesNewRomanPSMT-30"/>
      </g>
     </g>
    </g>
    <g id="ytick_6">
     <g id="line2d_22">
      <path d="M 159.625 17.793333 
L 251.31 17.793333 
" clip-path="url(#p60a3149cfc)" style="fill: none; stroke: #b0b0b0; stroke-opacity: 0.3; stroke-width: 0.8; stroke-linecap: square"/>
     </g>
     <g id="line2d_23">
      <g>
       <use xlink:href="#mdfd9b88666" x="159.625" y="17.793333" style="stroke: #000000; stroke-width: 0.8"/>
      </g>
     </g>
     <g id="text_10">
      <!-- 1 -->
      <g transform="translate(146.625 21.959583) scale(0.12 -0.12)">
       <use xlink:href="#TimesNewRomanPSMT-31"/>
      </g>
     </g>
    </g>
   </g>
   <g id="line2d_24">
    <path d="M 163.7925 38.98 
L 165.710694 38.900741 
L 166.154432 38.855422 
L 166.447467 38.865147 
L 167.774746 38.795507 
L 168.954492 38.819384 
L 169.987635 38.82627 
L 170.282029 38.569508 
L 171.021259 38.616543 
L 171.167422 38.764023 
L 171.315206 39.116548 
L 171.907778 39.132819 
L 172.05241 39.424263 
L 172.494973 39.421678 
L 173.086202 38.817244 
L 173.233623 38.775125 
L 173.381047 39.129557 
L 173.678199 39.113751 
L 173.97086 39.796259 
L 174.265243 39.769542 
L 174.413636 40.004502 
L 174.561862 40.486203 
L 175.002986 40.357557 
L 175.15052 40.026706 
L 175.29844 40.043232 
L 175.449177 39.935731 
L 175.74103 40.490715 
L 176.184524 40.369167 
L 176.774248 40.019375 
L 176.923533 40.327705 
L 177.807315 39.919798 
L 177.953483 39.980117 
L 178.102612 40.209992 
L 178.397157 40.171517 
L 178.543761 40.086558 
L 178.692576 36.520927 
L 178.986682 36.285734 
L 179.430533 37.163942 
L 179.578682 37.103645 
L 179.724822 37.523205 
L 179.872163 38.303531 
L 180.167455 38.451901 
L 180.314675 38.444825 
L 180.46275 37.518819 
L 180.757804 37.574921 
L 181.05274 38.058253 
L 181.346677 38.139927 
L 181.494645 38.010752 
L 181.642515 37.644837 
L 182.37948 37.804161 
L 182.674549 37.933103 
L 183.119234 38.913135 
L 183.412414 38.934385 
L 183.559618 39.156866 
L 184.003664 39.21371 
L 184.151012 38.869045 
L 184.594343 38.980064 
L 184.741184 39.188498 
L 185.330313 39.135574 
L 185.479346 38.860253 
L 185.922711 38.78932 
L 186.067807 38.298361 
L 186.657789 38.336095 
L 186.953946 37.093285 
L 187.100517 37.529201 
L 187.396948 34.901757 
L 187.690796 34.179313 
L 187.98758 32.585292 
L 188.281686 31.685473 
L 188.428012 31.734584 
L 188.724588 30.981334 
L 188.871516 31.074619 
L 189.018455 31.588841 
L 189.167271 31.232417 
L 189.314844 31.274219 
L 189.462669 30.708916 
L 189.609655 28.261687 
L 190.051361 28.067617 
L 190.198545 28.552304 
L 190.642343 28.645335 
L 190.93751 28.832985 
L 191.231444 29.174493 
L 191.378446 30.181304 
L 191.970324 30.656691 
L 192.412745 31.030424 
L 192.560498 31.388076 
L 192.706819 31.371275 
L 193.297816 32.172555 
L 194.625294 33.411869 
L 194.772319 33.28513 
L 195.066665 33.584413 
L 195.363046 34.89894 
L 196.246875 35.709435 
L 196.544329 36.154652 
L 196.837039 34.753896 
L 196.984386 34.867943 
L 197.279807 33.311698 
L 197.429103 33.390555 
L 197.721955 33.684562 
L 197.87058 33.228328 
L 198.460025 34.60203 
L 198.755 34.596436 
L 198.902381 34.664318 
L 199.492581 36.276348 
L 199.641438 35.890115 
L 200.08332 36.348468 
L 200.3784 36.784955 
L 200.674102 37.153836 
L 200.821653 37.146824 
L 201.264213 38.417791 
L 201.412409 38.612962 
L 201.557746 39.200087 
L 201.853506 39.306465 
L 202.000954 38.366794 
L 202.296904 38.472113 
L 202.444338 38.326413 
L 202.592385 37.776936 
L 203.034316 38.058528 
L 203.328995 38.485842 
L 203.475472 38.598576 
L 203.623926 39.272694 
L 204.066548 39.741851 
L 204.21309 40.230437 
L 204.509208 40.317896 
L 204.657387 40.583619 
L 204.804589 41.246889 
L 205.100783 41.365661 
L 205.24644 41.309855 
L 205.54116 40.919322 
L 205.837852 40.801248 
L 206.131034 40.610822 
L 206.575547 40.370968 
L 207.016151 40.204759 
L 207.165727 40.414295 
L 208.197797 40.191665 
L 208.788009 40.121961 
L 209.231111 39.965964 
L 209.377686 40.737265 
L 209.819774 40.646077 
L 210.114267 40.382706 
L 210.263641 40.289972 
L 210.557292 39.96465 
L 210.704543 39.877743 
L 211.149493 36.562495 
L 211.29541 36.513639 
L 211.443147 36.609551 
L 211.591606 36.518575 
L 212.033019 36.748641 
L 212.179868 37.454009 
L 212.475175 37.629308 
L 212.769662 38.965021 
L 213.066546 39.101442 
L 213.656743 41.965371 
L 213.804542 42.564445 
L 214.097709 44.798007 
L 214.245268 44.907733 
L 214.688393 46.052872 
L 214.835004 46.057152 
L 214.984559 46.604615 
L 215.132115 46.664552 
L 215.573703 47.315343 
L 215.722195 48.574721 
L 216.015641 48.959238 
L 216.311776 48.453936 
L 216.605464 48.533598 
L 216.753206 48.247366 
L 216.902142 47.645198 
L 217.344822 47.646575 
L 217.492195 46.929576 
L 217.786029 46.877266 
L 218.08251 46.499084 
L 218.375712 46.517051 
L 218.523978 46.010223 
L 218.671702 45.066167 
L 218.967723 44.975233 
L 219.115775 44.98856 
L 219.263276 45.210003 
L 220.146138 45.217058 
L 220.293516 45.436531 
L 220.58864 45.36975 
L 220.73638 45.366127 
L 220.885423 45.746513 
L 221.032706 45.702699 
L 221.181693 45.906451 
L 221.326958 47.549202 
L 221.62319 47.074769 
L 221.771179 47.202482 
L 221.91642 46.030181 
L 222.211437 45.775136 
L 222.358964 46.437431 
L 222.506529 46.296476 
L 222.803088 46.285099 
L 223.096907 45.741831 
L 223.245164 45.923252 
L 223.540609 45.55185 
L 223.688102 45.82645 
L 223.983387 45.212588 
L 224.57299 44.547856 
L 224.867595 43.784988 
L 225.016039 43.712826 
L 225.31079 43.028369 
L 225.458245 42.742434 
L 225.606593 42.705654 
L 225.754308 42.797689 
L 226.194717 42.420418 
L 226.342328 42.544699 
L 227.37514 41.500196 
L 227.524207 41.58435 
L 227.671798 41.524646 
L 227.819005 41.310216 
L 228.11376 41.447675 
L 228.407472 40.746248 
L 228.703095 40.863579 
L 229.146668 40.446901 
L 229.441827 40.285586 
L 229.736264 40.068677 
L 230.030432 39.257969 
L 230.178407 39.058115 
L 230.325292 39.106336 
L 230.474156 39.30477 
L 230.915785 38.945995 
L 231.21079 38.528576 
L 231.653098 38.278319 
L 231.801865 37.566298 
L 232.244851 37.552887 
L 232.538299 37.725834 
L 232.833535 37.681384 
L 232.982345 37.386381 
L 233.425015 37.317207 
L 233.718568 37.807085 
L 234.014601 37.784966 
L 234.456315 38.349336 
L 234.898365 38.231412 
L 235.047144 38.01999 
L 235.342335 37.995053 
L 235.931147 37.415407 
L 236.079893 37.318817 
L 236.522695 36.425375 
L 236.66984 36.415757 
L 236.81631 36.698514 
L 237.111182 37.585833 
L 237.258951 37.657677 
L 237.406142 38.244081 
L 237.553609 39.78914 
L 237.849786 39.824458 
L 239.029287 38.848028 
L 239.767366 38.722709 
L 239.915079 38.589805 
L 240.062524 38.274315 
L 240.505024 38.274675 
L 240.798965 38.930338 
L 241.094568 38.97536 
L 241.537095 39.765792 
L 241.831953 39.828441 
L 241.979047 39.205638 
L 242.421731 39.169896 
L 242.864857 38.044651 
L 243.159718 37.972066 
L 243.306716 38.261603 
L 243.454948 38.925995 
L 243.749372 38.991208 
L 243.897364 38.661543 
L 244.191788 36.953283 
L 244.487333 36.84985 
L 244.93 35.912785 
L 245.224798 35.778885 
L 245.372415 35.433352 
L 245.667622 35.413754 
L 245.814923 35.445344 
L 246.109711 38.060287 
L 246.553276 38.387981 
L 246.700095 38.455884 
L 246.84752 39.187396 
L 246.99503 41.359284 
L 247.1425 41.4867 
L 247.1425 41.4867 
" clip-path="url(#p60a3149cfc)" style="fill: none; stroke: #ff0000; stroke-opacity: 0.8; stroke-width: 2; stroke-linecap: square"/>
   </g>
   <g id="line2d_25">
    <path d="M 163.7925 38.98 
L 164.383045 38.98 
L 164.529561 39.545981 
L 164.677981 38.414019 
L 164.824346 39.494539 
L 164.971391 38.98 
L 165.119839 39.545938 
L 165.268412 38.98 
L 165.415811 39.545959 
L 165.710694 38.414019 
L 166.004322 39.545981 
L 166.154432 38.98 
L 166.299115 38.98 
L 166.447467 39.545981 
L 166.59445 38.414019 
L 166.74151 40.677921 
L 167.036864 37.84806 
L 167.186001 40.111961 
L 167.333416 39.545959 
L 167.481019 40.11194 
L 167.626946 38.98 
L 168.366521 38.98 
L 168.512114 39.545875 
L 168.660023 39.546002 
L 168.954492 37.281995 
L 169.250869 38.98 
L 169.544812 37.848124 
L 169.692548 37.847996 
L 169.987635 40.112004 
L 170.282029 37.848124 
L 170.431725 38.98 
L 170.578614 38.309039 
L 170.725736 38.98 
L 170.873115 38.41421 
L 171.021259 37.282058 
L 171.167422 37.848124 
L 171.315206 40.677942 
L 171.611304 38.414062 
L 171.757706 40.111792 
L 171.907778 40.11194 
L 172.05241 39.545875 
L 172.202325 39.546002 
L 172.349515 37.847996 
L 172.642931 39.26299 
L 172.79278 38.414062 
L 172.939199 40.677963 
L 173.086202 38.98 
L 173.381047 40.677942 
L 173.528698 38.98 
L 173.823108 38.414041 
L 173.97086 38.414019 
L 174.119364 39.828971 
L 174.265243 38.414019 
L 174.413636 39.545981 
L 174.561862 38.414019 
L 174.855608 40.677942 
L 175.002986 40.677942 
L 175.29844 38.98 
L 175.449177 40.677963 
L 175.592984 40.677942 
L 175.74103 41.243859 
L 175.889674 39.546002 
L 176.037375 41.243944 
L 176.184524 40.11194 
L 176.332327 40.677942 
L 176.479468 40.112004 
L 176.625653 41.243859 
L 176.923533 38.413935 
L 177.068428 40.11194 
L 177.217374 38.98 
L 177.511952 40.11194 
L 177.660003 40.216878 
L 177.953483 38.41421 
L 178.102612 40.111876 
L 178.248727 39.546065 
L 178.397157 41.243732 
L 178.543761 40.394973 
L 178.692576 38.413935 
L 178.8394 40.112004 
L 179.133609 40.677878 
L 179.282709 38.98 
L 179.430533 39.546065 
L 179.724822 38.414062 
L 179.872163 37.282058 
L 180.167455 37.282122 
L 180.314675 41.243901 
L 180.610517 36.716141 
L 180.757804 37.848039 
L 180.904965 37.56507 
L 181.05274 38.414019 
L 181.19993 37.282079 
L 181.346677 37.282079 
L 181.494645 37.84806 
L 181.642515 36.716099 
L 181.789149 38.414019 
L 181.936934 38.131029 
L 182.084678 36.150118 
L 182.37948 38.414041 
L 182.528515 37.84806 
L 182.674549 37.848039 
L 182.823975 37.282101 
L 182.969571 37.847996 
L 183.119234 36.150139 
L 183.264565 36.921927 
L 183.412414 39.545938 
L 183.559618 38.414062 
L 183.707194 39.546002 
L 184.003664 39.546002 
L 184.151012 38.98 
L 184.298342 37.281931 
L 184.444644 39.545938 
L 184.594343 39.545938 
L 184.741184 37.848124 
L 184.887299 40.677794 
L 185.183929 37.847996 
L 185.330313 38.414062 
L 185.479346 40.677942 
L 185.624959 40.112004 
L 185.772531 40.112004 
L 185.922711 38.414062 
L 186.067807 39.546065 
L 186.215375 39.546065 
L 186.362535 37.848124 
L 186.511986 38.414125 
L 186.657789 37.847996 
L 186.807108 37.848039 
L 186.953946 39.545938 
L 187.100517 38.98 
L 187.249773 37.84806 
L 187.396948 37.848124 
L 187.544104 37.282058 
L 187.690796 38.98 
L 187.83842 35.584201 
L 187.98758 35.584159 
L 188.133147 33.886259 
L 188.281686 36.150118 
L 188.428012 34.452197 
L 188.577333 34.452197 
L 188.871516 32.754277 
L 189.018455 32.754277 
L 189.167271 30.490397 
L 189.314844 32.188275 
L 189.462669 31.622316 
L 189.609655 31.622337 
L 189.755906 32.188317 
L 190.051361 30.490397 
L 190.198545 30.490418 
L 190.345976 28.689572 
L 190.494972 28.792455 
L 190.642343 28.226453 
L 190.790595 29.358457 
L 190.93751 28.792455 
L 191.085806 29.358393 
L 191.231444 28.509422 
L 191.378446 28.792518 
L 191.525868 29.358393 
L 191.673473 28.226453 
L 191.970324 31.056399 
L 192.118244 29.924395 
L 192.412745 31.05625 
L 192.560498 30.490333 
L 192.706819 30.49046 
L 193.002861 31.622464 
L 193.149238 32.754129 
L 193.297816 31.056462 
L 193.445497 31.05625 
L 193.593045 31.622294 
L 193.740183 31.056462 
L 193.886353 31.056462 
L 194.034983 32.754319 
L 194.181438 32.188233 
L 194.328862 34.452197 
L 194.477675 32.754234 
L 194.625294 33.320279 
L 194.772319 34.452155 
L 194.919133 32.188296 
L 195.213968 33.320257 
L 195.363046 32.188275 
L 195.658296 34.452197 
L 195.951924 33.320257 
L 196.099323 37.282058 
L 196.395738 35.018199 
L 196.544329 36.15016 
L 196.68974 35.584201 
L 196.837039 36.15016 
L 196.984386 35.301168 
L 197.133704 36.150139 
L 197.279807 35.89287 
L 197.429103 37.282058 
L 197.574456 32.754192 
L 197.721955 33.886238 
L 197.87058 33.320363 
L 198.017777 33.886238 
L 198.164869 33.320279 
L 198.31273 33.886196 
L 198.460025 33.55079 
L 198.755 35.01822 
L 198.902381 34.452261 
L 199.197248 32.754192 
L 199.345329 35.018199 
L 199.788829 35.018136 
L 199.936259 34.452197 
L 200.08332 36.150139 
L 200.3784 36.150203 
L 200.674102 37.282058 
L 200.821653 36.150203 
L 200.969172 36.15016 
L 201.1169 35.018263 
L 201.412409 37.56507 
L 201.707339 35.584095 
L 201.853506 38.98 
L 202.000954 38.414125 
L 202.296904 38.414083 
L 202.444338 36.716056 
L 202.592385 39.545938 
L 202.738319 40.112004 
L 203.034316 37.282058 
L 203.328995 39.546002 
L 203.475472 38.413998 
L 203.623926 38.414062 
L 203.772035 37.282058 
L 204.066548 40.11194 
L 204.21309 38.98 
L 204.509208 38.98 
L 204.657387 40.677963 
L 204.804589 40.677942 
L 204.952794 40.111982 
L 205.24644 41.809818 
L 205.393644 40.11194 
L 205.54116 40.677921 
L 205.689233 40.573089 
L 205.837852 39.545875 
L 206.131034 41.80984 
L 206.278586 40.677921 
L 206.426071 40.677878 
L 206.575547 40.523512 
L 206.722993 39.545875 
L 206.869964 40.11194 
L 207.016151 40.11194 
L 207.165727 40.677942 
L 207.314212 38.98 
L 207.458948 39.545938 
L 207.608042 41.243859 
L 207.901619 40.112004 
L 208.050864 40.112004 
L 208.197797 41.243795 
L 208.344479 39.545896 
L 208.491863 40.112004 
L 208.640421 41.243944 
L 208.788009 39.545896 
L 208.934538 40.216793 
L 209.082067 40.111961 
L 209.231111 38.98 
L 209.377686 39.546044 
L 209.524331 39.545896 
L 209.819774 41.809903 
L 209.966788 39.546002 
L 210.263641 39.545875 
L 210.410851 38.98 
L 210.851821 41.809861 
L 211.000074 39.546002 
L 211.149493 39.828971 
L 211.29541 38.98 
L 211.443147 39.545938 
L 211.591606 39.545938 
L 211.738816 38.413998 
L 212.033019 38.414125 
L 212.327353 36.150012 
L 212.475175 37.848081 
L 212.622343 37.282058 
L 212.769662 38.413977 
L 212.917466 36.716078 
L 213.066546 38.98 
L 213.212736 36.611204 
L 213.507684 38.98 
L 213.656743 38.98 
L 214.097709 40.394973 
L 214.245268 42.941801 
L 214.392543 42.941737 
L 214.835004 45.205744 
L 214.984559 44.639743 
L 215.279594 44.639743 
L 215.426139 45.205744 
L 215.573703 46.337706 
L 215.867954 46.337748 
L 216.015641 46.620696 
L 216.311776 49.167482 
L 216.459922 49.733441 
L 216.753206 47.469667 
L 216.902142 48.60148 
L 217.049635 48.035499 
L 217.197042 48.035626 
L 217.344822 47.469603 
L 217.492195 48.035626 
L 217.640334 46.903686 
L 217.786029 47.469667 
L 217.933141 46.337663 
L 218.08251 48.035584 
L 218.228457 45.771704 
L 218.375712 46.903665 
L 218.671702 45.668821 
L 218.818269 47.469603 
L 219.115775 44.073783 
L 219.263276 45.771661 
L 219.408894 45.205681 
L 219.558097 43.507781 
L 219.705114 45.205723 
L 219.998708 43.507845 
L 220.146138 45.205744 
L 220.293516 43.507803 
L 220.441229 44.639764 
L 220.58864 44.6397 
L 220.885423 45.771598 
L 221.032706 44.073741 
L 221.181693 45.205744 
L 221.326958 44.073677 
L 221.473687 46.337536 
L 221.62319 44.639743 
L 221.771179 45.205681 
L 221.91642 46.697773 
L 222.063892 45.205681 
L 222.211437 46.337684 
L 222.506529 44.639743 
L 222.803088 48.035605 
L 222.949461 44.639743 
L 223.245164 45.771598 
L 223.391554 46.903601 
L 223.688102 45.771683 
L 223.836677 46.337642 
L 223.983387 45.205744 
L 224.12998 46.337684 
L 224.277039 45.205744 
L 224.720277 45.205766 
L 224.867595 44.073762 
L 225.16385 44.073741 
L 225.31079 43.507803 
L 225.458245 41.809882 
L 225.606593 42.375841 
L 225.754308 44.639743 
L 225.901345 42.375841 
L 226.04727 43.507803 
L 226.194717 41.243901 
L 226.342328 44.073762 
L 226.489909 41.809861 
L 226.638193 44.639743 
L 226.932156 42.375841 
L 227.081722 41.809861 
L 227.37514 41.80984 
L 227.524207 41.243859 
L 227.671798 41.809797 
L 227.819005 41.243859 
L 227.965047 40.111876 
L 228.11376 42.375862 
L 228.260608 40.960869 
L 228.407472 41.243859 
L 228.555883 41.809797 
L 228.703095 40.677878 
L 228.851193 41.244134 
L 228.997489 42.941801 
L 229.146668 42.375862 
L 229.294363 40.677942 
L 229.441827 41.809797 
L 229.589169 41.243859 
L 229.736264 41.243859 
L 229.883068 40.0091 
L 230.030432 37.743122 
L 230.178407 40.111876 
L 230.325292 37.847996 
L 230.474156 37.282058 
L 230.62166 39.545938 
L 230.769573 39.545938 
L 230.915785 38.98 
L 231.063214 39.545875 
L 231.359434 38.413998 
L 231.507342 39.545938 
L 231.653098 39.262969 
L 231.949091 37.282122 
L 232.097 38.414019 
L 232.244851 35.018242 
L 232.39086 37.282122 
L 232.538299 37.282101 
L 232.685759 36.71612 
L 232.982345 37.84806 
L 233.128392 37.282058 
L 233.277492 37.848039 
L 233.425015 37.282079 
L 233.570903 37.84806 
L 233.718568 37.84806 
L 234.014601 38.98 
L 234.161226 37.848081 
L 234.309234 38.414062 
L 234.456315 37.848039 
L 234.604253 36.716099 
L 234.752259 38.98 
L 234.898365 38.413998 
L 235.047144 38.413998 
L 235.193486 37.282058 
L 235.342335 37.282058 
L 235.488405 38.413998 
L 235.636091 38.413998 
L 235.931147 40.677942 
L 236.373718 37.847996 
L 236.522695 38.466435 
L 236.66984 37.282058 
L 236.81631 35.018199 
L 236.964941 37.282058 
L 237.111182 36.715993 
L 237.406142 35.018199 
L 237.553609 38.414062 
L 237.70234 37.847996 
L 237.849786 36.716056 
L 237.996184 37.282058 
L 238.145012 39.546002 
L 238.291318 38.98 
L 238.73478 38.98 
L 238.882007 39.546002 
L 239.029287 36.716056 
L 239.176768 40.523618 
L 239.324546 38.414041 
L 239.471303 38.98 
L 239.618942 40.677942 
L 239.915079 38.414019 
L 240.062524 40.677942 
L 240.356851 37.84806 
L 240.505024 38.98 
L 240.651408 37.848039 
L 240.798965 38.414019 
L 240.946717 37.84806 
L 241.094568 37.848039 
L 241.242245 38.98 
L 241.389105 37.848039 
L 241.537095 39.546044 
L 241.684006 38.98 
L 241.979047 41.243859 
L 242.27432 38.98 
L 242.421731 40.677963 
L 242.569117 38.98 
L 242.864857 40.11194 
L 243.01185 38.98 
L 243.306716 38.98 
L 243.454948 37.84806 
L 243.602281 37.84806 
L 243.749372 38.413998 
L 243.897364 39.546065 
L 244.191788 38.413998 
L 244.340109 39.546065 
L 244.487333 37.84806 
L 244.634338 38.414125 
L 244.93 37.847996 
L 245.224798 36.715993 
L 245.372415 36.715993 
L 245.519963 37.282058 
L 245.667622 36.715993 
L 245.814923 35.583989 
L 246.109711 35.584138 
L 246.553276 38.414062 
L 246.700095 36.716141 
L 246.84752 37.847996 
L 247.1425 37.848124 
L 247.1425 37.848124 
" clip-path="url(#p60a3149cfc)" style="fill: none; stroke: #0000ff; stroke-width: 2; stroke-linecap: square"/>
   </g>
   <g id="line2d_26">
    <path d="M 159.625 17.793333 
L 251.31 17.793333 
" clip-path="url(#p60a3149cfc)" style="fill: none; stroke-dasharray: 7.4,3.2; stroke-dashoffset: 0; stroke: #000000; stroke-opacity: 0.7; stroke-width: 2"/>
   </g>
   <g id="line2d_27">
    <path d="M 159.625 60.166667 
L 251.31 60.166667 
" clip-path="url(#p60a3149cfc)" style="fill: none; stroke-dasharray: 7.4,3.2; stroke-dashoffset: 0; stroke: #000000; stroke-opacity: 0.7; stroke-width: 2"/>
   </g>
   <g id="patch_8">
    <path d="M 159.625 70.76 
L 159.625 7.2 
" style="fill: none; stroke: #000000; stroke-width: 0.8; stroke-linejoin: miter; stroke-linecap: square"/>
   </g>
   <g id="patch_9">
    <path d="M 251.31 70.76 
L 251.31 7.2 
" style="fill: none; stroke: #000000; stroke-width: 0.8; stroke-linejoin: miter; stroke-linecap: square"/>
   </g>
   <g id="patch_10">
    <path d="M 159.625 70.76 
L 251.31 70.76 
" style="fill: none; stroke: #000000; stroke-width: 0.8; stroke-linejoin: miter; stroke-linecap: square"/>
   </g>
   <g id="patch_11">
    <path d="M 159.625 7.2 
L 251.31 7.2 
" style="fill: none; stroke: #000000; stroke-width: 0.8; stroke-linejoin: miter; stroke-linecap: square"/>
   </g>
  </g>
 </g>
 <defs>
  <clipPath id="pb3e4d3c038">
   <rect x="35.2" y="7.2" width="91.685" height="63.56"/>
  </clipPath>
  <clipPath id="p60a3149cfc">
   <rect x="159.625" y="7.2" width="91.685" height="63.56"/>
  </clipPath>
 </defs>
</svg>
