<?xml version="1.0" encoding="utf-8" standalone="no"?>
<!DOCTYPE svg PUBLIC "-//W3C//DTD SVG 1.1//EN"
  "http://www.w3.org/Graphics/SVG/1.1/DTD/svg11.dtd">
<svg xmlns:xlink="http://www.w3.org/1999/xlink" width="258.658439pt" height="95.859375pt" viewBox="0 0 258.658439 95.859375" xmlns="http://www.w3.org/2000/svg" version="1.1">
 <metadata>
  <rdf:RDF xmlns:dc="http://purl.org/dc/elements/1.1/" xmlns:cc="http://creativecommons.org/ns#" xmlns:rdf="http://www.w3.org/1999/02/22-rdf-syntax-ns#">
   <cc:Work>
    <dc:type rdf:resource="http://purl.org/dc/dcmitype/StillImage"/>
    <dc:date>2026-01-18T23:30:34.947205</dc:date>
    <dc:format>image/svg+xml</dc:format>
    <dc:creator>
     <cc:Agent>
      <dc:title>Matplotlib v3.6.3, https://matplotlib.org/</dc:title>
     </cc:Agent>
    </dc:creator>
   </cc:Work>
  </rdf:RDF>
 </metadata>
 <defs>
  <style type="text/css">*{stroke-linejoin: round; stroke-linecap: butt}</style>
 </defs>
 <g id="figure_1">
  <g id="patch_1">
   <path d="M 0 95.859375 
L 258.658439 95.859375 
L 258.658439 0 
L 0 0 
z
" style="fill: #ffffff"/>
  </g>
  <g id="axes_1">
   <g id="patch_2">
    <path d="M 35.2 70.76 
L 123.261709 70.76 
L 123.261709 7.2 
L 35.2 7.2 
z
" style="fill: #ffffff"/>
   </g>
   <g id="matplotlib.axis_1">
    <g id="xtick_1">
     <g id="line2d_1">
      <path d="M 39.202805 70.76 
L 39.202805 7.2 
" clip-path="url(#p0eabfc1999)" style="fill: none; stroke: #b0b0b0; stroke-opacity: 0.3; stroke-width: 0.8; stroke-linecap: square"/>
     </g>
     <g id="line2d_2">
      <defs>
       <path id="meb083c5917" d="M 0 0 
L 0 3.5 
" style="stroke: #000000; stroke-width: 0.8"/>
      </defs>
      <g>
       <use xlink:href="#meb083c5917" x="39.202805" y="70.76" style="stroke: #000000; stroke-width: 0.8"/>
      </g>
     </g>
     <g id="text_1">
      <!-- 0 -->
      <g transform="translate(36.202805 86.0925) scale(0.12 -0.12)">
       <defs>
        <path id="TimesNewRomanPSMT-30" d="M 231 2094 
Q 231 2819 450 3342 
Q 669 3866 1031 4122 
Q 1313 4325 1613 4325 
Q 2100 4325 2488 3828 
Q 2972 3213 2972 2159 
Q 2972 1422 2759 906 
Q 2547 391 2217 158 
Q 1888 -75 1581 -75 
Q 975 -75 572 641 
Q 231 1244 231 2094 
z
M 844 2016 
Q 844 1141 1059 588 
Q 1238 122 1591 122 
Q 1759 122 1940 273 
Q 2122 425 2216 781 
Q 2359 1319 2359 2297 
Q 2359 3022 2209 3506 
Q 2097 3866 1919 4016 
Q 1791 4119 1609 4119 
Q 1397 4119 1231 3928 
Q 1006 3669 925 3112 
Q 844 2556 844 2016 
z
" transform="scale(0.015625)"/>
       </defs>
       <use xlink:href="#TimesNewRomanPSMT-30"/>
      </g>
     </g>
    </g>
    <g id="xtick_2">
     <g id="line2d_3">
      <path d="M 121.033439 70.76 
L 121.033439 7.2 
" clip-path="url(#p0eabfc1999)" style="fill: none; stroke: #b0b0b0; stroke-opacity: 0.3; stroke-width: 0.8; stroke-linecap: square"/>
     </g>
     <g id="line2d_4">
      <g>
       <use xlink:href="#meb083c5917" x="121.033439" y="70.76" style="stroke: #000000; stroke-width: 0.8"/>
      </g>
     </g>
     <g id="text_2">
      <!-- 20 -->
      <g transform="translate(115.033439 86.0925) scale(0.12 -0.12)">
       <defs>
        <path id="TimesNewRomanPSMT-32" d="M 2934 816 
L 2638 0 
L 138 0 
L 138 116 
Q 1241 1122 1691 1759 
Q 2141 2397 2141 2925 
Q 2141 3328 1894 3587 
Q 1647 3847 1303 3847 
Q 991 3847 742 3664 
Q 494 3481 375 3128 
L 259 3128 
Q 338 3706 661 4015 
Q 984 4325 1469 4325 
Q 1984 4325 2329 3994 
Q 2675 3663 2675 3213 
Q 2675 2891 2525 2569 
Q 2294 2063 1775 1497 
Q 997 647 803 472 
L 1909 472 
Q 2247 472 2383 497 
Q 2519 522 2628 598 
Q 2738 675 2819 816 
L 2934 816 
z
" transform="scale(0.015625)"/>
       </defs>
       <use xlink:href="#TimesNewRomanPSMT-32"/>
       <use xlink:href="#TimesNewRomanPSMT-30" x="50"/>
      </g>
     </g>
    </g>
   </g>
   <g id="matplotlib.axis_2">
    <g id="ytick_1">
     <g id="line2d_5">
      <path d="M 35.2 67.870909 
L 123.261709 67.870909 
" clip-path="url(#p0eabfc1999)" style="fill: none; stroke: #b0b0b0; stroke-opacity: 0.3; stroke-width: 0.8; stroke-linecap: square"/>
     </g>
     <g id="line2d_6">
      <defs>
       <path id="m1861274035" d="M 0 0 
L -3.5 0 
" style="stroke: #000000; stroke-width: 0.8"/>
      </defs>
      <g>
       <use xlink:href="#m1861274035" x="35.2" y="67.870909" style="stroke: #000000; stroke-width: 0.8"/>
      </g>
     </g>
     <g id="text_3">
      <!-- 0.00 -->
      <g transform="translate(7.2 72.037159) scale(0.12 -0.12)">
       <defs>
        <path id="TimesNewRomanPSMT-2e" d="M 800 606 
Q 947 606 1047 504 
Q 1147 403 1147 259 
Q 1147 116 1045 14 
Q 944 -88 800 -88 
Q 656 -88 554 14 
Q 453 116 453 259 
Q 453 406 554 506 
Q 656 606 800 606 
z
" transform="scale(0.015625)"/>
       </defs>
       <use xlink:href="#TimesNewRomanPSMT-30"/>
       <use xlink:href="#TimesNewRomanPSMT-2e" x="50"/>
       <use xlink:href="#TimesNewRomanPSMT-30" x="75"/>
       <use xlink:href="#TimesNewRomanPSMT-30" x="125"/>
      </g>
     </g>
    </g>
    <g id="ytick_2">
     <g id="line2d_7">
      <path d="M 35.2 40.334883 
L 123.261709 40.334883 
" clip-path="url(#p0eabfc1999)" style="fill: none; stroke: #b0b0b0; stroke-opacity: 0.3; stroke-width: 0.8; stroke-linecap: square"/>
     </g>
     <g id="line2d_8">
      <g>
       <use xlink:href="#m1861274035" x="35.2" y="40.334883" style="stroke: #000000; stroke-width: 0.8"/>
      </g>
     </g>
     <g id="text_4">
      <!-- 0.25 -->
      <g transform="translate(7.2 44.501133) scale(0.12 -0.12)">
       <defs>
        <path id="TimesNewRomanPSMT-35" d="M 2778 4238 
L 2534 3706 
L 1259 3706 
L 981 3138 
Q 1809 3016 2294 2522 
Q 2709 2097 2709 1522 
Q 2709 1188 2573 903 
Q 2438 619 2231 419 
Q 2025 219 1772 97 
Q 1413 -75 1034 -75 
Q 653 -75 479 54 
Q 306 184 306 341 
Q 306 428 378 495 
Q 450 563 559 563 
Q 641 563 702 538 
Q 763 513 909 409 
Q 1144 247 1384 247 
Q 1750 247 2026 523 
Q 2303 800 2303 1197 
Q 2303 1581 2056 1914 
Q 1809 2247 1375 2428 
Q 1034 2569 447 2591 
L 1259 4238 
L 2778 4238 
z
" transform="scale(0.015625)"/>
       </defs>
       <use xlink:href="#TimesNewRomanPSMT-30"/>
       <use xlink:href="#TimesNewRomanPSMT-2e" x="50"/>
       <use xlink:href="#TimesNewRomanPSMT-32" x="75"/>
       <use xlink:href="#TimesNewRomanPSMT-35" x="125"/>
      </g>
     </g>
    </g>
    <g id="ytick_3">
     <g id="line2d_9">
      <path d="M 35.2 12.798856 
L 123.261709 12.798856 
" clip-path="url(#p0eabfc1999)" style="fill: none; stroke: #b0b0b0; stroke-opacity: 0.3; stroke-width: 0.8; stroke-linecap: square"/>
     </g>
     <g id="line2d_10">
      <g>
       <use xlink:href="#m1861274035" x="35.2" y="12.798856" style="stroke: #000000; stroke-width: 0.8"/>
      </g>
     </g>
     <g id="text_5">
      <!-- 0.50 -->
      <g transform="translate(7.2 16.965106) scale(0.12 -0.12)">
       <use xlink:href="#TimesNewRomanPSMT-30"/>
       <use xlink:href="#TimesNewRomanPSMT-2e" x="50"/>
       <use xlink:href="#TimesNewRomanPSMT-35" x="75"/>
       <use xlink:href="#TimesNewRomanPSMT-30" x="125"/>
      </g>
     </g>
    </g>
   </g>
   <g id="line2d_11">
    <path d="M 39.202805 12.798856 
L 110.394924 12.798856 
L 110.53072 13.347925 
L 112.439863 32.118903 
L 112.576338 32.058765 
L 112.985472 34.989259 
L 113.258157 37.817209 
L 113.803663 40.747813 
L 113.940127 41.017666 
L 115.303832 48.090129 
L 115.576639 50.806834 
L 115.985915 51.921932 
L 116.531358 53.648001 
L 116.804012 55.176581 
L 117.349582 56.297517 
L 117.485997 56.256654 
L 118.167872 57.485972 
L 118.304227 57.275707 
L 119.258904 59.055305 
L 119.258904 59.055305 
" clip-path="url(#p0eabfc1999)" style="fill: none; stroke: #ff0000; stroke-opacity: 0.8; stroke-width: 2; stroke-linecap: square"/>
   </g>
   <g id="line2d_12">
    <path d="M 39.202805 67.870909 
L 39.747764 67.870909 
L 40.022114 64.95209 
L 40.156854 59.844268 
L 40.293242 59.844157 
L 40.565981 53.276815 
L 40.702407 51.817406 
L 40.840198 53.276815 
L 41.111594 44.520359 
L 41.24898 43.790654 
L 41.384446 42.331245 
L 41.657224 37.223312 
L 41.794542 37.223312 
L 41.929904 36.493607 
L 42.067865 29.19667 
L 42.203016 30.655969 
L 42.339815 24.818332 
L 42.476816 26.277741 
L 42.611788 21.899513 
L 42.749951 23.358922 
L 42.884967 18.980584 
L 43.020984 18.980804 
L 43.157324 18.250879 
L 43.430258 11.683537 
L 43.566479 12.413462 
L 43.702865 10.953832 
L 43.839354 10.954053 
L 43.976211 10.224238 
L 44.112106 10.953942 
L 44.248439 10.224238 
L 44.385191 13.872761 
L 44.657745 10.953832 
L 44.795752 13.507854 
L 44.930387 13.142946 
L 45.066751 12.413242 
L 45.203149 13.143057 
L 45.339828 10.953832 
L 45.475925 10.953942 
L 45.612268 13.142946 
L 45.748635 12.413242 
L 45.886436 10.953942 
L 46.157863 13.143057 
L 46.294755 13.143057 
L 46.432089 13.872871 
L 46.566965 11.683537 
L 46.70343 13.142946 
L 46.839842 13.142946 
L 46.977343 12.413242 
L 47.113933 13.142946 
L 47.250354 11.683757 
L 47.385844 12.413242 
L 47.52167 14.602466 
L 47.794709 10.224348 
L 48.067294 13.872761 
L 48.340202 12.778259 
L 48.47634 14.602466 
L 48.613145 13.143057 
L 48.749133 13.143057 
L 48.886779 13.872761 
L 49.02201 11.683647 
L 49.158622 15.332171 
L 49.430983 11.683537 
L 49.567503 12.413352 
L 49.703752 13.872761 
L 49.840964 11.683757 
L 49.97662 13.142946 
L 50.11303 11.683757 
L 50.38582 15.332281 
L 50.522219 12.413242 
L 50.795236 14.602466 
L 50.931265 12.413352 
L 51.06771 12.048555 
L 51.204138 12.413242 
L 51.340468 12.413462 
L 51.477898 16.061765 
L 51.61323 12.413352 
L 51.749507 12.413462 
L 51.887274 11.683647 
L 52.158822 14.602576 
L 52.431494 12.413352 
L 52.569385 14.602466 
L 52.84065 10.953942 
L 52.978289 13.872541 
L 53.113452 13.872651 
L 53.249771 12.413352 
L 53.386233 13.143057 
L 53.522635 12.413242 
L 53.659077 12.811302 
L 53.932324 14.602576 
L 54.069453 14.602466 
L 54.205875 12.413352 
L 54.341579 12.413242 
L 54.477409 13.872761 
L 54.613768 13.143057 
L 54.750032 13.143057 
L 54.886554 13.872761 
L 55.022852 11.683647 
L 55.160577 13.872761 
L 55.295622 13.143057 
L 55.432103 15.332281 
L 55.706077 11.683537 
L 55.841513 12.413352 
L 55.978687 13.872761 
L 56.252251 12.413352 
L 56.387845 14.602466 
L 56.523123 14.602466 
L 56.660819 12.413352 
L 56.932298 13.507964 
L 57.068797 12.413462 
L 57.204978 12.413462 
L 57.342545 13.143057 
L 57.477864 13.143057 
L 57.614939 13.872761 
L 57.750618 12.413352 
L 57.887055 13.872982 
L 58.023287 10.953832 
L 58.159721 11.683537 
L 58.432423 13.872761 
L 58.570087 13.872651 
L 58.706687 12.567003 
L 58.842627 12.413352 
L 59.114418 13.872761 
L 59.252345 12.413242 
L 59.523579 13.872761 
L 59.659929 13.143167 
L 59.796312 11.683537 
L 59.934358 11.683757 
L 60.205495 13.872761 
L 60.341918 13.143057 
L 60.478278 13.143057 
L 60.616329 11.683647 
L 60.887455 13.872651 
L 61.160549 13.143167 
L 61.296557 13.143057 
L 61.433109 11.683647 
L 61.705753 11.683647 
L 61.842813 12.413352 
L 61.980075 12.413242 
L 62.114807 13.474811 
L 62.251281 12.413352 
L 62.387792 14.602576 
L 62.524786 11.683537 
L 62.796895 13.507964 
L 62.933141 12.413242 
L 63.207526 14.237559 
L 63.342484 15.332171 
L 63.47875 12.413462 
L 63.751627 15.332281 
L 63.889043 13.143167 
L 64.024298 13.143057 
L 64.161091 13.872761 
L 64.298059 13.142946 
L 64.435397 13.872871 
L 64.569897 12.413352 
L 64.707065 12.413462 
L 64.843587 13.143167 
L 64.978948 13.143057 
L 65.116173 14.602466 
L 65.251688 13.142946 
L 65.387804 13.872871 
L 65.524529 10.953942 
L 65.662443 13.872761 
L 65.797184 11.683757 
L 65.93362 13.143057 
L 66.071635 13.143057 
L 66.206318 12.413242 
L 66.478994 14.138098 
L 66.6154 12.413352 
L 66.888184 12.413352 
L 67.024589 13.143167 
L 67.161021 13.143167 
L 67.298789 12.413352 
L 67.434558 13.872651 
L 67.570441 10.953942 
L 67.706586 12.278205 
L 67.842874 12.413352 
L 67.980735 13.872871 
L 68.11728 10.953832 
L 68.252439 13.143057 
L 68.388578 11.683757 
L 68.662685 13.507964 
L 68.797732 13.143167 
L 69.070488 11.683757 
L 69.206944 12.413352 
L 69.343361 12.413462 
L 69.479602 13.872761 
L 69.752355 12.413352 
L 69.889845 13.872761 
L 70.025131 10.089091 
L 70.163078 13.143057 
L 70.298423 13.143057 
L 70.434364 12.413352 
L 70.57112 10.953832 
L 70.8436 13.872871 
L 70.979824 14.602576 
L 71.116113 12.413242 
L 71.252628 13.872761 
L 71.388913 13.872761 
L 71.526734 12.413352 
L 71.662327 13.872761 
L 71.935503 13.872871 
L 72.070793 11.683647 
L 72.207227 11.683647 
L 72.343889 14.602466 
L 72.618084 11.683647 
L 72.889139 13.143057 
L 73.02703 11.683647 
L 73.162841 14.602466 
L 73.298334 12.413352 
L 73.435366 15.332171 
L 73.572058 13.143057 
L 73.707661 13.872761 
L 73.844265 12.413352 
L 73.980599 13.142946 
L 74.253748 13.143167 
L 74.52574 11.683757 
L 74.662945 13.142946 
L 74.799455 10.953942 
L 75.072642 13.872651 
L 75.207996 11.776609 
L 75.344439 11.683757 
L 75.480616 13.872982 
L 75.616901 13.143057 
L 75.754015 13.872651 
L 76.02594 10.953942 
L 76.299017 13.507964 
L 76.435133 13.143057 
L 76.571514 12.278095 
L 76.709481 12.413242 
L 76.844294 11.683647 
L 76.980762 14.602466 
L 77.25427 11.683537 
L 77.389971 13.872651 
L 77.526828 13.872761 
L 77.662685 12.413462 
L 77.798978 13.872871 
L 77.935427 13.872761 
L 78.071752 13.143057 
L 78.208205 13.143057 
L 78.344643 12.413352 
L 78.481954 13.872761 
L 78.617313 10.954053 
L 78.890108 13.143057 
L 79.02644 13.143057 
L 79.163671 12.413352 
L 79.299465 12.413352 
L 79.435669 12.27435 
L 79.708359 14.602466 
L 79.844758 13.143057 
L 79.981226 13.143057 
L 80.117576 16.061875 
L 80.526859 11.683647 
L 80.663267 11.683757 
L 80.800122 14.602466 
L 80.935913 11.683757 
L 81.07227 13.872871 
L 81.208986 12.413352 
L 81.345028 13.143057 
L 81.619212 13.143057 
L 81.754184 13.872871 
L 81.890629 13.872982 
L 82.027033 10.953942 
L 82.300008 14.602686 
L 82.437426 13.872651 
L 82.572539 11.683757 
L 82.981603 15.332281 
L 83.118122 10.224238 
L 83.254518 12.413352 
L 83.391007 10.953942 
L 83.527238 13.143057 
L 83.663694 11.683647 
L 83.800026 11.484727 
L 83.936414 12.413462 
L 84.072765 11.683647 
L 84.34554 13.143277 
L 84.482012 11.683537 
L 84.754773 13.872761 
L 84.890956 13.143057 
L 85.027486 13.143057 
L 85.164058 11.683647 
L 85.301713 13.143057 
L 85.436573 11.683647 
L 85.573058 13.872761 
L 85.845752 11.683647 
L 85.982882 13.872761 
L 86.254845 13.872761 
L 86.391709 13.143057 
L 86.528166 13.143057 
L 86.664009 13.872761 
L 86.800422 10.954053 
L 87.075074 15.332171 
L 87.2104 11.683647 
L 87.347031 11.683537 
L 87.89147 14.602576 
L 88.165805 12.148015 
L 88.301903 13.143057 
L 88.437216 13.143167 
L 88.573416 11.54839 
L 88.983544 13.872761 
L 89.118908 11.683647 
L 89.255309 12.413352 
L 89.391692 12.413242 
L 89.528036 13.143057 
L 89.665224 13.143057 
L 89.800869 13.872761 
L 89.937318 13.143057 
L 90.075083 11.683647 
L 90.210416 11.683757 
L 90.48286 13.143057 
L 90.619142 14.602466 
L 90.75563 13.872651 
L 90.892763 11.683757 
L 91.029588 13.143057 
L 91.166077 12.778149 
L 91.301002 13.872651 
L 91.574808 10.954053 
L 91.982958 15.332281 
L 92.392089 11.926845 
L 92.529836 13.872541 
L 92.802693 11.683647 
L 92.937677 13.872871 
L 93.075736 11.683647 
L 93.210501 13.872761 
L 93.347571 13.142946 
L 93.487041 13.872871 
L 93.621339 13.143057 
L 93.892323 13.143057 
L 94.029192 12.413352 
L 94.165087 13.737504 
L 94.439821 11.683647 
L 94.574961 15.33206 
L 94.847001 12.413242 
L 94.9834 12.413352 
L 95.120335 10.954053 
L 95.256179 13.143057 
L 95.392562 12.413352 
L 95.528887 12.413352 
L 95.665373 13.143057 
L 95.93902 11.683647 
L 96.076115 14.602466 
L 96.348529 11.683647 
L 96.619997 11.683537 
L 96.758098 11.484617 
L 97.029272 13.507854 
L 97.165521 13.143057 
L 97.301921 13.143057 
L 97.439748 12.413352 
L 97.575236 13.143057 
L 97.711036 14.602576 
L 97.847435 13.872761 
L 97.984663 13.872761 
L 98.120331 13.143057 
L 98.256982 14.602576 
L 98.393103 12.048444 
L 98.529414 15.332171 
L 98.803152 13.507964 
L 98.938458 12.413352 
L 99.074925 12.413242 
L 99.34897 13.872651 
L 99.620438 12.413352 
L 99.756795 13.143167 
L 99.893239 12.413572 
L 100.030612 13.143057 
L 100.166782 13.143057 
L 100.302787 12.413242 
L 100.43874 13.143167 
L 100.848248 13.142946 
L 100.984308 12.413242 
L 101.257099 12.413462 
L 101.393465 13.142946 
L 101.529861 12.048555 
L 101.66636 12.413242 
L 101.804033 13.143057 
L 101.940447 12.413352 
L 102.075723 14.602466 
L 102.349456 11.683647 
L 102.484549 13.872761 
L 102.757264 13.872871 
L 102.893695 12.778259 
L 103.030133 13.143057 
L 103.166533 13.143057 
L 103.302862 13.872761 
L 103.439491 12.413352 
L 103.712995 13.872761 
L 103.984733 11.683647 
L 104.258737 13.143057 
L 104.393809 11.683757 
L 104.530301 11.683537 
L 104.803 13.872651 
L 104.939562 11.683757 
L 105.075713 12.413242 
L 105.212939 12.413352 
L 105.348394 16.128292 
L 105.486095 10.953942 
L 105.621896 13.142946 
L 105.757513 10.224238 
L 106.03039 13.143057 
L 106.166898 13.143057 
L 106.303805 12.413352 
L 106.439441 13.143057 
L 106.576928 13.143167 
L 106.712212 13.872871 
L 106.984946 13.872761 
L 107.12127 11.683647 
L 107.394426 13.872871 
L 107.530439 13.143057 
L 107.666873 11.683757 
L 107.804095 12.413242 
L 108.07605 12.413462 
L 108.212329 11.683757 
L 108.349722 13.872871 
L 108.487646 12.413352 
L 108.621986 15.332171 
L 108.758125 11.683647 
L 108.894162 13.143057 
L 109.167737 13.143057 
L 109.3038 12.413352 
L 109.440192 13.872761 
L 109.575998 11.683647 
L 109.712514 13.4747 
L 109.848986 13.143057 
L 110.121638 14.602466 
L 110.25824 13.872761 
L 110.394924 11.683757 
L 110.667206 14.602466 
L 110.803444 13.143057 
L 110.939812 13.872761 
L 111.21323 17.521285 
L 111.348913 16.79147 
L 111.485256 21.169698 
L 111.621662 19.710399 
L 112.031384 29.926265 
L 112.167162 25.548257 
L 112.303621 29.926265 
L 112.439863 29.926265 
L 112.576338 29.19645 
L 112.712835 33.574898 
L 112.849005 32.845194 
L 112.985472 32.845194 
L 113.258157 37.953016 
L 113.530877 34.304603 
L 113.940127 43.061059 
L 114.076404 42.331134 
L 114.212895 42.331134 
L 114.349422 44.520469 
L 114.485568 43.061059 
L 114.622399 43.060949 
L 114.758544 43.790874 
L 114.894711 43.060839 
L 115.031068 46.709473 
L 115.167457 44.520469 
L 115.440192 45.979658 
L 115.576639 49.628181 
L 115.712969 47.439288 
L 115.849417 47.439288 
L 115.985915 51.087811 
L 116.122163 51.087701 
L 116.3949 54.371427 
L 116.531358 53.871153 
L 116.667711 52.547221 
L 117.076758 56.195634 
L 117.213149 53.276815 
L 117.485997 55.465929 
L 117.895503 57.655043 
L 118.031459 57.655043 
L 118.167872 58.384528 
L 118.304227 57.655153 
L 118.440597 58.384638 
L 118.576966 58.384748 
L 118.713366 57.655043 
L 118.849737 59.114343 
L 118.98634 59.114343 
L 119.122653 58.384638 
L 119.258904 59.114343 
L 119.258904 59.114343 
" clip-path="url(#p0eabfc1999)" style="fill: none; stroke: #0000ff; stroke-width: 2; stroke-linecap: square"/>
   </g>
   <g id="line2d_13">
    <path d="M 35.2 12.798856 
L 123.261709 12.798856 
" clip-path="url(#p0eabfc1999)" style="fill: none; stroke-dasharray: 3.7,1.6; stroke-dashoffset: 0; stroke: #000000; stroke-opacity: 0.7"/>
   </g>
   <g id="patch_3">
    <path d="M 35.2 70.76 
L 35.2 7.2 
" style="fill: none; stroke: #000000; stroke-width: 0.8; stroke-linejoin: miter; stroke-linecap: square"/>
   </g>
   <g id="patch_4">
    <path d="M 123.261709 70.76 
L 123.261709 7.2 
" style="fill: none; stroke: #000000; stroke-width: 0.8; stroke-linejoin: miter; stroke-linecap: square"/>
   </g>
   <g id="patch_5">
    <path d="M 35.2 70.76 
L 123.261709 70.76 
" style="fill: none; stroke: #000000; stroke-width: 0.8; stroke-linejoin: miter; stroke-linecap: square"/>
   </g>
   <g id="patch_6">
    <path d="M 35.2 7.2 
L 123.261709 7.2 
" style="fill: none; stroke: #000000; stroke-width: 0.8; stroke-linejoin: miter; stroke-linecap: square"/>
   </g>
  </g>
  <g id="axes_2">
   <g id="patch_7">
    <path d="M 159.625 70.76 
L 247.686709 70.76 
L 247.686709 7.2 
L 159.625 7.2 
z
" style="fill: #ffffff"/>
   </g>
   <g id="matplotlib.axis_3">
    <g id="xtick_3">
     <g id="line2d_14">
      <path d="M 163.627805 70.76 
L 163.627805 7.2 
" clip-path="url(#p4b929abf90)" style="fill: none; stroke: #b0b0b0; stroke-opacity: 0.3; stroke-width: 0.8; stroke-linecap: square"/>
     </g>
     <g id="line2d_15">
      <g>
       <use xlink:href="#meb083c5917" x="163.627805" y="70.76" style="stroke: #000000; stroke-width: 0.8"/>
      </g>
     </g>
     <g id="text_6">
      <!-- 0 -->
      <g transform="translate(160.627805 86.0925) scale(0.12 -0.12)">
       <use xlink:href="#TimesNewRomanPSMT-30"/>
      </g>
     </g>
    </g>
    <g id="xtick_4">
     <g id="line2d_16">
      <path d="M 245.458439 70.76 
L 245.458439 7.2 
" clip-path="url(#p4b929abf90)" style="fill: none; stroke: #b0b0b0; stroke-opacity: 0.3; stroke-width: 0.8; stroke-linecap: square"/>
     </g>
     <g id="line2d_17">
      <g>
       <use xlink:href="#meb083c5917" x="245.458439" y="70.76" style="stroke: #000000; stroke-width: 0.8"/>
      </g>
     </g>
     <g id="text_7">
      <!-- 20 -->
      <g transform="translate(239.458439 86.0925) scale(0.12 -0.12)">
       <use xlink:href="#TimesNewRomanPSMT-32"/>
       <use xlink:href="#TimesNewRomanPSMT-30" x="50"/>
      </g>
     </g>
    </g>
   </g>
   <g id="matplotlib.axis_4">
    <g id="ytick_4">
     <g id="line2d_18">
      <path d="M 159.625 60.166667 
L 247.686709 60.166667 
" clip-path="url(#p4b929abf90)" style="fill: none; stroke: #b0b0b0; stroke-opacity: 0.3; stroke-width: 0.8; stroke-linecap: square"/>
     </g>
     <g id="line2d_19">
      <g>
       <use xlink:href="#m1861274035" x="159.625" y="60.166667" style="stroke: #000000; stroke-width: 0.8"/>
      </g>
     </g>
     <g id="text_8">
      <!-- −1 -->
      <g transform="translate(139.858125 64.332917) scale(0.12 -0.12)">
       <defs>
        <path id="TimesNewRomanPSMT-2212" d="M 3484 2000 
L 116 2000 
L 116 2256 
L 3484 2256 
L 3484 2000 
z
" transform="scale(0.015625)"/>
        <path id="TimesNewRomanPSMT-31" d="M 750 3822 
L 1781 4325 
L 1884 4325 
L 1884 747 
Q 1884 391 1914 303 
Q 1944 216 2037 169 
Q 2131 122 2419 116 
L 2419 0 
L 825 0 
L 825 116 
Q 1125 122 1212 167 
Q 1300 213 1334 289 
Q 1369 366 1369 747 
L 1369 3034 
Q 1369 3497 1338 3628 
Q 1316 3728 1258 3775 
Q 1200 3822 1119 3822 
Q 1003 3822 797 3725 
L 750 3822 
z
" transform="scale(0.015625)"/>
       </defs>
       <use xlink:href="#TimesNewRomanPSMT-2212"/>
       <use xlink:href="#TimesNewRomanPSMT-31" x="56.396484"/>
      </g>
     </g>
    </g>
    <g id="ytick_5">
     <g id="line2d_20">
      <path d="M 159.625 38.98 
L 247.686709 38.98 
" clip-path="url(#p4b929abf90)" style="fill: none; stroke: #b0b0b0; stroke-opacity: 0.3; stroke-width: 0.8; stroke-linecap: square"/>
     </g>
     <g id="line2d_21">
      <g>
       <use xlink:href="#m1861274035" x="159.625" y="38.98" style="stroke: #000000; stroke-width: 0.8"/>
      </g>
     </g>
     <g id="text_9">
      <!-- 0 -->
      <g transform="translate(146.625 43.14625) scale(0.12 -0.12)">
       <use xlink:href="#TimesNewRomanPSMT-30"/>
      </g>
     </g>
    </g>
    <g id="ytick_6">
     <g id="line2d_22">
      <path d="M 159.625 17.793333 
L 247.686709 17.793333 
" clip-path="url(#p4b929abf90)" style="fill: none; stroke: #b0b0b0; stroke-opacity: 0.3; stroke-width: 0.8; stroke-linecap: square"/>
     </g>
     <g id="line2d_23">
      <g>
       <use xlink:href="#m1861274035" x="159.625" y="17.793333" style="stroke: #000000; stroke-width: 0.8"/>
      </g>
     </g>
     <g id="text_10">
      <!-- 1 -->
      <g transform="translate(146.625 21.959583) scale(0.12 -0.12)">
       <use xlink:href="#TimesNewRomanPSMT-31"/>
      </g>
     </g>
    </g>
   </g>
   <g id="line2d_24">
    <path d="M 163.627805 38.98 
L 166.628016 38.89894 
L 167.309967 38.840104 
L 167.991479 38.814808 
L 168.810191 38.83663 
L 169.764828 39.002712 
L 169.900925 39.350915 
L 170.311436 39.378055 
L 170.447455 39.31833 
L 170.719755 38.792095 
L 171.675354 38.605356 
L 171.94667 38.076749 
L 172.219709 38.075012 
L 172.355911 37.932658 
L 172.629048 38.070478 
L 172.90134 38.534826 
L 173.311779 39.300448 
L 173.719756 39.288774 
L 173.855983 39.205956 
L 174.128752 38.95394 
L 174.265964 38.943771 
L 174.40162 38.732582 
L 175.220236 38.987246 
L 175.356265 38.789341 
L 175.629138 38.824299 
L 175.902898 39.074704 
L 176.994385 39.480726 
L 177.26565 39.404517 
L 177.403289 39.414051 
L 177.811233 38.587856 
L 177.947635 38.064736 
L 178.220311 37.973888 
L 178.357324 37.821365 
L 179.175032 38.047045 
L 179.447852 38.055138 
L 180.131077 38.655187 
L 180.266513 39.402356 
L 180.677251 39.684732 
L 180.948123 39.894014 
L 181.085819 40.367282 
L 181.357298 40.353023 
L 181.493797 40.636755 
L 181.902864 40.574064 
L 182.039939 41.117057 
L 182.584721 41.126336 
L 182.995087 40.254103 
L 183.131687 40.182619 
L 183.267627 40.248785 
L 183.403184 40.47527 
L 183.677345 40.509932 
L 183.948579 40.860105 
L 184.359358 40.84252 
L 185.041329 40.368108 
L 185.176268 40.4658 
L 185.858109 39.983401 
L 185.994289 40.08713 
L 186.130753 39.99946 
L 186.267813 39.057162 
L 186.539807 36.383849 
L 187.221895 32.361963 
L 187.358141 32.349929 
L 188.040288 29.624265 
L 188.723059 27.581086 
L 188.994897 27.06053 
L 189.268587 26.732878 
L 189.541173 26.723301 
L 189.949529 26.91449 
L 190.222184 27.280871 
L 190.35862 27.38833 
L 190.496635 27.16587 
L 190.767649 27.475428 
L 191.0404 27.983421 
L 191.178129 28.128338 
L 191.449589 28.963855 
L 191.723789 29.425936 
L 192.949957 32.271009 
L 193.087685 32.392875 
L 193.222732 32.287068 
L 193.495488 32.579826 
L 193.768361 33.069789 
L 193.904602 33.07142 
L 194.040992 32.878113 
L 194.859364 33.844903 
L 195.2686 34.337705 
L 195.541113 35.573417 
L 195.677628 35.75558 
L 195.813913 35.332016 
L 196.223392 35.777106 
L 196.360503 35.119069 
L 196.632227 35.413182 
L 196.768889 35.864691 
L 196.906018 36.886291 
L 197.177823 37.275469 
L 197.587841 38.21853 
L 197.860366 38.373129 
L 198.132661 38.944152 
L 198.541762 39.201337 
L 198.814413 39.577591 
L 199.087945 39.583015 
L 199.224455 39.352737 
L 199.497642 39.377059 
L 199.632996 39.645007 
L 199.769439 40.287556 
L 200.179015 40.287832 
L 200.45094 40.059651 
L 200.860133 39.808928 
L 200.996514 39.461319 
L 201.951828 39.476361 
L 202.223978 38.383744 
L 202.633205 38.540419 
L 203.042313 38.771735 
L 203.315108 38.891334 
L 203.588671 39.286804 
L 204.269758 39.39064 
L 204.542576 39.402568 
L 204.816597 39.36564 
L 205.088267 39.365004 
L 205.360913 39.229558 
L 205.770028 39.256083 
L 206.044212 39.393733 
L 206.315629 39.49795 
L 206.588338 39.885391 
L 206.862426 39.90804 
L 207.271258 38.891334 
L 207.543122 38.795083 
L 207.816007 38.536351 
L 208.225026 38.65773 
L 208.361414 38.220691 
L 208.77054 38.323679 
L 208.907012 38.235543 
L 209.452486 38.543428 
L 209.589058 39.028856 
L 209.998058 39.200108 
L 210.134319 39.872488 
L 210.545041 39.909459 
L 210.679845 39.797297 
L 210.953166 41.274029 
L 211.225422 43.106675 
L 211.500074 44.203509 
L 211.907332 46.351752 
L 212.590805 48.014228 
L 213.134825 48.856249 
L 213.271138 49.825709 
L 213.816692 50.309252 
L 214.225869 50.231328 
L 214.635416 50.007363 
L 214.90786 49.70022 
L 215.18063 48.981484 
L 216.135277 48.208404 
L 216.271611 48.423872 
L 216.407958 48.39188 
L 216.817089 47.591617 
L 217.090298 46.72093 
L 217.227693 46.51614 
L 217.500736 46.798749 
L 218.181018 45.64827 
L 218.727355 44.720909 
L 218.864821 44.541754 
L 218.999961 45.337229 
L 219.272001 44.905445 
L 219.4084 45.477569 
L 219.681179 45.050722 
L 219.817562 44.797265 
L 219.953887 45.049874 
L 220.36402 44.198912 
L 220.773529 43.09729 
L 220.909993 42.847541 
L 221.183098 41.901917 
L 221.454272 41.356932 
L 221.726921 40.639721 
L 222.136036 40.025096 
L 222.272435 39.931599 
L 222.409663 39.974841 
L 222.545331 40.348044 
L 222.681982 40.311921 
L 222.818103 40.125076 
L 223.090917 39.494709 
L 223.636351 38.941038 
L 223.77397 38.846439 
L 223.909062 39.265024 
L 224.181795 39.066018 
L 224.318239 39.20746 
L 224.591782 39.072226 
L 224.727787 39.478353 
L 225.545746 39.194769 
L 225.682099 39.365809 
L 226.909549 38.478745 
L 227.045923 37.962828 
L 227.318695 37.905836 
L 227.591533 38.122978 
L 227.727862 38.119715 
L 228.000883 38.34493 
L 228.409733 37.859691 
L 228.683737 37.78433 
L 228.818809 38.088126 
L 229.091629 38.060986 
L 229.228 40.506309 
L 230.046896 40.338171 
L 230.182513 40.638789 
L 230.45539 40.443914 
L 230.591898 40.747307 
L 231.409946 40.146962 
L 231.54627 40.218064 
L 231.682668 40.094631 
L 232.229095 39.193159 
L 232.912646 38.477728 
L 234.137514 37.554773 
L 234.546638 37.541341 
L 234.819924 37.623587 
L 235.092206 37.70791 
L 235.910256 39.132184 
L 236.046662 39.184388 
L 236.183039 39.945392 
L 236.456384 39.997702 
L 236.592162 40.560483 
L 236.864863 40.575674 
L 237.001338 39.718504 
L 237.683157 39.500366 
L 238.228663 39.9866 
L 238.365127 40.658302 
L 238.637895 40.662878 
L 238.774422 41.348097 
L 239.183544 41.305279 
L 239.456068 40.804511 
L 240.274417 40.584742 
L 240.547163 40.252111 
L 240.956358 40.102618 
L 241.092711 39.797869 
L 241.638149 39.742381 
L 242.047609 41.714754 
L 242.320503 41.799776 
L 242.456459 41.791704 
L 242.592872 41.947913 
L 242.729227 42.495927 
L 243.138366 42.405757 
L 243.683904 42.142089 
L 243.683904 42.142089 
" clip-path="url(#p4b929abf90)" style="fill: none; stroke: #ff0000; stroke-opacity: 0.8; stroke-width: 2; stroke-linecap: square"/>
   </g>
   <g id="line2d_25">
    <path d="M 163.627805 38.98 
L 164.447114 38.98 
L 164.581854 39.545938 
L 164.718242 38.414041 
L 164.855141 38.414041 
L 164.990981 40.112004 
L 165.127407 38.414041 
L 165.265198 38.98 
L 165.400336 40.112004 
L 165.536594 37.847996 
L 165.67398 38.413956 
L 165.809446 40.677899 
L 166.082224 39.545959 
L 166.219542 41.243944 
L 166.492865 38.414041 
L 166.764815 38.414041 
L 166.901816 39.545981 
L 167.036788 38.414062 
L 167.445984 38.414062 
L 167.582324 38.98 
L 167.718748 38.414041 
L 167.991479 40.111961 
L 168.127865 40.111898 
L 168.401211 38.414041 
L 168.537106 37.84806 
L 168.810191 40.11194 
L 168.947116 39.545938 
L 169.082745 37.847933 
L 169.220752 38.69701 
L 169.355387 38.413998 
L 169.491751 37.84806 
L 169.628149 38.413998 
L 169.764828 37.84806 
L 169.900925 37.847933 
L 170.037268 38.414125 
L 170.173635 40.11194 
L 170.447455 37.84806 
L 170.582863 40.677942 
L 170.719755 39.545875 
L 170.857089 40.111898 
L 170.991965 39.545959 
L 171.264842 39.546044 
L 171.402343 38.98 
L 171.538933 39.546044 
L 171.675354 38.413956 
L 171.94667 39.546002 
L 172.085992 37.848081 
L 172.219709 38.413977 
L 172.355911 38.413998 
L 172.492294 38.98 
L 172.629048 38.413998 
L 172.765202 38.696989 
L 172.90134 37.282122 
L 173.038145 37.282037 
L 173.311779 38.98 
L 173.44701 38.413998 
L 173.719756 39.262969 
L 173.855983 39.545917 
L 173.992503 37.848039 
L 174.265964 39.546044 
L 174.40162 38.413956 
L 174.67437 38.414041 
L 174.81082 40.112046 
L 174.947219 38.98 
L 175.083476 40.11194 
L 175.220236 39.545959 
L 175.356265 40.112004 
L 175.629138 38.98 
L 175.765468 38.98 
L 176.03823 37.847996 
L 176.174507 38.98 
L 176.312274 38.413998 
L 176.447299 39.546065 
L 176.583822 39.546002 
L 176.721173 38.413998 
L 176.994385 39.545938 
L 177.130661 39.545938 
L 177.26565 38.98 
L 177.538452 38.98 
L 177.674771 40.111961 
L 177.811233 38.413956 
L 178.220311 40.112004 
L 178.357324 39.545959 
L 178.630875 36.71612 
L 178.766579 38.98 
L 178.902409 37.84806 
L 179.038768 38.413998 
L 179.175032 39.545959 
L 179.585577 37.84806 
L 179.857103 38.98 
L 179.993373 37.848039 
L 180.131077 38.414041 
L 180.266513 37.848039 
L 180.403687 37.848039 
L 180.53895 39.546023 
L 180.677251 38.98 
L 180.812845 39.545959 
L 180.948123 38.414062 
L 181.220772 40.677899 
L 181.493797 38.98 
L 181.629978 41.244028 
L 181.767545 40.677899 
L 181.902864 40.677942 
L 182.039939 41.243838 
L 182.175618 40.112004 
L 182.448287 40.11194 
L 182.584721 39.545938 
L 182.72111 39.546002 
L 182.857423 40.11194 
L 182.995087 41.243859 
L 183.131687 40.767265 
L 183.267627 41.243859 
L 183.403184 40.677942 
L 183.539418 41.243944 
L 183.677345 40.11194 
L 183.948579 41.243944 
L 184.084929 40.677794 
L 184.359358 40.677942 
L 184.630495 40.112046 
L 184.766918 40.677963 
L 184.903278 41.809861 
L 185.041329 40.677899 
L 185.176268 40.677942 
L 185.312455 40.112004 
L 185.585549 40.677878 
L 185.721557 39.545959 
L 186.130753 39.546002 
L 186.267813 40.111961 
L 186.405075 38.98 
L 186.539807 40.009036 
L 186.676281 40.11194 
L 186.949786 37.282037 
L 187.085547 38.98 
L 187.358141 36.716056 
L 187.632526 35.301147 
L 187.767484 34.452219 
L 187.90375 34.452303 
L 188.176627 33.320321 
L 188.314043 35.018242 
L 188.586091 32.188317 
L 188.723059 31.622252 
L 188.994897 29.358436 
L 189.132065 28.792455 
L 189.268587 27.094598 
L 189.403948 28.226517 
L 189.676688 28.22639 
L 189.812804 27.660515 
L 190.087443 27.660451 
L 190.222184 27.094598 
L 190.496635 27.094598 
L 190.767649 27.943463 
L 190.903994 28.175012 
L 191.0404 26.528511 
L 191.178129 29.924395 
L 191.313184 28.792497 
L 191.449589 29.35833 
L 191.586021 28.226411 
L 191.723789 29.358436 
L 191.859558 28.792518 
L 191.995441 28.792434 
L 192.131586 30.029311 
L 192.267874 29.924395 
L 192.405735 28.792391 
L 192.677439 30.490333 
L 192.813578 30.490333 
L 193.087685 31.905264 
L 193.222732 32.754192 
L 193.360507 32.18819 
L 193.495488 32.754319 
L 193.631944 32.188402 
L 193.768361 32.188317 
L 193.904602 33.320194 
L 194.040992 31.622252 
L 194.177355 33.320257 
L 194.314845 32.188317 
L 194.723423 33.886196 
L 194.859364 33.320279 
L 194.99612 33.320151 
L 195.132246 35.01822 
L 195.541113 33.320194 
L 195.677628 34.452197 
L 195.813913 33.3203 
L 195.951734 34.452176 
L 196.087327 34.452197 
L 196.360503 36.716141 
L 196.495793 35.018136 
L 196.632227 36.150118 
L 196.768889 33.886238 
L 197.043084 37.282058 
L 197.177823 35.584138 
L 197.314139 36.150097 
L 197.587841 38.414041 
L 197.723334 37.848081 
L 197.860366 37.848018 
L 197.997058 38.413998 
L 198.132661 36.716078 
L 198.405599 39.546044 
L 198.541762 38.413998 
L 198.678748 38.414041 
L 198.814413 37.847996 
L 198.95074 39.545875 
L 199.087945 39.546002 
L 199.224455 38.98 
L 199.360052 38.98 
L 199.632996 40.983136 
L 199.769439 39.546065 
L 199.905616 40.112004 
L 200.041901 38.413935 
L 200.315508 39.545938 
L 200.45094 38.98 
L 200.587362 41.243859 
L 200.860133 37.282058 
L 201.134481 40.111876 
L 201.269294 38.413998 
L 201.405762 39.546002 
L 201.67927 39.545938 
L 201.814971 38.98 
L 202.087685 38.98 
L 202.223978 40.112004 
L 202.360427 38.98 
L 202.496752 38.98 
L 202.769643 37.848039 
L 202.906954 38.98 
L 203.042313 38.98 
L 203.315108 37.282058 
L 203.45144 38.98 
L 203.588671 38.98 
L 203.724465 40.11194 
L 203.997126 38.414019 
L 204.133359 39.546002 
L 205.225122 39.545938 
L 205.360913 38.413935 
L 205.49727 40.111898 
L 205.633986 37.847996 
L 205.770028 40.677942 
L 206.044212 38.413998 
L 206.315629 41.243795 
L 206.452033 38.98 
L 206.725008 40.677942 
L 206.862426 38.98 
L 206.997539 39.545938 
L 207.133911 39.545938 
L 207.271258 38.98 
L 207.543122 40.677794 
L 207.679518 37.847996 
L 207.816007 38.98 
L 207.952238 38.98 
L 208.088694 38.413998 
L 208.225026 38.465461 
L 208.361414 38.98 
L 208.77054 37.282164 
L 208.907012 38.414041 
L 209.044603 37.282058 
L 209.179773 37.848039 
L 209.315956 39.546002 
L 209.452486 37.282058 
L 209.589058 37.282101 
L 209.998058 41.243922 
L 210.134319 39.262969 
L 210.270752 39.545959 
L 210.407882 38.98 
L 210.545041 38.98 
L 210.679845 41.243901 
L 210.816709 40.677921 
L 210.953166 38.413998 
L 211.089009 40.11194 
L 211.225422 38.98 
L 211.361869 40.677942 
L 211.500074 38.98 
L 211.6354 40.677899 
L 211.772031 40.677963 
L 212.045253 42.941907 
L 212.31647 44.073698 
L 212.590805 46.18334 
L 212.862216 46.337684 
L 213.134825 48.035605 
L 213.271138 46.3376 
L 213.408544 49.167545 
L 213.680309 48.035605 
L 213.953036 50.865551 
L 214.090224 48.601543 
L 214.225869 49.733505 
L 214.362318 48.601543 
L 214.500083 50.865339 
L 214.635416 50.865551 
L 214.771448 49.167482 
L 214.90786 50.865508 
L 215.18063 49.167482 
L 215.317763 49.733632 
L 215.454588 48.601543 
L 215.591077 48.884534 
L 215.726002 46.903517 
L 215.863219 50.299422 
L 215.999808 48.035647 
L 216.135277 48.035605 
L 216.271611 48.601543 
L 216.407958 48.035647 
L 216.54445 48.035584 
L 216.68188 49.167482 
L 216.817089 47.155045 
L 216.954836 46.903538 
L 217.090298 46.903601 
L 217.362677 45.771746 
L 217.500736 46.337748 
L 217.635501 45.771683 
L 217.912041 46.903601 
L 218.046339 46.3376 
L 218.181018 46.3376 
L 218.454192 44.639743 
L 218.590087 45.876557 
L 218.864821 44.073741 
L 218.999961 44.639806 
L 219.135607 44.073783 
L 219.272001 44.63987 
L 219.545335 44.6397 
L 219.681179 45.205744 
L 219.817562 44.639743 
L 220.227353 44.639743 
L 220.36402 44.073762 
L 220.501115 45.205744 
L 220.773529 44.073804 
L 220.909993 42.941843 
L 221.044997 42.94178 
L 221.183098 43.610706 
L 221.318487 43.507781 
L 221.590521 41.809882 
L 221.726921 42.941801 
L 221.864748 41.809882 
L 222.000236 42.94178 
L 222.409663 40.11194 
L 222.545331 39.546002 
L 222.681982 40.677963 
L 222.818103 39.262906 
L 222.954414 40.111876 
L 223.090917 40.11194 
L 223.228152 39.26299 
L 223.363458 40.112004 
L 223.499925 40.111876 
L 223.636351 40.677942 
L 223.77397 37.847996 
L 224.045438 40.112004 
L 224.318239 37.848124 
L 224.455612 38.413935 
L 224.591782 38.41421 
L 224.86374 39.545938 
L 225.001425 40.677794 
L 225.136629 38.413998 
L 225.273248 38.414125 
L 225.409308 40.11194 
L 225.682099 37.848039 
L 225.818465 38.414125 
L 225.954861 39.828907 
L 226.229033 38.414062 
L 226.500723 39.545938 
L 226.774456 39.546002 
L 226.909549 37.84806 
L 227.045923 40.11194 
L 227.182264 37.847996 
L 227.318695 38.69701 
L 227.455133 37.282101 
L 227.727862 38.98 
L 228.000883 37.282058 
L 228.137995 40.11194 
L 228.273291 37.848102 
L 228.409733 39.545981 
L 228.683737 37.282058 
L 228.818809 38.414062 
L 228.955301 38.414041 
L 229.091629 37.84806 
L 229.228 37.847996 
L 229.500713 38.98 
L 229.637939 40.112004 
L 229.773394 37.950964 
L 230.046896 39.545875 
L 230.182513 39.545938 
L 230.318883 40.677942 
L 230.45539 40.111961 
L 230.591898 40.677942 
L 230.728805 40.111728 
L 230.864441 40.677942 
L 231.137212 38.98 
L 231.274511 41.243859 
L 231.54627 39.546002 
L 231.682668 39.546002 
L 231.955439 40.677942 
L 232.091873 40.677942 
L 232.229095 38.98 
L 232.365573 40.11194 
L 232.50105 38.98 
L 232.774722 40.111898 
L 233.046986 37.848039 
L 233.183125 38.414019 
L 233.319162 38.413998 
L 233.456403 37.282101 
L 233.592737 38.414019 
L 233.7288 37.848081 
L 233.865192 36.716099 
L 234.273986 38.414041 
L 234.411089 37.84806 
L 234.546638 38.414041 
L 234.68324 37.84806 
L 234.819924 38.414062 
L 234.95572 37.282101 
L 235.228444 39.545938 
L 235.364812 38.98 
L 235.50141 39.545938 
L 235.63823 39.545959 
L 235.773913 37.847975 
L 235.910256 40.111876 
L 236.046662 37.848102 
L 236.183039 37.848124 
L 236.456384 40.112067 
L 236.592162 38.98 
L 236.728621 40.677899 
L 236.864863 38.98 
L 237.001338 39.546002 
L 237.137835 39.546129 
L 237.274005 38.98 
L 237.410472 38.98 
L 237.547223 40.112004 
L 237.683157 39.546002 
L 237.955877 41.243944 
L 238.092269 40.11194 
L 238.228663 40.112131 
L 238.365127 38.98 
L 238.501404 39.54579 
L 238.637895 41.809797 
L 238.774422 40.112004 
L 239.047399 40.11194 
L 239.183544 40.677942 
L 239.319711 38.98 
L 239.728832 40.677942 
L 239.865192 38.98 
L 240.001639 39.545938 
L 240.137969 41.243732 
L 240.274417 38.98 
L 240.410915 41.809861 
L 240.8199 39.263033 
L 240.956358 40.782879 
L 241.092711 39.545938 
L 241.229012 39.828929 
L 241.501758 37.847996 
L 241.638149 41.244007 
L 241.774582 40.112004 
L 241.910997 40.677942 
L 242.047609 38.98 
L 242.456459 38.98 
L 242.592872 39.546065 
L 242.729227 41.243795 
L 242.865597 40.678005 
L 243.138366 42.375862 
L 243.41134 42.375862 
L 243.547653 41.809861 
L 243.683904 42.375862 
L 243.683904 42.375862 
" clip-path="url(#p4b929abf90)" style="fill: none; stroke: #0000ff; stroke-width: 2; stroke-linecap: square"/>
   </g>
   <g id="line2d_26">
    <path d="M 159.625 17.793333 
L 247.686709 17.793333 
" clip-path="url(#p4b929abf90)" style="fill: none; stroke-dasharray: 7.4,3.2; stroke-dashoffset: 0; stroke: #000000; stroke-opacity: 0.7; stroke-width: 2"/>
   </g>
   <g id="line2d_27">
    <path d="M 159.625 60.166667 
L 247.686709 60.166667 
" clip-path="url(#p4b929abf90)" style="fill: none; stroke-dasharray: 7.4,3.2; stroke-dashoffset: 0; stroke: #000000; stroke-opacity: 0.7; stroke-width: 2"/>
   </g>
   <g id="patch_8">
    <path d="M 159.625 70.76 
L 159.625 7.2 
" style="fill: none; stroke: #000000; stroke-width: 0.8; stroke-linejoin: miter; stroke-linecap: square"/>
   </g>
   <g id="patch_9">
    <path d="M 247.686709 70.76 
L 247.686709 7.2 
" style="fill: none; stroke: #000000; stroke-width: 0.8; stroke-linejoin: miter; stroke-linecap: square"/>
   </g>
   <g id="patch_10">
    <path d="M 159.625 70.76 
L 247.686709 70.76 
" style="fill: none; stroke: #000000; stroke-width: 0.8; stroke-linejoin: miter; stroke-linecap: square"/>
   </g>
   <g id="patch_11">
    <path d="M 159.625 7.2 
L 247.686709 7.2 
" style="fill: none; stroke: #000000; stroke-width: 0.8; stroke-linejoin: miter; stroke-linecap: square"/>
   </g>
  </g>
 </g>
 <defs>
  <clipPath id="p0eabfc1999">
   <rect x="35.2" y="7.2" width="88.061709" height="63.56"/>
  </clipPath>
  <clipPath id="p4b929abf90">
   <rect x="159.625" y="7.2" width="88.061709" height="63.56"/>
  </clipPath>
 </defs>
</svg>
