<?xml version="1.0" encoding="utf-8" standalone="no"?>
<!DOCTYPE svg PUBLIC "-//W3C//DTD SVG 1.1//EN"
  "http://www.w3.org/Graphics/SVG/1.1/DTD/svg11.dtd">
<svg xmlns:xlink="http://www.w3.org/1999/xlink" width="489.009375pt" height="200.205pt" viewBox="0 0 489.009375 200.205" xmlns="http://www.w3.org/2000/svg" version="1.1">
 <metadata>
  <rdf:RDF xmlns:dc="http://purl.org/dc/elements/1.1/" xmlns:cc="http://creativecommons.org/ns#" xmlns:rdf="http://www.w3.org/1999/02/22-rdf-syntax-ns#">
   <cc:Work>
    <dc:type rdf:resource="http://purl.org/dc/dcmitype/StillImage"/>
    <dc:date>2026-01-18T23:30:35.290986</dc:date>
    <dc:format>image/svg+xml</dc:format>
    <dc:creator>
     <cc:Agent>
      <dc:title>Matplotlib v3.6.3, https://matplotlib.org/</dc:title>
     </cc:Agent>
    </dc:creator>
   </cc:Work>
  </rdf:RDF>
 </metadata>
 <defs>
  <style type="text/css">*{stroke-linejoin: round; stroke-linecap: butt}</style>
 </defs>
 <g id="figure_1">
  <g id="patch_1">
   <path d="M 0 200.205 
L 489.009375 200.205 
L 489.009375 -0 
L 0 -0 
z
" style="fill: #ffffff"/>
  </g>
  <g id="axes_1">
   <g id="patch_2">
    <path d="M 50.099375 160.20625 
L 235.929375 160.20625 
L 235.929375 11.36625 
L 50.099375 11.36625 
z
" style="fill: #ffffff"/>
   </g>
   <g id="matplotlib.axis_1">
    <g id="xtick_1">
     <g id="line2d_1">
      <path d="M 58.546193 160.20625 
L 58.546193 11.36625 
" clip-path="url(#p149706fb16)" style="fill: none; stroke: #b0b0b0; stroke-opacity: 0.3; stroke-width: 0.8; stroke-linecap: square"/>
     </g>
     <g id="line2d_2">
      <defs>
       <path id="m0256bda8d9" d="M 0 0 
L 0 3.5 
" style="stroke: #000000; stroke-width: 0.8"/>
      </defs>
      <g>
       <use xlink:href="#m0256bda8d9" x="58.546193" y="160.20625" style="stroke: #000000; stroke-width: 0.8"/>
      </g>
     </g>
     <g id="text_1">
      <!-- 0 -->
      <g transform="translate(55.546193 175.53875) scale(0.12 -0.12)">
       <defs>
        <path id="TimesNewRomanPSMT-30" d="M 231 2094 
Q 231 2819 450 3342 
Q 669 3866 1031 4122 
Q 1313 4325 1613 4325 
Q 2100 4325 2488 3828 
Q 2972 3213 2972 2159 
Q 2972 1422 2759 906 
Q 2547 391 2217 158 
Q 1888 -75 1581 -75 
Q 975 -75 572 641 
Q 231 1244 231 2094 
z
M 844 2016 
Q 844 1141 1059 588 
Q 1238 122 1591 122 
Q 1759 122 1940 273 
Q 2122 425 2216 781 
Q 2359 1319 2359 2297 
Q 2359 3022 2209 3506 
Q 2097 3866 1919 4016 
Q 1791 4119 1609 4119 
Q 1397 4119 1231 3928 
Q 1006 3669 925 3112 
Q 844 2556 844 2016 
z
" transform="scale(0.015625)"/>
       </defs>
       <use xlink:href="#TimesNewRomanPSMT-30"/>
      </g>
     </g>
    </g>
    <g id="xtick_2">
     <g id="line2d_3">
      <path d="M 101.064883 160.20625 
L 101.064883 11.36625 
" clip-path="url(#p149706fb16)" style="fill: none; stroke: #b0b0b0; stroke-opacity: 0.3; stroke-width: 0.8; stroke-linecap: square"/>
     </g>
     <g id="line2d_4">
      <g>
       <use xlink:href="#m0256bda8d9" x="101.064883" y="160.20625" style="stroke: #000000; stroke-width: 0.8"/>
      </g>
     </g>
     <g id="text_2">
      <!-- 5 -->
      <g transform="translate(98.064883 175.53875) scale(0.12 -0.12)">
       <defs>
        <path id="TimesNewRomanPSMT-35" d="M 2778 4238 
L 2534 3706 
L 1259 3706 
L 981 3138 
Q 1809 3016 2294 2522 
Q 2709 2097 2709 1522 
Q 2709 1188 2573 903 
Q 2438 619 2231 419 
Q 2025 219 1772 97 
Q 1413 -75 1034 -75 
Q 653 -75 479 54 
Q 306 184 306 341 
Q 306 428 378 495 
Q 450 563 559 563 
Q 641 563 702 538 
Q 763 513 909 409 
Q 1144 247 1384 247 
Q 1750 247 2026 523 
Q 2303 800 2303 1197 
Q 2303 1581 2056 1914 
Q 1809 2247 1375 2428 
Q 1034 2569 447 2591 
L 1259 4238 
L 2778 4238 
z
" transform="scale(0.015625)"/>
       </defs>
       <use xlink:href="#TimesNewRomanPSMT-35"/>
      </g>
     </g>
    </g>
    <g id="xtick_3">
     <g id="line2d_5">
      <path d="M 143.583573 160.20625 
L 143.583573 11.36625 
" clip-path="url(#p149706fb16)" style="fill: none; stroke: #b0b0b0; stroke-opacity: 0.3; stroke-width: 0.8; stroke-linecap: square"/>
     </g>
     <g id="line2d_6">
      <g>
       <use xlink:href="#m0256bda8d9" x="143.583573" y="160.20625" style="stroke: #000000; stroke-width: 0.8"/>
      </g>
     </g>
     <g id="text_3">
      <!-- 10 -->
      <g transform="translate(137.583573 175.53875) scale(0.12 -0.12)">
       <defs>
        <path id="TimesNewRomanPSMT-31" d="M 750 3822 
L 1781 4325 
L 1884 4325 
L 1884 747 
Q 1884 391 1914 303 
Q 1944 216 2037 169 
Q 2131 122 2419 116 
L 2419 0 
L 825 0 
L 825 116 
Q 1125 122 1212 167 
Q 1300 213 1334 289 
Q 1369 366 1369 747 
L 1369 3034 
Q 1369 3497 1338 3628 
Q 1316 3728 1258 3775 
Q 1200 3822 1119 3822 
Q 1003 3822 797 3725 
L 750 3822 
z
" transform="scale(0.015625)"/>
       </defs>
       <use xlink:href="#TimesNewRomanPSMT-31"/>
       <use xlink:href="#TimesNewRomanPSMT-30" x="50"/>
      </g>
     </g>
    </g>
    <g id="xtick_4">
     <g id="line2d_7">
      <path d="M 186.102263 160.20625 
L 186.102263 11.36625 
" clip-path="url(#p149706fb16)" style="fill: none; stroke: #b0b0b0; stroke-opacity: 0.3; stroke-width: 0.8; stroke-linecap: square"/>
     </g>
     <g id="line2d_8">
      <g>
       <use xlink:href="#m0256bda8d9" x="186.102263" y="160.20625" style="stroke: #000000; stroke-width: 0.8"/>
      </g>
     </g>
     <g id="text_4">
      <!-- 15 -->
      <g transform="translate(180.102263 175.53875) scale(0.12 -0.12)">
       <use xlink:href="#TimesNewRomanPSMT-31"/>
       <use xlink:href="#TimesNewRomanPSMT-35" x="50"/>
      </g>
     </g>
    </g>
    <g id="xtick_5">
     <g id="line2d_9">
      <path d="M 228.620953 160.20625 
L 228.620953 11.36625 
" clip-path="url(#p149706fb16)" style="fill: none; stroke: #b0b0b0; stroke-opacity: 0.3; stroke-width: 0.8; stroke-linecap: square"/>
     </g>
     <g id="line2d_10">
      <g>
       <use xlink:href="#m0256bda8d9" x="228.620953" y="160.20625" style="stroke: #000000; stroke-width: 0.8"/>
      </g>
     </g>
     <g id="text_5">
      <!-- 20 -->
      <g transform="translate(222.620953 175.53875) scale(0.12 -0.12)">
       <defs>
        <path id="TimesNewRomanPSMT-32" d="M 2934 816 
L 2638 0 
L 138 0 
L 138 116 
Q 1241 1122 1691 1759 
Q 2141 2397 2141 2925 
Q 2141 3328 1894 3587 
Q 1647 3847 1303 3847 
Q 991 3847 742 3664 
Q 494 3481 375 3128 
L 259 3128 
Q 338 3706 661 4015 
Q 984 4325 1469 4325 
Q 1984 4325 2329 3994 
Q 2675 3663 2675 3213 
Q 2675 2891 2525 2569 
Q 2294 2063 1775 1497 
Q 997 647 803 472 
L 1909 472 
Q 2247 472 2383 497 
Q 2519 522 2628 598 
Q 2738 675 2819 816 
L 2934 816 
z
" transform="scale(0.015625)"/>
       </defs>
       <use xlink:href="#TimesNewRomanPSMT-32"/>
       <use xlink:href="#TimesNewRomanPSMT-30" x="50"/>
      </g>
     </g>
    </g>
    <g id="text_6">
     <!-- $t$ [s] -->
     <g transform="translate(133.474375 190.438125) scale(0.12 -0.12)">
      <defs>
       <path id="STIXGeneral-Italic-74" d="M 1894 2739 
L 1862 2534 
L 1325 2534 
L 768 435 
Q 755 384 755 346 
Q 755 243 851 243 
Q 928 243 1030 342 
Q 1133 442 1370 749 
L 1453 704 
Q 1158 256 969 93 
Q 781 -70 538 -70 
Q 243 -70 243 166 
Q 243 230 346 640 
L 845 2534 
L 365 2534 
L 358 2573 
Q 358 2688 570 2733 
Q 730 2771 992 2979 
Q 1254 3187 1421 3437 
Q 1459 3494 1510 3494 
Q 1568 3494 1568 3443 
Q 1568 3411 1562 3398 
L 1382 2739 
L 1894 2739 
z
" transform="scale(0.015625)"/>
       <path id="TimesNewRomanPSMT-20" transform="scale(0.015625)"/>
       <path id="TimesNewRomanPSMT-5b" d="M 1900 -1269 
L 525 -1269 
L 525 4334 
L 1900 4334 
L 1900 4088 
L 994 4088 
L 994 -1025 
L 1900 -1025 
L 1900 -1269 
z
" transform="scale(0.015625)"/>
       <path id="TimesNewRomanPSMT-73" d="M 2050 2947 
L 2050 1972 
L 1947 1972 
Q 1828 2431 1642 2597 
Q 1456 2763 1169 2763 
Q 950 2763 815 2647 
Q 681 2531 681 2391 
Q 681 2216 781 2091 
Q 878 1963 1175 1819 
L 1631 1597 
Q 2266 1288 2266 781 
Q 2266 391 1970 151 
Q 1675 -88 1309 -88 
Q 1047 -88 709 6 
Q 606 38 541 38 
Q 469 38 428 -44 
L 325 -44 
L 325 978 
L 428 978 
Q 516 541 762 319 
Q 1009 97 1316 97 
Q 1531 97 1667 223 
Q 1803 350 1803 528 
Q 1803 744 1651 891 
Q 1500 1038 1047 1263 
Q 594 1488 453 1669 
Q 313 1847 313 2119 
Q 313 2472 555 2709 
Q 797 2947 1181 2947 
Q 1350 2947 1591 2875 
Q 1750 2828 1803 2828 
Q 1853 2828 1881 2850 
Q 1909 2872 1947 2947 
L 2050 2947 
z
" transform="scale(0.015625)"/>
       <path id="TimesNewRomanPSMT-5d" d="M 234 4334 
L 1609 4334 
L 1609 -1272 
L 234 -1272 
L 234 -1025 
L 1141 -1025 
L 1141 4088 
L 234 4088 
L 234 4334 
z
" transform="scale(0.015625)"/>
      </defs>
      <use xlink:href="#STIXGeneral-Italic-74" transform="translate(0 0.28125)"/>
      <use xlink:href="#TimesNewRomanPSMT-20" transform="translate(27.799988 0.28125)"/>
      <use xlink:href="#TimesNewRomanPSMT-5b" transform="translate(52.799988 0.28125)"/>
      <use xlink:href="#TimesNewRomanPSMT-73" transform="translate(86.100769 0.28125)"/>
      <use xlink:href="#TimesNewRomanPSMT-5d" transform="translate(125.016785 0.28125)"/>
     </g>
    </g>
   </g>
   <g id="matplotlib.axis_2">
    <g id="ytick_1">
     <g id="line2d_11">
      <path d="M 50.099375 153.440795 
L 235.929375 153.440795 
" clip-path="url(#p149706fb16)" style="fill: none; stroke: #b0b0b0; stroke-opacity: 0.3; stroke-width: 0.8; stroke-linecap: square"/>
     </g>
     <g id="line2d_12">
      <defs>
       <path id="ma8b8269e22" d="M 0 0 
L -3.5 0 
" style="stroke: #000000; stroke-width: 0.8"/>
      </defs>
      <g>
       <use xlink:href="#ma8b8269e22" x="50.099375" y="153.440795" style="stroke: #000000; stroke-width: 0.8"/>
      </g>
     </g>
     <g id="text_7">
      <!-- 0.00 -->
      <g transform="translate(22.099375 157.607045) scale(0.12 -0.12)">
       <defs>
        <path id="TimesNewRomanPSMT-2e" d="M 800 606 
Q 947 606 1047 504 
Q 1147 403 1147 259 
Q 1147 116 1045 14 
Q 944 -88 800 -88 
Q 656 -88 554 14 
Q 453 116 453 259 
Q 453 406 554 506 
Q 656 606 800 606 
z
" transform="scale(0.015625)"/>
       </defs>
       <use xlink:href="#TimesNewRomanPSMT-30"/>
       <use xlink:href="#TimesNewRomanPSMT-2e" x="50"/>
       <use xlink:href="#TimesNewRomanPSMT-30" x="75"/>
       <use xlink:href="#TimesNewRomanPSMT-30" x="125"/>
      </g>
     </g>
    </g>
    <g id="ytick_2">
     <g id="line2d_13">
      <path d="M 50.099375 89.763172 
L 235.929375 89.763172 
" clip-path="url(#p149706fb16)" style="fill: none; stroke: #b0b0b0; stroke-opacity: 0.3; stroke-width: 0.8; stroke-linecap: square"/>
     </g>
     <g id="line2d_14">
      <g>
       <use xlink:href="#ma8b8269e22" x="50.099375" y="89.763172" style="stroke: #000000; stroke-width: 0.8"/>
      </g>
     </g>
     <g id="text_8">
      <!-- 0.25 -->
      <g transform="translate(22.099375 93.929422) scale(0.12 -0.12)">
       <use xlink:href="#TimesNewRomanPSMT-30"/>
       <use xlink:href="#TimesNewRomanPSMT-2e" x="50"/>
       <use xlink:href="#TimesNewRomanPSMT-32" x="75"/>
       <use xlink:href="#TimesNewRomanPSMT-35" x="125"/>
      </g>
     </g>
    </g>
    <g id="ytick_3">
     <g id="line2d_15">
      <path d="M 50.099375 26.085549 
L 235.929375 26.085549 
" clip-path="url(#p149706fb16)" style="fill: none; stroke: #b0b0b0; stroke-opacity: 0.3; stroke-width: 0.8; stroke-linecap: square"/>
     </g>
     <g id="line2d_16">
      <g>
       <use xlink:href="#ma8b8269e22" x="50.099375" y="26.085549" style="stroke: #000000; stroke-width: 0.8"/>
      </g>
     </g>
     <g id="text_9">
      <!-- 0.50 -->
      <g transform="translate(22.099375 30.251799) scale(0.12 -0.12)">
       <use xlink:href="#TimesNewRomanPSMT-30"/>
       <use xlink:href="#TimesNewRomanPSMT-2e" x="50"/>
       <use xlink:href="#TimesNewRomanPSMT-35" x="75"/>
       <use xlink:href="#TimesNewRomanPSMT-30" x="125"/>
      </g>
     </g>
    </g>
    <g id="text_10">
     <!-- $v$ [m/s] -->
     <g transform="translate(15.5325 102.64625) rotate(-90) scale(0.12 -0.12)">
      <defs>
       <path id="STIXGeneral-Italic-76" d="M 1325 448 
L 1523 653 
Q 1869 1005 2134 1456 
Q 2400 1907 2400 2131 
Q 2400 2208 2285 2317 
Q 2125 2458 2125 2605 
Q 2125 2701 2195 2761 
Q 2266 2822 2368 2822 
Q 2522 2822 2624 2704 
Q 2726 2586 2726 2445 
Q 2726 2074 2323 1453 
Q 1971 909 1562 474 
Q 1504 416 1421 326 
Q 1338 237 1299 192 
Q 1261 147 1200 86 
Q 1139 26 1110 -3 
Q 1082 -32 1043 -64 
Q 1005 -96 979 -105 
Q 954 -115 928 -115 
Q 870 -115 870 58 
L 870 211 
Q 870 1094 717 1990 
Q 653 2355 579 2470 
Q 506 2586 326 2586 
Q 198 2586 128 2579 
L 128 2662 
Q 480 2720 845 2797 
Q 915 2822 973 2822 
Q 1011 2822 1033 2739 
Q 1056 2656 1165 2093 
Q 1280 1510 1325 448 
z
" transform="scale(0.015625)"/>
       <path id="TimesNewRomanPSMT-6d" d="M 1050 2338 
Q 1363 2650 1419 2697 
Q 1559 2816 1721 2881 
Q 1884 2947 2044 2947 
Q 2313 2947 2506 2790 
Q 2700 2634 2766 2338 
Q 3088 2713 3309 2830 
Q 3531 2947 3766 2947 
Q 3994 2947 4170 2830 
Q 4347 2713 4450 2447 
Q 4519 2266 4519 1878 
L 4519 647 
Q 4519 378 4559 278 
Q 4591 209 4675 161 
Q 4759 113 4950 113 
L 4950 0 
L 3538 0 
L 3538 113 
L 3597 113 
Q 3781 113 3884 184 
Q 3956 234 3988 344 
Q 4000 397 4000 647 
L 4000 1878 
Q 4000 2228 3916 2372 
Q 3794 2572 3525 2572 
Q 3359 2572 3192 2489 
Q 3025 2406 2788 2181 
L 2781 2147 
L 2788 2013 
L 2788 647 
Q 2788 353 2820 281 
Q 2853 209 2943 161 
Q 3034 113 3253 113 
L 3253 0 
L 1806 0 
L 1806 113 
Q 2044 113 2133 169 
Q 2222 225 2256 338 
Q 2272 391 2272 647 
L 2272 1878 
Q 2272 2228 2169 2381 
Q 2031 2581 1784 2581 
Q 1616 2581 1450 2491 
Q 1191 2353 1050 2181 
L 1050 647 
Q 1050 366 1089 281 
Q 1128 197 1204 155 
Q 1281 113 1516 113 
L 1516 0 
L 100 0 
L 100 113 
Q 297 113 375 155 
Q 453 197 493 289 
Q 534 381 534 647 
L 534 1741 
Q 534 2213 506 2350 
Q 484 2453 437 2492 
Q 391 2531 309 2531 
Q 222 2531 100 2484 
L 53 2597 
L 916 2947 
L 1050 2947 
L 1050 2338 
z
" transform="scale(0.015625)"/>
       <path id="TimesNewRomanPSMT-2f" d="M 1794 4444 
L 259 -88 
L 9 -88 
L 1544 4444 
L 1794 4444 
z
" transform="scale(0.015625)"/>
      </defs>
      <use xlink:href="#STIXGeneral-Italic-76" transform="translate(0 0.5625)"/>
      <use xlink:href="#TimesNewRomanPSMT-20" transform="translate(44.399994 0.5625)"/>
      <use xlink:href="#TimesNewRomanPSMT-5b" transform="translate(69.399994 0.5625)"/>
      <use xlink:href="#TimesNewRomanPSMT-6d" transform="translate(102.700775 0.5625)"/>
      <use xlink:href="#TimesNewRomanPSMT-2f" transform="translate(180.483978 0.5625)"/>
      <use xlink:href="#TimesNewRomanPSMT-73" transform="translate(208.267181 0.5625)"/>
      <use xlink:href="#TimesNewRomanPSMT-5d" transform="translate(247.183197 0.5625)"/>
     </g>
    </g>
   </g>
   <g id="line2d_17">
    <path d="M 58.546193 26.085549 
L 204.525519 26.085549 
L 204.8073 28.434744 
L 205.373019 35.887828 
L 205.658162 37.786949 
L 206.50659 48.41016 
L 207.358691 56.575923 
L 208.208496 62.422803 
L 209.343588 72.193497 
L 210.192448 81.524307 
L 210.759169 86.168698 
L 211.892908 92.702531 
L 213.309266 101.099317 
L 213.876291 104.607955 
L 215.581453 111.779328 
L 218.412094 122.279259 
L 219.263067 124.778733 
L 219.829301 136.11335 
L 220.396551 137.808194 
L 220.963067 139.002276 
L 221.529686 139.601865 
L 221.813061 140.705271 
L 227.482557 140.705271 
L 227.482557 140.705271 
" clip-path="url(#p149706fb16)" style="fill: none; stroke: #ff0000; stroke-opacity: 0.8; stroke-linecap: square"/>
   </g>
   <g id="line2d_18">
    <path d="M 58.546193 153.440795 
L 59.679535 153.440795 
L 59.960576 124.754026 
L 60.247821 153.440795 
L 60.531439 141.628596 
L 60.811772 136.566225 
L 61.380283 121.379112 
L 61.664426 112.941827 
L 61.947983 112.941827 
L 62.513072 97.754714 
L 62.798003 96.067257 
L 63.080309 92.692343 
L 63.363868 94.3798 
L 63.646523 80.880144 
L 63.92959 77.50523 
L 64.212202 72.442859 
L 64.498344 70.755656 
L 64.780561 60.63066 
L 65.062903 55.568034 
L 65.630865 62.318117 
L 65.914199 48.818715 
L 66.196858 43.75609 
L 66.479792 33.631602 
L 66.763921 35.318804 
L 67.049404 26.881774 
L 67.330465 23.50686 
L 67.61368 25.193808 
L 67.900152 21.819403 
L 68.180542 22.506612 
L 68.464789 21.819403 
L 68.748011 18.131705 
L 69.031572 18.444489 
L 69.314969 28.568722 
L 69.881373 28.569231 
L 70.165484 26.037918 
L 70.448487 25.194062 
L 70.732495 25.194572 
L 71.015155 23.506351 
L 71.29886 23.506605 
L 71.582044 25.194062 
L 71.865897 28.568976 
L 72.15004 26.881519 
L 72.4335 28.568976 
L 72.71627 25.194062 
L 73.000679 23.506605 
L 73.283117 26.881265 
L 73.567813 26.881519 
L 73.853057 24.350461 
L 74.134118 25.194062 
L 74.700606 25.194062 
L 74.987291 28.568976 
L 75.269167 26.881519 
L 75.553783 23.506605 
L 75.837098 26.881519 
L 76.117649 26.881519 
L 76.401366 28.568976 
L 76.684769 21.819148 
L 76.968585 26.881519 
L 77.252376 26.881519 
L 77.53456 26.037918 
L 77.818074 26.881519 
L 78.101804 25.194062 
L 78.385073 28.568976 
L 78.669039 30.256433 
L 78.954987 25.194062 
L 79.235793 26.881519 
L 79.519982 23.506605 
L 79.80643 28.569231 
L 80.08633 28.568976 
L 80.369925 25.193808 
L 80.656641 24.069006 
L 80.94046 26.881774 
L 81.219856 25.193808 
L 82.070298 25.194062 
L 82.35642 24.881278 
L 82.637102 28.569231 
L 82.923489 24.881787 
L 83.204072 26.881519 
L 83.490285 23.506351 
L 83.771839 25.194572 
L 84.057111 23.50686 
L 84.33768 25.194062 
L 84.624209 30.256433 
L 84.908133 25.194572 
L 85.190802 25.194062 
L 85.471815 26.881519 
L 85.75849 25.193808 
L 86.041011 26.037664 
L 86.326149 25.194317 
L 86.608374 30.256433 
L 86.888918 28.568976 
L 87.174091 25.193808 
L 87.45899 28.568976 
L 87.739235 23.506605 
L 88.022901 30.256433 
L 88.306764 28.568976 
L 88.589662 21.819148 
L 88.873562 28.568976 
L 89.159493 28.568976 
L 89.441029 25.194062 
L 89.723767 24.350207 
L 90.007265 26.881519 
L 90.574192 23.506605 
L 90.860754 25.194062 
L 91.424245 31.94389 
L 91.70807 30.256688 
L 91.994295 25.194062 
L 92.275165 30.256433 
L 92.558893 26.881519 
L 92.842109 25.194062 
L 93.127487 26.881519 
L 93.415376 26.881519 
L 93.694966 23.506605 
L 93.977574 26.881265 
L 94.263185 26.881519 
L 94.543798 28.568722 
L 94.829279 26.881519 
L 95.394633 30.256179 
L 95.677687 25.193808 
L 95.960089 26.881519 
L 96.245255 26.881519 
L 96.527484 23.506351 
L 96.813227 23.506351 
L 97.095229 24.881787 
L 97.380866 21.819403 
L 97.943889 30.256433 
L 98.227353 26.881774 
L 98.512578 26.881519 
L 98.797429 25.194062 
L 99.078883 28.568976 
L 99.364715 28.568722 
L 99.64798 23.506605 
L 99.930511 25.194062 
L 100.212647 28.569231 
L 100.495107 26.881519 
L 100.779497 30.256433 
L 101.062318 26.881519 
L 101.345385 26.881519 
L 101.62881 31.94389 
L 101.916548 26.037918 
L 102.198906 23.506605 
L 102.481819 25.194062 
L 103.046516 25.194062 
L 103.329615 26.881519 
L 103.614871 30.256433 
L 103.899638 25.194062 
L 104.180708 26.881519 
L 104.467137 21.819148 
L 104.751467 21.819148 
L 105.033982 25.194062 
L 105.31464 23.506351 
L 105.597152 25.194062 
L 105.883136 20.131691 
L 106.167145 26.881265 
L 106.451341 30.256433 
L 106.731318 25.194062 
L 107.019505 25.194062 
L 107.298178 26.881519 
L 107.867107 28.568722 
L 108.148426 26.881519 
L 108.719558 25.194572 
L 109.001008 30.256433 
L 109.282706 28.569231 
L 109.571151 30.256433 
L 109.84936 23.50686 
L 110.133838 26.881519 
L 110.419527 24.881278 
L 110.699609 25.193808 
L 110.984042 28.568467 
L 111.270863 30.256179 
L 111.550232 26.881519 
L 112.117457 26.881519 
L 112.403137 21.819148 
L 112.685601 30.256433 
L 112.969209 26.881519 
L 113.537696 23.506351 
L 113.82003 28.569231 
L 114.100984 23.506605 
L 114.669373 23.506351 
L 115.234666 28.568976 
L 115.519261 21.819148 
L 115.801872 25.194062 
L 116.938127 25.194062 
L 117.222517 26.881519 
L 117.503865 23.506605 
L 117.789938 23.506605 
L 118.070666 21.819148 
L 118.352814 25.194062 
L 119.4873 25.194062 
L 119.772732 26.881774 
L 120.054235 21.819148 
L 120.339469 25.193808 
L 120.624897 25.194062 
L 120.903797 26.881519 
L 121.192571 26.881519 
L 121.475688 28.568722 
L 121.755573 28.568976 
L 122.60739 23.50686 
L 122.891948 30.256179 
L 123.174338 23.506605 
L 123.458254 26.881519 
L 123.738672 26.881265 
L 124.022738 30.716441 
L 124.307961 30.256433 
L 124.589972 25.193808 
L 124.873034 25.193808 
L 125.439092 28.569231 
L 125.724419 23.50686 
L 126.006212 26.881265 
L 126.292015 21.819148 
L 126.859529 30.256433 
L 127.142309 30.256433 
L 127.707164 23.506605 
L 127.992473 23.506605 
L 128.278781 26.568735 
L 128.559263 26.881265 
L 128.843554 23.506351 
L 129.124739 28.568722 
L 129.407681 25.194062 
L 129.97719 26.881519 
L 130.261335 26.881519 
L 130.826255 23.506351 
L 131.111099 23.506605 
L 131.393819 26.881519 
L 131.675408 28.568976 
L 131.959546 23.506605 
L 132.243158 30.256433 
L 132.528591 25.194317 
L 133.098026 25.194062 
L 133.378818 26.881519 
L 133.661385 25.193808 
L 133.947105 26.881774 
L 134.229521 25.194317 
L 134.511251 28.568976 
L 134.794762 26.881519 
L 135.081151 26.881774 
L 135.360848 30.256433 
L 135.643823 23.506605 
L 135.931755 21.506619 
L 136.210491 28.568976 
L 136.494968 26.037918 
L 136.780881 25.194062 
L 137.064967 26.881519 
L 137.344494 25.194317 
L 137.629867 26.881774 
L 137.914 25.193808 
L 138.196574 25.193808 
L 138.478183 28.568976 
L 138.76327 28.568722 
L 139.049388 26.881265 
L 139.613009 25.194062 
L 139.897547 26.881519 
L 140.179957 25.193808 
L 140.463505 25.194317 
L 140.75059 33.631093 
L 141.038046 26.881265 
L 141.313499 27.725375 
L 141.597109 30.256688 
L 141.88093 26.881774 
L 142.163755 26.881774 
L 142.446592 23.506605 
L 143.017159 26.881774 
L 143.299469 26.881774 
L 143.581817 28.568722 
L 143.867471 25.194062 
L 144.147995 23.506605 
L 144.431921 25.194317 
L 144.717905 25.194062 
L 145.002711 26.037918 
L 145.282042 23.506605 
L 145.851421 26.881519 
L 146.138368 21.819148 
L 146.415311 25.194317 
L 146.702431 23.506605 
L 146.985195 28.568976 
L 147.26695 26.881519 
L 147.549331 28.568976 
L 147.836196 26.037664 
L 148.116236 25.193808 
L 148.400377 25.194317 
L 148.684072 23.506605 
L 148.966643 26.881519 
L 149.25299 28.568976 
L 149.536685 28.568976 
L 149.819603 26.881519 
L 150.105656 20.131691 
L 150.386807 26.881519 
L 150.95449 25.194317 
L 151.520037 25.193808 
L 151.805198 23.506605 
L 152.087429 23.506096 
L 152.37027 28.568976 
L 152.651295 28.568976 
L 152.935338 33.631602 
L 153.502455 26.881519 
L 154.072673 26.881265 
L 154.352929 28.568976 
L 154.920633 28.568722 
L 155.489059 23.506605 
L 156.055806 26.881519 
L 156.339675 21.819403 
L 156.61955 26.881774 
L 156.904336 26.881519 
L 157.189827 27.725121 
L 157.473992 23.506351 
L 157.757525 25.193808 
L 158.040687 28.568976 
L 158.323737 25.194062 
L 158.608344 26.881519 
L 159.171393 26.881519 
L 159.457873 23.506605 
L 159.741039 27.648453 
L 160.024039 25.194062 
L 160.308358 28.568976 
L 160.872303 25.194062 
L 161.155708 25.194062 
L 161.439746 26.881519 
L 161.722708 30.256433 
L 162.006278 28.568976 
L 162.289693 21.819403 
L 162.578992 25.193808 
L 162.859057 25.194062 
L 163.142791 26.881519 
L 163.429221 26.881519 
L 163.990305 23.50686 
L 164.274653 26.881519 
L 164.558583 23.506605 
L 165.407528 28.569231 
L 165.693895 23.50686 
L 165.97666 28.568722 
L 166.26029 20.131691 
L 166.544238 21.819148 
L 166.827006 26.881519 
L 167.111997 26.88101 
L 167.394029 23.50686 
L 167.95811 26.881774 
L 168.247962 23.50686 
L 168.526897 25.194062 
L 168.813489 30.256433 
L 169.094203 26.881519 
L 169.378026 26.881774 
L 169.658554 23.506351 
L 169.945397 28.568722 
L 170.228608 25.194317 
L 170.509505 23.50686 
L 170.796241 26.881519 
L 171.076154 26.881519 
L 171.359608 28.568976 
L 171.646135 31.94389 
L 171.926175 25.194062 
L 172.493256 25.194062 
L 172.777847 26.881519 
L 173.063077 25.194062 
L 173.34588 21.819148 
L 173.630933 26.881519 
L 173.911155 25.194062 
L 174.194732 26.881519 
L 174.484747 21.819148 
L 174.764993 28.568976 
L 175.045038 26.881519 
L 175.32982 28.568976 
L 175.616274 23.506605 
L 175.895821 23.506605 
L 176.181657 26.881519 
L 176.468007 23.506605 
L 176.747141 25.194062 
L 177.032684 30.256433 
L 177.312979 28.568976 
L 177.600676 23.506605 
L 177.88003 30.256433 
L 178.449476 21.819148 
L 178.72982 24.350207 
L 179.017973 20.131691 
L 179.297544 30.256433 
L 179.579828 26.881265 
L 179.86408 26.881519 
L 180.147242 23.506351 
L 180.430247 25.194062 
L 180.717066 25.194062 
L 181.280949 28.569231 
L 181.84788 25.194062 
L 182.131841 25.194062 
L 182.416413 28.569231 
L 182.697846 25.194062 
L 182.982029 25.194062 
L 183.264741 26.881774 
L 183.551544 30.256688 
L 183.832104 26.881519 
L 184.68489 26.881519 
L 184.965627 23.50686 
L 185.25261 26.037664 
L 185.533183 26.881519 
L 185.819276 30.256433 
L 186.09905 26.881519 
L 186.384198 26.114586 
L 186.666127 26.881519 
L 187.235749 23.506605 
L 187.516654 26.881519 
L 187.802912 25.194062 
L 188.086647 26.881519 
L 188.36826 26.881519 
L 188.650546 28.568976 
L 188.934243 26.881519 
L 189.21884 21.819148 
L 189.784764 25.194062 
L 190.067581 28.568976 
L 190.352204 23.506605 
L 190.635092 21.819148 
L 190.918195 28.568976 
L 191.485451 28.568976 
L 191.768312 25.194317 
L 192.054341 26.881519 
L 192.336475 25.194062 
L 192.902131 28.568976 
L 193.185866 25.193808 
L 193.468868 28.568976 
L 193.753812 21.818894 
L 194.037839 26.881519 
L 194.319075 28.568722 
L 194.604781 27.725121 
L 194.88581 23.506351 
L 195.170711 24.881023 
L 195.454511 25.193808 
L 195.736308 25.193808 
L 196.022839 26.881519 
L 196.303071 26.881519 
L 196.586555 26.568225 
L 196.871542 26.881519 
L 197.155883 30.256179 
L 197.720544 23.50686 
L 198.006411 28.568976 
L 198.291626 30.256433 
L 198.572734 25.194317 
L 198.856121 23.506605 
L 199.140075 26.881774 
L 199.423652 26.881519 
L 199.704186 25.193808 
L 199.989487 28.568976 
L 200.273324 23.506605 
L 200.556358 26.881519 
L 200.837743 25.194062 
L 201.121799 25.194062 
L 201.407801 26.881519 
L 201.689134 26.881519 
L 201.972874 23.506605 
L 202.256398 28.568976 
L 202.539639 23.506605 
L 202.823009 25.194062 
L 203.105352 21.819148 
L 203.389653 26.881519 
L 203.672332 26.881519 
L 204.240675 23.506605 
L 204.525519 28.568976 
L 204.8073 25.194062 
L 205.090192 23.506605 
L 205.373019 25.193808 
L 205.93989 42.068633 
L 206.224605 37.006261 
L 206.50659 35.318804 
L 207.358691 53.881086 
L 207.640585 53.881086 
L 208.208496 65.693031 
L 208.490916 62.318371 
L 208.77634 67.380488 
L 209.058863 69.067945 
L 209.624706 62.318371 
L 209.908056 69.06769 
L 210.192448 70.754892 
L 211.042118 84.254803 
L 211.325719 94.379545 
L 211.609927 91.004886 
L 211.892908 97.755223 
L 212.175835 94.380055 
L 212.743085 96.067512 
L 213.026786 99.442426 
L 213.309266 96.067257 
L 213.593711 96.067002 
L 213.876291 97.755223 
L 214.160253 101.130137 
L 214.443669 101.129883 
L 214.726556 102.817085 
L 215.010515 106.192254 
L 215.293788 106.192254 
L 215.581453 116.316741 
L 215.860805 114.629284 
L 216.427957 112.941827 
L 216.710701 118.004198 
L 217.278328 116.316741 
L 217.562098 119.6914 
L 217.845112 118.004198 
L 218.129011 121.379367 
L 218.412094 123.066314 
L 218.695471 121.379112 
L 218.978746 123.066569 
L 219.263067 126.441229 
L 219.545714 124.754281 
L 219.829301 126.441483 
L 220.112333 124.754026 
L 220.396551 126.441483 
L 221.246908 139.941139 
L 221.529686 141.628342 
L 221.813061 145.003256 
L 222.096948 145.003765 
L 222.380276 143.316308 
L 222.946671 143.316308 
L 223.230274 141.628851 
L 223.514097 143.316308 
L 223.797502 141.628342 
L 224.080586 141.628851 
L 224.363967 139.941394 
L 224.64868 143.316053 
L 224.931748 141.628851 
L 226.348473 141.628596 
L 226.631606 143.316053 
L 226.915528 143.316053 
L 227.198927 141.628596 
L 227.482557 143.316053 
L 227.482557 143.316053 
" clip-path="url(#p149706fb16)" style="fill: none; stroke: #0000ff; stroke-linecap: square"/>
   </g>
   <g id="line2d_19">
    <path d="M 50.099375 26.085549 
L 235.929375 26.085549 
" clip-path="url(#p149706fb16)" style="fill: none; stroke-dasharray: 3.7,1.6; stroke-dashoffset: 0; stroke: #000000; stroke-opacity: 0.7"/>
   </g>
   <g id="patch_3">
    <path d="M 50.099375 160.20625 
L 50.099375 11.36625 
" style="fill: none; stroke: #000000; stroke-width: 0.8; stroke-linejoin: miter; stroke-linecap: square"/>
   </g>
   <g id="patch_4">
    <path d="M 235.929375 160.20625 
L 235.929375 11.36625 
" style="fill: none; stroke: #000000; stroke-width: 0.8; stroke-linejoin: miter; stroke-linecap: square"/>
   </g>
   <g id="patch_5">
    <path d="M 50.099375 160.20625 
L 235.929375 160.20625 
" style="fill: none; stroke: #000000; stroke-width: 0.8; stroke-linejoin: miter; stroke-linecap: square"/>
   </g>
   <g id="patch_6">
    <path d="M 50.099375 11.36625 
L 235.929375 11.36625 
" style="fill: none; stroke: #000000; stroke-width: 0.8; stroke-linejoin: miter; stroke-linecap: square"/>
   </g>
  </g>
  <g id="axes_2">
   <g id="patch_7">
    <path d="M 295.979375 160.20625 
L 481.809375 160.20625 
L 481.809375 11.36625 
L 295.979375 11.36625 
z
" style="fill: #ffffff"/>
   </g>
   <g id="matplotlib.axis_3">
    <g id="xtick_6">
     <g id="line2d_20">
      <path d="M 304.426193 160.20625 
L 304.426193 11.36625 
" clip-path="url(#p078f754469)" style="fill: none; stroke: #b0b0b0; stroke-opacity: 0.3; stroke-width: 0.8; stroke-linecap: square"/>
     </g>
     <g id="line2d_21">
      <g>
       <use xlink:href="#m0256bda8d9" x="304.426193" y="160.20625" style="stroke: #000000; stroke-width: 0.8"/>
      </g>
     </g>
     <g id="text_11">
      <!-- 0 -->
      <g transform="translate(301.426193 175.53875) scale(0.12 -0.12)">
       <use xlink:href="#TimesNewRomanPSMT-30"/>
      </g>
     </g>
    </g>
    <g id="xtick_7">
     <g id="line2d_22">
      <path d="M 346.944883 160.20625 
L 346.944883 11.36625 
" clip-path="url(#p078f754469)" style="fill: none; stroke: #b0b0b0; stroke-opacity: 0.3; stroke-width: 0.8; stroke-linecap: square"/>
     </g>
     <g id="line2d_23">
      <g>
       <use xlink:href="#m0256bda8d9" x="346.944883" y="160.20625" style="stroke: #000000; stroke-width: 0.8"/>
      </g>
     </g>
     <g id="text_12">
      <!-- 5 -->
      <g transform="translate(343.944883 175.53875) scale(0.12 -0.12)">
       <use xlink:href="#TimesNewRomanPSMT-35"/>
      </g>
     </g>
    </g>
    <g id="xtick_8">
     <g id="line2d_24">
      <path d="M 389.463573 160.20625 
L 389.463573 11.36625 
" clip-path="url(#p078f754469)" style="fill: none; stroke: #b0b0b0; stroke-opacity: 0.3; stroke-width: 0.8; stroke-linecap: square"/>
     </g>
     <g id="line2d_25">
      <g>
       <use xlink:href="#m0256bda8d9" x="389.463573" y="160.20625" style="stroke: #000000; stroke-width: 0.8"/>
      </g>
     </g>
     <g id="text_13">
      <!-- 10 -->
      <g transform="translate(383.463573 175.53875) scale(0.12 -0.12)">
       <use xlink:href="#TimesNewRomanPSMT-31"/>
       <use xlink:href="#TimesNewRomanPSMT-30" x="50"/>
      </g>
     </g>
    </g>
    <g id="xtick_9">
     <g id="line2d_26">
      <path d="M 431.982263 160.20625 
L 431.982263 11.36625 
" clip-path="url(#p078f754469)" style="fill: none; stroke: #b0b0b0; stroke-opacity: 0.3; stroke-width: 0.8; stroke-linecap: square"/>
     </g>
     <g id="line2d_27">
      <g>
       <use xlink:href="#m0256bda8d9" x="431.982263" y="160.20625" style="stroke: #000000; stroke-width: 0.8"/>
      </g>
     </g>
     <g id="text_14">
      <!-- 15 -->
      <g transform="translate(425.982263 175.53875) scale(0.12 -0.12)">
       <use xlink:href="#TimesNewRomanPSMT-31"/>
       <use xlink:href="#TimesNewRomanPSMT-35" x="50"/>
      </g>
     </g>
    </g>
    <g id="xtick_10">
     <g id="line2d_28">
      <path d="M 474.500953 160.20625 
L 474.500953 11.36625 
" clip-path="url(#p078f754469)" style="fill: none; stroke: #b0b0b0; stroke-opacity: 0.3; stroke-width: 0.8; stroke-linecap: square"/>
     </g>
     <g id="line2d_29">
      <g>
       <use xlink:href="#m0256bda8d9" x="474.500953" y="160.20625" style="stroke: #000000; stroke-width: 0.8"/>
      </g>
     </g>
     <g id="text_15">
      <!-- 20 -->
      <g transform="translate(468.500953 175.53875) scale(0.12 -0.12)">
       <use xlink:href="#TimesNewRomanPSMT-32"/>
       <use xlink:href="#TimesNewRomanPSMT-30" x="50"/>
      </g>
     </g>
    </g>
    <g id="text_16">
     <!-- $t$ [s] -->
     <g transform="translate(379.354375 190.438125) scale(0.12 -0.12)">
      <use xlink:href="#STIXGeneral-Italic-74" transform="translate(0 0.28125)"/>
      <use xlink:href="#TimesNewRomanPSMT-20" transform="translate(27.799988 0.28125)"/>
      <use xlink:href="#TimesNewRomanPSMT-5b" transform="translate(52.799988 0.28125)"/>
      <use xlink:href="#TimesNewRomanPSMT-73" transform="translate(86.100769 0.28125)"/>
      <use xlink:href="#TimesNewRomanPSMT-5d" transform="translate(125.016785 0.28125)"/>
     </g>
    </g>
   </g>
   <g id="matplotlib.axis_4">
    <g id="ytick_4">
     <g id="line2d_30">
      <path d="M 295.979375 160.20625 
L 481.809375 160.20625 
" clip-path="url(#p078f754469)" style="fill: none; stroke: #b0b0b0; stroke-opacity: 0.3; stroke-width: 0.8; stroke-linecap: square"/>
     </g>
     <g id="line2d_31">
      <g>
       <use xlink:href="#ma8b8269e22" x="295.979375" y="160.20625" style="stroke: #000000; stroke-width: 0.8"/>
      </g>
     </g>
     <g id="text_17">
      <!-- −1.5 -->
      <g transform="translate(267.2125 164.3725) scale(0.12 -0.12)">
       <defs>
        <path id="TimesNewRomanPSMT-2212" d="M 3484 2000 
L 116 2000 
L 116 2256 
L 3484 2256 
L 3484 2000 
z
" transform="scale(0.015625)"/>
       </defs>
       <use xlink:href="#TimesNewRomanPSMT-2212"/>
       <use xlink:href="#TimesNewRomanPSMT-31" x="56.396484"/>
       <use xlink:href="#TimesNewRomanPSMT-2e" x="106.396484"/>
       <use xlink:href="#TimesNewRomanPSMT-35" x="131.396484"/>
      </g>
     </g>
    </g>
    <g id="ytick_5">
     <g id="line2d_32">
      <path d="M 295.979375 135.399583 
L 481.809375 135.399583 
" clip-path="url(#p078f754469)" style="fill: none; stroke: #b0b0b0; stroke-opacity: 0.3; stroke-width: 0.8; stroke-linecap: square"/>
     </g>
     <g id="line2d_33">
      <g>
       <use xlink:href="#ma8b8269e22" x="295.979375" y="135.399583" style="stroke: #000000; stroke-width: 0.8"/>
      </g>
     </g>
     <g id="text_18">
      <!-- −1.0 -->
      <g transform="translate(267.2125 139.565833) scale(0.12 -0.12)">
       <use xlink:href="#TimesNewRomanPSMT-2212"/>
       <use xlink:href="#TimesNewRomanPSMT-31" x="56.396484"/>
       <use xlink:href="#TimesNewRomanPSMT-2e" x="106.396484"/>
       <use xlink:href="#TimesNewRomanPSMT-30" x="131.396484"/>
      </g>
     </g>
    </g>
    <g id="ytick_6">
     <g id="line2d_34">
      <path d="M 295.979375 110.592917 
L 481.809375 110.592917 
" clip-path="url(#p078f754469)" style="fill: none; stroke: #b0b0b0; stroke-opacity: 0.3; stroke-width: 0.8; stroke-linecap: square"/>
     </g>
     <g id="line2d_35">
      <g>
       <use xlink:href="#ma8b8269e22" x="295.979375" y="110.592917" style="stroke: #000000; stroke-width: 0.8"/>
      </g>
     </g>
     <g id="text_19">
      <!-- −0.5 -->
      <g transform="translate(267.2125 114.759167) scale(0.12 -0.12)">
       <use xlink:href="#TimesNewRomanPSMT-2212"/>
       <use xlink:href="#TimesNewRomanPSMT-30" x="56.396484"/>
       <use xlink:href="#TimesNewRomanPSMT-2e" x="106.396484"/>
       <use xlink:href="#TimesNewRomanPSMT-35" x="131.396484"/>
      </g>
     </g>
    </g>
    <g id="ytick_7">
     <g id="line2d_36">
      <path d="M 295.979375 85.78625 
L 481.809375 85.78625 
" clip-path="url(#p078f754469)" style="fill: none; stroke: #b0b0b0; stroke-opacity: 0.3; stroke-width: 0.8; stroke-linecap: square"/>
     </g>
     <g id="line2d_37">
      <g>
       <use xlink:href="#ma8b8269e22" x="295.979375" y="85.78625" style="stroke: #000000; stroke-width: 0.8"/>
      </g>
     </g>
     <g id="text_20">
      <!-- 0.0 -->
      <g transform="translate(273.979375 89.9525) scale(0.12 -0.12)">
       <use xlink:href="#TimesNewRomanPSMT-30"/>
       <use xlink:href="#TimesNewRomanPSMT-2e" x="50"/>
       <use xlink:href="#TimesNewRomanPSMT-30" x="75"/>
      </g>
     </g>
    </g>
    <g id="ytick_8">
     <g id="line2d_38">
      <path d="M 295.979375 60.979583 
L 481.809375 60.979583 
" clip-path="url(#p078f754469)" style="fill: none; stroke: #b0b0b0; stroke-opacity: 0.3; stroke-width: 0.8; stroke-linecap: square"/>
     </g>
     <g id="line2d_39">
      <g>
       <use xlink:href="#ma8b8269e22" x="295.979375" y="60.979583" style="stroke: #000000; stroke-width: 0.8"/>
      </g>
     </g>
     <g id="text_21">
      <!-- 0.5 -->
      <g transform="translate(273.979375 65.145833) scale(0.12 -0.12)">
       <use xlink:href="#TimesNewRomanPSMT-30"/>
       <use xlink:href="#TimesNewRomanPSMT-2e" x="50"/>
       <use xlink:href="#TimesNewRomanPSMT-35" x="75"/>
      </g>
     </g>
    </g>
    <g id="ytick_9">
     <g id="line2d_40">
      <path d="M 295.979375 36.172917 
L 481.809375 36.172917 
" clip-path="url(#p078f754469)" style="fill: none; stroke: #b0b0b0; stroke-opacity: 0.3; stroke-width: 0.8; stroke-linecap: square"/>
     </g>
     <g id="line2d_41">
      <g>
       <use xlink:href="#ma8b8269e22" x="295.979375" y="36.172917" style="stroke: #000000; stroke-width: 0.8"/>
      </g>
     </g>
     <g id="text_22">
      <!-- 1.0 -->
      <g transform="translate(273.979375 40.339167) scale(0.12 -0.12)">
       <use xlink:href="#TimesNewRomanPSMT-31"/>
       <use xlink:href="#TimesNewRomanPSMT-2e" x="50"/>
       <use xlink:href="#TimesNewRomanPSMT-30" x="75"/>
      </g>
     </g>
    </g>
    <g id="ytick_10">
     <g id="line2d_42">
      <path d="M 295.979375 11.36625 
L 481.809375 11.36625 
" clip-path="url(#p078f754469)" style="fill: none; stroke: #b0b0b0; stroke-opacity: 0.3; stroke-width: 0.8; stroke-linecap: square"/>
     </g>
     <g id="line2d_43">
      <g>
       <use xlink:href="#ma8b8269e22" x="295.979375" y="11.36625" style="stroke: #000000; stroke-width: 0.8"/>
      </g>
     </g>
     <g id="text_23">
      <!-- 1.5 -->
      <g transform="translate(273.979375 15.5325) scale(0.12 -0.12)">
       <use xlink:href="#TimesNewRomanPSMT-31"/>
       <use xlink:href="#TimesNewRomanPSMT-2e" x="50"/>
       <use xlink:href="#TimesNewRomanPSMT-35" x="75"/>
      </g>
     </g>
    </g>
    <g id="text_24">
     <!-- $\omega$ [rad/s] -->
     <g transform="translate(260.645625 107.08625) rotate(-90) scale(0.12 -0.12)">
      <defs>
       <path id="STIXGeneral-Italic-3c9" d="M 3021 2810 
L 3136 2810 
Q 3648 2810 3898 2598 
Q 4186 2355 4186 1824 
Q 4186 1357 3910 838 
Q 3667 390 3334 160 
Q 3002 -70 2669 -70 
Q 2438 -70 2281 3 
Q 2125 77 2064 160 
Q 2003 243 1939 384 
Q 1741 147 1533 38 
Q 1325 -70 998 -70 
Q 659 -70 416 160 
Q 173 390 173 832 
Q 173 1101 237 1350 
Q 403 1965 883 2387 
Q 1363 2810 2010 2810 
L 2125 2810 
L 2125 2707 
Q 1606 2707 1267 2291 
Q 1024 1990 867 1526 
Q 710 1062 710 666 
Q 710 64 1075 64 
Q 1286 64 1523 285 
Q 1760 506 1856 774 
Q 1837 915 1837 1101 
Q 1837 1363 1914 1651 
Q 1984 1920 2125 2105 
Q 2266 2291 2432 2291 
Q 2656 2291 2656 1997 
Q 2656 1530 2387 1062 
Q 2272 864 2189 736 
Q 2176 691 2176 602 
Q 2176 384 2288 224 
Q 2400 64 2592 64 
Q 3040 64 3341 627 
Q 3482 896 3565 1270 
Q 3648 1645 3648 1971 
Q 3648 2240 3616 2362 
Q 3565 2566 3411 2636 
Q 3258 2707 3021 2707 
L 3021 2810 
z
" transform="scale(0.015625)"/>
       <path id="TimesNewRomanPSMT-72" d="M 1038 2947 
L 1038 2303 
Q 1397 2947 1775 2947 
Q 1947 2947 2059 2842 
Q 2172 2738 2172 2600 
Q 2172 2478 2090 2393 
Q 2009 2309 1897 2309 
Q 1788 2309 1652 2417 
Q 1516 2525 1450 2525 
Q 1394 2525 1328 2463 
Q 1188 2334 1038 2041 
L 1038 669 
Q 1038 431 1097 309 
Q 1138 225 1241 169 
Q 1344 113 1538 113 
L 1538 0 
L 72 0 
L 72 113 
Q 291 113 397 181 
Q 475 231 506 341 
Q 522 394 522 644 
L 522 1753 
Q 522 2253 501 2348 
Q 481 2444 426 2487 
Q 372 2531 291 2531 
Q 194 2531 72 2484 
L 41 2597 
L 906 2947 
L 1038 2947 
z
" transform="scale(0.015625)"/>
       <path id="TimesNewRomanPSMT-61" d="M 1822 413 
Q 1381 72 1269 19 
Q 1100 -59 909 -59 
Q 613 -59 420 144 
Q 228 347 228 678 
Q 228 888 322 1041 
Q 450 1253 767 1440 
Q 1084 1628 1822 1897 
L 1822 2009 
Q 1822 2438 1686 2597 
Q 1550 2756 1291 2756 
Q 1094 2756 978 2650 
Q 859 2544 859 2406 
L 866 2225 
Q 866 2081 792 2003 
Q 719 1925 600 1925 
Q 484 1925 411 2006 
Q 338 2088 338 2228 
Q 338 2497 613 2722 
Q 888 2947 1384 2947 
Q 1766 2947 2009 2819 
Q 2194 2722 2281 2516 
Q 2338 2381 2338 1966 
L 2338 994 
Q 2338 584 2353 492 
Q 2369 400 2405 369 
Q 2441 338 2488 338 
Q 2538 338 2575 359 
Q 2641 400 2828 588 
L 2828 413 
Q 2478 -56 2159 -56 
Q 2006 -56 1915 50 
Q 1825 156 1822 413 
z
M 1822 616 
L 1822 1706 
Q 1350 1519 1213 1441 
Q 966 1303 859 1153 
Q 753 1003 753 825 
Q 753 600 887 451 
Q 1022 303 1197 303 
Q 1434 303 1822 616 
z
" transform="scale(0.015625)"/>
       <path id="TimesNewRomanPSMT-64" d="M 2222 322 
Q 2013 103 1813 7 
Q 1613 -88 1381 -88 
Q 913 -88 563 304 
Q 213 697 213 1313 
Q 213 1928 600 2439 
Q 988 2950 1597 2950 
Q 1975 2950 2222 2709 
L 2222 3238 
Q 2222 3728 2198 3840 
Q 2175 3953 2125 3993 
Q 2075 4034 2000 4034 
Q 1919 4034 1784 3984 
L 1744 4094 
L 2597 4444 
L 2738 4444 
L 2738 1134 
Q 2738 631 2761 520 
Q 2784 409 2836 365 
Q 2888 322 2956 322 
Q 3041 322 3181 375 
L 3216 266 
L 2366 -88 
L 2222 -88 
L 2222 322 
z
M 2222 541 
L 2222 2016 
Q 2203 2228 2109 2403 
Q 2016 2578 1861 2667 
Q 1706 2756 1559 2756 
Q 1284 2756 1069 2509 
Q 784 2184 784 1559 
Q 784 928 1059 592 
Q 1334 256 1672 256 
Q 1956 256 2222 541 
z
" transform="scale(0.015625)"/>
      </defs>
      <use xlink:href="#STIXGeneral-Italic-3c9" transform="translate(0 0.5625)"/>
      <use xlink:href="#TimesNewRomanPSMT-20" transform="translate(68.599991 0.5625)"/>
      <use xlink:href="#TimesNewRomanPSMT-5b" transform="translate(93.599991 0.5625)"/>
      <use xlink:href="#TimesNewRomanPSMT-72" transform="translate(126.900772 0.5625)"/>
      <use xlink:href="#TimesNewRomanPSMT-61" transform="translate(160.201553 0.5625)"/>
      <use xlink:href="#TimesNewRomanPSMT-64" transform="translate(204.586319 0.5625)"/>
      <use xlink:href="#TimesNewRomanPSMT-2f" transform="translate(254.586319 0.5625)"/>
      <use xlink:href="#TimesNewRomanPSMT-73" transform="translate(282.369522 0.5625)"/>
      <use xlink:href="#TimesNewRomanPSMT-5d" transform="translate(321.285538 0.5625)"/>
     </g>
    </g>
   </g>
   <g id="line2d_44">
    <path d="M 304.426193 85.78625 
L 307.544426 85.696797 
L 308.108333 85.560261 
L 308.678003 85.733164 
L 308.960309 85.615679 
L 309.526523 85.708357 
L 310.092202 85.654229 
L 310.660561 85.640486 
L 311.510865 85.570581 
L 312.359792 85.618954 
L 312.929404 85.564776 
L 316.328487 85.630415 
L 317.462044 85.78362 
L 318.59627 85.830455 
L 318.880679 86.742795 
L 319.163117 87.057741 
L 320.014118 86.951568 
L 320.296856 86.888311 
L 320.580606 89.141352 
L 321.149167 89.111385 
L 321.433783 88.922904 
L 321.717098 85.914153 
L 322.564769 85.737976 
L 323.132376 83.950507 
L 323.698074 83.832576 
L 323.981804 82.76321 
L 324.549039 82.585743 
L 325.115793 82.98776 
L 325.399982 83.835999 
L 325.68643 84.179969 
L 326.536641 84.468867 
L 326.82046 84.246004 
L 327.099856 84.402832 
L 328.23642 84.437611 
L 328.517102 84.421883 
L 329.084072 84.630061 
L 329.370285 81.339506 
L 329.937111 81.401473 
L 330.21768 81.842734 
L 330.788133 83.084159 
L 331.070802 83.326471 
L 331.351815 83.402677 
L 331.63849 84.699172 
L 331.921011 85.073306 
L 332.488374 85.295028 
L 332.768918 87.483671 
L 333.054091 87.795838 
L 333.33899 87.923295 
L 333.619235 88.223753 
L 333.902901 88.747124 
L 334.186764 88.906532 
L 335.039493 88.920969 
L 335.321029 87.16555 
L 335.887265 86.962185 
L 336.170757 86.980493 
L 336.740754 84.618898 
L 337.304245 84.312139 
L 337.874295 84.516149 
L 338.155165 84.459292 
L 338.438893 84.569979 
L 338.722109 85.288827 
L 339.295376 85.4398 
L 339.574966 85.505042 
L 340.143185 86.830511 
L 340.709279 86.945862 
L 340.993288 86.936089 
L 341.274633 87.733325 
L 341.840089 87.684109 
L 342.125255 87.764086 
L 342.407484 88.242557 
L 342.693227 88.491665 
L 343.260866 88.487994 
L 343.823889 86.37263 
L 344.392578 86.163014 
L 344.677429 86.82173 
L 345.52798 86.735651 
L 345.810511 87.090088 
L 346.092647 87.263685 
L 346.942318 87.231437 
L 347.225385 86.286402 
L 347.796548 86.171398 
L 348.078906 86.334378 
L 348.361819 87.521476 
L 348.646217 87.941354 
L 349.209615 85.242786 
L 349.494871 84.875101 
L 349.779638 80.458721 
L 350.060708 79.35279 
L 350.347137 77.69506 
L 351.19464 69.863297 
L 351.763136 67.653023 
L 352.331341 66.04823 
L 352.611318 64.639807 
L 353.178178 63.710103 
L 353.747107 65.242956 
L 354.311843 64.514881 
L 354.599558 66.251447 
L 354.881008 66.514149 
L 355.72936 65.91353 
L 356.013838 66.373694 
L 356.299527 66.504177 
L 357.150863 66.454167 
L 357.430232 65.699498 
L 357.997457 65.626467 
L 358.565601 65.870515 
L 359.132681 66.457243 
L 359.417696 66.64488 
L 360.26668 68.116213 
L 360.831559 68.535644 
L 361.114666 67.803104 
L 362.251319 68.794378 
L 362.532441 65.975944 
L 363.669938 67.096758 
L 364.802588 68.950759 
L 365.085713 70.738923 
L 365.934235 72.117727 
L 366.219469 71.832599 
L 366.783797 72.022023 
L 367.072571 72.378346 
L 367.355688 72.486949 
L 367.917498 74.076858 
L 368.48739 74.80161 
L 368.771948 74.179657 
L 369.054338 74.857326 
L 369.618672 75.57409 
L 369.902738 74.739097 
L 370.187961 74.676039 
L 370.469972 75.800525 
L 370.753034 76.186268 
L 371.037621 77.394552 
L 371.319092 77.764369 
L 371.604419 78.416239 
L 371.886212 78.518591 
L 372.459144 77.338985 
L 372.739529 77.242636 
L 373.022309 77.586257 
L 373.304169 78.8511 
L 373.587164 79.513587 
L 374.723554 80.902661 
L 375.004739 81.046391 
L 375.572305 81.971828 
L 376.991099 83.542785 
L 377.555408 83.912057 
L 377.839546 84.253645 
L 378.123158 84.067644 
L 378.408591 84.550084 
L 378.689301 84.800185 
L 379.258818 84.382937 
L 379.541385 84.594637 
L 379.827105 84.270315 
L 380.109521 84.124253 
L 380.391251 84.125593 
L 380.961151 85.149364 
L 381.240848 85.25628 
L 381.523823 86.050292 
L 381.811755 86.335867 
L 382.090491 86.368314 
L 382.374968 86.627692 
L 382.944967 86.470666 
L 383.224494 86.598718 
L 383.794 85.585564 
L 384.076574 85.698037 
L 384.358183 87.016363 
L 385.211968 87.531945 
L 385.493009 86.872931 
L 386.059957 87.072724 
L 386.343505 84.997448 
L 386.63059 84.292641 
L 387.193499 85.365082 
L 387.477109 85.480235 
L 388.043755 86.087304 
L 389.461817 86.812254 
L 390.027995 87.393474 
L 390.311921 88.544652 
L 390.597905 89.100619 
L 391.162042 89.37126 
L 391.445214 89.275605 
L 392.018368 89.38798 
L 392.295311 89.210612 
L 393.996236 89.444043 
L 394.280377 90.009436 
L 394.846643 89.802797 
L 395.13299 89.172757 
L 395.699603 88.97991 
L 395.985656 90.673114 
L 396.550881 90.673461 
L 396.83449 88.773866 
L 397.400037 88.681436 
L 397.685198 87.34649 
L 398.25027 87.009417 
L 398.531295 87.106461 
L 398.815338 87.346143 
L 399.101316 87.344605 
L 399.382455 90.401828 
L 399.952673 93.739813 
L 400.520188 96.105625 
L 400.800633 97.31753 
L 401.369059 100.829806 
L 402.219675 103.327292 
L 402.49955 105.478477 
L 403.069827 106.470594 
L 403.353992 107.666871 
L 403.637525 108.210484 
L 403.920687 108.362946 
L 404.203737 109.024788 
L 404.768547 109.515712 
L 405.051393 108.37272 
L 405.621039 108.333129 
L 405.904039 108.232413 
L 406.188358 109.358487 
L 406.752303 109.076684 
L 407.035708 108.303311 
L 407.602708 108.308024 
L 407.886278 108.365129 
L 408.169693 107.950114 
L 408.739057 107.553852 
L 409.022791 107.790061 
L 409.309221 107.620979 
L 409.588039 107.226255 
L 409.870305 107.631298 
L 410.154653 107.669749 
L 411.006084 106.540996 
L 411.287528 106.35698 
L 411.573895 105.414525 
L 411.85666 106.582026 
L 412.424238 105.285233 
L 412.707006 104.742066 
L 412.991997 104.447958 
L 414.406897 101.967986 
L 414.693489 102.093905 
L 414.974203 100.899414 
L 415.538554 99.741191 
L 415.825397 99.591805 
L 416.108608 100.714555 
L 416.389505 100.753253 
L 416.956154 100.138445 
L 417.239608 98.076366 
L 417.526135 97.93214 
L 417.806175 96.797582 
L 418.094691 96.255556 
L 418.373256 95.233869 
L 418.657847 95.041816 
L 418.943077 94.485005 
L 419.22588 94.177204 
L 419.791155 93.154822 
L 420.644993 92.453736 
L 421.20982 93.479343 
L 421.775821 92.52513 
L 422.061657 92.302912 
L 422.348007 92.930322 
L 422.627141 92.595779 
L 422.912684 92.76119 
L 423.192979 92.355055 
L 423.480676 92.717332 
L 423.76003 93.252957 
L 424.045357 92.518978 
L 424.897973 91.731118 
L 425.177544 91.78986 
L 425.459828 91.028097 
L 425.74408 90.672121 
L 426.310247 89.25447 
L 426.880064 88.666701 
L 427.160949 88.480849 
L 427.447902 86.710447 
L 427.72788 86.130914 
L 428.577846 85.402987 
L 429.144741 85.211728 
L 429.997968 84.746454 
L 430.56489 84.461673 
L 430.845627 84.360859 
L 431.413183 85.62069 
L 431.699276 85.738621 
L 431.97905 85.431465 
L 432.264198 85.614836 
L 432.832517 85.441239 
L 433.115749 85.334124 
L 433.396654 84.76104 
L 434.24826 84.384425 
L 434.530546 84.482759 
L 435.09884 84.358924 
L 435.383798 83.91677 
L 435.664764 82.970247 
L 435.947581 82.775862 
L 436.515092 82.793524 
L 436.798195 82.496439 
L 437.365451 82.48736 
L 437.648312 82.55156 
L 437.934341 82.412841 
L 438.500101 82.428519 
L 438.782131 83.643996 
L 439.065866 86.09167 
L 439.348868 86.52142 
L 440.199075 86.280945 
L 440.76581 86.104668 
L 441.050711 86.024592 
L 441.334511 87.112266 
L 442.183071 86.682217 
L 442.466555 86.201365 
L 443.600544 85.81185 
L 444.171626 85.806591 
L 444.452734 85.609081 
L 444.736121 84.701008 
L 445.303652 84.585905 
L 445.584186 84.738516 
L 445.869487 85.125748 
L 446.717743 85.021758 
L 447.001799 85.55912 
L 447.852874 85.444116 
L 448.136398 86.563889 
L 448.703009 86.391433 
L 449.837286 86.408252 
L 450.120675 86.460297 
L 450.405519 85.808626 
L 450.970192 85.723737 
L 451.253019 85.766603 
L 451.538162 86.658849 
L 452.104605 86.736147 
L 452.38659 87.192391 
L 452.670074 88.439621 
L 452.955849 88.712891 
L 453.520585 88.780861 
L 453.805162 89.797587 
L 454.370916 89.914824 
L 454.65634 89.768663 
L 454.938863 88.430839 
L 455.788056 88.399781 
L 456.072448 88.783094 
L 456.639169 88.643581 
L 456.922118 88.608554 
L 457.205719 87.455044 
L 457.489927 87.201173 
L 458.055835 87.105121 
L 458.339901 86.179188 
L 458.906786 86.022509 
L 459.189266 85.878084 
L 459.473711 85.455428 
L 459.756291 85.323606 
L 460.606556 85.373963 
L 460.890515 88.030708 
L 461.461453 88.191554 
L 461.740805 88.187684 
L 462.024623 89.28136 
L 462.307957 89.912492 
L 463.442098 89.948709 
L 463.725112 90.224857 
L 464.009011 90.332072 
L 465.143067 90.180255 
L 465.425714 91.735434 
L 465.992333 91.289063 
L 467.409686 90.804688 
L 467.693061 91.376234 
L 469.110274 91.449959 
L 469.960586 91.55375 
L 470.243967 93.488075 
L 471.0948 93.795678 
L 472.511606 94.008172 
L 473.362557 94.007378 
L 473.362557 94.007378 
" clip-path="url(#p078f754469)" style="fill: none; stroke: #ff0000; stroke-opacity: 0.8; stroke-linecap: square"/>
   </g>
   <g id="line2d_45">
    <path d="M 304.426193 85.78625 
L 305.559535 85.78625 
L 305.840576 84.46083 
L 306.411439 87.111521 
L 306.691772 85.78625 
L 306.977042 86.991011 
L 307.260283 87.111571 
L 307.544426 85.78625 
L 308.108333 91.087683 
L 308.393072 84.460929 
L 308.678003 80.484718 
L 308.960309 88.436793 
L 309.243868 84.46083 
L 309.526523 87.111521 
L 309.80959 84.46083 
L 310.092202 88.436942 
L 310.378344 87.11167 
L 310.660561 84.46083 
L 310.942903 85.78625 
L 311.229406 85.123614 
L 311.510865 85.78625 
L 311.794199 85.78625 
L 312.076858 84.460979 
L 312.359792 84.460681 
L 312.929404 87.111521 
L 313.210465 85.78625 
L 313.780152 85.78625 
L 314.060542 86.571828 
L 314.344789 88.43709 
L 314.911572 83.135112 
L 315.194969 83.13541 
L 315.761373 88.436793 
L 316.045484 85.123465 
L 316.328487 85.78625 
L 316.612495 85.78625 
L 316.895155 84.460979 
L 317.17886 87.11167 
L 317.462044 85.78625 
L 317.745897 88.436942 
L 318.03004 84.460979 
L 318.3135 83.135558 
L 318.59627 85.78625 
L 318.880679 81.809989 
L 319.163117 84.460731 
L 319.447813 84.460929 
L 319.733057 89.099627 
L 320.014118 85.78625 
L 320.296856 88.436991 
L 320.580606 85.78625 
L 320.867291 88.436991 
L 321.149167 89.762312 
L 321.433783 87.111571 
L 321.717098 89.762312 
L 321.997649 89.762312 
L 322.281366 91.087683 
L 322.564769 84.460879 
L 322.848585 81.810138 
L 323.132376 89.762362 
L 323.41456 86.448935 
L 323.698074 89.762213 
L 323.981804 83.13541 
L 324.265073 83.135558 
L 324.549039 84.460681 
L 325.115793 81.810287 
L 325.399982 84.46083 
L 325.68643 85.78625 
L 325.96633 83.135558 
L 326.249925 85.78625 
L 326.536641 81.368381 
L 326.82046 87.111521 
L 327.099856 83.135558 
L 327.383813 85.78625 
L 327.66652 83.135707 
L 327.950298 85.78625 
L 328.23642 83.381641 
L 328.803489 82.890121 
L 329.084072 84.460681 
L 329.370285 81.809841 
L 329.651839 85.78625 
L 329.937111 84.460681 
L 330.21768 85.78625 
L 330.504209 76.508805 
L 330.788133 80.484569 
L 331.070802 80.484916 
L 331.63849 83.135558 
L 331.921011 81.147503 
L 332.488374 84.460979 
L 332.768918 83.135558 
L 333.054091 83.135558 
L 333.33899 85.78625 
L 333.619235 84.460929 
L 333.902901 87.11167 
L 334.186764 88.436942 
L 334.469662 85.78625 
L 334.753562 88.436991 
L 335.039493 88.436942 
L 335.321029 85.78625 
L 335.603767 90.424997 
L 335.887265 92.413004 
L 336.170757 83.135509 
L 336.454192 89.762312 
L 336.740754 88.436942 
L 337.021053 85.78625 
L 337.304245 88.436942 
L 337.58807 84.460731 
L 337.874295 88.436991 
L 338.155165 84.46083 
L 338.438893 84.460929 
L 338.722109 85.78625 
L 339.007487 81.810138 
L 339.574966 87.11167 
L 339.857574 84.46083 
L 340.143185 84.46083 
L 340.423798 83.13541 
L 340.993288 91.087931 
L 341.274633 84.460681 
L 341.557687 85.78625 
L 341.840089 89.762362 
L 342.125255 87.111819 
L 342.407484 87.111521 
L 342.693227 89.762014 
L 342.975229 85.540664 
L 343.260866 85.78625 
L 343.544541 89.762014 
L 343.823889 87.111521 
L 344.392578 92.412855 
L 344.677429 88.43709 
L 345.244715 85.78625 
L 345.810511 88.43709 
L 346.092647 91.087584 
L 346.375107 87.111521 
L 346.659497 87.11167 
L 346.942318 85.78625 
L 347.225385 89.762263 
L 347.50881 88.436991 
L 348.078906 87.111521 
L 348.361819 85.78625 
L 348.646217 85.78625 
L 348.926516 83.135509 
L 349.209615 87.111621 
L 349.494871 87.111571 
L 349.779638 77.834126 
L 350.060708 81.810188 
L 350.347137 83.135509 
L 350.631467 85.78625 
L 350.913982 85.78625 
L 351.19464 84.460929 
L 351.763136 73.857964 
L 352.047145 71.207372 
L 352.331341 79.159496 
L 352.611318 72.532693 
L 352.899505 72.532693 
L 353.178178 73.857964 
L 354.028426 63.255099 
L 354.311843 65.243155 
L 354.599558 61.929679 
L 354.881008 68.556581 
L 355.451151 65.906088 
L 355.72936 65.90579 
L 356.013838 63.255248 
L 356.299527 64.334883 
L 356.579609 64.580817 
L 356.864042 69.881853 
L 357.150863 65.90579 
L 357.430232 65.90579 
L 357.997457 71.207422 
L 358.283137 67.231359 
L 358.565601 68.556432 
L 358.849209 68.556432 
L 359.417696 65.906088 
L 359.70003 67.231359 
L 359.980984 65.905939 
L 360.549373 65.906088 
L 360.831559 65.243155 
L 361.114666 67.231211 
L 361.681872 67.23126 
L 361.967093 64.580668 
L 362.532441 69.881902 
L 362.818127 71.207372 
L 363.102517 71.207422 
L 363.383865 68.556532 
L 363.669938 68.556581 
L 363.950666 67.231211 
L 364.232814 69.881853 
L 364.515887 67.231111 
L 364.802588 67.231161 
L 365.085713 69.882101 
L 365.3673 67.231161 
L 365.652732 68.55673 
L 365.934235 75.183434 
L 366.219469 67.231161 
L 366.504897 69.881952 
L 366.783797 71.207322 
L 367.072571 73.857964 
L 367.355688 75.183236 
L 367.635573 77.834225 
L 367.917498 71.207025 
L 368.204423 75.183633 
L 368.48739 76.509053 
L 368.771948 73.857865 
L 369.054338 76.508656 
L 369.618672 76.508656 
L 369.902738 76.147124 
L 370.187961 76.508805 
L 370.469972 72.532842 
L 370.753034 75.183385 
L 371.037621 76.508805 
L 371.319092 75.183533 
L 371.604419 76.508656 
L 371.886212 79.159496 
L 372.172015 77.834076 
L 372.459144 79.159149 
L 372.739529 76.508805 
L 373.022309 79.159298 
L 373.304169 73.857964 
L 373.587164 79.159496 
L 373.872473 79.159496 
L 374.158781 82.055823 
L 374.439263 76.508954 
L 374.723554 76.508854 
L 375.004739 80.484916 
L 375.287681 80.484867 
L 375.572305 79.895857 
L 375.85719 80.484916 
L 376.141335 81.810138 
L 376.423148 80.484916 
L 376.706255 81.810486 
L 377.273819 87.11167 
L 377.555408 85.78625 
L 377.839546 81.809989 
L 378.123158 84.46083 
L 378.408591 83.135558 
L 378.689301 83.135558 
L 378.978026 80.484916 
L 379.258818 84.460929 
L 379.541385 85.78625 
L 379.827105 84.461078 
L 380.109521 85.78625 
L 380.391251 88.436942 
L 380.674762 81.810138 
L 380.961151 84.461078 
L 381.523823 84.46083 
L 381.811755 82.889972 
L 382.090491 85.78625 
L 382.374968 83.798293 
L 382.660881 83.135509 
L 382.944967 87.111769 
L 383.509867 84.461078 
L 383.794 85.78625 
L 384.64327 85.78625 
L 384.929388 87.11167 
L 385.493009 85.78625 
L 385.777547 87.11167 
L 386.059957 85.78625 
L 386.343505 85.78625 
L 386.63059 89.762511 
L 387.193499 85.123515 
L 387.477109 84.460582 
L 387.76093 87.111422 
L 388.326592 87.111621 
L 388.612951 88.436991 
L 388.897159 87.111422 
L 389.179469 87.111422 
L 389.461817 88.43709 
L 389.747471 88.437041 
L 390.311921 85.78625 
L 390.597905 88.436991 
L 390.882711 86.448935 
L 391.162042 89.762263 
L 391.445214 88.436942 
L 392.295311 88.436942 
L 392.582431 87.11167 
L 392.865195 91.087782 
L 393.14695 84.460979 
L 393.429331 88.436942 
L 393.716196 87.774207 
L 393.996236 88.436793 
L 394.280377 88.436991 
L 394.564072 89.762411 
L 394.846643 89.762263 
L 395.13299 88.436942 
L 395.416685 85.78625 
L 395.699603 89.762312 
L 395.985656 87.111571 
L 396.266807 89.762312 
L 396.550881 89.400978 
L 396.83449 88.436991 
L 397.11813 85.78625 
L 397.400037 85.78625 
L 397.685198 89.762411 
L 397.967429 89.762213 
L 398.25027 88.436991 
L 398.531295 88.436942 
L 398.815338 87.111819 
L 399.382455 87.11167 
L 399.668493 89.762362 
L 399.952673 87.11167 
L 400.232929 91.087683 
L 400.800633 91.087584 
L 401.08494 94.220318 
L 401.369059 95.063844 
L 401.650242 91.087584 
L 401.935806 92.413004 
L 402.49955 103.01577 
L 402.784336 100.365178 
L 403.069827 102.353283 
L 403.353992 103.015968 
L 403.637525 104.341339 
L 403.920687 106.992031 
L 404.203737 104.341339 
L 404.488344 110.967944 
L 404.768547 108.317302 
L 405.337873 108.317153 
L 405.621039 109.883595 
L 405.904039 106.991931 
L 406.188358 109.642573 
L 406.471045 105.666561 
L 406.752303 108.317352 
L 407.035708 109.642573 
L 407.319746 108.317252 
L 407.602708 108.317302 
L 407.886278 106.99208 
L 408.739057 106.991981 
L 409.022791 108.317252 
L 409.309221 110.967993 
L 409.870305 105.66671 
L 410.154653 108.317252 
L 410.438583 108.317401 
L 411.006084 105.666412 
L 411.287528 109.642821 
L 411.573895 105.66671 
L 411.85666 106.991981 
L 412.424238 104.341141 
L 412.707006 108.317252 
L 413.274029 103.015571 
L 413.83811 105.666412 
L 414.127962 103.015571 
L 414.406897 104.341488 
L 414.693489 103.015919 
L 415.258026 103.015919 
L 415.538554 100.365376 
L 415.825397 101.6903 
L 416.108608 99.039708 
L 416.389505 95.063695 
L 416.676241 100.365227 
L 416.956154 97.714238 
L 417.239608 96.389115 
L 417.526135 99.039807 
L 417.806175 96.389264 
L 418.373256 99.039807 
L 418.657847 95.063794 
L 418.943077 96.389115 
L 419.22588 96.389066 
L 420.364747 91.087683 
L 420.644993 93.738374 
L 420.925038 92.413004 
L 421.20982 96.389066 
L 421.496274 95.063745 
L 421.775821 92.413004 
L 422.061657 95.063646 
L 422.348007 92.413004 
L 422.627141 91.087732 
L 422.912684 92.413103 
L 423.192979 96.389115 
L 423.480676 89.762263 
L 423.76003 92.413202 
L 424.045357 91.087782 
L 424.329476 91.087584 
L 424.60982 93.075639 
L 424.897973 92.413202 
L 426.027242 92.413202 
L 426.310247 91.087584 
L 426.597066 88.43709 
L 427.160949 91.087931 
L 427.447902 88.436942 
L 427.72788 88.43709 
L 428.011841 91.087584 
L 428.296413 88.436793 
L 428.577846 83.13541 
L 428.862029 88.436445 
L 429.144741 84.460979 
L 429.431544 89.762511 
L 429.712104 84.461127 
L 429.997968 81.810486 
L 430.279751 87.11167 
L 430.845627 81.810138 
L 431.13261 85.123614 
L 431.413183 89.762362 
L 431.699276 84.460979 
L 431.97905 85.78625 
L 432.264198 82.171671 
L 432.546127 84.460929 
L 432.832517 85.78625 
L 433.115749 84.460879 
L 433.396654 87.111521 
L 433.966647 84.460929 
L 434.24826 89.762312 
L 434.530546 85.78625 
L 435.383798 81.810188 
L 435.664764 83.135558 
L 435.947581 83.135558 
L 436.232204 81.810287 
L 436.515092 83.135509 
L 436.798195 83.135558 
L 437.084611 85.78625 
L 437.365451 83.135558 
L 437.648312 83.135509 
L 437.934341 79.159496 
L 438.216475 83.13541 
L 438.500101 84.460979 
L 438.782131 83.135558 
L 439.065866 80.484718 
L 439.633812 80.485065 
L 440.199075 83.13541 
L 440.484781 86.448886 
L 440.76581 81.809841 
L 441.050711 83.381343 
L 441.334511 85.78625 
L 441.616308 85.78625 
L 441.902839 89.762362 
L 442.183071 89.762362 
L 442.466555 84.215393 
L 442.751542 84.460681 
L 443.035883 89.762362 
L 443.316683 87.11167 
L 443.600544 87.11167 
L 444.171626 84.460979 
L 444.736121 87.111373 
L 445.020075 84.460979 
L 445.303652 84.46083 
L 445.584186 83.135558 
L 445.869487 85.78625 
L 446.153324 81.810237 
L 446.436358 84.460929 
L 446.717743 83.135509 
L 447.001799 85.78625 
L 447.287801 84.460929 
L 447.569134 87.111571 
L 447.852874 84.460929 
L 448.136398 88.436942 
L 448.419639 87.111621 
L 448.703009 83.135558 
L 448.985352 85.78625 
L 449.269653 81.810188 
L 449.552332 84.460879 
L 449.837286 85.78625 
L 450.405519 83.135558 
L 450.6873 85.78625 
L 451.253019 83.135558 
L 451.81989 85.78625 
L 452.104605 81.810138 
L 452.38659 85.78625 
L 452.670074 85.78625 
L 452.955849 84.460979 
L 453.520585 89.762213 
L 453.805162 87.111819 
L 454.088496 88.436942 
L 454.370916 85.78625 
L 454.65634 89.762213 
L 454.938863 91.087584 
L 455.223588 88.43709 
L 455.504706 88.437388 
L 455.788056 85.78625 
L 456.072448 84.460979 
L 456.354779 89.762213 
L 456.639169 89.762362 
L 456.922118 87.111819 
L 457.205719 87.111819 
L 457.489927 89.762362 
L 457.772908 89.762362 
L 458.055835 84.460979 
L 458.339901 86.449035 
L 458.623085 83.135707 
L 458.906786 88.43709 
L 459.473711 83.13541 
L 459.756291 89.762362 
L 460.040253 87.111521 
L 460.323669 87.111819 
L 460.606556 83.13541 
L 460.890515 88.437388 
L 461.173788 85.78625 
L 461.461453 91.087584 
L 461.740805 89.762362 
L 462.024623 86.448886 
L 462.590701 89.762213 
L 462.874159 90.425047 
L 463.158328 88.436942 
L 463.442098 88.436942 
L 463.725112 89.762213 
L 464.009011 87.111819 
L 464.292094 88.436793 
L 464.575471 87.111521 
L 464.858746 88.436942 
L 465.143067 88.436594 
L 465.425714 87.11167 
L 465.709301 89.762362 
L 465.992333 89.762362 
L 466.560049 87.11167 
L 466.843067 89.762362 
L 467.126908 85.78625 
L 467.409686 87.11167 
L 467.693061 89.762014 
L 467.976948 89.762362 
L 468.260276 88.43709 
L 468.826671 88.43709 
L 469.110274 89.762511 
L 469.394097 88.43709 
L 469.677502 89.762213 
L 469.960586 89.762511 
L 470.243967 91.087931 
L 470.52868 88.436793 
L 470.811748 89.762511 
L 471.0948 89.762213 
L 471.377946 91.087832 
L 471.661553 89.762213 
L 471.945289 92.412706 
L 472.228473 92.413202 
L 472.511606 93.738424 
L 472.795528 93.738424 
L 473.078927 95.063695 
L 473.362557 93.738374 
L 473.362557 93.738374 
" clip-path="url(#p078f754469)" style="fill: none; stroke: #0000ff; stroke-linecap: square"/>
   </g>
   <g id="line2d_46">
    <path d="M 295.979375 36.172917 
L 481.809375 36.172917 
" clip-path="url(#p078f754469)" style="fill: none; stroke-dasharray: 7.4,3.2; stroke-dashoffset: 0; stroke: #000000; stroke-opacity: 0.7; stroke-width: 2"/>
   </g>
   <g id="line2d_47">
    <path d="M 295.979375 135.399583 
L 481.809375 135.399583 
" clip-path="url(#p078f754469)" style="fill: none; stroke-dasharray: 7.4,3.2; stroke-dashoffset: 0; stroke: #000000; stroke-opacity: 0.7; stroke-width: 2"/>
   </g>
   <g id="patch_8">
    <path d="M 295.979375 160.20625 
L 295.979375 11.36625 
" style="fill: none; stroke: #000000; stroke-width: 0.8; stroke-linejoin: miter; stroke-linecap: square"/>
   </g>
   <g id="patch_9">
    <path d="M 481.809375 160.20625 
L 481.809375 11.36625 
" style="fill: none; stroke: #000000; stroke-width: 0.8; stroke-linejoin: miter; stroke-linecap: square"/>
   </g>
   <g id="patch_10">
    <path d="M 295.979375 160.20625 
L 481.809375 160.20625 
" style="fill: none; stroke: #000000; stroke-width: 0.8; stroke-linejoin: miter; stroke-linecap: square"/>
   </g>
   <g id="patch_11">
    <path d="M 295.979375 11.36625 
L 481.809375 11.36625 
" style="fill: none; stroke: #000000; stroke-width: 0.8; stroke-linejoin: miter; stroke-linecap: square"/>
   </g>
  </g>
 </g>
 <defs>
  <clipPath id="p149706fb16">
   <rect x="50.099375" y="11.36625" width="185.83" height="148.84"/>
  </clipPath>
  <clipPath id="p078f754469">
   <rect x="295.979375" y="11.36625" width="185.83" height="148.84"/>
  </clipPath>
 </defs>
</svg>
