<?xml version="1.0" encoding="utf-8" standalone="no"?>
<!DOCTYPE svg PUBLIC "-//W3C//DTD SVG 1.1//EN"
  "http://www.w3.org/Graphics/SVG/1.1/DTD/svg11.dtd">
<svg xmlns:xlink="http://www.w3.org/1999/xlink" width="488.80865pt" height="200.205pt" viewBox="0 0 488.80865 200.205" xmlns="http://www.w3.org/2000/svg" version="1.1">
 <metadata>
  <rdf:RDF xmlns:dc="http://purl.org/dc/elements/1.1/" xmlns:cc="http://creativecommons.org/ns#" xmlns:rdf="http://www.w3.org/1999/02/22-rdf-syntax-ns#">
   <cc:Work>
    <dc:type rdf:resource="http://purl.org/dc/dcmitype/StillImage"/>
    <dc:date>2026-01-18T23:30:34.812771</dc:date>
    <dc:format>image/svg+xml</dc:format>
    <dc:creator>
     <cc:Agent>
      <dc:title>Matplotlib v3.6.3, https://matplotlib.org/</dc:title>
     </cc:Agent>
    </dc:creator>
   </cc:Work>
  </rdf:RDF>
 </metadata>
 <defs>
  <style type="text/css">*{stroke-linejoin: round; stroke-linecap: butt}</style>
 </defs>
 <g id="figure_1">
  <g id="patch_1">
   <path d="M 0 200.205 
L 488.80865 200.205 
L 488.80865 -0 
L 0 -0 
z
" style="fill: #ffffff"/>
  </g>
  <g id="axes_1">
   <g id="patch_2">
    <path d="M 50.099375 160.20625 
L 234.391898 160.20625 
L 234.391898 11.36625 
L 50.099375 11.36625 
z
" style="fill: #ffffff"/>
   </g>
   <g id="matplotlib.axis_1">
    <g id="xtick_1">
     <g id="line2d_1">
      <path d="M 58.476308 160.20625 
L 58.476308 11.36625 
" clip-path="url(#p864c9cccd7)" style="fill: none; stroke: #b0b0b0; stroke-opacity: 0.3; stroke-width: 0.8; stroke-linecap: square"/>
     </g>
     <g id="line2d_2">
      <defs>
       <path id="m7e8e7a10bc" d="M 0 0 
L 0 3.5 
" style="stroke: #000000; stroke-width: 0.8"/>
      </defs>
      <g>
       <use xlink:href="#m7e8e7a10bc" x="58.476308" y="160.20625" style="stroke: #000000; stroke-width: 0.8"/>
      </g>
     </g>
     <g id="text_1">
      <!-- 0 -->
      <g transform="translate(55.476308 175.53875) scale(0.12 -0.12)">
       <defs>
        <path id="TimesNewRomanPSMT-30" d="M 231 2094 
Q 231 2819 450 3342 
Q 669 3866 1031 4122 
Q 1313 4325 1613 4325 
Q 2100 4325 2488 3828 
Q 2972 3213 2972 2159 
Q 2972 1422 2759 906 
Q 2547 391 2217 158 
Q 1888 -75 1581 -75 
Q 975 -75 572 641 
Q 231 1244 231 2094 
z
M 844 2016 
Q 844 1141 1059 588 
Q 1238 122 1591 122 
Q 1759 122 1940 273 
Q 2122 425 2216 781 
Q 2359 1319 2359 2297 
Q 2359 3022 2209 3506 
Q 2097 3866 1919 4016 
Q 1791 4119 1609 4119 
Q 1397 4119 1231 3928 
Q 1006 3669 925 3112 
Q 844 2556 844 2016 
z
" transform="scale(0.015625)"/>
       </defs>
       <use xlink:href="#TimesNewRomanPSMT-30"/>
      </g>
     </g>
    </g>
    <g id="xtick_2">
     <g id="line2d_3">
      <path d="M 101.289394 160.20625 
L 101.289394 11.36625 
" clip-path="url(#p864c9cccd7)" style="fill: none; stroke: #b0b0b0; stroke-opacity: 0.3; stroke-width: 0.8; stroke-linecap: square"/>
     </g>
     <g id="line2d_4">
      <g>
       <use xlink:href="#m7e8e7a10bc" x="101.289394" y="160.20625" style="stroke: #000000; stroke-width: 0.8"/>
      </g>
     </g>
     <g id="text_2">
      <!-- 5 -->
      <g transform="translate(98.289394 175.53875) scale(0.12 -0.12)">
       <defs>
        <path id="TimesNewRomanPSMT-35" d="M 2778 4238 
L 2534 3706 
L 1259 3706 
L 981 3138 
Q 1809 3016 2294 2522 
Q 2709 2097 2709 1522 
Q 2709 1188 2573 903 
Q 2438 619 2231 419 
Q 2025 219 1772 97 
Q 1413 -75 1034 -75 
Q 653 -75 479 54 
Q 306 184 306 341 
Q 306 428 378 495 
Q 450 563 559 563 
Q 641 563 702 538 
Q 763 513 909 409 
Q 1144 247 1384 247 
Q 1750 247 2026 523 
Q 2303 800 2303 1197 
Q 2303 1581 2056 1914 
Q 1809 2247 1375 2428 
Q 1034 2569 447 2591 
L 1259 4238 
L 2778 4238 
z
" transform="scale(0.015625)"/>
       </defs>
       <use xlink:href="#TimesNewRomanPSMT-35"/>
      </g>
     </g>
    </g>
    <g id="xtick_3">
     <g id="line2d_5">
      <path d="M 144.102479 160.20625 
L 144.102479 11.36625 
" clip-path="url(#p864c9cccd7)" style="fill: none; stroke: #b0b0b0; stroke-opacity: 0.3; stroke-width: 0.8; stroke-linecap: square"/>
     </g>
     <g id="line2d_6">
      <g>
       <use xlink:href="#m7e8e7a10bc" x="144.102479" y="160.20625" style="stroke: #000000; stroke-width: 0.8"/>
      </g>
     </g>
     <g id="text_3">
      <!-- 10 -->
      <g transform="translate(138.102479 175.53875) scale(0.12 -0.12)">
       <defs>
        <path id="TimesNewRomanPSMT-31" d="M 750 3822 
L 1781 4325 
L 1884 4325 
L 1884 747 
Q 1884 391 1914 303 
Q 1944 216 2037 169 
Q 2131 122 2419 116 
L 2419 0 
L 825 0 
L 825 116 
Q 1125 122 1212 167 
Q 1300 213 1334 289 
Q 1369 366 1369 747 
L 1369 3034 
Q 1369 3497 1338 3628 
Q 1316 3728 1258 3775 
Q 1200 3822 1119 3822 
Q 1003 3822 797 3725 
L 750 3822 
z
" transform="scale(0.015625)"/>
       </defs>
       <use xlink:href="#TimesNewRomanPSMT-31"/>
       <use xlink:href="#TimesNewRomanPSMT-30" x="50"/>
      </g>
     </g>
    </g>
    <g id="xtick_4">
     <g id="line2d_7">
      <path d="M 186.915565 160.20625 
L 186.915565 11.36625 
" clip-path="url(#p864c9cccd7)" style="fill: none; stroke: #b0b0b0; stroke-opacity: 0.3; stroke-width: 0.8; stroke-linecap: square"/>
     </g>
     <g id="line2d_8">
      <g>
       <use xlink:href="#m7e8e7a10bc" x="186.915565" y="160.20625" style="stroke: #000000; stroke-width: 0.8"/>
      </g>
     </g>
     <g id="text_4">
      <!-- 15 -->
      <g transform="translate(180.915565 175.53875) scale(0.12 -0.12)">
       <use xlink:href="#TimesNewRomanPSMT-31"/>
       <use xlink:href="#TimesNewRomanPSMT-35" x="50"/>
      </g>
     </g>
    </g>
    <g id="xtick_5">
     <g id="line2d_9">
      <path d="M 229.72865 160.20625 
L 229.72865 11.36625 
" clip-path="url(#p864c9cccd7)" style="fill: none; stroke: #b0b0b0; stroke-opacity: 0.3; stroke-width: 0.8; stroke-linecap: square"/>
     </g>
     <g id="line2d_10">
      <g>
       <use xlink:href="#m7e8e7a10bc" x="229.72865" y="160.20625" style="stroke: #000000; stroke-width: 0.8"/>
      </g>
     </g>
     <g id="text_5">
      <!-- 20 -->
      <g transform="translate(223.72865 175.53875) scale(0.12 -0.12)">
       <defs>
        <path id="TimesNewRomanPSMT-32" d="M 2934 816 
L 2638 0 
L 138 0 
L 138 116 
Q 1241 1122 1691 1759 
Q 2141 2397 2141 2925 
Q 2141 3328 1894 3587 
Q 1647 3847 1303 3847 
Q 991 3847 742 3664 
Q 494 3481 375 3128 
L 259 3128 
Q 338 3706 661 4015 
Q 984 4325 1469 4325 
Q 1984 4325 2329 3994 
Q 2675 3663 2675 3213 
Q 2675 2891 2525 2569 
Q 2294 2063 1775 1497 
Q 997 647 803 472 
L 1909 472 
Q 2247 472 2383 497 
Q 2519 522 2628 598 
Q 2738 675 2819 816 
L 2934 816 
z
" transform="scale(0.015625)"/>
       </defs>
       <use xlink:href="#TimesNewRomanPSMT-32"/>
       <use xlink:href="#TimesNewRomanPSMT-30" x="50"/>
      </g>
     </g>
    </g>
    <g id="text_6">
     <!-- $t$ [s] -->
     <g transform="translate(132.705637 190.438125) scale(0.12 -0.12)">
      <defs>
       <path id="STIXGeneral-Italic-74" d="M 1894 2739 
L 1862 2534 
L 1325 2534 
L 768 435 
Q 755 384 755 346 
Q 755 243 851 243 
Q 928 243 1030 342 
Q 1133 442 1370 749 
L 1453 704 
Q 1158 256 969 93 
Q 781 -70 538 -70 
Q 243 -70 243 166 
Q 243 230 346 640 
L 845 2534 
L 365 2534 
L 358 2573 
Q 358 2688 570 2733 
Q 730 2771 992 2979 
Q 1254 3187 1421 3437 
Q 1459 3494 1510 3494 
Q 1568 3494 1568 3443 
Q 1568 3411 1562 3398 
L 1382 2739 
L 1894 2739 
z
" transform="scale(0.015625)"/>
       <path id="TimesNewRomanPSMT-20" transform="scale(0.015625)"/>
       <path id="TimesNewRomanPSMT-5b" d="M 1900 -1269 
L 525 -1269 
L 525 4334 
L 1900 4334 
L 1900 4088 
L 994 4088 
L 994 -1025 
L 1900 -1025 
L 1900 -1269 
z
" transform="scale(0.015625)"/>
       <path id="TimesNewRomanPSMT-73" d="M 2050 2947 
L 2050 1972 
L 1947 1972 
Q 1828 2431 1642 2597 
Q 1456 2763 1169 2763 
Q 950 2763 815 2647 
Q 681 2531 681 2391 
Q 681 2216 781 2091 
Q 878 1963 1175 1819 
L 1631 1597 
Q 2266 1288 2266 781 
Q 2266 391 1970 151 
Q 1675 -88 1309 -88 
Q 1047 -88 709 6 
Q 606 38 541 38 
Q 469 38 428 -44 
L 325 -44 
L 325 978 
L 428 978 
Q 516 541 762 319 
Q 1009 97 1316 97 
Q 1531 97 1667 223 
Q 1803 350 1803 528 
Q 1803 744 1651 891 
Q 1500 1038 1047 1263 
Q 594 1488 453 1669 
Q 313 1847 313 2119 
Q 313 2472 555 2709 
Q 797 2947 1181 2947 
Q 1350 2947 1591 2875 
Q 1750 2828 1803 2828 
Q 1853 2828 1881 2850 
Q 1909 2872 1947 2947 
L 2050 2947 
z
" transform="scale(0.015625)"/>
       <path id="TimesNewRomanPSMT-5d" d="M 234 4334 
L 1609 4334 
L 1609 -1272 
L 234 -1272 
L 234 -1025 
L 1141 -1025 
L 1141 4088 
L 234 4088 
L 234 4334 
z
" transform="scale(0.015625)"/>
      </defs>
      <use xlink:href="#STIXGeneral-Italic-74" transform="translate(0 0.28125)"/>
      <use xlink:href="#TimesNewRomanPSMT-20" transform="translate(27.799988 0.28125)"/>
      <use xlink:href="#TimesNewRomanPSMT-5b" transform="translate(52.799988 0.28125)"/>
      <use xlink:href="#TimesNewRomanPSMT-73" transform="translate(86.100769 0.28125)"/>
      <use xlink:href="#TimesNewRomanPSMT-5d" transform="translate(125.016785 0.28125)"/>
     </g>
    </g>
   </g>
   <g id="matplotlib.axis_2">
    <g id="ytick_1">
     <g id="line2d_11">
      <path d="M 50.099375 153.440795 
L 234.391898 153.440795 
" clip-path="url(#p864c9cccd7)" style="fill: none; stroke: #b0b0b0; stroke-opacity: 0.3; stroke-width: 0.8; stroke-linecap: square"/>
     </g>
     <g id="line2d_12">
      <defs>
       <path id="mff800b2eb3" d="M 0 0 
L -3.5 0 
" style="stroke: #000000; stroke-width: 0.8"/>
      </defs>
      <g>
       <use xlink:href="#mff800b2eb3" x="50.099375" y="153.440795" style="stroke: #000000; stroke-width: 0.8"/>
      </g>
     </g>
     <g id="text_7">
      <!-- 0.00 -->
      <g transform="translate(22.099375 157.607045) scale(0.12 -0.12)">
       <defs>
        <path id="TimesNewRomanPSMT-2e" d="M 800 606 
Q 947 606 1047 504 
Q 1147 403 1147 259 
Q 1147 116 1045 14 
Q 944 -88 800 -88 
Q 656 -88 554 14 
Q 453 116 453 259 
Q 453 406 554 506 
Q 656 606 800 606 
z
" transform="scale(0.015625)"/>
       </defs>
       <use xlink:href="#TimesNewRomanPSMT-30"/>
       <use xlink:href="#TimesNewRomanPSMT-2e" x="50"/>
       <use xlink:href="#TimesNewRomanPSMT-30" x="75"/>
       <use xlink:href="#TimesNewRomanPSMT-30" x="125"/>
      </g>
     </g>
    </g>
    <g id="ytick_2">
     <g id="line2d_13">
      <path d="M 50.099375 88.959012 
L 234.391898 88.959012 
" clip-path="url(#p864c9cccd7)" style="fill: none; stroke: #b0b0b0; stroke-opacity: 0.3; stroke-width: 0.8; stroke-linecap: square"/>
     </g>
     <g id="line2d_14">
      <g>
       <use xlink:href="#mff800b2eb3" x="50.099375" y="88.959012" style="stroke: #000000; stroke-width: 0.8"/>
      </g>
     </g>
     <g id="text_8">
      <!-- 0.25 -->
      <g transform="translate(22.099375 93.125262) scale(0.12 -0.12)">
       <use xlink:href="#TimesNewRomanPSMT-30"/>
       <use xlink:href="#TimesNewRomanPSMT-2e" x="50"/>
       <use xlink:href="#TimesNewRomanPSMT-32" x="75"/>
       <use xlink:href="#TimesNewRomanPSMT-35" x="125"/>
      </g>
     </g>
    </g>
    <g id="ytick_3">
     <g id="line2d_15">
      <path d="M 50.099375 24.477228 
L 234.391898 24.477228 
" clip-path="url(#p864c9cccd7)" style="fill: none; stroke: #b0b0b0; stroke-opacity: 0.3; stroke-width: 0.8; stroke-linecap: square"/>
     </g>
     <g id="line2d_16">
      <g>
       <use xlink:href="#mff800b2eb3" x="50.099375" y="24.477228" style="stroke: #000000; stroke-width: 0.8"/>
      </g>
     </g>
     <g id="text_9">
      <!-- 0.50 -->
      <g transform="translate(22.099375 28.643478) scale(0.12 -0.12)">
       <use xlink:href="#TimesNewRomanPSMT-30"/>
       <use xlink:href="#TimesNewRomanPSMT-2e" x="50"/>
       <use xlink:href="#TimesNewRomanPSMT-35" x="75"/>
       <use xlink:href="#TimesNewRomanPSMT-30" x="125"/>
      </g>
     </g>
    </g>
    <g id="text_10">
     <!-- $v$ [m/s] -->
     <g transform="translate(15.5325 102.64625) rotate(-90) scale(0.12 -0.12)">
      <defs>
       <path id="STIXGeneral-Italic-76" d="M 1325 448 
L 1523 653 
Q 1869 1005 2134 1456 
Q 2400 1907 2400 2131 
Q 2400 2208 2285 2317 
Q 2125 2458 2125 2605 
Q 2125 2701 2195 2761 
Q 2266 2822 2368 2822 
Q 2522 2822 2624 2704 
Q 2726 2586 2726 2445 
Q 2726 2074 2323 1453 
Q 1971 909 1562 474 
Q 1504 416 1421 326 
Q 1338 237 1299 192 
Q 1261 147 1200 86 
Q 1139 26 1110 -3 
Q 1082 -32 1043 -64 
Q 1005 -96 979 -105 
Q 954 -115 928 -115 
Q 870 -115 870 58 
L 870 211 
Q 870 1094 717 1990 
Q 653 2355 579 2470 
Q 506 2586 326 2586 
Q 198 2586 128 2579 
L 128 2662 
Q 480 2720 845 2797 
Q 915 2822 973 2822 
Q 1011 2822 1033 2739 
Q 1056 2656 1165 2093 
Q 1280 1510 1325 448 
z
" transform="scale(0.015625)"/>
       <path id="TimesNewRomanPSMT-6d" d="M 1050 2338 
Q 1363 2650 1419 2697 
Q 1559 2816 1721 2881 
Q 1884 2947 2044 2947 
Q 2313 2947 2506 2790 
Q 2700 2634 2766 2338 
Q 3088 2713 3309 2830 
Q 3531 2947 3766 2947 
Q 3994 2947 4170 2830 
Q 4347 2713 4450 2447 
Q 4519 2266 4519 1878 
L 4519 647 
Q 4519 378 4559 278 
Q 4591 209 4675 161 
Q 4759 113 4950 113 
L 4950 0 
L 3538 0 
L 3538 113 
L 3597 113 
Q 3781 113 3884 184 
Q 3956 234 3988 344 
Q 4000 397 4000 647 
L 4000 1878 
Q 4000 2228 3916 2372 
Q 3794 2572 3525 2572 
Q 3359 2572 3192 2489 
Q 3025 2406 2788 2181 
L 2781 2147 
L 2788 2013 
L 2788 647 
Q 2788 353 2820 281 
Q 2853 209 2943 161 
Q 3034 113 3253 113 
L 3253 0 
L 1806 0 
L 1806 113 
Q 2044 113 2133 169 
Q 2222 225 2256 338 
Q 2272 391 2272 647 
L 2272 1878 
Q 2272 2228 2169 2381 
Q 2031 2581 1784 2581 
Q 1616 2581 1450 2491 
Q 1191 2353 1050 2181 
L 1050 647 
Q 1050 366 1089 281 
Q 1128 197 1204 155 
Q 1281 113 1516 113 
L 1516 0 
L 100 0 
L 100 113 
Q 297 113 375 155 
Q 453 197 493 289 
Q 534 381 534 647 
L 534 1741 
Q 534 2213 506 2350 
Q 484 2453 437 2492 
Q 391 2531 309 2531 
Q 222 2531 100 2484 
L 53 2597 
L 916 2947 
L 1050 2947 
L 1050 2338 
z
" transform="scale(0.015625)"/>
       <path id="TimesNewRomanPSMT-2f" d="M 1794 4444 
L 259 -88 
L 9 -88 
L 1544 4444 
L 1794 4444 
z
" transform="scale(0.015625)"/>
      </defs>
      <use xlink:href="#STIXGeneral-Italic-76" transform="translate(0 0.5625)"/>
      <use xlink:href="#TimesNewRomanPSMT-20" transform="translate(44.399994 0.5625)"/>
      <use xlink:href="#TimesNewRomanPSMT-5b" transform="translate(69.399994 0.5625)"/>
      <use xlink:href="#TimesNewRomanPSMT-6d" transform="translate(102.700775 0.5625)"/>
      <use xlink:href="#TimesNewRomanPSMT-2f" transform="translate(180.483978 0.5625)"/>
      <use xlink:href="#TimesNewRomanPSMT-73" transform="translate(208.267181 0.5625)"/>
      <use xlink:href="#TimesNewRomanPSMT-5d" transform="translate(247.183197 0.5625)"/>
     </g>
    </g>
   </g>
   <g id="line2d_17">
    <path d="M 58.476308 24.477228 
L 207.464732 24.477228 
L 207.748921 25.762995 
L 210.032008 52.012239 
L 210.602549 59.624185 
L 211.173612 65.295229 
L 211.459187 68.225797 
L 211.74431 69.719453 
L 212.029922 69.578625 
L 212.886142 76.441034 
L 213.456809 83.063313 
L 213.742431 85.17161 
L 214.027547 86.164371 
L 214.598425 89.925981 
L 214.884012 90.557902 
L 215.740569 95.02649 
L 216.025491 95.978499 
L 216.881732 101.853305 
L 217.167095 105.000532 
L 217.737928 107.119661 
L 218.023297 111.959406 
L 218.594154 114.633595 
L 218.879709 115.586635 
L 219.165366 116.092688 
L 220.306851 120.134665 
L 220.592206 122.603801 
L 221.162853 124.51143 
L 221.733679 125.778626 
L 222.019201 126.339102 
L 222.304687 126.243411 
L 223.731691 129.122136 
L 224.01705 128.629753 
L 225.444553 131.54923 
L 226.014965 132.797081 
L 226.014965 132.797081 
" clip-path="url(#p864c9cccd7)" style="fill: none; stroke: #ff0000; stroke-opacity: 0.8; stroke-linecap: square"/>
   </g>
   <g id="line2d_18">
    <path d="M 58.476308 153.440795 
L 59.616778 153.440795 
L 60.19093 146.605726 
L 60.472909 134.644613 
L 60.758337 134.644355 
L 61.044835 124.391752 
L 61.614623 115.847916 
L 61.902989 119.26545 
L 62.470957 98.760243 
L 62.758472 97.051476 
L 63.041971 93.633941 
L 63.327108 85.090105 
L 63.612832 81.67257 
L 63.900206 81.67257 
L 64.183487 79.963803 
L 64.472208 62.876388 
L 64.755046 66.293665 
L 65.041334 52.623527 
L 65.328047 56.041061 
L 65.610511 45.788457 
L 65.899653 49.205992 
L 66.182211 38.95313 
L 66.466862 38.953646 
L 66.75219 37.244363 
L 67.323376 21.865458 
L 67.608455 23.574741 
L 67.893879 20.15669 
L 68.179518 20.157206 
L 68.465928 18.448181 
L 68.750324 20.156948 
L 69.035638 18.448181 
L 69.321828 26.992017 
L 69.608379 21.865458 
L 69.89222 20.15669 
L 70.181035 26.137505 
L 70.462795 25.282992 
L 70.748172 23.574225 
L 71.033621 25.28325 
L 71.31966 20.15669 
L 71.604478 20.156948 
L 71.889813 25.282992 
L 72.175196 23.574225 
L 72.463581 20.156948 
L 72.748237 23.574741 
L 73.031614 25.28325 
L 73.318098 25.28325 
L 73.605505 26.992275 
L 73.887769 21.865458 
L 74.173359 25.282992 
L 74.458836 25.282992 
L 74.746594 23.574225 
L 75.032445 25.282992 
L 75.317943 21.865974 
L 75.601491 23.574225 
L 75.885744 28.700785 
L 76.45715 18.448439 
L 77.027607 26.992017 
L 77.313801 25.28325 
L 77.598739 24.428996 
L 77.883645 28.700785 
L 78.169945 25.28325 
L 78.454537 25.28325 
L 78.742596 26.992017 
L 79.025604 21.865716 
L 79.3115 30.409552 
L 79.596397 24.428738 
L 79.881489 21.865458 
L 80.167193 23.574483 
L 80.45233 26.992017 
L 80.739483 21.865974 
L 81.023378 25.282992 
L 81.308852 21.865974 
L 81.59418 28.701043 
L 81.879737 30.40981 
L 82.165188 23.574225 
L 82.450343 26.992017 
L 82.736549 28.700785 
L 83.021227 23.574483 
L 83.306774 22.720228 
L 83.592286 23.574225 
L 83.877594 23.574741 
L 84.165202 32.118061 
L 84.44842 23.574483 
L 84.733616 23.574741 
L 85.021929 21.865716 
L 85.590216 28.701043 
L 85.877659 25.28325 
L 86.160854 23.574483 
L 86.449428 28.700785 
L 86.734622 25.283508 
L 87.017123 20.156948 
L 87.305169 26.991502 
L 87.588033 26.99176 
L 87.873317 23.574483 
L 88.1589 25.28325 
L 88.444357 23.574225 
L 88.729898 24.506374 
L 89.301741 28.701043 
L 89.588719 28.700785 
L 89.874219 23.574483 
L 90.158214 23.574225 
L 90.442475 26.992017 
L 90.727842 25.28325 
L 91.013011 25.28325 
L 91.298719 26.992017 
L 91.58396 21.865716 
L 91.872185 26.992017 
L 92.154803 25.28325 
L 92.440425 30.40981 
L 92.725607 26.992017 
L 93.013789 21.865458 
L 93.297225 23.574483 
L 93.584299 26.992017 
L 94.156803 23.574483 
L 94.44057 28.700785 
L 94.723675 28.700785 
L 95.011841 23.574483 
L 95.294265 25.28325 
L 95.579983 26.137763 
L 95.865642 23.574741 
L 96.150638 23.574741 
L 96.438533 25.28325 
L 96.721724 25.28325 
L 97.008591 26.992017 
L 97.292536 23.574483 
L 97.578066 26.992533 
L 97.863168 20.15669 
L 98.148692 21.865458 
L 98.434121 25.28325 
L 98.719392 26.992017 
L 99.007491 26.99176 
L 99.293362 23.934291 
L 99.577854 23.574483 
L 100.146649 26.992017 
L 100.435297 23.574225 
L 101.002926 26.992017 
L 101.288275 25.283508 
L 101.573693 21.865458 
L 101.86259 21.865974 
L 102.430017 26.992017 
L 102.715519 25.28325 
L 103.000888 25.28325 
L 103.289796 21.865716 
L 103.572192 25.28325 
L 103.8572 26.99176 
L 104.428721 25.283508 
L 104.713355 25.28325 
L 104.999125 21.865716 
L 105.569706 21.865716 
L 105.856541 23.574483 
L 106.143796 23.574225 
L 106.425761 26.060127 
L 106.711369 23.574483 
L 106.997054 28.701043 
L 107.283751 21.865458 
L 107.567866 23.574483 
L 107.853209 26.137763 
L 108.138342 23.574225 
L 108.423839 26.992017 
L 108.712565 27.846272 
L 108.995001 30.409552 
L 109.280174 23.574741 
L 109.565915 28.700527 
L 109.851241 30.40981 
L 110.138819 25.283508 
L 110.421877 25.28325 
L 110.708153 26.992017 
L 110.994794 25.282992 
L 111.282211 26.992275 
L 111.563687 23.574483 
L 111.850749 23.574741 
L 112.136457 25.283508 
L 112.419736 25.28325 
L 112.706916 28.700785 
L 112.990517 25.282992 
L 113.275376 26.992275 
L 113.561509 20.156948 
L 113.85013 26.992017 
L 114.132113 21.865974 
L 114.417641 25.28325 
L 114.706473 25.28325 
L 114.988333 23.574225 
L 115.273643 26.137763 
L 115.558981 27.613364 
L 115.844447 23.574483 
L 116.41532 23.574483 
L 116.700783 25.283508 
L 116.986303 25.283508 
L 117.274619 23.574483 
L 117.558753 26.99176 
L 117.843124 20.156948 
L 118.128044 23.258006 
L 118.413262 23.574483 
L 118.701773 26.992275 
L 118.98753 20.15669 
L 119.270384 25.28325 
L 119.555292 21.865974 
L 119.840702 23.574741 
L 120.128934 26.137763 
L 120.411555 25.283508 
L 120.982371 21.865974 
L 121.267941 23.574483 
L 121.55343 23.574741 
L 121.838551 26.992017 
L 122.409359 23.574483 
L 122.697092 26.992017 
L 122.980213 18.131705 
L 123.268906 25.28325 
L 123.55215 25.28325 
L 123.836644 23.574483 
L 124.122842 20.15669 
L 124.407721 25.283508 
L 124.978164 28.701043 
L 125.263384 23.574225 
L 125.549078 26.992017 
L 125.83429 26.992017 
L 126.122717 23.574483 
L 126.406482 26.992017 
L 126.978176 26.992275 
L 127.261306 21.865716 
L 127.54683 21.865716 
L 127.832832 28.700785 
L 128.11981 23.574483 
L 128.406657 21.865716 
L 128.973913 25.28325 
L 129.262485 21.865716 
L 129.546705 28.700785 
L 129.830262 23.574483 
L 130.117038 30.409552 
L 130.403101 25.28325 
L 130.686886 26.992017 
L 130.972768 23.574483 
L 131.258082 25.282992 
L 131.829719 25.283508 
L 132.398934 21.865974 
L 132.686073 25.282992 
L 132.971755 20.156948 
L 133.543471 26.99176 
L 133.826736 22.083406 
L 134.112279 21.865974 
L 134.397266 26.992533 
L 134.682478 25.28325 
L 134.969426 26.99176 
L 135.538502 20.156948 
L 136.109988 26.137763 
L 136.394847 25.28325 
L 136.680261 23.257748 
L 136.968993 23.574225 
L 137.251124 21.865716 
L 137.53672 28.700785 
L 138.109108 21.865458 
L 138.393099 26.99176 
L 138.679508 26.992017 
L 138.963826 23.574741 
L 139.249054 26.992275 
L 139.534611 26.992017 
L 139.819907 25.28325 
L 140.10547 25.28325 
L 140.391003 23.574483 
L 140.678364 26.992017 
L 140.961637 20.157206 
L 141.247486 23.574741 
L 141.532535 25.28325 
L 141.817845 25.28325 
L 142.105037 23.574483 
L 142.389222 23.574483 
L 142.674265 23.248979 
L 142.959838 25.28325 
L 143.244942 28.700785 
L 143.530393 25.28325 
L 143.815989 25.28325 
L 144.101338 32.118319 
L 144.38683 28.700785 
L 144.674798 23.574483 
L 144.95787 21.865716 
L 145.24334 21.865974 
L 145.529746 28.700785 
L 145.813925 21.865974 
L 146.099288 26.992275 
L 146.385403 23.574483 
L 146.670106 25.28325 
L 147.243909 25.28325 
L 147.526373 26.992275 
L 147.811922 26.992533 
L 148.097383 20.156948 
L 148.382638 26.137763 
L 148.668657 28.701301 
L 148.956239 26.99176 
L 149.238999 21.865974 
L 149.524393 25.283508 
L 149.811828 26.992275 
L 150.095074 30.40981 
L 150.380776 18.448181 
L 150.666221 23.574483 
L 150.951862 20.156948 
L 151.23696 25.28325 
L 151.522531 21.865716 
L 151.807841 21.399899 
L 152.09327 23.574741 
L 152.378621 21.865716 
L 152.949475 25.283766 
L 153.235079 21.865458 
L 153.523025 25.28325 
L 153.805904 26.992017 
L 154.090904 25.28325 
L 154.376628 25.28325 
L 154.662442 21.865716 
L 154.950521 25.28325 
L 155.232752 21.865716 
L 155.518383 26.992017 
L 156.089068 21.865716 
L 156.376048 26.992017 
L 156.945202 26.992017 
L 157.231627 25.28325 
L 157.517201 25.28325 
L 157.801488 26.992017 
L 158.086967 20.157206 
L 158.66175 30.409552 
L 158.944955 21.865716 
L 159.230892 21.865458 
L 160.370277 28.701043 
L 160.944394 22.953136 
L 161.229216 25.28325 
L 161.512395 25.283508 
L 161.797429 21.548981 
L 162.655732 26.992017 
L 162.939016 21.865716 
L 163.224471 23.574483 
L 163.50989 23.574225 
L 163.795224 25.28325 
L 164.082327 25.28325 
L 164.3662 26.992017 
L 164.651757 25.28325 
L 164.940066 21.865716 
L 165.223287 21.865974 
L 165.793448 25.28325 
L 166.078654 28.700785 
L 166.364291 26.99176 
L 166.651279 21.865974 
L 166.937622 25.28325 
L 167.223261 24.428738 
L 167.505627 26.99176 
L 168.07864 20.157206 
L 168.362145 23.574483 
L 168.647459 25.28325 
L 168.932802 30.40981 
L 169.506056 23.574483 
L 169.789016 22.435219 
L 170.077288 26.991502 
L 170.360779 23.574483 
L 170.648314 21.865716 
L 170.930805 26.992275 
L 171.219731 21.865716 
L 171.501762 26.992017 
L 171.788618 25.282992 
L 172.080495 26.992275 
L 172.361549 25.28325 
L 172.928655 25.28325 
L 173.21509 23.574483 
L 173.499486 26.675283 
L 174.07444 21.865716 
L 174.357255 30.409294 
L 174.641132 25.282992 
L 174.926573 23.574225 
L 175.212024 23.574483 
L 175.498596 20.157206 
L 175.782887 25.28325 
L 176.068303 23.574483 
L 176.353599 23.574483 
L 176.639234 25.28325 
L 177.211912 21.865716 
L 177.49882 28.700785 
L 177.780829 23.574483 
L 178.06892 21.865716 
L 178.637037 21.865458 
L 178.92605 21.399641 
L 179.493555 26.137505 
L 179.778692 25.28325 
L 180.064145 25.28325 
L 180.352584 23.574483 
L 180.636128 25.28325 
L 180.920326 28.701043 
L 181.205777 26.992017 
L 181.492963 26.992017 
L 181.776885 25.28325 
L 182.062864 28.701043 
L 182.347734 22.71997 
L 182.633001 30.409552 
L 182.918668 26.992017 
L 183.205869 26.137763 
L 183.489033 23.574483 
L 183.774627 23.574225 
L 184.34814 26.99176 
L 184.916257 23.574483 
L 185.20162 25.283508 
L 185.487167 23.574999 
L 185.774655 25.28325 
L 186.059629 25.28325 
L 186.344255 23.574225 
L 186.628773 25.283508 
L 187.485777 25.282992 
L 187.770517 23.574225 
L 188.341405 23.574741 
L 188.626788 25.282992 
L 188.912233 22.720228 
L 189.197892 23.574225 
L 189.486009 25.28325 
L 189.771493 23.574483 
L 190.054594 28.700785 
L 190.627454 21.865716 
L 190.910171 26.992017 
L 191.480899 26.992275 
L 191.766418 24.428996 
L 192.05195 25.28325 
L 192.337403 25.28325 
L 192.622709 26.992017 
L 192.90864 23.574483 
L 193.48102 26.992017 
L 193.764164 23.574741 
L 194.049705 21.865716 
L 194.62313 25.28325 
L 194.905804 21.865974 
L 195.191451 21.865458 
L 195.476753 25.28325 
L 195.762145 26.99176 
L 196.047939 21.865974 
L 196.332871 23.574225 
L 196.620051 23.574483 
L 196.903528 32.273849 
L 197.191704 20.156948 
L 197.475904 25.282992 
L 197.759717 18.448181 
L 198.330784 25.28325 
L 198.616464 25.28325 
L 198.902979 23.574483 
L 199.186833 25.28325 
L 199.474562 25.283508 
L 199.75768 26.992275 
L 200.328447 26.992017 
L 200.613741 21.865716 
L 200.899191 25.282992 
L 201.185394 26.992275 
L 201.470036 25.28325 
L 201.755561 21.865974 
L 202.042735 23.574225 
L 202.611873 23.574741 
L 202.897072 21.865974 
L 203.184604 26.992275 
L 203.473245 23.574483 
L 203.754389 30.409552 
L 204.039295 21.865716 
L 204.32399 25.28325 
L 204.896517 25.28325 
L 205.181266 23.574483 
L 205.466702 26.992017 
L 205.750912 21.865716 
L 206.036608 26.059869 
L 206.322212 25.28325 
L 206.89281 28.700785 
L 207.178685 26.992017 
L 207.464732 21.865974 
L 208.034554 28.700785 
L 208.319668 25.28325 
L 208.605056 26.992017 
L 209.177256 35.535854 
L 209.461208 33.826829 
L 209.746541 44.079432 
L 210.032008 40.662156 
L 210.317412 47.497483 
L 210.889459 64.584897 
L 211.173612 54.33281 
L 211.459187 64.584897 
L 211.74431 64.584897 
L 212.029922 62.875872 
L 212.315577 73.128992 
L 212.600548 71.420224 
L 212.886142 71.420224 
L 213.456809 83.381337 
L 213.742431 79.963803 
L 214.027547 74.837759 
L 214.312984 83.381337 
L 214.884012 95.342966 
L 215.169208 93.633683 
L 215.454851 93.633683 
L 215.740569 98.760501 
L 216.025491 95.342966 
L 216.311847 95.342708 
L 216.596767 97.051991 
L 216.881732 95.34245 
L 217.167095 103.886545 
L 217.452526 98.760501 
L 218.023297 102.177519 
L 218.308848 110.721356 
L 218.594154 105.59557 
L 218.879709 105.59557 
L 219.165366 114.139406 
L 219.450502 114.139148 
L 220.021276 121.82873 
L 220.306851 120.657225 
L 220.592206 117.556941 
L 221.448244 126.100519 
L 221.733679 119.26545 
L 222.019201 122.683243 
L 223.161687 129.518054 
L 223.446211 129.518054 
L 223.731691 131.226305 
L 224.01705 129.518312 
L 224.302441 131.226563 
L 224.587829 131.226821 
L 224.873282 129.518054 
L 225.158676 132.93533 
L 225.444553 132.93533 
L 225.729825 131.226563 
L 226.014965 132.93533 
L 226.014965 132.93533 
" clip-path="url(#p864c9cccd7)" style="fill: none; stroke: #0000ff; stroke-linecap: square"/>
   </g>
   <g id="line2d_19">
    <path d="M 50.099375 24.477228 
L 234.391898 24.477228 
" clip-path="url(#p864c9cccd7)" style="fill: none; stroke-dasharray: 3.7,1.6; stroke-dashoffset: 0; stroke: #000000; stroke-opacity: 0.7"/>
   </g>
   <g id="patch_3">
    <path d="M 50.099375 160.20625 
L 50.099375 11.36625 
" style="fill: none; stroke: #000000; stroke-width: 0.8; stroke-linejoin: miter; stroke-linecap: square"/>
   </g>
   <g id="patch_4">
    <path d="M 234.391898 160.20625 
L 234.391898 11.36625 
" style="fill: none; stroke: #000000; stroke-width: 0.8; stroke-linejoin: miter; stroke-linecap: square"/>
   </g>
   <g id="patch_5">
    <path d="M 50.099375 160.20625 
L 234.391898 160.20625 
" style="fill: none; stroke: #000000; stroke-width: 0.8; stroke-linejoin: miter; stroke-linecap: square"/>
   </g>
   <g id="patch_6">
    <path d="M 50.099375 11.36625 
L 234.391898 11.36625 
" style="fill: none; stroke: #000000; stroke-width: 0.8; stroke-linejoin: miter; stroke-linecap: square"/>
   </g>
  </g>
  <g id="axes_2">
   <g id="patch_7">
    <path d="M 295.979375 160.20625 
L 480.271898 160.20625 
L 480.271898 11.36625 
L 295.979375 11.36625 
z
" style="fill: #ffffff"/>
   </g>
   <g id="matplotlib.axis_3">
    <g id="xtick_6">
     <g id="line2d_20">
      <path d="M 304.356308 160.20625 
L 304.356308 11.36625 
" clip-path="url(#pa8db98d460)" style="fill: none; stroke: #b0b0b0; stroke-opacity: 0.3; stroke-width: 0.8; stroke-linecap: square"/>
     </g>
     <g id="line2d_21">
      <g>
       <use xlink:href="#m7e8e7a10bc" x="304.356308" y="160.20625" style="stroke: #000000; stroke-width: 0.8"/>
      </g>
     </g>
     <g id="text_11">
      <!-- 0 -->
      <g transform="translate(301.356308 175.53875) scale(0.12 -0.12)">
       <use xlink:href="#TimesNewRomanPSMT-30"/>
      </g>
     </g>
    </g>
    <g id="xtick_7">
     <g id="line2d_22">
      <path d="M 347.169394 160.20625 
L 347.169394 11.36625 
" clip-path="url(#pa8db98d460)" style="fill: none; stroke: #b0b0b0; stroke-opacity: 0.3; stroke-width: 0.8; stroke-linecap: square"/>
     </g>
     <g id="line2d_23">
      <g>
       <use xlink:href="#m7e8e7a10bc" x="347.169394" y="160.20625" style="stroke: #000000; stroke-width: 0.8"/>
      </g>
     </g>
     <g id="text_12">
      <!-- 5 -->
      <g transform="translate(344.169394 175.53875) scale(0.12 -0.12)">
       <use xlink:href="#TimesNewRomanPSMT-35"/>
      </g>
     </g>
    </g>
    <g id="xtick_8">
     <g id="line2d_24">
      <path d="M 389.982479 160.20625 
L 389.982479 11.36625 
" clip-path="url(#pa8db98d460)" style="fill: none; stroke: #b0b0b0; stroke-opacity: 0.3; stroke-width: 0.8; stroke-linecap: square"/>
     </g>
     <g id="line2d_25">
      <g>
       <use xlink:href="#m7e8e7a10bc" x="389.982479" y="160.20625" style="stroke: #000000; stroke-width: 0.8"/>
      </g>
     </g>
     <g id="text_13">
      <!-- 10 -->
      <g transform="translate(383.982479 175.53875) scale(0.12 -0.12)">
       <use xlink:href="#TimesNewRomanPSMT-31"/>
       <use xlink:href="#TimesNewRomanPSMT-30" x="50"/>
      </g>
     </g>
    </g>
    <g id="xtick_9">
     <g id="line2d_26">
      <path d="M 432.795565 160.20625 
L 432.795565 11.36625 
" clip-path="url(#pa8db98d460)" style="fill: none; stroke: #b0b0b0; stroke-opacity: 0.3; stroke-width: 0.8; stroke-linecap: square"/>
     </g>
     <g id="line2d_27">
      <g>
       <use xlink:href="#m7e8e7a10bc" x="432.795565" y="160.20625" style="stroke: #000000; stroke-width: 0.8"/>
      </g>
     </g>
     <g id="text_14">
      <!-- 15 -->
      <g transform="translate(426.795565 175.53875) scale(0.12 -0.12)">
       <use xlink:href="#TimesNewRomanPSMT-31"/>
       <use xlink:href="#TimesNewRomanPSMT-35" x="50"/>
      </g>
     </g>
    </g>
    <g id="xtick_10">
     <g id="line2d_28">
      <path d="M 475.60865 160.20625 
L 475.60865 11.36625 
" clip-path="url(#pa8db98d460)" style="fill: none; stroke: #b0b0b0; stroke-opacity: 0.3; stroke-width: 0.8; stroke-linecap: square"/>
     </g>
     <g id="line2d_29">
      <g>
       <use xlink:href="#m7e8e7a10bc" x="475.60865" y="160.20625" style="stroke: #000000; stroke-width: 0.8"/>
      </g>
     </g>
     <g id="text_15">
      <!-- 20 -->
      <g transform="translate(469.60865 175.53875) scale(0.12 -0.12)">
       <use xlink:href="#TimesNewRomanPSMT-32"/>
       <use xlink:href="#TimesNewRomanPSMT-30" x="50"/>
      </g>
     </g>
    </g>
    <g id="text_16">
     <!-- $t$ [s] -->
     <g transform="translate(378.585637 190.438125) scale(0.12 -0.12)">
      <use xlink:href="#STIXGeneral-Italic-74" transform="translate(0 0.28125)"/>
      <use xlink:href="#TimesNewRomanPSMT-20" transform="translate(27.799988 0.28125)"/>
      <use xlink:href="#TimesNewRomanPSMT-5b" transform="translate(52.799988 0.28125)"/>
      <use xlink:href="#TimesNewRomanPSMT-73" transform="translate(86.100769 0.28125)"/>
      <use xlink:href="#TimesNewRomanPSMT-5d" transform="translate(125.016785 0.28125)"/>
     </g>
    </g>
   </g>
   <g id="matplotlib.axis_4">
    <g id="ytick_4">
     <g id="line2d_30">
      <path d="M 295.979375 160.20625 
L 480.271898 160.20625 
" clip-path="url(#pa8db98d460)" style="fill: none; stroke: #b0b0b0; stroke-opacity: 0.3; stroke-width: 0.8; stroke-linecap: square"/>
     </g>
     <g id="line2d_31">
      <g>
       <use xlink:href="#mff800b2eb3" x="295.979375" y="160.20625" style="stroke: #000000; stroke-width: 0.8"/>
      </g>
     </g>
     <g id="text_17">
      <!-- −1.5 -->
      <g transform="translate(267.2125 164.3725) scale(0.12 -0.12)">
       <defs>
        <path id="TimesNewRomanPSMT-2212" d="M 3484 2000 
L 116 2000 
L 116 2256 
L 3484 2256 
L 3484 2000 
z
" transform="scale(0.015625)"/>
       </defs>
       <use xlink:href="#TimesNewRomanPSMT-2212"/>
       <use xlink:href="#TimesNewRomanPSMT-31" x="56.396484"/>
       <use xlink:href="#TimesNewRomanPSMT-2e" x="106.396484"/>
       <use xlink:href="#TimesNewRomanPSMT-35" x="131.396484"/>
      </g>
     </g>
    </g>
    <g id="ytick_5">
     <g id="line2d_32">
      <path d="M 295.979375 135.399583 
L 480.271898 135.399583 
" clip-path="url(#pa8db98d460)" style="fill: none; stroke: #b0b0b0; stroke-opacity: 0.3; stroke-width: 0.8; stroke-linecap: square"/>
     </g>
     <g id="line2d_33">
      <g>
       <use xlink:href="#mff800b2eb3" x="295.979375" y="135.399583" style="stroke: #000000; stroke-width: 0.8"/>
      </g>
     </g>
     <g id="text_18">
      <!-- −1.0 -->
      <g transform="translate(267.2125 139.565833) scale(0.12 -0.12)">
       <use xlink:href="#TimesNewRomanPSMT-2212"/>
       <use xlink:href="#TimesNewRomanPSMT-31" x="56.396484"/>
       <use xlink:href="#TimesNewRomanPSMT-2e" x="106.396484"/>
       <use xlink:href="#TimesNewRomanPSMT-30" x="131.396484"/>
      </g>
     </g>
    </g>
    <g id="ytick_6">
     <g id="line2d_34">
      <path d="M 295.979375 110.592917 
L 480.271898 110.592917 
" clip-path="url(#pa8db98d460)" style="fill: none; stroke: #b0b0b0; stroke-opacity: 0.3; stroke-width: 0.8; stroke-linecap: square"/>
     </g>
     <g id="line2d_35">
      <g>
       <use xlink:href="#mff800b2eb3" x="295.979375" y="110.592917" style="stroke: #000000; stroke-width: 0.8"/>
      </g>
     </g>
     <g id="text_19">
      <!-- −0.5 -->
      <g transform="translate(267.2125 114.759167) scale(0.12 -0.12)">
       <use xlink:href="#TimesNewRomanPSMT-2212"/>
       <use xlink:href="#TimesNewRomanPSMT-30" x="56.396484"/>
       <use xlink:href="#TimesNewRomanPSMT-2e" x="106.396484"/>
       <use xlink:href="#TimesNewRomanPSMT-35" x="131.396484"/>
      </g>
     </g>
    </g>
    <g id="ytick_7">
     <g id="line2d_36">
      <path d="M 295.979375 85.78625 
L 480.271898 85.78625 
" clip-path="url(#pa8db98d460)" style="fill: none; stroke: #b0b0b0; stroke-opacity: 0.3; stroke-width: 0.8; stroke-linecap: square"/>
     </g>
     <g id="line2d_37">
      <g>
       <use xlink:href="#mff800b2eb3" x="295.979375" y="85.78625" style="stroke: #000000; stroke-width: 0.8"/>
      </g>
     </g>
     <g id="text_20">
      <!-- 0.0 -->
      <g transform="translate(273.979375 89.9525) scale(0.12 -0.12)">
       <use xlink:href="#TimesNewRomanPSMT-30"/>
       <use xlink:href="#TimesNewRomanPSMT-2e" x="50"/>
       <use xlink:href="#TimesNewRomanPSMT-30" x="75"/>
      </g>
     </g>
    </g>
    <g id="ytick_8">
     <g id="line2d_38">
      <path d="M 295.979375 60.979583 
L 480.271898 60.979583 
" clip-path="url(#pa8db98d460)" style="fill: none; stroke: #b0b0b0; stroke-opacity: 0.3; stroke-width: 0.8; stroke-linecap: square"/>
     </g>
     <g id="line2d_39">
      <g>
       <use xlink:href="#mff800b2eb3" x="295.979375" y="60.979583" style="stroke: #000000; stroke-width: 0.8"/>
      </g>
     </g>
     <g id="text_21">
      <!-- 0.5 -->
      <g transform="translate(273.979375 65.145833) scale(0.12 -0.12)">
       <use xlink:href="#TimesNewRomanPSMT-30"/>
       <use xlink:href="#TimesNewRomanPSMT-2e" x="50"/>
       <use xlink:href="#TimesNewRomanPSMT-35" x="75"/>
      </g>
     </g>
    </g>
    <g id="ytick_9">
     <g id="line2d_40">
      <path d="M 295.979375 36.172917 
L 480.271898 36.172917 
" clip-path="url(#pa8db98d460)" style="fill: none; stroke: #b0b0b0; stroke-opacity: 0.3; stroke-width: 0.8; stroke-linecap: square"/>
     </g>
     <g id="line2d_41">
      <g>
       <use xlink:href="#mff800b2eb3" x="295.979375" y="36.172917" style="stroke: #000000; stroke-width: 0.8"/>
      </g>
     </g>
     <g id="text_22">
      <!-- 1.0 -->
      <g transform="translate(273.979375 40.339167) scale(0.12 -0.12)">
       <use xlink:href="#TimesNewRomanPSMT-31"/>
       <use xlink:href="#TimesNewRomanPSMT-2e" x="50"/>
       <use xlink:href="#TimesNewRomanPSMT-30" x="75"/>
      </g>
     </g>
    </g>
    <g id="ytick_10">
     <g id="line2d_42">
      <path d="M 295.979375 11.36625 
L 480.271898 11.36625 
" clip-path="url(#pa8db98d460)" style="fill: none; stroke: #b0b0b0; stroke-opacity: 0.3; stroke-width: 0.8; stroke-linecap: square"/>
     </g>
     <g id="line2d_43">
      <g>
       <use xlink:href="#mff800b2eb3" x="295.979375" y="11.36625" style="stroke: #000000; stroke-width: 0.8"/>
      </g>
     </g>
     <g id="text_23">
      <!-- 1.5 -->
      <g transform="translate(273.979375 15.5325) scale(0.12 -0.12)">
       <use xlink:href="#TimesNewRomanPSMT-31"/>
       <use xlink:href="#TimesNewRomanPSMT-2e" x="50"/>
       <use xlink:href="#TimesNewRomanPSMT-35" x="75"/>
      </g>
     </g>
    </g>
    <g id="text_24">
     <!-- $\omega$ [rad/s] -->
     <g transform="translate(260.645625 107.08625) rotate(-90) scale(0.12 -0.12)">
      <defs>
       <path id="STIXGeneral-Italic-3c9" d="M 3021 2810 
L 3136 2810 
Q 3648 2810 3898 2598 
Q 4186 2355 4186 1824 
Q 4186 1357 3910 838 
Q 3667 390 3334 160 
Q 3002 -70 2669 -70 
Q 2438 -70 2281 3 
Q 2125 77 2064 160 
Q 2003 243 1939 384 
Q 1741 147 1533 38 
Q 1325 -70 998 -70 
Q 659 -70 416 160 
Q 173 390 173 832 
Q 173 1101 237 1350 
Q 403 1965 883 2387 
Q 1363 2810 2010 2810 
L 2125 2810 
L 2125 2707 
Q 1606 2707 1267 2291 
Q 1024 1990 867 1526 
Q 710 1062 710 666 
Q 710 64 1075 64 
Q 1286 64 1523 285 
Q 1760 506 1856 774 
Q 1837 915 1837 1101 
Q 1837 1363 1914 1651 
Q 1984 1920 2125 2105 
Q 2266 2291 2432 2291 
Q 2656 2291 2656 1997 
Q 2656 1530 2387 1062 
Q 2272 864 2189 736 
Q 2176 691 2176 602 
Q 2176 384 2288 224 
Q 2400 64 2592 64 
Q 3040 64 3341 627 
Q 3482 896 3565 1270 
Q 3648 1645 3648 1971 
Q 3648 2240 3616 2362 
Q 3565 2566 3411 2636 
Q 3258 2707 3021 2707 
L 3021 2810 
z
" transform="scale(0.015625)"/>
       <path id="TimesNewRomanPSMT-72" d="M 1038 2947 
L 1038 2303 
Q 1397 2947 1775 2947 
Q 1947 2947 2059 2842 
Q 2172 2738 2172 2600 
Q 2172 2478 2090 2393 
Q 2009 2309 1897 2309 
Q 1788 2309 1652 2417 
Q 1516 2525 1450 2525 
Q 1394 2525 1328 2463 
Q 1188 2334 1038 2041 
L 1038 669 
Q 1038 431 1097 309 
Q 1138 225 1241 169 
Q 1344 113 1538 113 
L 1538 0 
L 72 0 
L 72 113 
Q 291 113 397 181 
Q 475 231 506 341 
Q 522 394 522 644 
L 522 1753 
Q 522 2253 501 2348 
Q 481 2444 426 2487 
Q 372 2531 291 2531 
Q 194 2531 72 2484 
L 41 2597 
L 906 2947 
L 1038 2947 
z
" transform="scale(0.015625)"/>
       <path id="TimesNewRomanPSMT-61" d="M 1822 413 
Q 1381 72 1269 19 
Q 1100 -59 909 -59 
Q 613 -59 420 144 
Q 228 347 228 678 
Q 228 888 322 1041 
Q 450 1253 767 1440 
Q 1084 1628 1822 1897 
L 1822 2009 
Q 1822 2438 1686 2597 
Q 1550 2756 1291 2756 
Q 1094 2756 978 2650 
Q 859 2544 859 2406 
L 866 2225 
Q 866 2081 792 2003 
Q 719 1925 600 1925 
Q 484 1925 411 2006 
Q 338 2088 338 2228 
Q 338 2497 613 2722 
Q 888 2947 1384 2947 
Q 1766 2947 2009 2819 
Q 2194 2722 2281 2516 
Q 2338 2381 2338 1966 
L 2338 994 
Q 2338 584 2353 492 
Q 2369 400 2405 369 
Q 2441 338 2488 338 
Q 2538 338 2575 359 
Q 2641 400 2828 588 
L 2828 413 
Q 2478 -56 2159 -56 
Q 2006 -56 1915 50 
Q 1825 156 1822 413 
z
M 1822 616 
L 1822 1706 
Q 1350 1519 1213 1441 
Q 966 1303 859 1153 
Q 753 1003 753 825 
Q 753 600 887 451 
Q 1022 303 1197 303 
Q 1434 303 1822 616 
z
" transform="scale(0.015625)"/>
       <path id="TimesNewRomanPSMT-64" d="M 2222 322 
Q 2013 103 1813 7 
Q 1613 -88 1381 -88 
Q 913 -88 563 304 
Q 213 697 213 1313 
Q 213 1928 600 2439 
Q 988 2950 1597 2950 
Q 1975 2950 2222 2709 
L 2222 3238 
Q 2222 3728 2198 3840 
Q 2175 3953 2125 3993 
Q 2075 4034 2000 4034 
Q 1919 4034 1784 3984 
L 1744 4094 
L 2597 4444 
L 2738 4444 
L 2738 1134 
Q 2738 631 2761 520 
Q 2784 409 2836 365 
Q 2888 322 2956 322 
Q 3041 322 3181 375 
L 3216 266 
L 2366 -88 
L 2222 -88 
L 2222 322 
z
M 2222 541 
L 2222 2016 
Q 2203 2228 2109 2403 
Q 2016 2578 1861 2667 
Q 1706 2756 1559 2756 
Q 1284 2756 1069 2509 
Q 784 2184 784 1559 
Q 784 928 1059 592 
Q 1334 256 1672 256 
Q 1956 256 2222 541 
z
" transform="scale(0.015625)"/>
      </defs>
      <use xlink:href="#STIXGeneral-Italic-3c9" transform="translate(0 0.5625)"/>
      <use xlink:href="#TimesNewRomanPSMT-20" transform="translate(68.599991 0.5625)"/>
      <use xlink:href="#TimesNewRomanPSMT-5b" transform="translate(93.599991 0.5625)"/>
      <use xlink:href="#TimesNewRomanPSMT-72" transform="translate(126.900772 0.5625)"/>
      <use xlink:href="#TimesNewRomanPSMT-61" transform="translate(160.201553 0.5625)"/>
      <use xlink:href="#TimesNewRomanPSMT-64" transform="translate(204.586319 0.5625)"/>
      <use xlink:href="#TimesNewRomanPSMT-2f" transform="translate(254.586319 0.5625)"/>
      <use xlink:href="#TimesNewRomanPSMT-73" transform="translate(282.369522 0.5625)"/>
      <use xlink:href="#TimesNewRomanPSMT-5d" transform="translate(321.285538 0.5625)"/>
     </g>
    </g>
   </g>
   <g id="line2d_44">
    <path d="M 304.356308 85.78625 
L 309.492832 85.695011 
L 310.063487 85.64639 
L 313.773879 85.369498 
L 314.345928 85.464359 
L 316.061035 85.525234 
L 317.19966 85.839435 
L 317.484478 86.654831 
L 318.055196 86.722007 
L 318.343581 86.718385 
L 318.628237 86.578525 
L 318.911614 85.65671 
L 319.198098 85.346229 
L 320.338836 85.231474 
L 320.912445 85.229787 
L 321.197943 84.908937 
L 321.481491 83.891765 
L 321.765744 83.671085 
L 322.057311 83.746695 
L 322.33715 83.667016 
L 322.622188 83.333664 
L 322.907607 83.380847 
L 323.193801 83.656399 
L 323.478739 84.57494 
L 323.763645 84.743775 
L 324.334537 86.397982 
L 324.905604 86.577087 
L 325.1915 86.406218 
L 325.476397 86.509315 
L 325.761489 86.315376 
L 326.047193 85.789921 
L 326.619483 85.701411 
L 326.903378 85.206865 
L 327.759737 85.346974 
L 328.045188 85.713517 
L 328.616549 85.803218 
L 328.901227 85.33978 
L 329.472286 85.421642 
L 329.757594 85.903734 
L 330.901929 86.227164 
L 331.184505 86.270724 
L 331.470216 86.483417 
L 331.757659 86.91019 
L 332.329428 86.958812 
L 332.614622 86.736147 
L 333.185169 86.802678 
L 333.468033 86.230041 
L 333.753317 86.171448 
L 334.324357 83.642954 
L 334.609898 83.623009 
L 334.895004 83.430212 
L 335.181741 83.073046 
L 336.893011 83.601527 
L 337.178719 83.479329 
L 338.034803 83.979332 
L 338.320425 84.622024 
L 338.893789 85.025628 
L 339.177225 86.775292 
L 339.747372 87.046528 
L 340.32057 87.643922 
L 340.603675 87.926619 
L 340.891841 89.034881 
L 341.459983 89.001492 
L 341.745642 89.665913 
L 342.318533 89.491374 
L 342.601724 89.519108 
L 342.888591 90.790648 
L 343.458066 90.663439 
L 343.743168 90.925646 
L 344.028692 90.812378 
L 344.599392 88.984226 
L 345.173362 88.602452 
L 345.457854 88.757394 
L 345.741543 89.287761 
L 346.026649 89.242612 
L 346.315297 89.368928 
L 346.597832 90.093382 
L 347.453693 90.338869 
L 348.880888 89.301107 
L 349.169796 89.036816 
L 349.452192 89.265583 
L 350.879125 88.135937 
L 351.164118 88.378844 
L 351.449706 88.173544 
L 351.736541 85.966942 
L 352.023796 81.911846 
L 352.877054 75.181896 
L 353.163751 74.338817 
L 353.733209 70.288632 
L 354.018342 70.260452 
L 355.160174 64.93585 
L 356.588153 59.909473 
L 356.874794 59.093136 
L 357.162211 58.641952 
L 357.730749 57.229907 
L 358.299736 57.041426 
L 358.870517 57.175729 
L 359.441509 57.532151 
L 359.73013 58.202675 
L 360.297641 58.641753 
L 360.586473 58.120813 
L 360.868333 58.365258 
L 361.153643 58.845714 
L 361.438981 59.617152 
L 362.01268 60.374648 
L 362.29532 61.856499 
L 363.154619 63.413266 
L 363.723124 64.772076 
L 364.008044 65.234373 
L 364.293262 66.724063 
L 365.150384 68.515353 
L 365.435292 69.530243 
L 365.720702 70.075642 
L 366.008934 70.361018 
L 366.291555 70.113249 
L 366.579887 70.365186 
L 366.862371 70.798806 
L 367.43343 71.946164 
L 367.718551 71.949984 
L 368.003983 71.497312 
L 368.577092 72.116586 
L 368.860213 72.184358 
L 369.43215 72.951479 
L 369.716644 73.761268 
L 370.287721 74.521047 
L 370.573078 74.915274 
L 371.143384 77.808972 
L 371.429078 78.235547 
L 371.71429 77.243677 
L 372.571235 78.285954 
L 372.858176 76.745014 
L 373.42683 77.433746 
L 373.712832 78.491056 
L 373.99981 80.883361 
L 374.286657 81.213091 
L 374.568634 81.794708 
L 375.142485 83.684381 
L 375.710262 84.243126 
L 375.997038 84.365126 
L 376.283101 85.403434 
L 376.852768 85.870791 
L 377.138082 85.952355 
L 377.423039 86.30456 
L 377.709719 86.957224 
L 377.993634 87.185644 
L 378.278934 87.26567 
L 378.566073 87.198345 
L 378.851755 86.659097 
L 379.423471 86.716053 
L 379.706736 87.343513 
L 379.992279 88.848186 
L 380.562478 88.97346 
L 380.849426 88.848831 
L 381.135075 88.433816 
L 381.704 88.194977 
L 381.989988 88.227623 
L 382.274847 87.727372 
L 382.560261 86.913366 
L 383.989108 86.874767 
L 384.559508 86.948591 
L 385.129054 84.389982 
L 385.699907 84.536986 
L 386.841637 85.298551 
L 387.412535 85.578618 
L 387.697845 86.389846 
L 388.554265 86.689709 
L 391.12334 86.687823 
L 391.409746 86.357101 
L 392.550106 86.432761 
L 392.835596 86.700128 
L 393.406373 86.790325 
L 393.691922 86.999147 
L 393.977383 87.776439 
L 394.548657 87.920764 
L 394.836239 87.959463 
L 395.404393 85.610023 
L 395.975074 85.545774 
L 396.260776 85.353225 
L 396.546221 84.819187 
L 396.831862 84.747347 
L 397.687841 85.031582 
L 397.97327 84.008158 
L 398.543937 84.296759 
L 398.829475 84.249328 
L 399.115079 84.042937 
L 399.970904 84.50062 
L 400.256628 84.763918 
L 400.542442 85.900658 
L 401.112752 86.177402 
L 401.398383 86.301683 
L 401.683546 87.876212 
L 402.543089 87.962787 
L 402.825202 87.700134 
L 403.111627 89.144477 
L 404.25252 96.531059 
L 404.54175 98.018268 
L 405.110892 102.080707 
L 406.250277 105.842638 
L 406.824394 106.941921 
L 407.962901 108.913704 
L 408.248172 111.183911 
L 408.819016 111.743499 
L 409.38989 112.316236 
L 409.962327 112.331021 
L 411.387969 111.240271 
L 411.673448 110.890051 
L 411.958654 109.634982 
L 412.531279 108.972347 
L 413.103261 108.255831 
L 413.385627 108.498738 
L 413.95864 107.742035 
L 414.242145 107.396627 
L 414.527459 107.901195 
L 414.812802 107.826279 
L 415.669016 105.952284 
L 415.957288 104.369172 
L 416.528314 103.433812 
L 416.810805 103.679051 
L 417.099731 104.095604 
L 417.668618 103.103834 
L 418.241549 101.889101 
L 419.95444 98.810345 
L 420.237255 100.673128 
L 420.806573 99.662008 
L 421.092024 101.001766 
L 421.378596 100.670151 
L 421.948303 99.408682 
L 422.233599 100.000222 
L 422.805899 98.844727 
L 424.234505 94.842966 
L 424.517037 93.235097 
L 425.373555 91.35237 
L 425.658692 90.153315 
L 426.800326 88.233577 
L 427.085777 88.014633 
L 427.372963 88.115894 
L 427.656885 88.989833 
L 427.942864 88.905242 
L 428.227734 88.467702 
L 428.513001 87.434554 
L 429.369033 86.217439 
L 430.22814 85.473488 
L 430.510855 86.453698 
L 431.08162 85.98768 
L 431.367167 86.318899 
L 431.939629 86.002217 
L 432.224255 86.953255 
L 433.936052 86.28918 
L 434.221405 86.689709 
L 434.792233 86.197743 
L 435.077892 86.229198 
L 436.507454 85.290514 
L 436.790171 84.612448 
L 437.075569 83.404314 
L 437.360899 83.271846 
L 437.646418 83.270854 
L 437.93195 83.752848 
L 438.502709 83.771701 
L 438.78864 84.223281 
L 439.074076 84.29909 
L 439.644164 83.271648 
L 440.50313 82.986322 
L 440.785804 83.697727 
L 441.356753 83.634172 
L 441.642145 89.360444 
L 442.500051 89.192156 
L 443.071704 88.885198 
L 443.355904 88.966713 
L 443.639717 89.670676 
L 444.210784 89.214333 
L 444.496464 89.924796 
L 445.066833 89.308797 
L 445.354562 89.381728 
L 446.208447 88.518952 
L 446.493741 88.685455 
L 446.779191 88.396407 
L 447.635561 86.558432 
L 448.777072 85.322663 
L 449.353245 84.610067 
L 450.20399 83.795465 
L 450.776517 83.488061 
L 451.061266 82.683283 
L 452.202212 82.350775 
L 452.489137 82.319022 
L 453.914554 82.807366 
L 454.199668 83.402131 
L 454.485056 83.5793 
L 454.770923 84.080544 
L 455.057256 85.528062 
L 455.341208 86.063837 
L 455.912008 86.26487 
L 456.197412 88.046931 
L 456.482549 88.173544 
L 456.769459 88.169426 
L 457.053612 89.487305 
L 457.339187 89.43541 
L 457.62431 89.522878 
L 457.909922 87.515622 
L 458.480548 87.346937 
L 458.766142 87.29777 
L 459.05233 87.049207 
L 459.336809 87.004803 
L 459.622431 87.260163 
L 459.907547 87.840242 
L 460.192984 87.823622 
L 460.478425 88.143429 
L 460.764012 89.71637 
L 461.334851 89.727087 
L 461.620569 91.331681 
L 462.476767 91.231413 
L 463.047095 90.058752 
L 464.759709 89.544113 
L 465.045366 88.844217 
L 466.186851 88.415112 
L 466.472206 87.701474 
L 467.042853 87.643773 
L 467.613679 87.571536 
L 467.899201 89.145569 
L 468.184687 91.966285 
L 468.755409 92.349796 
L 469.326211 92.370485 
L 469.611691 92.736284 
L 469.89705 94.019583 
L 470.467829 93.964462 
L 471.894965 93.19099 
L 471.894965 93.19099 
" clip-path="url(#pa8db98d460)" style="fill: none; stroke: #ff0000; stroke-opacity: 0.8; stroke-linecap: square"/>
   </g>
   <g id="line2d_45">
    <path d="M 304.356308 85.78625 
L 306.07093 85.78625 
L 306.352909 87.111521 
L 306.638337 84.460929 
L 306.924835 84.460929 
L 307.209117 88.43709 
L 307.494623 84.460929 
L 307.782989 85.78625 
L 308.0658 88.43709 
L 308.350957 83.13541 
L 308.638472 84.460731 
L 308.921971 89.762263 
L 309.492832 87.111571 
L 309.780206 91.087782 
L 310.352208 84.460929 
L 310.921334 84.460929 
L 311.208047 87.111621 
L 311.490511 84.460979 
L 312.346862 84.460979 
L 312.63219 85.78625 
L 312.917694 84.460929 
L 313.203376 87.111422 
L 313.488455 88.436991 
L 313.773879 88.436842 
L 314.059518 85.78625 
L 314.630324 83.135558 
L 314.915638 87.111521 
L 315.201828 88.436942 
L 315.488379 87.111521 
L 315.77222 83.135261 
L 316.061035 85.123565 
L 316.342795 84.46083 
L 316.628172 83.135558 
L 316.913621 84.46083 
L 317.19966 83.135558 
L 317.484478 83.135261 
L 317.769813 84.461127 
L 318.055196 88.436942 
L 318.628237 83.135558 
L 318.911614 89.762362 
L 319.198098 87.111373 
L 319.485505 88.436842 
L 319.767769 87.111571 
L 320.338836 87.111769 
L 320.626594 85.78625 
L 320.912445 87.111769 
L 321.197943 84.460731 
L 321.765744 87.11167 
L 322.057311 83.135608 
L 322.33715 84.46078 
L 322.622188 84.46083 
L 322.907607 85.78625 
L 323.193801 84.46083 
L 323.478739 85.123515 
L 323.763645 81.810287 
L 324.049945 81.810089 
L 324.334537 84.460929 
L 324.622596 85.78625 
L 324.905604 84.46083 
L 325.1915 85.78625 
L 325.761489 87.111472 
L 326.047193 83.135509 
L 326.33233 85.78625 
L 326.619483 87.111769 
L 326.903378 84.460731 
L 327.47418 84.460929 
L 327.759737 88.43719 
L 328.045188 85.78625 
L 328.330343 88.436942 
L 328.616549 87.111571 
L 328.901227 88.43709 
L 329.186774 86.448935 
L 329.472286 85.78625 
L 329.757594 85.78625 
L 330.32842 83.13541 
L 330.613616 85.78625 
L 330.901929 84.46083 
L 331.184505 87.111819 
L 331.470216 87.11167 
L 331.757659 84.46083 
L 332.329428 87.111521 
L 332.614622 87.111521 
L 332.897123 85.78625 
L 333.468033 85.78625 
L 333.753317 88.436991 
L 334.0389 84.460731 
L 334.895004 88.43709 
L 335.181741 87.111571 
L 335.468719 84.460929 
L 335.754219 80.484867 
L 336.038214 85.78625 
L 336.322475 83.135558 
L 336.607842 84.46083 
L 336.893011 87.111571 
L 337.752185 83.135558 
L 338.320425 85.78625 
L 338.605607 83.135509 
L 338.893789 84.460929 
L 339.177225 83.135509 
L 339.464299 83.135509 
L 339.747372 87.11172 
L 340.036803 85.78625 
L 340.32057 87.111571 
L 340.603675 84.460979 
L 340.891841 88.437041 
L 341.174265 89.762263 
L 341.745642 85.78625 
L 342.030638 91.08798 
L 342.318533 89.762263 
L 342.601724 89.762362 
L 342.888591 91.087534 
L 343.172536 88.43709 
L 343.743168 88.436942 
L 344.028692 87.111521 
L 344.314121 87.11167 
L 344.599392 88.436942 
L 344.887491 91.087584 
L 345.173362 89.971532 
L 345.457854 91.087584 
L 345.741543 89.762362 
L 346.026649 91.087782 
L 346.315297 88.436942 
L 346.882926 91.087782 
L 347.168275 89.762014 
L 347.74259 89.762362 
L 348.310017 88.43719 
L 348.595519 89.762411 
L 348.880888 92.413004 
L 349.169796 89.762263 
L 349.452192 89.762362 
L 349.7372 88.43709 
L 350.308721 89.762213 
L 350.593355 87.111571 
L 351.449706 87.11167 
L 351.736541 88.436991 
L 352.023796 85.78625 
L 352.305761 88.19597 
L 352.591369 88.436942 
L 353.163751 81.810089 
L 353.447866 85.78625 
L 353.733209 83.798244 
L 354.303839 77.833977 
L 354.592565 77.171391 
L 354.875001 75.183434 
L 355.160174 75.183633 
L 355.731241 72.532842 
L 356.018819 76.508904 
L 356.301877 71.207372 
L 356.874794 68.556432 
L 357.162211 64.580817 
L 357.730749 61.929828 
L 358.016457 57.953914 
L 358.299736 60.604556 
L 358.870517 60.604258 
L 359.155376 59.279136 
L 359.73013 59.278987 
L 360.012113 57.953914 
L 360.586473 57.953914 
L 360.868333 59.279334 
L 361.438981 60.483946 
L 361.724447 56.628296 
L 362.01268 64.580519 
L 362.29532 61.929927 
L 362.580783 63.25495 
L 362.866303 60.604308 
L 363.154619 63.255198 
L 363.438753 61.929976 
L 363.723124 61.929778 
L 364.008044 64.826204 
L 364.293262 64.580519 
L 364.581773 61.929679 
L 364.86753 64.580668 
L 365.150384 65.90579 
L 365.435292 65.90579 
L 365.720702 67.231211 
L 366.291555 71.207124 
L 366.579887 69.881704 
L 366.862371 71.207422 
L 367.147941 69.8822 
L 367.43343 69.882001 
L 367.718551 72.532544 
L 368.003983 68.556432 
L 368.289359 72.532693 
L 368.577092 69.882001 
L 368.860213 70.961984 
L 369.148906 71.207422 
L 369.43215 73.857964 
L 369.716644 72.532743 
L 370.002842 72.532445 
L 370.287721 76.508854 
L 371.143384 72.532544 
L 371.429078 75.183385 
L 371.71429 72.532792 
L 372.002717 75.183335 
L 372.286482 75.183385 
L 372.858176 80.484916 
L 373.141306 76.508656 
L 373.42683 79.159447 
L 373.712832 73.858064 
L 374.286657 81.810138 
L 374.568634 77.834076 
L 374.853913 79.159397 
L 375.426705 84.460929 
L 375.710262 83.135608 
L 375.997038 83.135459 
L 376.283101 84.46083 
L 376.566886 80.484768 
L 376.852768 83.135658 
L 377.138082 87.111769 
L 377.423039 84.46083 
L 377.709719 84.460929 
L 377.993634 83.13541 
L 378.278934 87.111373 
L 378.566073 87.11167 
L 378.851755 85.78625 
L 379.135528 85.78625 
L 379.706736 90.477042 
L 379.992279 87.111819 
L 380.277266 88.43709 
L 380.562478 84.460681 
L 381.135075 87.111521 
L 381.418502 85.78625 
L 381.704 91.087584 
L 381.989988 87.774306 
L 382.274847 81.810138 
L 382.848993 88.436793 
L 383.131124 84.46083 
L 383.41672 87.11167 
L 383.989108 87.111521 
L 384.273099 85.78625 
L 384.843826 85.78625 
L 385.129054 88.43709 
L 385.414611 85.78625 
L 385.699907 85.78625 
L 386.271003 83.135509 
L 386.558364 85.78625 
L 386.841637 85.78625 
L 387.127486 83.135658 
L 387.412535 81.810138 
L 387.697845 85.78625 
L 387.985037 85.78625 
L 388.269222 88.436942 
L 388.554265 85.78625 
L 388.839838 84.460879 
L 389.124942 87.11167 
L 391.409746 87.111521 
L 391.693925 84.460681 
L 391.979288 88.436842 
L 392.265403 83.13541 
L 392.550106 89.762362 
L 393.123909 84.46083 
L 393.691922 91.087435 
L 393.977383 85.78625 
L 394.548657 89.762362 
L 394.836239 85.78625 
L 395.118999 87.111521 
L 395.404393 87.111521 
L 395.691828 85.78625 
L 395.975074 88.43709 
L 396.260776 89.762014 
L 396.546221 83.13541 
L 396.831862 85.78625 
L 397.11696 85.78625 
L 397.402531 84.46083 
L 397.687841 84.581341 
L 397.97327 85.78625 
L 398.829475 81.810386 
L 399.115079 84.460929 
L 399.403025 81.810138 
L 399.685904 83.135509 
L 399.970904 87.11167 
L 400.256628 81.810138 
L 400.542442 81.810237 
L 401.112752 87.111621 
L 401.398383 91.087732 
L 401.683546 86.448886 
L 401.969068 87.111571 
L 402.256048 85.78625 
L 402.543089 85.78625 
L 402.825202 91.087683 
L 403.111627 89.762312 
L 403.397201 84.46083 
L 403.681488 88.436942 
L 403.966967 85.78625 
L 404.25252 89.762362 
L 404.54175 85.78625 
L 404.824955 89.762263 
L 405.110892 89.762411 
L 405.394046 93.738424 
L 406.250277 97.714288 
L 406.535917 101.690499 
L 406.824394 102.654486 
L 407.109216 103.01572 
L 407.392395 103.015919 
L 407.677429 105.912196 
L 407.962901 106.991981 
L 408.248172 103.01572 
L 408.535732 109.642672 
L 409.104471 106.991981 
L 409.38989 109.642375 
L 409.675224 113.618933 
L 409.962327 108.317252 
L 410.2462 110.967993 
L 410.531757 108.317252 
L 410.820066 113.618437 
L 411.103287 113.618933 
L 411.387969 109.642524 
L 411.673448 113.618834 
L 411.958654 110.968093 
L 412.244291 109.642524 
L 412.531279 110.968291 
L 412.817622 108.317252 
L 413.103261 108.979938 
L 413.385627 104.340942 
L 413.672791 112.293215 
L 413.95864 106.99208 
L 414.242145 106.991981 
L 414.527459 108.317252 
L 414.812802 106.99208 
L 415.098447 106.991931 
L 415.386056 109.642524 
L 415.669016 104.929952 
L 415.957288 104.340992 
L 416.240779 104.341141 
L 416.810805 101.690647 
L 417.099731 103.016068 
L 417.381762 101.690499 
L 417.960495 104.341141 
L 418.241549 103.01572 
L 418.523401 103.01572 
L 418.808655 100.365078 
L 419.09509 99.039807 
L 419.379486 101.936085 
L 419.95444 97.714387 
L 420.237255 99.039956 
L 420.521132 97.714486 
L 420.806573 99.040105 
L 421.378596 99.039708 
L 421.662887 100.365227 
L 421.948303 99.039807 
L 422.805899 99.039807 
L 423.091912 97.714436 
L 423.37882 100.365227 
L 423.94892 97.714536 
L 424.234505 95.063794 
L 424.517037 95.063646 
L 424.80605 96.630087 
L 425.089388 96.389066 
L 425.658692 92.413053 
L 425.944145 95.063695 
L 426.232584 92.413053 
L 426.516128 95.063646 
L 426.800326 92.413103 
L 427.085777 91.087534 
L 427.372963 88.436942 
L 427.656885 87.11167 
L 427.942864 89.762411 
L 428.227734 86.448737 
L 428.513001 88.436793 
L 428.798668 88.436942 
L 429.085869 86.448935 
L 429.369033 88.43709 
L 429.654627 88.436793 
L 429.940135 89.762362 
L 430.22814 83.13541 
L 430.510855 87.111521 
L 430.796257 88.43709 
L 431.08162 84.460979 
L 431.367167 83.135707 
L 431.654655 84.460681 
L 431.939629 84.461326 
L 432.508773 87.111521 
L 432.796914 89.762014 
L 433.079864 84.46083 
L 433.365777 84.461127 
L 433.650517 88.436942 
L 434.221405 83.135509 
L 434.506788 84.461127 
L 434.792233 87.774157 
L 435.366009 84.460979 
L 435.934594 87.111521 
L 436.507454 87.11167 
L 436.790171 83.135558 
L 437.075569 88.436942 
L 437.360899 83.13541 
L 437.646418 85.123565 
L 437.93195 81.810237 
L 438.217403 84.460929 
L 438.502709 85.78625 
L 438.78864 83.135509 
L 439.074076 81.810138 
L 439.36102 88.436942 
L 439.644164 83.135658 
L 439.929705 87.111621 
L 440.217107 83.135658 
L 440.50313 81.810138 
L 440.785804 84.460979 
L 441.071451 84.460929 
L 441.356753 83.135558 
L 441.642145 83.13541 
L 442.212871 85.78625 
L 442.500051 88.43709 
L 442.783528 83.37653 
L 443.071704 85.78625 
L 443.355904 87.111373 
L 443.639717 87.111521 
L 443.925109 89.762362 
L 444.210784 88.436991 
L 444.496464 89.762362 
L 444.782979 88.436445 
L 445.066833 89.762362 
L 445.354562 87.111521 
L 445.63768 85.78625 
L 445.925013 91.087584 
L 446.208447 88.437239 
L 446.493741 87.11167 
L 446.779191 87.11167 
L 447.350036 89.762362 
L 447.635561 89.762362 
L 447.922735 85.78625 
L 448.208351 88.436942 
L 448.491873 85.78625 
L 449.064604 88.436842 
L 449.634389 83.135509 
L 449.919295 84.460879 
L 450.20399 84.46083 
L 450.491203 81.810237 
L 450.776517 84.460879 
L 451.061266 83.135608 
L 451.346702 80.484817 
L 452.202212 84.460929 
L 452.489137 83.135558 
L 452.77281 84.460929 
L 453.058685 83.135558 
L 453.344732 84.460979 
L 453.628921 81.810237 
L 454.199668 87.111521 
L 454.485056 85.78625 
L 454.770923 87.111521 
L 455.057256 87.111571 
L 455.341208 83.13536 
L 455.626541 88.436793 
L 455.912008 83.135658 
L 456.197412 83.135707 
L 456.769459 88.437239 
L 457.053612 85.78625 
L 457.339187 89.762263 
L 457.62431 85.78625 
L 457.909922 87.11167 
L 458.195577 87.111968 
L 458.480548 85.78625 
L 458.766142 85.78625 
L 459.05233 88.43709 
L 459.336809 87.11167 
L 459.622431 89.762362 
L 459.907547 91.087782 
L 460.192984 88.436942 
L 460.478425 88.437388 
L 460.764012 85.78625 
L 461.049208 87.111174 
L 461.334851 92.412855 
L 461.620569 88.43709 
L 462.191847 88.436942 
L 462.476767 89.762362 
L 462.761732 85.78625 
L 463.617928 89.762362 
L 463.903297 85.78625 
L 464.188848 87.111521 
L 464.474154 91.087286 
L 464.759709 85.78625 
L 465.045366 92.413004 
L 465.615904 87.111521 
L 465.901276 86.449035 
L 466.186851 90.008097 
L 466.472206 87.111521 
L 466.757451 87.774207 
L 467.328244 83.13541 
L 467.613679 91.087931 
L 467.899201 88.43709 
L 468.184687 89.762362 
L 468.470583 85.78625 
L 469.326211 85.78625 
L 469.611691 87.111819 
L 469.89705 91.087435 
L 470.182441 89.762511 
L 470.467829 92.413202 
L 470.753282 93.738424 
L 471.324553 93.738424 
L 471.609825 92.413004 
L 471.894965 93.738424 
L 471.894965 93.738424 
" clip-path="url(#pa8db98d460)" style="fill: none; stroke: #0000ff; stroke-linecap: square"/>
   </g>
   <g id="line2d_46">
    <path d="M 295.979375 36.172917 
L 480.271898 36.172917 
" clip-path="url(#pa8db98d460)" style="fill: none; stroke-dasharray: 7.4,3.2; stroke-dashoffset: 0; stroke: #000000; stroke-opacity: 0.7; stroke-width: 2"/>
   </g>
   <g id="line2d_47">
    <path d="M 295.979375 135.399583 
L 480.271898 135.399583 
" clip-path="url(#pa8db98d460)" style="fill: none; stroke-dasharray: 7.4,3.2; stroke-dashoffset: 0; stroke: #000000; stroke-opacity: 0.7; stroke-width: 2"/>
   </g>
   <g id="patch_8">
    <path d="M 295.979375 160.20625 
L 295.979375 11.36625 
" style="fill: none; stroke: #000000; stroke-width: 0.8; stroke-linejoin: miter; stroke-linecap: square"/>
   </g>
   <g id="patch_9">
    <path d="M 480.271898 160.20625 
L 480.271898 11.36625 
" style="fill: none; stroke: #000000; stroke-width: 0.8; stroke-linejoin: miter; stroke-linecap: square"/>
   </g>
   <g id="patch_10">
    <path d="M 295.979375 160.20625 
L 480.271898 160.20625 
" style="fill: none; stroke: #000000; stroke-width: 0.8; stroke-linejoin: miter; stroke-linecap: square"/>
   </g>
   <g id="patch_11">
    <path d="M 295.979375 11.36625 
L 480.271898 11.36625 
" style="fill: none; stroke: #000000; stroke-width: 0.8; stroke-linejoin: miter; stroke-linecap: square"/>
   </g>
  </g>
 </g>
 <defs>
  <clipPath id="p864c9cccd7">
   <rect x="50.099375" y="11.36625" width="184.292523" height="148.84"/>
  </clipPath>
  <clipPath id="pa8db98d460">
   <rect x="295.979375" y="11.36625" width="184.292523" height="148.84"/>
  </clipPath>
 </defs>
</svg>
