<?xml version="1.0" encoding="utf-8" standalone="no"?>
<!DOCTYPE svg PUBLIC "-//W3C//DTD SVG 1.1//EN"
  "http://www.w3.org/Graphics/SVG/1.1/DTD/svg11.dtd">
<svg xmlns:xlink="http://www.w3.org/1999/xlink" width="258.51pt" height="95.859375pt" viewBox="0 0 258.51 95.859375" xmlns="http://www.w3.org/2000/svg" version="1.1">
 <metadata>
  <rdf:RDF xmlns:dc="http://purl.org/dc/elements/1.1/" xmlns:cc="http://creativecommons.org/ns#" xmlns:rdf="http://www.w3.org/1999/02/22-rdf-syntax-ns#">
   <cc:Work>
    <dc:type rdf:resource="http://purl.org/dc/dcmitype/StillImage"/>
    <dc:date>2026-01-18T23:30:37.347681</dc:date>
    <dc:format>image/svg+xml</dc:format>
    <dc:creator>
     <cc:Agent>
      <dc:title>Matplotlib v3.6.3, https://matplotlib.org/</dc:title>
     </cc:Agent>
    </dc:creator>
   </cc:Work>
  </rdf:RDF>
 </metadata>
 <defs>
  <style type="text/css">*{stroke-linejoin: round; stroke-linecap: butt}</style>
 </defs>
 <g id="figure_1">
  <g id="patch_1">
   <path d="M 0 95.859375 
L 258.51 95.859375 
L 258.51 0 
L 0 0 
z
" style="fill: #ffffff"/>
  </g>
  <g id="axes_1">
   <g id="patch_2">
    <path d="M 35.2 70.76 
L 126.885 70.76 
L 126.885 7.2 
L 35.2 7.2 
z
" style="fill: #ffffff"/>
   </g>
   <g id="matplotlib.axis_1">
    <g id="xtick_1">
     <g id="line2d_1">
      <path d="M 39.3675 70.76 
L 39.3675 7.2 
" clip-path="url(#pb17c59750e)" style="fill: none; stroke: #b0b0b0; stroke-opacity: 0.3; stroke-width: 0.8; stroke-linecap: square"/>
     </g>
     <g id="line2d_2">
      <defs>
       <path id="mcfc68a8ec3" d="M 0 0 
L 0 3.5 
" style="stroke: #000000; stroke-width: 0.8"/>
      </defs>
      <g>
       <use xlink:href="#mcfc68a8ec3" x="39.3675" y="70.76" style="stroke: #000000; stroke-width: 0.8"/>
      </g>
     </g>
     <g id="text_1">
      <!-- 0 -->
      <g transform="translate(36.3675 86.0925) scale(0.12 -0.12)">
       <defs>
        <path id="TimesNewRomanPSMT-30" d="M 231 2094 
Q 231 2819 450 3342 
Q 669 3866 1031 4122 
Q 1313 4325 1613 4325 
Q 2100 4325 2488 3828 
Q 2972 3213 2972 2159 
Q 2972 1422 2759 906 
Q 2547 391 2217 158 
Q 1888 -75 1581 -75 
Q 975 -75 572 641 
Q 231 1244 231 2094 
z
M 844 2016 
Q 844 1141 1059 588 
Q 1238 122 1591 122 
Q 1759 122 1940 273 
Q 2122 425 2216 781 
Q 2359 1319 2359 2297 
Q 2359 3022 2209 3506 
Q 2097 3866 1919 4016 
Q 1791 4119 1609 4119 
Q 1397 4119 1231 3928 
Q 1006 3669 925 3112 
Q 844 2556 844 2016 
z
" transform="scale(0.015625)"/>
       </defs>
       <use xlink:href="#TimesNewRomanPSMT-30"/>
      </g>
     </g>
    </g>
    <g id="xtick_2">
     <g id="line2d_3">
      <path d="M 111.222407 70.76 
L 111.222407 7.2 
" clip-path="url(#pb17c59750e)" style="fill: none; stroke: #b0b0b0; stroke-opacity: 0.3; stroke-width: 0.8; stroke-linecap: square"/>
     </g>
     <g id="line2d_4">
      <g>
       <use xlink:href="#mcfc68a8ec3" x="111.222407" y="70.76" style="stroke: #000000; stroke-width: 0.8"/>
      </g>
     </g>
     <g id="text_2">
      <!-- 20 -->
      <g transform="translate(105.222407 86.0925) scale(0.12 -0.12)">
       <defs>
        <path id="TimesNewRomanPSMT-32" d="M 2934 816 
L 2638 0 
L 138 0 
L 138 116 
Q 1241 1122 1691 1759 
Q 2141 2397 2141 2925 
Q 2141 3328 1894 3587 
Q 1647 3847 1303 3847 
Q 991 3847 742 3664 
Q 494 3481 375 3128 
L 259 3128 
Q 338 3706 661 4015 
Q 984 4325 1469 4325 
Q 1984 4325 2329 3994 
Q 2675 3663 2675 3213 
Q 2675 2891 2525 2569 
Q 2294 2063 1775 1497 
Q 997 647 803 472 
L 1909 472 
Q 2247 472 2383 497 
Q 2519 522 2628 598 
Q 2738 675 2819 816 
L 2934 816 
z
" transform="scale(0.015625)"/>
       </defs>
       <use xlink:href="#TimesNewRomanPSMT-32"/>
       <use xlink:href="#TimesNewRomanPSMT-30" x="50"/>
      </g>
     </g>
    </g>
   </g>
   <g id="matplotlib.axis_2">
    <g id="ytick_1">
     <g id="line2d_5">
      <path d="M 35.2 67.870909 
L 126.885 67.870909 
" clip-path="url(#pb17c59750e)" style="fill: none; stroke: #b0b0b0; stroke-opacity: 0.3; stroke-width: 0.8; stroke-linecap: square"/>
     </g>
     <g id="line2d_6">
      <defs>
       <path id="m828a20be6d" d="M 0 0 
L -3.5 0 
" style="stroke: #000000; stroke-width: 0.8"/>
      </defs>
      <g>
       <use xlink:href="#m828a20be6d" x="35.2" y="67.870909" style="stroke: #000000; stroke-width: 0.8"/>
      </g>
     </g>
     <g id="text_3">
      <!-- 0.00 -->
      <g transform="translate(7.2 72.037159) scale(0.12 -0.12)">
       <defs>
        <path id="TimesNewRomanPSMT-2e" d="M 800 606 
Q 947 606 1047 504 
Q 1147 403 1147 259 
Q 1147 116 1045 14 
Q 944 -88 800 -88 
Q 656 -88 554 14 
Q 453 116 453 259 
Q 453 406 554 506 
Q 656 606 800 606 
z
" transform="scale(0.015625)"/>
       </defs>
       <use xlink:href="#TimesNewRomanPSMT-30"/>
       <use xlink:href="#TimesNewRomanPSMT-2e" x="50"/>
       <use xlink:href="#TimesNewRomanPSMT-30" x="75"/>
       <use xlink:href="#TimesNewRomanPSMT-30" x="125"/>
      </g>
     </g>
    </g>
    <g id="ytick_2">
     <g id="line2d_7">
      <path d="M 35.2 40.951823 
L 126.885 40.951823 
" clip-path="url(#pb17c59750e)" style="fill: none; stroke: #b0b0b0; stroke-opacity: 0.3; stroke-width: 0.8; stroke-linecap: square"/>
     </g>
     <g id="line2d_8">
      <g>
       <use xlink:href="#m828a20be6d" x="35.2" y="40.951823" style="stroke: #000000; stroke-width: 0.8"/>
      </g>
     </g>
     <g id="text_4">
      <!-- 0.25 -->
      <g transform="translate(7.2 45.118073) scale(0.12 -0.12)">
       <defs>
        <path id="TimesNewRomanPSMT-35" d="M 2778 4238 
L 2534 3706 
L 1259 3706 
L 981 3138 
Q 1809 3016 2294 2522 
Q 2709 2097 2709 1522 
Q 2709 1188 2573 903 
Q 2438 619 2231 419 
Q 2025 219 1772 97 
Q 1413 -75 1034 -75 
Q 653 -75 479 54 
Q 306 184 306 341 
Q 306 428 378 495 
Q 450 563 559 563 
Q 641 563 702 538 
Q 763 513 909 409 
Q 1144 247 1384 247 
Q 1750 247 2026 523 
Q 2303 800 2303 1197 
Q 2303 1581 2056 1914 
Q 1809 2247 1375 2428 
Q 1034 2569 447 2591 
L 1259 4238 
L 2778 4238 
z
" transform="scale(0.015625)"/>
       </defs>
       <use xlink:href="#TimesNewRomanPSMT-30"/>
       <use xlink:href="#TimesNewRomanPSMT-2e" x="50"/>
       <use xlink:href="#TimesNewRomanPSMT-32" x="75"/>
       <use xlink:href="#TimesNewRomanPSMT-35" x="125"/>
      </g>
     </g>
    </g>
    <g id="ytick_3">
     <g id="line2d_9">
      <path d="M 35.2 14.032737 
L 126.885 14.032737 
" clip-path="url(#pb17c59750e)" style="fill: none; stroke: #b0b0b0; stroke-opacity: 0.3; stroke-width: 0.8; stroke-linecap: square"/>
     </g>
     <g id="line2d_10">
      <g>
       <use xlink:href="#m828a20be6d" x="35.2" y="14.032737" style="stroke: #000000; stroke-width: 0.8"/>
      </g>
     </g>
     <g id="text_5">
      <!-- 0.50 -->
      <g transform="translate(7.2 18.198987) scale(0.12 -0.12)">
       <use xlink:href="#TimesNewRomanPSMT-30"/>
       <use xlink:href="#TimesNewRomanPSMT-2e" x="50"/>
       <use xlink:href="#TimesNewRomanPSMT-35" x="75"/>
       <use xlink:href="#TimesNewRomanPSMT-30" x="125"/>
      </g>
     </g>
    </g>
   </g>
   <g id="line2d_11">
    <path d="M 39.3675 14.032737 
L 58.170076 14.032737 
L 58.290617 40.951823 
L 59.366779 40.951823 
L 59.48827 14.032737 
L 59.967413 14.032737 
L 60.086862 40.951823 
L 61.282626 40.951823 
L 61.404066 30.98487 
L 61.522069 40.951823 
L 70.503641 40.951823 
L 70.624898 40.125299 
L 70.744385 36.554429 
L 70.862985 28.125848 
L 70.983966 32.948456 
L 71.103675 33.217539 
L 71.222319 14.032737 
L 73.138278 14.032737 
L 73.258049 14.179931 
L 73.499159 14.032737 
L 73.738421 14.032737 
L 74.216167 19.341288 
L 74.337292 19.720848 
L 74.457263 22.034166 
L 74.577293 20.093085 
L 74.814936 23.524084 
L 75.05602 26.592429 
L 75.294029 29.997586 
L 75.413737 29.479339 
L 75.65356 33.690669 
L 75.773454 32.86716 
L 75.893135 30.433998 
L 76.134003 36.816082 
L 76.252501 25.581133 
L 76.371697 30.621247 
L 76.850945 14.032737 
L 86.434742 14.032737 
L 86.552287 40.951823 
L 87.511444 40.951823 
L 87.630017 14.032737 
L 87.99116 14.032737 
L 88.110679 40.951823 
L 88.948704 40.951823 
L 89.066778 14.032737 
L 89.307474 14.032737 
L 89.425988 40.951823 
L 99.246819 40.951823 
L 99.366476 36.227846 
L 99.486599 38.9288 
L 99.606227 36.394314 
L 99.845647 15.477861 
L 99.964127 14.032737 
L 101.761686 14.032737 
L 102.119774 16.673822 
L 102.359233 19.960104 
L 102.599723 22.522371 
L 102.718553 23.909134 
L 102.958082 28.229325 
L 103.079492 28.445108 
L 103.198376 31.609823 
L 103.318689 31.120111 
L 103.437198 31.963433 
L 103.677028 37.259386 
L 103.797685 37.166892 
L 103.916176 36.973182 
L 104.275351 40.951823 
L 105.114823 40.951823 
L 105.592683 30.658718 
L 105.712812 24.00852 
L 105.833356 23.512024 
L 105.951984 14.032737 
L 116.730261 14.032737 
L 116.850003 14.492192 
L 117.568847 23.372691 
L 117.807442 26.705166 
L 118.167101 29.83521 
L 118.885742 36.59653 
L 119.005608 37.113592 
L 119.244574 39.979398 
L 120.442543 47.53537 
L 120.681437 50.801517 
L 120.921235 52.402341 
L 121.160516 55.13269 
L 121.400026 55.845615 
L 121.520008 54.540362 
L 121.879409 55.490929 
L 121.999201 54.676788 
L 122.238652 55.248011 
L 122.597989 56.269321 
L 122.7175 57.051482 
L 122.7175 57.051482 
" clip-path="url(#pb17c59750e)" style="fill: none; stroke: #ff0000; stroke-opacity: 0.8; stroke-width: 2; stroke-linecap: square"/>
   </g>
   <g id="line2d_12">
    <path d="M 39.3675 67.870909 
L 39.846693 67.870909 
L 39.966594 66.087573 
L 40.086141 61.450707 
L 40.20634 64.304023 
L 40.325357 61.450707 
L 40.444221 55.743969 
L 40.565392 55.743753 
L 40.923535 47.183591 
L 41.043297 47.183591 
L 41.283351 42.903349 
L 41.523328 40.050034 
L 42.122305 26.496274 
L 42.241751 27.923093 
L 42.360344 24.356207 
L 42.481659 26.496274 
L 42.71957 18.64936 
L 42.840816 17.222649 
L 43.078918 12.942514 
L 43.199446 13.65587 
L 43.318853 12.229158 
L 43.439186 12.942514 
L 43.678226 11.515802 
L 43.798995 12.229158 
L 44.038679 15.795937 
L 44.157412 12.942514 
L 44.276801 12.942514 
L 44.397686 15.795937 
L 44.517809 13.65587 
L 44.637235 15.795937 
L 44.756012 12.747943 
L 44.995995 12.942406 
L 45.115501 13.655977 
L 45.23607 13.655977 
L 45.475422 15.082581 
L 45.714883 13.655762 
L 45.834732 12.229158 
L 45.954617 13.655977 
L 46.07452 12.942514 
L 46.193107 15.082474 
L 46.312923 13.65587 
L 46.433081 13.656085 
L 46.552023 12.942622 
L 46.67266 13.65587 
L 46.791649 12.942299 
L 46.91276 15.082474 
L 47.032344 13.65587 
L 47.271883 13.655762 
L 47.39026 14.369226 
L 47.51006 14.369226 
L 47.629836 15.795937 
L 47.869512 14.012494 
L 47.989135 15.082581 
L 48.110385 15.082581 
L 48.349864 12.942514 
L 48.469472 12.942514 
L 48.588001 12.387658 
L 48.828907 16.509293 
L 48.947914 12.942514 
L 49.066964 13.65587 
L 49.307565 13.65587 
L 49.426091 14.369226 
L 49.547019 13.655762 
L 49.788195 15.082581 
L 49.905782 14.369226 
L 50.144673 17.222649 
L 50.385711 12.229158 
L 50.504511 12.942514 
L 50.624713 14.725957 
L 50.863276 12.942622 
L 51.102863 14.369226 
L 51.222617 14.369118 
L 51.342495 12.942514 
L 51.463521 14.012602 
L 51.581811 13.65587 
L 51.702802 12.810287 
L 51.82172 13.299246 
L 51.94132 12.942622 
L 52.061893 13.655977 
L 52.180725 16.509293 
L 52.300351 12.942622 
L 52.539879 14.369226 
L 52.662586 13.65587 
L 52.780569 13.655762 
L 52.900523 15.082581 
L 53.022133 13.655762 
L 53.139862 14.369226 
L 53.259432 13.65587 
L 53.498906 14.369226 
L 53.621158 13.65587 
L 53.739661 15.082581 
L 53.859579 15.082581 
L 53.97972 14.369118 
L 54.100232 15.082581 
L 54.219549 13.65587 
L 54.339894 13.65587 
L 54.576895 15.082581 
L 54.698224 13.65587 
L 54.818317 14.369226 
L 54.937406 12.942514 
L 55.055826 12.942514 
L 55.296265 15.082581 
L 55.415958 12.942514 
L 55.536141 13.65587 
L 55.65565 13.65587 
L 55.774544 15.082581 
L 55.895494 13.65587 
L 56.016631 13.65587 
L 56.135147 14.044904 
L 56.253345 13.655762 
L 56.493382 15.082581 
L 56.612593 13.655977 
L 56.732107 13.655762 
L 56.853935 15.795937 
L 57.092419 13.655977 
L 57.212974 15.082581 
L 57.332952 13.655762 
L 57.450866 14.369226 
L 57.570409 14.369226 
L 57.690772 13.655762 
L 57.811745 13.65587 
L 57.932215 15.082581 
L 58.049903 13.655762 
L 58.170076 14.72585 
L 58.290617 14.36901 
L 58.410767 12.942622 
L 58.64886 15.795937 
L 58.767987 14.369226 
L 59.009366 20.076072 
L 59.366779 25.069562 
L 59.60613 32.916584 
L 59.725855 31.489764 
L 59.846917 32.916261 
L 60.086862 30.776409 
L 60.324598 25.782918 
L 60.445962 25.783026 
L 60.564268 23.642851 
L 60.803559 27.20963 
L 61.044889 34.343187 
L 61.164883 35.769899 
L 61.522069 42.903457 
L 61.641902 41.476745 
L 61.881618 44.330168 
L 62.00102 43.616813 
L 62.242024 40.763389 
L 62.480494 40.763389 
L 62.719548 41.714495 
L 62.839644 41.476745 
L 62.960984 43.616813 
L 63.080277 41.476745 
L 63.200685 42.190101 
L 63.318392 41.476745 
L 63.439031 41.476745 
L 63.559233 39.336678 
L 63.677454 40.763389 
L 63.916861 40.763389 
L 64.03665 41.476745 
L 64.1579 40.050141 
L 64.277393 40.763389 
L 64.637035 40.763389 
L 64.755203 38.623214 
L 64.99504 41.476745 
L 65.114408 40.050141 
L 65.234506 40.050034 
L 65.474707 42.190101 
L 65.593508 40.763497 
L 65.714381 41.476745 
L 65.834154 40.763497 
L 65.953992 41.344626 
L 66.074958 40.763389 
L 66.432546 40.763282 
L 66.551648 42.190101 
L 66.792415 40.050034 
L 66.912126 41.476745 
L 67.150316 40.050034 
L 67.391138 41.476745 
L 67.509802 39.985213 
L 67.629359 41.120014 
L 67.749101 39.336678 
L 67.870074 40.763282 
L 67.990049 40.050034 
L 68.108379 40.921889 
L 68.228065 40.763389 
L 68.34878 40.050034 
L 68.467631 40.406658 
L 68.588542 41.476745 
L 68.828415 40.050034 
L 68.948181 42.903457 
L 69.066607 40.763389 
L 69.186586 41.476745 
L 69.306056 40.763389 
L 69.426263 40.763389 
L 69.546923 41.476745 
L 69.904844 41.476745 
L 70.145552 42.190101 
L 70.265333 40.050034 
L 70.386172 41.476745 
L 70.503641 41.476638 
L 70.624898 42.190101 
L 70.744385 41.476745 
L 70.862985 40.050034 
L 71.103675 42.189993 
L 71.343325 35.056436 
L 71.582475 32.203228 
L 71.822798 27.922878 
L 72.060654 20.075964 
L 72.180262 20.789428 
L 72.300559 20.789428 
L 72.42028 15.795937 
L 72.539514 19.362716 
L 72.898738 11.515802 
L 73.138278 11.515802 
L 73.258049 13.65587 
L 73.377836 13.65587 
L 73.499159 12.942406 
L 73.618865 15.796153 
L 73.738421 14.369226 
L 73.857313 14.369226 
L 73.976602 14.012602 
L 74.097339 12.229158 
L 74.216167 14.369226 
L 74.337292 13.655977 
L 74.457263 16.509293 
L 74.577293 15.795937 
L 75.175026 25.06967 
L 75.294029 26.496274 
L 75.413737 26.496274 
L 75.773454 31.489764 
L 75.893135 30.063053 
L 76.134003 36.483255 
L 76.252501 30.063053 
L 76.371697 35.056543 
L 77.091627 27.20963 
L 77.330718 22.216139 
L 77.80936 12.229158 
L 78.048768 12.942514 
L 78.16968 12.942406 
L 78.288341 12.229158 
L 78.407752 10.802447 
L 78.648511 14.369226 
L 78.768436 13.65587 
L 78.888138 12.229158 
L 79.007208 14.369226 
L 79.126227 13.65587 
L 79.367564 16.509401 
L 79.485499 16.509293 
L 79.606999 14.369226 
L 79.72502 15.082689 
L 79.846771 14.369226 
L 79.965839 14.369226 
L 80.084273 15.082689 
L 80.323963 13.233025 
L 80.563292 15.795937 
L 80.804361 12.942622 
L 80.925122 14.369226 
L 81.046003 13.65587 
L 81.163907 13.655762 
L 81.283172 14.369118 
L 81.405919 13.655762 
L 81.642895 14.369226 
L 81.763801 15.795937 
L 81.88359 14.369226 
L 82.003453 15.796045 
L 82.243658 12.942622 
L 82.361933 13.65587 
L 82.482843 15.082581 
L 82.600528 14.369226 
L 82.720215 15.082581 
L 82.842583 12.942514 
L 83.081253 15.082581 
L 83.199478 14.369226 
L 83.319714 14.369226 
L 83.438621 12.942514 
L 83.560853 14.369226 
L 83.678571 14.369226 
L 83.798192 16.509293 
L 83.920154 14.369226 
L 84.038652 14.369226 
L 84.158963 15.082581 
L 84.396626 13.65587 
L 84.516327 14.369226 
L 84.755978 14.369226 
L 84.875908 13.655977 
L 84.995725 13.655977 
L 85.116434 15.082366 
L 85.354528 12.942622 
L 85.474307 14.725957 
L 85.594139 13.65587 
L 85.715363 13.655762 
L 85.955509 15.082474 
L 86.073808 13.65587 
L 86.19263 14.369333 
L 86.314469 13.65587 
L 86.434742 14.693439 
L 86.552287 13.65587 
L 86.7934 13.655762 
L 86.913399 16.509078 
L 87.031481 16.152561 
L 87.15351 17.222649 
L 87.27314 17.222649 
L 87.39046 19.362716 
L 87.511444 19.521216 
L 87.630017 29.349805 
L 87.749351 27.922985 
L 87.869154 35.056543 
L 88.110679 26.496166 
L 88.23061 27.20963 
L 88.348833 24.356207 
L 88.468132 27.922985 
L 88.709602 27.922985 
L 88.828462 31.489764 
L 88.948704 29.349697 
L 89.186477 38.623322 
L 89.307474 39.336678 
L 89.425988 35.769899 
L 89.545752 35.769899 
L 89.66716 37.196611 
L 89.785172 35.769899 
L 89.906099 38.623322 
L 90.024643 36.483255 
L 90.265089 40.050034 
L 90.384967 37.909966 
L 90.503543 43.616813 
L 90.744761 43.616813 
L 90.864529 41.476745 
L 90.982649 42.903457 
L 91.2239 41.476745 
L 91.343291 42.190101 
L 91.462371 40.763389 
L 91.5829 40.763389 
L 91.702862 42.190101 
L 91.823807 41.833369 
L 91.941294 42.190101 
L 92.060425 42.190101 
L 92.299977 40.763282 
L 92.420143 41.476745 
L 92.660465 40.050034 
L 92.898493 42.190101 
L 93.13918 40.050034 
L 93.497129 41.476745 
L 93.618345 40.050141 
L 93.736695 41.120014 
L 93.856423 40.763389 
L 93.978592 39.985213 
L 94.095839 41.476745 
L 94.216021 40.049926 
L 94.456143 40.050034 
L 94.57634 41.120014 
L 94.695552 40.049926 
L 94.814417 41.476745 
L 94.93504 40.406658 
L 95.054758 41.476745 
L 95.293572 41.476745 
L 95.41363 40.763389 
L 95.533163 42.190101 
L 95.654075 40.763389 
L 95.773511 40.763389 
L 95.893822 40.050034 
L 96.013266 40.763389 
L 96.13361 40.406765 
L 96.492226 41.476745 
L 96.612048 40.763389 
L 96.731839 42.190101 
L 96.970358 40.050034 
L 97.209807 41.476745 
L 97.329407 40.763389 
L 97.569078 40.763389 
L 97.688638 41.476745 
L 97.930237 40.050141 
L 98.048106 40.050034 
L 98.287665 42.190101 
L 98.527415 40.406765 
L 98.64805 42.190101 
L 98.767818 40.763282 
L 98.886629 40.763282 
L 99.00664 41.476745 
L 99.125766 41.476745 
L 99.366476 39.336786 
L 99.486599 41.476853 
L 99.606227 41.476745 
L 99.964127 37.909966 
L 100.083893 38.62343 
L 100.205233 34.343187 
L 100.324636 34.343295 
L 100.44318 28.636341 
L 100.562958 28.636341 
L 100.802684 22.216139 
L 100.9235 22.216139 
L 101.042069 20.78932 
L 101.161675 17.222649 
L 101.281582 17.579273 
L 101.401294 16.509293 
L 101.521155 12.099408 
L 101.641994 12.229158 
L 101.88137 13.65587 
L 101.999997 12.229158 
L 102.119774 12.942406 
L 102.240863 16.509293 
L 102.480284 16.509293 
L 102.838386 22.929603 
L 102.958082 22.929387 
L 103.079492 22.797268 
L 103.198376 27.209737 
L 103.318689 26.496274 
L 103.437198 27.20963 
L 103.797685 32.916368 
L 103.916176 32.916476 
L 104.516144 44.330168 
L 104.75465 41.476745 
L 104.874088 42.903457 
L 104.993908 41.476745 
L 105.114823 43.616813 
L 105.35372 40.050034 
L 105.473809 40.763389 
L 105.592683 40.050141 
L 105.712812 37.909966 
L 105.833356 38.623322 
L 105.951984 33.629832 
L 106.071673 34.343187 
L 106.192666 30.776516 
L 106.313111 30.776409 
L 106.55176 23.642851 
L 106.9108 16.509293 
L 107.031117 17.222649 
L 107.149679 17.222756 
L 107.269587 12.229051 
L 107.508987 14.369226 
L 107.628793 10.089091 
L 108.227434 16.509293 
L 108.348365 16.509185 
L 108.586909 13.65587 
L 108.707063 13.655762 
L 108.826276 14.725957 
L 108.947471 14.369226 
L 109.065703 15.082581 
L 109.185462 14.72585 
L 109.305232 15.082474 
L 109.42496 13.655977 
L 109.544783 13.655977 
L 109.665804 15.082689 
L 109.904477 12.942514 
L 110.263392 15.082581 
L 110.383435 13.299138 
L 110.503869 13.65587 
L 110.622557 15.795829 
L 110.742926 14.012494 
L 110.982963 15.795937 
L 111.221553 11.515802 
L 111.461028 14.369226 
L 111.581849 14.369226 
L 111.700288 12.942406 
L 111.820004 13.65587 
L 111.939831 13.65587 
L 112.059485 14.369226 
L 112.179281 13.655977 
L 112.30011 14.369226 
L 112.778786 14.369333 
L 112.897864 13.180371 
L 113.017962 15.082474 
L 113.137364 15.082689 
L 113.258694 15.795937 
L 113.376768 13.655762 
L 113.737007 13.655762 
L 113.856704 12.229051 
L 113.976098 15.082581 
L 114.095338 13.655977 
L 114.214992 14.369226 
L 114.335957 13.65587 
L 114.455263 14.369226 
L 114.695252 14.369333 
L 114.813744 13.65587 
L 114.934 15.082581 
L 115.053552 12.942406 
L 115.17348 13.655762 
L 115.293049 15.795937 
L 115.532247 13.589757 
L 115.652613 13.656085 
L 115.772349 14.369333 
L 115.89184 12.942514 
L 116.132256 15.082581 
L 116.25146 15.795937 
L 116.370431 12.942514 
L 116.490237 12.942514 
L 116.610697 13.655977 
L 116.730261 12.942514 
L 116.850003 12.942406 
L 117.089529 14.369226 
L 117.328407 17.222649 
L 117.448696 15.082581 
L 117.687713 21.502783 
L 117.807442 22.929495 
L 117.928234 27.20963 
L 118.047439 25.782918 
L 118.406295 30.776409 
L 118.526694 30.063053 
L 118.646252 30.776409 
L 118.766606 35.056543 
L 118.885742 33.629832 
L 119.124808 38.623214 
L 119.364632 35.769899 
L 119.604094 40.050034 
L 119.723438 40.050141 
L 119.843554 40.763389 
L 120.083151 42.903349 
L 120.203005 42.903457 
L 120.322276 45.043524 
L 120.442543 43.616813 
L 120.801593 49.323551 
L 120.921235 49.323659 
L 121.160516 52.044963 
L 121.280618 51.463726 
L 121.400026 55.030613 
L 121.520008 52.890545 
L 121.759586 57.170572 
L 121.879409 55.387237 
L 121.999201 57.170572 
L 122.238652 57.170465 
L 122.477938 54.317149 
L 122.7175 55.743753 
L 122.7175 55.743753 
" clip-path="url(#pb17c59750e)" style="fill: none; stroke: #0000ff; stroke-width: 2; stroke-linecap: square"/>
   </g>
   <g id="line2d_13">
    <path d="M 35.2 14.032737 
L 126.885 14.032737 
" clip-path="url(#pb17c59750e)" style="fill: none; stroke-dasharray: 3.7,1.6; stroke-dashoffset: 0; stroke: #000000; stroke-opacity: 0.7"/>
   </g>
   <g id="patch_3">
    <path d="M 35.2 70.76 
L 35.2 7.2 
" style="fill: none; stroke: #000000; stroke-width: 0.8; stroke-linejoin: miter; stroke-linecap: square"/>
   </g>
   <g id="patch_4">
    <path d="M 126.885 70.76 
L 126.885 7.2 
" style="fill: none; stroke: #000000; stroke-width: 0.8; stroke-linejoin: miter; stroke-linecap: square"/>
   </g>
   <g id="patch_5">
    <path d="M 35.2 70.76 
L 126.885 70.76 
" style="fill: none; stroke: #000000; stroke-width: 0.8; stroke-linejoin: miter; stroke-linecap: square"/>
   </g>
   <g id="patch_6">
    <path d="M 35.2 7.2 
L 126.885 7.2 
" style="fill: none; stroke: #000000; stroke-width: 0.8; stroke-linejoin: miter; stroke-linecap: square"/>
   </g>
  </g>
  <g id="axes_2">
   <g id="patch_7">
    <path d="M 159.625 70.76 
L 251.31 70.76 
L 251.31 7.2 
L 159.625 7.2 
z
" style="fill: #ffffff"/>
   </g>
   <g id="matplotlib.axis_3">
    <g id="xtick_3">
     <g id="line2d_14">
      <path d="M 163.7925 70.76 
L 163.7925 7.2 
" clip-path="url(#pa96c1036d7)" style="fill: none; stroke: #b0b0b0; stroke-opacity: 0.3; stroke-width: 0.8; stroke-linecap: square"/>
     </g>
     <g id="line2d_15">
      <g>
       <use xlink:href="#mcfc68a8ec3" x="163.7925" y="70.76" style="stroke: #000000; stroke-width: 0.8"/>
      </g>
     </g>
     <g id="text_6">
      <!-- 0 -->
      <g transform="translate(160.7925 86.0925) scale(0.12 -0.12)">
       <use xlink:href="#TimesNewRomanPSMT-30"/>
      </g>
     </g>
    </g>
    <g id="xtick_4">
     <g id="line2d_16">
      <path d="M 235.647407 70.76 
L 235.647407 7.2 
" clip-path="url(#pa96c1036d7)" style="fill: none; stroke: #b0b0b0; stroke-opacity: 0.3; stroke-width: 0.8; stroke-linecap: square"/>
     </g>
     <g id="line2d_17">
      <g>
       <use xlink:href="#mcfc68a8ec3" x="235.647407" y="70.76" style="stroke: #000000; stroke-width: 0.8"/>
      </g>
     </g>
     <g id="text_7">
      <!-- 20 -->
      <g transform="translate(229.647407 86.0925) scale(0.12 -0.12)">
       <use xlink:href="#TimesNewRomanPSMT-32"/>
       <use xlink:href="#TimesNewRomanPSMT-30" x="50"/>
      </g>
     </g>
    </g>
   </g>
   <g id="matplotlib.axis_4">
    <g id="ytick_4">
     <g id="line2d_18">
      <path d="M 159.625 60.166667 
L 251.31 60.166667 
" clip-path="url(#pa96c1036d7)" style="fill: none; stroke: #b0b0b0; stroke-opacity: 0.3; stroke-width: 0.8; stroke-linecap: square"/>
     </g>
     <g id="line2d_19">
      <g>
       <use xlink:href="#m828a20be6d" x="159.625" y="60.166667" style="stroke: #000000; stroke-width: 0.8"/>
      </g>
     </g>
     <g id="text_8">
      <!-- −1 -->
      <g transform="translate(139.858125 64.332917) scale(0.12 -0.12)">
       <defs>
        <path id="TimesNewRomanPSMT-2212" d="M 3484 2000 
L 116 2000 
L 116 2256 
L 3484 2256 
L 3484 2000 
z
" transform="scale(0.015625)"/>
        <path id="TimesNewRomanPSMT-31" d="M 750 3822 
L 1781 4325 
L 1884 4325 
L 1884 747 
Q 1884 391 1914 303 
Q 1944 216 2037 169 
Q 2131 122 2419 116 
L 2419 0 
L 825 0 
L 825 116 
Q 1125 122 1212 167 
Q 1300 213 1334 289 
Q 1369 366 1369 747 
L 1369 3034 
Q 1369 3497 1338 3628 
Q 1316 3728 1258 3775 
Q 1200 3822 1119 3822 
Q 1003 3822 797 3725 
L 750 3822 
z
" transform="scale(0.015625)"/>
       </defs>
       <use xlink:href="#TimesNewRomanPSMT-2212"/>
       <use xlink:href="#TimesNewRomanPSMT-31" x="56.396484"/>
      </g>
     </g>
    </g>
    <g id="ytick_5">
     <g id="line2d_20">
      <path d="M 159.625 38.98 
L 251.31 38.98 
" clip-path="url(#pa96c1036d7)" style="fill: none; stroke: #b0b0b0; stroke-opacity: 0.3; stroke-width: 0.8; stroke-linecap: square"/>
     </g>
     <g id="line2d_21">
      <g>
       <use xlink:href="#m828a20be6d" x="159.625" y="38.98" style="stroke: #000000; stroke-width: 0.8"/>
      </g>
     </g>
     <g id="text_9">
      <!-- 0 -->
      <g transform="translate(146.625 43.14625) scale(0.12 -0.12)">
       <use xlink:href="#TimesNewRomanPSMT-30"/>
      </g>
     </g>
    </g>
    <g id="ytick_6">
     <g id="line2d_22">
      <path d="M 159.625 17.793333 
L 251.31 17.793333 
" clip-path="url(#pa96c1036d7)" style="fill: none; stroke: #b0b0b0; stroke-opacity: 0.3; stroke-width: 0.8; stroke-linecap: square"/>
     </g>
     <g id="line2d_23">
      <g>
       <use xlink:href="#m828a20be6d" x="159.625" y="17.793333" style="stroke: #000000; stroke-width: 0.8"/>
      </g>
     </g>
     <g id="text_10">
      <!-- 1 -->
      <g transform="translate(146.625 21.959583) scale(0.12 -0.12)">
       <use xlink:href="#TimesNewRomanPSMT-31"/>
      </g>
     </g>
    </g>
   </g>
   <g id="line2d_24">
    <path d="M 163.7925 38.98 
L 166.306775 38.89394 
L 166.666751 38.873029 
L 168.942809 38.880889 
L 169.181012 38.145648 
L 170.259732 38.336497 
L 170.379617 37.940434 
L 170.737923 37.905306 
L 170.977023 37.489094 
L 171.457344 37.850857 
L 171.696883 37.779415 
L 171.81526 37.818738 
L 172.054836 38.141983 
L 172.414135 38.433829 
L 172.774864 38.659446 
L 173.013001 39.272312 
L 173.134064 39.336741 
L 173.372914 39.575642 
L 173.491964 39.684605 
L 173.732565 40.140669 
L 174.213195 39.981748 
L 175.049713 39.685241 
L 175.288276 39.724902 
L 175.409421 39.717063 
L 175.527863 39.863611 
L 175.767495 40.253997 
L 175.888521 40.133381 
L 176.24672 39.501425 
L 176.486893 39.251761 
L 177.087586 39.345216 
L 177.325523 38.7654 
L 177.447133 38.798197 
L 177.684432 39.101633 
L 178.284579 39.035827 
L 178.525232 38.650929 
L 178.764894 38.696014 
L 179.001895 38.678683 
L 179.243317 39.0682 
L 179.840958 39.138985 
L 180.678345 38.063295 
L 180.918382 38.056473 
L 181.037593 38.144122 
L 181.278935 38.041431 
L 181.757952 38.251857 
L 181.875866 38.28637 
L 181.995409 38.085944 
L 182.236745 38.169144 
L 182.357215 38.31904 
L 182.595076 38.821842 
L 182.715617 23.756321 
L 182.835767 23.846682 
L 182.953561 23.753397 
L 183.07386 23.336655 
L 183.192987 23.779435 
L 183.434366 21.933971 
L 183.674172 21.134365 
L 183.791779 19.955878 
L 183.91327 40.606373 
L 184.392413 42.758642 
L 184.511862 17.124386 
L 184.749598 19.640556 
L 184.870962 19.668141 
L 184.989268 20.706097 
L 185.228559 19.049554 
L 185.469889 14.681372 
L 185.589883 13.599645 
L 185.707626 11.181356 
L 185.829066 50.75038 
L 185.947069 6.773894 
L 186.066902 8.297279 
L 186.306618 4.991904 
L 186.42602 5.802612 
L 186.667024 9.018494 
L 186.905494 9.036312 
L 187.144548 7.994013 
L 187.264644 8.306431 
L 187.385984 5.78918 
L 187.505277 8.327343 
L 187.625685 7.535554 
L 187.743392 8.376411 
L 187.864031 8.406093 
L 187.984233 10.639888 
L 188.102454 9.243984 
L 188.341861 9.310828 
L 188.46165 8.498467 
L 188.5829 10.076196 
L 188.702393 9.377608 
L 188.940903 9.627293 
L 189.062035 9.736404 
L 189.180203 11.923949 
L 189.42004 9.220954 
L 189.539408 10.862687 
L 189.659506 10.945718 
L 189.899707 8.775186 
L 190.018508 10.458785 
L 190.139381 9.786956 
L 190.259154 10.6858 
L 190.378992 10.312067 
L 190.618199 11.38174 
L 190.857546 11.571975 
L 190.976648 10.053971 
L 191.217415 12.735589 
L 191.337126 11.335659 
L 191.575316 13.259387 
L 191.816138 11.975242 
L 191.934802 13.944966 
L 192.054359 12.932688 
L 192.174101 15.056885 
L 192.295074 13.726108 
L 192.415049 15.118262 
L 192.533379 14.906269 
L 192.892631 16.977244 
L 193.013542 16.16249 
L 193.253415 19.291019 
L 193.373181 16.865145 
L 193.491607 20.186177 
L 193.611586 19.374982 
L 193.851263 21.441889 
L 193.971923 21.216188 
L 194.210733 21.972488 
L 194.329844 21.382185 
L 194.44951 21.382651 
L 194.570552 21.944755 
L 194.690333 25.323498 
L 194.811172 24.712835 
L 195.049898 27.20962 
L 195.528675 27.20962 
L 196.365719 44.324337 
L 196.605262 45.688864 
L 196.725559 44.95 
L 196.84528 45.791471 
L 197.085233 48.712392 
L 197.444675 49.96035 
L 197.683049 50.75038 
L 197.802836 50.639531 
L 197.924159 50.03747 
L 198.163421 50.669192 
L 198.401602 50.75038 
L 201.156016 50.75038 
L 201.275945 50.558577 
L 201.755718 45.626088 
L 202.353909 40.367006 
L 202.832752 39.254177 
L 203.432208 38.381498 
L 203.672975 38.161284 
L 203.910499 37.882001 
L 204.271771 37.769479 
L 204.868571 37.726809 
L 205.110286 38.069503 
L 205.229361 38.085457 
L 205.471003 37.979269 
L 205.588907 37.991515 
L 205.830919 38.377303 
L 206.54879 38.697666 
L 206.786933 38.848028 
L 207.025528 38.858177 
L 207.267583 39.037289 
L 207.506253 39.049408 
L 207.744714 39.301783 
L 207.985853 39.222333 
L 208.223192 39.078751 
L 208.463652 39.020255 
L 208.583963 38.767561 
L 208.941327 38.73237 
L 209.180978 38.993835 
L 209.541434 38.983178 
L 210.380509 39.05428 
L 210.61763 38.811926 
L 210.859742 38.766332 
L 210.977287 54.112238 
L 211.2184 54.084759 
L 211.338399 54.830063 
L 211.456481 54.706291 
L 211.57851 55.0389 
L 211.69814 55.027247 
L 211.81546 55.755793 
L 211.936444 55.807468 
L 212.055017 37.904777 
L 212.174351 37.831132 
L 212.41616 36.432642 
L 212.535679 58.671905 
L 212.65561 59.017502 
L 212.773833 57.655686 
L 212.893132 59.371912 
L 213.134602 59.345747 
L 213.253462 61.37454 
L 213.373704 60.081602 
L 213.491778 31.736469 
L 213.732474 29.405194 
L 213.850988 64.358661 
L 213.970752 64.360779 
L 214.09216 65.531385 
L 214.210172 64.357411 
L 214.331099 66.812479 
L 214.449643 64.933984 
L 214.690089 68.245927 
L 214.809967 66.1644 
L 214.928543 72.403301 
L 215.169761 72.484573 
L 215.289529 69.848613 
L 215.407649 71.606132 
L 215.6489 69.847427 
L 215.768291 70.706038 
L 215.887371 69.036168 
L 216.0079 69.03602 
L 216.127862 70.693728 
L 216.248807 70.259762 
L 216.366294 70.680381 
L 216.485425 70.646334 
L 216.724977 68.974388 
L 216.845143 69.754735 
L 217.085465 68.13048 
L 217.323493 70.450378 
L 217.56418 67.987174 
L 217.803078 69.531957 
L 217.922129 69.499309 
L 218.043345 67.887024 
L 218.161695 68.989854 
L 218.281423 68.578134 
L 218.403592 67.700878 
L 218.520839 69.306997 
L 218.641021 67.636026 
L 218.881143 67.447465 
L 219.00134 68.539955 
L 219.120552 67.329836 
L 219.239417 68.858793 
L 219.36004 67.299391 
L 219.479758 68.427814 
L 219.718572 68.129336 
L 219.83863 67.137016 
L 219.958163 68.831674 
L 220.198511 66.864111 
L 220.318822 65.75143 
L 220.438266 66.417072 
L 220.55861 65.849842 
L 220.67655 65.930563 
L 220.797532 66.557625 
L 220.917226 66.332749 
L 221.037048 65.179008 
L 221.156839 67.14905 
L 221.395358 63.645157 
L 221.634807 65.035363 
L 221.874262 63.107079 
L 221.994078 62.542836 
L 222.113638 63.129537 
L 222.473106 59.365069 
L 222.712665 61.17155 
L 222.952415 56.68021 
L 223.07305 58.346965 
L 223.311629 54.592222 
L 223.43164 54.837394 
L 223.550766 53.840053 
L 223.791476 50.75038 
L 224.270647 50.75038 
L 224.389127 47.803336 
L 224.508893 47.807361 
L 224.749636 39.763885 
L 224.987958 34.48688 
L 225.3485 31.176315 
L 225.706582 29.01572 
L 226.30637 27.20962 
L 228.462367 27.20962 
L 228.700351 26.591414 
L 228.941144 23.946302 
L 229.17965 26.595546 
L 229.299088 26.112109 
L 229.418908 27.20962 
L 229.539823 26.267089 
L 229.660127 27.20962 
L 230.258356 27.20962 
L 230.856617 33.999205 
L 231.694587 38.286264 
L 232.413692 39.43884 
L 232.773365 39.456149 
L 233.132063 39.484073 
L 233.490703 39.466976 
L 233.730232 39.617083 
L 234.20932 39.4542 
L 234.329477 39.73308 
L 234.688392 39.695495 
L 234.928869 39.481446 
L 235.167926 39.441064 
L 235.288104 40.063338 
L 235.527962 40.022215 
L 235.765982 39.295703 
L 236.006849 39.211274 
L 236.245004 39.299834 
L 236.484485 39.291995 
L 236.72511 39.409856 
L 236.964839 39.414009 
L 237.203786 39.522972 
L 237.442962 39.498311 
L 237.683694 39.298457 
L 237.801768 39.245066 
L 238.162007 39.871598 
L 238.401098 39.7845 
L 238.639992 39.597846 
L 239.238744 39.047119 
L 239.478552 38.657581 
L 239.718049 38.610674 
L 239.837494 38.43313 
L 240.077613 38.44974 
L 240.197349 37.805115 
L 240.795431 37.698524 
L 241.035697 37.692359 
L 241.275003 38.222153 
L 241.514529 38.262704 
L 241.753407 38.21175 
L 242.472439 38.431414 
L 242.592101 39.641723 
L 242.951694 39.76003 
L 243.191606 40.597687 
L 243.430608 40.62578 
L 243.549808 41.738101 
L 243.908927 41.747063 
L 244.38819 41.487421 
L 244.508151 42.334315 
L 244.867543 42.231348 
L 244.986752 42.908199 
L 245.346235 42.619869 
L 245.585516 42.153593 
L 245.825026 42.020414 
L 246.064778 40.346392 
L 246.304409 40.041516 
L 246.543739 37.98143 
L 246.902938 37.718779 
L 247.022989 37.814691 
L 247.1425 38.522919 
L 247.1425 38.522919 
" clip-path="url(#pa96c1036d7)" style="fill: none; stroke: #ff0000; stroke-opacity: 0.8; stroke-width: 2; stroke-linecap: square"/>
   </g>
   <g id="line2d_25">
    <path d="M 163.7925 38.98 
L 164.271693 38.98 
L 164.63134 39.545938 
L 164.869221 39.546002 
L 164.990392 38.413998 
L 165.10929 39.546002 
L 165.228579 38.98 
L 165.348535 37.282058 
L 165.468297 39.546002 
L 165.58928 39.26299 
L 165.708351 38.413956 
L 165.948328 38.414041 
L 166.188209 40.677963 
L 166.306775 38.414041 
L 166.427324 40.677878 
L 166.547305 37.84806 
L 166.666751 37.848081 
L 166.785344 37.282037 
L 166.906659 38.98 
L 167.024841 38.98 
L 167.14457 38.414041 
L 167.265816 38.414019 
L 167.38435 36.71612 
L 167.503918 37.282101 
L 167.624446 38.98 
L 167.743853 38.98 
L 167.864186 39.545959 
L 167.983024 38.98 
L 168.103226 37.282101 
L 168.343458 39.546002 
L 168.463679 38.414041 
L 168.822686 38.414041 
L 168.942809 38.98 
L 169.062235 38.414041 
L 169.181012 38.465482 
L 169.301777 37.282037 
L 169.420995 38.414062 
L 169.540501 38.413956 
L 169.66107 37.84806 
L 169.900422 38.98 
L 170.020133 37.282058 
L 170.139883 37.848208 
L 170.379617 37.84806 
L 170.618107 38.98 
L 170.737923 37.847996 
L 170.858081 37.848124 
L 170.977023 37.282058 
L 171.216649 37.281995 
L 171.33776 38.98 
L 171.457344 36.716141 
L 171.577651 37.848124 
L 171.696883 37.84806 
L 171.81526 38.413935 
L 172.054836 38.414062 
L 172.175761 37.282058 
L 172.414135 37.847954 
L 172.535385 38.98 
L 172.654377 38.98 
L 172.774864 38.414019 
L 172.894472 38.413998 
L 173.013001 38.98 
L 173.134064 37.84806 
L 173.253907 37.848018 
L 173.372914 39.545981 
L 173.491964 38.98 
L 173.612843 40.11194 
L 173.732565 38.98 
L 173.851091 40.677942 
L 173.972019 38.98 
L 174.091185 39.546002 
L 174.213195 41.243922 
L 174.330782 39.545981 
L 174.450528 39.545938 
L 174.569673 41.809861 
L 174.810711 38.98 
L 175.049713 39.82895 
L 175.169528 38.98 
L 175.409421 40.111834 
L 175.527863 38.413998 
L 175.647617 39.546002 
L 175.767495 38.414125 
L 176.006811 40.112004 
L 176.127802 39.650876 
L 176.24672 40.39493 
L 176.486893 38.98 
L 176.605725 38.98 
L 176.846286 40.112004 
L 177.087586 38.98 
L 177.205569 38.98 
L 177.325523 40.11194 
L 177.564862 38.414125 
L 177.684432 37.847996 
L 178.046158 40.112004 
L 178.164661 40.11194 
L 178.40472 38.413956 
L 178.525232 40.11194 
L 178.644549 38.414041 
L 179.001895 40.11194 
L 179.123224 40.111982 
L 179.243317 39.545938 
L 179.362406 37.282101 
L 179.480826 40.677963 
L 179.840958 38.414041 
L 179.961141 38.98 
L 180.08065 40.111961 
L 180.199544 40.11194 
L 180.320494 38.98 
L 180.441631 38.98 
L 180.560147 39.494561 
L 180.678345 38.98 
L 180.800305 39.545959 
L 180.918382 38.98 
L 181.037593 37.848039 
L 181.278935 39.545938 
L 181.517419 37.848039 
L 181.637974 37.84806 
L 181.875866 39.546065 
L 182.115772 37.848124 
L 182.474903 37.848124 
L 182.595076 38.697031 
L 182.715617 36.150055 
L 182.953561 38.413935 
L 183.07386 38.414062 
L 183.313111 36.716141 
L 183.434366 37.281995 
L 183.552167 37.177121 
L 183.791779 34.452261 
L 183.91327 36.150055 
L 184.150855 31.622252 
L 184.392413 34.863812 
L 184.511862 34.452197 
L 184.631714 33.3203 
L 184.749598 35.018199 
L 184.870962 33.886259 
L 184.989268 34.452219 
L 185.108791 35.584159 
L 185.348867 33.037225 
L 185.469889 33.886238 
L 185.589883 31.622316 
L 185.707626 31.622294 
L 185.947069 28.226495 
L 186.066902 29.358457 
L 186.186554 29.075445 
L 186.306618 24.830633 
L 186.42602 25.396614 
L 186.546491 27.094555 
L 186.667024 24.264695 
L 186.905494 24.264674 
L 187.026525 23.698693 
L 187.144548 24.516202 
L 187.264644 23.698693 
L 187.505277 21.434792 
L 187.743392 20.30283 
L 187.984233 17.472949 
L 188.102454 18.60491 
L 188.22338 18.60491 
L 188.341861 17.47297 
L 188.46165 18.038972 
L 188.5829 16.907053 
L 188.702393 17.47297 
L 188.821155 18.604952 
L 189.062035 16.341009 
L 189.42004 18.038972 
L 189.539408 16.907116 
L 189.659506 16.906968 
L 189.779865 19.17089 
L 189.899707 18.60491 
L 190.018508 17.473054 
L 190.139381 18.038972 
L 190.259154 17.473054 
L 190.618199 18.604825 
L 190.737885 17.473054 
L 190.857546 17.472906 
L 190.976648 18.60491 
L 191.217415 16.906968 
L 191.337126 18.038972 
L 191.575316 16.906968 
L 191.816138 18.038908 
L 191.934802 16.855548 
L 192.054359 17.755939 
L 192.174101 16.341051 
L 192.415049 18.038908 
L 192.77378 16.90701 
L 193.013542 19.17089 
L 193.253415 16.906989 
L 193.373181 19.17089 
L 193.491607 17.47297 
L 193.611586 18.03895 
L 193.731056 17.47297 
L 193.851263 17.47297 
L 194.09039 20.302873 
L 194.210733 20.302873 
L 194.329844 19.170912 
L 194.570552 23.132755 
L 194.690333 21.434813 
L 194.811172 21.43477 
L 194.928641 22.566689 
L 195.049898 22.000772 
L 195.169385 24.830633 
L 195.287985 24.830675 
L 195.408966 23.698651 
L 195.528675 24.264589 
L 195.886871 27.660557 
L 196.007475 27.6606 
L 196.126255 29.358414 
L 196.247798 28.792349 
L 196.485654 31.622231 
L 196.605262 32.188296 
L 196.725559 31.056356 
L 197.085233 35.584265 
L 197.205204 35.018199 
L 197.323738 36.150055 
L 197.444675 35.018199 
L 197.563278 35.018199 
L 197.802836 41.243859 
L 197.924159 40.677942 
L 198.043865 41.809797 
L 198.163421 40.677942 
L 198.282313 40.677942 
L 198.401602 41.52687 
L 198.641167 44.073804 
L 198.762292 42.375799 
L 198.882263 43.507781 
L 199.002293 42.941801 
L 199.239936 46.337642 
L 199.360013 46.903665 
L 199.719029 50.299506 
L 199.838737 50.299506 
L 199.959867 49.733483 
L 200.07856 48.601586 
L 200.198454 50.865466 
L 200.437563 50.865402 
L 200.677501 49.733526 
L 200.796697 50.299485 
L 200.916377 51.431404 
L 201.036584 49.167566 
L 201.156016 49.167524 
L 201.275945 51.997448 
L 201.395588 50.299485 
L 201.516627 50.865445 
L 201.636647 50.865445 
L 201.755718 50.299528 
L 201.876016 50.299506 
L 201.995731 49.167524 
L 202.114461 46.903665 
L 202.23436 46.903665 
L 202.353909 46.054694 
L 202.473768 46.337706 
L 202.713341 43.507845 
L 202.832752 45.771683 
L 203.073511 42.941801 
L 203.313138 38.98 
L 203.432208 40.677942 
L 203.551227 40.112004 
L 203.672975 40.112131 
L 203.792564 38.98 
L 203.910499 36.715993 
L 204.031999 38.413935 
L 204.15002 37.847869 
L 204.271771 38.413935 
L 204.509273 36.716268 
L 204.629106 38.414062 
L 204.748963 38.183466 
L 204.988292 38.414062 
L 205.110286 37.565091 
L 205.229361 38.413935 
L 205.350122 37.282122 
L 205.471003 37.847996 
L 205.708172 39.546002 
L 205.830919 38.98 
L 205.947912 37.56507 
L 206.188801 39.546002 
L 206.30859 37.848039 
L 206.54879 38.98 
L 206.668658 37.282058 
L 206.786933 37.848018 
L 206.907843 38.98 
L 207.025528 38.414019 
L 207.145215 38.98 
L 207.267583 38.414019 
L 207.385903 37.282101 
L 207.506253 38.98 
L 207.624478 38.414019 
L 207.744714 38.414041 
L 207.863621 38.98 
L 207.985853 38.414041 
L 208.223192 40.111961 
L 208.345154 38.414041 
L 208.583963 40.11194 
L 208.704591 38.98 
L 208.821626 38.98 
L 208.941327 40.677942 
L 209.06114 39.545938 
L 209.180978 39.546002 
L 209.300908 38.98 
L 209.659771 38.98 
L 209.779528 37.282058 
L 209.899307 39.263033 
L 210.019139 38.98 
L 210.140363 38.98 
L 210.259731 39.54579 
L 210.380509 38.98 
L 210.498808 38.98 
L 210.61763 37.282206 
L 210.739469 40.112004 
L 210.859742 40.008846 
L 210.977287 37.847996 
L 211.2184 40.11194 
L 211.338399 40.112004 
L 211.456481 38.69701 
L 211.57851 40.677878 
L 211.69814 40.677878 
L 211.81546 38.98 
L 211.936444 39.608884 
L 212.055017 42.375862 
L 212.174351 41.243859 
L 212.294154 44.639743 
L 212.535679 40.112004 
L 212.65561 42.375841 
L 212.773833 41.809861 
L 212.893132 42.375841 
L 213.014832 44.639743 
L 213.134602 44.639743 
L 213.253462 44.073783 
L 213.373704 44.639743 
L 213.611477 47.469582 
L 213.850988 44.073762 
L 213.970752 44.073783 
L 214.09216 46.337663 
L 214.210172 46.337663 
L 214.449643 49.167545 
L 214.570227 46.903644 
L 214.690089 47.469624 
L 214.809967 49.167524 
L 214.928543 48.035605 
L 215.049847 49.167566 
L 215.169761 49.167524 
L 215.407649 52.563365 
L 215.6489 54.261349 
L 215.768291 54.827245 
L 215.887371 54.827288 
L 216.366294 59.35509 
L 216.485425 58.223193 
L 216.724977 60.487094 
L 216.964152 59.355048 
L 217.085465 61.053032 
L 217.323493 59.35509 
L 217.56418 61.053032 
L 217.922129 59.921028 
L 218.043345 59.920986 
L 218.161695 60.204061 
L 218.281423 59.355048 
L 218.403592 61.104452 
L 218.520839 59.921028 
L 218.641021 59.921092 
L 218.761704 61.052947 
L 218.881143 59.92105 
L 219.00134 60.204061 
L 219.239417 59.921092 
L 219.36004 60.770021 
L 219.479758 59.921028 
L 219.718572 59.92105 
L 219.83863 60.48703 
L 219.958163 59.35509 
L 220.079075 59.35509 
L 220.198511 59.92105 
L 220.318822 61.053011 
L 220.438266 60.48703 
L 220.55861 60.770021 
L 220.917226 59.92105 
L 221.037048 60.48703 
L 221.156839 59.355048 
L 221.395358 61.053032 
L 221.516313 59.35509 
L 221.754407 60.48703 
L 221.874262 60.48703 
L 221.994078 59.355111 
L 222.355237 61.052947 
L 222.473106 59.921028 
L 222.592799 59.921156 
L 222.712665 59.35509 
L 222.952415 60.20404 
L 223.07305 59.35509 
L 223.192818 59.355196 
L 223.311629 60.487094 
L 223.671819 56.064059 
L 223.791476 55.959143 
L 223.911599 54.261222 
L 224.031227 55.393247 
L 224.389127 52.563386 
L 224.508893 51.997321 
L 224.630233 51.997491 
L 225.227684 46.903644 
L 225.3485 46.903665 
L 225.586675 44.073741 
L 225.706582 44.35671 
L 225.826294 43.507739 
L 225.946155 41.038094 
L 226.066994 41.243859 
L 226.186686 41.809861 
L 226.30637 43.507781 
L 226.424997 43.507739 
L 226.665863 37.848081 
L 226.905284 37.848081 
L 227.024723 36.15016 
L 227.143553 36.716099 
L 227.263386 36.15016 
L 227.623376 32.754319 
L 227.743689 34.452197 
L 227.981887 32.188254 
L 228.102028 32.754319 
L 228.462367 29.924416 
L 228.581359 27.094513 
L 228.821266 28.226453 
L 229.17965 24.830654 
L 229.299088 25.962509 
L 229.418908 24.830654 
L 229.539823 25.396592 
L 229.660127 25.396614 
L 230.017683 27.094513 
L 230.137812 25.396656 
L 230.258356 28.226517 
L 230.376984 27.660557 
L 230.496673 28.226411 
L 230.617666 27.660472 
L 230.738111 28.792434 
L 230.856617 27.660494 
L 230.97676 29.924416 
L 231.095643 29.924458 
L 231.456117 31.622337 
L 231.574679 31.622188 
L 231.694587 33.320321 
L 231.815355 32.18836 
L 232.173609 38.518957 
L 232.294468 36.150139 
L 232.413692 36.716141 
L 232.652434 38.98 
L 232.773365 37.84806 
L 232.89361 40.677942 
L 233.011909 40.112004 
L 233.132063 40.111876 
L 233.490703 38.98 
L 233.610462 40.39493 
L 233.84996 40.11194 
L 233.969783 40.11194 
L 234.090804 38.98 
L 234.20932 38.98 
L 234.329477 40.677963 
L 234.568925 38.413956 
L 235.047557 40.677878 
L 235.288104 38.98 
L 235.407963 40.677942 
L 235.527962 39.545981 
L 235.646553 41.809903 
L 235.765982 39.546002 
L 235.886028 40.677942 
L 236.006849 39.545981 
L 236.125288 40.677963 
L 236.364831 38.414041 
L 236.484485 40.677942 
L 236.604281 40.111898 
L 236.72511 38.414062 
L 236.843789 40.677878 
L 236.964839 39.545959 
L 237.084895 39.545896 
L 237.203786 40.677815 
L 237.322864 39.608757 
L 237.442962 40.112004 
L 237.562364 40.111876 
L 237.801768 38.98 
L 237.921504 40.111876 
L 238.041342 37.847996 
L 238.281704 40.112067 
L 238.401098 38.98 
L 238.520338 38.98 
L 238.639992 39.546065 
L 238.760957 39.545938 
L 238.880263 38.413935 
L 239.120252 38.414062 
L 239.238744 40.112004 
L 239.359 40.11194 
L 239.478552 39.545938 
L 239.59848 40.111792 
L 239.718049 37.281995 
L 239.837494 39.608884 
L 240.077613 37.848124 
L 240.197349 38.414104 
L 240.31684 38.413998 
L 240.557256 36.716056 
L 240.67646 38.414062 
L 240.915237 38.413998 
L 241.035697 37.848102 
L 241.155261 38.413998 
L 241.275003 37.282037 
L 241.394283 37.848039 
L 241.514529 37.848039 
L 241.633733 38.413998 
L 241.753407 39.546002 
L 241.873696 37.84806 
L 241.993847 39.545959 
L 242.112713 37.282101 
L 242.232442 38.414041 
L 242.472439 38.414062 
L 242.592101 37.282058 
L 242.712322 38.13105 
L 242.831295 37.848039 
L 242.951694 38.414041 
L 243.071252 40.111982 
L 243.191606 38.98 
L 243.310742 38.98 
L 243.430608 40.111961 
L 243.549808 39.546044 
L 243.669574 40.677921 
L 243.789632 39.545959 
L 243.908927 42.375862 
L 244.029094 39.545959 
L 244.148438 41.809776 
L 244.268554 41.243838 
L 244.508151 42.941907 
L 244.628005 41.809861 
L 244.747276 42.375862 
L 244.867543 42.375841 
L 244.986752 44.073741 
L 245.106437 40.677794 
L 245.226593 41.243944 
L 245.346235 42.375862 
L 245.46645 42.375841 
L 245.705618 44.073804 
L 245.825026 41.243859 
L 245.945008 42.941801 
L 246.064778 41.809861 
L 246.184586 41.809861 
L 246.304409 40.960869 
L 246.424201 41.809861 
L 246.663652 40.112004 
L 246.783069 39.546065 
L 246.902938 38.414062 
L 247.022989 38.98 
L 247.1425 37.282206 
L 247.1425 37.282206 
" clip-path="url(#pa96c1036d7)" style="fill: none; stroke: #0000ff; stroke-width: 2; stroke-linecap: square"/>
   </g>
   <g id="line2d_26">
    <path d="M 159.625 17.793333 
L 251.31 17.793333 
" clip-path="url(#pa96c1036d7)" style="fill: none; stroke-dasharray: 7.4,3.2; stroke-dashoffset: 0; stroke: #000000; stroke-opacity: 0.7; stroke-width: 2"/>
   </g>
   <g id="line2d_27">
    <path d="M 159.625 60.166667 
L 251.31 60.166667 
" clip-path="url(#pa96c1036d7)" style="fill: none; stroke-dasharray: 7.4,3.2; stroke-dashoffset: 0; stroke: #000000; stroke-opacity: 0.7; stroke-width: 2"/>
   </g>
   <g id="patch_8">
    <path d="M 159.625 70.76 
L 159.625 7.2 
" style="fill: none; stroke: #000000; stroke-width: 0.8; stroke-linejoin: miter; stroke-linecap: square"/>
   </g>
   <g id="patch_9">
    <path d="M 251.31 70.76 
L 251.31 7.2 
" style="fill: none; stroke: #000000; stroke-width: 0.8; stroke-linejoin: miter; stroke-linecap: square"/>
   </g>
   <g id="patch_10">
    <path d="M 159.625 70.76 
L 251.31 70.76 
" style="fill: none; stroke: #000000; stroke-width: 0.8; stroke-linejoin: miter; stroke-linecap: square"/>
   </g>
   <g id="patch_11">
    <path d="M 159.625 7.2 
L 251.31 7.2 
" style="fill: none; stroke: #000000; stroke-width: 0.8; stroke-linejoin: miter; stroke-linecap: square"/>
   </g>
  </g>
 </g>
 <defs>
  <clipPath id="pb17c59750e">
   <rect x="35.2" y="7.2" width="91.685" height="63.56"/>
  </clipPath>
  <clipPath id="pa96c1036d7">
   <rect x="159.625" y="7.2" width="91.685" height="63.56"/>
  </clipPath>
 </defs>
</svg>
