<?xml version="1.0" encoding="utf-8" standalone="no"?>
<!DOCTYPE svg PUBLIC "-//W3C//DTD SVG 1.1//EN"
  "http://www.w3.org/Graphics/SVG/1.1/DTD/svg11.dtd">
<svg xmlns:xlink="http://www.w3.org/1999/xlink" width="258.51pt" height="95.859375pt" viewBox="0 0 258.51 95.859375" xmlns="http://www.w3.org/2000/svg" version="1.1">
 <metadata>
  <rdf:RDF xmlns:dc="http://purl.org/dc/elements/1.1/" xmlns:cc="http://creativecommons.org/ns#" xmlns:rdf="http://www.w3.org/1999/02/22-rdf-syntax-ns#">
   <cc:Work>
    <dc:type rdf:resource="http://purl.org/dc/dcmitype/StillImage"/>
    <dc:date>2026-01-18T23:30:38.057621</dc:date>
    <dc:format>image/svg+xml</dc:format>
    <dc:creator>
     <cc:Agent>
      <dc:title>Matplotlib v3.6.3, https://matplotlib.org/</dc:title>
     </cc:Agent>
    </dc:creator>
   </cc:Work>
  </rdf:RDF>
 </metadata>
 <defs>
  <style type="text/css">*{stroke-linejoin: round; stroke-linecap: butt}</style>
 </defs>
 <g id="figure_1">
  <g id="patch_1">
   <path d="M 0 95.859375 
L 258.51 95.859375 
L 258.51 0 
L 0 0 
z
" style="fill: #ffffff"/>
  </g>
  <g id="axes_1">
   <g id="patch_2">
    <path d="M 35.2 70.76 
L 126.885 70.76 
L 126.885 7.2 
L 35.2 7.2 
z
" style="fill: #ffffff"/>
   </g>
   <g id="matplotlib.axis_1">
    <g id="xtick_1">
     <g id="line2d_1">
      <path d="M 39.3675 70.76 
L 39.3675 7.2 
" clip-path="url(#p82b4366a09)" style="fill: none; stroke: #b0b0b0; stroke-opacity: 0.3; stroke-width: 0.8; stroke-linecap: square"/>
     </g>
     <g id="line2d_2">
      <defs>
       <path id="m3b85b2681c" d="M 0 0 
L 0 3.5 
" style="stroke: #000000; stroke-width: 0.8"/>
      </defs>
      <g>
       <use xlink:href="#m3b85b2681c" x="39.3675" y="70.76" style="stroke: #000000; stroke-width: 0.8"/>
      </g>
     </g>
     <g id="text_1">
      <!-- 0 -->
      <g transform="translate(36.3675 86.0925) scale(0.12 -0.12)">
       <defs>
        <path id="TimesNewRomanPSMT-30" d="M 231 2094 
Q 231 2819 450 3342 
Q 669 3866 1031 4122 
Q 1313 4325 1613 4325 
Q 2100 4325 2488 3828 
Q 2972 3213 2972 2159 
Q 2972 1422 2759 906 
Q 2547 391 2217 158 
Q 1888 -75 1581 -75 
Q 975 -75 572 641 
Q 231 1244 231 2094 
z
M 844 2016 
Q 844 1141 1059 588 
Q 1238 122 1591 122 
Q 1759 122 1940 273 
Q 2122 425 2216 781 
Q 2359 1319 2359 2297 
Q 2359 3022 2209 3506 
Q 2097 3866 1919 4016 
Q 1791 4119 1609 4119 
Q 1397 4119 1231 3928 
Q 1006 3669 925 3112 
Q 844 2556 844 2016 
z
" transform="scale(0.015625)"/>
       </defs>
       <use xlink:href="#TimesNewRomanPSMT-30"/>
      </g>
     </g>
    </g>
    <g id="xtick_2">
     <g id="line2d_3">
      <path d="M 101.959481 70.76 
L 101.959481 7.2 
" clip-path="url(#p82b4366a09)" style="fill: none; stroke: #b0b0b0; stroke-opacity: 0.3; stroke-width: 0.8; stroke-linecap: square"/>
     </g>
     <g id="line2d_4">
      <g>
       <use xlink:href="#m3b85b2681c" x="101.959481" y="70.76" style="stroke: #000000; stroke-width: 0.8"/>
      </g>
     </g>
     <g id="text_2">
      <!-- 20 -->
      <g transform="translate(95.959481 86.0925) scale(0.12 -0.12)">
       <defs>
        <path id="TimesNewRomanPSMT-32" d="M 2934 816 
L 2638 0 
L 138 0 
L 138 116 
Q 1241 1122 1691 1759 
Q 2141 2397 2141 2925 
Q 2141 3328 1894 3587 
Q 1647 3847 1303 3847 
Q 991 3847 742 3664 
Q 494 3481 375 3128 
L 259 3128 
Q 338 3706 661 4015 
Q 984 4325 1469 4325 
Q 1984 4325 2329 3994 
Q 2675 3663 2675 3213 
Q 2675 2891 2525 2569 
Q 2294 2063 1775 1497 
Q 997 647 803 472 
L 1909 472 
Q 2247 472 2383 497 
Q 2519 522 2628 598 
Q 2738 675 2819 816 
L 2934 816 
z
" transform="scale(0.015625)"/>
       </defs>
       <use xlink:href="#TimesNewRomanPSMT-32"/>
       <use xlink:href="#TimesNewRomanPSMT-30" x="50"/>
      </g>
     </g>
    </g>
   </g>
   <g id="matplotlib.axis_2">
    <g id="ytick_1">
     <g id="line2d_5">
      <path d="M 35.2 67.870909 
L 126.885 67.870909 
" clip-path="url(#p82b4366a09)" style="fill: none; stroke: #b0b0b0; stroke-opacity: 0.3; stroke-width: 0.8; stroke-linecap: square"/>
     </g>
     <g id="line2d_6">
      <defs>
       <path id="m96e3b79bfb" d="M 0 0 
L -3.5 0 
" style="stroke: #000000; stroke-width: 0.8"/>
      </defs>
      <g>
       <use xlink:href="#m96e3b79bfb" x="35.2" y="67.870909" style="stroke: #000000; stroke-width: 0.8"/>
      </g>
     </g>
     <g id="text_3">
      <!-- 0.00 -->
      <g transform="translate(7.2 72.037159) scale(0.12 -0.12)">
       <defs>
        <path id="TimesNewRomanPSMT-2e" d="M 800 606 
Q 947 606 1047 504 
Q 1147 403 1147 259 
Q 1147 116 1045 14 
Q 944 -88 800 -88 
Q 656 -88 554 14 
Q 453 116 453 259 
Q 453 406 554 506 
Q 656 606 800 606 
z
" transform="scale(0.015625)"/>
       </defs>
       <use xlink:href="#TimesNewRomanPSMT-30"/>
       <use xlink:href="#TimesNewRomanPSMT-2e" x="50"/>
       <use xlink:href="#TimesNewRomanPSMT-30" x="75"/>
       <use xlink:href="#TimesNewRomanPSMT-30" x="125"/>
      </g>
     </g>
    </g>
    <g id="ytick_2">
     <g id="line2d_7">
      <path d="M 35.2 40.615386 
L 126.885 40.615386 
" clip-path="url(#p82b4366a09)" style="fill: none; stroke: #b0b0b0; stroke-opacity: 0.3; stroke-width: 0.8; stroke-linecap: square"/>
     </g>
     <g id="line2d_8">
      <g>
       <use xlink:href="#m96e3b79bfb" x="35.2" y="40.615386" style="stroke: #000000; stroke-width: 0.8"/>
      </g>
     </g>
     <g id="text_4">
      <!-- 0.25 -->
      <g transform="translate(7.2 44.781636) scale(0.12 -0.12)">
       <defs>
        <path id="TimesNewRomanPSMT-35" d="M 2778 4238 
L 2534 3706 
L 1259 3706 
L 981 3138 
Q 1809 3016 2294 2522 
Q 2709 2097 2709 1522 
Q 2709 1188 2573 903 
Q 2438 619 2231 419 
Q 2025 219 1772 97 
Q 1413 -75 1034 -75 
Q 653 -75 479 54 
Q 306 184 306 341 
Q 306 428 378 495 
Q 450 563 559 563 
Q 641 563 702 538 
Q 763 513 909 409 
Q 1144 247 1384 247 
Q 1750 247 2026 523 
Q 2303 800 2303 1197 
Q 2303 1581 2056 1914 
Q 1809 2247 1375 2428 
Q 1034 2569 447 2591 
L 1259 4238 
L 2778 4238 
z
" transform="scale(0.015625)"/>
       </defs>
       <use xlink:href="#TimesNewRomanPSMT-30"/>
       <use xlink:href="#TimesNewRomanPSMT-2e" x="50"/>
       <use xlink:href="#TimesNewRomanPSMT-32" x="75"/>
       <use xlink:href="#TimesNewRomanPSMT-35" x="125"/>
      </g>
     </g>
    </g>
    <g id="ytick_3">
     <g id="line2d_9">
      <path d="M 35.2 13.359863 
L 126.885 13.359863 
" clip-path="url(#p82b4366a09)" style="fill: none; stroke: #b0b0b0; stroke-opacity: 0.3; stroke-width: 0.8; stroke-linecap: square"/>
     </g>
     <g id="line2d_10">
      <g>
       <use xlink:href="#m96e3b79bfb" x="35.2" y="13.359863" style="stroke: #000000; stroke-width: 0.8"/>
      </g>
     </g>
     <g id="text_5">
      <!-- 0.50 -->
      <g transform="translate(7.2 17.526113) scale(0.12 -0.12)">
       <use xlink:href="#TimesNewRomanPSMT-30"/>
       <use xlink:href="#TimesNewRomanPSMT-2e" x="50"/>
       <use xlink:href="#TimesNewRomanPSMT-35" x="75"/>
       <use xlink:href="#TimesNewRomanPSMT-30" x="125"/>
      </g>
     </g>
    </g>
   </g>
   <g id="line2d_11">
    <path d="M 39.3675 66.053838 
L 42.495901 13.359863 
L 52.930861 13.359863 
L 53.033432 15.176934 
L 53.242775 13.359863 
L 55.956007 13.359863 
L 58.667482 60.602733 
L 58.979736 55.652694 
L 60.023513 38.120524 
L 61.587913 64.971358 
L 64.091547 51.93406 
L 64.299781 51.504949 
L 65.237757 51.465592 
L 66.177772 51.180281 
L 67.116234 50.645091 
L 67.429467 50.328927 
L 67.533797 50.170736 
L 67.742583 50.318134 
L 68.158662 49.473649 
L 68.368398 49.26956 
L 68.576057 49.38545 
L 68.890088 48.662634 
L 69.619525 45.868943 
L 70.246097 40.615386 
L 70.558399 40.615386 
L 71.289521 27.896105 
L 73.375903 64.236876 
L 73.583336 60.833533 
L 73.79319 62.597183 
L 74.835173 46.308302 
L 75.044956 43.441021 
L 76.817305 13.359863 
L 87.460282 13.359863 
L 88.398323 29.713177 
L 88.607679 26.079143 
L 90.068182 51.517595 
L 90.484457 44.721158 
L 90.901294 37.452982 
L 92.467164 63.403402 
L 94.760368 51.517268 
L 95.491748 51.430814 
L 96.116377 51.175702 
L 96.847975 50.555475 
L 97.160342 50.194394 
L 97.369489 49.955963 
L 97.681656 49.643178 
L 98.72532 47.289609 
L 98.933069 46.346023 
L 99.141783 45.12007 
L 99.247003 44.8123 
L 99.35039 43.775391 
L 99.455349 44.148901 
L 99.559622 43.749771 
L 99.767884 41.064775 
L 99.977485 40.615386 
L 100.9155 40.615386 
L 101.019502 38.798315 
L 101.12479 39.070652 
L 102.272341 19.083305 
L 103.106091 33.619547 
L 103.211473 33.201448 
L 103.941808 21.095852 
L 104.044881 20.506806 
L 104.567306 13.359863 
L 115.937085 13.359863 
L 116.041662 14.046048 
L 116.876089 27.224747 
L 118.440431 44.570053 
L 118.649274 45.402219 
L 118.753429 45.618519 
L 119.79635 51.187694 
L 120.318388 59.907935 
L 120.63127 55.420804 
L 120.839933 55.943238 
L 121.256817 61.272674 
L 121.570554 61.975648 
L 121.882757 60.063837 
L 121.987396 60.118784 
L 122.404498 60.810202 
L 122.613059 61.090389 
L 122.7175 62.419804 
L 122.7175 62.419804 
" clip-path="url(#p82b4366a09)" style="fill: none; stroke: #ff0000; stroke-opacity: 0.8; stroke-width: 2; stroke-linecap: square"/>
   </g>
   <g id="line2d_12">
    <path d="M 39.3675 67.870909 
L 39.785185 67.870909 
L 39.993237 59.925924 
L 40.097515 62.815119 
L 40.515054 49.814016 
L 40.828005 44.035736 
L 40.932288 45.480497 
L 41.140844 37.535512 
L 41.244076 37.535512 
L 41.452963 29.590527 
L 41.55797 32.413981 
L 41.662464 28.145984 
L 41.766091 31.03507 
L 42.079692 22.728894 
L 42.184039 18.756456 
L 42.287478 20.200999 
L 42.810716 11.533743 
L 42.915407 10.0892 
L 43.227357 14.422828 
L 43.332433 11.533743 
L 43.435641 13.700557 
L 43.540984 12.256123 
L 43.747817 13.700557 
L 43.852055 11.533852 
L 43.957486 15.145099 
L 44.166121 12.978394 
L 44.374775 15.145099 
L 44.582517 12.256014 
L 44.686729 12.978285 
L 44.791433 15.145099 
L 45.000905 12.978285 
L 45.103906 12.978285 
L 45.20849 14.422719 
L 45.312621 12.256123 
L 45.418128 13.700557 
L 45.521389 12.617204 
L 45.626715 14.422937 
L 45.731366 13.700666 
L 45.835383 11.533743 
L 46.044605 13.700557 
L 46.147666 12.255905 
L 46.251567 12.978285 
L 46.356847 12.256014 
L 46.565542 14.028931 
L 46.669901 12.256014 
L 46.982859 14.422828 
L 47.087264 12.256014 
L 47.19046 14.422828 
L 47.399027 11.533743 
L 47.504527 15.867371 
L 47.608737 10.811471 
L 47.816323 12.978285 
L 48.129263 14.90427 
L 48.339053 12.978285 
L 48.442244 14.422828 
L 48.547822 13.700557 
L 48.650832 15.867371 
L 48.964485 13.700557 
L 49.068153 15.145099 
L 49.173058 14.422719 
L 49.27674 15.145209 
L 49.382167 12.978503 
L 49.589738 14.422828 
L 49.799573 12.256123 
L 49.90266 12.256123 
L 50.11242 15.14499 
L 50.321195 12.617313 
L 50.52862 13.700557 
L 50.73831 12.256232 
L 50.946711 12.978503 
L 51.155831 12.978285 
L 51.262024 15.145099 
L 51.470922 13.700448 
L 51.572752 15.867371 
L 51.783821 13.700557 
L 51.886942 13.700557 
L 52.094374 14.422828 
L 52.303739 12.255905 
L 52.407528 13.372291 
L 52.513114 12.978285 
L 52.617763 13.700448 
L 52.720485 12.978285 
L 52.930861 14.422828 
L 53.139846 13.700557 
L 53.242775 13.700557 
L 53.45049 15.145099 
L 53.765483 13.339476 
L 53.973528 13.700557 
L 54.077294 12.978285 
L 54.182709 14.422719 
L 54.39069 12.256123 
L 54.704974 15.14499 
L 54.910719 12.256014 
L 55.119946 12.256123 
L 55.224818 15.145099 
L 55.433101 12.256123 
L 55.538339 14.422937 
L 55.746525 11.533743 
L 55.956007 15.14499 
L 56.058092 12.844406 
L 56.164004 12.978285 
L 56.268169 11.533852 
L 56.477675 17.311914 
L 56.580969 20.201108 
L 56.685171 18.756347 
L 56.78999 19.478728 
L 56.998633 24.534627 
L 57.102364 23.812465 
L 57.623849 39.702326 
L 57.832694 42.591411 
L 58.040062 48.369582 
L 58.14578 45.480497 
L 58.457129 50.536396 
L 58.667482 58.481381 
L 58.876029 59.203653 
L 58.979736 64.259552 
L 59.189537 59.925924 
L 59.396815 57.036839 
L 59.710872 48.369582 
L 59.81338 47.647311 
L 60.336078 36.090969 
L 60.440543 39.702326 
L 60.543673 38.980055 
L 60.753581 43.313683 
L 60.961723 50.536396 
L 61.065168 49.814125 
L 61.901533 66.426366 
L 62.108725 64.981824 
L 62.212734 64.981824 
L 62.42113 62.092738 
L 62.527047 62.81501 
L 62.94485 58.481381 
L 63.047519 59.925924 
L 63.257839 57.75911 
L 63.46569 57.75911 
L 63.777761 54.870025 
L 63.883383 52.70321 
L 64.091547 54.147753 
L 64.196115 51.258668 
L 64.299781 52.703101 
L 64.509107 49.091963 
L 64.716644 50.536396 
L 64.820629 51.258668 
L 64.925126 49.814125 
L 65.134419 50.897478 
L 65.237757 49.814125 
L 65.447476 51.258559 
L 65.655259 50.536505 
L 65.759558 51.981048 
L 65.864821 51.619749 
L 65.968105 53.425591 
L 66.072295 50.536505 
L 66.177772 50.897587 
L 66.281425 50.536505 
L 66.386474 51.980939 
L 66.490663 49.814234 
L 66.594666 51.980939 
L 66.802831 49.814234 
L 66.906855 51.258668 
L 67.012329 49.091854 
L 67.220038 51.980939 
L 67.324773 52.70321 
L 67.533797 50.536396 
L 67.63822 51.980939 
L 67.742583 51.258668 
L 67.846052 48.369582 
L 68.054393 50.536396 
L 68.158662 49.814125 
L 68.26422 49.091854 
L 68.368398 50.536396 
L 68.576057 48.369582 
L 68.680376 49.091854 
L 68.784505 49.814125 
L 68.890088 49.091854 
L 69.202997 50.536396 
L 69.619525 45.480497 
L 69.723917 46.92504 
L 70.036451 44.035954 
L 70.141911 44.758225 
L 70.349798 41.146869 
L 70.455096 41.869249 
L 70.663257 38.980055 
L 70.872284 40.424597 
L 70.975708 37.535512 
L 71.184079 38.979945 
L 71.289521 36.81324 
L 71.601402 25.25679 
L 71.810864 31.757341 
L 71.915285 31.03507 
L 72.122936 37.535512 
L 72.228397 40.290827 
L 72.331497 38.980055 
L 72.541224 45.480497 
L 72.645643 46.202877 
L 72.749935 50.536396 
L 72.958731 49.814125 
L 73.167257 58.481381 
L 73.271836 61.370576 
L 73.479187 59.925815 
L 73.583336 61.370467 
L 73.689072 67.148747 
L 73.897469 64.259661 
L 74.001761 64.259443 
L 74.106178 62.814901 
L 74.210471 58.481381 
L 74.419112 59.925924 
L 74.627972 51.98083 
L 74.731673 51.980939 
L 74.835173 47.647311 
L 75.044956 48.369582 
L 75.149331 43.313683 
L 75.252819 46.92504 
L 75.461733 45.480388 
L 75.672142 38.979945 
L 75.775266 38.980055 
L 76.088147 30.312798 
L 76.296193 25.97917 
L 76.401043 25.97917 
L 76.505399 24.173546 
L 76.609654 18.756456 
L 76.714068 20.923161 
L 76.817305 18.034294 
L 76.92179 20.92327 
L 77.131503 14.422937 
L 77.339338 10.811362 
L 77.547722 12.256014 
L 77.652318 10.089091 
L 77.862017 14.422719 
L 78.069413 12.256014 
L 78.173647 12.978285 
L 78.277794 12.978285 
L 78.383251 12.256014 
L 78.590658 12.978285 
L 78.696038 12.978285 
L 78.904791 13.700557 
L 79.008079 12.978285 
L 79.11249 14.422828 
L 79.529575 12.256014 
L 79.635124 13.339476 
L 79.843751 12.978285 
L 79.948083 14.061747 
L 80.052199 12.255905 
L 80.260148 13.700557 
L 80.572787 12.255905 
L 80.782752 14.422719 
L 80.885928 14.422828 
L 80.990048 12.911346 
L 81.094425 14.422719 
L 81.199798 10.811471 
L 81.720973 13.700557 
L 81.92962 12.978285 
L 82.03333 13.339367 
L 82.13889 12.715651 
L 82.346241 13.339367 
L 82.450754 11.533743 
L 82.660447 14.422828 
L 82.767288 12.256123 
L 82.97388 13.700666 
L 83.077554 13.339476 
L 83.182969 11.533743 
L 83.392005 14.422828 
L 83.494703 13.700557 
L 83.601179 14.422828 
L 83.80883 13.700557 
L 83.913528 15.145099 
L 84.123043 13.700557 
L 84.330558 11.533743 
L 84.435031 13.700557 
L 84.645008 12.256014 
L 84.748443 14.422828 
L 84.852295 11.533743 
L 85.060987 14.422828 
L 85.165549 12.256014 
L 85.269591 12.978285 
L 85.372955 15.145099 
L 85.580997 12.978394 
L 85.791041 15.145099 
L 85.998452 13.700448 
L 86.102539 12.978176 
L 86.311622 13.700557 
L 86.521889 12.978285 
L 86.729881 15.145099 
L 86.93832 12.978285 
L 87.042423 12.978285 
L 87.147142 11.533525 
L 87.249824 12.978394 
L 87.356154 12.122026 
L 87.562877 12.978176 
L 87.668642 12.978394 
L 87.771622 10.811471 
L 87.876193 16.950723 
L 87.980192 12.978176 
L 88.398323 19.478728 
L 88.710176 33.727152 
L 88.919037 27.062632 
L 89.44192 37.535512 
L 89.546261 38.980055 
L 89.649213 37.896702 
L 89.857784 47.647311 
L 89.963244 48.369582 
L 90.068182 47.647311 
L 90.275418 51.258668 
L 90.380466 55.592296 
L 90.589294 46.92504 
L 90.692303 50.536396 
L 91.214639 38.980055 
L 91.318007 39.341245 
L 91.528376 41.86914 
L 91.736358 46.202659 
L 92.050391 54.801232 
L 92.154706 57.75911 
L 92.256806 56.314567 
L 92.570429 62.092738 
L 92.674926 62.092738 
L 92.883493 65.704095 
L 93.40649 59.925924 
L 93.508993 59.203653 
L 93.613965 57.036839 
L 93.82305 57.75911 
L 94.031587 57.75911 
L 94.135607 54.870025 
L 94.24025 56.314567 
L 95.178977 50.536396 
L 95.283375 50.799031 
L 95.595047 49.814016 
L 95.700918 51.258559 
L 95.803751 49.814016 
L 96.116377 51.980939 
L 96.221869 50.536396 
L 96.32518 51.258668 
L 96.430398 51.124898 
L 96.534854 51.258668 
L 96.63928 52.703101 
L 96.742768 49.814125 
L 96.847975 50.897478 
L 96.952022 50.536178 
L 97.056813 51.980939 
L 97.263972 49.814125 
L 97.369489 49.814234 
L 97.472739 49.091854 
L 97.576979 50.536396 
L 97.681656 48.369582 
L 97.786772 51.258668 
L 97.994653 48.369582 
L 98.099856 49.814125 
L 98.620623 46.92504 
L 98.72532 47.647311 
L 98.829958 46.92504 
L 98.933069 47.647311 
L 99.35039 44.035954 
L 99.455349 45.480497 
L 99.559622 44.758225 
L 99.663492 41.86914 
L 99.767884 44.035954 
L 100.185866 39.702326 
L 100.498157 40.424597 
L 100.602309 38.980055 
L 100.9155 42.591411 
L 101.019502 41.86914 
L 101.12479 42.591411 
L 101.333613 37.535512 
L 101.437771 38.980055 
L 101.958561 31.03507 
L 102.167969 28.145984 
L 102.272341 26.701441 
L 102.376201 21.511663 
L 102.479984 23.090084 
L 102.688561 18.395375 
L 102.793009 19.478619 
L 102.898155 25.25679 
L 103.002945 23.090194 
L 103.211473 29.590527 
L 103.419776 34.646426 
L 103.523837 34.646644 
L 103.628183 38.257674 
L 103.836197 29.590636 
L 104.044881 28.145984 
L 104.253923 20.923379 
L 104.357678 20.92327 
L 104.463497 14.783909 
L 104.567306 15.145209 
L 104.670727 14.422719 
L 104.775709 15.86748 
L 104.983763 12.978176 
L 105.192219 11.402371 
L 105.298052 11.533743 
L 105.402284 11.533743 
L 105.609581 13.700557 
L 105.71414 12.256014 
L 105.820188 12.978285 
L 105.922538 15.867371 
L 106.027896 15.145209 
L 106.236684 11.533743 
L 106.444411 12.978285 
L 106.548527 11.533743 
L 106.861428 14.061638 
L 106.965863 13.700557 
L 107.070507 13.700557 
L 107.278692 11.533743 
L 107.488294 13.700557 
L 107.801416 12.255905 
L 108.114376 13.700557 
L 108.21873 12.978285 
L 108.322056 15.145209 
L 108.426444 12.256014 
L 108.530524 12.617204 
L 108.635957 12.255905 
L 108.739304 14.422937 
L 108.84463 12.255905 
L 108.948174 14.422719 
L 109.261338 12.978285 
L 109.365199 10.677592 
L 109.57499 12.978285 
L 109.783265 12.978285 
L 109.992128 14.422719 
L 110.095273 11.533743 
L 110.616995 14.422828 
L 110.929968 12.256014 
L 111.034132 14.422828 
L 111.242813 12.978285 
L 111.347541 12.978285 
L 111.557059 14.422828 
L 111.660912 14.061747 
L 111.869492 12.256014 
L 112.181848 16.589642 
L 112.495329 12.255905 
L 112.599675 12.05912 
L 112.703104 14.061747 
L 112.807555 12.256123 
L 113.016234 13.700557 
L 113.121 10.811471 
L 113.225651 11.533743 
L 113.330144 14.422828 
L 113.74699 12.256123 
L 113.85133 12.978285 
L 113.955756 12.256123 
L 114.163435 14.422937 
L 114.268699 12.978285 
L 114.476533 14.423046 
L 114.582376 11.533743 
L 114.685826 14.422719 
L 114.789896 11.533743 
L 114.998609 15.145209 
L 115.102949 13.872485 
L 115.207356 16.589642 
L 115.415992 12.978285 
L 115.519814 12.978394 
L 115.623928 15.145099 
L 115.728272 14.422828 
L 115.937085 12.256014 
L 116.041662 15.145099 
L 116.145768 13.700557 
L 116.25019 15.145099 
L 116.35454 13.700557 
L 116.563293 20.200999 
L 116.666942 17.311914 
L 116.771697 19.478728 
L 116.980315 26.701441 
L 117.084569 25.97917 
L 117.188537 31.75745 
L 117.293115 30.312798 
L 117.501775 33.201884 
L 117.606206 33.201884 
L 117.710039 35.368698 
L 117.814877 32.479612 
L 118.440431 41.86914 
L 118.753429 46.92504 
L 118.857927 46.925149 
L 118.961824 48.369582 
L 119.170467 46.202659 
L 119.275106 48.369582 
L 119.379528 47.647202 
L 119.483762 48.369582 
L 119.692442 50.536396 
L 119.79635 50.536396 
L 120.109347 53.425591 
L 120.63127 61.370467 
L 120.839933 56.314458 
L 121.048248 59.203653 
L 121.152622 57.036948 
L 121.361383 59.925924 
L 121.465807 59.203653 
L 121.674139 61.336125 
L 121.882757 64.259552 
L 121.987396 62.815119 
L 122.091601 63.537063 
L 122.404498 59.926033 
L 122.508858 60.648304 
L 122.7175 59.925924 
L 122.7175 59.925924 
" clip-path="url(#p82b4366a09)" style="fill: none; stroke: #0000ff; stroke-width: 2; stroke-linecap: square"/>
   </g>
   <g id="line2d_13">
    <path d="M 35.2 13.359863 
L 126.885 13.359863 
" clip-path="url(#p82b4366a09)" style="fill: none; stroke-dasharray: 3.7,1.6; stroke-dashoffset: 0; stroke: #000000; stroke-opacity: 0.7"/>
   </g>
   <g id="patch_3">
    <path d="M 35.2 70.76 
L 35.2 7.2 
" style="fill: none; stroke: #000000; stroke-width: 0.8; stroke-linejoin: miter; stroke-linecap: square"/>
   </g>
   <g id="patch_4">
    <path d="M 126.885 70.76 
L 126.885 7.2 
" style="fill: none; stroke: #000000; stroke-width: 0.8; stroke-linejoin: miter; stroke-linecap: square"/>
   </g>
   <g id="patch_5">
    <path d="M 35.2 70.76 
L 126.885 70.76 
" style="fill: none; stroke: #000000; stroke-width: 0.8; stroke-linejoin: miter; stroke-linecap: square"/>
   </g>
   <g id="patch_6">
    <path d="M 35.2 7.2 
L 126.885 7.2 
" style="fill: none; stroke: #000000; stroke-width: 0.8; stroke-linejoin: miter; stroke-linecap: square"/>
   </g>
  </g>
  <g id="axes_2">
   <g id="patch_7">
    <path d="M 159.625 70.76 
L 251.31 70.76 
L 251.31 7.2 
L 159.625 7.2 
z
" style="fill: #ffffff"/>
   </g>
   <g id="matplotlib.axis_3">
    <g id="xtick_3">
     <g id="line2d_14">
      <path d="M 163.7925 70.76 
L 163.7925 7.2 
" clip-path="url(#pce56bb40df)" style="fill: none; stroke: #b0b0b0; stroke-opacity: 0.3; stroke-width: 0.8; stroke-linecap: square"/>
     </g>
     <g id="line2d_15">
      <g>
       <use xlink:href="#m3b85b2681c" x="163.7925" y="70.76" style="stroke: #000000; stroke-width: 0.8"/>
      </g>
     </g>
     <g id="text_6">
      <!-- 0 -->
      <g transform="translate(160.7925 86.0925) scale(0.12 -0.12)">
       <use xlink:href="#TimesNewRomanPSMT-30"/>
      </g>
     </g>
    </g>
    <g id="xtick_4">
     <g id="line2d_16">
      <path d="M 226.384481 70.76 
L 226.384481 7.2 
" clip-path="url(#pce56bb40df)" style="fill: none; stroke: #b0b0b0; stroke-opacity: 0.3; stroke-width: 0.8; stroke-linecap: square"/>
     </g>
     <g id="line2d_17">
      <g>
       <use xlink:href="#m3b85b2681c" x="226.384481" y="70.76" style="stroke: #000000; stroke-width: 0.8"/>
      </g>
     </g>
     <g id="text_7">
      <!-- 20 -->
      <g transform="translate(220.384481 86.0925) scale(0.12 -0.12)">
       <use xlink:href="#TimesNewRomanPSMT-32"/>
       <use xlink:href="#TimesNewRomanPSMT-30" x="50"/>
      </g>
     </g>
    </g>
   </g>
   <g id="matplotlib.axis_4">
    <g id="ytick_4">
     <g id="line2d_18">
      <path d="M 159.625 60.166667 
L 251.31 60.166667 
" clip-path="url(#pce56bb40df)" style="fill: none; stroke: #b0b0b0; stroke-opacity: 0.3; stroke-width: 0.8; stroke-linecap: square"/>
     </g>
     <g id="line2d_19">
      <g>
       <use xlink:href="#m96e3b79bfb" x="159.625" y="60.166667" style="stroke: #000000; stroke-width: 0.8"/>
      </g>
     </g>
     <g id="text_8">
      <!-- −1 -->
      <g transform="translate(139.858125 64.332917) scale(0.12 -0.12)">
       <defs>
        <path id="TimesNewRomanPSMT-2212" d="M 3484 2000 
L 116 2000 
L 116 2256 
L 3484 2256 
L 3484 2000 
z
" transform="scale(0.015625)"/>
        <path id="TimesNewRomanPSMT-31" d="M 750 3822 
L 1781 4325 
L 1884 4325 
L 1884 747 
Q 1884 391 1914 303 
Q 1944 216 2037 169 
Q 2131 122 2419 116 
L 2419 0 
L 825 0 
L 825 116 
Q 1125 122 1212 167 
Q 1300 213 1334 289 
Q 1369 366 1369 747 
L 1369 3034 
Q 1369 3497 1338 3628 
Q 1316 3728 1258 3775 
Q 1200 3822 1119 3822 
Q 1003 3822 797 3725 
L 750 3822 
z
" transform="scale(0.015625)"/>
       </defs>
       <use xlink:href="#TimesNewRomanPSMT-2212"/>
       <use xlink:href="#TimesNewRomanPSMT-31" x="56.396484"/>
      </g>
     </g>
    </g>
    <g id="ytick_5">
     <g id="line2d_20">
      <path d="M 159.625 38.98 
L 251.31 38.98 
" clip-path="url(#pce56bb40df)" style="fill: none; stroke: #b0b0b0; stroke-opacity: 0.3; stroke-width: 0.8; stroke-linecap: square"/>
     </g>
     <g id="line2d_21">
      <g>
       <use xlink:href="#m96e3b79bfb" x="159.625" y="38.98" style="stroke: #000000; stroke-width: 0.8"/>
      </g>
     </g>
     <g id="text_9">
      <!-- 0 -->
      <g transform="translate(146.625 43.14625) scale(0.12 -0.12)">
       <use xlink:href="#TimesNewRomanPSMT-30"/>
      </g>
     </g>
    </g>
    <g id="ytick_6">
     <g id="line2d_22">
      <path d="M 159.625 17.793333 
L 251.31 17.793333 
" clip-path="url(#pce56bb40df)" style="fill: none; stroke: #b0b0b0; stroke-opacity: 0.3; stroke-width: 0.8; stroke-linecap: square"/>
     </g>
     <g id="line2d_23">
      <g>
       <use xlink:href="#m96e3b79bfb" x="159.625" y="17.793333" style="stroke: #000000; stroke-width: 0.8"/>
      </g>
     </g>
     <g id="text_10">
      <!-- 1 -->
      <g transform="translate(146.625 21.959583) scale(0.12 -0.12)">
       <use xlink:href="#TimesNewRomanPSMT-31"/>
      </g>
     </g>
    </g>
   </g>
   <g id="line2d_24">
    <path d="M 163.7925 38.98 
L 168.591121 38.98 
L 169.007517 39.757741 
L 169.216433 39.7745 
L 169.528906 39.482654 
L 169.737621 39.416191 
L 170.051715 38.993941 
L 170.260383 39.038475 
L 170.469605 39.192057 
L 170.572666 39.191083 
L 170.781847 38.418066 
L 170.990542 38.434994 
L 171.303613 37.934099 
L 171.512264 37.834267 
L 171.61546 37.686151 
L 171.824027 37.878844 
L 172.033737 38.98 
L 172.345861 39.165871 
L 172.554263 39.386297 
L 172.658525 39.377949 
L 172.972822 39.022458 
L 173.075832 39.019344 
L 173.285636 39.293711 
L 173.598058 39.414983 
L 173.807167 39.596045 
L 174.014738 39.505684 
L 174.224573 39.389835 
L 174.32766 39.382695 
L 174.53742 38.820613 
L 174.746195 38.792201 
L 175.16331 39.194896 
L 175.478554 37.77753 
L 175.580831 37.802848 
L 175.791456 37.643757 
L 175.997752 37.597697 
L 176.416127 39.168964 
L 176.728739 39.518417 
L 176.832528 39.514561 
L 177.042763 38.640462 
L 177.250448 38.656988 
L 177.355861 38.98 
L 177.564846 39.748864 
L 178.085285 39.667529 
L 178.293844 38.748366 
L 178.607709 38.777943 
L 178.81569 38.861333 
L 178.920343 38.853961 
L 179.23138 39.099874 
L 179.44018 39.169366 
L 179.649818 39.226316 
L 179.858101 39.145574 
L 180.066162 38.98 
L 180.276142 39.034937 
L 180.381007 39.132247 
L 181.631916 30.657581 
L 183.509505 42.687179 
L 184.342681 46.54239 
L 185.073301 41.685876 
L 188.724781 17.793333 
L 194.566911 17.793333 
L 198.21819 42.306349 
L 198.322469 42.286391 
L 198.426761 41.667465 
L 199.260173 46.962161 
L 199.886733 50.75038 
L 200.097142 50.010372 
L 200.200266 50.371965 
L 200.616889 48.024673 
L 200.721193 47.80073 
L 200.826043 47.840709 
L 201.242305 46.532475 
L 201.34679 46.684171 
L 201.764338 44.621183 
L 202.182362 43.859967 
L 202.287017 43.849988 
L 202.494413 43.524032 
L 202.598647 43.530388 
L 202.911804 43.064472 
L 203.121038 42.113699 
L 203.329791 41.916514 
L 203.53749 42.098953 
L 204.373083 40.965403 
L 205.415048 39.74736 
L 205.519425 39.809691 
L 205.937578 39.594964 
L 206.35462 39.510069 
L 206.56389 39.648122 
L 207.607969 39.130425 
L 207.817005 39.260956 
L 208.026179 39.228859 
L 208.9641 38.953008 
L 209.277295 38.737519 
L 209.694591 38.685505 
L 210.005997 38.681077 
L 210.110466 38.638174 
L 210.320303 38.357366 
L 210.736622 38.356159 
L 210.946889 38.438744 
L 211.154881 38.562347 
L 211.36332 38.628089 
L 211.572142 38.803367 
L 211.674824 38.816418 
L 211.885282 39.110192 
L 212.823323 45.466192 
L 213.240579 42.641289 
L 213.449604 44.053741 
L 214.700418 36.040604 
L 215.117303 35.031843 
L 215.326294 34.138974 
L 219.185368 60.166667 
L 223.984622 60.166667 
L 224.088492 59.460452 
L 224.192884 60.166667 
L 227.636473 36.861333 
L 227.739764 37.296613 
L 227.948837 36.838621 
L 228.053183 37.080298 
L 228.469881 34.654022 
L 228.782678 34.53491 
L 228.992306 34.658852 
L 230.452896 35.655537 
L 230.661684 35.889014 
L 230.766109 35.941917 
L 231.078042 35.463924 
L 231.703692 35.835305 
L 231.913294 36.005244 
L 232.226416 36.669276 
L 232.539376 36.863516 
L 233.373174 37.192227 
L 233.686338 37.786703 
L 233.790199 37.87467 
L 234.103034 37.663249 
L 234.208265 37.736067 
L 234.520273 38.677031 
L 234.625649 38.719743 
L 234.833249 38.305056 
L 235.14639 38.361286 
L 235.250812 38.228678 
L 235.982059 38.596246 
L 236.189964 38.844681 
L 236.294492 38.855634 
L 236.606848 38.324463 
L 236.7109 38.434825 
L 237.128104 38.038104 
L 237.441234 38.742158 
L 237.755144 38.998496 
L 238.06777 39.334644 
L 238.27633 39.619901 
L 238.380756 39.617909 
L 238.693699 40.574064 
L 238.901533 40.661374 
L 239.110826 40.849257 
L 239.319302 40.562136 
L 239.527949 40.117639 
L 239.632356 40.117491 
L 239.840992 39.919205 
L 240.048928 39.879056 
L 240.153272 40.150585 
L 240.362085 40.962903 
L 240.466662 40.97 
L 241.196697 39.359559 
L 241.405315 39.301656 
L 241.822531 39.383182 
L 242.031206 39.680897 
L 242.135039 39.671003 
L 242.552453 40.480313 
L 242.865431 40.841143 
L 242.969876 40.842816 
L 243.178429 39.973718 
L 243.386824 39.83895 
L 243.700106 40.973199 
L 244.22135 41.033602 
L 244.534347 42.587221 
L 244.847624 41.555133 
L 244.952018 41.458035 
L 245.05627 41.58863 
L 245.264933 41.403458 
L 245.36953 42.053613 
L 245.473248 41.976939 
L 245.681817 41.466382 
L 245.995554 41.3178 
L 246.412396 41.344241 
L 247.038059 41.102226 
L 247.1425 41.637783 
L 247.1425 41.637783 
" clip-path="url(#pce56bb40df)" style="fill: none; stroke: #ff0000; stroke-opacity: 0.8; stroke-width: 2; stroke-linecap: square"/>
   </g>
   <g id="line2d_25">
    <path d="M 163.7925 38.98 
L 164.312962 38.98 
L 164.418237 38.413998 
L 164.626959 39.545938 
L 164.940054 38.414062 
L 165.357288 38.413998 
L 165.565844 40.112004 
L 165.669076 40.111961 
L 165.773752 39.26299 
L 165.877963 39.545959 
L 165.98297 37.950942 
L 166.087464 38.414041 
L 166.191091 39.545959 
L 166.296035 38.98 
L 166.400342 39.545981 
L 166.712478 38.98 
L 166.8176 38.98 
L 166.920901 39.545981 
L 167.026287 38.98 
L 167.1307 39.545981 
L 167.340407 37.848039 
L 167.548002 40.111961 
L 167.652357 38.98 
L 167.757433 40.112004 
L 168.172817 37.282101 
L 168.277055 38.98 
L 168.486813 37.282058 
L 168.591121 38.98 
L 168.695465 38.414125 
L 168.799775 39.545938 
L 168.905023 39.262969 
L 169.007517 39.546002 
L 169.111729 37.847996 
L 169.216433 38.414062 
L 169.320308 40.677942 
L 169.425905 37.847996 
L 169.63349 40.112004 
L 169.737621 39.546065 
L 169.843128 41.809797 
L 169.946389 39.262969 
L 170.156366 40.677794 
L 170.364766 38.414062 
L 170.572666 39.545938 
L 170.676567 40.112004 
L 171.19887 37.848039 
L 171.303613 38.414041 
L 171.407859 37.848039 
L 171.512264 38.414104 
L 171.61546 40.111961 
L 171.824027 36.716056 
L 172.033737 38.414019 
L 172.136912 37.848039 
L 172.345861 40.111961 
L 172.554263 38.98 
L 172.658525 40.677899 
L 172.867244 38.98 
L 172.972822 39.545959 
L 173.075832 38.98 
L 173.285636 39.545959 
L 173.389485 38.413998 
L 173.493153 39.545938 
L 173.598058 38.98 
L 173.807167 40.111876 
L 173.911511 39.545875 
L 174.014738 40.112067 
L 174.120137 39.546002 
L 174.224573 40.677942 
L 174.32766 38.413935 
L 174.43207 40.677942 
L 174.746195 38.131029 
L 174.849983 38.98 
L 174.95362 37.282058 
L 175.371711 38.98 
L 175.478554 38.98 
L 175.580831 36.716141 
L 175.687024 38.414062 
L 175.791456 37.282058 
L 175.997752 38.98 
L 176.102182 38.98 
L 176.208821 36.150139 
L 176.416127 37.84806 
L 176.519374 36.716162 
L 176.624861 38.414041 
L 176.728739 37.282037 
L 176.938114 40.111919 
L 177.042763 40.677878 
L 177.250448 38.414041 
L 177.458432 39.545981 
L 177.564846 37.282101 
L 177.773428 40.677899 
L 177.87549 38.414041 
L 178.085285 40.677942 
L 178.190483 39.262969 
L 178.398528 40.677963 
L 178.607709 40.112004 
L 178.710818 40.11194 
L 178.81569 38.414062 
L 178.920343 39.545959 
L 179.025098 38.98 
L 179.129974 39.546065 
L 179.23138 38.98 
L 179.44018 39.546002 
L 179.544946 38.413935 
L 179.649818 39.545938 
L 179.754527 38.98 
L 179.858101 39.546065 
L 180.171525 37.848124 
L 180.381007 39.546065 
L 180.483092 38.875253 
L 180.693169 38.98 
L 180.797602 38.413998 
L 181.005969 36.716205 
L 181.110171 37.847996 
L 181.21499 36.150139 
L 181.423633 36.716056 
L 181.527364 35.018199 
L 181.631916 35.584138 
L 181.735847 31.622316 
L 181.840576 32.754192 
L 181.94504 31.622358 
L 182.465062 36.150097 
L 182.57078 30.490354 
L 182.779664 33.886153 
L 183.196912 38.98 
L 183.301029 38.98 
L 183.509505 41.24388 
L 183.718442 39.828971 
L 183.92661 42.37582 
L 184.031317 43.507824 
L 184.23838 42.37582 
L 184.342681 42.941822 
L 184.551326 44.639743 
L 184.761078 44.639743 
L 184.865543 46.337684 
L 185.073301 45.771704 
L 185.282677 42.375862 
L 185.386723 42.375841 
L 185.595238 38.98 
L 185.699538 39.545959 
L 185.80316 37.848039 
L 185.908201 39.546002 
L 186.116251 37.84806 
L 186.220399 37.848039 
L 186.429875 36.716099 
L 186.533725 36.716099 
L 186.743232 33.834776 
L 186.84613 33.320236 
L 186.952047 33.886238 
L 187.36985 29.358436 
L 187.472519 30.490397 
L 187.682839 27.660536 
L 187.993797 24.830612 
L 188.098141 25.396614 
L 188.308383 21.434792 
L 188.412435 23.698693 
L 188.934107 17.47297 
L 189.038072 18.604952 
L 189.141644 16.341051 
L 189.245629 18.038972 
L 189.350126 16.906968 
L 189.455165 17.473033 
L 189.662757 16.906968 
L 189.768478 18.038972 
L 189.872476 16.906926 
L 190.184558 18.605037 
L 190.289821 18.321919 
L 190.393105 18.604995 
L 190.497295 17.473033 
L 190.602772 18.321941 
L 190.706425 17.473033 
L 190.811474 18.604889 
L 190.915663 16.907095 
L 191.124415 18.604931 
L 191.227831 18.038993 
L 191.331855 18.038972 
L 191.437329 17.472927 
L 191.541234 18.038972 
L 191.645038 17.472991 
L 191.749773 18.038929 
L 191.854467 16.341114 
L 192.06322 18.604952 
L 192.271052 16.90701 
L 192.375193 17.473012 
L 192.479393 17.47297 
L 192.68922 18.03895 
L 192.793398 17.47297 
L 193.001057 18.03895 
L 193.105376 17.47297 
L 193.209505 18.038972 
L 193.315088 17.47297 
L 193.419214 19.17089 
L 193.523209 18.038972 
L 193.73211 18.604931 
L 193.940982 18.03895 
L 194.148917 18.03895 
L 194.357094 16.906968 
L 194.566911 18.604952 
L 194.671097 18.60491 
L 194.774798 18.038908 
L 194.983399 18.604889 
L 195.088257 18.03895 
L 195.193001 18.604952 
L 195.297284 20.868747 
L 195.400708 19.736871 
L 195.818982 24.26461 
L 195.922347 23.698714 
L 196.131497 27.660472 
L 196.235864 27.660451 
L 196.340285 27.094534 
L 196.444661 27.660557 
L 196.653397 32.083507 
L 196.756497 28.792434 
L 196.966224 31.622294 
L 197.070643 32.18836 
L 197.174935 34.452176 
L 197.279178 32.75434 
L 197.383731 33.886259 
L 197.592257 38.414041 
L 197.696836 38.414104 
L 197.800903 36.150055 
L 198.008336 39.546002 
L 198.21819 40.677963 
L 198.426761 39.545917 
L 198.531178 40.677878 
L 198.635471 39.545959 
L 198.73976 42.37582 
L 198.948494 41.809882 
L 199.469956 44.073741 
L 199.574331 46.903644 
L 199.677819 45.205681 
L 199.886733 47.46954 
L 200.200266 49.167609 
L 200.304526 51.431489 
L 200.408785 48.035542 
L 200.513147 51.431489 
L 200.616889 48.035605 
L 200.826043 49.167545 
L 201.034654 48.035669 
L 201.139068 48.601607 
L 201.242305 46.3376 
L 201.34679 48.60167 
L 201.556503 46.903601 
L 201.659572 46.442622 
L 201.764338 45.205744 
L 201.868231 46.3376 
L 202.077318 43.507866 
L 202.182362 44.073762 
L 202.287017 43.507866 
L 202.38998 44.073804 
L 202.494413 42.941864 
L 202.598647 43.50776 
L 202.702794 42.375862 
L 202.808251 42.94178 
L 203.015658 42.375862 
L 203.121038 42.375862 
L 203.225354 43.610706 
L 203.433079 41.243859 
L 203.53749 42.375862 
L 203.642714 41.809903 
L 203.747011 44.073762 
L 203.954575 41.809861 
L 204.060124 41.526892 
L 204.164461 42.375799 
L 204.477199 39.545896 
L 204.580799 41.243859 
L 204.685148 40.677942 
L 204.790479 41.243901 
L 205.103336 40.111961 
L 205.415048 40.059461 
L 205.519425 41.243859 
L 205.624798 39.545938 
L 205.832938 40.111876 
L 205.937578 38.98 
L 206.042146 40.111876 
L 206.250913 37.848124 
L 206.45833 39.262969 
L 206.667158 40.11194 
L 206.771241 39.828992 
L 206.875754 38.98 
L 206.982652 39.545938 
L 207.085447 38.98 
L 207.192288 39.545875 
L 207.294217 38.98 
L 207.39888 39.545896 
L 207.713917 38.98 
L 207.817005 37.84806 
L 207.919703 38.413998 
L 208.026179 40.11194 
L 208.23383 38.413998 
L 208.338528 38.414041 
L 208.548043 39.545959 
L 208.860031 38.414041 
L 209.070008 39.545981 
L 209.173443 38.98 
L 209.382016 40.111961 
L 209.485987 37.84806 
L 209.590549 39.545959 
L 209.694591 37.848039 
L 210.005997 38.98 
L 210.216041 38.414062 
L 210.320303 38.414125 
L 210.423452 39.545875 
L 210.527539 37.84806 
L 210.631874 38.309251 
L 210.736622 39.546002 
L 210.842493 37.847996 
L 210.946889 38.98 
L 211.154881 37.281931 
L 211.257807 38.414062 
L 211.36332 36.716141 
L 211.572142 37.847996 
L 211.674824 37.84806 
L 211.781154 39.650812 
L 211.987877 38.98 
L 212.093642 38.98 
L 212.301193 40.394909 
L 212.405192 35.584201 
L 212.613757 41.243944 
L 212.719092 41.243944 
L 212.823323 41.809861 
L 213.032679 44.639764 
L 213.240579 44.07372 
L 213.449604 41.809903 
L 213.552346 42.37582 
L 213.761163 45.205681 
L 213.971261 41.243901 
L 214.074213 42.092851 
L 214.282784 40.11194 
L 214.388244 40.677921 
L 214.493182 40.111961 
L 214.700418 37.282058 
L 214.805466 37.282079 
L 214.909457 33.886217 
L 215.117303 37.848081 
L 215.326294 35.018178 
L 215.430025 35.58418 
L 215.534695 35.018178 
L 215.639639 35.584159 
L 215.743007 33.603269 
L 215.849324 36.71612 
L 215.953376 35.584138 
L 216.370571 38.98 
L 216.475391 38.98 
L 216.579706 40.111919 
L 216.681806 38.98 
L 217.099926 42.37582 
L 217.203543 42.375862 
L 217.517815 44.073762 
L 218.038965 50.865445 
L 218.352988 50.299485 
L 218.456587 50.299485 
L 218.66525 53.695348 
L 218.978181 55.393289 
L 219.185368 57.374158 
L 219.395307 57.091147 
L 219.603977 60.486946 
L 219.708375 59.560876 
L 219.916748 60.770021 
L 220.125918 61.053096 
L 220.228751 61.053032 
L 220.333676 61.618886 
L 220.541377 60.48703 
L 220.646869 60.486946 
L 220.75018 59.921028 
L 220.855398 61.157842 
L 221.06428 59.92105 
L 221.167768 61.053053 
L 221.481813 59.35509 
L 221.688972 61.053053 
L 221.794489 59.921028 
L 222.001979 60.487051 
L 222.211772 59.92105 
L 222.316179 60.204019 
L 222.524856 59.921092 
L 222.629039 60.48703 
L 222.836561 59.921028 
L 223.045623 61.05299 
L 223.15032 59.35509 
L 223.254958 61.053032 
L 223.358069 60.48703 
L 223.566783 61.053011 
L 223.77539 59.921071 
L 223.880349 59.921071 
L 224.088492 60.48703 
L 224.402485 58.78911 
L 224.610866 59.921071 
L 224.714445 59.638059 
L 224.923157 55.959249 
L 225.131602 58.223129 
L 225.3405 54.261307 
L 225.54979 53.129346 
L 225.653245 51.431404 
L 225.758613 51.997406 
L 225.96718 50.2994 
L 226.071445 50.299485 
L 226.176228 49.733547 
L 226.280082 45.771683 
L 226.383561 47.469603 
L 226.592969 46.3376 
L 226.697341 47.469603 
L 226.904984 44.639743 
L 227.113561 43.224812 
L 227.218009 44.073804 
L 227.427945 40.111876 
L 227.636473 38.414062 
L 227.739764 38.413998 
L 228.158293 36.716099 
L 228.261197 37.282122 
L 228.366808 36.716056 
L 228.57518 37.282058 
L 228.782678 35.018136 
L 229.095727 37.847996 
L 229.200709 35.584265 
L 229.304395 36.15016 
L 229.513032 35.018157 
L 229.617219 35.89287 
L 229.827284 34.452219 
L 229.931698 34.452176 
L 230.245188 35.584159 
L 230.347538 35.584138 
L 230.556648 36.150139 
L 230.661684 35.584159 
L 230.766109 36.150139 
L 230.869411 35.584138 
L 230.973527 36.716141 
L 231.078042 36.150139 
L 231.182957 36.716099 
L 231.286428 35.867149 
L 231.390863 37.282079 
L 231.600348 35.867128 
L 231.703692 35.584159 
L 231.809342 36.150203 
L 231.913294 35.018136 
L 232.016867 35.584053 
L 232.226416 35.018199 
L 232.434537 36.716141 
L 232.539376 37.282122 
L 232.64373 36.716141 
L 232.851444 38.414125 
L 233.060957 36.150055 
L 233.164304 37.848124 
L 233.373174 35.584265 
L 233.582459 38.413935 
L 233.790199 37.177311 
L 233.99999 36.716141 
L 234.103034 37.847996 
L 234.208265 36.716141 
L 234.417128 37.847996 
L 234.520273 36.716205 
L 234.625649 37.282122 
L 234.730214 39.263033 
L 234.938769 37.282037 
L 235.041995 38.98 
L 235.14639 37.282122 
L 235.354968 39.545981 
L 235.459132 37.84806 
L 235.667813 40.11194 
L 235.772541 37.848039 
L 235.982059 38.98 
L 236.085912 38.69701 
L 236.189964 37.84806 
L 236.399004 39.545959 
L 236.606848 38.413998 
L 236.7109 38.98 
L 236.81614 37.848102 
L 236.920329 39.545959 
L 237.232555 37.282058 
L 237.336694 37.847996 
L 237.441234 37.282058 
L 237.546 39.545938 
L 237.650651 36.716056 
L 237.858382 38.413998 
L 237.963271 38.414125 
L 238.17199 37.282058 
L 238.27633 37.847996 
L 238.485163 39.546065 
L 238.588435 40.111876 
L 238.693699 38.98 
L 238.797889 39.545938 
L 238.901533 41.243859 
L 239.007376 40.111876 
L 239.214896 41.243944 
L 239.423609 40.678005 
L 239.527949 40.327599 
L 239.632356 41.809861 
L 239.840992 40.112004 
L 239.944814 41.243944 
L 240.258154 40.11194 
L 240.466662 40.677942 
L 240.570768 40.677921 
L 240.67519 39.545959 
L 240.77954 40.677921 
L 241.091942 38.98 
L 241.301089 41.243859 
L 241.405315 38.414019 
L 241.613537 40.111898 
L 241.718115 38.98 
L 241.822531 39.545959 
L 242.031206 37.848039 
L 242.135039 39.545959 
L 242.239877 38.414041 
L 242.448351 39.545981 
L 242.552453 39.546002 
L 242.761498 41.243944 
L 242.865431 42.375841 
L 243.074274 40.111898 
L 243.282927 40.677794 
L 243.386824 40.678005 
L 243.491372 37.84806 
L 243.804528 41.243859 
L 244.117442 40.11194 
L 244.22135 40.11194 
L 244.325709 39.545875 
L 244.43024 41.243859 
L 244.534347 40.11194 
L 244.743388 42.375799 
L 245.05627 41.243901 
L 245.160545 41.243944 
L 245.264933 40.11194 
L 245.473248 41.243795 
L 245.577622 40.677794 
L 245.681817 41.809861 
L 245.786383 39.546002 
L 246.203694 41.243795 
L 246.516601 40.112004 
L 246.620763 40.112004 
L 246.933858 41.243944 
L 247.1425 40.677878 
L 247.1425 40.677878 
" clip-path="url(#pce56bb40df)" style="fill: none; stroke: #0000ff; stroke-width: 2; stroke-linecap: square"/>
   </g>
   <g id="line2d_26">
    <path d="M 159.625 17.793333 
L 251.31 17.793333 
" clip-path="url(#pce56bb40df)" style="fill: none; stroke-dasharray: 7.4,3.2; stroke-dashoffset: 0; stroke: #000000; stroke-opacity: 0.7; stroke-width: 2"/>
   </g>
   <g id="line2d_27">
    <path d="M 159.625 60.166667 
L 251.31 60.166667 
" clip-path="url(#pce56bb40df)" style="fill: none; stroke-dasharray: 7.4,3.2; stroke-dashoffset: 0; stroke: #000000; stroke-opacity: 0.7; stroke-width: 2"/>
   </g>
   <g id="patch_8">
    <path d="M 159.625 70.76 
L 159.625 7.2 
" style="fill: none; stroke: #000000; stroke-width: 0.8; stroke-linejoin: miter; stroke-linecap: square"/>
   </g>
   <g id="patch_9">
    <path d="M 251.31 70.76 
L 251.31 7.2 
" style="fill: none; stroke: #000000; stroke-width: 0.8; stroke-linejoin: miter; stroke-linecap: square"/>
   </g>
   <g id="patch_10">
    <path d="M 159.625 70.76 
L 251.31 70.76 
" style="fill: none; stroke: #000000; stroke-width: 0.8; stroke-linejoin: miter; stroke-linecap: square"/>
   </g>
   <g id="patch_11">
    <path d="M 159.625 7.2 
L 251.31 7.2 
" style="fill: none; stroke: #000000; stroke-width: 0.8; stroke-linejoin: miter; stroke-linecap: square"/>
   </g>
  </g>
 </g>
 <defs>
  <clipPath id="p82b4366a09">
   <rect x="35.2" y="7.2" width="91.685" height="63.56"/>
  </clipPath>
  <clipPath id="pce56bb40df">
   <rect x="159.625" y="7.2" width="91.685" height="63.56"/>
  </clipPath>
 </defs>
</svg>
