<?xml version="1.0" encoding="utf-8" standalone="no"?>
<!DOCTYPE svg PUBLIC "-//W3C//DTD SVG 1.1//EN"
  "http://www.w3.org/Graphics/SVG/1.1/DTD/svg11.dtd">
<svg xmlns:xlink="http://www.w3.org/1999/xlink" width="489.009375pt" height="200.205pt" viewBox="0 0 489.009375 200.205" xmlns="http://www.w3.org/2000/svg" version="1.1">
 <metadata>
  <rdf:RDF xmlns:dc="http://purl.org/dc/elements/1.1/" xmlns:cc="http://creativecommons.org/ns#" xmlns:rdf="http://www.w3.org/1999/02/22-rdf-syntax-ns#">
   <cc:Work>
    <dc:type rdf:resource="http://purl.org/dc/dcmitype/StillImage"/>
    <dc:date>2026-01-18T23:30:37.221424</dc:date>
    <dc:format>image/svg+xml</dc:format>
    <dc:creator>
     <cc:Agent>
      <dc:title>Matplotlib v3.6.3, https://matplotlib.org/</dc:title>
     </cc:Agent>
    </dc:creator>
   </cc:Work>
  </rdf:RDF>
 </metadata>
 <defs>
  <style type="text/css">*{stroke-linejoin: round; stroke-linecap: butt}</style>
 </defs>
 <g id="figure_1">
  <g id="patch_1">
   <path d="M 0 200.205 
L 489.009375 200.205 
L 489.009375 -0 
L 0 -0 
z
" style="fill: #ffffff"/>
  </g>
  <g id="axes_1">
   <g id="patch_2">
    <path d="M 50.099375 160.20625 
L 235.929375 160.20625 
L 235.929375 11.36625 
L 50.099375 11.36625 
z
" style="fill: #ffffff"/>
   </g>
   <g id="matplotlib.axis_1">
    <g id="xtick_1">
     <g id="line2d_1">
      <path d="M 58.546193 160.20625 
L 58.546193 11.36625 
" clip-path="url(#p4ff0fde36e)" style="fill: none; stroke: #b0b0b0; stroke-opacity: 0.3; stroke-width: 0.8; stroke-linecap: square"/>
     </g>
     <g id="line2d_2">
      <defs>
       <path id="m533423c7d9" d="M 0 0 
L 0 3.5 
" style="stroke: #000000; stroke-width: 0.8"/>
      </defs>
      <g>
       <use xlink:href="#m533423c7d9" x="58.546193" y="160.20625" style="stroke: #000000; stroke-width: 0.8"/>
      </g>
     </g>
     <g id="text_1">
      <!-- 0 -->
      <g transform="translate(55.546193 175.53875) scale(0.12 -0.12)">
       <defs>
        <path id="TimesNewRomanPSMT-30" d="M 231 2094 
Q 231 2819 450 3342 
Q 669 3866 1031 4122 
Q 1313 4325 1613 4325 
Q 2100 4325 2488 3828 
Q 2972 3213 2972 2159 
Q 2972 1422 2759 906 
Q 2547 391 2217 158 
Q 1888 -75 1581 -75 
Q 975 -75 572 641 
Q 231 1244 231 2094 
z
M 844 2016 
Q 844 1141 1059 588 
Q 1238 122 1591 122 
Q 1759 122 1940 273 
Q 2122 425 2216 781 
Q 2359 1319 2359 2297 
Q 2359 3022 2209 3506 
Q 2097 3866 1919 4016 
Q 1791 4119 1609 4119 
Q 1397 4119 1231 3928 
Q 1006 3669 925 3112 
Q 844 2556 844 2016 
z
" transform="scale(0.015625)"/>
       </defs>
       <use xlink:href="#TimesNewRomanPSMT-30"/>
      </g>
     </g>
    </g>
    <g id="xtick_2">
     <g id="line2d_3">
      <path d="M 131.365069 160.20625 
L 131.365069 11.36625 
" clip-path="url(#p4ff0fde36e)" style="fill: none; stroke: #b0b0b0; stroke-opacity: 0.3; stroke-width: 0.8; stroke-linecap: square"/>
     </g>
     <g id="line2d_4">
      <g>
       <use xlink:href="#m533423c7d9" x="131.365069" y="160.20625" style="stroke: #000000; stroke-width: 0.8"/>
      </g>
     </g>
     <g id="text_2">
      <!-- 10 -->
      <g transform="translate(125.365069 175.53875) scale(0.12 -0.12)">
       <defs>
        <path id="TimesNewRomanPSMT-31" d="M 750 3822 
L 1781 4325 
L 1884 4325 
L 1884 747 
Q 1884 391 1914 303 
Q 1944 216 2037 169 
Q 2131 122 2419 116 
L 2419 0 
L 825 0 
L 825 116 
Q 1125 122 1212 167 
Q 1300 213 1334 289 
Q 1369 366 1369 747 
L 1369 3034 
Q 1369 3497 1338 3628 
Q 1316 3728 1258 3775 
Q 1200 3822 1119 3822 
Q 1003 3822 797 3725 
L 750 3822 
z
" transform="scale(0.015625)"/>
       </defs>
       <use xlink:href="#TimesNewRomanPSMT-31"/>
       <use xlink:href="#TimesNewRomanPSMT-30" x="50"/>
      </g>
     </g>
    </g>
    <g id="xtick_3">
     <g id="line2d_5">
      <path d="M 204.183945 160.20625 
L 204.183945 11.36625 
" clip-path="url(#p4ff0fde36e)" style="fill: none; stroke: #b0b0b0; stroke-opacity: 0.3; stroke-width: 0.8; stroke-linecap: square"/>
     </g>
     <g id="line2d_6">
      <g>
       <use xlink:href="#m533423c7d9" x="204.183945" y="160.20625" style="stroke: #000000; stroke-width: 0.8"/>
      </g>
     </g>
     <g id="text_3">
      <!-- 20 -->
      <g transform="translate(198.183945 175.53875) scale(0.12 -0.12)">
       <defs>
        <path id="TimesNewRomanPSMT-32" d="M 2934 816 
L 2638 0 
L 138 0 
L 138 116 
Q 1241 1122 1691 1759 
Q 2141 2397 2141 2925 
Q 2141 3328 1894 3587 
Q 1647 3847 1303 3847 
Q 991 3847 742 3664 
Q 494 3481 375 3128 
L 259 3128 
Q 338 3706 661 4015 
Q 984 4325 1469 4325 
Q 1984 4325 2329 3994 
Q 2675 3663 2675 3213 
Q 2675 2891 2525 2569 
Q 2294 2063 1775 1497 
Q 997 647 803 472 
L 1909 472 
Q 2247 472 2383 497 
Q 2519 522 2628 598 
Q 2738 675 2819 816 
L 2934 816 
z
" transform="scale(0.015625)"/>
       </defs>
       <use xlink:href="#TimesNewRomanPSMT-32"/>
       <use xlink:href="#TimesNewRomanPSMT-30" x="50"/>
      </g>
     </g>
    </g>
    <g id="text_4">
     <!-- $t$ [s] -->
     <g transform="translate(133.474375 190.438125) scale(0.12 -0.12)">
      <defs>
       <path id="STIXGeneral-Italic-74" d="M 1894 2739 
L 1862 2534 
L 1325 2534 
L 768 435 
Q 755 384 755 346 
Q 755 243 851 243 
Q 928 243 1030 342 
Q 1133 442 1370 749 
L 1453 704 
Q 1158 256 969 93 
Q 781 -70 538 -70 
Q 243 -70 243 166 
Q 243 230 346 640 
L 845 2534 
L 365 2534 
L 358 2573 
Q 358 2688 570 2733 
Q 730 2771 992 2979 
Q 1254 3187 1421 3437 
Q 1459 3494 1510 3494 
Q 1568 3494 1568 3443 
Q 1568 3411 1562 3398 
L 1382 2739 
L 1894 2739 
z
" transform="scale(0.015625)"/>
       <path id="TimesNewRomanPSMT-20" transform="scale(0.015625)"/>
       <path id="TimesNewRomanPSMT-5b" d="M 1900 -1269 
L 525 -1269 
L 525 4334 
L 1900 4334 
L 1900 4088 
L 994 4088 
L 994 -1025 
L 1900 -1025 
L 1900 -1269 
z
" transform="scale(0.015625)"/>
       <path id="TimesNewRomanPSMT-73" d="M 2050 2947 
L 2050 1972 
L 1947 1972 
Q 1828 2431 1642 2597 
Q 1456 2763 1169 2763 
Q 950 2763 815 2647 
Q 681 2531 681 2391 
Q 681 2216 781 2091 
Q 878 1963 1175 1819 
L 1631 1597 
Q 2266 1288 2266 781 
Q 2266 391 1970 151 
Q 1675 -88 1309 -88 
Q 1047 -88 709 6 
Q 606 38 541 38 
Q 469 38 428 -44 
L 325 -44 
L 325 978 
L 428 978 
Q 516 541 762 319 
Q 1009 97 1316 97 
Q 1531 97 1667 223 
Q 1803 350 1803 528 
Q 1803 744 1651 891 
Q 1500 1038 1047 1263 
Q 594 1488 453 1669 
Q 313 1847 313 2119 
Q 313 2472 555 2709 
Q 797 2947 1181 2947 
Q 1350 2947 1591 2875 
Q 1750 2828 1803 2828 
Q 1853 2828 1881 2850 
Q 1909 2872 1947 2947 
L 2050 2947 
z
" transform="scale(0.015625)"/>
       <path id="TimesNewRomanPSMT-5d" d="M 234 4334 
L 1609 4334 
L 1609 -1272 
L 234 -1272 
L 234 -1025 
L 1141 -1025 
L 1141 4088 
L 234 4088 
L 234 4334 
z
" transform="scale(0.015625)"/>
      </defs>
      <use xlink:href="#STIXGeneral-Italic-74" transform="translate(0 0.28125)"/>
      <use xlink:href="#TimesNewRomanPSMT-20" transform="translate(27.799988 0.28125)"/>
      <use xlink:href="#TimesNewRomanPSMT-5b" transform="translate(52.799988 0.28125)"/>
      <use xlink:href="#TimesNewRomanPSMT-73" transform="translate(86.100769 0.28125)"/>
      <use xlink:href="#TimesNewRomanPSMT-5d" transform="translate(125.016785 0.28125)"/>
     </g>
    </g>
   </g>
   <g id="matplotlib.axis_2">
    <g id="ytick_1">
     <g id="line2d_7">
      <path d="M 50.099375 153.440795 
L 235.929375 153.440795 
" clip-path="url(#p4ff0fde36e)" style="fill: none; stroke: #b0b0b0; stroke-opacity: 0.3; stroke-width: 0.8; stroke-linecap: square"/>
     </g>
     <g id="line2d_8">
      <defs>
       <path id="mc91e7edcff" d="M 0 0 
L -3.5 0 
" style="stroke: #000000; stroke-width: 0.8"/>
      </defs>
      <g>
       <use xlink:href="#mc91e7edcff" x="50.099375" y="153.440795" style="stroke: #000000; stroke-width: 0.8"/>
      </g>
     </g>
     <g id="text_5">
      <!-- 0.00 -->
      <g transform="translate(22.099375 157.607045) scale(0.12 -0.12)">
       <defs>
        <path id="TimesNewRomanPSMT-2e" d="M 800 606 
Q 947 606 1047 504 
Q 1147 403 1147 259 
Q 1147 116 1045 14 
Q 944 -88 800 -88 
Q 656 -88 554 14 
Q 453 116 453 259 
Q 453 406 554 506 
Q 656 606 800 606 
z
" transform="scale(0.015625)"/>
       </defs>
       <use xlink:href="#TimesNewRomanPSMT-30"/>
       <use xlink:href="#TimesNewRomanPSMT-2e" x="50"/>
       <use xlink:href="#TimesNewRomanPSMT-30" x="75"/>
       <use xlink:href="#TimesNewRomanPSMT-30" x="125"/>
      </g>
     </g>
    </g>
    <g id="ytick_2">
     <g id="line2d_9">
      <path d="M 50.099375 90.403716 
L 235.929375 90.403716 
" clip-path="url(#p4ff0fde36e)" style="fill: none; stroke: #b0b0b0; stroke-opacity: 0.3; stroke-width: 0.8; stroke-linecap: square"/>
     </g>
     <g id="line2d_10">
      <g>
       <use xlink:href="#mc91e7edcff" x="50.099375" y="90.403716" style="stroke: #000000; stroke-width: 0.8"/>
      </g>
     </g>
     <g id="text_6">
      <!-- 0.25 -->
      <g transform="translate(22.099375 94.569966) scale(0.12 -0.12)">
       <defs>
        <path id="TimesNewRomanPSMT-35" d="M 2778 4238 
L 2534 3706 
L 1259 3706 
L 981 3138 
Q 1809 3016 2294 2522 
Q 2709 2097 2709 1522 
Q 2709 1188 2573 903 
Q 2438 619 2231 419 
Q 2025 219 1772 97 
Q 1413 -75 1034 -75 
Q 653 -75 479 54 
Q 306 184 306 341 
Q 306 428 378 495 
Q 450 563 559 563 
Q 641 563 702 538 
Q 763 513 909 409 
Q 1144 247 1384 247 
Q 1750 247 2026 523 
Q 2303 800 2303 1197 
Q 2303 1581 2056 1914 
Q 1809 2247 1375 2428 
Q 1034 2569 447 2591 
L 1259 4238 
L 2778 4238 
z
" transform="scale(0.015625)"/>
       </defs>
       <use xlink:href="#TimesNewRomanPSMT-30"/>
       <use xlink:href="#TimesNewRomanPSMT-2e" x="50"/>
       <use xlink:href="#TimesNewRomanPSMT-32" x="75"/>
       <use xlink:href="#TimesNewRomanPSMT-35" x="125"/>
      </g>
     </g>
    </g>
    <g id="ytick_3">
     <g id="line2d_11">
      <path d="M 50.099375 27.366637 
L 235.929375 27.366637 
" clip-path="url(#p4ff0fde36e)" style="fill: none; stroke: #b0b0b0; stroke-opacity: 0.3; stroke-width: 0.8; stroke-linecap: square"/>
     </g>
     <g id="line2d_12">
      <g>
       <use xlink:href="#mc91e7edcff" x="50.099375" y="27.366637" style="stroke: #000000; stroke-width: 0.8"/>
      </g>
     </g>
     <g id="text_7">
      <!-- 0.50 -->
      <g transform="translate(22.099375 31.532887) scale(0.12 -0.12)">
       <use xlink:href="#TimesNewRomanPSMT-30"/>
       <use xlink:href="#TimesNewRomanPSMT-2e" x="50"/>
       <use xlink:href="#TimesNewRomanPSMT-35" x="75"/>
       <use xlink:href="#TimesNewRomanPSMT-30" x="125"/>
      </g>
     </g>
    </g>
    <g id="text_8">
     <!-- $v$ [m/s] -->
     <g transform="translate(15.5325 102.64625) rotate(-90) scale(0.12 -0.12)">
      <defs>
       <path id="STIXGeneral-Italic-76" d="M 1325 448 
L 1523 653 
Q 1869 1005 2134 1456 
Q 2400 1907 2400 2131 
Q 2400 2208 2285 2317 
Q 2125 2458 2125 2605 
Q 2125 2701 2195 2761 
Q 2266 2822 2368 2822 
Q 2522 2822 2624 2704 
Q 2726 2586 2726 2445 
Q 2726 2074 2323 1453 
Q 1971 909 1562 474 
Q 1504 416 1421 326 
Q 1338 237 1299 192 
Q 1261 147 1200 86 
Q 1139 26 1110 -3 
Q 1082 -32 1043 -64 
Q 1005 -96 979 -105 
Q 954 -115 928 -115 
Q 870 -115 870 58 
L 870 211 
Q 870 1094 717 1990 
Q 653 2355 579 2470 
Q 506 2586 326 2586 
Q 198 2586 128 2579 
L 128 2662 
Q 480 2720 845 2797 
Q 915 2822 973 2822 
Q 1011 2822 1033 2739 
Q 1056 2656 1165 2093 
Q 1280 1510 1325 448 
z
" transform="scale(0.015625)"/>
       <path id="TimesNewRomanPSMT-6d" d="M 1050 2338 
Q 1363 2650 1419 2697 
Q 1559 2816 1721 2881 
Q 1884 2947 2044 2947 
Q 2313 2947 2506 2790 
Q 2700 2634 2766 2338 
Q 3088 2713 3309 2830 
Q 3531 2947 3766 2947 
Q 3994 2947 4170 2830 
Q 4347 2713 4450 2447 
Q 4519 2266 4519 1878 
L 4519 647 
Q 4519 378 4559 278 
Q 4591 209 4675 161 
Q 4759 113 4950 113 
L 4950 0 
L 3538 0 
L 3538 113 
L 3597 113 
Q 3781 113 3884 184 
Q 3956 234 3988 344 
Q 4000 397 4000 647 
L 4000 1878 
Q 4000 2228 3916 2372 
Q 3794 2572 3525 2572 
Q 3359 2572 3192 2489 
Q 3025 2406 2788 2181 
L 2781 2147 
L 2788 2013 
L 2788 647 
Q 2788 353 2820 281 
Q 2853 209 2943 161 
Q 3034 113 3253 113 
L 3253 0 
L 1806 0 
L 1806 113 
Q 2044 113 2133 169 
Q 2222 225 2256 338 
Q 2272 391 2272 647 
L 2272 1878 
Q 2272 2228 2169 2381 
Q 2031 2581 1784 2581 
Q 1616 2581 1450 2491 
Q 1191 2353 1050 2181 
L 1050 647 
Q 1050 366 1089 281 
Q 1128 197 1204 155 
Q 1281 113 1516 113 
L 1516 0 
L 100 0 
L 100 113 
Q 297 113 375 155 
Q 453 197 493 289 
Q 534 381 534 647 
L 534 1741 
Q 534 2213 506 2350 
Q 484 2453 437 2492 
Q 391 2531 309 2531 
Q 222 2531 100 2484 
L 53 2597 
L 916 2947 
L 1050 2947 
L 1050 2338 
z
" transform="scale(0.015625)"/>
       <path id="TimesNewRomanPSMT-2f" d="M 1794 4444 
L 259 -88 
L 9 -88 
L 1544 4444 
L 1794 4444 
z
" transform="scale(0.015625)"/>
      </defs>
      <use xlink:href="#STIXGeneral-Italic-76" transform="translate(0 0.5625)"/>
      <use xlink:href="#TimesNewRomanPSMT-20" transform="translate(44.399994 0.5625)"/>
      <use xlink:href="#TimesNewRomanPSMT-5b" transform="translate(69.399994 0.5625)"/>
      <use xlink:href="#TimesNewRomanPSMT-6d" transform="translate(102.700775 0.5625)"/>
      <use xlink:href="#TimesNewRomanPSMT-2f" transform="translate(180.483978 0.5625)"/>
      <use xlink:href="#TimesNewRomanPSMT-73" transform="translate(208.267181 0.5625)"/>
      <use xlink:href="#TimesNewRomanPSMT-5d" transform="translate(247.183197 0.5625)"/>
     </g>
    </g>
   </g>
   <g id="line2d_13">
    <path d="M 58.546193 27.366637 
L 96.655837 27.366637 
L 96.900154 90.403716 
L 99.081351 90.403716 
L 99.327593 27.366637 
L 100.298736 27.366637 
L 100.540839 90.403716 
L 102.96445 90.403716 
L 103.210587 67.063859 
L 103.449761 90.403716 
L 121.65389 90.403716 
L 121.899657 88.468226 
L 122.141836 80.106231 
L 122.382218 60.368817 
L 122.627427 71.662036 
L 122.870056 72.292155 
L 123.110528 27.366637 
L 126.993852 27.366637 
L 127.236609 27.711323 
L 127.479396 27.366637 
L 128.210242 27.366637 
L 128.451216 30.851074 
L 128.937708 34.819384 
L 129.178552 39.797801 
L 129.424052 40.686624 
L 129.667212 46.103778 
L 129.910493 41.5583 
L 130.153216 44.547014 
L 130.63553 55.935798 
L 130.880793 56.777973 
L 131.363196 64.751911 
L 131.605824 63.538321 
L 132.091905 73.400094 
L 132.334908 71.471664 
L 132.577483 65.773868 
L 132.819542 76.447307 
L 133.065682 80.718951 
L 133.305857 54.409796 
L 133.547448 66.212354 
L 134.033658 46.161016 
L 134.275726 29.089818 
L 134.518801 27.366637 
L 153.943538 27.366637 
L 154.181783 90.403716 
L 156.125831 90.403716 
L 156.366158 27.366637 
L 157.098134 27.366637 
L 157.340379 90.403716 
L 159.038915 90.403716 
L 159.27823 27.366637 
L 159.766081 27.366637 
L 160.006287 90.403716 
L 179.911454 90.403716 
L 180.153978 79.341465 
L 180.397446 85.666353 
L 180.639913 79.731286 
L 181.125175 30.750719 
L 181.365314 27.366637 
L 185.008663 27.366637 
L 185.734448 33.551331 
L 185.979874 40.125342 
L 186.21979 41.246897 
L 186.46514 43.6181 
L 186.948071 50.494437 
L 187.190953 58.863996 
L 187.433555 60.611132 
L 187.679634 61.116437 
L 187.920592 68.527328 
L 188.164445 67.380557 
L 188.404643 69.355383 
L 188.890739 81.757046 
L 189.135289 81.540451 
L 189.375451 81.086836 
L 189.86226 90.403716 
L 191.804906 90.403716 
L 192.048741 84.380901 
L 192.289109 74.035508 
L 192.532509 72.687019 
L 192.773447 66.300102 
L 193.016928 50.72717 
L 193.261251 49.564514 
L 193.501688 27.366637 
L 215.347435 27.366637 
L 215.590133 28.442554 
L 216.803582 45.286061 
L 217.047108 49.238234 
L 217.288028 55.273656 
L 217.530698 57.041972 
L 218.017133 62.929635 
L 218.259668 64.371672 
L 218.744472 69.479692 
L 218.988502 71.609085 
L 219.474762 78.230247 
L 219.959179 81.415637 
L 220.200777 86.285882 
L 221.414099 94.638295 
L 221.900035 98.067512 
L 222.143176 101.306105 
L 222.871604 105.820568 
L 223.355802 113.468983 
L 223.841832 117.217672 
L 224.085486 122.53195 
L 224.81226 125.280871 
L 225.055442 122.224329 
L 225.783887 124.450295 
L 226.026686 122.543801 
L 226.268969 123.004981 
L 227.240329 126.273075 
L 227.482557 128.10468 
L 227.482557 128.10468 
" clip-path="url(#p4ff0fde36e)" style="fill: none; stroke: #ff0000; stroke-opacity: 0.8; stroke-linecap: square"/>
   </g>
   <g id="line2d_14">
    <path d="M 58.546193 153.440795 
L 59.517437 153.440795 
L 59.760455 149.264715 
L 60.002757 138.406452 
L 60.24638 145.08813 
L 60.487608 138.406452 
L 60.728525 125.042843 
L 60.974117 125.042339 
L 61.215105 118.360661 
L 61.456883 116.690178 
L 61.700013 104.9968 
L 61.94275 104.9968 
L 62.187963 97.479502 
L 62.671268 91.633191 
L 62.915693 88.291974 
L 63.158402 81.610296 
L 63.40189 78.26933 
L 63.642204 68.246183 
L 63.886536 64.904965 
L 64.129718 56.552804 
L 64.371814 59.894022 
L 64.612182 51.541357 
L 64.858068 56.552804 
L 65.097603 43.188944 
L 66.06861 24.813635 
L 66.312901 26.484118 
L 66.554918 23.143152 
L 66.798812 24.813635 
L 67.283306 21.47267 
L 67.528084 23.143152 
L 68.013885 31.495565 
L 68.254536 24.813635 
L 68.496517 24.813635 
L 68.741531 31.495565 
L 68.985 26.484118 
L 69.227056 31.495565 
L 69.467797 24.358003 
L 69.712566 24.813635 
L 69.954202 24.813383 
L 70.196419 26.48437 
L 70.440793 26.48437 
L 70.92592 29.825083 
L 71.411266 26.483865 
L 71.654179 23.143152 
L 71.897167 26.48437 
L 72.14019 24.813635 
L 72.380544 29.824831 
L 72.623392 26.484118 
L 72.866932 26.484622 
L 73.108007 24.813887 
L 73.352517 26.484118 
L 73.593689 24.813131 
L 73.83916 29.824831 
L 74.081537 26.484118 
L 74.567041 26.483865 
L 74.806971 28.1546 
L 75.049786 28.1546 
L 75.292552 31.495565 
L 75.537646 28.1546 
L 75.778335 27.319233 
L 76.02079 29.825083 
L 76.266544 29.825083 
L 76.507721 26.484118 
L 76.751928 24.813635 
L 76.994352 24.813635 
L 77.234591 23.514315 
L 77.479965 29.825083 
L 77.722866 33.166048 
L 77.964073 24.813635 
L 78.205368 26.484118 
L 78.693025 26.484118 
L 78.933258 28.1546 
L 79.178358 26.483865 
L 79.66718 29.825083 
L 79.90551 28.1546 
L 80.389701 34.836531 
L 80.878245 23.143152 
L 81.119032 24.813635 
L 81.362662 28.989968 
L 81.846189 24.813887 
L 82.33179 28.1546 
L 82.574512 28.154348 
L 82.817485 24.813635 
L 83.062783 27.319485 
L 83.302537 26.484118 
L 83.547766 24.503997 
L 83.788793 25.649002 
L 84.031201 24.813887 
L 84.275583 26.48437 
L 84.516434 33.166048 
L 84.758896 24.813887 
L 85.244379 28.1546 
L 85.493086 26.484118 
L 85.732218 26.483865 
L 85.975345 29.825083 
L 86.221828 26.483865 
L 86.460444 28.1546 
L 86.702791 26.484118 
L 87.188165 28.1546 
L 87.43595 26.484118 
L 87.676134 29.825083 
L 87.919188 29.825083 
L 88.162694 28.154348 
L 88.406951 29.825083 
L 88.648786 26.484118 
L 88.892705 26.484118 
L 89.373066 29.825083 
L 89.618979 26.484118 
L 89.862388 28.1546 
L 90.103761 24.813635 
L 90.343779 24.813635 
L 90.586628 28.914071 
L 90.831107 29.825083 
L 91.073705 24.813635 
L 91.317297 26.484118 
L 91.559521 26.484118 
L 91.800498 29.825083 
L 92.045643 26.484118 
L 92.291167 26.484118 
L 92.531379 27.395129 
L 92.770947 26.483865 
L 93.257461 29.825083 
L 93.499081 26.48437 
L 93.741316 26.483865 
L 93.988242 31.495565 
L 94.471608 26.48437 
L 94.715952 29.825083 
L 94.959128 26.483865 
L 95.198119 28.1546 
L 95.440413 28.1546 
L 95.68437 26.483865 
L 95.929561 26.484118 
L 96.173733 29.825083 
L 96.412268 26.483865 
L 96.655837 28.989715 
L 96.900154 28.154096 
L 97.143676 24.813887 
L 97.626251 31.495565 
L 97.867701 28.1546 
L 98.111172 39.847726 
L 98.356936 41.518461 
L 98.842981 46.530413 
L 99.081351 53.211839 
L 99.566477 71.5874 
L 99.809138 68.246183 
L 100.05451 71.586644 
L 100.540839 66.5757 
L 100.783759 56.553057 
L 101.02269 54.882322 
L 101.268673 54.882574 
L 101.508459 49.870874 
L 101.750713 53.211839 
L 101.993463 58.223287 
L 102.237307 69.081298 
L 102.96445 84.951009 
L 103.210587 94.974156 
L 103.449761 94.973904 
L 103.692641 91.632939 
L 104.178505 98.31487 
L 104.420513 96.644387 
L 104.664687 91.632939 
L 104.908988 89.962457 
L 105.392325 89.962457 
L 105.637634 91.632939 
L 105.876848 92.189683 
L 106.120261 91.632939 
L 106.366197 96.644387 
L 106.607984 91.632939 
L 106.852031 93.303422 
L 107.090604 91.632939 
L 107.335118 91.632939 
L 107.578747 86.621491 
L 107.818362 89.962457 
L 108.3036 89.962457 
L 108.546392 91.632939 
L 108.792144 88.292226 
L 109.034337 89.962457 
L 109.763269 89.962457 
L 110.002776 84.950757 
L 110.247806 90.797572 
L 110.488886 91.632939 
L 110.730824 88.292226 
L 110.974243 88.291974 
L 111.218191 91.632939 
L 111.46109 93.303422 
L 111.701878 89.962709 
L 111.946868 91.632939 
L 112.189629 89.962709 
L 112.43252 91.323553 
L 112.677697 89.962457 
L 113.402467 89.962204 
L 113.643868 93.303422 
L 113.886462 89.962204 
L 114.131861 88.291974 
L 114.374495 91.632939 
L 114.857266 88.291974 
L 115.102817 90.797824 
L 115.345371 91.632939 
L 115.585883 88.140181 
L 115.828205 90.797572 
L 116.070901 86.621491 
L 116.316094 89.962204 
L 116.559262 88.291974 
L 116.799098 90.333619 
L 117.041681 89.962457 
L 117.28635 88.291974 
L 117.527241 89.127089 
L 117.772307 91.632939 
L 118.25849 88.291974 
L 118.501234 94.973904 
L 118.741264 89.962457 
L 118.984441 91.632939 
L 119.226587 89.962457 
L 119.470227 89.962457 
L 119.714782 91.632939 
L 120.440229 91.632939 
L 120.928103 93.303422 
L 121.170879 88.291974 
L 121.415799 91.632939 
L 121.65389 91.632687 
L 121.899657 93.303422 
L 122.141836 91.632939 
L 122.382218 88.291974 
L 122.627427 91.632939 
L 122.870056 93.30317 
L 123.355787 76.598344 
L 123.840503 69.916917 
L 124.081251 61.564252 
L 124.327597 59.893517 
L 124.566604 53.212091 
L 124.809691 41.518209 
L 125.052116 43.188944 
L 125.295938 43.188944 
L 125.538592 31.495565 
L 125.780259 39.847978 
L 126.024936 33.1663 
L 126.268096 31.495565 
L 126.508347 21.47267 
L 126.993852 21.47267 
L 127.236609 26.484118 
L 127.479396 26.484118 
L 127.725297 24.813383 
L 127.967921 31.49607 
L 128.210242 28.1546 
L 128.451216 28.1546 
L 128.692994 27.319485 
L 128.937708 23.143152 
L 129.178552 28.1546 
L 129.424052 26.48437 
L 129.667212 33.166048 
L 129.910493 31.495565 
L 130.63553 46.529909 
L 130.880793 47.643648 
L 131.363196 56.552804 
L 131.605824 56.552804 
L 132.091905 68.246183 
L 132.334908 68.246183 
L 132.577483 64.905217 
L 132.819542 74.928113 
L 133.065682 79.939561 
L 133.305857 64.905217 
L 133.547448 76.598596 
L 134.033658 69.916665 
L 134.275726 64.905217 
L 134.518801 64.905217 
L 134.761297 59.89377 
L 135.006624 58.223287 
L 135.249883 48.200391 
L 135.49122 46.529909 
L 135.977686 33.166048 
L 136.218332 29.825083 
L 136.461346 23.143152 
L 136.946586 24.813635 
L 137.191654 24.813383 
L 137.432161 23.143152 
L 137.674185 19.802187 
L 137.919331 26.484118 
L 138.162165 28.1546 
L 138.405233 26.484118 
L 138.647847 23.143152 
L 138.889183 28.1546 
L 139.130414 26.484118 
L 139.619563 33.1663 
L 139.858597 33.166048 
L 140.104857 28.1546 
L 140.344066 29.825335 
L 140.590835 28.1546 
L 140.832165 28.1546 
L 141.07221 29.825335 
L 141.315092 28.154852 
L 141.558021 25.493931 
L 142.043102 31.495565 
L 142.531708 24.813887 
L 142.77647 28.1546 
L 143.021476 26.484118 
L 143.260446 26.483865 
L 143.502176 28.154348 
L 143.750964 26.483865 
L 144.231274 28.1546 
L 144.476329 31.495565 
L 144.719123 28.1546 
L 144.962064 31.495818 
L 145.205967 26.484118 
L 145.448919 24.813887 
L 145.688643 26.484118 
L 145.933707 29.825083 
L 146.172235 28.1546 
L 146.41482 29.825083 
L 146.66284 24.813635 
L 146.902654 28.1546 
L 147.146583 29.825083 
L 147.386205 28.1546 
L 147.629903 28.1546 
L 147.870907 24.813635 
L 148.118652 28.1546 
L 148.357246 28.1546 
L 148.599697 33.166048 
L 148.846894 28.1546 
L 149.087069 28.1546 
L 149.330918 29.825083 
L 149.812622 26.484118 
L 150.055235 28.1546 
L 150.540968 28.1546 
L 150.784046 26.48437 
L 151.026893 26.48437 
L 151.271552 29.824578 
L 151.511399 26.48437 
L 151.754127 24.813887 
L 151.996899 28.989968 
L 152.239778 26.484118 
L 152.485478 26.483865 
L 152.972214 29.824831 
L 153.211985 26.484118 
L 153.452817 28.154852 
L 153.699765 26.484118 
L 153.943538 28.913819 
L 154.181783 26.484118 
L 154.670478 26.483865 
L 154.913695 33.165544 
L 155.153027 32.330681 
L 155.400359 34.836531 
L 155.642829 34.836531 
L 155.880618 39.847978 
L 156.125831 40.219141 
L 156.366158 63.234987 
L 156.608028 59.89377 
L 156.850849 76.598596 
L 157.340379 56.552552 
L 157.583459 58.223287 
L 157.823077 51.541357 
L 158.064876 59.89377 
L 158.554295 59.89377 
L 158.795205 68.246183 
L 159.038915 63.234735 
L 159.27823 79.939561 
L 159.520841 84.951009 
L 159.766081 86.621491 
L 160.006287 78.269078 
L 160.249031 78.269078 
L 160.495104 81.610043 
L 160.734293 78.269078 
L 160.979392 84.951009 
L 161.219662 79.939561 
L 161.464065 83.280526 
L 161.707004 88.291974 
L 161.949977 83.280526 
L 162.19031 96.644387 
L 162.679218 96.644387 
L 162.921969 91.632939 
L 163.161377 94.973904 
L 163.650353 91.632939 
L 163.892337 93.303422 
L 164.133692 89.962457 
L 164.377985 89.962457 
L 164.621128 93.303422 
L 164.866262 92.468054 
L 165.104389 93.303422 
L 165.345847 93.303422 
L 165.589715 90.797824 
L 165.831379 89.962204 
L 166.074935 91.632939 
L 166.562027 88.291974 
L 166.802338 91.632939 
L 167.04447 93.303422 
L 167.289561 89.962204 
L 167.5323 88.291974 
L 168.016507 91.632939 
L 168.257803 91.632939 
L 168.503487 88.292226 
L 168.743362 90.797572 
L 168.986032 89.962457 
L 169.233647 88.140181 
L 169.471288 91.632939 
L 169.714875 88.291722 
L 170.201563 88.291974 
L 170.445181 90.797572 
L 170.686804 88.291722 
L 170.927723 91.632939 
L 171.172206 89.127089 
L 171.414854 91.632939 
L 171.89889 91.632939 
L 172.142227 89.962457 
L 172.3845 93.303422 
L 172.629568 89.962457 
L 172.871645 89.962457 
L 173.115494 88.291974 
L 173.357588 89.962457 
L 173.601505 89.127341 
L 173.84055 89.962457 
L 174.085759 91.632939 
L 174.328358 91.632939 
L 174.571217 89.962457 
L 174.814014 93.303422 
L 175.054277 89.962457 
L 175.297452 88.291974 
L 175.782774 91.632939 
L 176.025184 89.962457 
L 176.510955 89.962457 
L 176.753283 91.632939 
L 177.242964 88.292226 
L 177.481864 88.291974 
L 177.724461 91.632687 
L 177.967409 93.303422 
L 178.211168 91.632687 
L 178.453342 89.127341 
L 178.697849 93.303422 
L 178.940599 89.962204 
L 179.181408 89.962204 
L 179.424652 91.632939 
L 179.6661 91.632939 
L 179.911454 89.653071 
L 180.153978 86.621743 
L 180.397446 91.633191 
L 180.639913 91.632939 
L 180.879849 88.291974 
L 181.125175 86.621491 
L 181.365314 83.280526 
L 181.608061 84.951261 
L 181.853997 74.928113 
L 182.096006 74.928365 
L 182.336275 61.564252 
L 182.579045 61.564252 
L 182.824029 49.871126 
L 183.064929 46.529909 
L 183.309802 46.529909 
L 183.550122 43.188691 
L 183.792542 34.836531 
L 184.035573 35.671646 
L 184.278209 33.166048 
L 184.521147 22.839314 
L 184.766069 23.143152 
L 185.251243 26.484118 
L 185.491681 23.143152 
L 185.734448 24.813383 
L 185.979874 33.166048 
L 186.46514 33.166048 
L 186.707223 38.177496 
L 186.948071 39.847978 
L 187.190953 48.200644 
L 187.433555 48.200139 
L 187.679634 47.890753 
L 187.920592 58.223539 
L 188.164445 56.552804 
L 188.404643 58.223287 
L 188.647233 63.234987 
L 188.890739 71.587148 
L 189.375451 71.587148 
L 189.621085 76.598596 
L 189.86226 84.950504 
L 190.103438 86.621491 
L 190.591485 98.31487 
L 190.834304 93.303674 
L 191.074895 91.632939 
L 191.316977 94.973904 
L 191.559831 91.632939 
L 191.804906 96.644387 
L 192.289109 88.291974 
L 192.532509 89.962457 
L 192.773447 88.292226 
L 193.016928 83.280526 
L 193.261251 84.951009 
L 193.501688 73.25763 
L 193.744279 74.928113 
L 193.98951 66.575952 
L 194.233634 66.5757 
L 194.473825 53.211839 
L 194.717334 49.870874 
L 194.95829 43.188691 
L 195.200997 41.518461 
L 195.445048 33.166048 
L 195.688909 34.836531 
L 195.929215 34.836783 
L 196.172248 23.1429 
L 196.417024 26.484118 
L 196.657472 28.1546 
L 196.900299 18.131705 
L 197.629752 26.484118 
L 197.870848 28.1546 
L 198.113642 33.166048 
L 198.358748 33.165796 
L 198.602465 28.1546 
L 198.842236 26.484118 
L 199.085769 26.483865 
L 199.327393 28.989968 
L 199.573035 28.1546 
L 199.812671 29.825083 
L 200.055402 28.989715 
L 200.298157 29.824831 
L 200.540824 26.48437 
L 200.783685 26.48437 
L 201.028976 29.825335 
L 201.269188 26.483865 
L 201.512724 24.813635 
L 202.240185 29.825083 
L 202.483491 25.64875 
L 202.727591 26.484118 
L 202.968151 31.495313 
L 203.21212 27.319233 
L 203.698634 31.495565 
L 203.941851 24.813635 
L 204.182216 21.47267 
L 204.667591 28.1546 
L 204.912475 28.1546 
L 205.152529 24.813383 
L 205.395173 26.484118 
L 205.638043 26.484118 
L 205.880561 28.1546 
L 206.123368 26.48437 
L 206.368268 28.1546 
L 207.338463 28.154852 
L 207.579814 25.370631 
L 207.823233 29.824831 
L 208.06524 29.825335 
L 208.311157 31.495565 
L 208.550471 26.483865 
L 209.280616 26.483865 
L 209.523222 23.1429 
L 209.765212 29.825083 
L 210.006892 26.48437 
L 210.24941 28.1546 
L 210.494585 26.484118 
L 210.7364 28.1546 
L 211.222815 28.154852 
L 211.462978 26.484118 
L 211.706718 29.825083 
L 211.949029 24.813383 
L 212.192104 26.483865 
L 212.43445 31.495565 
L 212.919263 26.329298 
L 213.163225 26.484622 
L 213.405909 28.154852 
L 213.648098 24.813635 
L 213.890203 28.1546 
L 214.376986 31.495565 
L 214.618121 24.813635 
L 214.860948 24.813635 
L 215.105099 26.48437 
L 215.347435 24.813635 
L 215.590133 24.813383 
L 216.07561 28.1546 
L 216.559776 34.836531 
L 216.803582 29.825083 
L 217.047108 41.518461 
L 217.530698 48.200391 
L 217.775525 58.223287 
L 218.017133 54.882322 
L 218.259668 58.223287 
L 218.503335 64.06985 
L 218.744472 66.5757 
L 218.988502 64.905217 
L 219.230825 66.5757 
L 219.474762 76.598596 
L 219.716231 73.25763 
L 220.200777 84.950757 
L 220.686861 78.269078 
L 220.928651 86.621491 
L 221.17221 88.291974 
L 221.414099 88.292226 
L 221.657554 89.962457 
L 221.900035 93.303422 
L 222.143176 94.973652 
L 222.3861 94.973904 
L 222.627843 99.985352 
L 222.871604 96.644387 
L 223.599337 110.007996 
L 223.841832 110.008248 
L 224.326813 116.380792 
L 224.57024 115.019696 
L 224.81226 123.372361 
L 225.055442 118.360913 
L 225.298196 125.042843 
L 225.541028 128.383556 
L 225.783887 124.207476 
L 226.026686 128.383556 
L 226.512013 128.383304 
L 226.997004 121.701626 
L 227.482557 125.042339 
L 227.482557 125.042339 
" clip-path="url(#p4ff0fde36e)" style="fill: none; stroke: #0000ff; stroke-linecap: square"/>
   </g>
   <g id="line2d_15">
    <path d="M 50.099375 27.366637 
L 235.929375 27.366637 
" clip-path="url(#p4ff0fde36e)" style="fill: none; stroke-dasharray: 3.7,1.6; stroke-dashoffset: 0; stroke: #000000; stroke-opacity: 0.7"/>
   </g>
   <g id="patch_3">
    <path d="M 50.099375 160.20625 
L 50.099375 11.36625 
" style="fill: none; stroke: #000000; stroke-width: 0.8; stroke-linejoin: miter; stroke-linecap: square"/>
   </g>
   <g id="patch_4">
    <path d="M 235.929375 160.20625 
L 235.929375 11.36625 
" style="fill: none; stroke: #000000; stroke-width: 0.8; stroke-linejoin: miter; stroke-linecap: square"/>
   </g>
   <g id="patch_5">
    <path d="M 50.099375 160.20625 
L 235.929375 160.20625 
" style="fill: none; stroke: #000000; stroke-width: 0.8; stroke-linejoin: miter; stroke-linecap: square"/>
   </g>
   <g id="patch_6">
    <path d="M 50.099375 11.36625 
L 235.929375 11.36625 
" style="fill: none; stroke: #000000; stroke-width: 0.8; stroke-linejoin: miter; stroke-linecap: square"/>
   </g>
  </g>
  <g id="axes_2">
   <g id="patch_7">
    <path d="M 295.979375 160.20625 
L 481.809375 160.20625 
L 481.809375 11.36625 
L 295.979375 11.36625 
z
" style="fill: #ffffff"/>
   </g>
   <g id="matplotlib.axis_3">
    <g id="xtick_4">
     <g id="line2d_16">
      <path d="M 304.426193 160.20625 
L 304.426193 11.36625 
" clip-path="url(#pe23be73d83)" style="fill: none; stroke: #b0b0b0; stroke-opacity: 0.3; stroke-width: 0.8; stroke-linecap: square"/>
     </g>
     <g id="line2d_17">
      <g>
       <use xlink:href="#m533423c7d9" x="304.426193" y="160.20625" style="stroke: #000000; stroke-width: 0.8"/>
      </g>
     </g>
     <g id="text_9">
      <!-- 0 -->
      <g transform="translate(301.426193 175.53875) scale(0.12 -0.12)">
       <use xlink:href="#TimesNewRomanPSMT-30"/>
      </g>
     </g>
    </g>
    <g id="xtick_5">
     <g id="line2d_18">
      <path d="M 377.245069 160.20625 
L 377.245069 11.36625 
" clip-path="url(#pe23be73d83)" style="fill: none; stroke: #b0b0b0; stroke-opacity: 0.3; stroke-width: 0.8; stroke-linecap: square"/>
     </g>
     <g id="line2d_19">
      <g>
       <use xlink:href="#m533423c7d9" x="377.245069" y="160.20625" style="stroke: #000000; stroke-width: 0.8"/>
      </g>
     </g>
     <g id="text_10">
      <!-- 10 -->
      <g transform="translate(371.245069 175.53875) scale(0.12 -0.12)">
       <use xlink:href="#TimesNewRomanPSMT-31"/>
       <use xlink:href="#TimesNewRomanPSMT-30" x="50"/>
      </g>
     </g>
    </g>
    <g id="xtick_6">
     <g id="line2d_20">
      <path d="M 450.063945 160.20625 
L 450.063945 11.36625 
" clip-path="url(#pe23be73d83)" style="fill: none; stroke: #b0b0b0; stroke-opacity: 0.3; stroke-width: 0.8; stroke-linecap: square"/>
     </g>
     <g id="line2d_21">
      <g>
       <use xlink:href="#m533423c7d9" x="450.063945" y="160.20625" style="stroke: #000000; stroke-width: 0.8"/>
      </g>
     </g>
     <g id="text_11">
      <!-- 20 -->
      <g transform="translate(444.063945 175.53875) scale(0.12 -0.12)">
       <use xlink:href="#TimesNewRomanPSMT-32"/>
       <use xlink:href="#TimesNewRomanPSMT-30" x="50"/>
      </g>
     </g>
    </g>
    <g id="text_12">
     <!-- $t$ [s] -->
     <g transform="translate(379.354375 190.438125) scale(0.12 -0.12)">
      <use xlink:href="#STIXGeneral-Italic-74" transform="translate(0 0.28125)"/>
      <use xlink:href="#TimesNewRomanPSMT-20" transform="translate(27.799988 0.28125)"/>
      <use xlink:href="#TimesNewRomanPSMT-5b" transform="translate(52.799988 0.28125)"/>
      <use xlink:href="#TimesNewRomanPSMT-73" transform="translate(86.100769 0.28125)"/>
      <use xlink:href="#TimesNewRomanPSMT-5d" transform="translate(125.016785 0.28125)"/>
     </g>
    </g>
   </g>
   <g id="matplotlib.axis_4">
    <g id="ytick_4">
     <g id="line2d_22">
      <path d="M 295.979375 160.20625 
L 481.809375 160.20625 
" clip-path="url(#pe23be73d83)" style="fill: none; stroke: #b0b0b0; stroke-opacity: 0.3; stroke-width: 0.8; stroke-linecap: square"/>
     </g>
     <g id="line2d_23">
      <g>
       <use xlink:href="#mc91e7edcff" x="295.979375" y="160.20625" style="stroke: #000000; stroke-width: 0.8"/>
      </g>
     </g>
     <g id="text_13">
      <!-- −1.5 -->
      <g transform="translate(267.2125 164.3725) scale(0.12 -0.12)">
       <defs>
        <path id="TimesNewRomanPSMT-2212" d="M 3484 2000 
L 116 2000 
L 116 2256 
L 3484 2256 
L 3484 2000 
z
" transform="scale(0.015625)"/>
       </defs>
       <use xlink:href="#TimesNewRomanPSMT-2212"/>
       <use xlink:href="#TimesNewRomanPSMT-31" x="56.396484"/>
       <use xlink:href="#TimesNewRomanPSMT-2e" x="106.396484"/>
       <use xlink:href="#TimesNewRomanPSMT-35" x="131.396484"/>
      </g>
     </g>
    </g>
    <g id="ytick_5">
     <g id="line2d_24">
      <path d="M 295.979375 135.399583 
L 481.809375 135.399583 
" clip-path="url(#pe23be73d83)" style="fill: none; stroke: #b0b0b0; stroke-opacity: 0.3; stroke-width: 0.8; stroke-linecap: square"/>
     </g>
     <g id="line2d_25">
      <g>
       <use xlink:href="#mc91e7edcff" x="295.979375" y="135.399583" style="stroke: #000000; stroke-width: 0.8"/>
      </g>
     </g>
     <g id="text_14">
      <!-- −1.0 -->
      <g transform="translate(267.2125 139.565833) scale(0.12 -0.12)">
       <use xlink:href="#TimesNewRomanPSMT-2212"/>
       <use xlink:href="#TimesNewRomanPSMT-31" x="56.396484"/>
       <use xlink:href="#TimesNewRomanPSMT-2e" x="106.396484"/>
       <use xlink:href="#TimesNewRomanPSMT-30" x="131.396484"/>
      </g>
     </g>
    </g>
    <g id="ytick_6">
     <g id="line2d_26">
      <path d="M 295.979375 110.592917 
L 481.809375 110.592917 
" clip-path="url(#pe23be73d83)" style="fill: none; stroke: #b0b0b0; stroke-opacity: 0.3; stroke-width: 0.8; stroke-linecap: square"/>
     </g>
     <g id="line2d_27">
      <g>
       <use xlink:href="#mc91e7edcff" x="295.979375" y="110.592917" style="stroke: #000000; stroke-width: 0.8"/>
      </g>
     </g>
     <g id="text_15">
      <!-- −0.5 -->
      <g transform="translate(267.2125 114.759167) scale(0.12 -0.12)">
       <use xlink:href="#TimesNewRomanPSMT-2212"/>
       <use xlink:href="#TimesNewRomanPSMT-30" x="56.396484"/>
       <use xlink:href="#TimesNewRomanPSMT-2e" x="106.396484"/>
       <use xlink:href="#TimesNewRomanPSMT-35" x="131.396484"/>
      </g>
     </g>
    </g>
    <g id="ytick_7">
     <g id="line2d_28">
      <path d="M 295.979375 85.78625 
L 481.809375 85.78625 
" clip-path="url(#pe23be73d83)" style="fill: none; stroke: #b0b0b0; stroke-opacity: 0.3; stroke-width: 0.8; stroke-linecap: square"/>
     </g>
     <g id="line2d_29">
      <g>
       <use xlink:href="#mc91e7edcff" x="295.979375" y="85.78625" style="stroke: #000000; stroke-width: 0.8"/>
      </g>
     </g>
     <g id="text_16">
      <!-- 0.0 -->
      <g transform="translate(273.979375 89.9525) scale(0.12 -0.12)">
       <use xlink:href="#TimesNewRomanPSMT-30"/>
       <use xlink:href="#TimesNewRomanPSMT-2e" x="50"/>
       <use xlink:href="#TimesNewRomanPSMT-30" x="75"/>
      </g>
     </g>
    </g>
    <g id="ytick_8">
     <g id="line2d_30">
      <path d="M 295.979375 60.979583 
L 481.809375 60.979583 
" clip-path="url(#pe23be73d83)" style="fill: none; stroke: #b0b0b0; stroke-opacity: 0.3; stroke-width: 0.8; stroke-linecap: square"/>
     </g>
     <g id="line2d_31">
      <g>
       <use xlink:href="#mc91e7edcff" x="295.979375" y="60.979583" style="stroke: #000000; stroke-width: 0.8"/>
      </g>
     </g>
     <g id="text_17">
      <!-- 0.5 -->
      <g transform="translate(273.979375 65.145833) scale(0.12 -0.12)">
       <use xlink:href="#TimesNewRomanPSMT-30"/>
       <use xlink:href="#TimesNewRomanPSMT-2e" x="50"/>
       <use xlink:href="#TimesNewRomanPSMT-35" x="75"/>
      </g>
     </g>
    </g>
    <g id="ytick_9">
     <g id="line2d_32">
      <path d="M 295.979375 36.172917 
L 481.809375 36.172917 
" clip-path="url(#pe23be73d83)" style="fill: none; stroke: #b0b0b0; stroke-opacity: 0.3; stroke-width: 0.8; stroke-linecap: square"/>
     </g>
     <g id="line2d_33">
      <g>
       <use xlink:href="#mc91e7edcff" x="295.979375" y="36.172917" style="stroke: #000000; stroke-width: 0.8"/>
      </g>
     </g>
     <g id="text_18">
      <!-- 1.0 -->
      <g transform="translate(273.979375 40.339167) scale(0.12 -0.12)">
       <use xlink:href="#TimesNewRomanPSMT-31"/>
       <use xlink:href="#TimesNewRomanPSMT-2e" x="50"/>
       <use xlink:href="#TimesNewRomanPSMT-30" x="75"/>
      </g>
     </g>
    </g>
    <g id="ytick_10">
     <g id="line2d_34">
      <path d="M 295.979375 11.36625 
L 481.809375 11.36625 
" clip-path="url(#pe23be73d83)" style="fill: none; stroke: #b0b0b0; stroke-opacity: 0.3; stroke-width: 0.8; stroke-linecap: square"/>
     </g>
     <g id="line2d_35">
      <g>
       <use xlink:href="#mc91e7edcff" x="295.979375" y="11.36625" style="stroke: #000000; stroke-width: 0.8"/>
      </g>
     </g>
     <g id="text_19">
      <!-- 1.5 -->
      <g transform="translate(273.979375 15.5325) scale(0.12 -0.12)">
       <use xlink:href="#TimesNewRomanPSMT-31"/>
       <use xlink:href="#TimesNewRomanPSMT-2e" x="50"/>
       <use xlink:href="#TimesNewRomanPSMT-35" x="75"/>
      </g>
     </g>
    </g>
    <g id="text_20">
     <!-- $\omega$ [rad/s] -->
     <g transform="translate(260.645625 107.08625) rotate(-90) scale(0.12 -0.12)">
      <defs>
       <path id="STIXGeneral-Italic-3c9" d="M 3021 2810 
L 3136 2810 
Q 3648 2810 3898 2598 
Q 4186 2355 4186 1824 
Q 4186 1357 3910 838 
Q 3667 390 3334 160 
Q 3002 -70 2669 -70 
Q 2438 -70 2281 3 
Q 2125 77 2064 160 
Q 2003 243 1939 384 
Q 1741 147 1533 38 
Q 1325 -70 998 -70 
Q 659 -70 416 160 
Q 173 390 173 832 
Q 173 1101 237 1350 
Q 403 1965 883 2387 
Q 1363 2810 2010 2810 
L 2125 2810 
L 2125 2707 
Q 1606 2707 1267 2291 
Q 1024 1990 867 1526 
Q 710 1062 710 666 
Q 710 64 1075 64 
Q 1286 64 1523 285 
Q 1760 506 1856 774 
Q 1837 915 1837 1101 
Q 1837 1363 1914 1651 
Q 1984 1920 2125 2105 
Q 2266 2291 2432 2291 
Q 2656 2291 2656 1997 
Q 2656 1530 2387 1062 
Q 2272 864 2189 736 
Q 2176 691 2176 602 
Q 2176 384 2288 224 
Q 2400 64 2592 64 
Q 3040 64 3341 627 
Q 3482 896 3565 1270 
Q 3648 1645 3648 1971 
Q 3648 2240 3616 2362 
Q 3565 2566 3411 2636 
Q 3258 2707 3021 2707 
L 3021 2810 
z
" transform="scale(0.015625)"/>
       <path id="TimesNewRomanPSMT-72" d="M 1038 2947 
L 1038 2303 
Q 1397 2947 1775 2947 
Q 1947 2947 2059 2842 
Q 2172 2738 2172 2600 
Q 2172 2478 2090 2393 
Q 2009 2309 1897 2309 
Q 1788 2309 1652 2417 
Q 1516 2525 1450 2525 
Q 1394 2525 1328 2463 
Q 1188 2334 1038 2041 
L 1038 669 
Q 1038 431 1097 309 
Q 1138 225 1241 169 
Q 1344 113 1538 113 
L 1538 0 
L 72 0 
L 72 113 
Q 291 113 397 181 
Q 475 231 506 341 
Q 522 394 522 644 
L 522 1753 
Q 522 2253 501 2348 
Q 481 2444 426 2487 
Q 372 2531 291 2531 
Q 194 2531 72 2484 
L 41 2597 
L 906 2947 
L 1038 2947 
z
" transform="scale(0.015625)"/>
       <path id="TimesNewRomanPSMT-61" d="M 1822 413 
Q 1381 72 1269 19 
Q 1100 -59 909 -59 
Q 613 -59 420 144 
Q 228 347 228 678 
Q 228 888 322 1041 
Q 450 1253 767 1440 
Q 1084 1628 1822 1897 
L 1822 2009 
Q 1822 2438 1686 2597 
Q 1550 2756 1291 2756 
Q 1094 2756 978 2650 
Q 859 2544 859 2406 
L 866 2225 
Q 866 2081 792 2003 
Q 719 1925 600 1925 
Q 484 1925 411 2006 
Q 338 2088 338 2228 
Q 338 2497 613 2722 
Q 888 2947 1384 2947 
Q 1766 2947 2009 2819 
Q 2194 2722 2281 2516 
Q 2338 2381 2338 1966 
L 2338 994 
Q 2338 584 2353 492 
Q 2369 400 2405 369 
Q 2441 338 2488 338 
Q 2538 338 2575 359 
Q 2641 400 2828 588 
L 2828 413 
Q 2478 -56 2159 -56 
Q 2006 -56 1915 50 
Q 1825 156 1822 413 
z
M 1822 616 
L 1822 1706 
Q 1350 1519 1213 1441 
Q 966 1303 859 1153 
Q 753 1003 753 825 
Q 753 600 887 451 
Q 1022 303 1197 303 
Q 1434 303 1822 616 
z
" transform="scale(0.015625)"/>
       <path id="TimesNewRomanPSMT-64" d="M 2222 322 
Q 2013 103 1813 7 
Q 1613 -88 1381 -88 
Q 913 -88 563 304 
Q 213 697 213 1313 
Q 213 1928 600 2439 
Q 988 2950 1597 2950 
Q 1975 2950 2222 2709 
L 2222 3238 
Q 2222 3728 2198 3840 
Q 2175 3953 2125 3993 
Q 2075 4034 2000 4034 
Q 1919 4034 1784 3984 
L 1744 4094 
L 2597 4444 
L 2738 4444 
L 2738 1134 
Q 2738 631 2761 520 
Q 2784 409 2836 365 
Q 2888 322 2956 322 
Q 3041 322 3181 375 
L 3216 266 
L 2366 -88 
L 2222 -88 
L 2222 322 
z
M 2222 541 
L 2222 2016 
Q 2203 2228 2109 2403 
Q 2016 2578 1861 2667 
Q 1706 2756 1559 2756 
Q 1284 2756 1069 2509 
Q 784 2184 784 1559 
Q 784 928 1059 592 
Q 1334 256 1672 256 
Q 1956 256 2222 541 
z
" transform="scale(0.015625)"/>
      </defs>
      <use xlink:href="#STIXGeneral-Italic-3c9" transform="translate(0 0.5625)"/>
      <use xlink:href="#TimesNewRomanPSMT-20" transform="translate(68.599991 0.5625)"/>
      <use xlink:href="#TimesNewRomanPSMT-5b" transform="translate(93.599991 0.5625)"/>
      <use xlink:href="#TimesNewRomanPSMT-72" transform="translate(126.900772 0.5625)"/>
      <use xlink:href="#TimesNewRomanPSMT-61" transform="translate(160.201553 0.5625)"/>
      <use xlink:href="#TimesNewRomanPSMT-64" transform="translate(204.586319 0.5625)"/>
      <use xlink:href="#TimesNewRomanPSMT-2f" transform="translate(254.586319 0.5625)"/>
      <use xlink:href="#TimesNewRomanPSMT-73" transform="translate(282.369522 0.5625)"/>
      <use xlink:href="#TimesNewRomanPSMT-5d" transform="translate(321.285538 0.5625)"/>
     </g>
    </g>
   </g>
   <g id="line2d_36">
    <path d="M 304.426193 85.78625 
L 307.336883 85.832539 
L 307.580013 85.921942 
L 308.067963 85.791956 
L 308.3093 85.874264 
L 309.522204 85.584721 
L 309.766536 85.478102 
L 310.251814 85.535752 
L 311.466018 85.570333 
L 312.192901 85.552621 
L 313.893885 85.462721 
L 314.865 85.554159 
L 315.107056 84.362099 
L 315.347797 83.832427 
L 316.320793 84.052959 
L 316.80592 83.988809 
L 317.291266 84.206561 
L 317.534179 84.279344 
L 317.777167 83.351873 
L 318.260544 83.387495 
L 318.503392 83.269614 
L 318.746932 82.382825 
L 318.988007 82.29496 
L 319.232517 82.504328 
L 319.473689 82.8864 
L 319.71916 82.94167 
L 319.961537 83.142107 
L 320.205379 82.989894 
L 320.686971 83.066894 
L 320.929786 83.772544 
L 321.172552 83.823844 
L 321.658335 84.386757 
L 322.387721 84.806536 
L 322.631928 85.0356 
L 322.874352 86.339091 
L 323.359965 86.621639 
L 323.602866 87.094157 
L 323.844073 87.181079 
L 324.085368 87.436241 
L 324.330368 88.460012 
L 324.813258 88.471324 
L 325.058358 88.183715 
L 325.78551 88.009126 
L 326.028215 87.630477 
L 327.242662 87.437729 
L 327.485506 87.566128 
L 327.971729 87.512248 
L 328.21179 87.855424 
L 328.454512 88.649485 
L 328.697485 88.769599 
L 328.942783 88.48715 
L 329.182537 87.781351 
L 329.427766 87.490369 
L 329.911201 86.477116 
L 330.155583 86.42264 
L 330.884011 86.638855 
L 331.373086 86.641485 
L 331.612218 85.37699 
L 331.855345 85.283717 
L 332.101828 85.360518 
L 332.340444 85.931121 
L 332.582791 86.07108 
L 333.068165 86.11727 
L 333.556134 86.149519 
L 333.799188 85.916981 
L 334.042694 85.051427 
L 334.286951 85.015656 
L 334.528786 85.138647 
L 335.253066 85.080649 
L 335.498979 85.963022 
L 336.223779 86.058974 
L 336.466628 86.289627 
L 336.711107 86.315823 
L 336.953705 86.158548 
L 337.197297 85.769431 
L 337.439521 85.711433 
L 337.680498 85.395545 
L 337.925643 84.39921 
L 338.411379 83.868248 
L 338.650947 83.63958 
L 339.137461 83.623605 
L 339.379081 83.828855 
L 339.868242 83.588379 
L 340.351608 84.016939 
L 340.839128 84.081139 
L 341.078119 84.161959 
L 341.320413 83.692617 
L 341.809561 83.887449 
L 342.053733 84.238463 
L 342.292268 85.260845 
L 342.535837 85.415886 
L 342.780154 50.136589 
L 343.023676 50.34819 
L 343.262426 50.129743 
L 343.506251 49.153848 
L 343.747701 50.190717 
L 343.991172 46.455578 
L 344.236936 45.869148 
L 344.722981 43.996691 
L 344.961351 41.236999 
L 345.207593 89.594768 
L 346.178736 94.634788 
L 346.420839 34.606425 
L 346.663759 39.678644 
L 346.90269 40.498604 
L 347.148673 40.563201 
L 347.388459 42.993807 
L 347.630713 41.539095 
L 347.873463 39.11464 
L 348.362597 28.885561 
L 348.605806 26.352453 
L 348.84445 20.689488 
L 349.090587 113.349235 
L 349.329761 10.368427 
L 349.572641 13.935774 
L 350.058505 6.195499 
L 350.300513 8.093953 
L 350.544687 13.806184 
L 350.788988 15.624662 
L 351.272325 15.666386 
L 351.517634 13.852573 
L 351.756848 13.225609 
L 352.000261 13.957207 
L 352.246197 8.062498 
L 352.487984 14.006175 
L 352.732031 12.152026 
L 352.970604 14.12108 
L 353.215118 14.190588 
L 353.458747 19.42152 
L 353.698362 16.152696 
L 354.1836 16.309226 
L 354.426392 14.406902 
L 354.672144 18.101508 
L 354.914337 16.465608 
L 355.155047 16.61157 
L 355.643269 17.305809 
L 355.882776 22.428436 
L 356.127806 16.820343 
L 356.368886 16.098767 
L 356.610824 19.943254 
L 356.854243 20.137689 
L 357.098191 16.821087 
L 357.34109 15.054902 
L 357.581878 18.997426 
L 357.826868 17.424187 
L 358.069629 19.529033 
L 358.31252 18.653853 
L 358.557697 20.595223 
L 358.797352 21.158731 
L 359.282467 21.604209 
L 359.523868 18.049464 
L 359.766462 22.125447 
L 360.011861 24.329073 
L 360.254495 21.050822 
L 360.737266 25.555663 
L 360.982817 23.310213 
L 361.225371 22.54855 
L 361.465883 27.161101 
L 361.708205 24.790626 
L 361.950901 29.764908 
L 362.196094 26.648595 
L 362.439262 29.908638 
L 362.679098 29.412207 
L 362.921681 30.832488 
L 363.16635 33.502876 
L 363.407241 34.261861 
L 363.652307 32.35393 
L 364.13849 39.680083 
L 364.381234 33.999357 
L 364.621264 41.776296 
L 364.864441 39.876701 
L 365.106587 43.683482 
L 365.350227 44.716829 
L 365.594782 44.188298 
L 366.07881 45.959345 
L 366.320229 44.577018 
L 366.562771 44.57811 
L 366.808103 45.894401 
L 367.050879 53.806488 
L 367.295799 52.376482 
L 367.53389 57.156082 
L 367.779657 58.223265 
L 368.750056 58.223265 
L 368.990528 64.573176 
L 369.235787 75.446186 
L 370.207597 95.691701 
L 370.689691 100.855159 
L 370.932116 101.49656 
L 371.175938 99.766345 
L 371.418592 101.736837 
L 371.660259 107.894795 
L 371.904936 108.576829 
L 372.388347 110.729601 
L 373.116609 113.349235 
L 373.359396 113.089658 
L 373.605297 111.679796 
L 373.847921 112.965575 
L 374.331216 113.349235 
L 380.155726 113.349235 
L 380.398801 112.900086 
L 381.129883 102.319447 
L 381.37122 101.349556 
L 382.341346 90.461364 
L 382.826586 88.256547 
L 383.554185 86.428296 
L 384.285233 85.200813 
L 385.010414 84.176248 
L 385.257176 83.869042 
L 385.499563 83.271648 
L 385.984857 83.050968 
L 386.470835 82.951543 
L 386.712165 82.934525 
L 386.95221 82.743315 
L 387.438021 82.765741 
L 387.680447 82.851621 
L 387.923102 83.530084 
L 388.411708 83.691476 
L 388.65647 83.388735 
L 389.140446 83.47149 
L 389.382176 84.305739 
L 390.111274 84.475466 
L 390.599123 84.913006 
L 390.842064 84.932057 
L 391.568643 85.477209 
L 392.052235 85.500973 
L 392.29482 85.930079 
L 393.026583 85.948783 
L 393.266205 86.541762 
L 393.750907 86.510605 
L 393.998652 86.353727 
L 394.237246 86.027867 
L 394.726894 85.952901 
L 394.967069 85.880515 
L 395.210918 85.288777 
L 395.692622 85.283717 
L 395.935235 85.206369 
L 396.178075 85.796768 
L 397.634127 85.852881 
L 397.876899 85.815026 
L 398.119778 85.968629 
L 398.852214 85.960194 
L 399.091985 85.373368 
L 399.579765 85.339581 
L 399.823538 85.2859 
L 400.061783 121.22178 
L 400.550478 121.157431 
L 400.793695 122.902729 
L 401.033027 122.612888 
L 401.280359 123.391767 
L 401.522829 123.36448 
L 401.760618 125.070534 
L 402.005831 125.191541 
L 402.246158 83.268373 
L 402.488028 83.095917 
L 402.730849 80.702024 
L 402.978134 79.82104 
L 403.220379 131.899263 
L 403.463459 132.708556 
L 403.703077 129.51956 
L 403.944876 133.538488 
L 404.434295 133.477216 
L 404.675205 138.228089 
L 404.918915 135.200386 
L 405.15823 68.823898 
L 405.646081 63.364695 
L 405.886287 145.216077 
L 406.129031 145.221039 
L 406.375104 147.962275 
L 406.614293 145.21315 
L 406.859392 150.962244 
L 407.099662 146.563328 
L 407.344065 149.466501 
L 407.587004 154.318983 
L 407.829977 149.444622 
L 408.07031 164.054409 
L 408.559218 164.244726 
L 408.801969 158.072033 
L 409.041377 162.187658 
L 409.530353 158.069255 
L 409.772337 160.079885 
L 410.013692 156.169511 
L 410.257985 156.169163 
L 410.501128 160.051059 
L 410.746262 159.03483 
L 410.984389 160.019803 
L 411.225847 159.940074 
L 411.469715 156.982425 
L 411.711379 156.024838 
L 411.954935 157.852197 
L 412.442027 154.04864 
L 412.682338 157.593562 
L 412.92447 159.481201 
L 413.169561 155.565518 
L 413.4123 153.713055 
L 413.653087 155.059313 
L 413.896507 157.330512 
L 414.137803 157.254058 
L 414.383487 153.478533 
L 414.623362 156.061056 
L 414.866032 155.09692 
L 415.113647 153.04263 
L 415.351288 156.803718 
L 415.594875 152.890764 
L 416.081563 152.449205 
L 416.325181 155.007517 
L 416.566804 152.173752 
L 416.807723 155.754148 
L 417.052206 152.102458 
L 417.294854 154.744913 
L 417.77889 154.045961 
L 418.022227 151.722221 
L 418.2645 155.690643 
L 418.509568 151.395418 
L 418.751645 151.083152 
L 418.995494 148.477559 
L 419.237588 150.03631 
L 419.481505 148.708013 
L 419.72055 148.89704 
L 419.965759 150.365445 
L 420.208358 149.838849 
L 420.451217 147.137106 
L 420.694014 151.750402 
L 421.177452 143.545249 
L 421.662774 146.800727 
L 421.905184 143.331217 
L 422.390955 140.963917 
L 422.633283 142.33781 
L 423.361864 133.522463 
L 423.847409 137.752744 
L 424.333342 127.235263 
L 424.577849 131.138344 
L 424.820599 124.194164 
L 425.061408 122.34577 
L 425.304652 122.919895 
L 425.5461 120.584397 
L 425.791454 115.415928 
L 426.033978 113.349235 
L 427.005175 113.349235 
L 427.245314 106.44807 
L 427.488061 106.457496 
L 427.733997 90.618241 
L 427.976006 87.621894 
L 428.216275 78.975828 
L 428.704029 72.054172 
L 429.915573 62.452653 
L 430.646069 59.763809 
L 431.131243 58.223265 
L 435.501085 58.223265 
L 435.983438 56.775598 
L 436.228512 54.303613 
L 436.471485 50.581472 
L 436.714304 54.667874 
L 436.954895 56.785272 
L 437.196977 55.653195 
L 437.439831 58.223265 
L 437.684906 56.016117 
L 437.928741 58.223265 
L 439.141251 58.223265 
L 439.381688 61.722692 
L 439.624279 62.960892 
L 439.86951 67.97551 
L 440.113634 69.270567 
L 440.353825 74.122602 
L 441.325048 80.440066 
L 441.568909 81.212149 
L 442.052248 84.161711 
L 443.268105 86.642527 
L 443.509752 86.860726 
L 443.993642 86.818753 
L 444.722236 86.999792 
L 445.692671 86.926612 
L 445.935402 87.281943 
L 446.420824 87.18609 
L 446.663685 86.978161 
L 447.149188 86.896696 
L 447.392724 87.549756 
L 448.120185 87.461742 
L 448.607591 86.960498 
L 449.09212 86.865935 
L 449.3357 88.323129 
L 449.821851 88.226829 
L 450.062216 86.673336 
L 450.792475 86.327829 
L 451.032529 86.583288 
L 451.760561 86.516856 
L 452.003368 86.740959 
L 452.248268 86.792855 
L 452.48881 86.720965 
L 452.734157 86.802579 
L 452.977491 87.07446 
L 453.703233 86.999991 
L 453.94524 86.604771 
L 454.430471 86.406962 
L 454.673157 86.997163 
L 454.916048 87.925031 
L 455.645212 87.670167 
L 455.886892 87.276635 
L 456.12941 87.233074 
L 456.374585 86.974489 
L 456.6164 86.469525 
L 456.857638 86.257726 
L 457.102815 86.210394 
L 457.342978 85.943425 
L 457.586718 85.090919 
L 458.31445 84.92139 
L 458.556544 84.505631 
L 459.043225 84.544527 
L 459.285909 83.034992 
L 460.01538 83.007804 
L 460.256986 82.826219 
L 460.985099 82.77095 
L 461.227435 83.954526 
L 461.95561 84.106541 
L 462.439776 83.987221 
L 462.927108 84.089921 
L 463.168028 84.474672 
L 463.897133 84.501612 
L 464.139668 87.335823 
L 464.624472 87.588504 
L 464.868502 87.612864 
L 465.110825 89.442951 
L 465.596231 89.631631 
L 465.839179 89.640214 
L 466.080777 92.244963 
L 466.566861 92.365325 
L 467.05221 92.059062 
L 467.780035 91.657938 
L 468.023176 93.641132 
L 468.751604 93.400011 
L 468.99322 94.985009 
L 469.721832 94.309821 
L 469.965486 93.424322 
L 470.69226 92.906061 
L 470.935442 89.290737 
L 471.663887 88.272027 
L 471.906686 83.984393 
L 472.392013 83.177035 
L 472.877004 82.832818 
L 473.120329 83.057417 
L 473.362557 84.715892 
L 473.362557 84.715892 
" clip-path="url(#pe23be73d83)" style="fill: none; stroke: #ff0000; stroke-opacity: 0.8; stroke-linecap: square"/>
   </g>
   <g id="line2d_37">
    <path d="M 304.426193 85.78625 
L 305.397437 85.78625 
L 305.882757 87.11167 
L 306.608525 87.11167 
L 306.854117 84.46083 
L 307.095105 87.11167 
L 307.336883 85.78625 
L 307.580013 81.810138 
L 307.82275 87.11167 
L 308.067963 86.448935 
L 308.3093 84.460731 
L 308.795693 84.460929 
L 309.28189 89.762411 
L 309.522204 84.460929 
L 309.766536 89.762213 
L 310.009718 83.135558 
L 310.251814 83.135608 
L 310.492182 81.810089 
L 310.738068 85.78625 
L 310.977603 85.78625 
L 311.220273 84.460929 
L 311.466018 84.460879 
L 311.706267 80.484867 
L 311.94861 81.810237 
L 312.192901 85.78625 
L 312.434918 85.78625 
L 312.678812 87.111571 
L 312.919677 85.78625 
L 313.163306 81.810237 
L 313.408084 85.78625 
L 313.650216 87.11167 
L 313.893885 84.460929 
L 314.621531 84.460929 
L 314.865 85.78625 
L 315.107056 84.460929 
L 315.347797 84.58139 
L 315.592566 81.810089 
L 315.834202 84.460979 
L 316.076419 84.460731 
L 316.320793 83.135558 
L 316.80592 85.78625 
L 317.048552 81.810138 
L 317.291266 83.135906 
L 317.777167 83.135558 
L 318.260544 85.78625 
L 318.503392 83.13541 
L 318.746932 83.135707 
L 318.988007 81.810138 
L 319.473689 81.809989 
L 319.71916 85.78625 
L 319.961537 80.484916 
L 320.205379 83.135707 
L 320.447041 83.135558 
L 320.686971 84.460681 
L 321.172552 84.460979 
L 321.417646 81.810138 
L 321.90079 83.13531 
L 322.146544 85.78625 
L 322.387721 85.78625 
L 322.631928 84.460879 
L 322.874352 84.46083 
L 323.114591 85.78625 
L 323.359965 83.135558 
L 323.602866 83.135459 
L 323.844073 87.111621 
L 324.085368 85.78625 
L 324.330368 88.436942 
L 324.573025 85.78625 
L 324.813258 89.762362 
L 325.058358 85.78625 
L 325.299888 87.11167 
L 325.54718 91.087732 
L 325.78551 87.111621 
L 326.028215 87.111521 
L 326.269701 92.413004 
L 326.514893 86.448935 
L 326.758245 85.78625 
L 326.999032 87.11167 
L 327.242662 87.774256 
L 327.485506 85.78625 
L 327.971729 88.436693 
L 328.21179 84.46083 
L 328.454512 87.11167 
L 328.697485 84.461127 
L 328.942783 87.774207 
L 329.182537 88.43709 
L 329.427766 87.357256 
L 329.668793 89.099627 
L 330.155583 85.78625 
L 330.396434 85.78625 
L 330.884011 88.43709 
L 331.373086 85.78625 
L 331.612218 85.78625 
L 331.855345 88.436942 
L 332.101828 85.78625 
L 332.582791 83.13541 
L 333.31595 88.43709 
L 333.556134 88.436942 
L 333.799188 85.78625 
L 334.042694 84.460731 
L 334.286951 88.436942 
L 334.528786 84.460929 
L 335.253066 88.436942 
L 335.498979 88.437041 
L 335.742388 87.111521 
L 335.983761 81.810237 
L 336.223779 89.762411 
L 336.466628 88.196019 
L 336.953705 84.460929 
L 337.197297 85.78625 
L 337.439521 88.436991 
L 337.680498 88.436942 
L 337.925643 85.78625 
L 338.171167 85.78625 
L 338.411379 86.991209 
L 338.650947 85.78625 
L 338.89814 87.111571 
L 339.137461 85.78625 
L 339.379081 83.135509 
L 339.621316 85.78625 
L 339.868242 87.111521 
L 340.106688 83.798343 
L 340.351608 83.135509 
L 340.595952 83.135558 
L 340.839128 85.78625 
L 341.078119 87.111819 
L 341.320413 84.46083 
L 341.56437 83.135707 
L 342.292268 83.135707 
L 342.535837 85.123614 
L 342.780154 79.159298 
L 343.262426 84.460681 
L 343.506251 84.460979 
L 343.747701 81.810138 
L 343.991172 80.484916 
L 344.236936 81.809989 
L 344.475698 81.564403 
L 344.961351 75.183533 
L 345.207593 79.159298 
L 345.689138 68.556432 
L 345.93451 71.207124 
L 346.178736 76.147272 
L 346.420839 75.183385 
L 346.663759 72.532792 
L 346.90269 76.508805 
L 347.148673 73.858113 
L 347.388459 75.183434 
L 347.630713 77.834126 
L 347.873463 73.858064 
L 348.117307 71.869908 
L 348.362597 73.858064 
L 348.605806 68.556581 
L 348.84445 68.556532 
L 349.090587 63.255297 
L 349.329761 60.604507 
L 349.572641 63.255248 
L 349.815155 62.592513 
L 350.058505 52.652333 
L 350.300513 53.977703 
L 350.544687 57.953815 
L 350.788988 51.327061 
L 351.272325 51.327012 
L 351.517634 50.001641 
L 351.756848 51.916021 
L 352.000261 50.001641 
L 352.246197 46.025579 
L 352.970604 42.049467 
L 353.215118 39.398776 
L 353.458747 35.422664 
L 353.698362 38.073405 
L 353.943459 38.073405 
L 354.1836 35.422713 
L 354.426392 36.748134 
L 354.672144 34.097492 
L 354.914337 35.422713 
L 355.155047 38.073504 
L 355.643269 32.771972 
L 355.882776 34.097244 
L 356.127806 36.085349 
L 356.368886 36.748134 
L 356.610824 34.097641 
L 356.854243 34.097293 
L 357.098191 39.398776 
L 357.34109 38.073405 
L 357.581878 35.422912 
L 357.826868 36.748134 
L 358.069629 35.422912 
L 358.557697 38.073504 
L 358.797352 38.073207 
L 359.039935 35.422912 
L 359.282467 35.422565 
L 359.523868 38.073405 
L 359.766462 35.422565 
L 360.011861 34.097293 
L 360.254495 36.748134 
L 360.737266 34.097293 
L 360.982817 36.085448 
L 361.225371 36.747985 
L 361.465883 33.976882 
L 361.708205 36.085349 
L 361.950901 32.772072 
L 362.196094 35.422565 
L 362.439262 36.747985 
L 362.679098 35.717268 
L 362.921681 35.422713 
L 363.16635 34.097392 
L 363.407241 36.085399 
L 363.652307 39.398776 
L 363.895302 35.422713 
L 364.13849 34.097343 
L 364.381234 39.398776 
L 364.621264 35.422713 
L 364.864441 36.748084 
L 365.106587 35.422713 
L 365.350227 35.422713 
L 365.834895 42.049566 
L 366.07881 42.049566 
L 366.320229 39.398825 
L 366.808103 48.67637 
L 367.050879 44.700258 
L 367.295799 44.700159 
L 367.53389 47.350801 
L 367.779657 46.025579 
L 368.021836 52.652333 
L 368.262218 52.652432 
L 368.507427 50.001542 
L 368.750056 51.326813 
L 369.47606 59.279235 
L 369.720503 59.279334 
L 369.961251 63.255148 
L 370.207597 61.929579 
L 370.446604 67.23126 
L 370.932116 69.881952 
L 371.175938 67.23126 
L 371.418592 71.207223 
L 371.660259 72.532544 
L 371.904936 77.834374 
L 372.148096 76.508805 
L 372.388347 79.159298 
L 372.633465 76.508805 
L 372.873852 76.508805 
L 373.359396 91.087584 
L 373.605297 89.762362 
L 373.847921 92.412855 
L 374.090242 89.762362 
L 374.331216 89.762362 
L 374.572994 91.750318 
L 374.817708 96.388967 
L 375.058552 97.714536 
L 375.304052 93.738275 
L 375.547212 96.389066 
L 375.790493 95.063695 
L 376.033216 101.690697 
L 376.51553 104.341289 
L 376.760793 107.875545 
L 377.001996 109.642573 
L 377.243196 112.293414 
L 377.485824 112.293414 
L 377.731333 110.967944 
L 377.971905 108.317352 
L 378.214908 113.618735 
L 378.699542 113.618586 
L 379.185857 110.968043 
L 379.427448 112.293364 
L 379.670017 114.944006 
L 379.913658 109.642722 
L 380.155726 109.642623 
L 380.398801 116.269525 
L 380.641297 112.293364 
L 380.886624 113.618685 
L 381.129883 113.618685 
L 381.37122 112.293463 
L 381.615043 112.293414 
L 381.857686 109.642623 
L 382.098332 104.341289 
L 382.341346 104.341289 
L 382.583651 102.353233 
L 382.826586 103.015968 
L 383.071654 97.714436 
L 383.312161 96.389215 
L 383.554185 101.690499 
L 383.799331 99.039807 
L 384.042165 95.063695 
L 384.285233 88.436842 
L 384.527847 85.78625 
L 384.769183 89.762362 
L 385.010414 88.43709 
L 385.257176 88.437388 
L 385.499563 85.78625 
L 385.738597 80.484569 
L 385.984857 84.460681 
L 386.224066 83.135112 
L 386.470835 84.460681 
L 386.712165 81.810138 
L 386.95221 80.485214 
L 387.195092 84.460979 
L 387.438021 83.920987 
L 387.680447 84.460681 
L 387.923102 84.460979 
L 388.170362 82.472923 
L 388.411708 84.460681 
L 388.65647 81.810287 
L 388.901476 83.13541 
L 389.140446 85.78625 
L 389.382176 87.11167 
L 389.630964 85.78625 
L 389.868089 82.472873 
L 390.356329 87.11167 
L 390.599123 83.135509 
L 391.085967 85.78625 
L 391.328919 81.810138 
L 391.568643 83.135459 
L 391.813707 85.78625 
L 392.052235 84.460879 
L 392.29482 85.78625 
L 392.54284 84.460879 
L 392.782654 81.810237 
L 393.026583 85.78625 
L 393.266205 84.460879 
L 393.509903 84.460929 
L 393.750907 85.78625 
L 393.998652 84.460929 
L 394.237246 87.111521 
L 394.479697 88.436991 
L 394.726894 84.460929 
L 394.967069 87.111521 
L 395.210918 88.436942 
L 395.455411 85.78625 
L 395.692622 85.78625 
L 395.935235 89.762362 
L 396.178075 87.111521 
L 396.420968 87.11167 
L 396.664046 85.78625 
L 397.391399 85.78625 
L 397.634127 81.810138 
L 397.876899 86.449035 
L 398.119778 85.78625 
L 398.365478 85.78625 
L 398.607417 87.111174 
L 398.852214 85.78625 
L 399.091985 85.78625 
L 399.332817 81.810486 
L 399.579765 88.43709 
L 399.823538 88.195523 
L 400.061783 83.13541 
L 400.550478 88.436942 
L 400.793695 88.43709 
L 401.033027 85.123565 
L 401.280359 89.762213 
L 401.522829 89.762213 
L 401.760618 85.78625 
L 402.005831 87.258923 
L 402.246158 93.738424 
L 402.488028 91.087584 
L 402.730849 99.039807 
L 402.978134 95.063695 
L 403.220379 88.43709 
L 403.463459 93.738374 
L 403.703077 92.413004 
L 403.944876 93.738374 
L 404.191541 99.039807 
L 404.434295 99.039807 
L 404.675205 97.714486 
L 404.918915 99.039807 
L 405.15823 101.690499 
L 405.400841 105.666511 
L 405.886287 97.714436 
L 406.129031 97.714486 
L 406.375104 103.015869 
L 406.614293 103.015869 
L 406.859392 105.66661 
L 407.099662 109.642672 
L 407.344065 104.34124 
L 407.587004 105.66661 
L 407.829977 109.642623 
L 408.07031 106.991981 
L 408.316173 109.642722 
L 408.559218 109.642623 
L 408.801969 116.269426 
L 409.041377 117.594747 
L 409.285853 120.245439 
L 409.772337 122.89613 
L 410.013692 122.89623 
L 410.501128 128.197712 
L 410.746262 128.860348 
L 410.984389 133.499095 
L 411.225847 130.848503 
L 411.711379 136.149935 
L 412.196147 133.498996 
L 412.442027 137.475207 
L 412.682338 134.824366 
L 412.92447 133.499095 
L 413.169561 136.149935 
L 413.4123 137.475207 
L 413.896507 134.824366 
L 414.383487 134.824267 
L 414.623362 135.487151 
L 414.866032 133.498996 
L 415.113647 137.595618 
L 415.351288 134.824366 
L 415.594875 134.824515 
L 415.839479 137.475008 
L 416.081563 134.824416 
L 416.325181 135.487151 
L 416.566804 134.824565 
L 416.807723 134.824515 
L 417.052206 136.812472 
L 417.294854 134.824366 
L 417.77889 134.824416 
L 418.022227 136.149787 
L 418.2645 133.499095 
L 418.509568 133.499095 
L 418.751645 134.824416 
L 418.995494 137.475157 
L 419.237588 136.149787 
L 419.481505 136.812472 
L 419.72055 136.149787 
L 419.965759 134.824416 
L 420.208358 134.824416 
L 420.451217 136.149787 
L 420.694014 133.498996 
L 420.934277 136.149787 
L 421.177452 137.475207 
L 421.422607 133.499095 
L 421.905184 136.149787 
L 422.148109 136.149787 
L 422.390955 133.499145 
L 423.122964 137.475008 
L 423.361864 134.824366 
L 423.604461 134.824664 
L 423.847409 133.499095 
L 424.091168 134.824664 
L 424.333342 135.487101 
L 424.577849 133.499095 
L 424.820599 133.499343 
L 425.061408 136.149935 
L 425.791454 125.792408 
L 426.033978 125.546723 
L 426.277446 121.57066 
L 426.519913 124.22155 
L 426.759849 121.570859 
L 427.005175 117.594946 
L 427.245314 117.594797 
L 427.488061 116.269228 
L 427.733997 116.269625 
L 428.459045 108.317352 
L 428.704029 106.991832 
L 428.944929 104.34124 
L 429.189802 104.341289 
L 429.430122 101.690499 
L 429.672542 97.714387 
L 429.915573 98.377023 
L 430.158209 96.388967 
L 430.401147 90.605739 
L 430.646069 91.087584 
L 430.888663 92.413004 
L 431.131243 96.389066 
L 431.371681 96.388967 
L 431.614448 87.111472 
L 431.859874 83.135608 
L 432.34514 83.135608 
L 432.587223 79.159546 
L 432.828071 80.484817 
L 433.070953 79.159546 
L 433.800592 71.207422 
L 434.044445 75.183385 
L 434.284643 71.207521 
L 434.527233 69.881853 
L 434.770739 71.207422 
L 435.255451 65.90579 
L 435.501085 64.580569 
L 435.74226 57.953716 
L 436.228512 60.604407 
L 436.471485 57.953914 
L 436.714304 53.977654 
L 436.954895 52.652382 
L 437.196977 55.302875 
L 437.439831 52.652382 
L 437.684906 53.977654 
L 437.928741 53.977703 
L 438.653447 57.953716 
L 438.896928 53.977802 
L 439.141251 60.604556 
L 439.381688 59.279235 
L 439.624279 60.604308 
L 439.86951 59.279037 
L 440.113634 61.929778 
L 440.353825 59.279086 
L 440.597334 64.580569 
L 440.83829 64.580668 
L 441.568909 68.556631 
L 441.809215 68.556284 
L 442.052248 72.532842 
L 442.297024 69.882101 
L 442.780299 81.810287 
L 443.023144 84.706614 
L 443.268105 79.159496 
L 443.509752 80.484916 
L 443.750848 84.46083 
L 443.993642 85.78625 
L 444.238748 83.135558 
L 444.482465 89.762362 
L 444.722236 88.43709 
L 444.965769 88.436793 
L 445.453035 87.11167 
L 445.692671 85.78625 
L 445.935402 89.099627 
L 446.178157 88.43709 
L 446.663685 88.436942 
L 446.908976 85.78625 
L 447.149188 85.78625 
L 447.392724 89.762411 
L 447.635132 85.78625 
L 447.878046 84.460731 
L 448.120185 85.78625 
L 448.363491 87.774256 
L 448.607591 88.437041 
L 448.848151 89.762213 
L 449.3357 85.78625 
L 449.578634 89.762362 
L 449.821851 87.111621 
L 450.062216 92.413103 
L 450.304277 87.11167 
L 450.547591 89.762362 
L 450.792475 87.111621 
L 451.032529 89.762411 
L 451.275173 85.78625 
L 451.518043 84.460929 
L 451.760561 89.762362 
L 452.003368 88.436842 
L 452.248268 84.460979 
L 452.48881 89.762213 
L 452.734157 87.111571 
L 452.977491 87.111422 
L 453.218463 89.762064 
L 453.459814 87.258625 
L 453.703233 88.43709 
L 453.94524 88.436793 
L 454.430471 85.78625 
L 454.673157 88.436793 
L 454.916048 83.13541 
L 455.403222 88.437239 
L 455.645212 85.78625 
L 455.886892 85.78625 
L 456.12941 87.111819 
L 456.374585 87.111521 
L 456.6164 84.460681 
L 457.102815 84.460979 
L 457.342978 88.43709 
L 457.586718 88.436942 
L 457.829029 87.111521 
L 458.072104 88.436594 
L 458.31445 81.809989 
L 458.556544 87.258923 
L 458.799263 84.337938 
L 459.043225 83.135707 
L 459.285909 84.461078 
L 459.528098 84.46083 
L 459.770203 81.810138 
L 460.01538 80.484718 
L 460.256986 84.460979 
L 460.740948 84.46083 
L 460.985099 83.135658 
L 461.227435 84.46083 
L 461.470133 81.810089 
L 461.711892 83.135509 
L 461.95561 83.135509 
L 462.197217 84.46083 
L 462.439776 87.11167 
L 462.683582 83.135558 
L 462.927108 87.111571 
L 463.168028 81.810237 
L 463.410698 84.460929 
L 463.897133 84.460979 
L 464.139668 81.810138 
L 464.383335 83.798244 
L 464.624472 83.135509 
L 464.868502 84.460929 
L 465.110825 88.437041 
L 465.354762 85.78625 
L 465.596231 85.78625 
L 465.839179 88.436991 
L 466.080777 87.111769 
L 466.323522 89.762312 
L 466.566861 87.111571 
L 466.808651 93.738424 
L 467.05221 87.111571 
L 467.294099 92.412805 
L 467.537554 91.087534 
L 467.780035 93.738225 
L 468.023176 95.063943 
L 468.2661 92.413004 
L 468.507843 93.738424 
L 468.751604 93.738374 
L 468.99322 97.714387 
L 469.235802 89.762014 
L 469.479337 91.087782 
L 469.721832 93.738424 
L 469.965486 93.738374 
L 470.206813 96.634553 
L 470.45024 97.714536 
L 470.69226 91.087584 
L 470.935442 95.063695 
L 471.178196 92.413004 
L 471.421028 92.413004 
L 471.663887 90.424898 
L 471.906686 92.413004 
L 472.148969 89.762511 
L 472.634051 87.111819 
L 472.877004 84.460979 
L 473.120329 85.78625 
L 473.362557 81.810486 
L 473.362557 81.810486 
" clip-path="url(#pe23be73d83)" style="fill: none; stroke: #0000ff; stroke-linecap: square"/>
   </g>
   <g id="line2d_38">
    <path d="M 295.979375 36.172917 
L 481.809375 36.172917 
" clip-path="url(#pe23be73d83)" style="fill: none; stroke-dasharray: 7.4,3.2; stroke-dashoffset: 0; stroke: #000000; stroke-opacity: 0.7; stroke-width: 2"/>
   </g>
   <g id="line2d_39">
    <path d="M 295.979375 135.399583 
L 481.809375 135.399583 
" clip-path="url(#pe23be73d83)" style="fill: none; stroke-dasharray: 7.4,3.2; stroke-dashoffset: 0; stroke: #000000; stroke-opacity: 0.7; stroke-width: 2"/>
   </g>
   <g id="patch_8">
    <path d="M 295.979375 160.20625 
L 295.979375 11.36625 
" style="fill: none; stroke: #000000; stroke-width: 0.8; stroke-linejoin: miter; stroke-linecap: square"/>
   </g>
   <g id="patch_9">
    <path d="M 481.809375 160.20625 
L 481.809375 11.36625 
" style="fill: none; stroke: #000000; stroke-width: 0.8; stroke-linejoin: miter; stroke-linecap: square"/>
   </g>
   <g id="patch_10">
    <path d="M 295.979375 160.20625 
L 481.809375 160.20625 
" style="fill: none; stroke: #000000; stroke-width: 0.8; stroke-linejoin: miter; stroke-linecap: square"/>
   </g>
   <g id="patch_11">
    <path d="M 295.979375 11.36625 
L 481.809375 11.36625 
" style="fill: none; stroke: #000000; stroke-width: 0.8; stroke-linejoin: miter; stroke-linecap: square"/>
   </g>
  </g>
 </g>
 <defs>
  <clipPath id="p4ff0fde36e">
   <rect x="50.099375" y="11.36625" width="185.83" height="148.84"/>
  </clipPath>
  <clipPath id="pe23be73d83">
   <rect x="295.979375" y="11.36625" width="185.83" height="148.84"/>
  </clipPath>
 </defs>
</svg>
