<?xml version="1.0" encoding="utf-8" standalone="no"?>
<!DOCTYPE svg PUBLIC "-//W3C//DTD SVG 1.1//EN"
  "http://www.w3.org/Graphics/SVG/1.1/DTD/svg11.dtd">
<svg xmlns:xlink="http://www.w3.org/1999/xlink" width="489.009375pt" height="200.205pt" viewBox="0 0 489.009375 200.205" xmlns="http://www.w3.org/2000/svg" version="1.1">
 <metadata>
  <rdf:RDF xmlns:dc="http://purl.org/dc/elements/1.1/" xmlns:cc="http://creativecommons.org/ns#" xmlns:rdf="http://www.w3.org/1999/02/22-rdf-syntax-ns#">
   <cc:Work>
    <dc:type rdf:resource="http://purl.org/dc/dcmitype/StillImage"/>
    <dc:date>2026-01-18T23:30:37.941702</dc:date>
    <dc:format>image/svg+xml</dc:format>
    <dc:creator>
     <cc:Agent>
      <dc:title>Matplotlib v3.6.3, https://matplotlib.org/</dc:title>
     </cc:Agent>
    </dc:creator>
   </cc:Work>
  </rdf:RDF>
 </metadata>
 <defs>
  <style type="text/css">*{stroke-linejoin: round; stroke-linecap: butt}</style>
 </defs>
 <g id="figure_1">
  <g id="patch_1">
   <path d="M 0 200.205 
L 489.009375 200.205 
L 489.009375 -0 
L 0 -0 
z
" style="fill: #ffffff"/>
  </g>
  <g id="axes_1">
   <g id="patch_2">
    <path d="M 50.099375 160.20625 
L 235.929375 160.20625 
L 235.929375 11.36625 
L 50.099375 11.36625 
z
" style="fill: #ffffff"/>
   </g>
   <g id="matplotlib.axis_1">
    <g id="xtick_1">
     <g id="line2d_1">
      <path d="M 58.546193 160.20625 
L 58.546193 11.36625 
" clip-path="url(#pb43e61b55e)" style="fill: none; stroke: #b0b0b0; stroke-opacity: 0.3; stroke-width: 0.8; stroke-linecap: square"/>
     </g>
     <g id="line2d_2">
      <defs>
       <path id="m1b1bf23e76" d="M 0 0 
L 0 3.5 
" style="stroke: #000000; stroke-width: 0.8"/>
      </defs>
      <g>
       <use xlink:href="#m1b1bf23e76" x="58.546193" y="160.20625" style="stroke: #000000; stroke-width: 0.8"/>
      </g>
     </g>
     <g id="text_1">
      <!-- 0 -->
      <g transform="translate(55.546193 175.53875) scale(0.12 -0.12)">
       <defs>
        <path id="TimesNewRomanPSMT-30" d="M 231 2094 
Q 231 2819 450 3342 
Q 669 3866 1031 4122 
Q 1313 4325 1613 4325 
Q 2100 4325 2488 3828 
Q 2972 3213 2972 2159 
Q 2972 1422 2759 906 
Q 2547 391 2217 158 
Q 1888 -75 1581 -75 
Q 975 -75 572 641 
Q 231 1244 231 2094 
z
M 844 2016 
Q 844 1141 1059 588 
Q 1238 122 1591 122 
Q 1759 122 1940 273 
Q 2122 425 2216 781 
Q 2359 1319 2359 2297 
Q 2359 3022 2209 3506 
Q 2097 3866 1919 4016 
Q 1791 4119 1609 4119 
Q 1397 4119 1231 3928 
Q 1006 3669 925 3112 
Q 844 2556 844 2016 
z
" transform="scale(0.015625)"/>
       </defs>
       <use xlink:href="#TimesNewRomanPSMT-30"/>
      </g>
     </g>
    </g>
    <g id="xtick_2">
     <g id="line2d_3">
      <path d="M 121.977877 160.20625 
L 121.977877 11.36625 
" clip-path="url(#pb43e61b55e)" style="fill: none; stroke: #b0b0b0; stroke-opacity: 0.3; stroke-width: 0.8; stroke-linecap: square"/>
     </g>
     <g id="line2d_4">
      <g>
       <use xlink:href="#m1b1bf23e76" x="121.977877" y="160.20625" style="stroke: #000000; stroke-width: 0.8"/>
      </g>
     </g>
     <g id="text_2">
      <!-- 10 -->
      <g transform="translate(115.977877 175.53875) scale(0.12 -0.12)">
       <defs>
        <path id="TimesNewRomanPSMT-31" d="M 750 3822 
L 1781 4325 
L 1884 4325 
L 1884 747 
Q 1884 391 1914 303 
Q 1944 216 2037 169 
Q 2131 122 2419 116 
L 2419 0 
L 825 0 
L 825 116 
Q 1125 122 1212 167 
Q 1300 213 1334 289 
Q 1369 366 1369 747 
L 1369 3034 
Q 1369 3497 1338 3628 
Q 1316 3728 1258 3775 
Q 1200 3822 1119 3822 
Q 1003 3822 797 3725 
L 750 3822 
z
" transform="scale(0.015625)"/>
       </defs>
       <use xlink:href="#TimesNewRomanPSMT-31"/>
       <use xlink:href="#TimesNewRomanPSMT-30" x="50"/>
      </g>
     </g>
    </g>
    <g id="xtick_3">
     <g id="line2d_5">
      <path d="M 185.40956 160.20625 
L 185.40956 11.36625 
" clip-path="url(#pb43e61b55e)" style="fill: none; stroke: #b0b0b0; stroke-opacity: 0.3; stroke-width: 0.8; stroke-linecap: square"/>
     </g>
     <g id="line2d_6">
      <g>
       <use xlink:href="#m1b1bf23e76" x="185.40956" y="160.20625" style="stroke: #000000; stroke-width: 0.8"/>
      </g>
     </g>
     <g id="text_3">
      <!-- 20 -->
      <g transform="translate(179.40956 175.53875) scale(0.12 -0.12)">
       <defs>
        <path id="TimesNewRomanPSMT-32" d="M 2934 816 
L 2638 0 
L 138 0 
L 138 116 
Q 1241 1122 1691 1759 
Q 2141 2397 2141 2925 
Q 2141 3328 1894 3587 
Q 1647 3847 1303 3847 
Q 991 3847 742 3664 
Q 494 3481 375 3128 
L 259 3128 
Q 338 3706 661 4015 
Q 984 4325 1469 4325 
Q 1984 4325 2329 3994 
Q 2675 3663 2675 3213 
Q 2675 2891 2525 2569 
Q 2294 2063 1775 1497 
Q 997 647 803 472 
L 1909 472 
Q 2247 472 2383 497 
Q 2519 522 2628 598 
Q 2738 675 2819 816 
L 2934 816 
z
" transform="scale(0.015625)"/>
       </defs>
       <use xlink:href="#TimesNewRomanPSMT-32"/>
       <use xlink:href="#TimesNewRomanPSMT-30" x="50"/>
      </g>
     </g>
    </g>
    <g id="text_4">
     <!-- $t$ [s] -->
     <g transform="translate(133.474375 190.438125) scale(0.12 -0.12)">
      <defs>
       <path id="STIXGeneral-Italic-74" d="M 1894 2739 
L 1862 2534 
L 1325 2534 
L 768 435 
Q 755 384 755 346 
Q 755 243 851 243 
Q 928 243 1030 342 
Q 1133 442 1370 749 
L 1453 704 
Q 1158 256 969 93 
Q 781 -70 538 -70 
Q 243 -70 243 166 
Q 243 230 346 640 
L 845 2534 
L 365 2534 
L 358 2573 
Q 358 2688 570 2733 
Q 730 2771 992 2979 
Q 1254 3187 1421 3437 
Q 1459 3494 1510 3494 
Q 1568 3494 1568 3443 
Q 1568 3411 1562 3398 
L 1382 2739 
L 1894 2739 
z
" transform="scale(0.015625)"/>
       <path id="TimesNewRomanPSMT-20" transform="scale(0.015625)"/>
       <path id="TimesNewRomanPSMT-5b" d="M 1900 -1269 
L 525 -1269 
L 525 4334 
L 1900 4334 
L 1900 4088 
L 994 4088 
L 994 -1025 
L 1900 -1025 
L 1900 -1269 
z
" transform="scale(0.015625)"/>
       <path id="TimesNewRomanPSMT-73" d="M 2050 2947 
L 2050 1972 
L 1947 1972 
Q 1828 2431 1642 2597 
Q 1456 2763 1169 2763 
Q 950 2763 815 2647 
Q 681 2531 681 2391 
Q 681 2216 781 2091 
Q 878 1963 1175 1819 
L 1631 1597 
Q 2266 1288 2266 781 
Q 2266 391 1970 151 
Q 1675 -88 1309 -88 
Q 1047 -88 709 6 
Q 606 38 541 38 
Q 469 38 428 -44 
L 325 -44 
L 325 978 
L 428 978 
Q 516 541 762 319 
Q 1009 97 1316 97 
Q 1531 97 1667 223 
Q 1803 350 1803 528 
Q 1803 744 1651 891 
Q 1500 1038 1047 1263 
Q 594 1488 453 1669 
Q 313 1847 313 2119 
Q 313 2472 555 2709 
Q 797 2947 1181 2947 
Q 1350 2947 1591 2875 
Q 1750 2828 1803 2828 
Q 1853 2828 1881 2850 
Q 1909 2872 1947 2947 
L 2050 2947 
z
" transform="scale(0.015625)"/>
       <path id="TimesNewRomanPSMT-5d" d="M 234 4334 
L 1609 4334 
L 1609 -1272 
L 234 -1272 
L 234 -1025 
L 1141 -1025 
L 1141 4088 
L 234 4088 
L 234 4334 
z
" transform="scale(0.015625)"/>
      </defs>
      <use xlink:href="#STIXGeneral-Italic-74" transform="translate(0 0.28125)"/>
      <use xlink:href="#TimesNewRomanPSMT-20" transform="translate(27.799988 0.28125)"/>
      <use xlink:href="#TimesNewRomanPSMT-5b" transform="translate(52.799988 0.28125)"/>
      <use xlink:href="#TimesNewRomanPSMT-73" transform="translate(86.100769 0.28125)"/>
      <use xlink:href="#TimesNewRomanPSMT-5d" transform="translate(125.016785 0.28125)"/>
     </g>
    </g>
   </g>
   <g id="matplotlib.axis_2">
    <g id="ytick_1">
     <g id="line2d_7">
      <path d="M 50.099375 153.440795 
L 235.929375 153.440795 
" clip-path="url(#pb43e61b55e)" style="fill: none; stroke: #b0b0b0; stroke-opacity: 0.3; stroke-width: 0.8; stroke-linecap: square"/>
     </g>
     <g id="line2d_8">
      <defs>
       <path id="m6bb4b781e6" d="M 0 0 
L -3.5 0 
" style="stroke: #000000; stroke-width: 0.8"/>
      </defs>
      <g>
       <use xlink:href="#m6bb4b781e6" x="50.099375" y="153.440795" style="stroke: #000000; stroke-width: 0.8"/>
      </g>
     </g>
     <g id="text_5">
      <!-- 0.00 -->
      <g transform="translate(22.099375 157.607045) scale(0.12 -0.12)">
       <defs>
        <path id="TimesNewRomanPSMT-2e" d="M 800 606 
Q 947 606 1047 504 
Q 1147 403 1147 259 
Q 1147 116 1045 14 
Q 944 -88 800 -88 
Q 656 -88 554 14 
Q 453 116 453 259 
Q 453 406 554 506 
Q 656 606 800 606 
z
" transform="scale(0.015625)"/>
       </defs>
       <use xlink:href="#TimesNewRomanPSMT-30"/>
       <use xlink:href="#TimesNewRomanPSMT-2e" x="50"/>
       <use xlink:href="#TimesNewRomanPSMT-30" x="75"/>
       <use xlink:href="#TimesNewRomanPSMT-30" x="125"/>
      </g>
     </g>
    </g>
    <g id="ytick_2">
     <g id="line2d_9">
      <path d="M 50.099375 89.615873 
L 235.929375 89.615873 
" clip-path="url(#pb43e61b55e)" style="fill: none; stroke: #b0b0b0; stroke-opacity: 0.3; stroke-width: 0.8; stroke-linecap: square"/>
     </g>
     <g id="line2d_10">
      <g>
       <use xlink:href="#m6bb4b781e6" x="50.099375" y="89.615873" style="stroke: #000000; stroke-width: 0.8"/>
      </g>
     </g>
     <g id="text_6">
      <!-- 0.25 -->
      <g transform="translate(22.099375 93.782123) scale(0.12 -0.12)">
       <defs>
        <path id="TimesNewRomanPSMT-35" d="M 2778 4238 
L 2534 3706 
L 1259 3706 
L 981 3138 
Q 1809 3016 2294 2522 
Q 2709 2097 2709 1522 
Q 2709 1188 2573 903 
Q 2438 619 2231 419 
Q 2025 219 1772 97 
Q 1413 -75 1034 -75 
Q 653 -75 479 54 
Q 306 184 306 341 
Q 306 428 378 495 
Q 450 563 559 563 
Q 641 563 702 538 
Q 763 513 909 409 
Q 1144 247 1384 247 
Q 1750 247 2026 523 
Q 2303 800 2303 1197 
Q 2303 1581 2056 1914 
Q 1809 2247 1375 2428 
Q 1034 2569 447 2591 
L 1259 4238 
L 2778 4238 
z
" transform="scale(0.015625)"/>
       </defs>
       <use xlink:href="#TimesNewRomanPSMT-30"/>
       <use xlink:href="#TimesNewRomanPSMT-2e" x="50"/>
       <use xlink:href="#TimesNewRomanPSMT-32" x="75"/>
       <use xlink:href="#TimesNewRomanPSMT-35" x="125"/>
      </g>
     </g>
    </g>
    <g id="ytick_3">
     <g id="line2d_11">
      <path d="M 50.099375 25.790951 
L 235.929375 25.790951 
" clip-path="url(#pb43e61b55e)" style="fill: none; stroke: #b0b0b0; stroke-opacity: 0.3; stroke-width: 0.8; stroke-linecap: square"/>
     </g>
     <g id="line2d_12">
      <g>
       <use xlink:href="#m6bb4b781e6" x="50.099375" y="25.790951" style="stroke: #000000; stroke-width: 0.8"/>
      </g>
     </g>
     <g id="text_7">
      <!-- 0.50 -->
      <g transform="translate(22.099375 29.957201) scale(0.12 -0.12)">
       <use xlink:href="#TimesNewRomanPSMT-30"/>
       <use xlink:href="#TimesNewRomanPSMT-2e" x="50"/>
       <use xlink:href="#TimesNewRomanPSMT-35" x="75"/>
       <use xlink:href="#TimesNewRomanPSMT-30" x="125"/>
      </g>
     </g>
    </g>
    <g id="text_8">
     <!-- $v$ [m/s] -->
     <g transform="translate(15.5325 102.64625) rotate(-90) scale(0.12 -0.12)">
      <defs>
       <path id="STIXGeneral-Italic-76" d="M 1325 448 
L 1523 653 
Q 1869 1005 2134 1456 
Q 2400 1907 2400 2131 
Q 2400 2208 2285 2317 
Q 2125 2458 2125 2605 
Q 2125 2701 2195 2761 
Q 2266 2822 2368 2822 
Q 2522 2822 2624 2704 
Q 2726 2586 2726 2445 
Q 2726 2074 2323 1453 
Q 1971 909 1562 474 
Q 1504 416 1421 326 
Q 1338 237 1299 192 
Q 1261 147 1200 86 
Q 1139 26 1110 -3 
Q 1082 -32 1043 -64 
Q 1005 -96 979 -105 
Q 954 -115 928 -115 
Q 870 -115 870 58 
L 870 211 
Q 870 1094 717 1990 
Q 653 2355 579 2470 
Q 506 2586 326 2586 
Q 198 2586 128 2579 
L 128 2662 
Q 480 2720 845 2797 
Q 915 2822 973 2822 
Q 1011 2822 1033 2739 
Q 1056 2656 1165 2093 
Q 1280 1510 1325 448 
z
" transform="scale(0.015625)"/>
       <path id="TimesNewRomanPSMT-6d" d="M 1050 2338 
Q 1363 2650 1419 2697 
Q 1559 2816 1721 2881 
Q 1884 2947 2044 2947 
Q 2313 2947 2506 2790 
Q 2700 2634 2766 2338 
Q 3088 2713 3309 2830 
Q 3531 2947 3766 2947 
Q 3994 2947 4170 2830 
Q 4347 2713 4450 2447 
Q 4519 2266 4519 1878 
L 4519 647 
Q 4519 378 4559 278 
Q 4591 209 4675 161 
Q 4759 113 4950 113 
L 4950 0 
L 3538 0 
L 3538 113 
L 3597 113 
Q 3781 113 3884 184 
Q 3956 234 3988 344 
Q 4000 397 4000 647 
L 4000 1878 
Q 4000 2228 3916 2372 
Q 3794 2572 3525 2572 
Q 3359 2572 3192 2489 
Q 3025 2406 2788 2181 
L 2781 2147 
L 2788 2013 
L 2788 647 
Q 2788 353 2820 281 
Q 2853 209 2943 161 
Q 3034 113 3253 113 
L 3253 0 
L 1806 0 
L 1806 113 
Q 2044 113 2133 169 
Q 2222 225 2256 338 
Q 2272 391 2272 647 
L 2272 1878 
Q 2272 2228 2169 2381 
Q 2031 2581 1784 2581 
Q 1616 2581 1450 2491 
Q 1191 2353 1050 2181 
L 1050 647 
Q 1050 366 1089 281 
Q 1128 197 1204 155 
Q 1281 113 1516 113 
L 1516 0 
L 100 0 
L 100 113 
Q 297 113 375 155 
Q 453 197 493 289 
Q 534 381 534 647 
L 534 1741 
Q 534 2213 506 2350 
Q 484 2453 437 2492 
Q 391 2531 309 2531 
Q 222 2531 100 2484 
L 53 2597 
L 916 2947 
L 1050 2947 
L 1050 2338 
z
" transform="scale(0.015625)"/>
       <path id="TimesNewRomanPSMT-2f" d="M 1794 4444 
L 259 -88 
L 9 -88 
L 1544 4444 
L 1794 4444 
z
" transform="scale(0.015625)"/>
      </defs>
      <use xlink:href="#STIXGeneral-Italic-76" transform="translate(0 0.5625)"/>
      <use xlink:href="#TimesNewRomanPSMT-20" transform="translate(44.399994 0.5625)"/>
      <use xlink:href="#TimesNewRomanPSMT-5b" transform="translate(69.399994 0.5625)"/>
      <use xlink:href="#TimesNewRomanPSMT-6d" transform="translate(102.700775 0.5625)"/>
      <use xlink:href="#TimesNewRomanPSMT-2f" transform="translate(180.483978 0.5625)"/>
      <use xlink:href="#TimesNewRomanPSMT-73" transform="translate(208.267181 0.5625)"/>
      <use xlink:href="#TimesNewRomanPSMT-5d" transform="translate(247.183197 0.5625)"/>
     </g>
    </g>
   </g>
   <g id="line2d_13">
    <path d="M 58.546193 149.185716 
L 64.67756 25.790951 
L 86.036834 25.790951 
L 86.244728 30.04603 
L 86.460411 25.790951 
L 92.168293 25.790951 
L 97.237646 127.910826 
L 97.663994 136.420731 
L 98.086684 129.083929 
L 100.412441 83.773595 
L 103.583214 146.650845 
L 107.175483 124.74026 
L 108.869599 115.093506 
L 110.135383 115.134609 
L 110.980831 115.024064 
L 112.461125 114.6115 
L 112.886083 114.355945 
L 113.731058 113.796328 
L 114.788187 113.102679 
L 114.99858 112.954605 
L 115.634516 111.99187 
L 116.057692 112.337035 
L 116.689677 110.763623 
L 117.114961 110.00768 
L 117.326112 109.881562 
L 117.747003 110.152946 
L 118.383489 108.460309 
L 119.017704 105.661459 
L 119.228722 104.04005 
L 119.440402 103.729095 
L 119.65207 103.019362 
L 119.861935 101.918254 
L 120.284091 96.012662 
L 120.706973 90.646263 
L 120.920722 90.855864 
L 121.13189 89.615873 
L 121.764874 89.615873 
L 123.246735 59.830824 
L 127.475479 144.930891 
L 127.89591 136.9612 
L 128.110219 140.043178 
L 128.321249 141.091184 
L 130.223395 104.621368 
L 130.64677 100.48781 
L 134.45062 25.790951 
L 156.022135 25.790951 
L 157.923386 64.085904 
L 158.347715 55.575999 
L 161.307907 115.145842 
L 161.727939 107.740364 
L 162.996483 82.210395 
L 165.958652 141.780237 
L 166.170238 142.979125 
L 170.186807 118.748887 
L 170.818174 115.145076 
L 171.878222 115.039893 
L 172.509929 114.87982 
L 173.145601 114.602564 
L 173.78039 114.082774 
L 174.626411 113.266836 
L 175.260287 112.68654 
L 175.47268 112.472344 
L 175.892557 111.609175 
L 176.315692 111.282392 
L 176.739132 110.756474 
L 177.586753 108.804708 
L 177.797914 108.460564 
L 178.009221 107.748278 
L 178.218526 107.482511 
L 178.429703 106.937191 
L 179.275535 103.035446 
L 179.487293 100.977475 
L 179.911826 99.44389 
L 180.121375 97.015735 
L 180.334108 97.890391 
L 180.545451 96.955739 
L 180.967564 90.668218 
L 181.178723 89.615873 
L 183.293588 89.615873 
L 183.504382 85.360793 
L 183.717783 85.998532 
L 186.043674 39.193674 
L 187.733545 73.233547 
L 187.947137 72.254473 
L 189.427403 43.906506 
L 189.636315 42.527122 
L 190.484777 25.790951 
L 213.739802 25.790951 
L 213.951761 27.397807 
L 215.219099 51.902492 
L 215.854252 61.112173 
L 216.276284 68.442338 
L 217.545768 82.338045 
L 217.756245 86.494579 
L 218.179307 90.057286 
L 218.603007 96.737203 
L 219.025353 100.804637 
L 219.236949 100.825316 
L 219.448055 101.331831 
L 220.082337 105.623674 
L 220.505405 108.598426 
L 220.928317 110.281617 
L 221.561879 114.373305 
L 222.619962 134.793706 
L 223.04282 126.283802 
L 223.254121 124.286081 
L 223.677047 125.509478 
L 224.310814 137.328577 
L 225.157891 139.63572 
L 225.579756 135.188144 
L 225.790675 135.158785 
L 226.002759 135.287456 
L 226.425083 136.117435 
L 226.636472 136.405413 
L 227.059675 137.273943 
L 227.270873 137.562687 
L 227.482557 140.675811 
L 227.482557 140.675811 
" clip-path="url(#pb43e61b55e)" style="fill: none; stroke: #ff0000; stroke-opacity: 0.8; stroke-linecap: square"/>
   </g>
   <g id="line2d_14">
    <path d="M 58.546193 153.440795 
L 59.392769 153.440795 
L 59.601082 146.675609 
L 59.814457 134.835831 
L 60.025811 141.601528 
L 60.658672 116.230866 
L 61.082183 107.774063 
L 61.292544 107.773808 
L 61.50639 97.62539 
L 61.717753 101.008622 
L 61.935869 87.477483 
L 62.140461 82.403657 
L 62.349697 82.403657 
L 62.773075 63.798692 
L 62.985905 70.410443 
L 63.197697 60.415971 
L 63.407733 67.181413 
L 63.831849 57.03325 
L 64.254841 38.428285 
L 64.464495 41.811006 
L 64.67756 36.736925 
L 64.886933 26.588762 
L 65.52501 21.514681 
L 65.737201 18.13196 
L 66.369471 28.280123 
L 66.582441 21.514681 
L 66.791628 26.588762 
L 67.00514 23.206296 
L 67.424356 26.588762 
L 67.635627 21.514936 
L 67.849319 29.971483 
L 68.272188 24.897657 
L 68.483675 26.588507 
L 68.695094 29.971483 
L 68.908413 24.051849 
L 69.116152 23.206041 
L 69.327372 24.897402 
L 69.539588 29.971483 
L 69.964153 24.897402 
L 70.172918 24.897402 
L 70.384892 28.279867 
L 70.59595 23.206296 
L 70.809793 26.588762 
L 71.019086 24.051849 
L 71.232563 28.280378 
L 71.444675 26.589017 
L 71.6555 21.514681 
L 71.867065 26.589017 
L 72.079557 26.588762 
L 72.288444 23.205786 
L 72.499035 24.897402 
L 72.712418 23.206041 
L 73.135408 27.357725 
L 73.346925 23.206041 
L 73.98124 28.280123 
L 74.192851 23.206041 
L 74.402012 28.280123 
L 74.616058 23.205786 
L 74.824741 21.514681 
L 75.038571 31.662843 
L 75.249787 19.82332 
L 75.458906 24.897402 
L 75.670529 24.897402 
L 76.304806 29.407526 
L 76.730014 24.897402 
L 76.939165 28.280123 
L 77.153153 26.588762 
L 77.361938 31.662843 
L 77.573629 29.971483 
L 77.787176 26.588762 
L 77.997661 26.588762 
L 78.207778 29.971483 
L 78.420402 28.279867 
L 78.630548 29.971738 
L 78.844231 24.897912 
L 79.264941 28.280123 
L 79.478568 23.206041 
L 79.899182 23.206296 
L 80.324329 29.971228 
L 80.747482 24.052104 
L 80.957843 24.897146 
L 81.167897 26.588762 
L 81.592903 23.206552 
L 81.804868 24.897146 
L 82.439148 24.897402 
L 82.654384 29.971483 
L 82.86605 26.588762 
L 83.077783 26.588507 
L 83.284175 31.662843 
L 83.711977 26.588762 
L 83.920987 26.588762 
L 84.132152 28.280123 
L 84.341416 28.280123 
L 84.55522 26.588762 
L 84.765763 23.205786 
L 84.976125 25.820055 
L 85.190131 24.897402 
L 85.402238 26.588507 
L 85.610437 24.897402 
L 86.036834 28.280123 
L 86.244728 26.588762 
L 86.669031 26.588762 
L 86.883171 29.971483 
L 87.090033 29.971483 
L 87.728471 25.743209 
L 87.937966 26.588762 
L 88.150144 26.588762 
L 88.360459 24.897402 
L 88.574118 28.279867 
L 88.99566 23.206296 
L 89.420094 28.280378 
L 89.632661 29.971228 
L 89.838194 24.897657 
L 90.049672 23.206041 
L 90.47374 23.206296 
L 90.686296 29.971483 
L 90.898524 24.897402 
L 91.108451 23.206296 
L 91.321751 28.280378 
L 91.530155 23.206296 
L 91.743709 21.514681 
L 92.168293 29.971228 
L 92.375202 24.583894 
L 92.589868 24.897402 
L 92.800994 21.514936 
L 93.012661 33.354204 
L 93.225625 35.045564 
L 93.434986 41.811261 
L 93.646185 38.42803 
L 93.858635 40.119646 
L 94.28152 51.959169 
L 94.491766 50.268064 
L 94.703675 58.724611 
L 94.914326 73.946855 
L 95.338324 84.095017 
L 95.97202 94.24318 
L 96.39232 107.774063 
L 96.606593 101.008622 
L 96.818715 104.391343 
L 97.029965 111.156784 
L 97.237646 112.848145 
L 97.663994 131.45311 
L 97.875657 133.14447 
L 98.086684 133.14447 
L 98.296881 144.983993 
L 98.50923 136.527191 
L 98.93271 132.298918 
L 99.142229 128.070389 
L 99.354631 119.613587 
L 99.566855 116.230866 
L 99.77877 107.774063 
L 99.986537 106.082703 
L 100.197936 101.008622 
L 100.412441 92.551819 
L 100.620826 92.551819 
L 100.832948 89.169099 
L 101.045957 79.020936 
L 101.25769 87.477738 
L 101.466717 85.786378 
L 101.67878 89.169099 
L 102.103149 106.082703 
L 102.314033 112.848145 
L 102.523699 111.156784 
L 102.948057 121.304947 
L 103.370981 134.835831 
L 103.583214 131.45311 
L 103.792664 143.292633 
L 104.21887 150.058075 
L 104.428326 146.675354 
L 104.849622 146.675354 
L 105.063447 141.139946 
L 105.272005 139.909912 
L 105.486682 141.601272 
L 105.906306 134.835831 
L 106.122888 134.835831 
L 106.333497 131.45311 
L 106.541589 134.835831 
L 106.755205 129.761749 
L 107.389151 129.761749 
L 107.809621 126.379028 
L 108.235745 117.922226 
L 108.446641 121.304947 
L 108.657658 121.304947 
L 108.869599 114.539505 
L 109.079714 117.921971 
L 109.503981 109.465679 
L 109.7147 112.848145 
L 109.924624 112.848145 
L 110.135383 114.539505 
L 110.347182 111.156784 
L 110.771383 113.693697 
L 110.980831 111.156784 
L 111.19511 114.539505 
L 111.405897 114.53925 
L 111.617215 112.847889 
L 111.827039 112.8484 
L 112.038435 116.231121 
L 112.251785 115.385058 
L 112.461125 119.613842 
L 112.672299 112.8484 
L 112.886083 113.693953 
L 113.09617 112.8484 
L 113.309086 116.230866 
L 113.52026 111.15704 
L 113.731058 116.230866 
L 114.152972 111.15704 
L 114.363812 114.539505 
L 114.57759 109.465424 
L 114.788187 114.539505 
L 115.21086 117.922226 
L 115.423058 112.8484 
L 115.634516 112.848145 
L 115.846165 116.230866 
L 116.057692 114.539505 
L 116.267405 107.774063 
L 116.478481 109.465424 
L 116.689677 112.848145 
L 117.114961 109.465424 
L 117.326112 112.848145 
L 117.538109 111.156784 
L 117.747003 107.774063 
L 118.169492 111.156784 
L 118.383489 109.465424 
L 118.594536 111.156784 
L 118.805316 111.156784 
L 119.017704 112.848145 
L 119.861935 101.008622 
L 120.07352 104.391343 
L 120.49546 97.625901 
L 120.706973 97.625901 
L 120.920722 99.317261 
L 121.13189 92.551819 
L 121.342075 90.860459 
L 121.555497 92.552075 
L 121.977403 85.786378 
L 122.189701 89.169099 
L 122.401066 89.169099 
L 122.610688 82.403657 
L 122.821406 85.786378 
L 123.033021 85.786122 
L 123.246735 80.712296 
L 123.458461 68.872518 
L 123.667962 63.798692 
L 123.878864 53.650274 
L 124.30341 68.872773 
L 124.515052 67.181413 
L 124.726606 72.255749 
L 125.149677 88.855846 
L 125.358643 85.786378 
L 125.572287 101.008622 
L 125.783726 101.008622 
L 125.995366 102.700237 
L 126.206747 112.848145 
L 126.41803 111.15704 
L 126.629942 111.156784 
L 126.841273 129.761749 
L 127.052588 131.45311 
L 127.264553 138.218807 
L 127.475479 134.835575 
L 127.684817 134.835575 
L 127.89591 138.218551 
L 128.110219 151.74969 
L 128.321249 144.983993 
L 128.743988 144.983738 
L 128.955623 141.601017 
L 129.167007 131.45311 
L 129.589886 134.835831 
L 129.801451 121.304947 
L 130.013211 116.23061 
L 130.223395 116.230866 
L 130.433172 106.082703 
L 130.64677 107.774063 
L 130.858368 107.774063 
L 131.069918 95.93454 
L 131.279671 104.391343 
L 131.703103 101.008366 
L 131.914837 85.786633 
L 132.338581 85.786378 
L 132.761215 65.490052 
L 132.972738 65.490052 
L 133.394412 55.34189 
L 133.606926 55.34189 
L 133.818437 51.113616 
L 134.029746 38.428285 
L 134.241375 43.502111 
L 134.45062 36.73718 
L 134.662393 43.502367 
L 134.875602 29.971228 
L 135.087445 28.280378 
L 135.508691 19.823065 
L 135.719264 23.206296 
L 135.931051 23.206041 
L 136.143049 18.131705 
L 136.568074 28.279867 
L 136.776762 26.588762 
L 136.988431 23.206041 
L 137.199694 24.897402 
L 137.410783 24.897402 
L 137.624527 23.206041 
L 137.834411 24.897402 
L 138.258494 24.897402 
L 138.681601 26.588762 
L 138.890947 24.897402 
L 139.102571 28.280123 
L 139.315843 26.588762 
L 139.527235 26.588762 
L 139.737757 23.206041 
L 139.947932 23.206041 
L 140.161861 25.743209 
L 140.373335 24.897146 
L 140.584713 24.897402 
L 140.796176 27.43457 
L 141.007202 23.205786 
L 141.428679 26.588762 
L 141.85265 23.205531 
L 142.062346 23.205786 
L 142.48791 28.279867 
L 142.69703 28.280123 
L 142.908064 24.740648 
L 143.119619 28.279867 
L 143.333191 19.82332 
L 143.543567 21.514681 
L 143.755056 24.897912 
L 144.179085 24.897146 
L 144.389525 26.588762 
L 144.60222 24.897146 
L 144.812417 24.897402 
L 145.02262 25.742954 
L 145.236573 24.282385 
L 145.656838 25.742954 
L 145.868667 21.514681 
L 146.085333 26.589017 
L 146.29368 28.280123 
L 146.510229 23.206296 
L 146.928957 26.589017 
L 147.139086 25.743209 
L 147.352745 21.514681 
L 147.776424 28.280123 
L 147.984576 26.588762 
L 148.200384 28.280123 
L 148.412127 26.588762 
L 148.621259 26.588762 
L 148.833463 29.971483 
L 149.042872 26.588762 
L 149.258116 26.588762 
L 149.464941 24.897402 
L 149.678713 21.514681 
L 149.890462 26.588762 
L 150.316049 23.206041 
L 150.525696 28.280123 
L 150.736186 21.514681 
L 150.948437 28.280123 
L 151.159168 28.280123 
L 151.371099 23.206041 
L 151.581973 24.897402 
L 151.791476 29.971483 
L 152.213141 24.897657 
L 152.424882 29.971483 
L 152.638866 29.971483 
L 152.850187 26.588762 
L 153.059253 26.588507 
L 153.27022 24.897146 
L 153.481688 26.275509 
L 153.693994 26.588762 
L 153.908577 24.897402 
L 154.120171 24.897402 
L 154.329248 26.588762 
L 154.541736 29.971483 
L 154.964205 24.897402 
L 155.175205 24.897402 
L 155.387453 21.51417 
L 155.595572 24.897657 
L 155.811085 22.892278 
L 156.022135 24.897146 
L 156.444444 24.897657 
L 156.653168 19.82332 
L 156.865115 34.199756 
L 157.075905 24.897146 
L 157.49863 31.662588 
L 157.712127 38.428285 
L 157.923386 40.119646 
L 158.347715 65.490052 
L 158.555458 73.485528 
L 158.978784 57.879058 
L 159.824228 80.712296 
L 160.038579 82.403657 
L 160.250062 85.786378 
L 160.458728 83.249465 
L 160.881465 106.082703 
L 161.095216 107.774063 
L 161.307907 106.082703 
L 161.727939 114.539505 
L 161.940855 124.687668 
L 162.364112 104.391343 
L 162.572895 112.848145 
L 162.996483 101.008622 
L 163.418878 87.477738 
L 163.631581 85.786378 
L 163.84109 86.632186 
L 164.056578 92.551819 
L 164.267474 92.551819 
L 164.476252 95.93454 
L 165.536938 129.761749 
L 165.743877 126.379028 
L 166.379538 139.909912 
L 166.591337 139.909912 
L 166.801351 146.675354 
L 167.014066 148.366714 
L 167.225804 144.983993 
L 167.438327 144.983993 
L 167.649228 136.527191 
L 167.858847 138.218551 
L 168.494611 128.070389 
L 168.70678 129.405606 
L 168.918389 129.761749 
L 169.341058 129.761749 
L 169.55189 122.996307 
L 169.763984 126.379028 
L 169.975223 124.687668 
L 170.186807 121.304947 
L 170.398243 121.305202 
L 171.030767 116.230866 
L 171.243686 116.230866 
L 171.666624 112.848145 
L 171.878222 113.463162 
L 172.300558 112.002592 
L 172.509929 111.156529 
L 172.724511 114.53925 
L 172.932937 111.156529 
L 173.145601 112.8484 
L 173.357337 112.848145 
L 173.566577 116.230866 
L 173.78039 112.848145 
L 173.989784 114.539505 
L 174.203044 114.226252 
L 174.414759 114.539505 
L 174.626411 117.921971 
L 174.836165 111.156784 
L 175.049402 113.693697 
L 175.260287 112.847634 
L 175.47268 116.230866 
L 175.682518 111.15704 
L 176.106422 111.15704 
L 176.315692 109.465424 
L 176.52697 112.848145 
L 176.739132 107.774063 
L 176.952185 114.539505 
L 177.1638 112.002592 
L 177.373524 107.774063 
L 177.586753 111.156784 
L 178.009221 107.774319 
L 178.218526 107.774063 
L 178.642259 104.391343 
L 178.854463 106.082703 
L 179.066546 104.391343 
L 179.275535 106.082703 
L 179.487293 104.391343 
L 179.698562 101.008622 
L 179.911826 101.008622 
L 180.121375 97.625901 
L 180.334108 101.008622 
L 180.545451 99.317261 
L 180.755978 92.551819 
L 180.967564 97.625901 
L 181.392389 90.860459 
L 181.602182 90.860459 
L 181.814743 87.477738 
L 182.235847 89.169099 
L 182.447704 89.169099 
L 182.658801 85.786378 
L 183.293588 94.24318 
L 183.504382 92.551819 
L 183.717783 94.24318 
L 184.141032 82.403657 
L 184.352143 85.786378 
L 184.563762 82.403657 
L 184.77509 75.638215 
L 184.987466 77.32932 
L 185.621888 60.415716 
L 185.832131 60.415971 
L 186.043674 57.03325 
L 186.254181 44.880219 
L 186.464532 48.576448 
L 186.678113 40.11939 
L 186.887283 37.582733 
L 187.098982 40.11939 
L 187.312093 53.650274 
L 187.524485 48.576703 
L 187.733545 63.798437 
L 187.947137 63.798692 
L 188.15649 73.946855 
L 188.369331 75.638215 
L 188.580245 75.638726 
L 188.791738 84.094762 
L 189.213347 63.798947 
L 189.636315 60.415971 
L 190.060007 43.502622 
L 190.270301 43.502367 
L 190.484777 29.125675 
L 190.695181 29.971738 
L 190.904797 28.279867 
L 191.117579 31.663099 
L 191.327732 26.588762 
L 191.961775 21.207045 
L 192.176279 21.514681 
L 192.387541 21.514681 
L 192.807696 26.588762 
L 193.01962 23.206041 
L 193.234562 24.897402 
L 193.442006 31.662843 
L 193.65555 29.971738 
L 194.078729 21.514681 
L 194.499755 24.897402 
L 194.710781 21.514681 
L 195.344978 27.434315 
L 195.556651 26.588762 
L 195.768746 26.588762 
L 196.190703 21.514681 
L 196.404838 26.588762 
L 196.615529 26.588762 
L 197.038451 23.206296 
L 197.250175 23.205786 
L 197.460099 24.897402 
L 197.672002 24.897402 
L 197.884492 26.588762 
L 198.096 24.897402 
L 198.305424 29.971738 
L 198.517002 23.206041 
L 198.727954 24.051849 
L 198.941649 23.205786 
L 199.151116 28.280378 
L 199.364595 23.205786 
L 199.57446 28.279867 
L 199.787809 26.588762 
L 199.998645 26.588762 
L 200.20919 24.897402 
L 200.4197 19.509812 
L 200.633499 24.897402 
L 201.267049 24.897402 
L 201.690378 28.279867 
L 201.899437 21.514681 
L 202.324952 24.051849 
L 202.533786 24.897657 
L 202.956878 28.280123 
L 203.168468 26.589017 
L 203.380116 26.588762 
L 203.591222 23.206041 
L 203.802345 28.280123 
L 204.016114 24.897402 
L 204.437571 24.897402 
L 204.862229 28.280123 
L 205.072721 27.43457 
L 205.495479 23.206041 
L 206.12857 33.354204 
L 206.552771 24.897402 
L 206.763943 23.205786 
L 206.975435 22.74497 
L 207.18507 27.43457 
L 207.396773 23.206296 
L 207.819731 26.588762 
L 208.032074 19.82332 
L 208.244184 21.514681 
L 208.455974 28.280123 
L 208.665218 26.588762 
L 208.877811 26.588507 
L 209.30085 23.206296 
L 209.512329 24.897402 
L 209.723983 23.206296 
L 210.144913 28.280378 
L 210.358264 24.897402 
L 210.779509 28.280633 
L 210.994035 21.514681 
L 211.203711 28.279867 
L 211.414643 21.514681 
L 211.837669 29.971738 
L 212.049148 26.99137 
L 212.260764 33.354204 
L 212.471147 24.897146 
L 212.894064 24.897657 
L 213.105085 29.971483 
L 213.316572 28.280123 
L 213.529151 23.206041 
L 213.739802 23.206041 
L 213.951761 29.971483 
L 214.162767 26.588762 
L 214.374412 29.971483 
L 214.585913 26.588762 
L 214.797134 38.428285 
L 215.00902 41.811006 
L 215.219099 35.045564 
L 215.43142 40.119646 
L 215.643003 51.959169 
L 215.854252 57.03325 
L 216.065557 55.34189 
L 216.276284 68.873028 
L 216.488246 65.490052 
L 216.699878 70.564134 
L 216.911164 72.255494 
L 217.122828 72.255494 
L 217.333279 77.329575 
L 217.545768 70.564134 
L 217.968311 77.329575 
L 218.390942 87.477738 
L 218.603007 89.169099 
L 218.813661 92.551819 
L 219.025353 98.471453 
L 219.236949 99.317261 
L 219.448055 104.391343 
L 219.659854 104.391598 
L 219.870435 107.774063 
L 220.082337 106.082703 
L 220.29332 102.699727 
L 220.505405 107.774063 
L 220.717051 106.082448 
L 220.928317 107.774063 
L 221.140347 112.8484 
L 221.561879 112.848145 
L 221.985264 116.230866 
L 222.407576 122.996052 
L 222.619962 129.761749 
L 222.831231 131.45311 
L 223.04282 136.52668 
L 223.254121 138.218551 
L 223.465469 126.379284 
L 223.677047 126.378773 
L 224.099265 133.14447 
L 224.310814 128.070644 
L 224.733936 134.835831 
L 224.945587 133.14447 
L 225.157891 134.835831 
L 225.367841 138.138132 
L 225.579756 143.292888 
L 225.790675 144.983993 
L 226.002759 141.601528 
L 226.213965 143.292122 
L 226.848154 134.836086 
L 227.059675 136.527446 
L 227.270873 134.835831 
L 227.482557 134.835831 
L 227.482557 134.835831 
" clip-path="url(#pb43e61b55e)" style="fill: none; stroke: #0000ff; stroke-linecap: square"/>
   </g>
   <g id="line2d_15">
    <path d="M 50.099375 25.790951 
L 235.929375 25.790951 
" clip-path="url(#pb43e61b55e)" style="fill: none; stroke-dasharray: 3.7,1.6; stroke-dashoffset: 0; stroke: #000000; stroke-opacity: 0.7"/>
   </g>
   <g id="patch_3">
    <path d="M 50.099375 160.20625 
L 50.099375 11.36625 
" style="fill: none; stroke: #000000; stroke-width: 0.8; stroke-linejoin: miter; stroke-linecap: square"/>
   </g>
   <g id="patch_4">
    <path d="M 235.929375 160.20625 
L 235.929375 11.36625 
" style="fill: none; stroke: #000000; stroke-width: 0.8; stroke-linejoin: miter; stroke-linecap: square"/>
   </g>
   <g id="patch_5">
    <path d="M 50.099375 160.20625 
L 235.929375 160.20625 
" style="fill: none; stroke: #000000; stroke-width: 0.8; stroke-linejoin: miter; stroke-linecap: square"/>
   </g>
   <g id="patch_6">
    <path d="M 50.099375 11.36625 
L 235.929375 11.36625 
" style="fill: none; stroke: #000000; stroke-width: 0.8; stroke-linejoin: miter; stroke-linecap: square"/>
   </g>
  </g>
  <g id="axes_2">
   <g id="patch_7">
    <path d="M 295.979375 160.20625 
L 481.809375 160.20625 
L 481.809375 11.36625 
L 295.979375 11.36625 
z
" style="fill: #ffffff"/>
   </g>
   <g id="matplotlib.axis_3">
    <g id="xtick_4">
     <g id="line2d_16">
      <path d="M 304.426193 160.20625 
L 304.426193 11.36625 
" clip-path="url(#p4403bbcbec)" style="fill: none; stroke: #b0b0b0; stroke-opacity: 0.3; stroke-width: 0.8; stroke-linecap: square"/>
     </g>
     <g id="line2d_17">
      <g>
       <use xlink:href="#m1b1bf23e76" x="304.426193" y="160.20625" style="stroke: #000000; stroke-width: 0.8"/>
      </g>
     </g>
     <g id="text_9">
      <!-- 0 -->
      <g transform="translate(301.426193 175.53875) scale(0.12 -0.12)">
       <use xlink:href="#TimesNewRomanPSMT-30"/>
      </g>
     </g>
    </g>
    <g id="xtick_5">
     <g id="line2d_18">
      <path d="M 367.857877 160.20625 
L 367.857877 11.36625 
" clip-path="url(#p4403bbcbec)" style="fill: none; stroke: #b0b0b0; stroke-opacity: 0.3; stroke-width: 0.8; stroke-linecap: square"/>
     </g>
     <g id="line2d_19">
      <g>
       <use xlink:href="#m1b1bf23e76" x="367.857877" y="160.20625" style="stroke: #000000; stroke-width: 0.8"/>
      </g>
     </g>
     <g id="text_10">
      <!-- 10 -->
      <g transform="translate(361.857877 175.53875) scale(0.12 -0.12)">
       <use xlink:href="#TimesNewRomanPSMT-31"/>
       <use xlink:href="#TimesNewRomanPSMT-30" x="50"/>
      </g>
     </g>
    </g>
    <g id="xtick_6">
     <g id="line2d_20">
      <path d="M 431.28956 160.20625 
L 431.28956 11.36625 
" clip-path="url(#p4403bbcbec)" style="fill: none; stroke: #b0b0b0; stroke-opacity: 0.3; stroke-width: 0.8; stroke-linecap: square"/>
     </g>
     <g id="line2d_21">
      <g>
       <use xlink:href="#m1b1bf23e76" x="431.28956" y="160.20625" style="stroke: #000000; stroke-width: 0.8"/>
      </g>
     </g>
     <g id="text_11">
      <!-- 20 -->
      <g transform="translate(425.28956 175.53875) scale(0.12 -0.12)">
       <use xlink:href="#TimesNewRomanPSMT-32"/>
       <use xlink:href="#TimesNewRomanPSMT-30" x="50"/>
      </g>
     </g>
    </g>
    <g id="text_12">
     <!-- $t$ [s] -->
     <g transform="translate(379.354375 190.438125) scale(0.12 -0.12)">
      <use xlink:href="#STIXGeneral-Italic-74" transform="translate(0 0.28125)"/>
      <use xlink:href="#TimesNewRomanPSMT-20" transform="translate(27.799988 0.28125)"/>
      <use xlink:href="#TimesNewRomanPSMT-5b" transform="translate(52.799988 0.28125)"/>
      <use xlink:href="#TimesNewRomanPSMT-73" transform="translate(86.100769 0.28125)"/>
      <use xlink:href="#TimesNewRomanPSMT-5d" transform="translate(125.016785 0.28125)"/>
     </g>
    </g>
   </g>
   <g id="matplotlib.axis_4">
    <g id="ytick_4">
     <g id="line2d_22">
      <path d="M 295.979375 160.20625 
L 481.809375 160.20625 
" clip-path="url(#p4403bbcbec)" style="fill: none; stroke: #b0b0b0; stroke-opacity: 0.3; stroke-width: 0.8; stroke-linecap: square"/>
     </g>
     <g id="line2d_23">
      <g>
       <use xlink:href="#m6bb4b781e6" x="295.979375" y="160.20625" style="stroke: #000000; stroke-width: 0.8"/>
      </g>
     </g>
     <g id="text_13">
      <!-- −1.5 -->
      <g transform="translate(267.2125 164.3725) scale(0.12 -0.12)">
       <defs>
        <path id="TimesNewRomanPSMT-2212" d="M 3484 2000 
L 116 2000 
L 116 2256 
L 3484 2256 
L 3484 2000 
z
" transform="scale(0.015625)"/>
       </defs>
       <use xlink:href="#TimesNewRomanPSMT-2212"/>
       <use xlink:href="#TimesNewRomanPSMT-31" x="56.396484"/>
       <use xlink:href="#TimesNewRomanPSMT-2e" x="106.396484"/>
       <use xlink:href="#TimesNewRomanPSMT-35" x="131.396484"/>
      </g>
     </g>
    </g>
    <g id="ytick_5">
     <g id="line2d_24">
      <path d="M 295.979375 135.399583 
L 481.809375 135.399583 
" clip-path="url(#p4403bbcbec)" style="fill: none; stroke: #b0b0b0; stroke-opacity: 0.3; stroke-width: 0.8; stroke-linecap: square"/>
     </g>
     <g id="line2d_25">
      <g>
       <use xlink:href="#m6bb4b781e6" x="295.979375" y="135.399583" style="stroke: #000000; stroke-width: 0.8"/>
      </g>
     </g>
     <g id="text_14">
      <!-- −1.0 -->
      <g transform="translate(267.2125 139.565833) scale(0.12 -0.12)">
       <use xlink:href="#TimesNewRomanPSMT-2212"/>
       <use xlink:href="#TimesNewRomanPSMT-31" x="56.396484"/>
       <use xlink:href="#TimesNewRomanPSMT-2e" x="106.396484"/>
       <use xlink:href="#TimesNewRomanPSMT-30" x="131.396484"/>
      </g>
     </g>
    </g>
    <g id="ytick_6">
     <g id="line2d_26">
      <path d="M 295.979375 110.592917 
L 481.809375 110.592917 
" clip-path="url(#p4403bbcbec)" style="fill: none; stroke: #b0b0b0; stroke-opacity: 0.3; stroke-width: 0.8; stroke-linecap: square"/>
     </g>
     <g id="line2d_27">
      <g>
       <use xlink:href="#m6bb4b781e6" x="295.979375" y="110.592917" style="stroke: #000000; stroke-width: 0.8"/>
      </g>
     </g>
     <g id="text_15">
      <!-- −0.5 -->
      <g transform="translate(267.2125 114.759167) scale(0.12 -0.12)">
       <use xlink:href="#TimesNewRomanPSMT-2212"/>
       <use xlink:href="#TimesNewRomanPSMT-30" x="56.396484"/>
       <use xlink:href="#TimesNewRomanPSMT-2e" x="106.396484"/>
       <use xlink:href="#TimesNewRomanPSMT-35" x="131.396484"/>
      </g>
     </g>
    </g>
    <g id="ytick_7">
     <g id="line2d_28">
      <path d="M 295.979375 85.78625 
L 481.809375 85.78625 
" clip-path="url(#p4403bbcbec)" style="fill: none; stroke: #b0b0b0; stroke-opacity: 0.3; stroke-width: 0.8; stroke-linecap: square"/>
     </g>
     <g id="line2d_29">
      <g>
       <use xlink:href="#m6bb4b781e6" x="295.979375" y="85.78625" style="stroke: #000000; stroke-width: 0.8"/>
      </g>
     </g>
     <g id="text_16">
      <!-- 0.0 -->
      <g transform="translate(273.979375 89.9525) scale(0.12 -0.12)">
       <use xlink:href="#TimesNewRomanPSMT-30"/>
       <use xlink:href="#TimesNewRomanPSMT-2e" x="50"/>
       <use xlink:href="#TimesNewRomanPSMT-30" x="75"/>
      </g>
     </g>
    </g>
    <g id="ytick_8">
     <g id="line2d_30">
      <path d="M 295.979375 60.979583 
L 481.809375 60.979583 
" clip-path="url(#p4403bbcbec)" style="fill: none; stroke: #b0b0b0; stroke-opacity: 0.3; stroke-width: 0.8; stroke-linecap: square"/>
     </g>
     <g id="line2d_31">
      <g>
       <use xlink:href="#m6bb4b781e6" x="295.979375" y="60.979583" style="stroke: #000000; stroke-width: 0.8"/>
      </g>
     </g>
     <g id="text_17">
      <!-- 0.5 -->
      <g transform="translate(273.979375 65.145833) scale(0.12 -0.12)">
       <use xlink:href="#TimesNewRomanPSMT-30"/>
       <use xlink:href="#TimesNewRomanPSMT-2e" x="50"/>
       <use xlink:href="#TimesNewRomanPSMT-35" x="75"/>
      </g>
     </g>
    </g>
    <g id="ytick_9">
     <g id="line2d_32">
      <path d="M 295.979375 36.172917 
L 481.809375 36.172917 
" clip-path="url(#p4403bbcbec)" style="fill: none; stroke: #b0b0b0; stroke-opacity: 0.3; stroke-width: 0.8; stroke-linecap: square"/>
     </g>
     <g id="line2d_33">
      <g>
       <use xlink:href="#m6bb4b781e6" x="295.979375" y="36.172917" style="stroke: #000000; stroke-width: 0.8"/>
      </g>
     </g>
     <g id="text_18">
      <!-- 1.0 -->
      <g transform="translate(273.979375 40.339167) scale(0.12 -0.12)">
       <use xlink:href="#TimesNewRomanPSMT-31"/>
       <use xlink:href="#TimesNewRomanPSMT-2e" x="50"/>
       <use xlink:href="#TimesNewRomanPSMT-30" x="75"/>
      </g>
     </g>
    </g>
    <g id="ytick_10">
     <g id="line2d_34">
      <path d="M 295.979375 11.36625 
L 481.809375 11.36625 
" clip-path="url(#p4403bbcbec)" style="fill: none; stroke: #b0b0b0; stroke-opacity: 0.3; stroke-width: 0.8; stroke-linecap: square"/>
     </g>
     <g id="line2d_35">
      <g>
       <use xlink:href="#m6bb4b781e6" x="295.979375" y="11.36625" style="stroke: #000000; stroke-width: 0.8"/>
      </g>
     </g>
     <g id="text_19">
      <!-- 1.5 -->
      <g transform="translate(273.979375 15.5325) scale(0.12 -0.12)">
       <use xlink:href="#TimesNewRomanPSMT-31"/>
       <use xlink:href="#TimesNewRomanPSMT-2e" x="50"/>
       <use xlink:href="#TimesNewRomanPSMT-35" x="75"/>
      </g>
     </g>
    </g>
    <g id="text_20">
     <!-- $\omega$ [rad/s] -->
     <g transform="translate(260.645625 107.08625) rotate(-90) scale(0.12 -0.12)">
      <defs>
       <path id="STIXGeneral-Italic-3c9" d="M 3021 2810 
L 3136 2810 
Q 3648 2810 3898 2598 
Q 4186 2355 4186 1824 
Q 4186 1357 3910 838 
Q 3667 390 3334 160 
Q 3002 -70 2669 -70 
Q 2438 -70 2281 3 
Q 2125 77 2064 160 
Q 2003 243 1939 384 
Q 1741 147 1533 38 
Q 1325 -70 998 -70 
Q 659 -70 416 160 
Q 173 390 173 832 
Q 173 1101 237 1350 
Q 403 1965 883 2387 
Q 1363 2810 2010 2810 
L 2125 2810 
L 2125 2707 
Q 1606 2707 1267 2291 
Q 1024 1990 867 1526 
Q 710 1062 710 666 
Q 710 64 1075 64 
Q 1286 64 1523 285 
Q 1760 506 1856 774 
Q 1837 915 1837 1101 
Q 1837 1363 1914 1651 
Q 1984 1920 2125 2105 
Q 2266 2291 2432 2291 
Q 2656 2291 2656 1997 
Q 2656 1530 2387 1062 
Q 2272 864 2189 736 
Q 2176 691 2176 602 
Q 2176 384 2288 224 
Q 2400 64 2592 64 
Q 3040 64 3341 627 
Q 3482 896 3565 1270 
Q 3648 1645 3648 1971 
Q 3648 2240 3616 2362 
Q 3565 2566 3411 2636 
Q 3258 2707 3021 2707 
L 3021 2810 
z
" transform="scale(0.015625)"/>
       <path id="TimesNewRomanPSMT-72" d="M 1038 2947 
L 1038 2303 
Q 1397 2947 1775 2947 
Q 1947 2947 2059 2842 
Q 2172 2738 2172 2600 
Q 2172 2478 2090 2393 
Q 2009 2309 1897 2309 
Q 1788 2309 1652 2417 
Q 1516 2525 1450 2525 
Q 1394 2525 1328 2463 
Q 1188 2334 1038 2041 
L 1038 669 
Q 1038 431 1097 309 
Q 1138 225 1241 169 
Q 1344 113 1538 113 
L 1538 0 
L 72 0 
L 72 113 
Q 291 113 397 181 
Q 475 231 506 341 
Q 522 394 522 644 
L 522 1753 
Q 522 2253 501 2348 
Q 481 2444 426 2487 
Q 372 2531 291 2531 
Q 194 2531 72 2484 
L 41 2597 
L 906 2947 
L 1038 2947 
z
" transform="scale(0.015625)"/>
       <path id="TimesNewRomanPSMT-61" d="M 1822 413 
Q 1381 72 1269 19 
Q 1100 -59 909 -59 
Q 613 -59 420 144 
Q 228 347 228 678 
Q 228 888 322 1041 
Q 450 1253 767 1440 
Q 1084 1628 1822 1897 
L 1822 2009 
Q 1822 2438 1686 2597 
Q 1550 2756 1291 2756 
Q 1094 2756 978 2650 
Q 859 2544 859 2406 
L 866 2225 
Q 866 2081 792 2003 
Q 719 1925 600 1925 
Q 484 1925 411 2006 
Q 338 2088 338 2228 
Q 338 2497 613 2722 
Q 888 2947 1384 2947 
Q 1766 2947 2009 2819 
Q 2194 2722 2281 2516 
Q 2338 2381 2338 1966 
L 2338 994 
Q 2338 584 2353 492 
Q 2369 400 2405 369 
Q 2441 338 2488 338 
Q 2538 338 2575 359 
Q 2641 400 2828 588 
L 2828 413 
Q 2478 -56 2159 -56 
Q 2006 -56 1915 50 
Q 1825 156 1822 413 
z
M 1822 616 
L 1822 1706 
Q 1350 1519 1213 1441 
Q 966 1303 859 1153 
Q 753 1003 753 825 
Q 753 600 887 451 
Q 1022 303 1197 303 
Q 1434 303 1822 616 
z
" transform="scale(0.015625)"/>
       <path id="TimesNewRomanPSMT-64" d="M 2222 322 
Q 2013 103 1813 7 
Q 1613 -88 1381 -88 
Q 913 -88 563 304 
Q 213 697 213 1313 
Q 213 1928 600 2439 
Q 988 2950 1597 2950 
Q 1975 2950 2222 2709 
L 2222 3238 
Q 2222 3728 2198 3840 
Q 2175 3953 2125 3993 
Q 2075 4034 2000 4034 
Q 1919 4034 1784 3984 
L 1744 4094 
L 2597 4444 
L 2738 4444 
L 2738 1134 
Q 2738 631 2761 520 
Q 2784 409 2836 365 
Q 2888 322 2956 322 
Q 3041 322 3181 375 
L 3216 266 
L 2366 -88 
L 2222 -88 
L 2222 322 
z
M 2222 541 
L 2222 2016 
Q 2203 2228 2109 2403 
Q 2016 2578 1861 2667 
Q 1706 2756 1559 2756 
Q 1284 2756 1069 2509 
Q 784 2184 784 1559 
Q 784 928 1059 592 
Q 1334 256 1672 256 
Q 1956 256 2222 541 
z
" transform="scale(0.015625)"/>
      </defs>
      <use xlink:href="#STIXGeneral-Italic-3c9" transform="translate(0 0.5625)"/>
      <use xlink:href="#TimesNewRomanPSMT-20" transform="translate(68.599991 0.5625)"/>
      <use xlink:href="#TimesNewRomanPSMT-5b" transform="translate(93.599991 0.5625)"/>
      <use xlink:href="#TimesNewRomanPSMT-72" transform="translate(126.900772 0.5625)"/>
      <use xlink:href="#TimesNewRomanPSMT-61" transform="translate(160.201553 0.5625)"/>
      <use xlink:href="#TimesNewRomanPSMT-64" transform="translate(204.586319 0.5625)"/>
      <use xlink:href="#TimesNewRomanPSMT-2f" transform="translate(254.586319 0.5625)"/>
      <use xlink:href="#TimesNewRomanPSMT-73" transform="translate(282.369522 0.5625)"/>
      <use xlink:href="#TimesNewRomanPSMT-5d" transform="translate(321.285538 0.5625)"/>
     </g>
    </g>
   </g>
   <g id="line2d_36">
    <path d="M 304.426193 85.78625 
L 310.766933 85.702007 
L 311.617201 85.593552 
L 311.82651 85.62838 
L 312.037961 85.528459 
L 314.152188 85.78625 
L 314.363675 86.406367 
L 314.575094 87.597583 
L 315.207372 87.634644 
L 315.419588 87.64675 
L 315.844153 87.059378 
L 316.47595 86.807689 
L 316.899086 85.911375 
L 317.324675 85.78625 
L 317.5355 85.923183 
L 317.747065 86.267152 
L 318.168444 86.280548 
L 318.592418 84.470356 
L 319.015408 84.509997 
L 319.437653 83.331878 
L 319.86124 83.327463 
L 320.282012 82.756413 
L 320.704741 83.207647 
L 321.129787 85.78625 
L 321.338906 85.925862 
L 321.550529 85.919115 
L 322.184806 86.737685 
L 322.396127 86.718137 
L 322.819165 85.928194 
L 323.241938 85.878382 
L 323.667176 86.520875 
L 324.087778 86.528763 
L 324.300402 86.804861 
L 324.510548 87.273013 
L 324.935718 87.249794 
L 325.358568 86.791863 
L 325.779182 86.729251 
L 326.204329 85.413009 
L 326.627482 85.346477 
L 326.837843 85.684791 
L 327.047897 86.279754 
L 327.472903 86.289478 
L 327.895298 82.997137 
L 328.319148 83.029684 
L 328.534384 82.663289 
L 329.164175 82.549278 
L 329.800987 86.134784 
L 330.012152 86.228751 
L 330.43522 86.949931 
L 330.856125 87.038044 
L 331.282238 84.991147 
L 331.703179 85.029845 
L 331.916834 85.78625 
L 332.124728 87.440011 
L 332.340411 87.586718 
L 332.763171 87.530952 
L 332.970033 87.583791 
L 333.395252 87.396252 
L 333.817966 85.243827 
L 334.240459 85.256479 
L 334.454118 85.313088 
L 334.663103 85.519975 
L 335.087775 85.4911 
L 335.512661 86.061852 
L 335.929672 86.040369 
L 336.35374 86.383049 
L 336.778524 86.380122 
L 336.988451 86.173978 
L 337.201751 85.78625 
L 337.623709 85.78625 
L 338.048293 86.142771 
L 340.583675 66.297438 
L 343.966684 92.271655 
L 344.81271 97.435709 
L 345.65877 101.882105 
L 346.077936 103.495283 
L 346.925957 97.084 
L 354.749599 36.172917 
L 366.800722 36.172917 
L 374.201249 93.575643 
L 374.412605 93.528907 
L 374.623988 92.079552 
L 375.681451 99.628469 
L 377.371667 111.959466 
L 377.583103 113.349235 
L 377.794837 111.695424 
L 378.009568 111.616341 
L 378.218581 112.463091 
L 378.852738 108.305196 
L 379.063007 106.96638 
L 379.274412 106.441968 
L 379.486926 106.535588 
L 379.698437 105.654108 
L 379.909746 104.000347 
L 380.121375 104.404745 
L 380.33062 103.472064 
L 380.542393 103.827295 
L 381.176349 99.223525 
L 381.388691 98.996346 
L 382.235956 97.213788 
L 382.448074 97.19042 
L 382.656762 96.511263 
L 383.079694 96.442003 
L 383.714411 95.350956 
L 383.924906 93.697195 
L 384.349923 92.796167 
L 384.561601 92.662757 
L 384.770947 92.785947 
L 384.982571 93.089978 
L 385.407235 92.136459 
L 385.827932 91.392854 
L 386.464713 90.623848 
L 386.887202 90.128062 
L 387.097183 89.908027 
L 387.73265 88.723905 
L 388.156276 88.416005 
L 388.788064 87.583195 
L 388.999619 87.729158 
L 389.635056 87.208317 
L 390.059085 87.212088 
L 390.48222 86.999941 
L 390.692417 87.027526 
L 390.90262 87.431081 
L 391.325879 87.214271 
L 391.536838 86.837259 
L 392.390229 86.453996 
L 393.232745 86.138505 
L 393.447482 86.421946 
L 393.656424 86.444172 
L 393.864576 86.298954 
L 394.292127 86.324257 
L 394.713463 86.310961 
L 395.344941 86.321032 
L 395.770462 86.189656 
L 395.981392 85.723043 
L 396.405696 85.596529 
L 396.616186 85.218425 
L 397.039168 85.114982 
L 397.461973 85.096625 
L 397.884424 85.114882 
L 398.304882 84.985788 
L 398.518866 84.329305 
L 399.788577 84.340021 
L 400.421736 84.808222 
L 400.844205 84.962173 
L 401.055205 85.288182 
L 401.475572 85.403185 
L 401.691085 85.971457 
L 401.902135 86.091124 
L 403.803386 100.975124 
L 404.649092 94.35998 
L 405.07275 97.667552 
L 407.398985 79.47598 
L 408.452895 76.540756 
L 408.666183 74.905302 
L 408.876483 74.449901 
L 416.698174 135.399583 
L 426.425451 135.399583 
L 426.635978 133.745822 
L 426.847564 135.399583 
L 433.827137 80.824917 
L 434.03649 81.844223 
L 434.460245 80.771731 
L 434.671738 81.33767 
L 435.093347 78.69323 
L 435.516315 75.656001 
L 435.729738 75.567293 
L 435.940007 75.662252 
L 436.150301 75.377075 
L 436.364777 75.674557 
L 436.575181 75.667313 
L 436.784797 75.82806 
L 436.997579 75.776165 
L 437.419268 76.328808 
L 439.53555 78.001273 
L 439.745838 78.413609 
L 440.170381 78.671896 
L 440.379755 78.24547 
L 440.590781 77.447836 
L 441.224978 77.758019 
L 441.648746 78.224781 
L 441.861242 78.222102 
L 442.495529 78.820191 
L 442.918451 80.160991 
L 443.552002 80.802591 
L 444.185424 80.898841 
L 444.397002 81.356176 
L 445.031116 81.118826 
L 445.244595 81.502436 
L 445.45446 81.599778 
L 445.878645 82.675296 
L 446.2997 83.197873 
L 446.513499 82.974265 
L 446.724909 82.50661 
L 447.147049 82.873302 
L 447.570378 84.887256 
L 447.993015 85.1768 
L 448.413786 84.205718 
L 449.048468 84.337392 
L 449.260116 84.026862 
L 449.896114 84.314024 
L 450.105305 84.276566 
L 450.530173 84.478046 
L 451.163618 85.46937 
L 451.375479 85.49502 
L 451.587306 85.090225 
L 451.800313 84.370534 
L 452.00857 84.251164 
L 452.219466 84.5096 
L 452.432771 84.195398 
L 452.643943 83.47149 
L 453.06507 83.58059 
L 453.487846 85.114982 
L 454.124184 85.579164 
L 454.545218 86.023005 
L 454.757811 86.148477 
L 455.392329 87.284722 
L 455.603983 87.280058 
L 456.024913 89.549223 
L 456.44944 89.519703 
L 457.083711 90.163535 
L 457.294643 89.979569 
L 457.506256 89.491175 
L 457.717669 88.658664 
L 457.929148 88.450288 
L 458.140764 88.44994 
L 458.563634 87.985609 
L 458.985085 87.891592 
L 459.196572 88.527436 
L 459.409151 90.063217 
L 459.619802 90.429661 
L 459.831761 90.446282 
L 460.042767 89.860547 
L 460.254412 88.866395 
L 460.677134 88.590445 
L 461.31142 86.675073 
L 461.523003 86.506338 
L 461.945557 86.588101 
L 462.368246 86.479299 
L 462.579878 86.730392 
L 462.791164 87.406671 
L 463.213279 87.404389 
L 463.425768 88.065338 
L 463.636245 89.220485 
L 464.059307 89.299569 
L 464.483007 90.194792 
L 464.905353 90.148453 
L 465.328055 88.113264 
L 465.750435 87.797674 
L 465.962337 88.774015 
L 466.17332 90.427776 
L 466.808317 90.534097 
L 467.020347 90.644884 
L 467.441879 90.595221 
L 467.865264 93.902793 
L 468.076272 94.233367 
L 468.499962 92.13765 
L 468.92282 91.589125 
L 469.134121 91.894941 
L 469.557047 91.461321 
L 469.769046 92.983805 
L 469.979265 92.804254 
L 470.190814 91.741537 
L 471.037891 91.260734 
L 471.459756 91.425649 
L 472.305083 91.134815 
L 473.150873 90.755918 
L 473.362557 92.010044 
L 473.362557 92.010044 
" clip-path="url(#p4403bbcbec)" style="fill: none; stroke: #ff0000; stroke-opacity: 0.8; stroke-linecap: square"/>
   </g>
   <g id="line2d_37">
    <path d="M 304.426193 85.78625 
L 305.481082 85.78625 
L 305.694457 84.46083 
L 305.905811 87.111968 
L 306.1175 87.111521 
L 306.327705 85.78625 
L 306.538672 85.78625 
L 306.75209 84.460979 
L 307.597753 84.46083 
L 308.020461 88.43709 
L 308.229697 88.436991 
L 308.441855 86.448935 
L 308.653075 87.111571 
L 308.865905 83.376481 
L 309.077697 84.460929 
L 309.287733 87.111571 
L 309.500436 85.78625 
L 309.711849 87.111621 
L 310.134841 85.78625 
L 310.55756 85.78625 
L 310.766933 87.111621 
L 310.980533 85.78625 
L 311.19216 87.111621 
L 311.40501 83.135608 
L 311.617201 83.135509 
L 312.037961 88.436991 
L 312.249471 85.78625 
L 312.462441 88.43709 
L 312.671628 87.111571 
L 312.88514 87.111521 
L 313.092789 85.78625 
L 313.304356 81.810237 
L 313.515627 85.78625 
L 313.729319 84.460979 
L 313.940772 81.810138 
L 314.152188 85.78625 
L 314.363675 84.461127 
L 314.575094 87.111521 
L 314.788413 86.448886 
L 314.996152 87.11167 
L 315.207372 83.13541 
L 315.419588 84.460979 
L 315.630127 89.762362 
L 315.844153 83.13541 
L 316.052918 88.43709 
L 316.264892 88.43709 
L 316.47595 87.111819 
L 316.689793 92.412855 
L 316.899086 86.448886 
L 317.324675 89.762014 
L 317.5355 85.78625 
L 317.747065 84.460979 
L 317.959557 87.11167 
L 318.168444 87.111521 
L 318.379035 88.43709 
L 318.801684 85.78625 
L 319.015408 85.78625 
L 319.437653 83.135509 
L 319.649951 84.460929 
L 319.86124 83.135509 
L 320.072851 84.461078 
L 320.282012 88.436991 
L 320.496058 81.810089 
L 320.704741 80.484718 
L 321.129787 84.460879 
L 321.338906 83.135509 
L 321.762411 88.436991 
L 321.973836 85.78625 
L 322.184806 85.78625 
L 322.396127 89.762263 
L 322.610014 85.78625 
L 322.819165 85.78625 
L 323.033153 87.111571 
L 323.241938 85.78625 
L 323.453629 87.111521 
L 323.667176 87.111571 
L 323.877661 84.46083 
L 324.087778 87.111521 
L 324.300402 85.78625 
L 324.724231 88.436793 
L 324.935718 87.111373 
L 325.144941 88.437239 
L 325.358568 87.11167 
L 325.570243 89.762362 
L 325.779182 84.460681 
L 325.990804 89.762362 
L 326.413584 84.460979 
L 326.627482 83.798194 
L 326.837843 85.78625 
L 327.047897 81.810138 
L 327.684868 85.78625 
L 328.11185 85.78625 
L 328.319148 80.484916 
L 328.534384 84.460979 
L 328.74605 81.810138 
L 329.164175 85.78625 
L 329.375838 85.78625 
L 329.591977 79.159496 
L 330.012152 83.135558 
L 330.221416 80.484966 
L 330.43522 84.460929 
L 330.645763 81.810089 
L 330.856125 86.99111 
L 331.282238 89.762213 
L 331.490437 85.78625 
L 331.703179 84.460929 
L 332.124728 87.111621 
L 332.340411 81.810237 
L 332.549031 84.460879 
L 332.763171 89.762263 
L 332.970033 84.460929 
L 333.184931 88.437041 
L 333.395252 89.762362 
L 333.608471 86.448886 
L 333.817966 89.762362 
L 334.030144 89.762411 
L 334.240459 88.436991 
L 334.663103 88.436942 
L 334.87566 84.460979 
L 335.087775 87.111571 
L 335.300094 85.78625 
L 335.512661 87.111819 
L 335.718194 85.78625 
L 335.929672 87.11167 
L 336.141397 87.11167 
L 336.35374 84.460681 
L 336.566296 87.111521 
L 336.778524 85.78625 
L 336.988451 87.111819 
L 337.623709 83.135707 
L 338.048293 87.111819 
L 338.255202 85.540962 
L 338.469868 85.78625 
L 338.680994 85.78625 
L 338.892661 84.46083 
L 339.105625 80.484916 
L 339.314986 80.485065 
L 339.526185 83.13541 
L 339.738635 79.159496 
L 339.95078 80.484668 
L 340.16152 80.484718 
L 340.371766 76.508805 
L 340.583675 77.834076 
L 340.794326 68.556581 
L 341.006593 71.207124 
L 341.218324 68.55668 
L 341.641428 73.858113 
L 341.85202 73.858113 
L 342.061254 77.834126 
L 342.27232 79.159397 
L 342.486593 65.90584 
L 342.698715 68.556532 
L 343.33228 83.135509 
L 343.755657 85.78625 
L 343.966684 85.78625 
L 344.176881 89.762362 
L 344.38923 91.087633 
L 344.81271 87.774306 
L 345.022229 89.762362 
L 345.446855 96.389165 
L 345.866537 93.738325 
L 346.077936 95.063745 
L 346.292441 99.039807 
L 346.925957 99.039807 
L 347.13769 103.015919 
L 347.346717 101.690499 
L 347.55878 101.690548 
L 347.772166 93.738424 
L 348.194033 93.738374 
L 348.616659 85.78625 
L 348.828057 87.111571 
L 349.03808 83.135509 
L 349.250981 87.11167 
L 349.672664 83.135558 
L 349.883754 83.135509 
L 350.09887 80.484817 
L 350.518812 80.484817 
L 350.729622 75.183335 
L 351.152005 72.532643 
L 351.366682 73.858064 
L 351.786306 68.556631 
L 352.002888 68.556631 
L 352.213497 63.255198 
L 352.421589 65.905939 
L 352.635205 59.279186 
L 352.847873 59.279186 
L 353.055483 56.628395 
L 353.269151 56.628395 
L 353.478132 52.652283 
L 353.689621 53.977703 
L 353.901666 46.025529 
L 354.115745 44.700208 
L 354.326641 50.001641 
L 354.537658 47.35095 
L 354.749599 42.049517 
L 354.959714 42.049418 
L 355.383981 35.422713 
L 355.5947 38.073504 
L 355.804624 32.772072 
L 356.015383 36.748134 
L 356.227182 34.097293 
L 356.440077 35.422862 
L 356.860831 34.097293 
L 357.07511 36.748134 
L 357.285897 34.097194 
L 357.497215 35.422515 
L 357.707039 35.422862 
L 357.918435 38.073703 
L 358.131785 37.41072 
L 358.341125 38.073603 
L 358.552299 35.422862 
L 358.766083 37.410769 
L 358.97617 35.422862 
L 359.189086 38.073355 
L 359.40026 34.097591 
L 359.611058 35.422763 
L 359.823366 38.073455 
L 360.032972 36.748183 
L 360.243812 36.748134 
L 360.45759 35.422614 
L 360.668187 36.748134 
L 360.87858 35.422763 
L 361.09086 36.748034 
L 361.303058 32.77222 
L 361.514516 36.748084 
L 361.726165 38.073504 
L 361.937692 36.748134 
L 362.147405 34.097392 
L 362.358481 35.422813 
L 362.569677 35.422713 
L 362.781012 36.748034 
L 362.994961 36.748084 
L 363.206112 35.422713 
L 363.418109 36.748084 
L 363.627003 36.748084 
L 363.838438 35.422713 
L 364.049492 36.748134 
L 364.263489 35.422713 
L 364.474536 39.398776 
L 364.685316 36.748134 
L 364.897704 38.073405 
L 365.108722 38.073455 
L 365.320402 36.748084 
L 365.95352 36.748084 
L 366.164091 34.097343 
L 366.37546 34.097293 
L 366.800722 38.073504 
L 367.01189 38.073405 
L 367.222075 36.747985 
L 367.435497 38.073554 
L 367.644874 38.073355 
L 367.857403 36.748084 
L 368.069701 38.073504 
L 368.281066 43.374689 
L 368.490688 40.724146 
L 369.338461 51.326863 
L 369.547962 50.001691 
L 369.971874 59.279037 
L 370.18341 59.278987 
L 370.395052 57.953765 
L 370.606606 59.279235 
L 371.029677 69.636564 
L 371.238643 61.929778 
L 371.452287 68.556532 
L 371.663726 68.556532 
L 371.875366 69.882101 
L 372.086747 75.183335 
L 372.29803 71.207471 
L 372.509942 73.858113 
L 372.932588 84.460929 
L 373.144553 84.461078 
L 373.355479 79.159298 
L 373.564817 87.111472 
L 373.77591 87.11167 
L 373.990219 89.76256 
L 374.201249 89.762411 
L 374.412605 87.111769 
L 374.623988 87.111472 
L 374.835623 89.762213 
L 375.047007 87.111571 
L 375.258383 93.738325 
L 375.469886 92.413004 
L 375.681451 92.413053 
L 375.893211 93.738225 
L 376.103395 96.389165 
L 376.313172 96.389115 
L 376.52677 97.714387 
L 376.738368 97.714387 
L 376.949918 104.34124 
L 377.159671 100.365078 
L 377.371667 104.340992 
L 377.794837 106.99213 
L 378.009568 106.991832 
L 378.218581 109.642821 
L 378.4299 114.944204 
L 378.641215 106.991832 
L 378.852738 114.944204 
L 379.063007 106.991981 
L 379.274412 109.642672 
L 379.486926 109.642672 
L 379.698437 107.654567 
L 379.909746 106.99213 
L 380.121375 108.317401 
L 380.33062 103.01572 
L 380.542393 108.31755 
L 380.967445 104.341141 
L 381.176349 103.261654 
L 381.388691 100.365227 
L 381.599264 103.01572 
L 382.023049 96.389264 
L 382.235956 97.714436 
L 382.448074 96.389264 
L 382.656762 97.714536 
L 382.868431 95.063844 
L 383.079694 96.389016 
L 383.290783 93.738424 
L 383.504527 95.063646 
L 383.714411 93.738424 
L 384.138494 93.738424 
L 384.349923 96.630087 
L 384.561601 92.413004 
L 384.770947 91.087584 
L 384.982571 93.738424 
L 385.195843 92.413103 
L 385.407235 97.714436 
L 385.617757 92.413004 
L 385.827932 92.413004 
L 386.041861 91.750368 
L 386.253335 93.738275 
L 386.464713 91.087683 
L 386.676176 90.424997 
L 386.887202 87.111422 
L 387.097183 91.087584 
L 387.308679 89.762362 
L 387.522167 91.087683 
L 387.73265 89.762213 
L 387.942346 89.762014 
L 388.156276 88.436991 
L 388.57703 88.436942 
L 388.788064 88.314049 
L 388.999619 91.087584 
L 389.213191 87.111521 
L 389.423567 88.436793 
L 389.635056 88.436793 
L 389.847143 85.78625 
L 390.059085 88.436793 
L 390.269525 84.460681 
L 390.48222 83.135707 
L 390.692417 85.78625 
L 390.90262 86.448886 
L 391.116573 88.19597 
L 391.325879 88.436942 
L 391.536838 87.774355 
L 391.748667 85.78625 
L 391.965333 87.111521 
L 392.17368 85.78625 
L 392.390229 87.111373 
L 392.596822 85.78625 
L 392.808957 87.111422 
L 393.232745 85.78625 
L 393.447482 85.78625 
L 393.656424 83.135558 
L 393.864576 84.46083 
L 394.080384 88.436942 
L 394.292127 84.46083 
L 394.713463 84.460929 
L 394.922872 87.11167 
L 395.138116 87.111571 
L 395.344941 85.78625 
L 395.558713 85.78625 
L 395.770462 84.460929 
L 396.196049 87.111621 
L 396.405696 85.78625 
L 396.616186 88.436991 
L 396.828437 88.436991 
L 397.039168 83.135558 
L 397.251099 87.111571 
L 397.461973 83.135509 
L 397.671476 84.460979 
L 397.884424 84.460929 
L 398.093141 85.78625 
L 398.304882 84.460979 
L 398.730187 84.461127 
L 398.939253 87.111373 
L 399.15022 83.135558 
L 399.361688 84.215541 
L 399.573994 87.11167 
L 399.788577 83.13541 
L 400.000171 85.78625 
L 400.209248 84.460681 
L 400.421736 81.809841 
L 400.63035 84.460979 
L 400.844205 80.484916 
L 401.055205 83.13541 
L 401.475572 83.135558 
L 401.691085 87.357107 
L 401.902135 85.78625 
L 402.324444 85.78625 
L 402.745115 89.099577 
L 402.955905 77.834225 
L 403.37863 91.087782 
L 403.592127 91.087782 
L 403.803386 92.413004 
L 404.227715 99.039857 
L 404.435458 97.834947 
L 404.649092 97.714337 
L 404.858784 93.075639 
L 405.07275 92.413103 
L 405.280992 93.738325 
L 405.493132 100.365178 
L 405.704228 100.365078 
L 406.130062 91.087683 
L 406.338728 93.075689 
L 406.549942 88.436991 
L 406.761465 88.436942 
L 406.975216 89.762312 
L 407.187907 88.436991 
L 407.398985 83.135558 
L 407.607939 81.810138 
L 407.820855 81.810188 
L 408.031627 73.858014 
L 408.244112 81.810138 
L 408.452895 83.135608 
L 408.876483 76.508755 
L 409.086729 77.834175 
L 409.298878 76.508755 
L 409.511581 77.834126 
L 409.72109 73.195428 
L 409.936578 80.484867 
L 410.147474 77.834076 
L 410.356252 80.484768 
L 410.569017 80.484718 
L 410.993058 85.78625 
L 411.20551 85.78625 
L 411.416938 88.436892 
L 411.623877 85.78625 
L 411.838652 88.436942 
L 412.050238 88.437041 
L 412.471337 93.738325 
L 412.681351 93.738424 
L 412.894066 95.063695 
L 413.105804 97.714387 
L 413.318327 97.714436 
L 413.954094 108.317352 
L 414.16185 109.642672 
L 414.374611 113.618685 
L 414.798389 112.293414 
L 415.221058 112.293364 
L 415.43189 120.245389 
L 415.643984 120.245538 
L 415.855223 121.570809 
L 416.066807 124.22155 
L 416.278243 124.22165 
L 416.490161 128.197712 
L 416.698174 128.860298 
L 416.910767 128.197563 
L 417.123686 128.197563 
L 417.546624 136.149588 
L 417.758222 133.980989 
L 417.970659 136.149787 
L 418.389929 137.475207 
L 418.812937 137.475207 
L 419.025601 138.80028 
L 419.237337 136.149588 
L 419.66039 136.149588 
L 419.869784 134.824366 
L 420.083044 137.720644 
L 420.294759 134.824366 
L 420.506411 134.824416 
L 420.716165 137.475256 
L 421.140287 133.499343 
L 421.35268 133.499095 
L 421.562518 137.474859 
L 421.772557 137.475256 
L 421.986422 134.824366 
L 422.195692 136.149935 
L 422.40697 136.149836 
L 422.619132 134.824366 
L 422.832185 134.824416 
L 423.0438 135.487052 
L 423.253524 134.824366 
L 423.466753 134.824515 
L 423.677914 136.149787 
L 423.889221 134.824416 
L 424.098526 134.824366 
L 424.522259 137.475108 
L 424.734463 133.499095 
L 424.946546 137.475207 
L 425.155535 136.149787 
L 425.367293 137.475207 
L 425.578562 137.475157 
L 425.791826 134.824466 
L 426.214108 134.824466 
L 426.425451 136.149787 
L 426.635978 136.149787 
L 426.847564 134.824366 
L 427.058723 134.824416 
L 427.272389 132.173724 
L 427.482182 134.824416 
L 427.694743 134.824466 
L 427.90468 134.161731 
L 428.115847 128.197613 
L 428.327704 125.546971 
L 428.750186 130.848354 
L 428.964138 124.22155 
L 429.384382 120.245538 
L 429.597783 118.920118 
L 429.807469 114.944006 
L 430.021032 116.269426 
L 430.232143 112.293364 
L 430.65509 112.293364 
L 430.867466 110.968093 
L 431.077961 101.690499 
L 431.287696 105.666561 
L 431.501888 103.016068 
L 431.712131 103.01572 
L 431.923674 105.666561 
L 432.134181 99.285244 
L 432.344532 99.039807 
L 432.767283 95.72643 
L 432.978982 97.714536 
L 433.192093 89.762511 
L 433.404485 88.436793 
L 433.613545 84.46083 
L 434.03649 84.46083 
L 434.249331 83.135112 
L 434.460245 83.13541 
L 434.884778 80.484817 
L 435.093347 81.810287 
L 435.307403 80.484718 
L 435.516315 81.809989 
L 435.729738 81.810138 
L 436.150301 76.508656 
L 436.364777 78.496861 
L 436.575181 79.159794 
L 436.784797 83.13541 
L 436.997579 77.834374 
L 437.207732 79.159546 
L 437.630604 76.508706 
L 437.841775 78.557042 
L 438.056279 75.183434 
L 438.47917 75.183335 
L 438.687696 76.508755 
L 438.89962 76.508854 
L 439.114562 77.834126 
L 439.322006 77.834076 
L 439.53555 79.159546 
L 439.745838 79.159496 
L 439.958729 77.834126 
L 440.170381 79.159496 
L 440.379755 77.834076 
L 440.590781 80.484916 
L 440.802616 79.159496 
L 441.01526 80.484817 
L 441.224978 78.496811 
L 441.436651 81.810188 
L 441.648746 79.159447 
L 442.070703 77.834126 
L 442.284838 79.159645 
L 442.495529 76.508656 
L 442.705456 77.833878 
L 442.918451 76.508656 
L 443.130175 76.508805 
L 443.340099 80.484916 
L 443.552002 80.484916 
L 443.764492 81.810287 
L 443.976 80.484916 
L 444.185424 81.809989 
L 444.397002 84.461127 
L 444.821649 79.159298 
L 445.031116 83.135707 
L 445.244595 79.159298 
L 445.45446 77.834374 
L 445.878645 84.460681 
L 446.08919 81.810138 
L 446.2997 81.56485 
L 446.513499 80.484916 
L 446.724909 80.484916 
L 446.933763 83.13541 
L 447.147049 80.484916 
L 447.570378 83.13541 
L 447.779437 80.485065 
L 447.993015 81.810287 
L 448.204952 86.449035 
L 448.413786 83.135658 
L 448.627657 81.810089 
L 448.836878 85.78625 
L 449.048468 81.810287 
L 449.471222 87.111621 
L 449.682345 83.135558 
L 450.105305 88.436942 
L 450.317571 83.135509 
L 450.742229 85.78625 
L 450.952721 85.123565 
L 451.163618 83.135558 
L 451.375479 87.111571 
L 451.587306 87.111571 
L 452.00857 84.46083 
L 452.219466 85.78625 
L 452.432771 83.135658 
L 452.643943 87.111571 
L 452.855435 84.581341 
L 453.06507 83.798194 
L 453.276773 81.810138 
L 453.487846 83.13541 
L 453.699731 81.810138 
L 453.912074 87.111521 
L 454.124184 80.484718 
L 454.545218 84.46083 
L 454.757811 84.461127 
L 455.18085 81.810138 
L 455.392329 83.13541 
L 455.603983 87.111174 
L 455.815599 87.111819 
L 456.024913 88.436793 
L 456.238264 85.78625 
L 456.44944 87.111521 
L 456.659509 91.087584 
L 456.874035 88.436793 
L 457.083711 91.087584 
L 457.294643 91.087782 
L 457.506256 89.762362 
L 457.717669 89.762511 
L 457.929148 88.941956 
L 458.140764 92.413004 
L 458.351147 91.087782 
L 458.563634 88.43709 
L 458.774064 91.087782 
L 459.196572 88.436942 
L 459.409151 88.436942 
L 459.619802 89.762213 
L 460.042767 89.762312 
L 460.254412 87.111571 
L 460.465913 89.762312 
L 460.677134 88.436991 
L 460.88902 88.436991 
L 461.099099 85.78625 
L 461.31142 89.762362 
L 461.523003 91.087584 
L 461.734252 84.460879 
L 461.945557 85.78625 
L 462.156284 88.436842 
L 462.368246 85.78625 
L 462.579878 87.111571 
L 462.791164 85.78625 
L 463.002828 83.135509 
L 463.213279 87.111571 
L 463.425768 84.460929 
L 463.636245 87.111521 
L 464.059307 87.11167 
L 464.270942 88.436991 
L 464.693661 93.738374 
L 465.116949 88.436842 
L 465.328055 89.762362 
L 465.750435 89.762511 
L 465.962337 83.135558 
L 466.597051 91.087584 
L 467.020347 88.436594 
L 467.441879 88.436942 
L 467.653398 87.111373 
L 467.865264 91.087584 
L 468.076272 88.436942 
L 468.499962 93.738275 
L 468.92282 91.087931 
L 469.345469 91.087782 
L 469.557047 88.436942 
L 469.769046 90.425146 
L 469.979265 91.087435 
L 470.190814 89.762014 
L 470.401999 92.413004 
L 470.613936 87.11167 
L 471.037891 89.762213 
L 471.247841 90.204168 
L 471.459756 91.087435 
L 471.670675 89.762213 
L 471.882759 89.762213 
L 472.093965 88.43709 
L 472.305083 88.43709 
L 472.516472 89.762511 
L 472.728154 89.762362 
L 472.939675 91.087782 
L 473.150873 89.762213 
L 473.362557 89.762213 
L 473.362557 89.762213 
" clip-path="url(#p4403bbcbec)" style="fill: none; stroke: #0000ff; stroke-linecap: square"/>
   </g>
   <g id="line2d_38">
    <path d="M 295.979375 36.172917 
L 481.809375 36.172917 
" clip-path="url(#p4403bbcbec)" style="fill: none; stroke-dasharray: 7.4,3.2; stroke-dashoffset: 0; stroke: #000000; stroke-opacity: 0.7; stroke-width: 2"/>
   </g>
   <g id="line2d_39">
    <path d="M 295.979375 135.399583 
L 481.809375 135.399583 
" clip-path="url(#p4403bbcbec)" style="fill: none; stroke-dasharray: 7.4,3.2; stroke-dashoffset: 0; stroke: #000000; stroke-opacity: 0.7; stroke-width: 2"/>
   </g>
   <g id="patch_8">
    <path d="M 295.979375 160.20625 
L 295.979375 11.36625 
" style="fill: none; stroke: #000000; stroke-width: 0.8; stroke-linejoin: miter; stroke-linecap: square"/>
   </g>
   <g id="patch_9">
    <path d="M 481.809375 160.20625 
L 481.809375 11.36625 
" style="fill: none; stroke: #000000; stroke-width: 0.8; stroke-linejoin: miter; stroke-linecap: square"/>
   </g>
   <g id="patch_10">
    <path d="M 295.979375 160.20625 
L 481.809375 160.20625 
" style="fill: none; stroke: #000000; stroke-width: 0.8; stroke-linejoin: miter; stroke-linecap: square"/>
   </g>
   <g id="patch_11">
    <path d="M 295.979375 11.36625 
L 481.809375 11.36625 
" style="fill: none; stroke: #000000; stroke-width: 0.8; stroke-linejoin: miter; stroke-linecap: square"/>
   </g>
  </g>
 </g>
 <defs>
  <clipPath id="pb43e61b55e">
   <rect x="50.099375" y="11.36625" width="185.83" height="148.84"/>
  </clipPath>
  <clipPath id="p4403bbcbec">
   <rect x="295.979375" y="11.36625" width="185.83" height="148.84"/>
  </clipPath>
 </defs>
</svg>
