<?xml version="1.0" encoding="utf-8" standalone="no"?>
<!DOCTYPE svg PUBLIC "-//W3C//DTD SVG 1.1//EN"
  "http://www.w3.org/Graphics/SVG/1.1/DTD/svg11.dtd">
<svg xmlns:xlink="http://www.w3.org/1999/xlink" width="258.51pt" height="95.859375pt" viewBox="0 0 258.51 95.859375" xmlns="http://www.w3.org/2000/svg" version="1.1">
 <metadata>
  <rdf:RDF xmlns:dc="http://purl.org/dc/elements/1.1/" xmlns:cc="http://creativecommons.org/ns#" xmlns:rdf="http://www.w3.org/1999/02/22-rdf-syntax-ns#">
   <cc:Work>
    <dc:type rdf:resource="http://purl.org/dc/dcmitype/StillImage"/>
    <dc:date>2026-01-18T23:30:37.117507</dc:date>
    <dc:format>image/svg+xml</dc:format>
    <dc:creator>
     <cc:Agent>
      <dc:title>Matplotlib v3.6.3, https://matplotlib.org/</dc:title>
     </cc:Agent>
    </dc:creator>
   </cc:Work>
  </rdf:RDF>
 </metadata>
 <defs>
  <style type="text/css">*{stroke-linejoin: round; stroke-linecap: butt}</style>
 </defs>
 <g id="figure_1">
  <g id="patch_1">
   <path d="M 0 95.859375 
L 258.51 95.859375 
L 258.51 0 
L 0 0 
z
" style="fill: #ffffff"/>
  </g>
  <g id="axes_1">
   <g id="patch_2">
    <path d="M 35.2 70.76 
L 126.885 70.76 
L 126.885 7.2 
L 35.2 7.2 
z
" style="fill: #ffffff"/>
   </g>
   <g id="matplotlib.axis_1">
    <g id="xtick_1">
     <g id="line2d_1">
      <path d="M 39.3675 70.76 
L 39.3675 7.2 
" clip-path="url(#p8d841b74c9)" style="fill: none; stroke: #b0b0b0; stroke-opacity: 0.3; stroke-width: 0.8; stroke-linecap: square"/>
     </g>
     <g id="line2d_2">
      <defs>
       <path id="m55ce3fba2c" d="M 0 0 
L 0 3.5 
" style="stroke: #000000; stroke-width: 0.8"/>
      </defs>
      <g>
       <use xlink:href="#m55ce3fba2c" x="39.3675" y="70.76" style="stroke: #000000; stroke-width: 0.8"/>
      </g>
     </g>
     <g id="text_1">
      <!-- 0 -->
      <g transform="translate(36.3675 86.0925) scale(0.12 -0.12)">
       <defs>
        <path id="TimesNewRomanPSMT-30" d="M 231 2094 
Q 231 2819 450 3342 
Q 669 3866 1031 4122 
Q 1313 4325 1613 4325 
Q 2100 4325 2488 3828 
Q 2972 3213 2972 2159 
Q 2972 1422 2759 906 
Q 2547 391 2217 158 
Q 1888 -75 1581 -75 
Q 975 -75 572 641 
Q 231 1244 231 2094 
z
M 844 2016 
Q 844 1141 1059 588 
Q 1238 122 1591 122 
Q 1759 122 1940 273 
Q 2122 425 2216 781 
Q 2359 1319 2359 2297 
Q 2359 3022 2209 3506 
Q 2097 3866 1919 4016 
Q 1791 4119 1609 4119 
Q 1397 4119 1231 3928 
Q 1006 3669 925 3112 
Q 844 2556 844 2016 
z
" transform="scale(0.015625)"/>
       </defs>
       <use xlink:href="#TimesNewRomanPSMT-30"/>
      </g>
     </g>
    </g>
    <g id="xtick_2">
     <g id="line2d_3">
      <path d="M 118.0001 70.76 
L 118.0001 7.2 
" clip-path="url(#p8d841b74c9)" style="fill: none; stroke: #b0b0b0; stroke-opacity: 0.3; stroke-width: 0.8; stroke-linecap: square"/>
     </g>
     <g id="line2d_4">
      <g>
       <use xlink:href="#m55ce3fba2c" x="118.0001" y="70.76" style="stroke: #000000; stroke-width: 0.8"/>
      </g>
     </g>
     <g id="text_2">
      <!-- 20 -->
      <g transform="translate(112.0001 86.0925) scale(0.12 -0.12)">
       <defs>
        <path id="TimesNewRomanPSMT-32" d="M 2934 816 
L 2638 0 
L 138 0 
L 138 116 
Q 1241 1122 1691 1759 
Q 2141 2397 2141 2925 
Q 2141 3328 1894 3587 
Q 1647 3847 1303 3847 
Q 991 3847 742 3664 
Q 494 3481 375 3128 
L 259 3128 
Q 338 3706 661 4015 
Q 984 4325 1469 4325 
Q 1984 4325 2329 3994 
Q 2675 3663 2675 3213 
Q 2675 2891 2525 2569 
Q 2294 2063 1775 1497 
Q 997 647 803 472 
L 1909 472 
Q 2247 472 2383 497 
Q 2519 522 2628 598 
Q 2738 675 2819 816 
L 2934 816 
z
" transform="scale(0.015625)"/>
       </defs>
       <use xlink:href="#TimesNewRomanPSMT-32"/>
       <use xlink:href="#TimesNewRomanPSMT-30" x="50"/>
      </g>
     </g>
    </g>
   </g>
   <g id="matplotlib.axis_2">
    <g id="ytick_1">
     <g id="line2d_5">
      <path d="M 35.2 67.870909 
L 126.885 67.870909 
" clip-path="url(#p8d841b74c9)" style="fill: none; stroke: #b0b0b0; stroke-opacity: 0.3; stroke-width: 0.8; stroke-linecap: square"/>
     </g>
     <g id="line2d_6">
      <defs>
       <path id="m40053d8b40" d="M 0 0 
L -3.5 0 
" style="stroke: #000000; stroke-width: 0.8"/>
      </defs>
      <g>
       <use xlink:href="#m40053d8b40" x="35.2" y="67.870909" style="stroke: #000000; stroke-width: 0.8"/>
      </g>
     </g>
     <g id="text_3">
      <!-- 0.00 -->
      <g transform="translate(7.2 72.037159) scale(0.12 -0.12)">
       <defs>
        <path id="TimesNewRomanPSMT-2e" d="M 800 606 
Q 947 606 1047 504 
Q 1147 403 1147 259 
Q 1147 116 1045 14 
Q 944 -88 800 -88 
Q 656 -88 554 14 
Q 453 116 453 259 
Q 453 406 554 506 
Q 656 606 800 606 
z
" transform="scale(0.015625)"/>
       </defs>
       <use xlink:href="#TimesNewRomanPSMT-30"/>
       <use xlink:href="#TimesNewRomanPSMT-2e" x="50"/>
       <use xlink:href="#TimesNewRomanPSMT-30" x="75"/>
       <use xlink:href="#TimesNewRomanPSMT-30" x="125"/>
      </g>
     </g>
    </g>
    <g id="ytick_2">
     <g id="line2d_7">
      <path d="M 35.2 40.951773 
L 126.885 40.951773 
" clip-path="url(#p8d841b74c9)" style="fill: none; stroke: #b0b0b0; stroke-opacity: 0.3; stroke-width: 0.8; stroke-linecap: square"/>
     </g>
     <g id="line2d_8">
      <g>
       <use xlink:href="#m40053d8b40" x="35.2" y="40.951773" style="stroke: #000000; stroke-width: 0.8"/>
      </g>
     </g>
     <g id="text_4">
      <!-- 0.25 -->
      <g transform="translate(7.2 45.118023) scale(0.12 -0.12)">
       <defs>
        <path id="TimesNewRomanPSMT-35" d="M 2778 4238 
L 2534 3706 
L 1259 3706 
L 981 3138 
Q 1809 3016 2294 2522 
Q 2709 2097 2709 1522 
Q 2709 1188 2573 903 
Q 2438 619 2231 419 
Q 2025 219 1772 97 
Q 1413 -75 1034 -75 
Q 653 -75 479 54 
Q 306 184 306 341 
Q 306 428 378 495 
Q 450 563 559 563 
Q 641 563 702 538 
Q 763 513 909 409 
Q 1144 247 1384 247 
Q 1750 247 2026 523 
Q 2303 800 2303 1197 
Q 2303 1581 2056 1914 
Q 1809 2247 1375 2428 
Q 1034 2569 447 2591 
L 1259 4238 
L 2778 4238 
z
" transform="scale(0.015625)"/>
       </defs>
       <use xlink:href="#TimesNewRomanPSMT-30"/>
       <use xlink:href="#TimesNewRomanPSMT-2e" x="50"/>
       <use xlink:href="#TimesNewRomanPSMT-32" x="75"/>
       <use xlink:href="#TimesNewRomanPSMT-35" x="125"/>
      </g>
     </g>
    </g>
    <g id="ytick_3">
     <g id="line2d_9">
      <path d="M 35.2 14.032637 
L 126.885 14.032637 
" clip-path="url(#p8d841b74c9)" style="fill: none; stroke: #b0b0b0; stroke-opacity: 0.3; stroke-width: 0.8; stroke-linecap: square"/>
     </g>
     <g id="line2d_10">
      <g>
       <use xlink:href="#m40053d8b40" x="35.2" y="14.032637" style="stroke: #000000; stroke-width: 0.8"/>
      </g>
     </g>
     <g id="text_5">
      <!-- 0.50 -->
      <g transform="translate(7.2 18.198887) scale(0.12 -0.12)">
       <use xlink:href="#TimesNewRomanPSMT-30"/>
       <use xlink:href="#TimesNewRomanPSMT-2e" x="50"/>
       <use xlink:href="#TimesNewRomanPSMT-35" x="75"/>
       <use xlink:href="#TimesNewRomanPSMT-30" x="125"/>
      </g>
     </g>
    </g>
   </g>
   <g id="line2d_11">
    <path d="M 39.3675 14.032637 
L 113.676231 14.032637 
L 114.068705 17.814775 
L 115.641134 32.764264 
L 115.902726 35.48988 
L 116.296238 38.863709 
L 116.557993 40.336509 
L 116.688984 40.700994 
L 117.868637 48.702115 
L 119.31024 52.795654 
L 119.441061 52.465949 
L 119.703419 53.046002 
L 120.096677 54.183174 
L 120.621113 55.663296 
L 120.751603 55.531285 
L 121.669583 57.474523 
L 121.931396 57.863236 
L 122.324366 58.741661 
L 122.7175 59.439082 
L 122.7175 59.439082 
" clip-path="url(#p8d841b74c9)" style="fill: none; stroke: #ff0000; stroke-opacity: 0.8; stroke-width: 2; stroke-linecap: square"/>
   </g>
   <g id="line2d_12">
    <path d="M 39.3675 67.870909 
L 39.761123 67.870909 
L 40.022928 64.304124 
L 40.416209 59.310516 
L 40.548535 53.603767 
L 40.811054 53.603767 
L 40.940284 46.470196 
L 41.072686 48.610267 
L 41.203736 46.470088 
L 41.334912 47.183553 
L 41.596119 42.90341 
L 41.85942 39.336625 
L 42.120633 31.489804 
L 42.252158 30.776339 
L 42.382656 29.349733 
L 42.512938 30.062875 
L 42.907992 20.78934 
L 43.039206 17.222447 
L 43.16828 20.78934 
L 43.432001 15.79584 
L 43.562743 14.369126 
L 43.694145 11.51559 
L 43.82483 12.229055 
L 43.955059 10.089091 
L 44.349035 15.082591 
L 44.611261 13.655769 
L 44.742253 15.082591 
L 44.87407 15.082483 
L 45.135336 12.229055 
L 45.266383 12.229055 
L 45.527188 15.082483 
L 45.658231 13.655769 
L 45.7893 15.341876 
L 45.921853 13.655769 
L 46.052746 14.369126 
L 46.184096 16.509197 
L 46.446004 12.942412 
L 46.57732 13.655769 
L 46.706807 13.655769 
L 46.837805 15.082483 
L 47.100606 13.299144 
L 47.230965 14.369126 
L 47.363653 13.655769 
L 47.493648 14.369126 
L 47.756927 16.509197 
L 47.88633 13.655769 
L 48.018848 14.725751 
L 48.149993 12.942519 
L 48.279549 12.942412 
L 48.41218 15.082483 
L 48.544917 13.655661 
L 48.672608 13.655661 
L 48.803619 14.369126 
L 48.934827 14.369126 
L 49.065731 15.082591 
L 49.197193 14.369234 
L 49.458816 15.79584 
L 49.722237 13.232923 
L 49.853436 13.655769 
L 49.984602 12.229055 
L 50.245172 15.082591 
L 50.376645 15.79584 
L 50.508771 12.942304 
L 50.639744 14.369234 
L 50.769354 12.942304 
L 51.032167 14.725751 
L 51.163685 14.369126 
L 51.295122 15.082483 
L 51.424703 13.655661 
L 51.557144 15.082483 
L 51.688175 13.655769 
L 51.818213 15.79584 
L 51.948832 15.082483 
L 52.081814 15.082483 
L 52.211647 14.369126 
L 52.342944 14.369126 
L 52.475099 15.082483 
L 52.605006 14.369126 
L 52.737076 12.229055 
L 52.998665 15.79584 
L 53.26164 12.942412 
L 53.391143 15.082483 
L 53.521593 13.655769 
L 53.654387 13.655769 
L 53.783725 14.369126 
L 53.915343 13.655769 
L 54.050371 14.19932 
L 54.178571 12.942412 
L 54.309272 13.655769 
L 54.440542 15.79584 
L 54.573528 15.082375 
L 54.702454 13.655661 
L 54.83658 14.369126 
L 54.965755 13.655769 
L 55.098481 15.082591 
L 55.227238 13.655661 
L 55.359277 15.082483 
L 55.490804 13.655769 
L 55.619994 15.082591 
L 56.013548 15.082591 
L 56.143837 13.655984 
L 56.278005 13.655769 
L 56.410015 14.369126 
L 56.537202 13.655661 
L 56.670147 14.369126 
L 56.800406 15.79584 
L 56.930376 15.082698 
L 57.061749 13.299144 
L 57.192624 13.655769 
L 57.325781 14.369234 
L 57.457293 14.369234 
L 57.5882 12.229162 
L 57.847402 14.369126 
L 57.980168 14.012393 
L 58.240388 15.082375 
L 58.37346 14.369126 
L 58.635758 15.79584 
L 58.767242 14.369126 
L 58.897332 15.082483 
L 59.029045 14.369126 
L 59.160279 12.942412 
L 59.289642 14.012393 
L 59.422081 13.396376 
L 59.55302 15.082483 
L 59.681998 13.655769 
L 60.206528 13.655769 
L 60.339635 14.369126 
L 60.468818 12.942412 
L 60.600436 13.655769 
L 60.732858 11.515697 
L 60.861268 12.229055 
L 61.125153 14.369126 
L 61.254434 12.229055 
L 61.517064 14.369126 
L 61.780726 15.79584 
L 61.909904 13.655769 
L 62.04279 13.655769 
L 62.173975 15.79584 
L 62.305179 15.439215 
L 62.435754 13.655769 
L 62.566297 13.655769 
L 62.69861 15.79584 
L 62.826947 13.655661 
L 62.959221 14.369126 
L 63.090798 13.655984 
L 63.352583 14.369126 
L 63.482399 12.942519 
L 63.614835 14.369126 
L 64.007881 14.369126 
L 64.137288 13.655769 
L 64.399354 13.655876 
L 64.66128 12.228947 
L 64.792389 13.655769 
L 64.924733 12.942412 
L 65.056221 13.655769 
L 65.186767 12.942519 
L 65.317716 13.655769 
L 65.449367 12.942412 
L 65.710481 15.082483 
L 65.841953 13.655661 
L 65.971844 13.655661 
L 66.104143 15.082483 
L 66.366222 13.655661 
L 66.497172 14.69334 
L 66.628493 14.369126 
L 66.758743 13.655769 
L 67.021035 13.655769 
L 67.152812 12.228947 
L 67.282384 13.655876 
L 67.415696 12.942196 
L 67.54433 12.942412 
L 67.675394 12.228947 
L 67.806654 12.229055 
L 67.937627 15.082483 
L 68.069926 12.942304 
L 68.462971 15.082483 
L 68.594573 13.655769 
L 68.725046 13.655876 
L 68.856242 14.369126 
L 68.98722 12.229055 
L 69.117446 14.369126 
L 69.380681 14.369126 
L 69.510263 15.082483 
L 69.642711 13.655769 
L 69.904219 13.655769 
L 70.035799 15.082483 
L 70.296854 13.655876 
L 70.428454 13.655769 
L 70.55888 12.747948 
L 70.690325 12.942412 
L 70.952434 14.369126 
L 71.083754 12.228947 
L 71.345989 14.369126 
L 71.608389 12.096935 
L 71.739492 13.655661 
L 71.870688 12.942519 
L 72.001487 15.082483 
L 72.131611 13.655661 
L 72.26242 14.369126 
L 72.3946 14.369126 
L 72.526016 15.082483 
L 72.655524 14.369126 
L 72.788665 15.79584 
L 72.919364 13.655769 
L 73.181036 15.795948 
L 73.310956 12.942304 
L 73.443278 12.942412 
L 73.575525 14.369126 
L 73.705764 12.942304 
L 73.835111 15.082483 
L 73.966025 13.299144 
L 74.097147 15.79584 
L 74.22814 12.942412 
L 74.359501 16.509197 
L 74.491874 15.082698 
L 74.885155 15.082483 
L 75.014919 13.655769 
L 75.14555 15.79584 
L 75.278111 14.725751 
L 75.407868 15.082591 
L 75.539927 13.655769 
L 75.670425 13.655769 
L 75.800723 14.369126 
L 75.933136 13.655769 
L 76.064426 14.369234 
L 76.1941 13.655769 
L 76.457435 13.655769 
L 76.588578 14.369126 
L 76.720788 15.795732 
L 76.849904 14.369234 
L 76.980524 14.725858 
L 77.111438 15.79584 
L 77.242568 15.795948 
L 77.373726 14.369018 
L 77.506109 15.795948 
L 77.635848 15.79584 
L 77.899196 14.369126 
L 78.030674 15.082483 
L 78.16088 15.082483 
L 78.29273 15.79584 
L 78.554106 14.369126 
L 78.685481 15.082483 
L 78.816419 12.229055 
L 78.947944 13.655769 
L 79.078711 13.655769 
L 79.208361 15.082483 
L 79.340294 12.942412 
L 79.603468 14.725751 
L 79.732593 13.655769 
L 79.86522 15.79584 
L 80.258359 12.942412 
L 80.389169 15.082483 
L 80.519184 14.369018 
L 80.65203 14.369018 
L 80.782948 12.229162 
L 80.912012 14.012393 
L 81.044635 12.942412 
L 81.176126 13.655661 
L 81.308465 12.942412 
L 81.44022 13.655661 
L 81.699698 13.655769 
L 81.832265 13.396268 
L 82.223938 15.79584 
L 82.356256 13.655661 
L 82.487855 13.655876 
L 82.619422 15.082483 
L 82.880007 15.082483 
L 83.011964 14.369018 
L 83.1413 12.942519 
L 83.272144 13.655876 
L 83.403057 13.655876 
L 83.534447 14.369126 
L 83.665495 12.229055 
L 83.930229 14.012393 
L 84.058381 13.655769 
L 84.192286 14.369234 
L 84.320546 14.369234 
L 84.454191 15.082375 
L 84.585731 15.082591 
L 84.713903 14.369126 
L 84.978059 14.369126 
L 85.109453 15.082591 
L 85.240418 14.725751 
L 85.369264 15.79584 
L 85.50202 14.369126 
L 85.630917 15.082483 
L 85.764847 12.942519 
L 85.896229 13.655769 
L 86.286437 13.655769 
L 86.417684 14.369126 
L 86.548221 13.655769 
L 86.681788 13.655769 
L 86.810488 15.082375 
L 86.941374 14.369126 
L 87.07271 15.082483 
L 87.205276 15.082483 
L 87.334743 14.369126 
L 87.466349 12.942412 
L 87.72815 15.795948 
L 87.858432 13.655769 
L 87.989397 14.369126 
L 88.120381 15.79584 
L 88.382563 13.655769 
L 88.64712 13.655769 
L 88.77608 12.942412 
L 88.906785 15.082591 
L 89.039025 13.655769 
L 89.169236 13.655769 
L 89.302823 12.942412 
L 89.431943 12.942412 
L 89.56205 13.655769 
L 89.69304 15.79584 
L 89.825161 12.942412 
L 89.955004 15.082483 
L 90.087842 15.082375 
L 90.219151 14.369126 
L 90.348468 14.369018 
L 90.481012 13.655769 
L 90.611923 14.369126 
L 90.743046 14.369126 
L 90.872453 13.655769 
L 91.004062 14.369126 
L 91.135598 14.369018 
L 91.397431 12.942519 
L 91.660454 15.082375 
L 91.791518 12.229055 
L 92.051641 13.655661 
L 92.184361 13.655769 
L 92.313685 15.082591 
L 92.445404 14.369126 
L 92.576421 12.942412 
L 92.837881 12.942519 
L 92.970544 12.228947 
L 93.100389 14.369126 
L 93.231137 14.369126 
L 93.363517 13.655769 
L 93.493361 14.369126 
L 93.624551 13.655661 
L 93.75811 14.369126 
L 94.017768 12.942412 
L 94.14872 13.655876 
L 94.279547 13.655769 
L 94.411825 15.082591 
L 94.542871 15.082483 
L 94.673822 14.369126 
L 94.805409 14.369234 
L 94.936763 13.655661 
L 95.066152 15.082375 
L 95.198598 15.082483 
L 95.329362 13.655984 
L 95.45916 14.369018 
L 95.591054 14.369126 
L 95.721735 11.515805 
L 95.852233 12.229055 
L 95.985622 12.228947 
L 96.115889 12.942519 
L 96.245587 12.942412 
L 96.377815 12.229055 
L 96.50931 15.082483 
L 96.638509 12.942519 
L 96.770874 15.082483 
L 96.902751 14.369234 
L 97.164617 12.228947 
L 97.293971 12.229055 
L 97.556976 15.79584 
L 97.688688 15.082483 
L 97.81921 13.655769 
L 98.080321 15.082483 
L 98.211089 13.655769 
L 98.344096 13.655769 
L 98.473374 14.369126 
L 98.605437 12.229055 
L 98.736424 12.942412 
L 98.997645 15.082483 
L 99.128629 12.942412 
L 99.259673 15.082483 
L 99.392234 13.655769 
L 99.523037 13.655769 
L 99.654434 12.942304 
L 99.785098 13.655769 
L 99.916109 12.942412 
L 100.046218 15.082483 
L 100.178357 14.369126 
L 100.309491 11.515697 
L 100.439033 11.515697 
L 100.570754 14.369126 
L 100.702374 14.369018 
L 100.83353 13.655769 
L 100.964473 14.369126 
L 101.095231 13.655769 
L 101.356437 13.655661 
L 101.488332 15.79584 
L 101.619259 15.082483 
L 101.750806 13.655769 
L 101.881584 15.082483 
L 102.143311 13.655769 
L 102.275046 14.369126 
L 102.405538 12.942412 
L 102.536148 14.012501 
L 102.668516 13.655769 
L 102.798494 15.082268 
L 102.931037 15.082483 
L 103.06072 13.655876 
L 103.192816 15.082483 
L 103.322071 12.942304 
L 103.453389 13.655769 
L 103.584303 13.655769 
L 103.715675 12.747948 
L 103.847808 14.369234 
L 103.978275 14.369126 
L 104.109806 15.082483 
L 104.24131 14.369126 
L 104.372227 15.082483 
L 104.502593 13.655876 
L 105.026255 13.655769 
L 105.15766 15.082591 
L 105.289052 15.082591 
L 105.419078 14.369126 
L 105.550658 14.369126 
L 105.682598 15.082483 
L 105.813918 13.655769 
L 105.944107 13.655769 
L 106.074618 12.942412 
L 106.337251 12.942412 
L 106.469052 13.299144 
L 106.600087 14.369234 
L 106.861138 13.299036 
L 106.992886 14.369126 
L 107.124054 13.655769 
L 107.255095 12.229055 
L 107.386371 12.942519 
L 107.517609 15.082375 
L 108.040756 12.229055 
L 108.171079 13.655661 
L 108.302602 13.655661 
L 108.433289 15.082375 
L 108.564739 14.369126 
L 108.696807 14.369126 
L 108.826321 15.082375 
L 109.088701 12.942304 
L 109.220067 13.655769 
L 109.350927 12.810185 
L 109.48172 13.299144 
L 109.743821 15.79584 
L 109.874712 13.655876 
L 110.006855 13.655769 
L 110.268853 15.082591 
L 110.399419 12.942304 
L 110.531261 13.655769 
L 110.660888 12.942412 
L 110.792172 13.299144 
L 110.923997 12.942304 
L 111.055591 14.369126 
L 111.186026 12.942412 
L 111.44834 16.509197 
L 111.57926 15.79584 
L 111.710169 14.369126 
L 111.840611 11.515697 
L 112.103437 13.655769 
L 112.234602 12.942412 
L 112.365404 15.082483 
L 112.496295 13.655769 
L 112.628479 14.369126 
L 112.758444 13.655769 
L 112.889451 14.012393 
L 113.019611 12.229055 
L 113.150804 14.369126 
L 113.282868 13.655769 
L 113.41332 14.369126 
L 113.544858 14.369126 
L 113.676231 15.795948 
L 113.93771 13.655876 
L 114.199889 15.795948 
L 114.330225 15.082375 
L 114.46117 19.362733 
L 114.592231 19.362518 
L 114.854538 22.929411 
L 114.986368 24.356233 
L 115.116662 22.929411 
L 115.248309 25.069483 
L 115.509851 31.489481 
L 115.641134 32.203054 
L 115.902726 35.056267 
L 116.033779 32.916411 
L 116.427099 39.336625 
L 116.688984 41.476696 
L 116.820209 41.833321 
L 116.951444 42.903518 
L 117.082563 42.903303 
L 117.213624 44.330232 
L 117.344853 47.183553 
L 117.475765 46.470196 
L 117.606691 44.330124 
L 117.737866 45.756839 
L 117.999454 49.323517 
L 118.130567 48.610267 
L 118.261569 49.323624 
L 118.523975 52.177053 
L 118.654783 52.177053 
L 118.78612 50.750338 
L 118.917873 52.177053 
L 119.048398 52.177053 
L 119.179829 51.463803 
L 119.31024 51.463803 
L 119.441061 53.603767 
L 119.572376 51.463696 
L 119.834147 53.603767 
L 119.965717 51.463803 
L 120.096677 55.030373 
L 120.227617 54.317124 
L 120.358588 55.743838 
L 120.489779 55.743838 
L 120.621113 57.170552 
L 120.751603 55.743838 
L 120.883115 56.457195 
L 121.013811 55.743838 
L 121.145286 57.170552 
L 121.276078 57.170552 
L 121.406958 57.88391 
L 121.669583 57.88391 
L 121.800515 57.170552 
L 122.193604 59.310624 
L 122.324366 58.597267 
L 122.455471 58.597267 
L 122.586703 59.310624 
L 122.7175 58.597267 
L 122.7175 58.597267 
" clip-path="url(#p8d841b74c9)" style="fill: none; stroke: #0000ff; stroke-width: 2; stroke-linecap: square"/>
   </g>
   <g id="line2d_13">
    <path d="M 35.2 14.032637 
L 126.885 14.032637 
" clip-path="url(#p8d841b74c9)" style="fill: none; stroke-dasharray: 3.7,1.6; stroke-dashoffset: 0; stroke: #000000; stroke-opacity: 0.7"/>
   </g>
   <g id="patch_3">
    <path d="M 35.2 70.76 
L 35.2 7.2 
" style="fill: none; stroke: #000000; stroke-width: 0.8; stroke-linejoin: miter; stroke-linecap: square"/>
   </g>
   <g id="patch_4">
    <path d="M 126.885 70.76 
L 126.885 7.2 
" style="fill: none; stroke: #000000; stroke-width: 0.8; stroke-linejoin: miter; stroke-linecap: square"/>
   </g>
   <g id="patch_5">
    <path d="M 35.2 70.76 
L 126.885 70.76 
" style="fill: none; stroke: #000000; stroke-width: 0.8; stroke-linejoin: miter; stroke-linecap: square"/>
   </g>
   <g id="patch_6">
    <path d="M 35.2 7.2 
L 126.885 7.2 
" style="fill: none; stroke: #000000; stroke-width: 0.8; stroke-linejoin: miter; stroke-linecap: square"/>
   </g>
  </g>
  <g id="axes_2">
   <g id="patch_7">
    <path d="M 159.625 70.76 
L 251.31 70.76 
L 251.31 7.2 
L 159.625 7.2 
z
" style="fill: #ffffff"/>
   </g>
   <g id="matplotlib.axis_3">
    <g id="xtick_3">
     <g id="line2d_14">
      <path d="M 163.7925 70.76 
L 163.7925 7.2 
" clip-path="url(#p0276f7704c)" style="fill: none; stroke: #b0b0b0; stroke-opacity: 0.3; stroke-width: 0.8; stroke-linecap: square"/>
     </g>
     <g id="line2d_15">
      <g>
       <use xlink:href="#m55ce3fba2c" x="163.7925" y="70.76" style="stroke: #000000; stroke-width: 0.8"/>
      </g>
     </g>
     <g id="text_6">
      <!-- 0 -->
      <g transform="translate(160.7925 86.0925) scale(0.12 -0.12)">
       <use xlink:href="#TimesNewRomanPSMT-30"/>
      </g>
     </g>
    </g>
    <g id="xtick_4">
     <g id="line2d_16">
      <path d="M 242.4251 70.76 
L 242.4251 7.2 
" clip-path="url(#p0276f7704c)" style="fill: none; stroke: #b0b0b0; stroke-opacity: 0.3; stroke-width: 0.8; stroke-linecap: square"/>
     </g>
     <g id="line2d_17">
      <g>
       <use xlink:href="#m55ce3fba2c" x="242.4251" y="70.76" style="stroke: #000000; stroke-width: 0.8"/>
      </g>
     </g>
     <g id="text_7">
      <!-- 20 -->
      <g transform="translate(236.4251 86.0925) scale(0.12 -0.12)">
       <use xlink:href="#TimesNewRomanPSMT-32"/>
       <use xlink:href="#TimesNewRomanPSMT-30" x="50"/>
      </g>
     </g>
    </g>
   </g>
   <g id="matplotlib.axis_4">
    <g id="ytick_4">
     <g id="line2d_18">
      <path d="M 159.625 60.166667 
L 251.31 60.166667 
" clip-path="url(#p0276f7704c)" style="fill: none; stroke: #b0b0b0; stroke-opacity: 0.3; stroke-width: 0.8; stroke-linecap: square"/>
     </g>
     <g id="line2d_19">
      <g>
       <use xlink:href="#m40053d8b40" x="159.625" y="60.166667" style="stroke: #000000; stroke-width: 0.8"/>
      </g>
     </g>
     <g id="text_8">
      <!-- −1 -->
      <g transform="translate(139.858125 64.332917) scale(0.12 -0.12)">
       <defs>
        <path id="TimesNewRomanPSMT-2212" d="M 3484 2000 
L 116 2000 
L 116 2256 
L 3484 2256 
L 3484 2000 
z
" transform="scale(0.015625)"/>
        <path id="TimesNewRomanPSMT-31" d="M 750 3822 
L 1781 4325 
L 1884 4325 
L 1884 747 
Q 1884 391 1914 303 
Q 1944 216 2037 169 
Q 2131 122 2419 116 
L 2419 0 
L 825 0 
L 825 116 
Q 1125 122 1212 167 
Q 1300 213 1334 289 
Q 1369 366 1369 747 
L 1369 3034 
Q 1369 3497 1338 3628 
Q 1316 3728 1258 3775 
Q 1200 3822 1119 3822 
Q 1003 3822 797 3725 
L 750 3822 
z
" transform="scale(0.015625)"/>
       </defs>
       <use xlink:href="#TimesNewRomanPSMT-2212"/>
       <use xlink:href="#TimesNewRomanPSMT-31" x="56.396484"/>
      </g>
     </g>
    </g>
    <g id="ytick_5">
     <g id="line2d_20">
      <path d="M 159.625 38.98 
L 251.31 38.98 
" clip-path="url(#p0276f7704c)" style="fill: none; stroke: #b0b0b0; stroke-opacity: 0.3; stroke-width: 0.8; stroke-linecap: square"/>
     </g>
     <g id="line2d_21">
      <g>
       <use xlink:href="#m40053d8b40" x="159.625" y="38.98" style="stroke: #000000; stroke-width: 0.8"/>
      </g>
     </g>
     <g id="text_9">
      <!-- 0 -->
      <g transform="translate(146.625 43.14625) scale(0.12 -0.12)">
       <use xlink:href="#TimesNewRomanPSMT-30"/>
      </g>
     </g>
    </g>
    <g id="ytick_6">
     <g id="line2d_22">
      <path d="M 159.625 17.793333 
L 251.31 17.793333 
" clip-path="url(#p0276f7704c)" style="fill: none; stroke: #b0b0b0; stroke-opacity: 0.3; stroke-width: 0.8; stroke-linecap: square"/>
     </g>
     <g id="line2d_23">
      <g>
       <use xlink:href="#m40053d8b40" x="159.625" y="17.793333" style="stroke: #000000; stroke-width: 0.8"/>
      </g>
     </g>
     <g id="text_10">
      <!-- 1 -->
      <g transform="translate(146.625 21.959583) scale(0.12 -0.12)">
       <use xlink:href="#TimesNewRomanPSMT-31"/>
      </g>
     </g>
    </g>
   </g>
   <g id="line2d_24">
    <path d="M 163.7925 38.98 
L 164.973535 39.057395 
L 165.365284 39.081929 
L 167.857001 38.862266 
L 169.167253 38.865719 
L 169.822581 39.128603 
L 169.952188 40.353362 
L 170.477746 40.386752 
L 170.738689 40.867647 
L 171.395247 40.660039 
L 171.525606 40.525694 
L 171.788653 39.27513 
L 171.918648 39.202863 
L 172.181927 40.012744 
L 172.31133 39.925561 
L 172.704549 38.472113 
L 172.969917 38.36457 
L 173.228619 38.023189 
L 173.622193 38.178445 
L 173.883816 37.47242 
L 174.016388 37.562506 
L 174.147237 37.615621 
L 174.540011 38.107406 
L 174.670172 40.277238 
L 174.801645 40.396837 
L 174.933771 40.361392 
L 175.194354 37.342419 
L 175.32623 37.339241 
L 175.588685 37.136527 
L 175.720122 37.115319 
L 175.982144 37.375343 
L 177.030006 38.578025 
L 177.162076 38.623407 
L 177.423665 40.468512 
L 177.68664 40.481351 
L 178.340343 40.905084 
L 178.865542 40.962309 
L 179.26158 40.975466 
L 179.390755 39.099768 
L 179.652238 38.848643 
L 179.915804 39.212502 
L 180.176419 39.177078 
L 180.703005 38.947309 
L 181.095147 38.931016 
L 181.355376 39.206168 
L 182.0132 39.224219 
L 182.534506 38.483533 
L 183.322332 38.427049 
L 183.714642 38.519275 
L 183.97802 38.167258 
L 184.106998 38.215606 
L 184.239612 37.904819 
L 184.50178 37.940137 
L 184.631528 8.718385 
L 184.764635 8.523171 
L 185.025436 8.74811 
L 185.421391 8.875611 
L 185.550153 8.722156 
L 185.810421 9.072711 
L 185.942064 8.900569 
L 186.205726 8.063908 
L 186.334904 9.24017 
L 186.46779 9.276632 
L 186.598975 8.19535 
L 186.730179 8.469886 
L 186.860754 9.37176 
L 186.991297 9.404494 
L 187.12361 8.328741 
L 187.251947 9.428604 
L 187.384221 9.234852 
L 187.515798 9.43335 
L 187.64676 9.422269 
L 187.777583 9.220763 
L 187.907399 9.402608 
L 188.170687 9.114194 
L 188.432881 9.054045 
L 188.562288 9.191017 
L 190.003654 8.637028 
L 190.135481 8.211579 
L 190.266953 8.77472 
L 190.396844 8.748258 
L 190.529143 8.141896 
L 190.791222 8.729995 
L 190.922172 8.35194 
L 191.315437 8.713533 
L 192.231654 8.744233 
L 192.362627 8.141874 
L 192.494926 8.779678 
L 192.755839 8.826649 
L 192.887971 8.21321 
L 193.019573 8.880166 
L 193.150046 8.922518 
L 193.281242 8.82775 
L 193.41222 9.13716 
L 193.542446 8.987413 
L 193.805681 9.101821 
L 193.935263 8.793894 
L 194.067711 9.73168 
L 194.329219 9.841638 
L 194.460799 9.210318 
L 194.721854 10.467853 
L 195.246898 11.093389 
L 195.377434 10.843492 
L 195.640189 11.390108 
L 195.770989 11.407439 
L 196.164492 13.076482 
L 196.295688 13.759964 
L 196.426487 13.429558 
L 196.68742 16.544252 
L 196.951016 16.868451 
L 197.080524 18.958113 
L 197.213665 18.617579 
L 197.344364 20.806289 
L 197.473952 20.299907 
L 197.606036 20.720314 
L 197.868278 23.45725 
L 198.000525 24.491329 
L 198.130764 26.487663 
L 198.260111 26.114587 
L 198.391025 28.458256 
L 198.522147 28.199143 
L 198.65314 30.871397 
L 198.784501 30.663534 
L 199.046402 34.553978 
L 199.310155 36.935932 
L 199.439919 38.839617 
L 199.57055 38.995085 
L 199.832868 41.645473 
L 200.225723 44.634043 
L 200.489426 45.883124 
L 201.013578 49.611978 
L 201.405524 50.886356 
L 201.667568 52.278977 
L 202.324196 53.93124 
L 202.71773 54.682901 
L 202.979106 54.414232 
L 203.110481 54.622603 
L 203.241419 54.471119 
L 203.633361 54.674108 
L 203.896901 54.125755 
L 204.028468 53.995054 
L 204.157593 53.587063 
L 204.29022 53.750221 
L 204.550739 52.943984 
L 205.07703 52.098212 
L 206.912855 48.114843 
L 207.044422 48.201857 
L 207.828057 46.326328 
L 207.959447 46.397643 
L 209.403059 43.337504 
L 209.534453 43.268478 
L 209.92702 42.054291 
L 210.055917 42.15603 
L 211.49771 39.940942 
L 211.759743 40.87483 
L 211.891349 68.560527 
L 212.15315 69.611301 
L 212.283432 68.96407 
L 212.414397 69.205407 
L 212.545381 69.999992 
L 212.807563 69.20081 
L 213.20108 69.246001 
L 213.331785 69.847024 
L 213.464025 69.24403 
L 213.98705 69.206551 
L 214.11804 70.247876 
L 214.250161 69.190682 
L 214.380004 69.805117 
L 214.512842 69.798676 
L 214.644151 69.388608 
L 214.773468 69.392295 
L 214.906012 69.20081 
L 215.168046 69.405515 
L 215.297453 69.221721 
L 215.560598 69.426193 
L 215.822431 69.2442 
L 215.954257 69.436808 
L 216.085454 69.847914 
L 216.216518 69.243649 
L 216.609361 69.213988 
L 216.738685 69.801685 
L 217.001421 69.107376 
L 217.395544 69.022206 
L 217.525389 69.186848 
L 217.656137 69.170661 
L 217.788517 68.943413 
L 217.918361 69.081719 
L 218.049551 68.84159 
L 218.18311 68.967926 
L 218.442768 68.630846 
L 218.704547 68.391076 
L 218.836825 68.972629 
L 218.967871 68.902332 
L 219.098822 68.417793 
L 219.230409 68.368428 
L 219.361763 68.11101 
L 219.491152 68.66449 
L 219.623598 68.538938 
L 219.754362 67.785667 
L 219.88416 67.879567 
L 220.016054 67.739311 
L 220.277233 67.138987 
L 220.670587 66.513514 
L 220.802815 66.608218 
L 220.93431 67.226911 
L 221.063509 66.354762 
L 221.195874 66.855022 
L 221.589617 65.331764 
L 221.850971 64.597053 
L 221.981976 65.333501 
L 222.24421 62.757754 
L 222.375313 62.786652 
L 222.505321 63.008519 
L 222.769096 60.824852 
L 223.030437 59.71217 
L 223.291794 58.414805 
L 223.422645 58.222239 
L 223.553629 56.331435 
L 223.684673 56.602349 
L 224.079434 52.681417 
L 224.341109 50.723261 
L 224.471218 50.325269 
L 224.864033 47.177545 
L 225.127374 45.84376 
L 225.520231 42.913813 
L 225.651463 42.000647 
L 225.781437 41.91198 
L 225.913332 42.158487 
L 226.568311 36.932965 
L 226.830538 35.720601 
L 227.093516 34.572601 
L 227.223494 34.363722 
L 227.747071 32.799404 
L 228.009303 32.925719 
L 228.272808 32.633703 
L 228.403275 32.658979 
L 228.534806 32.565292 
L 228.797227 31.808419 
L 229.189884 31.455979 
L 229.321254 31.423415 
L 229.58266 31.563819 
L 229.844078 31.571828 
L 230.238918 31.919967 
L 230.369107 31.936429 
L 230.632722 32.642305 
L 231.025087 32.657623 
L 231.417886 32.727349 
L 231.680095 33.456933 
L 232.073333 33.615367 
L 232.334651 34.32976 
L 232.727602 34.478808 
L 232.858289 34.148635 
L 233.121807 34.255395 
L 233.251321 34.259356 
L 233.513701 33.286507 
L 233.775927 33.401826 
L 234.038959 33.568756 
L 234.168821 33.568819 
L 234.431855 33.974608 
L 234.693853 34.12338 
L 235.217172 35.263329 
L 235.611026 35.311783 
L 235.87334 35.653524 
L 236.396485 36.586669 
L 236.659602 36.805443 
L 236.790404 36.789383 
L 237.053479 36.98911 
L 237.575804 37.12534 
L 237.83832 37.185108 
L 238.101231 37.210341 
L 238.231811 36.992966 
L 238.36271 36.501584 
L 238.624889 36.540716 
L 239.017231 39.16871 
L 239.14862 39.281274 
L 239.541662 39.845708 
L 239.673309 39.869056 
L 239.804221 40.077787 
L 239.934851 40.533216 
L 240.196722 40.531394 
L 240.458779 40.115118 
L 240.721238 39.630028 
L 240.852099 39.586998 
L 241.245209 39.008475 
L 241.376444 37.043157 
L 241.507563 32.172364 
L 242.162866 31.183434 
L 242.293637 31.632528 
L 242.555567 31.622718 
L 242.817998 32.636098 
L 243.079783 32.855846 
L 243.604829 34.696416 
L 243.73524 34.803366 
L 243.997376 37.365703 
L 244.259147 37.689054 
L 244.652617 38.98053 
L 245.570286 39.157481 
L 245.963128 39.132417 
L 246.225515 40.941207 
L 246.880471 40.968686 
L 247.1425 40.954068 
L 247.1425 40.954068 
" clip-path="url(#p0276f7704c)" style="fill: none; stroke: #ff0000; stroke-opacity: 0.8; stroke-width: 2; stroke-linecap: square"/>
   </g>
   <g id="line2d_25">
    <path d="M 163.7925 38.98 
L 164.317307 38.98 
L 164.447928 39.546002 
L 164.579637 39.546002 
L 164.710282 38.98 
L 165.365284 38.98 
L 165.497686 39.545959 
L 165.628736 38.98 
L 165.759912 39.545938 
L 165.891126 38.98 
L 166.021119 39.546002 
L 166.153035 39.546002 
L 166.28442 38.98 
L 166.416985 40.677794 
L 166.677158 37.848124 
L 166.937938 40.677942 
L 167.070159 39.545938 
L 167.332992 40.111876 
L 167.59328 37.848124 
L 167.72585 39.545938 
L 167.987743 37.282058 
L 168.24983 40.111876 
L 168.380059 37.282206 
L 168.64312 39.54579 
L 168.774035 38.98 
L 168.905397 37.282206 
L 169.036261 38.98 
L 169.167253 38.98 
L 169.29907 37.84806 
L 169.430009 38.98 
L 169.560336 37.84806 
L 169.822581 37.847996 
L 169.952188 40.11194 
L 170.083231 38.98 
L 170.346853 40.111961 
L 170.477746 39.545959 
L 170.609096 41.24388 
L 170.738689 40.11194 
L 171.00232 41.243901 
L 171.131807 40.677921 
L 171.395247 41.809861 
L 171.655965 40.677899 
L 171.918648 41.80984 
L 172.050734 38.414041 
L 172.181927 40.112004 
L 172.31133 38.98 
L 172.443848 39.828971 
L 172.574993 39.545938 
L 172.704549 39.546002 
L 172.83718 40.11194 
L 172.969917 40.11194 
L 173.228619 37.282058 
L 173.359827 39.546065 
L 173.622193 36.150055 
L 173.883816 39.545938 
L 174.278436 36.716141 
L 174.409602 37.848124 
L 174.540011 36.150055 
L 174.801645 39.545938 
L 174.933771 38.414062 
L 175.064744 38.414062 
L 175.194354 40.677794 
L 175.457167 39.262927 
L 175.849703 36.716056 
L 176.113175 36.716141 
L 176.373832 37.848102 
L 176.506814 36.716099 
L 176.636647 37.282058 
L 176.767944 36.150139 
L 176.900099 38.98 
L 177.030006 37.282079 
L 177.162076 37.848039 
L 177.423665 39.545981 
L 177.553611 38.414019 
L 177.68664 39.545981 
L 177.816143 38.98 
L 178.079387 38.98 
L 178.475371 40.597072 
L 178.603571 40.677899 
L 178.734272 38.98 
L 178.865542 40.677942 
L 178.998528 38.98 
L 179.26158 40.677878 
L 179.390755 40.112004 
L 179.523481 41.243859 
L 179.652238 40.11194 
L 179.784277 40.677878 
L 179.915804 38.98 
L 180.044994 40.111876 
L 180.307221 37.848124 
L 180.438548 38.98 
L 180.703005 38.98 
L 180.835015 38.413935 
L 180.962202 38.98 
L 181.095147 38.41421 
L 181.355376 40.112004 
L 181.617624 37.847996 
L 181.750781 38.414062 
L 181.882293 38.414062 
L 182.0132 38.98 
L 182.14143 37.847996 
L 182.405168 38.69701 
L 182.534506 38.98 
L 182.79846 38.98 
L 182.927523 37.848039 
L 183.060758 39.545959 
L 183.192242 39.545938 
L 183.322332 37.84806 
L 183.454045 38.413998 
L 183.585279 38.414041 
L 183.714642 39.262969 
L 183.847081 38.98 
L 183.97802 37.848039 
L 184.106998 38.98 
L 184.239612 37.84806 
L 184.370622 37.848039 
L 184.50178 38.98 
L 184.631528 36.716099 
L 184.764635 38.414041 
L 184.893818 37.282101 
L 185.157858 38.414041 
L 185.286268 36.716056 
L 185.421391 36.716141 
L 185.550153 37.282058 
L 185.679434 34.452261 
L 185.810421 34.169228 
L 185.942064 35.018199 
L 186.334904 29.924395 
L 186.46779 31.05625 
L 186.730179 29.075488 
L 186.860754 27.660388 
L 186.991297 27.660388 
L 187.12361 28.226453 
L 187.251947 24.264652 
L 187.384221 25.962594 
L 187.515798 24.264652 
L 187.64676 24.058824 
L 187.777583 22.566711 
L 188.039835 22.566711 
L 188.170687 21.434855 
L 188.303532 19.170912 
L 188.432881 19.170912 
L 188.562288 18.60491 
L 188.694498 18.605037 
L 188.824354 18.038887 
L 188.95639 19.170848 
L 189.08628 18.605016 
L 189.217389 18.60491 
L 189.349733 16.907032 
L 189.611767 19.170848 
L 189.742716 17.472927 
L 189.874367 18.038908 
L 190.003654 16.906968 
L 190.135481 18.604952 
L 190.266953 17.47297 
L 190.396844 17.47297 
L 190.529143 18.604846 
L 190.922172 17.370108 
L 191.053493 18.03895 
L 191.183743 17.473054 
L 191.315437 18.60491 
L 191.446035 17.473054 
L 191.577812 18.604846 
L 191.707384 17.47297 
L 191.840696 18.038908 
L 191.96933 18.039014 
L 192.100394 18.604804 
L 192.231654 18.604973 
L 192.494926 16.906968 
L 192.62582 18.60491 
L 192.887971 16.341009 
L 193.019573 17.47297 
L 193.150046 17.473012 
L 193.281242 19.17089 
L 193.542446 16.906989 
L 193.674554 18.03895 
L 193.805681 16.906989 
L 193.935263 17.47297 
L 194.067711 16.906989 
L 194.199124 17.47297 
L 194.460799 17.472927 
L 194.590645 18.038972 
L 194.721854 17.473012 
L 194.98388 18.913684 
L 195.115325 18.038908 
L 195.246898 18.60491 
L 195.508754 17.472949 
L 195.640189 17.472885 
L 195.770989 18.03895 
L 195.901017 18.038844 
L 196.033389 17.368202 
L 196.164492 17.472906 
L 196.295688 19.170848 
L 196.426487 18.604846 
L 196.556611 18.604973 
L 196.68742 16.907053 
L 196.8196 18.038972 
L 196.951016 17.47297 
L 197.080524 17.472949 
L 197.344364 16.341051 
L 197.606036 19.170869 
L 197.735956 18.039014 
L 197.868278 19.170912 
L 198.000525 19.17089 
L 198.130764 22.566838 
L 198.260111 22.000815 
L 198.522147 23.698693 
L 198.65314 25.962552 
L 198.784501 25.39655 
L 199.046402 27.660515 
L 199.310155 31.056335 
L 199.57055 28.226453 
L 200.095425 33.320257 
L 200.225723 31.622464 
L 200.489426 36.150055 
L 200.6191 35.584265 
L 200.751515 36.716141 
L 200.882435 36.716141 
L 201.013578 38.98 
L 201.145788 38.413935 
L 201.274904 37.282206 
L 201.536438 39.545938 
L 201.798726 41.809861 
L 201.931109 40.678005 
L 202.19177 43.507803 
L 202.324196 43.507781 
L 202.455674 45.771683 
L 202.58588 44.639764 
L 202.847015 46.903665 
L 202.979106 46.337663 
L 203.110481 46.903665 
L 203.241419 46.903601 
L 203.372944 48.035605 
L 203.503711 48.035605 
L 204.29022 54.261286 
L 204.421115 53.412336 
L 204.550739 53.695326 
L 204.683359 51.997448 
L 204.944184 54.261371 
L 205.207948 52.563323 
L 205.337012 52.846419 
L 205.469635 50.865466 
L 205.601126 52.563492 
L 205.86522 50.299549 
L 205.994088 50.2994 
L 206.124698 51.431446 
L 206.388971 49.733483 
L 206.648938 48.601543 
L 206.781256 46.903665 
L 206.912855 49.167545 
L 207.044422 48.035542 
L 207.176254 49.167545 
L 207.305007 46.903538 
L 207.436964 47.469603 
L 207.5663 47.469667 
L 207.697144 46.903707 
L 207.828057 49.167651 
L 207.959447 48.601543 
L 208.090495 45.771704 
L 208.221207 46.903686 
L 208.355229 46.620654 
L 208.483381 44.639743 
L 208.617286 46.337727 
L 208.745546 46.337727 
L 208.879191 45.771598 
L 209.010731 45.771746 
L 209.271496 42.941737 
L 209.403059 42.941864 
L 209.534453 42.375862 
L 209.665418 43.22477 
L 209.794264 42.941864 
L 209.92702 42.941864 
L 210.055917 42.375947 
L 210.189847 42.941949 
L 210.321229 42.376011 
L 210.449559 43.507803 
L 210.583095 41.243859 
L 210.711437 41.243859 
L 210.842684 41.809861 
L 210.973221 41.243859 
L 211.235488 41.243859 
L 211.366374 40.11194 
L 211.49771 41.243901 
L 211.630276 41.243944 
L 211.759743 40.677942 
L 212.022053 38.98 
L 212.15315 39.545959 
L 212.283432 41.24388 
L 212.414397 40.677942 
L 212.938625 44.639743 
L 213.07212 44.639721 
L 213.20108 45.205744 
L 213.331785 46.903601 
L 213.594236 46.903665 
L 213.727823 48.601586 
L 213.856943 48.601586 
L 213.98705 49.167524 
L 214.380004 53.695305 
L 214.512842 52.563344 
L 214.644151 54.261286 
L 214.773468 53.129325 
L 215.168046 57.657085 
L 215.429062 56.525145 
L 215.822431 59.921028 
L 215.954257 59.921028 
L 216.085454 60.486946 
L 216.216518 59.354963 
L 216.345365 61.053032 
L 216.476641 60.487094 
L 216.609361 61.053032 
L 216.870404 59.921028 
L 217.001421 60.48703 
L 217.132049 59.921028 
L 217.262881 58.789152 
L 217.525389 59.921028 
L 217.656137 59.921028 
L 217.788517 59.35509 
L 218.18311 61.053096 
L 218.311311 60.769999 
L 218.442768 59.921071 
L 218.57372 61.619034 
L 218.704547 59.92105 
L 218.836825 60.487094 
L 218.967871 61.619013 
L 219.098822 61.053096 
L 219.230409 59.921156 
L 219.361763 60.48703 
L 219.754362 60.487094 
L 219.88416 59.921092 
L 220.016054 59.921092 
L 220.277233 58.223087 
L 220.410622 59.355154 
L 220.540889 58.789152 
L 220.670587 58.789088 
L 220.802815 58.22315 
L 220.93431 60.48703 
L 221.063509 58.789152 
L 221.327751 61.053032 
L 221.457752 58.789088 
L 221.589617 59.355154 
L 221.718971 60.48703 
L 221.850971 59.921028 
L 221.981976 61.053032 
L 222.113688 60.48703 
L 222.24421 60.487051 
L 222.375313 61.05299 
L 222.505321 60.48703 
L 222.769096 60.48703 
L 222.898374 61.053011 
L 223.030437 59.355069 
L 223.161424 61.05299 
L 223.291794 61.053011 
L 223.422645 60.48703 
L 223.684673 58.22315 
L 223.817234 58.223108 
L 224.079434 55.393311 
L 224.471218 57.091168 
L 224.603357 56.525208 
L 224.995754 49.733483 
L 225.25853 51.431489 
L 225.520231 46.903707 
L 225.651463 47.469582 
L 225.781437 46.903665 
L 225.913332 47.469752 
L 226.175806 44.639743 
L 226.306584 45.771683 
L 226.700046 41.809797 
L 226.830538 40.678005 
L 226.961148 42.092872 
L 227.356037 36.716056 
L 227.48572 40.111961 
L 227.747071 36.150055 
L 227.878389 37.848039 
L 228.009303 37.848039 
L 228.272808 37.282185 
L 228.534806 33.320215 
L 228.66631 33.886196 
L 228.797227 32.188317 
L 229.058795 32.18836 
L 229.189884 33.320257 
L 229.321254 32.188296 
L 229.451255 33.320257 
L 229.58266 33.320257 
L 229.844078 31.622316 
L 229.975658 32.188296 
L 230.107598 32.188296 
L 230.238918 31.056356 
L 230.369107 31.056356 
L 230.499618 31.622316 
L 230.762251 31.622294 
L 230.894052 33.037267 
L 231.025087 31.622273 
L 231.286138 32.471329 
L 231.417886 33.886238 
L 231.549054 33.320257 
L 231.680095 33.320194 
L 231.811371 33.886196 
L 231.942609 33.320257 
L 232.073333 33.886196 
L 232.204159 32.18819 
L 232.465756 34.45207 
L 232.989739 34.452134 
L 233.121807 33.886196 
L 233.251321 34.452134 
L 233.383585 35.584265 
L 233.513701 35.018199 
L 233.645067 35.584265 
L 233.775927 33.781385 
L 233.90672 33.603227 
L 234.038959 33.886196 
L 234.299712 33.886302 
L 234.431855 33.320257 
L 234.693853 34.452261 
L 234.824419 32.754298 
L 235.085888 36.150097 
L 235.480591 32.754277 
L 235.741151 36.150118 
L 235.87334 35.584159 
L 236.00426 36.150118 
L 236.135169 35.018178 
L 236.265611 36.150139 
L 236.396485 36.150139 
L 236.528437 36.716099 
L 236.659602 36.150097 
L 236.790404 36.71612 
L 236.921295 36.71612 
L 237.053479 36.150139 
L 237.183444 37.848102 
L 237.444611 36.716141 
L 237.575804 37.282101 
L 237.707868 36.716141 
L 237.83832 37.282058 
L 237.969858 37.282122 
L 238.101231 38.413998 
L 238.231811 36.999131 
L 238.36271 37.84806 
L 238.493705 36.715993 
L 238.624889 37.281995 
L 238.755225 36.716141 
L 238.88617 37.848124 
L 239.017231 36.716141 
L 239.279538 39.546065 
L 239.541662 37.282058 
L 239.804221 39.546065 
L 239.934851 40.677942 
L 240.066134 40.112004 
L 240.327726 40.112004 
L 240.458779 40.677942 
L 240.589986 41.809797 
L 240.721238 41.809797 
L 240.982993 37.848124 
L 241.113984 37.282058 
L 241.245209 39.263033 
L 241.507563 37.282058 
L 241.638624 38.413998 
L 241.900765 36.716141 
L 242.031691 38.414062 
L 242.162866 35.018136 
L 242.424454 36.716056 
L 242.817998 33.320194 
L 242.948975 33.320321 
L 243.079783 34.452197 
L 243.21112 33.320257 
L 243.473398 33.320194 
L 243.604829 32.754256 
L 243.866061 34.452261 
L 243.997376 32.754319 
L 244.259147 35.584159 
L 244.652617 37.282058 
L 244.914779 40.677942 
L 245.046113 39.546002 
L 245.176603 40.677942 
L 245.308115 40.111876 
L 245.438811 37.282058 
L 245.701078 39.546002 
L 245.831958 40.111961 
L 245.963128 40.11194 
L 246.225515 38.413998 
L 246.487639 39.545959 
L 246.618604 38.98 
L 246.749366 40.677942 
L 246.880471 40.677899 
L 247.011703 40.11194 
L 247.1425 40.677942 
L 247.1425 40.677942 
" clip-path="url(#p0276f7704c)" style="fill: none; stroke: #0000ff; stroke-width: 2; stroke-linecap: square"/>
   </g>
   <g id="line2d_26">
    <path d="M 159.625 17.793333 
L 251.31 17.793333 
" clip-path="url(#p0276f7704c)" style="fill: none; stroke-dasharray: 7.4,3.2; stroke-dashoffset: 0; stroke: #000000; stroke-opacity: 0.7; stroke-width: 2"/>
   </g>
   <g id="line2d_27">
    <path d="M 159.625 60.166667 
L 251.31 60.166667 
" clip-path="url(#p0276f7704c)" style="fill: none; stroke-dasharray: 7.4,3.2; stroke-dashoffset: 0; stroke: #000000; stroke-opacity: 0.7; stroke-width: 2"/>
   </g>
   <g id="patch_8">
    <path d="M 159.625 70.76 
L 159.625 7.2 
" style="fill: none; stroke: #000000; stroke-width: 0.8; stroke-linejoin: miter; stroke-linecap: square"/>
   </g>
   <g id="patch_9">
    <path d="M 251.31 70.76 
L 251.31 7.2 
" style="fill: none; stroke: #000000; stroke-width: 0.8; stroke-linejoin: miter; stroke-linecap: square"/>
   </g>
   <g id="patch_10">
    <path d="M 159.625 70.76 
L 251.31 70.76 
" style="fill: none; stroke: #000000; stroke-width: 0.8; stroke-linejoin: miter; stroke-linecap: square"/>
   </g>
   <g id="patch_11">
    <path d="M 159.625 7.2 
L 251.31 7.2 
" style="fill: none; stroke: #000000; stroke-width: 0.8; stroke-linejoin: miter; stroke-linecap: square"/>
   </g>
  </g>
 </g>
 <defs>
  <clipPath id="p8d841b74c9">
   <rect x="35.2" y="7.2" width="91.685" height="63.56"/>
  </clipPath>
  <clipPath id="p0276f7704c">
   <rect x="159.625" y="7.2" width="91.685" height="63.56"/>
  </clipPath>
 </defs>
</svg>
