<?xml version="1.0" encoding="utf-8" standalone="no"?>
<!DOCTYPE svg PUBLIC "-//W3C//DTD SVG 1.1//EN"
  "http://www.w3.org/Graphics/SVG/1.1/DTD/svg11.dtd">
<svg xmlns:xlink="http://www.w3.org/1999/xlink" width="489.009375pt" height="200.205pt" viewBox="0 0 489.009375 200.205" xmlns="http://www.w3.org/2000/svg" version="1.1">
 <metadata>
  <rdf:RDF xmlns:dc="http://purl.org/dc/elements/1.1/" xmlns:cc="http://creativecommons.org/ns#" xmlns:rdf="http://www.w3.org/1999/02/22-rdf-syntax-ns#">
   <cc:Work>
    <dc:type rdf:resource="http://purl.org/dc/dcmitype/StillImage"/>
    <dc:date>2026-01-18T23:30:36.757802</dc:date>
    <dc:format>image/svg+xml</dc:format>
    <dc:creator>
     <cc:Agent>
      <dc:title>Matplotlib v3.6.3, https://matplotlib.org/</dc:title>
     </cc:Agent>
    </dc:creator>
   </cc:Work>
  </rdf:RDF>
 </metadata>
 <defs>
  <style type="text/css">*{stroke-linejoin: round; stroke-linecap: butt}</style>
 </defs>
 <g id="figure_1">
  <g id="patch_1">
   <path d="M 0 200.205 
L 489.009375 200.205 
L 489.009375 -0 
L 0 -0 
z
" style="fill: #ffffff"/>
  </g>
  <g id="axes_1">
   <g id="patch_2">
    <path d="M 50.099375 160.20625 
L 235.929375 160.20625 
L 235.929375 11.36625 
L 50.099375 11.36625 
z
" style="fill: #ffffff"/>
   </g>
   <g id="matplotlib.axis_1">
    <g id="xtick_1">
     <g id="line2d_1">
      <path d="M 58.546193 160.20625 
L 58.546193 11.36625 
" clip-path="url(#p68825bb6ae)" style="fill: none; stroke: #b0b0b0; stroke-opacity: 0.3; stroke-width: 0.8; stroke-linecap: square"/>
     </g>
     <g id="line2d_2">
      <defs>
       <path id="mb7bd201d0e" d="M 0 0 
L 0 3.5 
" style="stroke: #000000; stroke-width: 0.8"/>
      </defs>
      <g>
       <use xlink:href="#mb7bd201d0e" x="58.546193" y="160.20625" style="stroke: #000000; stroke-width: 0.8"/>
      </g>
     </g>
     <g id="text_1">
      <!-- 0 -->
      <g transform="translate(55.546193 175.53875) scale(0.12 -0.12)">
       <defs>
        <path id="TimesNewRomanPSMT-30" d="M 231 2094 
Q 231 2819 450 3342 
Q 669 3866 1031 4122 
Q 1313 4325 1613 4325 
Q 2100 4325 2488 3828 
Q 2972 3213 2972 2159 
Q 2972 1422 2759 906 
Q 2547 391 2217 158 
Q 1888 -75 1581 -75 
Q 975 -75 572 641 
Q 231 1244 231 2094 
z
M 844 2016 
Q 844 1141 1059 588 
Q 1238 122 1591 122 
Q 1759 122 1940 273 
Q 2122 425 2216 781 
Q 2359 1319 2359 2297 
Q 2359 3022 2209 3506 
Q 2097 3866 1919 4016 
Q 1791 4119 1609 4119 
Q 1397 4119 1231 3928 
Q 1006 3669 925 3112 
Q 844 2556 844 2016 
z
" transform="scale(0.015625)"/>
       </defs>
       <use xlink:href="#TimesNewRomanPSMT-30"/>
      </g>
     </g>
    </g>
    <g id="xtick_2">
     <g id="line2d_3">
      <path d="M 131.259641 160.20625 
L 131.259641 11.36625 
" clip-path="url(#p68825bb6ae)" style="fill: none; stroke: #b0b0b0; stroke-opacity: 0.3; stroke-width: 0.8; stroke-linecap: square"/>
     </g>
     <g id="line2d_4">
      <g>
       <use xlink:href="#mb7bd201d0e" x="131.259641" y="160.20625" style="stroke: #000000; stroke-width: 0.8"/>
      </g>
     </g>
     <g id="text_2">
      <!-- 10 -->
      <g transform="translate(125.259641 175.53875) scale(0.12 -0.12)">
       <defs>
        <path id="TimesNewRomanPSMT-31" d="M 750 3822 
L 1781 4325 
L 1884 4325 
L 1884 747 
Q 1884 391 1914 303 
Q 1944 216 2037 169 
Q 2131 122 2419 116 
L 2419 0 
L 825 0 
L 825 116 
Q 1125 122 1212 167 
Q 1300 213 1334 289 
Q 1369 366 1369 747 
L 1369 3034 
Q 1369 3497 1338 3628 
Q 1316 3728 1258 3775 
Q 1200 3822 1119 3822 
Q 1003 3822 797 3725 
L 750 3822 
z
" transform="scale(0.015625)"/>
       </defs>
       <use xlink:href="#TimesNewRomanPSMT-31"/>
       <use xlink:href="#TimesNewRomanPSMT-30" x="50"/>
      </g>
     </g>
    </g>
    <g id="xtick_3">
     <g id="line2d_5">
      <path d="M 203.973089 160.20625 
L 203.973089 11.36625 
" clip-path="url(#p68825bb6ae)" style="fill: none; stroke: #b0b0b0; stroke-opacity: 0.3; stroke-width: 0.8; stroke-linecap: square"/>
     </g>
     <g id="line2d_6">
      <g>
       <use xlink:href="#mb7bd201d0e" x="203.973089" y="160.20625" style="stroke: #000000; stroke-width: 0.8"/>
      </g>
     </g>
     <g id="text_3">
      <!-- 20 -->
      <g transform="translate(197.973089 175.53875) scale(0.12 -0.12)">
       <defs>
        <path id="TimesNewRomanPSMT-32" d="M 2934 816 
L 2638 0 
L 138 0 
L 138 116 
Q 1241 1122 1691 1759 
Q 2141 2397 2141 2925 
Q 2141 3328 1894 3587 
Q 1647 3847 1303 3847 
Q 991 3847 742 3664 
Q 494 3481 375 3128 
L 259 3128 
Q 338 3706 661 4015 
Q 984 4325 1469 4325 
Q 1984 4325 2329 3994 
Q 2675 3663 2675 3213 
Q 2675 2891 2525 2569 
Q 2294 2063 1775 1497 
Q 997 647 803 472 
L 1909 472 
Q 2247 472 2383 497 
Q 2519 522 2628 598 
Q 2738 675 2819 816 
L 2934 816 
z
" transform="scale(0.015625)"/>
       </defs>
       <use xlink:href="#TimesNewRomanPSMT-32"/>
       <use xlink:href="#TimesNewRomanPSMT-30" x="50"/>
      </g>
     </g>
    </g>
    <g id="text_4">
     <!-- $t$ [s] -->
     <g transform="translate(133.474375 190.438125) scale(0.12 -0.12)">
      <defs>
       <path id="STIXGeneral-Italic-74" d="M 1894 2739 
L 1862 2534 
L 1325 2534 
L 768 435 
Q 755 384 755 346 
Q 755 243 851 243 
Q 928 243 1030 342 
Q 1133 442 1370 749 
L 1453 704 
Q 1158 256 969 93 
Q 781 -70 538 -70 
Q 243 -70 243 166 
Q 243 230 346 640 
L 845 2534 
L 365 2534 
L 358 2573 
Q 358 2688 570 2733 
Q 730 2771 992 2979 
Q 1254 3187 1421 3437 
Q 1459 3494 1510 3494 
Q 1568 3494 1568 3443 
Q 1568 3411 1562 3398 
L 1382 2739 
L 1894 2739 
z
" transform="scale(0.015625)"/>
       <path id="TimesNewRomanPSMT-20" transform="scale(0.015625)"/>
       <path id="TimesNewRomanPSMT-5b" d="M 1900 -1269 
L 525 -1269 
L 525 4334 
L 1900 4334 
L 1900 4088 
L 994 4088 
L 994 -1025 
L 1900 -1025 
L 1900 -1269 
z
" transform="scale(0.015625)"/>
       <path id="TimesNewRomanPSMT-73" d="M 2050 2947 
L 2050 1972 
L 1947 1972 
Q 1828 2431 1642 2597 
Q 1456 2763 1169 2763 
Q 950 2763 815 2647 
Q 681 2531 681 2391 
Q 681 2216 781 2091 
Q 878 1963 1175 1819 
L 1631 1597 
Q 2266 1288 2266 781 
Q 2266 391 1970 151 
Q 1675 -88 1309 -88 
Q 1047 -88 709 6 
Q 606 38 541 38 
Q 469 38 428 -44 
L 325 -44 
L 325 978 
L 428 978 
Q 516 541 762 319 
Q 1009 97 1316 97 
Q 1531 97 1667 223 
Q 1803 350 1803 528 
Q 1803 744 1651 891 
Q 1500 1038 1047 1263 
Q 594 1488 453 1669 
Q 313 1847 313 2119 
Q 313 2472 555 2709 
Q 797 2947 1181 2947 
Q 1350 2947 1591 2875 
Q 1750 2828 1803 2828 
Q 1853 2828 1881 2850 
Q 1909 2872 1947 2947 
L 2050 2947 
z
" transform="scale(0.015625)"/>
       <path id="TimesNewRomanPSMT-5d" d="M 234 4334 
L 1609 4334 
L 1609 -1272 
L 234 -1272 
L 234 -1025 
L 1141 -1025 
L 1141 4088 
L 234 4088 
L 234 4334 
z
" transform="scale(0.015625)"/>
      </defs>
      <use xlink:href="#STIXGeneral-Italic-74" transform="translate(0 0.28125)"/>
      <use xlink:href="#TimesNewRomanPSMT-20" transform="translate(27.799988 0.28125)"/>
      <use xlink:href="#TimesNewRomanPSMT-5b" transform="translate(52.799988 0.28125)"/>
      <use xlink:href="#TimesNewRomanPSMT-73" transform="translate(86.100769 0.28125)"/>
      <use xlink:href="#TimesNewRomanPSMT-5d" transform="translate(125.016785 0.28125)"/>
     </g>
    </g>
   </g>
   <g id="matplotlib.axis_2">
    <g id="ytick_1">
     <g id="line2d_7">
      <path d="M 50.099375 153.440795 
L 235.929375 153.440795 
" clip-path="url(#p68825bb6ae)" style="fill: none; stroke: #b0b0b0; stroke-opacity: 0.3; stroke-width: 0.8; stroke-linecap: square"/>
     </g>
     <g id="line2d_8">
      <defs>
       <path id="me7476130f9" d="M 0 0 
L -3.5 0 
" style="stroke: #000000; stroke-width: 0.8"/>
      </defs>
      <g>
       <use xlink:href="#me7476130f9" x="50.099375" y="153.440795" style="stroke: #000000; stroke-width: 0.8"/>
      </g>
     </g>
     <g id="text_5">
      <!-- 0.00 -->
      <g transform="translate(22.099375 157.607045) scale(0.12 -0.12)">
       <defs>
        <path id="TimesNewRomanPSMT-2e" d="M 800 606 
Q 947 606 1047 504 
Q 1147 403 1147 259 
Q 1147 116 1045 14 
Q 944 -88 800 -88 
Q 656 -88 554 14 
Q 453 116 453 259 
Q 453 406 554 506 
Q 656 606 800 606 
z
" transform="scale(0.015625)"/>
       </defs>
       <use xlink:href="#TimesNewRomanPSMT-30"/>
       <use xlink:href="#TimesNewRomanPSMT-2e" x="50"/>
       <use xlink:href="#TimesNewRomanPSMT-30" x="75"/>
       <use xlink:href="#TimesNewRomanPSMT-30" x="125"/>
      </g>
     </g>
    </g>
    <g id="ytick_2">
     <g id="line2d_9">
      <path d="M 50.099375 89.615632 
L 235.929375 89.615632 
" clip-path="url(#p68825bb6ae)" style="fill: none; stroke: #b0b0b0; stroke-opacity: 0.3; stroke-width: 0.8; stroke-linecap: square"/>
     </g>
     <g id="line2d_10">
      <g>
       <use xlink:href="#me7476130f9" x="50.099375" y="89.615632" style="stroke: #000000; stroke-width: 0.8"/>
      </g>
     </g>
     <g id="text_6">
      <!-- 0.25 -->
      <g transform="translate(22.099375 93.781882) scale(0.12 -0.12)">
       <defs>
        <path id="TimesNewRomanPSMT-35" d="M 2778 4238 
L 2534 3706 
L 1259 3706 
L 981 3138 
Q 1809 3016 2294 2522 
Q 2709 2097 2709 1522 
Q 2709 1188 2573 903 
Q 2438 619 2231 419 
Q 2025 219 1772 97 
Q 1413 -75 1034 -75 
Q 653 -75 479 54 
Q 306 184 306 341 
Q 306 428 378 495 
Q 450 563 559 563 
Q 641 563 702 538 
Q 763 513 909 409 
Q 1144 247 1384 247 
Q 1750 247 2026 523 
Q 2303 800 2303 1197 
Q 2303 1581 2056 1914 
Q 1809 2247 1375 2428 
Q 1034 2569 447 2591 
L 1259 4238 
L 2778 4238 
z
" transform="scale(0.015625)"/>
       </defs>
       <use xlink:href="#TimesNewRomanPSMT-30"/>
       <use xlink:href="#TimesNewRomanPSMT-2e" x="50"/>
       <use xlink:href="#TimesNewRomanPSMT-32" x="75"/>
       <use xlink:href="#TimesNewRomanPSMT-35" x="125"/>
      </g>
     </g>
    </g>
    <g id="ytick_3">
     <g id="line2d_11">
      <path d="M 50.099375 25.790469 
L 235.929375 25.790469 
" clip-path="url(#p68825bb6ae)" style="fill: none; stroke: #b0b0b0; stroke-opacity: 0.3; stroke-width: 0.8; stroke-linecap: square"/>
     </g>
     <g id="line2d_12">
      <g>
       <use xlink:href="#me7476130f9" x="50.099375" y="25.790469" style="stroke: #000000; stroke-width: 0.8"/>
      </g>
     </g>
     <g id="text_7">
      <!-- 0.50 -->
      <g transform="translate(22.099375 29.956719) scale(0.12 -0.12)">
       <use xlink:href="#TimesNewRomanPSMT-30"/>
       <use xlink:href="#TimesNewRomanPSMT-2e" x="50"/>
       <use xlink:href="#TimesNewRomanPSMT-35" x="75"/>
       <use xlink:href="#TimesNewRomanPSMT-30" x="125"/>
      </g>
     </g>
    </g>
    <g id="text_8">
     <!-- $v$ [m/s] -->
     <g transform="translate(15.5325 102.64625) rotate(-90) scale(0.12 -0.12)">
      <defs>
       <path id="STIXGeneral-Italic-76" d="M 1325 448 
L 1523 653 
Q 1869 1005 2134 1456 
Q 2400 1907 2400 2131 
Q 2400 2208 2285 2317 
Q 2125 2458 2125 2605 
Q 2125 2701 2195 2761 
Q 2266 2822 2368 2822 
Q 2522 2822 2624 2704 
Q 2726 2586 2726 2445 
Q 2726 2074 2323 1453 
Q 1971 909 1562 474 
Q 1504 416 1421 326 
Q 1338 237 1299 192 
Q 1261 147 1200 86 
Q 1139 26 1110 -3 
Q 1082 -32 1043 -64 
Q 1005 -96 979 -105 
Q 954 -115 928 -115 
Q 870 -115 870 58 
L 870 211 
Q 870 1094 717 1990 
Q 653 2355 579 2470 
Q 506 2586 326 2586 
Q 198 2586 128 2579 
L 128 2662 
Q 480 2720 845 2797 
Q 915 2822 973 2822 
Q 1011 2822 1033 2739 
Q 1056 2656 1165 2093 
Q 1280 1510 1325 448 
z
" transform="scale(0.015625)"/>
       <path id="TimesNewRomanPSMT-6d" d="M 1050 2338 
Q 1363 2650 1419 2697 
Q 1559 2816 1721 2881 
Q 1884 2947 2044 2947 
Q 2313 2947 2506 2790 
Q 2700 2634 2766 2338 
Q 3088 2713 3309 2830 
Q 3531 2947 3766 2947 
Q 3994 2947 4170 2830 
Q 4347 2713 4450 2447 
Q 4519 2266 4519 1878 
L 4519 647 
Q 4519 378 4559 278 
Q 4591 209 4675 161 
Q 4759 113 4950 113 
L 4950 0 
L 3538 0 
L 3538 113 
L 3597 113 
Q 3781 113 3884 184 
Q 3956 234 3988 344 
Q 4000 397 4000 647 
L 4000 1878 
Q 4000 2228 3916 2372 
Q 3794 2572 3525 2572 
Q 3359 2572 3192 2489 
Q 3025 2406 2788 2181 
L 2781 2147 
L 2788 2013 
L 2788 647 
Q 2788 353 2820 281 
Q 2853 209 2943 161 
Q 3034 113 3253 113 
L 3253 0 
L 1806 0 
L 1806 113 
Q 2044 113 2133 169 
Q 2222 225 2256 338 
Q 2272 391 2272 647 
L 2272 1878 
Q 2272 2228 2169 2381 
Q 2031 2581 1784 2581 
Q 1616 2581 1450 2491 
Q 1191 2353 1050 2181 
L 1050 647 
Q 1050 366 1089 281 
Q 1128 197 1204 155 
Q 1281 113 1516 113 
L 1516 0 
L 100 0 
L 100 113 
Q 297 113 375 155 
Q 453 197 493 289 
Q 534 381 534 647 
L 534 1741 
Q 534 2213 506 2350 
Q 484 2453 437 2492 
Q 391 2531 309 2531 
Q 222 2531 100 2484 
L 53 2597 
L 916 2947 
L 1050 2947 
L 1050 2338 
z
" transform="scale(0.015625)"/>
       <path id="TimesNewRomanPSMT-2f" d="M 1794 4444 
L 259 -88 
L 9 -88 
L 1544 4444 
L 1794 4444 
z
" transform="scale(0.015625)"/>
      </defs>
      <use xlink:href="#STIXGeneral-Italic-76" transform="translate(0 0.5625)"/>
      <use xlink:href="#TimesNewRomanPSMT-20" transform="translate(44.399994 0.5625)"/>
      <use xlink:href="#TimesNewRomanPSMT-5b" transform="translate(69.399994 0.5625)"/>
      <use xlink:href="#TimesNewRomanPSMT-6d" transform="translate(102.700775 0.5625)"/>
      <use xlink:href="#TimesNewRomanPSMT-2f" transform="translate(180.483978 0.5625)"/>
      <use xlink:href="#TimesNewRomanPSMT-73" transform="translate(208.267181 0.5625)"/>
      <use xlink:href="#TimesNewRomanPSMT-5d" transform="translate(247.183197 0.5625)"/>
     </g>
    </g>
   </g>
   <g id="line2d_13">
    <path d="M 58.546193 25.790469 
L 210.760193 25.790469 
L 211.00138 26.637812 
L 211.486536 33.602158 
L 211.729592 35.600141 
L 212.455292 45.747832 
L 212.698876 49.367995 
L 212.941313 51.15561 
L 213.910911 61.941297 
L 214.153 63.06513 
L 214.636674 68.096851 
L 216.333987 82.390368 
L 216.576502 83.554284 
L 216.818013 85.856585 
L 217.060748 86.549471 
L 218.030495 93.103039 
L 218.272145 93.765544 
L 218.757669 96.684397 
L 219.726449 100.125849 
L 221.423454 111.83164 
L 221.90758 114.016758 
L 222.150144 114.194192 
L 222.634873 116.449263 
L 223.120264 118.062252 
L 223.362059 118.560599 
L 223.604806 119.4276 
L 224.089663 121.652035 
L 225.785809 127.349324 
L 226.270437 128.863767 
L 226.997439 131.609781 
L 227.482557 132.664939 
L 227.482557 132.664939 
" clip-path="url(#p68825bb6ae)" style="fill: none; stroke: #ff0000; stroke-opacity: 0.8; stroke-linecap: square"/>
   </g>
   <g id="line2d_14">
    <path d="M 58.546193 153.440795 
L 59.518725 153.440795 
L 59.759645 143.292594 
L 60.000671 143.292594 
L 60.244935 139.909861 
L 60.487713 134.83576 
L 60.970444 117.922092 
L 61.213261 111.156625 
L 61.456266 114.539358 
L 61.697557 106.082524 
L 61.94038 104.391157 
L 62.183199 99.317057 
L 62.666864 85.786122 
L 62.91144 83.2492 
L 63.152728 84.0945 
L 63.39599 80.712277 
L 64.124407 65.48972 
L 64.364699 51.958786 
L 64.606174 50.267419 
L 64.848434 53.650153 
L 65.090522 48.575797 
L 65.333202 33.353751 
L 65.5759 28.279906 
L 65.820216 29.971017 
L 66.060041 21.514183 
L 66.304915 24.896917 
L 66.788397 18.131705 
L 67.272752 24.896917 
L 67.517616 19.822816 
L 67.759136 28.27965 
L 67.99956 29.971017 
L 68.24446 28.279906 
L 68.484361 25.742472 
L 68.726787 24.896917 
L 68.969146 26.588539 
L 69.211597 26.588283 
L 69.453576 23.205805 
L 69.698102 21.514183 
L 69.941574 26.588283 
L 70.184871 24.740162 
L 70.424307 26.588283 
L 70.668227 24.896661 
L 70.910073 26.588283 
L 71.150208 26.588539 
L 71.395736 23.205805 
L 71.634981 23.205294 
L 71.878023 26.588028 
L 72.122363 23.205294 
L 72.364509 23.20555 
L 72.604942 24.896917 
L 72.849513 23.20555 
L 73.332604 26.588283 
L 73.574157 21.514183 
L 73.82037 29.971017 
L 74.303616 24.896917 
L 74.543533 27.528045 
L 74.786189 24.896917 
L 75.030822 24.896917 
L 75.512919 28.27965 
L 75.756826 25.742728 
L 75.999769 24.896917 
L 76.24016 28.27965 
L 76.482534 26.588283 
L 76.727223 23.20555 
L 76.968717 21.514183 
L 77.212704 24.896917 
L 77.696648 24.896661 
L 77.93943 26.588028 
L 78.181418 25.742728 
L 78.422435 28.279906 
L 78.66693 24.896661 
L 78.906324 23.205805 
L 79.148589 26.588283 
L 79.391097 24.897427 
L 79.633928 26.588283 
L 79.877682 26.588028 
L 80.118656 23.205805 
L 80.364641 26.588283 
L 80.605667 28.279906 
L 80.847911 26.588283 
L 81.090066 26.588283 
L 81.333298 24.051105 
L 81.575305 29.970762 
L 81.817451 23.205805 
L 82.057325 27.434094 
L 82.299397 26.588028 
L 82.54433 26.588283 
L 82.787306 24.896917 
L 83.02846 28.279906 
L 83.271264 26.588283 
L 83.515142 23.205805 
L 83.756913 25.742728 
L 83.998367 23.205805 
L 84.726714 23.20555 
L 84.969245 21.514183 
L 85.215523 26.588283 
L 85.457315 25.819573 
L 85.698743 23.20555 
L 85.937872 26.588283 
L 86.184888 28.27965 
L 86.423361 24.897172 
L 86.666868 26.588283 
L 86.907913 24.896917 
L 87.153784 24.896917 
L 87.635761 28.27965 
L 87.877185 31.662384 
L 88.123178 29.971017 
L 88.361029 24.896917 
L 88.846224 24.897172 
L 89.091429 29.971017 
L 89.331676 27.434094 
L 89.57842 19.822816 
L 89.82077 24.896917 
L 90.300623 24.896661 
L 90.543081 28.27914 
L 90.784652 26.588283 
L 91.029605 23.20555 
L 91.269708 22.892296 
L 91.516084 28.279395 
L 91.759375 24.896917 
L 91.998003 24.897172 
L 92.24176 28.27965 
L 92.728201 19.822816 
L 92.967801 23.205805 
L 93.454019 26.588539 
L 93.692811 23.205805 
L 93.938431 29.971017 
L 94.181818 23.205294 
L 94.422715 26.588539 
L 94.666359 26.588028 
L 94.909075 29.125461 
L 95.151846 24.897172 
L 95.389427 23.205294 
L 95.878828 26.588283 
L 96.121922 23.20555 
L 96.600875 26.588283 
L 96.847294 26.588283 
L 97.086562 21.514183 
L 97.331098 24.896917 
L 97.570629 24.896917 
L 97.81291 28.279906 
L 98.297742 24.896917 
L 98.543331 26.588283 
L 98.784806 24.896917 
L 99.025218 24.896917 
L 99.267011 21.514183 
L 99.510168 24.896917 
L 99.755954 23.20555 
L 99.995749 26.588283 
L 100.239791 28.27965 
L 100.480761 28.27965 
L 100.96543 24.896661 
L 101.451037 28.27965 
L 101.691477 26.588283 
L 101.936355 26.588283 
L 102.419414 23.20555 
L 102.903337 26.588283 
L 103.146478 24.896917 
L 103.388653 21.514183 
L 103.630643 23.205805 
L 103.873381 26.588283 
L 104.116586 23.205805 
L 104.358037 21.514438 
L 104.602028 26.588283 
L 104.84209 21.514438 
L 105.082892 25.819318 
L 105.325263 26.588283 
L 105.567799 21.514438 
L 106.054961 21.514438 
L 106.295101 29.407313 
L 106.539403 24.896917 
L 106.779867 24.896917 
L 107.022926 23.205805 
L 107.264384 26.588283 
L 107.749892 26.588539 
L 107.991506 23.20555 
L 108.233982 29.971272 
L 108.478099 24.896917 
L 108.720513 26.588539 
L 108.961236 21.513928 
L 109.20472 23.205294 
L 109.448256 28.279395 
L 109.688525 26.588283 
L 109.930706 23.20555 
L 110.174547 25.742728 
L 110.417871 26.588028 
L 110.657848 24.896917 
L 110.902554 26.588283 
L 111.142535 26.588283 
L 111.386124 23.205805 
L 111.628306 23.20555 
L 111.872491 26.588283 
L 112.114534 24.896917 
L 112.356933 29.971017 
L 112.599945 26.588283 
L 112.83921 27.527534 
L 113.08263 26.588539 
L 113.325221 26.588283 
L 113.566369 23.20555 
L 113.81045 23.205294 
L 114.050978 24.896917 
L 114.293848 23.205294 
L 114.538735 24.896917 
L 114.780691 21.513928 
L 115.265352 24.896917 
L 115.507643 23.205805 
L 115.750014 25.742472 
L 115.992219 24.896917 
L 116.234624 24.896917 
L 116.477314 23.20555 
L 116.717409 24.896917 
L 116.959768 28.27965 
L 117.201891 28.27965 
L 117.444477 24.896917 
L 117.689176 28.27965 
L 117.930108 24.896917 
L 118.173164 26.588283 
L 118.416931 29.971017 
L 118.658919 26.588283 
L 119.1439 26.588283 
L 119.383495 29.970762 
L 119.868255 23.20555 
L 120.112283 26.588283 
L 120.354238 25.819318 
L 120.596453 26.588283 
L 121.080153 26.588283 
L 121.322617 28.279906 
L 121.565275 24.897172 
L 121.810052 26.588283 
L 122.053004 24.897172 
L 122.296361 26.588283 
L 122.534349 24.896661 
L 123.022274 28.279906 
L 123.261877 24.896917 
L 123.50383 26.588283 
L 123.746858 26.588283 
L 123.991018 24.896917 
L 124.232607 26.588283 
L 124.717725 26.588283 
L 124.960804 23.20555 
L 125.201913 24.897172 
L 125.443484 23.205294 
L 125.686677 29.971017 
L 125.928968 28.27965 
L 126.173394 24.896661 
L 126.415447 23.20555 
L 126.657959 24.896917 
L 126.899142 24.896917 
L 127.142392 26.588283 
L 127.384694 31.662384 
L 127.624893 31.348875 
L 127.870065 23.205294 
L 128.112062 27.357249 
L 128.353741 26.588283 
L 128.596609 26.588283 
L 128.837299 24.896917 
L 129.080043 28.279906 
L 129.322655 28.279395 
L 129.564573 31.662384 
L 129.807371 28.27965 
L 130.293229 28.279906 
L 130.775644 24.897172 
L 131.019276 26.431529 
L 131.259918 24.896661 
L 131.503676 29.971017 
L 131.746436 27.434094 
L 131.987 28.27965 
L 132.229654 28.279906 
L 132.474566 23.20555 
L 133.199581 28.27965 
L 133.443317 24.896917 
L 134.168755 24.897172 
L 134.410899 21.513928 
L 134.656176 23.205805 
L 134.898671 28.27965 
L 135.138444 24.896917 
L 135.383953 29.971017 
L 135.866696 26.588283 
L 136.352386 26.588283 
L 136.592772 24.896917 
L 136.837001 26.588283 
L 137.079313 19.823071 
L 137.57116 24.896661 
L 138.04903 28.27965 
L 138.293651 28.27965 
L 138.53615 24.896917 
L 139.018925 28.27965 
L 139.26071 31.662384 
L 139.505506 21.514183 
L 139.987483 24.896917 
L 140.230461 24.896917 
L 140.714771 28.27965 
L 140.962192 23.20555 
L 141.201078 28.27965 
L 141.441705 24.896917 
L 141.684544 29.971017 
L 141.927732 29.971017 
L 142.414755 28.27965 
L 142.656492 21.514183 
L 142.897927 24.896917 
L 143.139407 26.588283 
L 143.383613 24.896917 
L 143.625662 28.27965 
L 143.866022 28.27965 
L 144.108452 24.896917 
L 144.35247 26.588283 
L 144.595609 29.125206 
L 144.834993 24.896661 
L 145.078009 26.588283 
L 145.324504 26.588283 
L 145.565547 28.279395 
L 145.804196 21.514438 
L 146.048724 29.971017 
L 146.291034 24.896661 
L 146.533564 24.896917 
L 146.774443 28.279395 
L 147.017167 26.588283 
L 147.258398 26.274264 
L 147.501162 28.279906 
L 147.746323 22.891785 
L 147.989685 24.896661 
L 148.232807 28.279395 
L 148.472016 26.588539 
L 148.715054 28.279906 
L 148.958073 28.279395 
L 149.202896 23.205294 
L 149.440316 28.279395 
L 149.684703 29.971017 
L 150.170442 26.588283 
L 150.409924 26.588283 
L 150.651567 23.205294 
L 150.896176 28.27965 
L 151.38328 21.514183 
L 151.620626 24.897172 
L 151.867009 31.662639 
L 152.105833 26.588283 
L 152.347658 28.27965 
L 152.591667 25.742728 
L 152.832662 29.971017 
L 153.074721 28.27965 
L 153.319614 21.514183 
L 153.560038 29.971017 
L 153.802132 23.20555 
L 154.046933 24.896917 
L 154.286817 28.27965 
L 154.528785 24.896917 
L 154.774275 28.27965 
L 155.013819 29.971017 
L 155.256179 24.896917 
L 155.500696 28.279906 
L 155.741436 24.896917 
L 155.983074 26.588283 
L 156.225303 31.662639 
L 156.470969 24.896917 
L 156.710147 26.588283 
L 156.956436 21.514183 
L 157.196444 28.27965 
L 157.437341 24.896661 
L 157.683249 26.588283 
L 157.921936 26.588283 
L 158.164931 25.742472 
L 158.408694 28.279395 
L 158.652043 23.996726 
L 158.892132 24.896917 
L 159.136138 26.587773 
L 159.620861 26.588283 
L 160.102812 24.896917 
L 160.590565 24.896661 
L 160.831126 21.514183 
L 161.076719 23.205294 
L 161.315007 23.205805 
L 161.558721 21.514183 
L 162.043191 21.513928 
L 162.285035 23.20555 
L 162.526794 26.588539 
L 162.770575 28.27965 
L 163.012387 28.279906 
L 163.253607 26.588539 
L 163.497745 23.205039 
L 163.739946 25.742728 
L 163.985366 24.896917 
L 164.223528 28.279395 
L 164.468552 29.971017 
L 164.710628 28.27914 
L 164.950764 24.896917 
L 165.195429 24.896661 
L 165.438077 26.588283 
L 165.680193 26.587773 
L 165.921795 23.205294 
L 166.16226 22.359739 
L 166.405836 24.896661 
L 166.647238 21.514183 
L 166.891343 21.514438 
L 167.132576 23.205805 
L 167.37761 21.513928 
L 167.61887 21.514183 
L 167.859044 24.896661 
L 168.101492 26.588283 
L 168.34617 24.896917 
L 168.58878 28.27965 
L 168.828598 28.27965 
L 169.070664 24.896661 
L 169.315306 28.27965 
L 169.560109 26.588283 
L 170.041405 26.588283 
L 170.284478 24.896917 
L 170.527282 24.896917 
L 170.768745 28.27965 
L 171.009671 25.742472 
L 171.252285 24.896917 
L 171.496813 24.896917 
L 171.737996 25.742728 
L 171.981333 24.896917 
L 172.222986 23.205805 
L 172.466619 24.897172 
L 172.709089 23.20555 
L 172.949052 24.897172 
L 173.192893 28.27965 
L 173.435916 27.433839 
L 173.678202 28.27965 
L 173.91834 26.588539 
L 174.161521 26.588283 
L 174.404679 28.27965 
L 174.646637 19.823071 
L 174.887717 23.20555 
L 175.134061 24.896661 
L 175.617135 21.513928 
L 175.860144 24.896661 
L 176.102666 26.588028 
L 176.344784 23.20555 
L 176.586897 24.896917 
L 176.828649 28.27965 
L 177.071992 23.20555 
L 177.312 24.896917 
L 177.554201 28.27965 
L 177.796611 26.588283 
L 178.041833 26.588283 
L 178.285042 23.205294 
L 178.524585 24.897172 
L 178.767433 24.896917 
L 179.00875 25.742728 
L 179.493279 21.514183 
L 179.735544 21.514183 
L 179.980503 26.588283 
L 180.223243 21.514183 
L 180.462886 26.588283 
L 180.70738 26.588283 
L 180.948619 28.27965 
L 181.192504 24.896661 
L 181.432122 28.279395 
L 181.675708 23.20555 
L 181.917349 24.896917 
L 182.160415 28.279906 
L 182.402918 28.279906 
L 182.888567 24.896917 
L 183.130206 26.588539 
L 183.61345 26.587773 
L 183.857406 31.662384 
L 184.34269 24.896917 
L 184.583669 25.742472 
L 184.828538 23.205294 
L 185.070402 26.588283 
L 185.310404 28.279906 
L 185.553966 24.896917 
L 186.037628 24.896917 
L 186.280871 26.588283 
L 186.765204 26.588283 
L 187.006965 25.742472 
L 187.491873 29.971017 
L 187.735186 24.897172 
L 187.979245 23.20555 
L 188.218867 28.27965 
L 188.463504 24.896917 
L 188.704689 23.20555 
L 188.947081 24.896917 
L 189.188273 21.514183 
L 189.433088 28.27965 
L 189.673004 24.896917 
L 189.91812 23.20555 
L 190.159788 25.742472 
L 190.40244 26.588283 
L 190.644288 29.971017 
L 190.887694 23.20555 
L 191.127844 26.588283 
L 191.373141 28.27965 
L 191.615079 24.896917 
L 191.858377 24.051105 
L 192.098814 26.588283 
L 192.341259 23.20555 
L 192.823966 23.20555 
L 193.067772 21.513928 
L 193.309155 23.205805 
L 193.552147 19.509307 
L 193.793415 26.588283 
L 194.037043 23.20555 
L 194.27865 22.359739 
L 194.523168 19.822816 
L 194.766129 24.896917 
L 195.005993 26.588283 
L 195.249233 24.896661 
L 195.491158 28.27965 
L 196.218091 23.205805 
L 196.459505 24.896917 
L 196.704235 24.896661 
L 196.949928 25.648777 
L 197.186985 24.896917 
L 197.431385 22.359994 
L 197.671944 24.896917 
L 197.913817 21.513928 
L 198.398847 24.896661 
L 198.642813 24.896917 
L 198.883378 23.205805 
L 199.127956 26.588283 
L 199.370516 24.897172 
L 199.85295 24.896917 
L 200.09525 28.27965 
L 200.339635 24.897172 
L 200.581356 26.588283 
L 200.823571 26.588283 
L 201.064899 24.896917 
L 201.308715 24.896917 
L 201.550686 22.892296 
L 201.792589 23.205805 
L 202.035099 28.279906 
L 202.27882 28.279395 
L 202.763039 21.514183 
L 203.003418 28.279395 
L 203.245842 23.205294 
L 203.488739 26.588539 
L 203.730976 27.434094 
L 203.974292 26.588283 
L 204.217384 26.588283 
L 204.457401 24.896917 
L 204.699798 24.282153 
L 204.942543 28.279906 
L 205.186896 29.971017 
L 205.428585 29.971017 
L 205.67123 26.588283 
L 205.913952 24.896917 
L 206.155693 29.971017 
L 206.396944 29.971017 
L 206.638807 21.514183 
L 206.882484 23.20555 
L 207.124375 28.27965 
L 207.367638 26.588283 
L 207.608368 28.27965 
L 207.852394 26.588283 
L 208.093763 29.971017 
L 208.33732 28.27965 
L 208.57957 24.896917 
L 208.821596 23.20555 
L 209.062455 28.27965 
L 209.305459 23.20555 
L 209.548452 24.896917 
L 209.790629 28.27965 
L 210.032861 21.514183 
L 210.275119 23.205805 
L 210.516284 23.205805 
L 210.760193 26.588283 
L 211.00138 24.051361 
L 211.243839 24.896661 
L 211.486536 26.588283 
L 211.729592 24.896917 
L 211.971918 29.971272 
L 212.214765 31.662129 
L 212.698876 46.884685 
L 212.941313 41.81033 
L 213.182467 43.501952 
L 213.424973 48.576052 
L 213.668306 45.193574 
L 213.910911 48.576052 
L 214.395243 62.107242 
L 214.636674 65.48972 
L 214.880026 67.181343 
L 215.122122 70.563821 
L 215.36361 68.872454 
L 215.606134 68.872454 
L 215.849597 70.563821 
L 216.333987 82.403133 
L 216.576502 75.637666 
L 216.818013 77.329033 
L 217.060748 87.477234 
L 217.302864 82.403389 
L 217.545988 84.0945 
L 217.787648 82.403389 
L 218.030495 90.860223 
L 218.272145 92.55159 
L 218.515144 89.168601 
L 218.757669 94.242956 
L 219.484467 101.008168 
L 219.968877 101.008679 
L 220.211534 102.699791 
L 220.696348 102.699791 
L 220.938606 109.465513 
L 221.180474 107.773636 
L 221.423454 110.311069 
L 221.666027 116.23047 
L 221.90758 109.465003 
L 222.150144 112.847736 
L 222.392426 111.156625 
L 222.877369 117.922347 
L 223.120264 116.230725 
L 223.362059 119.613459 
L 223.604806 114.539358 
L 223.847134 117.922347 
L 224.089663 117.922092 
L 224.331453 121.304826 
L 224.574412 122.150381 
L 224.816615 121.304826 
L 225.06032 122.996193 
L 225.301551 126.378926 
L 225.543679 128.070293 
L 225.785809 128.070293 
L 226.02921 124.687559 
L 226.270437 128.070293 
L 226.755583 131.453027 
L 226.997439 129.76166 
L 227.240146 133.144394 
L 227.482557 134.835505 
L 227.482557 134.835505 
" clip-path="url(#p68825bb6ae)" style="fill: none; stroke: #0000ff; stroke-linecap: square"/>
   </g>
   <g id="line2d_15">
    <path d="M 50.099375 25.790469 
L 235.929375 25.790469 
" clip-path="url(#p68825bb6ae)" style="fill: none; stroke-dasharray: 3.7,1.6; stroke-dashoffset: 0; stroke: #000000; stroke-opacity: 0.7"/>
   </g>
   <g id="patch_3">
    <path d="M 50.099375 160.20625 
L 50.099375 11.36625 
" style="fill: none; stroke: #000000; stroke-width: 0.8; stroke-linejoin: miter; stroke-linecap: square"/>
   </g>
   <g id="patch_4">
    <path d="M 235.929375 160.20625 
L 235.929375 11.36625 
" style="fill: none; stroke: #000000; stroke-width: 0.8; stroke-linejoin: miter; stroke-linecap: square"/>
   </g>
   <g id="patch_5">
    <path d="M 50.099375 160.20625 
L 235.929375 160.20625 
" style="fill: none; stroke: #000000; stroke-width: 0.8; stroke-linejoin: miter; stroke-linecap: square"/>
   </g>
   <g id="patch_6">
    <path d="M 50.099375 11.36625 
L 235.929375 11.36625 
" style="fill: none; stroke: #000000; stroke-width: 0.8; stroke-linejoin: miter; stroke-linecap: square"/>
   </g>
  </g>
  <g id="axes_2">
   <g id="patch_7">
    <path d="M 295.979375 160.20625 
L 481.809375 160.20625 
L 481.809375 11.36625 
L 295.979375 11.36625 
z
" style="fill: #ffffff"/>
   </g>
   <g id="matplotlib.axis_3">
    <g id="xtick_4">
     <g id="line2d_16">
      <path d="M 304.426193 160.20625 
L 304.426193 11.36625 
" clip-path="url(#p506be13559)" style="fill: none; stroke: #b0b0b0; stroke-opacity: 0.3; stroke-width: 0.8; stroke-linecap: square"/>
     </g>
     <g id="line2d_17">
      <g>
       <use xlink:href="#mb7bd201d0e" x="304.426193" y="160.20625" style="stroke: #000000; stroke-width: 0.8"/>
      </g>
     </g>
     <g id="text_9">
      <!-- 0 -->
      <g transform="translate(301.426193 175.53875) scale(0.12 -0.12)">
       <use xlink:href="#TimesNewRomanPSMT-30"/>
      </g>
     </g>
    </g>
    <g id="xtick_5">
     <g id="line2d_18">
      <path d="M 377.139641 160.20625 
L 377.139641 11.36625 
" clip-path="url(#p506be13559)" style="fill: none; stroke: #b0b0b0; stroke-opacity: 0.3; stroke-width: 0.8; stroke-linecap: square"/>
     </g>
     <g id="line2d_19">
      <g>
       <use xlink:href="#mb7bd201d0e" x="377.139641" y="160.20625" style="stroke: #000000; stroke-width: 0.8"/>
      </g>
     </g>
     <g id="text_10">
      <!-- 10 -->
      <g transform="translate(371.139641 175.53875) scale(0.12 -0.12)">
       <use xlink:href="#TimesNewRomanPSMT-31"/>
       <use xlink:href="#TimesNewRomanPSMT-30" x="50"/>
      </g>
     </g>
    </g>
    <g id="xtick_6">
     <g id="line2d_20">
      <path d="M 449.853089 160.20625 
L 449.853089 11.36625 
" clip-path="url(#p506be13559)" style="fill: none; stroke: #b0b0b0; stroke-opacity: 0.3; stroke-width: 0.8; stroke-linecap: square"/>
     </g>
     <g id="line2d_21">
      <g>
       <use xlink:href="#mb7bd201d0e" x="449.853089" y="160.20625" style="stroke: #000000; stroke-width: 0.8"/>
      </g>
     </g>
     <g id="text_11">
      <!-- 20 -->
      <g transform="translate(443.853089 175.53875) scale(0.12 -0.12)">
       <use xlink:href="#TimesNewRomanPSMT-32"/>
       <use xlink:href="#TimesNewRomanPSMT-30" x="50"/>
      </g>
     </g>
    </g>
    <g id="text_12">
     <!-- $t$ [s] -->
     <g transform="translate(379.354375 190.438125) scale(0.12 -0.12)">
      <use xlink:href="#STIXGeneral-Italic-74" transform="translate(0 0.28125)"/>
      <use xlink:href="#TimesNewRomanPSMT-20" transform="translate(27.799988 0.28125)"/>
      <use xlink:href="#TimesNewRomanPSMT-5b" transform="translate(52.799988 0.28125)"/>
      <use xlink:href="#TimesNewRomanPSMT-73" transform="translate(86.100769 0.28125)"/>
      <use xlink:href="#TimesNewRomanPSMT-5d" transform="translate(125.016785 0.28125)"/>
     </g>
    </g>
   </g>
   <g id="matplotlib.axis_4">
    <g id="ytick_4">
     <g id="line2d_22">
      <path d="M 295.979375 160.20625 
L 481.809375 160.20625 
" clip-path="url(#p506be13559)" style="fill: none; stroke: #b0b0b0; stroke-opacity: 0.3; stroke-width: 0.8; stroke-linecap: square"/>
     </g>
     <g id="line2d_23">
      <g>
       <use xlink:href="#me7476130f9" x="295.979375" y="160.20625" style="stroke: #000000; stroke-width: 0.8"/>
      </g>
     </g>
     <g id="text_13">
      <!-- −1.5 -->
      <g transform="translate(267.2125 164.3725) scale(0.12 -0.12)">
       <defs>
        <path id="TimesNewRomanPSMT-2212" d="M 3484 2000 
L 116 2000 
L 116 2256 
L 3484 2256 
L 3484 2000 
z
" transform="scale(0.015625)"/>
       </defs>
       <use xlink:href="#TimesNewRomanPSMT-2212"/>
       <use xlink:href="#TimesNewRomanPSMT-31" x="56.396484"/>
       <use xlink:href="#TimesNewRomanPSMT-2e" x="106.396484"/>
       <use xlink:href="#TimesNewRomanPSMT-35" x="131.396484"/>
      </g>
     </g>
    </g>
    <g id="ytick_5">
     <g id="line2d_24">
      <path d="M 295.979375 135.399583 
L 481.809375 135.399583 
" clip-path="url(#p506be13559)" style="fill: none; stroke: #b0b0b0; stroke-opacity: 0.3; stroke-width: 0.8; stroke-linecap: square"/>
     </g>
     <g id="line2d_25">
      <g>
       <use xlink:href="#me7476130f9" x="295.979375" y="135.399583" style="stroke: #000000; stroke-width: 0.8"/>
      </g>
     </g>
     <g id="text_14">
      <!-- −1.0 -->
      <g transform="translate(267.2125 139.565833) scale(0.12 -0.12)">
       <use xlink:href="#TimesNewRomanPSMT-2212"/>
       <use xlink:href="#TimesNewRomanPSMT-31" x="56.396484"/>
       <use xlink:href="#TimesNewRomanPSMT-2e" x="106.396484"/>
       <use xlink:href="#TimesNewRomanPSMT-30" x="131.396484"/>
      </g>
     </g>
    </g>
    <g id="ytick_6">
     <g id="line2d_26">
      <path d="M 295.979375 110.592917 
L 481.809375 110.592917 
" clip-path="url(#p506be13559)" style="fill: none; stroke: #b0b0b0; stroke-opacity: 0.3; stroke-width: 0.8; stroke-linecap: square"/>
     </g>
     <g id="line2d_27">
      <g>
       <use xlink:href="#me7476130f9" x="295.979375" y="110.592917" style="stroke: #000000; stroke-width: 0.8"/>
      </g>
     </g>
     <g id="text_15">
      <!-- −0.5 -->
      <g transform="translate(267.2125 114.759167) scale(0.12 -0.12)">
       <use xlink:href="#TimesNewRomanPSMT-2212"/>
       <use xlink:href="#TimesNewRomanPSMT-30" x="56.396484"/>
       <use xlink:href="#TimesNewRomanPSMT-2e" x="106.396484"/>
       <use xlink:href="#TimesNewRomanPSMT-35" x="131.396484"/>
      </g>
     </g>
    </g>
    <g id="ytick_7">
     <g id="line2d_28">
      <path d="M 295.979375 85.78625 
L 481.809375 85.78625 
" clip-path="url(#p506be13559)" style="fill: none; stroke: #b0b0b0; stroke-opacity: 0.3; stroke-width: 0.8; stroke-linecap: square"/>
     </g>
     <g id="line2d_29">
      <g>
       <use xlink:href="#me7476130f9" x="295.979375" y="85.78625" style="stroke: #000000; stroke-width: 0.8"/>
      </g>
     </g>
     <g id="text_16">
      <!-- 0.0 -->
      <g transform="translate(273.979375 89.9525) scale(0.12 -0.12)">
       <use xlink:href="#TimesNewRomanPSMT-30"/>
       <use xlink:href="#TimesNewRomanPSMT-2e" x="50"/>
       <use xlink:href="#TimesNewRomanPSMT-30" x="75"/>
      </g>
     </g>
    </g>
    <g id="ytick_8">
     <g id="line2d_30">
      <path d="M 295.979375 60.979583 
L 481.809375 60.979583 
" clip-path="url(#p506be13559)" style="fill: none; stroke: #b0b0b0; stroke-opacity: 0.3; stroke-width: 0.8; stroke-linecap: square"/>
     </g>
     <g id="line2d_31">
      <g>
       <use xlink:href="#me7476130f9" x="295.979375" y="60.979583" style="stroke: #000000; stroke-width: 0.8"/>
      </g>
     </g>
     <g id="text_17">
      <!-- 0.5 -->
      <g transform="translate(273.979375 65.145833) scale(0.12 -0.12)">
       <use xlink:href="#TimesNewRomanPSMT-30"/>
       <use xlink:href="#TimesNewRomanPSMT-2e" x="50"/>
       <use xlink:href="#TimesNewRomanPSMT-35" x="75"/>
      </g>
     </g>
    </g>
    <g id="ytick_9">
     <g id="line2d_32">
      <path d="M 295.979375 36.172917 
L 481.809375 36.172917 
" clip-path="url(#p506be13559)" style="fill: none; stroke: #b0b0b0; stroke-opacity: 0.3; stroke-width: 0.8; stroke-linecap: square"/>
     </g>
     <g id="line2d_33">
      <g>
       <use xlink:href="#me7476130f9" x="295.979375" y="36.172917" style="stroke: #000000; stroke-width: 0.8"/>
      </g>
     </g>
     <g id="text_18">
      <!-- 1.0 -->
      <g transform="translate(273.979375 40.339167) scale(0.12 -0.12)">
       <use xlink:href="#TimesNewRomanPSMT-31"/>
       <use xlink:href="#TimesNewRomanPSMT-2e" x="50"/>
       <use xlink:href="#TimesNewRomanPSMT-30" x="75"/>
      </g>
     </g>
    </g>
    <g id="ytick_10">
     <g id="line2d_34">
      <path d="M 295.979375 11.36625 
L 481.809375 11.36625 
" clip-path="url(#p506be13559)" style="fill: none; stroke: #b0b0b0; stroke-opacity: 0.3; stroke-width: 0.8; stroke-linecap: square"/>
     </g>
     <g id="line2d_35">
      <g>
       <use xlink:href="#me7476130f9" x="295.979375" y="11.36625" style="stroke: #000000; stroke-width: 0.8"/>
      </g>
     </g>
     <g id="text_19">
      <!-- 1.5 -->
      <g transform="translate(273.979375 15.5325) scale(0.12 -0.12)">
       <use xlink:href="#TimesNewRomanPSMT-31"/>
       <use xlink:href="#TimesNewRomanPSMT-2e" x="50"/>
       <use xlink:href="#TimesNewRomanPSMT-35" x="75"/>
      </g>
     </g>
    </g>
    <g id="text_20">
     <!-- $\omega$ [rad/s] -->
     <g transform="translate(260.645625 107.08625) rotate(-90) scale(0.12 -0.12)">
      <defs>
       <path id="STIXGeneral-Italic-3c9" d="M 3021 2810 
L 3136 2810 
Q 3648 2810 3898 2598 
Q 4186 2355 4186 1824 
Q 4186 1357 3910 838 
Q 3667 390 3334 160 
Q 3002 -70 2669 -70 
Q 2438 -70 2281 3 
Q 2125 77 2064 160 
Q 2003 243 1939 384 
Q 1741 147 1533 38 
Q 1325 -70 998 -70 
Q 659 -70 416 160 
Q 173 390 173 832 
Q 173 1101 237 1350 
Q 403 1965 883 2387 
Q 1363 2810 2010 2810 
L 2125 2810 
L 2125 2707 
Q 1606 2707 1267 2291 
Q 1024 1990 867 1526 
Q 710 1062 710 666 
Q 710 64 1075 64 
Q 1286 64 1523 285 
Q 1760 506 1856 774 
Q 1837 915 1837 1101 
Q 1837 1363 1914 1651 
Q 1984 1920 2125 2105 
Q 2266 2291 2432 2291 
Q 2656 2291 2656 1997 
Q 2656 1530 2387 1062 
Q 2272 864 2189 736 
Q 2176 691 2176 602 
Q 2176 384 2288 224 
Q 2400 64 2592 64 
Q 3040 64 3341 627 
Q 3482 896 3565 1270 
Q 3648 1645 3648 1971 
Q 3648 2240 3616 2362 
Q 3565 2566 3411 2636 
Q 3258 2707 3021 2707 
L 3021 2810 
z
" transform="scale(0.015625)"/>
       <path id="TimesNewRomanPSMT-72" d="M 1038 2947 
L 1038 2303 
Q 1397 2947 1775 2947 
Q 1947 2947 2059 2842 
Q 2172 2738 2172 2600 
Q 2172 2478 2090 2393 
Q 2009 2309 1897 2309 
Q 1788 2309 1652 2417 
Q 1516 2525 1450 2525 
Q 1394 2525 1328 2463 
Q 1188 2334 1038 2041 
L 1038 669 
Q 1038 431 1097 309 
Q 1138 225 1241 169 
Q 1344 113 1538 113 
L 1538 0 
L 72 0 
L 72 113 
Q 291 113 397 181 
Q 475 231 506 341 
Q 522 394 522 644 
L 522 1753 
Q 522 2253 501 2348 
Q 481 2444 426 2487 
Q 372 2531 291 2531 
Q 194 2531 72 2484 
L 41 2597 
L 906 2947 
L 1038 2947 
z
" transform="scale(0.015625)"/>
       <path id="TimesNewRomanPSMT-61" d="M 1822 413 
Q 1381 72 1269 19 
Q 1100 -59 909 -59 
Q 613 -59 420 144 
Q 228 347 228 678 
Q 228 888 322 1041 
Q 450 1253 767 1440 
Q 1084 1628 1822 1897 
L 1822 2009 
Q 1822 2438 1686 2597 
Q 1550 2756 1291 2756 
Q 1094 2756 978 2650 
Q 859 2544 859 2406 
L 866 2225 
Q 866 2081 792 2003 
Q 719 1925 600 1925 
Q 484 1925 411 2006 
Q 338 2088 338 2228 
Q 338 2497 613 2722 
Q 888 2947 1384 2947 
Q 1766 2947 2009 2819 
Q 2194 2722 2281 2516 
Q 2338 2381 2338 1966 
L 2338 994 
Q 2338 584 2353 492 
Q 2369 400 2405 369 
Q 2441 338 2488 338 
Q 2538 338 2575 359 
Q 2641 400 2828 588 
L 2828 413 
Q 2478 -56 2159 -56 
Q 2006 -56 1915 50 
Q 1825 156 1822 413 
z
M 1822 616 
L 1822 1706 
Q 1350 1519 1213 1441 
Q 966 1303 859 1153 
Q 753 1003 753 825 
Q 753 600 887 451 
Q 1022 303 1197 303 
Q 1434 303 1822 616 
z
" transform="scale(0.015625)"/>
       <path id="TimesNewRomanPSMT-64" d="M 2222 322 
Q 2013 103 1813 7 
Q 1613 -88 1381 -88 
Q 913 -88 563 304 
Q 213 697 213 1313 
Q 213 1928 600 2439 
Q 988 2950 1597 2950 
Q 1975 2950 2222 2709 
L 2222 3238 
Q 2222 3728 2198 3840 
Q 2175 3953 2125 3993 
Q 2075 4034 2000 4034 
Q 1919 4034 1784 3984 
L 1744 4094 
L 2597 4444 
L 2738 4444 
L 2738 1134 
Q 2738 631 2761 520 
Q 2784 409 2836 365 
Q 2888 322 2956 322 
Q 3041 322 3181 375 
L 3216 266 
L 2366 -88 
L 2222 -88 
L 2222 322 
z
M 2222 541 
L 2222 2016 
Q 2203 2228 2109 2403 
Q 2016 2578 1861 2667 
Q 1706 2756 1559 2756 
Q 1284 2756 1069 2509 
Q 784 2184 784 1559 
Q 784 928 1059 592 
Q 1334 256 1672 256 
Q 1956 256 2222 541 
z
" transform="scale(0.015625)"/>
      </defs>
      <use xlink:href="#STIXGeneral-Italic-3c9" transform="translate(0 0.5625)"/>
      <use xlink:href="#TimesNewRomanPSMT-20" transform="translate(68.599991 0.5625)"/>
      <use xlink:href="#TimesNewRomanPSMT-5b" transform="translate(93.599991 0.5625)"/>
      <use xlink:href="#TimesNewRomanPSMT-72" transform="translate(126.900772 0.5625)"/>
      <use xlink:href="#TimesNewRomanPSMT-61" transform="translate(160.201553 0.5625)"/>
      <use xlink:href="#TimesNewRomanPSMT-64" transform="translate(204.586319 0.5625)"/>
      <use xlink:href="#TimesNewRomanPSMT-2f" transform="translate(254.586319 0.5625)"/>
      <use xlink:href="#TimesNewRomanPSMT-73" transform="translate(282.369522 0.5625)"/>
      <use xlink:href="#TimesNewRomanPSMT-5d" transform="translate(321.285538 0.5625)"/>
     </g>
    </g>
   </g>
   <g id="line2d_36">
    <path d="M 304.426193 85.78625 
L 308.306528 85.695706 
L 312.184915 85.42576 
L 312.910445 85.447242 
L 313.87956 85.241148 
L 315.821574 85.657057 
L 316.304307 85.042149 
L 317.275736 85.253552 
L 317.758023 85.754299 
L 318.244509 85.808129 
L 318.484942 85.778213 
L 318.729513 86.354273 
L 318.972144 86.46114 
L 319.454157 86.494083 
L 319.93962 86.721809 
L 320.423533 86.666341 
L 320.666189 85.384928 
L 320.910822 84.787732 
L 321.392919 84.710286 
L 321.636826 84.256423 
L 322.12016 84.146281 
L 322.362534 84.374503 
L 322.607223 85.072116 
L 322.848717 85.356053 
L 323.334822 85.497252 
L 323.576648 86.219523 
L 323.81943 86.580708 
L 324.302435 86.639202 
L 324.54693 87.285466 
L 324.786324 87.423192 
L 325.028589 87.367179 
L 325.271097 87.708519 
L 325.513928 89.150927 
L 325.757682 89.64969 
L 326.244641 89.476539 
L 326.727911 87.124421 
L 327.213298 86.777723 
L 327.455305 88.32035 
L 327.697451 88.681337 
L 328.179397 88.396755 
L 328.667306 87.901564 
L 330.120634 87.081952 
L 330.364338 87.695173 
L 330.606714 87.845749 
L 331.337315 87.599369 
L 331.817872 87.41967 
L 332.064888 87.619612 
L 332.303361 88.511262 
L 332.546868 88.670472 
L 332.787913 88.650527 
L 333.033784 88.474449 
L 333.277056 88.999854 
L 333.515761 89.122896 
L 334.003178 88.611382 
L 334.241029 87.996127 
L 334.726224 87.643029 
L 335.937933 86.986 
L 336.180623 86.148626 
L 336.664652 85.599803 
L 336.909605 85.605062 
L 337.149708 86.151057 
L 337.639375 86.107893 
L 337.878003 85.94283 
L 338.12176 85.521612 
L 338.608201 85.29354 
L 338.847801 85.270519 
L 339.08835 86.020326 
L 339.334019 86.380667 
L 339.818431 86.186729 
L 340.061818 85.560112 
L 340.546359 85.512484 
L 340.789075 84.200013 
L 341.031846 77.973341 
L 341.269427 75.737814 
L 341.758828 75.72412 
L 342.240676 77.086949 
L 342.727294 77.802572 
L 343.211098 79.059476 
L 343.450629 3.251196 
L 343.94095 3.102058 
L 344.664806 3.228423 
L 345.390168 3.961063 
L 346.119791 4.47089 
L 346.84543 4.682292 
L 347.816355 4.994906 
L 348.299414 5.089419 
L 348.543681 5.078107 
L 349.026478 4.943854 
L 350.72209 4.586241 
L 351.447799 4.337777 
L 351.692675 4.393989 
L 353.629892 3.86139 
L 353.871506 3.595413 
L 354.600513 3.592932 
L 355.328256 3.437047 
L 355.810706 3.387483 
L 356.054547 3.221527 
L 357.266124 3.220237 
L 357.752491 3.356773 
L 358.236933 3.356475 
L 358.71921 3.151125 
L 359.930978 3.118281 
L 360.173848 3.130784 
L 360.660691 3.304034 
L 361.630014 4.804738 
L 361.872219 4.85187 
L 362.839768 5.977299 
L 363.081891 6.410176 
L 363.324477 8.041164 
L 363.569176 8.532932 
L 364.053164 11.336829 
L 364.296931 11.486959 
L 364.538919 12.153018 
L 364.779284 13.527407 
L 366.234238 29.291994 
L 366.960153 38.167621 
L 367.202617 39.28149 
L 369.141877 69.88096 
L 370.597725 90.750659 
L 371.081913 95.791821 
L 371.323484 101.540319 
L 371.808968 105.935763 
L 372.053394 109.559024 
L 372.779142 115.634624 
L 373.264694 121.520948 
L 374.476609 132.028556 
L 375.687371 138.410368 
L 376.415449 140.641778 
L 376.655644 141.449681 
L 378.59947 144.735721 
L 379.079581 144.873299 
L 379.323317 144.808702 
L 379.564239 145.056124 
L 379.806823 144.878756 
L 380.536176 143.206688 
L 380.778671 142.794252 
L 381.988758 138.175697 
L 382.717001 134.188175 
L 383.92903 125.225625 
L 384.41615 121.351518 
L 384.657897 120.276646 
L 385.14071 116.126639 
L 385.627313 113.069168 
L 386.110461 109.283819 
L 388.050316 98.204914 
L 388.536492 97.18665 
L 389.263613 93.593305 
L 389.505662 93.054058 
L 389.746022 92.068191 
L 390.23247 91.246445 
L 390.475609 89.828447 
L 390.714993 89.187542 
L 391.204504 86.189557 
L 391.445547 86.56895 
L 392.171034 85.703445 
L 392.654443 84.992288 
L 392.897167 84.036437 
L 394.352016 81.34025 
L 394.595054 81.047234 
L 394.838073 80.278674 
L 395.805652 79.511255 
L 396.289924 79.408605 
L 396.531567 166.538896 
L 397.747009 168.327953 
L 398.227658 168.46434 
L 398.954721 168.378459 
L 399.440038 168.10117 
L 399.926933 167.741771 
L 400.654275 166.93228 
L 401.380696 166.278029 
L 401.863074 165.973949 
L 402.350969 165.7108 
L 403.076444 165.605471 
L 403.563249 165.532043 
L 404.288694 165.521227 
L 404.532043 165.80447 
L 405.741585 166.049361 
L 406.225986 166.262649 
L 407.195007 166.486455 
L 410.348552 167.407923 
L 410.830764 167.23249 
L 413.25761 167.331122 
L 413.739044 166.895368 
L 413.981492 166.133356 
L 414.22617 165.977968 
L 414.46878 165.607207 
L 414.950664 162.861853 
L 415.195306 160.214684 
L 415.440109 160.112878 
L 415.679595 160.146714 
L 415.921405 159.835886 
L 416.164478 160.077801 
L 416.407282 159.877363 
L 416.889671 160.264794 
L 417.132285 159.683077 
L 417.376813 159.675735 
L 417.617996 159.553735 
L 417.861333 159.159607 
L 418.102986 159.05021 
L 418.346619 159.177567 
L 418.589089 159.950642 
L 418.829052 160.165914 
L 419.558202 160.198858 
L 420.041521 159.646066 
L 420.526637 159.726291 
L 420.767717 159.849729 
L 421.014061 159.562467 
L 421.254461 159.9945 
L 421.497135 159.968156 
L 421.740144 159.794062 
L 421.982666 153.568681 
L 422.224784 152.12136 
L 422.708649 141.984364 
L 423.192 134.397841 
L 423.676611 118.646351 
L 425.860503 71.842472 
L 426.342886 63.367622 
L 427.312122 48.594458 
L 428.282918 37.394546 
L 428.527316 35.913885 
L 429.737406 25.169027 
L 429.979576 24.352689 
L 430.708538 19.67564 
L 431.190404 18.074221 
L 431.433966 16.951669 
L 431.678534 16.37804 
L 431.917628 15.355906 
L 432.160871 13.652035 
L 432.645204 12.58515 
L 433.371873 10.930943 
L 434.098867 9.686442 
L 434.584689 9.044941 
L 435.068273 8.578725 
L 435.553004 8.254551 
L 435.79812 8.333089 
L 436.28244 8.24954 
L 436.524288 8.25852 
L 437.495079 8.793451 
L 437.738377 9.054814 
L 437.978814 10.055615 
L 438.463634 10.843921 
L 439.189155 12.229373 
L 439.917043 14.123908 
L 440.15865 14.498836 
L 440.646129 15.811754 
L 441.129233 18.559489 
L 441.612905 20.258795 
L 443.066985 29.240346 
L 444.522813 43.325373 
L 445.007956 50.501595 
L 445.492503 55.046871 
L 445.97525 62.014021 
L 446.944899 72.055016 
L 447.672589 80.053578 
L 448.15882 85.18965 
L 448.643039 89.753729 
L 448.883418 90.095515 
L 449.854292 98.975855 
L 450.097384 100.194607 
L 451.066896 107.881151 
L 451.55123 110.872934 
L 452.518807 115.328757 
L 453.732394 119.023115 
L 454.21732 119.943442 
L 454.942455 120.470832 
L 455.185459 119.232781 
L 455.912861 118.355518 
L 456.396284 117.446106 
L 457.123839 115.22452 
L 457.851918 113.052002 
L 458.094765 110.927658 
L 458.578876 108.910231 
L 458.821313 108.415636 
L 459.062467 108.736634 
L 459.548306 107.474917 
L 461.24361 103.843122 
L 461.729597 102.830464 
L 461.97156 101.548257 
L 462.213987 101.049494 
L 462.456502 100.82162 
L 462.698013 100.272301 
L 462.940748 98.947229 
L 463.425988 98.088571 
L 463.667648 96.482041 
L 463.910495 95.732632 
L 464.152145 97.066685 
L 465.121737 96.391547 
L 465.364467 96.3783 
L 465.848877 95.960159 
L 466.333557 96.591439 
L 466.818606 95.881025 
L 467.060474 95.371645 
L 467.546027 94.943879 
L 467.78758 94.682963 
L 468.030144 95.349815 
L 468.757369 94.583785 
L 469.242059 96.178953 
L 469.727134 95.811765 
L 470.211453 95.518203 
L 470.696615 95.332748 
L 471.181551 94.99637 
L 471.90921 94.221261 
L 472.150437 93.928989 
L 472.392953 98.162197 
L 472.635583 100.042889 
L 473.120146 99.993921 
L 473.362557 99.88244 
L 473.362557 99.88244 
" clip-path="url(#p506be13559)" style="fill: none; stroke: #ff0000; stroke-opacity: 0.8; stroke-linecap: square"/>
   </g>
   <g id="line2d_37">
    <path d="M 304.426193 85.78625 
L 306.367713 85.78625 
L 306.6101 84.460929 
L 306.850444 84.460929 
L 307.093261 87.11167 
L 307.336266 84.460929 
L 307.577557 83.135558 
L 308.546864 88.436991 
L 308.79144 87.774256 
L 309.032728 84.461028 
L 309.27599 84.46078 
L 309.516752 85.78625 
L 309.761399 88.436942 
L 310.244699 83.13541 
L 310.486174 87.111621 
L 310.728434 84.46078 
L 310.970522 88.436991 
L 311.213202 87.111571 
L 311.4559 88.436842 
L 311.940041 85.78625 
L 312.184915 88.43709 
L 312.427175 88.436942 
L 312.668397 85.78625 
L 312.910445 85.78625 
L 313.152752 83.13541 
L 313.397616 87.111521 
L 313.639136 83.135558 
L 313.87956 87.111521 
L 314.12446 88.436793 
L 314.364361 83.798343 
L 314.606787 83.13541 
L 314.849146 87.111521 
L 315.333576 87.111819 
L 315.578102 83.135558 
L 315.821574 81.810138 
L 316.064871 84.338037 
L 316.304307 89.762362 
L 316.548227 85.78625 
L 316.790073 84.460929 
L 317.030208 84.460979 
L 317.275736 87.111819 
L 317.514981 87.111521 
L 317.758023 84.460731 
L 318.002363 84.460929 
L 318.244509 87.111571 
L 318.729513 84.46083 
L 318.972144 85.78625 
L 319.212604 84.460929 
L 319.70037 87.111571 
L 320.183616 85.78625 
L 320.423533 84.313627 
L 320.666189 85.78625 
L 320.910822 88.436942 
L 321.153124 84.460929 
L 321.392919 85.78625 
L 321.636826 87.774207 
L 321.879769 83.135608 
L 322.12016 88.436942 
L 322.362534 84.460879 
L 322.607223 84.460879 
L 322.848717 85.78625 
L 323.092704 85.78625 
L 323.334822 83.135509 
L 323.576648 85.78625 
L 323.81943 84.461127 
L 324.061418 86.448935 
L 324.302435 85.78625 
L 324.54693 83.135707 
L 324.786324 84.460681 
L 325.028589 89.762362 
L 325.513928 87.111373 
L 325.998656 87.111819 
L 326.244641 89.762362 
L 326.485667 85.78625 
L 326.727911 87.111819 
L 326.970066 92.412855 
L 327.455305 87.111819 
L 327.697451 89.762362 
L 327.937325 86.449035 
L 328.179397 87.111373 
L 328.42433 84.461127 
L 328.90846 91.087931 
L 329.151264 89.762362 
L 329.395142 87.111819 
L 329.636913 89.099627 
L 329.878367 89.762362 
L 330.120634 87.111521 
L 330.364338 87.111819 
L 330.606714 84.46083 
L 330.849245 88.436991 
L 331.095523 89.762312 
L 331.337315 86.99111 
L 331.578743 87.111621 
L 331.817872 89.762312 
L 332.064888 85.78625 
L 332.303361 88.436991 
L 332.546868 89.762362 
L 332.787913 88.436942 
L 333.033784 88.436991 
L 333.515761 85.78625 
L 333.757185 91.087633 
L 334.003178 87.11167 
L 334.241029 88.436991 
L 334.488868 91.087782 
L 334.971429 84.460929 
L 335.211676 87.774256 
L 335.45842 87.111521 
L 335.70077 88.436991 
L 335.937933 88.436693 
L 336.180623 85.78625 
L 336.423081 85.78625 
L 336.664652 87.111819 
L 336.909605 87.11167 
L 337.149708 90.007948 
L 337.396084 88.43709 
L 337.639375 85.78625 
L 338.12176 85.78625 
L 338.361343 84.460979 
L 338.847801 84.460681 
L 339.08835 85.78625 
L 339.334019 84.460979 
L 339.572811 89.762362 
L 339.818431 87.111521 
L 340.061818 87.111521 
L 340.302715 84.460979 
L 340.546359 87.111373 
L 341.031846 85.78625 
L 341.269427 87.111521 
L 341.511556 85.78625 
L 341.758828 87.11167 
L 342.001922 84.46083 
L 342.480875 81.810138 
L 342.727294 79.159496 
L 342.966562 77.834175 
L 343.450629 77.834126 
L 343.69291 80.484916 
L 343.94095 76.508755 
L 344.177742 77.834076 
L 344.423331 73.857964 
L 344.664806 77.834126 
L 344.905218 72.532693 
L 345.390168 67.23126 
L 345.635954 68.556532 
L 345.875749 63.255248 
L 346.119791 64.580618 
L 346.360761 69.882001 
L 346.603065 65.90584 
L 347.086095 63.255248 
L 347.331037 56.628494 
L 347.571477 55.303123 
L 347.816355 55.303074 
L 348.055245 51.327111 
L 348.299414 50.00184 
L 348.543681 46.025579 
L 349.026478 46.025579 
L 349.268653 40.724245 
L 349.510643 42.049814 
L 349.753381 36.748134 
L 349.996586 42.049169 
L 350.238037 40.723948 
L 350.72209 35.422912 
L 350.962892 36.38675 
L 351.205263 35.422713 
L 351.934961 35.422912 
L 352.175101 38.662365 
L 352.419403 35.422912 
L 352.659867 38.073405 
L 352.902926 39.398676 
L 353.144384 36.748134 
L 354.113982 36.747935 
L 354.600513 34.097194 
L 354.841236 38.073603 
L 355.08472 39.398974 
L 355.328256 35.422912 
L 355.568525 36.748134 
L 355.810706 36.748084 
L 356.054547 36.0853 
L 356.297871 34.097492 
L 356.782554 36.747985 
L 357.752491 36.747985 
L 357.994534 35.422912 
L 358.236933 36.747985 
L 358.479945 36.748134 
L 358.71921 37.189692 
L 358.96263 34.097293 
L 359.205221 36.747985 
L 359.446369 34.097144 
L 359.69045 34.097293 
L 359.930978 38.073405 
L 360.173848 36.748084 
L 360.418735 38.073405 
L 360.660691 35.422664 
L 360.900561 39.398726 
L 361.387643 36.748134 
L 361.630014 37.410769 
L 361.872219 35.422713 
L 362.114624 38.073455 
L 362.357314 36.748134 
L 362.597409 38.073405 
L 362.839768 35.422664 
L 363.810108 35.422763 
L 364.053164 36.748084 
L 365.0239 36.748084 
L 365.263495 34.097194 
L 365.505828 36.748134 
L 365.992283 36.748084 
L 366.234238 36.386601 
L 366.476453 36.748084 
L 366.718231 36.747737 
L 366.960153 39.398676 
L 367.202617 32.772072 
L 367.445275 35.422813 
L 367.690052 36.748084 
L 367.933004 32.77222 
L 368.414349 46.02543 
L 368.656762 47.35085 
L 368.902274 46.025579 
L 369.141877 43.374788 
L 369.38383 50.001691 
L 369.626858 48.67627 
L 369.871018 46.025529 
L 370.356464 57.953815 
L 370.597725 60.604457 
L 370.840804 60.604556 
L 371.081913 59.278987 
L 371.323484 65.906088 
L 371.566677 68.556581 
L 371.808968 72.532842 
L 372.053394 69.882001 
L 372.295447 71.207273 
L 372.537959 69.882101 
L 372.779142 72.532643 
L 373.022392 76.508656 
L 373.264694 77.834076 
L 373.504893 78.079662 
L 373.750065 73.858262 
L 373.992062 76.147272 
L 374.233741 87.111819 
L 374.476609 81.810138 
L 374.960043 93.738424 
L 375.202655 89.762362 
L 375.687371 96.389115 
L 375.931751 96.389115 
L 376.173229 99.040105 
L 376.655644 96.389115 
L 376.899276 97.591643 
L 377.139918 101.690499 
L 377.383676 103.015919 
L 377.626436 105.003925 
L 377.867 104.341289 
L 378.109654 109.642821 
L 378.59947 112.293215 
L 378.836938 116.269426 
L 379.079581 114.944056 
L 379.323317 114.944155 
L 379.564239 117.594797 
L 379.806823 122.896279 
L 380.290899 122.89613 
L 380.536176 124.22165 
L 381.018444 130.848255 
L 381.263953 129.522983 
L 381.505304 133.499095 
L 381.746696 134.824664 
L 381.988758 132.173824 
L 382.232386 134.824515 
L 382.717001 134.824515 
L 382.959313 132.173675 
L 383.206774 134.947308 
L 383.687467 137.475356 
L 383.92903 136.149787 
L 384.41615 130.848503 
L 384.657897 126.872242 
L 384.898925 125.546921 
L 385.385506 120.245389 
L 385.627313 118.920167 
L 385.867483 120.245538 
L 386.110461 120.245488 
L 386.352889 116.269476 
L 387.081078 112.293414 
L 387.321705 109.642672 
L 387.564544 110.967993 
L 387.807732 103.015919 
L 388.050316 101.027863 
L 388.294755 96.389066 
L 388.536492 99.039857 
L 388.777927 99.039857 
L 389.019407 100.365078 
L 389.263613 96.389066 
L 389.746022 96.389115 
L 389.988452 93.738424 
L 390.23247 92.413004 
L 390.714993 91.087782 
L 390.958009 92.413351 
L 391.204504 95.063844 
L 391.445547 88.43709 
L 391.684196 85.78625 
L 391.928724 87.111521 
L 392.171034 85.78625 
L 392.654443 85.78625 
L 392.897167 87.111819 
L 393.138398 86.865886 
L 393.381162 85.78625 
L 393.626323 87.357107 
L 393.869685 85.78625 
L 394.112807 88.43709 
L 394.352016 87.111521 
L 394.838073 80.484916 
L 395.082896 79.159298 
L 395.805652 83.135558 
L 396.050442 81.810138 
L 396.531567 81.810138 
L 396.776176 80.485065 
L 397.26328 80.484966 
L 397.747009 85.78625 
L 397.985833 84.460879 
L 398.227658 91.087732 
L 398.471667 87.774256 
L 398.712662 89.762312 
L 398.954721 93.738374 
L 399.199614 93.738374 
L 399.440038 97.714436 
L 399.682132 95.063745 
L 399.926933 93.738374 
L 400.166817 99.039857 
L 400.408785 99.039807 
L 400.654275 104.34124 
L 401.136179 101.690499 
L 401.380696 106.991981 
L 401.621436 106.991981 
L 402.105303 114.944006 
L 402.350969 112.293364 
L 402.590147 113.618784 
L 403.076444 120.245389 
L 403.317341 120.245538 
L 403.801936 126.872292 
L 404.044931 126.209854 
L 404.288694 128.197414 
L 404.532043 131.794679 
L 405.016138 129.522983 
L 405.257322 134.824366 
L 405.500861 137.474859 
L 405.982812 133.499095 
L 406.225986 133.499095 
L 406.470565 136.149787 
L 406.711126 133.499244 
L 406.956719 132.173526 
L 407.195007 134.824366 
L 407.438721 133.499244 
L 407.923191 133.498946 
L 408.165035 137.475058 
L 408.406794 137.475306 
L 408.650575 133.498996 
L 408.892387 136.149935 
L 409.133607 137.475256 
L 409.377745 134.824168 
L 409.865366 136.149588 
L 410.103528 136.149588 
L 410.348552 134.824664 
L 410.590628 136.149787 
L 411.075429 136.149787 
L 411.318077 137.475207 
L 411.560193 137.475207 
L 411.801795 134.824664 
L 412.285836 133.498946 
L 412.771343 133.499095 
L 413.012576 134.824366 
L 413.25761 133.499244 
L 413.49887 133.498946 
L 413.739044 136.149935 
L 413.981492 137.475008 
L 414.22617 136.149935 
L 415.195306 136.149787 
L 415.440109 137.475108 
L 415.921405 137.475207 
L 416.164478 136.149787 
L 416.648745 136.149787 
L 416.889671 136.812472 
L 417.132285 136.149787 
L 417.376813 136.149737 
L 417.617996 135.487101 
L 417.861333 133.499095 
L 418.346619 136.149687 
L 418.589089 134.824515 
L 418.829052 136.149687 
L 419.072893 136.149787 
L 419.315916 136.812571 
L 419.558202 136.149787 
L 419.79834 137.475058 
L 420.041521 134.824416 
L 420.284679 136.149787 
L 420.526637 132.173625 
L 420.767717 132.173724 
L 421.014061 136.149985 
L 421.254461 132.173724 
L 421.497135 133.499293 
L 421.740144 136.150035 
L 421.982666 137.475356 
L 422.224784 137.475108 
L 422.466897 134.824466 
L 422.708649 136.149787 
L 422.951992 132.173774 
L 423.192 133.498996 
L 423.434201 136.149787 
L 423.676611 134.824515 
L 424.165042 134.824267 
L 424.647433 128.197563 
L 424.88875 127.535027 
L 425.131731 121.570859 
L 425.373279 122.896279 
L 425.615544 120.245439 
L 425.860503 124.22155 
L 426.103243 117.594698 
L 426.342886 116.269426 
L 426.58738 110.968093 
L 426.828619 112.293513 
L 427.072504 112.293364 
L 427.312122 106.991981 
L 427.555708 108.317401 
L 427.797349 101.6903 
L 428.040415 104.341141 
L 428.282918 99.040105 
L 428.527316 97.714536 
L 429.010206 100.365376 
L 429.253914 100.365078 
L 429.49345 95.063695 
L 429.737406 96.389612 
L 429.979576 88.436793 
L 430.22269 85.78625 
L 430.463669 86.448886 
L 430.950402 81.810138 
L 431.190404 83.135707 
L 431.433966 85.78625 
L 431.678534 80.484916 
L 431.917628 77.834076 
L 432.160871 76.508805 
L 432.645204 76.508805 
L 432.886965 77.17144 
L 433.371873 73.857964 
L 433.615186 69.881952 
L 433.859245 71.207422 
L 434.343504 64.580569 
L 434.584689 65.905939 
L 434.827081 61.929927 
L 435.068273 64.580569 
L 435.313088 56.628395 
L 435.553004 53.977703 
L 435.79812 52.652333 
L 436.039788 54.640339 
L 436.28244 50.001641 
L 436.524288 55.303024 
L 436.767694 50.00174 
L 437.007844 50.001641 
L 437.253141 48.67632 
L 437.495079 48.676221 
L 437.738377 41.386831 
L 437.978814 42.049467 
L 438.221259 39.398825 
L 438.463634 40.724245 
L 439.189155 36.748134 
L 439.432147 33.851707 
L 439.673415 36.748084 
L 439.917043 36.748233 
L 440.15865 36.085448 
L 440.403168 39.398974 
L 441.129233 35.422713 
L 441.371158 35.422713 
L 441.612905 34.097293 
L 442.098091 36.748134 
L 442.339505 35.422813 
L 442.584235 35.422713 
L 442.829928 35.717169 
L 443.066985 38.073405 
L 443.311385 36.085349 
L 443.551944 35.422614 
L 443.793817 38.073603 
L 444.278847 35.422713 
L 444.522813 35.422813 
L 444.763378 42.049169 
L 445.007956 39.398676 
L 445.250516 40.724097 
L 445.492503 40.724097 
L 445.73295 39.398924 
L 445.97525 40.724097 
L 446.219635 40.724097 
L 447.430686 60.850341 
L 447.672589 60.604705 
L 447.915099 61.929679 
L 448.15882 67.231012 
L 448.398506 64.580519 
L 448.643039 67.231359 
L 448.883418 67.231012 
L 449.125842 68.556581 
L 449.368739 68.556581 
L 449.854292 73.857964 
L 450.097384 76.508656 
L 450.337401 75.183533 
L 450.579798 80.966811 
L 450.822543 80.484916 
L 451.066896 84.460979 
L 451.308585 84.460929 
L 451.55123 87.111571 
L 452.035693 89.762511 
L 452.276944 87.111571 
L 453.004375 91.087732 
L 453.488368 99.039857 
L 453.732394 99.039807 
L 454.21732 101.690499 
L 454.45957 99.039757 
L 454.701596 100.365178 
L 455.185459 108.317401 
L 455.428452 106.991931 
L 455.670629 109.642772 
L 455.912861 109.642672 
L 456.155119 113.618586 
L 456.396284 110.968093 
L 456.640193 116.269426 
L 456.88138 115.606741 
L 457.123839 117.594846 
L 457.366536 116.269426 
L 457.609592 117.594698 
L 457.851918 113.618784 
L 458.094765 117.594846 
L 458.335292 112.293513 
L 458.578876 110.967795 
L 458.821313 117.594698 
L 459.062467 116.269129 
L 459.304973 110.967795 
L 459.548306 109.642524 
L 459.790911 106.991981 
L 460.033 103.015919 
L 460.275243 106.992328 
L 460.516674 101.690647 
L 460.760026 103.015571 
L 461.002122 105.66671 
L 461.24361 106.991981 
L 461.486134 101.690499 
L 461.729597 103.015571 
L 461.97156 103.015919 
L 462.213987 101.690499 
L 462.456502 99.039658 
L 462.698013 103.015919 
L 462.940748 100.36488 
L 463.182864 99.039807 
L 463.425988 103.015571 
L 463.667648 99.039807 
L 463.910495 97.714536 
L 464.152145 99.039807 
L 464.395144 99.039559 
L 464.637669 97.714436 
L 464.880059 93.075788 
L 465.121737 93.738374 
L 465.364467 95.063646 
L 465.848877 95.063943 
L 466.091534 99.039857 
L 466.333557 96.389215 
L 466.576348 96.389066 
L 466.818606 99.039956 
L 467.060474 100.364979 
L 467.303454 93.075739 
L 467.546027 93.738225 
L 467.78758 99.039609 
L 468.030144 96.388917 
L 468.272426 95.063646 
L 468.514873 95.063546 
L 468.757369 92.413153 
L 469.000264 96.389165 
L 469.242059 93.738424 
L 469.484806 92.412954 
L 469.727134 92.413202 
L 469.969663 95.063794 
L 470.211453 92.413053 
L 470.454412 94.40101 
L 470.696615 95.063695 
L 470.94032 93.738374 
L 471.181551 96.389215 
L 471.423679 95.063794 
L 472.150437 95.063745 
L 472.392953 91.087683 
L 472.635583 92.413103 
L 472.877439 92.413004 
L 473.120146 96.389115 
L 473.362557 95.063646 
L 473.362557 95.063646 
" clip-path="url(#p506be13559)" style="fill: none; stroke: #0000ff; stroke-linecap: square"/>
   </g>
   <g id="line2d_38">
    <path d="M 295.979375 36.172917 
L 481.809375 36.172917 
" clip-path="url(#p506be13559)" style="fill: none; stroke-dasharray: 7.4,3.2; stroke-dashoffset: 0; stroke: #000000; stroke-opacity: 0.7; stroke-width: 2"/>
   </g>
   <g id="line2d_39">
    <path d="M 295.979375 135.399583 
L 481.809375 135.399583 
" clip-path="url(#p506be13559)" style="fill: none; stroke-dasharray: 7.4,3.2; stroke-dashoffset: 0; stroke: #000000; stroke-opacity: 0.7; stroke-width: 2"/>
   </g>
   <g id="patch_8">
    <path d="M 295.979375 160.20625 
L 295.979375 11.36625 
" style="fill: none; stroke: #000000; stroke-width: 0.8; stroke-linejoin: miter; stroke-linecap: square"/>
   </g>
   <g id="patch_9">
    <path d="M 481.809375 160.20625 
L 481.809375 11.36625 
" style="fill: none; stroke: #000000; stroke-width: 0.8; stroke-linejoin: miter; stroke-linecap: square"/>
   </g>
   <g id="patch_10">
    <path d="M 295.979375 160.20625 
L 481.809375 160.20625 
" style="fill: none; stroke: #000000; stroke-width: 0.8; stroke-linejoin: miter; stroke-linecap: square"/>
   </g>
   <g id="patch_11">
    <path d="M 295.979375 11.36625 
L 481.809375 11.36625 
" style="fill: none; stroke: #000000; stroke-width: 0.8; stroke-linejoin: miter; stroke-linecap: square"/>
   </g>
  </g>
 </g>
 <defs>
  <clipPath id="p68825bb6ae">
   <rect x="50.099375" y="11.36625" width="185.83" height="148.84"/>
  </clipPath>
  <clipPath id="p506be13559">
   <rect x="295.979375" y="11.36625" width="185.83" height="148.84"/>
  </clipPath>
 </defs>
</svg>
