<?xml version="1.0" encoding="utf-8" standalone="no"?>
<!DOCTYPE svg PUBLIC "-//W3C//DTD SVG 1.1//EN"
  "http://www.w3.org/Graphics/SVG/1.1/DTD/svg11.dtd">
<svg xmlns:xlink="http://www.w3.org/1999/xlink" width="489.009375pt" height="200.205pt" viewBox="0 0 489.009375 200.205" xmlns="http://www.w3.org/2000/svg" version="1.1">
 <metadata>
  <rdf:RDF xmlns:dc="http://purl.org/dc/elements/1.1/" xmlns:cc="http://creativecommons.org/ns#" xmlns:rdf="http://www.w3.org/1999/02/22-rdf-syntax-ns#">
   <cc:Work>
    <dc:type rdf:resource="http://purl.org/dc/dcmitype/StillImage"/>
    <dc:date>2026-01-18T23:30:36.984910</dc:date>
    <dc:format>image/svg+xml</dc:format>
    <dc:creator>
     <cc:Agent>
      <dc:title>Matplotlib v3.6.3, https://matplotlib.org/</dc:title>
     </cc:Agent>
    </dc:creator>
   </cc:Work>
  </rdf:RDF>
 </metadata>
 <defs>
  <style type="text/css">*{stroke-linejoin: round; stroke-linecap: butt}</style>
 </defs>
 <g id="figure_1">
  <g id="patch_1">
   <path d="M 0 200.205 
L 489.009375 200.205 
L 489.009375 -0 
L 0 -0 
z
" style="fill: #ffffff"/>
  </g>
  <g id="axes_1">
   <g id="patch_2">
    <path d="M 50.099375 160.20625 
L 235.929375 160.20625 
L 235.929375 11.36625 
L 50.099375 11.36625 
z
" style="fill: #ffffff"/>
   </g>
   <g id="matplotlib.axis_1">
    <g id="xtick_1">
     <g id="line2d_1">
      <path d="M 58.546193 160.20625 
L 58.546193 11.36625 
" clip-path="url(#p9018cc6db8)" style="fill: none; stroke: #b0b0b0; stroke-opacity: 0.3; stroke-width: 0.8; stroke-linecap: square"/>
     </g>
     <g id="line2d_2">
      <defs>
       <path id="m38073a3950" d="M 0 0 
L 0 3.5 
" style="stroke: #000000; stroke-width: 0.8"/>
      </defs>
      <g>
       <use xlink:href="#m38073a3950" x="58.546193" y="160.20625" style="stroke: #000000; stroke-width: 0.8"/>
      </g>
     </g>
     <g id="text_1">
      <!-- 0 -->
      <g transform="translate(55.546193 175.53875) scale(0.12 -0.12)">
       <defs>
        <path id="TimesNewRomanPSMT-30" d="M 231 2094 
Q 231 2819 450 3342 
Q 669 3866 1031 4122 
Q 1313 4325 1613 4325 
Q 2100 4325 2488 3828 
Q 2972 3213 2972 2159 
Q 2972 1422 2759 906 
Q 2547 391 2217 158 
Q 1888 -75 1581 -75 
Q 975 -75 572 641 
Q 231 1244 231 2094 
z
M 844 2016 
Q 844 1141 1059 588 
Q 1238 122 1591 122 
Q 1759 122 1940 273 
Q 2122 425 2216 781 
Q 2359 1319 2359 2297 
Q 2359 3022 2209 3506 
Q 2097 3866 1919 4016 
Q 1791 4119 1609 4119 
Q 1397 4119 1231 3928 
Q 1006 3669 925 3112 
Q 844 2556 844 2016 
z
" transform="scale(0.015625)"/>
       </defs>
       <use xlink:href="#TimesNewRomanPSMT-30"/>
      </g>
     </g>
    </g>
    <g id="xtick_2">
     <g id="line2d_3">
      <path d="M 98.389941 160.20625 
L 98.389941 11.36625 
" clip-path="url(#p9018cc6db8)" style="fill: none; stroke: #b0b0b0; stroke-opacity: 0.3; stroke-width: 0.8; stroke-linecap: square"/>
     </g>
     <g id="line2d_4">
      <g>
       <use xlink:href="#m38073a3950" x="98.389941" y="160.20625" style="stroke: #000000; stroke-width: 0.8"/>
      </g>
     </g>
     <g id="text_2">
      <!-- 5 -->
      <g transform="translate(95.389941 175.53875) scale(0.12 -0.12)">
       <defs>
        <path id="TimesNewRomanPSMT-35" d="M 2778 4238 
L 2534 3706 
L 1259 3706 
L 981 3138 
Q 1809 3016 2294 2522 
Q 2709 2097 2709 1522 
Q 2709 1188 2573 903 
Q 2438 619 2231 419 
Q 2025 219 1772 97 
Q 1413 -75 1034 -75 
Q 653 -75 479 54 
Q 306 184 306 341 
Q 306 428 378 495 
Q 450 563 559 563 
Q 641 563 702 538 
Q 763 513 909 409 
Q 1144 247 1384 247 
Q 1750 247 2026 523 
Q 2303 800 2303 1197 
Q 2303 1581 2056 1914 
Q 1809 2247 1375 2428 
Q 1034 2569 447 2591 
L 1259 4238 
L 2778 4238 
z
" transform="scale(0.015625)"/>
       </defs>
       <use xlink:href="#TimesNewRomanPSMT-35"/>
      </g>
     </g>
    </g>
    <g id="xtick_3">
     <g id="line2d_5">
      <path d="M 138.233688 160.20625 
L 138.233688 11.36625 
" clip-path="url(#p9018cc6db8)" style="fill: none; stroke: #b0b0b0; stroke-opacity: 0.3; stroke-width: 0.8; stroke-linecap: square"/>
     </g>
     <g id="line2d_6">
      <g>
       <use xlink:href="#m38073a3950" x="138.233688" y="160.20625" style="stroke: #000000; stroke-width: 0.8"/>
      </g>
     </g>
     <g id="text_3">
      <!-- 10 -->
      <g transform="translate(132.233688 175.53875) scale(0.12 -0.12)">
       <defs>
        <path id="TimesNewRomanPSMT-31" d="M 750 3822 
L 1781 4325 
L 1884 4325 
L 1884 747 
Q 1884 391 1914 303 
Q 1944 216 2037 169 
Q 2131 122 2419 116 
L 2419 0 
L 825 0 
L 825 116 
Q 1125 122 1212 167 
Q 1300 213 1334 289 
Q 1369 366 1369 747 
L 1369 3034 
Q 1369 3497 1338 3628 
Q 1316 3728 1258 3775 
Q 1200 3822 1119 3822 
Q 1003 3822 797 3725 
L 750 3822 
z
" transform="scale(0.015625)"/>
       </defs>
       <use xlink:href="#TimesNewRomanPSMT-31"/>
       <use xlink:href="#TimesNewRomanPSMT-30" x="50"/>
      </g>
     </g>
    </g>
    <g id="xtick_4">
     <g id="line2d_7">
      <path d="M 178.077436 160.20625 
L 178.077436 11.36625 
" clip-path="url(#p9018cc6db8)" style="fill: none; stroke: #b0b0b0; stroke-opacity: 0.3; stroke-width: 0.8; stroke-linecap: square"/>
     </g>
     <g id="line2d_8">
      <g>
       <use xlink:href="#m38073a3950" x="178.077436" y="160.20625" style="stroke: #000000; stroke-width: 0.8"/>
      </g>
     </g>
     <g id="text_4">
      <!-- 15 -->
      <g transform="translate(172.077436 175.53875) scale(0.12 -0.12)">
       <use xlink:href="#TimesNewRomanPSMT-31"/>
       <use xlink:href="#TimesNewRomanPSMT-35" x="50"/>
      </g>
     </g>
    </g>
    <g id="xtick_5">
     <g id="line2d_9">
      <path d="M 217.921184 160.20625 
L 217.921184 11.36625 
" clip-path="url(#p9018cc6db8)" style="fill: none; stroke: #b0b0b0; stroke-opacity: 0.3; stroke-width: 0.8; stroke-linecap: square"/>
     </g>
     <g id="line2d_10">
      <g>
       <use xlink:href="#m38073a3950" x="217.921184" y="160.20625" style="stroke: #000000; stroke-width: 0.8"/>
      </g>
     </g>
     <g id="text_5">
      <!-- 20 -->
      <g transform="translate(211.921184 175.53875) scale(0.12 -0.12)">
       <defs>
        <path id="TimesNewRomanPSMT-32" d="M 2934 816 
L 2638 0 
L 138 0 
L 138 116 
Q 1241 1122 1691 1759 
Q 2141 2397 2141 2925 
Q 2141 3328 1894 3587 
Q 1647 3847 1303 3847 
Q 991 3847 742 3664 
Q 494 3481 375 3128 
L 259 3128 
Q 338 3706 661 4015 
Q 984 4325 1469 4325 
Q 1984 4325 2329 3994 
Q 2675 3663 2675 3213 
Q 2675 2891 2525 2569 
Q 2294 2063 1775 1497 
Q 997 647 803 472 
L 1909 472 
Q 2247 472 2383 497 
Q 2519 522 2628 598 
Q 2738 675 2819 816 
L 2934 816 
z
" transform="scale(0.015625)"/>
       </defs>
       <use xlink:href="#TimesNewRomanPSMT-32"/>
       <use xlink:href="#TimesNewRomanPSMT-30" x="50"/>
      </g>
     </g>
    </g>
    <g id="text_6">
     <!-- $t$ [s] -->
     <g transform="translate(133.474375 190.438125) scale(0.12 -0.12)">
      <defs>
       <path id="STIXGeneral-Italic-74" d="M 1894 2739 
L 1862 2534 
L 1325 2534 
L 768 435 
Q 755 384 755 346 
Q 755 243 851 243 
Q 928 243 1030 342 
Q 1133 442 1370 749 
L 1453 704 
Q 1158 256 969 93 
Q 781 -70 538 -70 
Q 243 -70 243 166 
Q 243 230 346 640 
L 845 2534 
L 365 2534 
L 358 2573 
Q 358 2688 570 2733 
Q 730 2771 992 2979 
Q 1254 3187 1421 3437 
Q 1459 3494 1510 3494 
Q 1568 3494 1568 3443 
Q 1568 3411 1562 3398 
L 1382 2739 
L 1894 2739 
z
" transform="scale(0.015625)"/>
       <path id="TimesNewRomanPSMT-20" transform="scale(0.015625)"/>
       <path id="TimesNewRomanPSMT-5b" d="M 1900 -1269 
L 525 -1269 
L 525 4334 
L 1900 4334 
L 1900 4088 
L 994 4088 
L 994 -1025 
L 1900 -1025 
L 1900 -1269 
z
" transform="scale(0.015625)"/>
       <path id="TimesNewRomanPSMT-73" d="M 2050 2947 
L 2050 1972 
L 1947 1972 
Q 1828 2431 1642 2597 
Q 1456 2763 1169 2763 
Q 950 2763 815 2647 
Q 681 2531 681 2391 
Q 681 2216 781 2091 
Q 878 1963 1175 1819 
L 1631 1597 
Q 2266 1288 2266 781 
Q 2266 391 1970 151 
Q 1675 -88 1309 -88 
Q 1047 -88 709 6 
Q 606 38 541 38 
Q 469 38 428 -44 
L 325 -44 
L 325 978 
L 428 978 
Q 516 541 762 319 
Q 1009 97 1316 97 
Q 1531 97 1667 223 
Q 1803 350 1803 528 
Q 1803 744 1651 891 
Q 1500 1038 1047 1263 
Q 594 1488 453 1669 
Q 313 1847 313 2119 
Q 313 2472 555 2709 
Q 797 2947 1181 2947 
Q 1350 2947 1591 2875 
Q 1750 2828 1803 2828 
Q 1853 2828 1881 2850 
Q 1909 2872 1947 2947 
L 2050 2947 
z
" transform="scale(0.015625)"/>
       <path id="TimesNewRomanPSMT-5d" d="M 234 4334 
L 1609 4334 
L 1609 -1272 
L 234 -1272 
L 234 -1025 
L 1141 -1025 
L 1141 4088 
L 234 4088 
L 234 4334 
z
" transform="scale(0.015625)"/>
      </defs>
      <use xlink:href="#STIXGeneral-Italic-74" transform="translate(0 0.28125)"/>
      <use xlink:href="#TimesNewRomanPSMT-20" transform="translate(27.799988 0.28125)"/>
      <use xlink:href="#TimesNewRomanPSMT-5b" transform="translate(52.799988 0.28125)"/>
      <use xlink:href="#TimesNewRomanPSMT-73" transform="translate(86.100769 0.28125)"/>
      <use xlink:href="#TimesNewRomanPSMT-5d" transform="translate(125.016785 0.28125)"/>
     </g>
    </g>
   </g>
   <g id="matplotlib.axis_2">
    <g id="ytick_1">
     <g id="line2d_11">
      <path d="M 50.099375 153.440795 
L 235.929375 153.440795 
" clip-path="url(#p9018cc6db8)" style="fill: none; stroke: #b0b0b0; stroke-opacity: 0.3; stroke-width: 0.8; stroke-linecap: square"/>
     </g>
     <g id="line2d_12">
      <defs>
       <path id="mb1a5b19aaa" d="M 0 0 
L -3.5 0 
" style="stroke: #000000; stroke-width: 0.8"/>
      </defs>
      <g>
       <use xlink:href="#mb1a5b19aaa" x="50.099375" y="153.440795" style="stroke: #000000; stroke-width: 0.8"/>
      </g>
     </g>
     <g id="text_7">
      <!-- 0.00 -->
      <g transform="translate(22.099375 157.607045) scale(0.12 -0.12)">
       <defs>
        <path id="TimesNewRomanPSMT-2e" d="M 800 606 
Q 947 606 1047 504 
Q 1147 403 1147 259 
Q 1147 116 1045 14 
Q 944 -88 800 -88 
Q 656 -88 554 14 
Q 453 116 453 259 
Q 453 406 554 506 
Q 656 606 800 606 
z
" transform="scale(0.015625)"/>
       </defs>
       <use xlink:href="#TimesNewRomanPSMT-30"/>
       <use xlink:href="#TimesNewRomanPSMT-2e" x="50"/>
       <use xlink:href="#TimesNewRomanPSMT-30" x="75"/>
       <use xlink:href="#TimesNewRomanPSMT-30" x="125"/>
      </g>
     </g>
    </g>
    <g id="ytick_2">
     <g id="line2d_13">
      <path d="M 50.099375 90.403599 
L 235.929375 90.403599 
" clip-path="url(#p9018cc6db8)" style="fill: none; stroke: #b0b0b0; stroke-opacity: 0.3; stroke-width: 0.8; stroke-linecap: square"/>
     </g>
     <g id="line2d_14">
      <g>
       <use xlink:href="#mb1a5b19aaa" x="50.099375" y="90.403599" style="stroke: #000000; stroke-width: 0.8"/>
      </g>
     </g>
     <g id="text_8">
      <!-- 0.25 -->
      <g transform="translate(22.099375 94.569849) scale(0.12 -0.12)">
       <use xlink:href="#TimesNewRomanPSMT-30"/>
       <use xlink:href="#TimesNewRomanPSMT-2e" x="50"/>
       <use xlink:href="#TimesNewRomanPSMT-32" x="75"/>
       <use xlink:href="#TimesNewRomanPSMT-35" x="125"/>
      </g>
     </g>
    </g>
    <g id="ytick_3">
     <g id="line2d_15">
      <path d="M 50.099375 27.366402 
L 235.929375 27.366402 
" clip-path="url(#p9018cc6db8)" style="fill: none; stroke: #b0b0b0; stroke-opacity: 0.3; stroke-width: 0.8; stroke-linecap: square"/>
     </g>
     <g id="line2d_16">
      <g>
       <use xlink:href="#mb1a5b19aaa" x="50.099375" y="27.366402" style="stroke: #000000; stroke-width: 0.8"/>
      </g>
     </g>
     <g id="text_9">
      <!-- 0.50 -->
      <g transform="translate(22.099375 31.532652) scale(0.12 -0.12)">
       <use xlink:href="#TimesNewRomanPSMT-30"/>
       <use xlink:href="#TimesNewRomanPSMT-2e" x="50"/>
       <use xlink:href="#TimesNewRomanPSMT-35" x="75"/>
       <use xlink:href="#TimesNewRomanPSMT-30" x="125"/>
      </g>
     </g>
    </g>
    <g id="text_10">
     <!-- $v$ [m/s] -->
     <g transform="translate(15.5325 102.64625) rotate(-90) scale(0.12 -0.12)">
      <defs>
       <path id="STIXGeneral-Italic-76" d="M 1325 448 
L 1523 653 
Q 1869 1005 2134 1456 
Q 2400 1907 2400 2131 
Q 2400 2208 2285 2317 
Q 2125 2458 2125 2605 
Q 2125 2701 2195 2761 
Q 2266 2822 2368 2822 
Q 2522 2822 2624 2704 
Q 2726 2586 2726 2445 
Q 2726 2074 2323 1453 
Q 1971 909 1562 474 
Q 1504 416 1421 326 
Q 1338 237 1299 192 
Q 1261 147 1200 86 
Q 1139 26 1110 -3 
Q 1082 -32 1043 -64 
Q 1005 -96 979 -105 
Q 954 -115 928 -115 
Q 870 -115 870 58 
L 870 211 
Q 870 1094 717 1990 
Q 653 2355 579 2470 
Q 506 2586 326 2586 
Q 198 2586 128 2579 
L 128 2662 
Q 480 2720 845 2797 
Q 915 2822 973 2822 
Q 1011 2822 1033 2739 
Q 1056 2656 1165 2093 
Q 1280 1510 1325 448 
z
" transform="scale(0.015625)"/>
       <path id="TimesNewRomanPSMT-6d" d="M 1050 2338 
Q 1363 2650 1419 2697 
Q 1559 2816 1721 2881 
Q 1884 2947 2044 2947 
Q 2313 2947 2506 2790 
Q 2700 2634 2766 2338 
Q 3088 2713 3309 2830 
Q 3531 2947 3766 2947 
Q 3994 2947 4170 2830 
Q 4347 2713 4450 2447 
Q 4519 2266 4519 1878 
L 4519 647 
Q 4519 378 4559 278 
Q 4591 209 4675 161 
Q 4759 113 4950 113 
L 4950 0 
L 3538 0 
L 3538 113 
L 3597 113 
Q 3781 113 3884 184 
Q 3956 234 3988 344 
Q 4000 397 4000 647 
L 4000 1878 
Q 4000 2228 3916 2372 
Q 3794 2572 3525 2572 
Q 3359 2572 3192 2489 
Q 3025 2406 2788 2181 
L 2781 2147 
L 2788 2013 
L 2788 647 
Q 2788 353 2820 281 
Q 2853 209 2943 161 
Q 3034 113 3253 113 
L 3253 0 
L 1806 0 
L 1806 113 
Q 2044 113 2133 169 
Q 2222 225 2256 338 
Q 2272 391 2272 647 
L 2272 1878 
Q 2272 2228 2169 2381 
Q 2031 2581 1784 2581 
Q 1616 2581 1450 2491 
Q 1191 2353 1050 2181 
L 1050 647 
Q 1050 366 1089 281 
Q 1128 197 1204 155 
Q 1281 113 1516 113 
L 1516 0 
L 100 0 
L 100 113 
Q 297 113 375 155 
Q 453 197 493 289 
Q 534 381 534 647 
L 534 1741 
Q 534 2213 506 2350 
Q 484 2453 437 2492 
Q 391 2531 309 2531 
Q 222 2531 100 2484 
L 53 2597 
L 916 2947 
L 1050 2947 
L 1050 2338 
z
" transform="scale(0.015625)"/>
       <path id="TimesNewRomanPSMT-2f" d="M 1794 4444 
L 259 -88 
L 9 -88 
L 1544 4444 
L 1794 4444 
z
" transform="scale(0.015625)"/>
      </defs>
      <use xlink:href="#STIXGeneral-Italic-76" transform="translate(0 0.5625)"/>
      <use xlink:href="#TimesNewRomanPSMT-20" transform="translate(44.399994 0.5625)"/>
      <use xlink:href="#TimesNewRomanPSMT-5b" transform="translate(69.399994 0.5625)"/>
      <use xlink:href="#TimesNewRomanPSMT-6d" transform="translate(102.700775 0.5625)"/>
      <use xlink:href="#TimesNewRomanPSMT-2f" transform="translate(180.483978 0.5625)"/>
      <use xlink:href="#TimesNewRomanPSMT-73" transform="translate(208.267181 0.5625)"/>
      <use xlink:href="#TimesNewRomanPSMT-5d" transform="translate(247.183197 0.5625)"/>
     </g>
    </g>
   </g>
   <g id="line2d_17">
    <path d="M 58.546193 27.366402 
L 209.157433 27.366402 
L 209.687406 33.098752 
L 212.343769 64.31805 
L 212.609105 65.921716 
L 213.404638 73.727739 
L 213.935783 81.00803 
L 214.732976 87.949434 
L 215.263774 89.816344 
L 216.327129 98.123638 
L 216.593109 99.500875 
L 216.858445 101.594214 
L 217.123812 104.988893 
L 217.919875 109.4136 
L 218.185619 110.911616 
L 218.451137 111.295639 
L 218.982991 112.973437 
L 219.248116 114.23418 
L 219.514315 114.605091 
L 219.781355 114.700151 
L 220.576616 118.138704 
L 220.841769 117.366625 
L 221.107922 117.904458 
L 221.638488 119.865672 
L 222.170592 121.387894 
L 223.233534 124.853931 
L 223.498015 124.544797 
L 225.358606 129.095326 
L 225.623984 129.449595 
L 226.420708 131.103439 
L 226.951469 132.826876 
L 227.482557 133.69578 
L 227.482557 133.69578 
" clip-path="url(#p9018cc6db8)" style="fill: none; stroke: #ff0000; stroke-opacity: 0.8; stroke-linecap: square"/>
   </g>
   <g id="line2d_18">
    <path d="M 58.546193 153.440795 
L 59.344 153.440795 
L 59.609889 146.758853 
L 59.874634 145.088367 
L 60.141587 141.747648 
L 60.67175 133.394715 
L 60.939952 120.031081 
L 61.472032 120.031081 
L 61.73396 103.326224 
L 62.002317 108.337681 
L 62.267934 103.325972 
L 62.533805 104.99671 
L 62.799753 96.644281 
L 63.063227 94.973795 
L 63.330598 91.632824 
L 63.596893 86.621367 
L 64.126328 68.246276 
L 64.392907 66.575538 
L 64.657405 63.234819 
L 64.921464 64.9048 
L 65.455446 47.364826 
L 65.722172 43.188738 
L 65.98812 34.836057 
L 66.249732 43.188738 
L 66.518429 34.836057 
L 67.049242 28.154367 
L 67.315571 21.472172 
L 67.580447 23.14291 
L 67.8444 18.131705 
L 68.642923 29.825105 
L 69.17441 26.483881 
L 69.43991 29.825105 
L 69.707079 29.824852 
L 70.236622 23.14291 
L 70.502232 23.14291 
L 71.030841 29.824852 
L 71.296442 26.483881 
L 71.562096 30.432279 
L 71.830758 26.483881 
L 72.096056 28.154367 
L 72.362281 33.165824 
L 72.624944 26.483881 
L 72.893124 24.813395 
L 73.159279 26.483881 
L 73.421727 26.483881 
L 73.68724 29.824852 
L 73.955676 28.154367 
L 74.219891 25.648764 
L 74.484108 28.154367 
L 74.753045 26.483881 
L 75.016522 28.154367 
L 75.284237 31.495338 
L 75.550145 33.165824 
L 75.812422 26.483881 
L 76.081014 28.989483 
L 76.346821 24.813647 
L 76.60941 24.813395 
L 76.87823 29.824852 
L 77.147266 26.483629 
L 77.406075 26.483629 
L 77.671613 28.154367 
L 77.937549 28.154367 
L 78.202868 29.825105 
L 78.469319 28.154619 
L 78.999584 31.495338 
L 79.533496 25.493693 
L 79.799413 26.483881 
L 80.065264 23.14291 
L 80.329581 28.154619 
L 80.859869 31.495338 
L 81.127666 24.813143 
L 81.393127 28.154619 
L 81.655824 24.813143 
L 81.923115 26.483881 
L 82.188502 28.989483 
L 82.455067 28.154367 
L 82.721467 29.824852 
L 82.984105 26.483629 
L 83.252542 29.824852 
L 83.518119 26.483881 
L 83.781684 31.495338 
L 84.046428 29.824852 
L 84.315959 29.824852 
L 84.579108 28.154367 
L 84.845225 28.154367 
L 85.113082 29.824852 
L 85.376381 28.154367 
L 85.644065 23.14291 
L 85.909485 26.483881 
L 86.17426 31.495338 
L 86.707267 24.813395 
L 86.969747 29.824852 
L 87.234149 26.483881 
L 87.503298 26.483881 
L 87.765446 28.154367 
L 88.032212 26.483881 
L 88.305891 27.756728 
L 88.56573 24.813395 
L 88.83064 26.483881 
L 89.096702 31.495338 
L 89.366243 29.8246 
L 89.627553 26.483629 
L 89.899403 28.154367 
L 90.161221 26.483881 
L 90.430233 29.825105 
L 90.691201 26.483629 
L 90.958822 29.824852 
L 91.225405 26.483881 
L 91.487253 29.825105 
L 92.284919 29.825105 
L 92.548993 26.484385 
L 92.82093 26.483881 
L 93.08849 28.154367 
L 93.346278 26.483629 
L 93.615735 28.154367 
L 93.879748 31.495338 
L 94.143175 29.825357 
L 94.409446 25.648764 
L 94.674707 26.483881 
L 94.944594 28.154619 
L 95.211146 28.154619 
L 95.476472 23.143162 
L 95.736372 26.483629 
L 96.001832 28.154367 
L 96.270926 27.318998 
L 96.533072 28.913587 
L 96.798347 29.8246 
L 97.068062 28.154367 
L 97.599695 31.495338 
L 97.866192 28.154367 
L 98.129862 29.824852 
L 98.396822 28.154367 
L 98.662812 24.813395 
L 98.925009 27.318998 
L 99.19344 25.876455 
L 99.458831 29.824852 
L 99.720247 26.483881 
L 100.783381 26.483881 
L 101.053166 28.154367 
L 101.314999 24.813395 
L 101.581766 26.483881 
L 101.850162 21.472424 
L 102.110429 23.14291 
L 102.3843 26.483881 
L 102.645279 28.154367 
L 102.907309 23.14291 
L 103.172797 27.318998 
L 103.439617 28.154367 
L 103.974014 31.495338 
L 104.235836 26.483881 
L 104.505175 26.483881 
L 104.771063 31.495338 
L 105.036992 30.660221 
L 105.301646 26.483881 
L 105.566233 26.483881 
L 105.83441 31.495338 
L 106.094527 26.483629 
L 106.362625 28.154367 
L 106.629308 26.484385 
L 107.159904 28.154367 
L 107.423019 24.813647 
L 107.691444 28.154367 
L 108.488081 28.154367 
L 108.750367 26.483881 
L 109.281531 26.484133 
L 109.81241 23.142657 
L 110.078147 26.483881 
L 110.346386 24.813395 
L 110.612889 26.483881 
L 110.877484 24.813647 
L 111.142896 26.483881 
L 111.40973 24.813395 
L 111.671772 28.154367 
L 111.938964 29.824852 
L 112.205434 26.483629 
L 112.468701 26.483629 
L 112.736851 29.824852 
L 113.26804 26.483629 
L 113.533453 28.913587 
L 113.79962 28.154367 
L 114.063614 26.483881 
L 114.595234 26.483881 
L 114.862324 23.142657 
L 115.124945 26.484133 
L 115.395146 24.812891 
L 115.655866 24.813395 
L 115.921509 23.142657 
L 116.187552 23.14291 
L 116.453011 29.824852 
L 116.721159 24.813143 
L 116.986459 26.483881 
L 117.249986 27.31925 
L 117.517796 29.824852 
L 117.78453 26.483881 
L 118.048977 26.484133 
L 118.314889 28.154367 
L 118.580359 23.14291 
L 118.844307 28.154367 
L 119.37784 28.154367 
L 119.64048 29.824852 
L 119.90893 26.483881 
L 120.438961 26.483881 
L 120.705652 29.824852 
L 121.234766 26.484133 
L 121.501498 26.483881 
L 121.76585 24.358015 
L 122.032265 24.813395 
L 122.563516 28.154367 
L 122.829681 23.142657 
L 123.096077 26.483629 
L 123.361187 28.154367 
L 123.624731 24.813143 
L 123.893027 22.833523 
L 124.158751 26.483629 
L 124.424662 24.813647 
L 124.68977 29.824852 
L 124.953508 26.483629 
L 125.218637 28.154367 
L 125.486544 28.154367 
L 125.752902 29.824852 
L 126.015392 28.154367 
L 126.285247 31.495338 
L 126.55015 26.483881 
L 126.812803 29.824852 
L 127.080516 31.49559 
L 127.343842 24.813143 
L 127.612035 24.813395 
L 127.880079 28.154367 
L 128.144051 24.813143 
L 128.406216 29.824852 
L 128.671555 25.648764 
L 128.937319 31.495338 
L 129.202818 24.813395 
L 129.469066 33.165824 
L 129.737364 29.825357 
L 130.534477 29.824852 
L 130.797488 26.483881 
L 131.062254 31.495338 
L 131.330934 28.989483 
L 131.593929 29.825105 
L 131.86159 26.483881 
L 132.126087 26.483881 
L 132.390178 28.154367 
L 132.658558 26.483881 
L 132.924661 28.154619 
L 133.187487 26.483881 
L 133.721224 26.483881 
L 133.987027 28.154367 
L 134.254994 31.495086 
L 134.516692 28.154619 
L 134.781435 28.989736 
L 135.046777 31.495338 
L 135.312555 31.49559 
L 135.578389 28.154115 
L 135.846708 31.49559 
L 136.109667 31.495338 
L 136.643428 28.154367 
L 136.909914 29.824852 
L 137.173819 29.824852 
L 137.441057 31.495338 
L 137.97082 28.154367 
L 138.237095 29.824852 
L 138.502486 23.14291 
L 138.769064 26.483881 
L 139.034106 26.483881 
L 139.296885 29.824852 
L 139.564291 24.813395 
L 139.831037 28.154367 
L 140.097701 28.989483 
L 140.359414 26.483881 
L 140.628227 31.495338 
L 141.425053 24.813395 
L 141.690184 29.824852 
L 141.953702 28.154115 
L 142.222957 28.154115 
L 142.488307 23.143162 
L 142.749898 27.318998 
L 143.018703 24.813395 
L 143.285213 26.483629 
L 143.553441 24.813395 
L 143.820486 26.483629 
L 144.346405 26.483881 
L 144.615096 25.876202 
L 145.143197 29.824852 
L 145.408949 31.495338 
L 145.677137 26.483629 
L 145.943866 26.484133 
L 146.21053 29.824852 
L 146.738692 29.824852 
L 147.006146 28.154115 
L 147.268288 24.813647 
L 147.533487 26.484133 
L 147.798825 26.484133 
L 148.06513 28.154367 
L 148.330744 23.14291 
L 148.595673 26.484133 
L 148.867315 27.318998 
L 149.127055 26.483881 
L 149.39846 28.154619 
L 149.658421 28.154619 
L 149.929297 29.8246 
L 150.195906 29.825105 
L 150.455688 28.154367 
L 150.991087 28.154367 
L 151.257401 29.825105 
L 151.522846 28.989483 
L 151.783994 31.495338 
L 152.053069 28.154367 
L 152.31432 29.824852 
L 152.585774 24.813647 
L 152.852064 26.483881 
L 153.642949 26.483881 
L 153.908964 28.154367 
L 154.173541 26.483881 
L 154.444258 26.483881 
L 154.705112 29.8246 
L 154.970397 28.154367 
L 155.236591 29.824852 
L 155.505281 29.824852 
L 155.767689 28.154367 
L 156.034431 24.813395 
L 156.565057 31.49559 
L 156.829118 26.483881 
L 157.09456 28.154367 
L 157.360043 31.495338 
L 157.626053 28.154367 
L 157.891442 26.483881 
L 158.427654 26.483881 
L 158.689035 24.813395 
L 158.953953 29.825105 
L 159.221979 26.483881 
L 159.485895 26.483881 
L 159.756654 24.813395 
L 160.018359 24.813395 
L 160.282063 26.483881 
L 160.547558 31.495338 
L 160.815345 24.813395 
L 161.078515 29.824852 
L 161.347754 29.8246 
L 161.613895 28.154367 
L 161.875999 28.154115 
L 162.144643 26.483881 
L 162.409979 28.154367 
L 162.675742 28.154367 
L 162.938029 26.483881 
L 163.204778 28.154367 
L 163.47138 28.154115 
L 164.002071 24.813647 
L 164.269259 28.154367 
L 164.535173 29.8246 
L 164.800818 23.14291 
L 165.328044 26.483629 
L 165.597044 26.483881 
L 165.859162 29.825105 
L 166.126134 28.154367 
L 166.391684 24.813395 
L 166.921619 24.813647 
L 167.190504 23.142657 
L 167.453678 28.154367 
L 167.718683 28.154367 
L 167.986994 26.483881 
L 168.250166 28.154367 
L 168.516067 26.483629 
L 168.786768 28.154367 
L 169.046609 25.648512 
L 169.313051 24.813395 
L 169.578469 26.484133 
L 169.843632 26.483881 
L 170.111738 29.825105 
L 170.377345 29.824852 
L 170.642761 28.154367 
L 170.909465 28.154619 
L 171.175698 26.483629 
L 171.437948 29.8246 
L 171.706392 29.824852 
L 171.97143 26.484385 
L 172.234509 28.154115 
L 172.501836 28.154367 
L 172.766705 21.472676 
L 173.031201 23.14291 
L 173.301558 23.142657 
L 173.565587 24.813647 
L 173.828462 24.813395 
L 174.096466 23.14291 
L 174.362985 29.824852 
L 174.62485 24.813647 
L 174.893131 29.824852 
L 175.160424 28.154619 
L 175.423913 24.813395 
L 175.691181 23.142657 
L 175.95336 23.14291 
L 176.486427 31.495338 
L 176.753386 29.824852 
L 177.017931 26.483881 
L 177.547159 29.824852 
L 177.812203 26.483881 
L 178.081787 26.483881 
L 178.343811 28.154367 
L 178.61148 23.14291 
L 178.876968 24.813395 
L 179.141206 28.154367 
L 179.40642 29.824852 
L 179.671903 24.813395 
L 179.937506 29.824852 
L 180.206184 26.483881 
L 180.4713 26.483881 
L 180.73762 24.813143 
L 181.002454 26.483881 
L 181.267992 24.813395 
L 181.531699 29.824852 
L 181.799522 28.154367 
L 182.06531 21.472424 
L 182.327869 21.472424 
L 182.594846 28.154367 
L 182.861617 28.154115 
L 183.127448 26.483881 
L 183.392847 28.154367 
L 183.657871 26.483881 
L 184.187291 26.483629 
L 184.45462 31.495338 
L 184.719988 29.824852 
L 184.986612 26.483881 
L 185.251677 29.824852 
L 185.782153 26.483881 
L 186.049157 28.154367 
L 186.313642 24.813395 
L 186.578368 27.31925 
L 186.846654 26.483881 
L 187.110098 29.824348 
L 187.37874 29.824852 
L 187.641585 26.484133 
L 187.909322 29.824852 
L 188.171299 24.813143 
L 188.43746 26.483881 
L 188.7028 26.483881 
L 188.969068 24.358015 
L 189.23688 28.154619 
L 189.501315 28.154367 
L 189.767905 29.824852 
L 190.034442 28.154367 
L 190.299789 29.824852 
L 190.564019 26.484133 
L 191.625394 26.483881 
L 191.891729 29.825105 
L 192.158038 29.825105 
L 192.421578 28.154367 
L 192.688269 28.154367 
L 192.955689 29.824852 
L 193.221853 26.483881 
L 193.485724 26.483881 
L 193.750247 24.813395 
L 194.28256 24.813395 
L 194.549699 25.648764 
L 194.815284 28.154619 
L 195.077875 26.483881 
L 195.344391 25.648512 
L 195.611421 28.154367 
L 195.877278 26.483881 
L 196.142876 23.14291 
L 196.408949 24.813647 
L 196.674946 29.8246 
L 197.205065 26.484133 
L 197.46955 26.174242 
L 197.735277 23.14291 
L 197.99942 26.483629 
L 198.265995 26.483629 
L 198.530875 29.8246 
L 198.797301 28.154367 
L 199.064982 28.154367 
L 199.327485 29.8246 
L 199.595562 26.483881 
L 199.859285 24.813143 
L 200.125541 26.483881 
L 200.390772 24.503757 
L 200.655867 25.648764 
L 201.187101 31.495338 
L 201.452395 26.484133 
L 201.720228 26.483881 
L 202.251253 29.825105 
L 202.515888 24.813143 
L 202.78311 26.483881 
L 203.045842 24.813395 
L 203.311932 25.648764 
L 203.57912 24.813143 
L 203.845839 28.154367 
L 204.110208 24.813395 
L 204.37395 28.154367 
L 204.641874 33.165824 
L 204.907227 31.495338 
L 205.172557 28.154367 
L 205.436941 21.472424 
L 205.702201 24.813395 
L 205.969646 26.483881 
L 206.235495 24.813395 
L 206.500608 29.824852 
L 206.765903 26.483881 
L 207.033817 28.154367 
L 207.297234 26.483881 
L 207.562763 27.318998 
L 207.826576 23.14291 
L 208.092482 28.154367 
L 208.360152 26.483881 
L 208.624556 28.154367 
L 208.891163 28.154367 
L 209.157433 31.49559 
L 209.687406 26.484133 
L 209.952911 29.825105 
L 210.218798 31.49559 
L 210.482967 29.8246 
L 210.748372 39.848019 
L 211.01401 39.847515 
L 211.280313 46.529457 
L 211.545662 48.200195 
L 211.81286 51.541419 
L 212.076944 48.200195 
L 212.343769 53.211652 
L 212.609105 64.905557 
L 212.873871 68.24552 
L 213.139959 69.91651 
L 213.670162 76.597948 
L 213.935783 71.586995 
L 214.467743 84.950629 
L 214.732976 86.621367 
L 214.998276 89.962086 
L 215.263774 91.632824 
L 215.529744 92.467941 
L 215.795736 94.974048 
L 216.061491 94.973543 
L 216.327129 98.315019 
L 216.593109 104.99671 
L 216.858445 103.326224 
L 217.123812 98.314767 
L 217.38968 101.655738 
L 217.654731 108.337681 
L 217.919875 110.007915 
L 218.185619 108.337681 
L 218.451137 110.008167 
L 218.982991 116.69011 
L 219.248116 116.69011 
L 219.514315 113.349138 
L 219.781355 116.69011 
L 220.045908 116.69011 
L 220.312296 115.019876 
L 220.576616 115.019876 
L 220.841769 120.031081 
L 221.107922 115.019624 
L 221.373524 118.360595 
L 221.638488 120.031081 
L 221.905158 115.019876 
L 222.170592 123.3718 
L 222.435985 121.701567 
L 222.701441 125.042538 
L 222.967343 125.042538 
L 223.233534 128.38351 
L 223.498015 125.042538 
L 223.764569 126.713024 
L 224.029468 125.042538 
L 224.295945 128.38351 
L 224.561038 128.38351 
L 224.82631 130.053995 
L 225.358606 130.053995 
L 225.623984 128.38351 
L 226.420708 133.394967 
L 226.685742 131.724481 
L 226.951469 131.724481 
L 227.217453 133.394967 
L 227.482557 131.724481 
L 227.482557 131.724481 
" clip-path="url(#p9018cc6db8)" style="fill: none; stroke: #0000ff; stroke-linecap: square"/>
   </g>
   <g id="line2d_19">
    <path d="M 50.099375 27.366402 
L 235.929375 27.366402 
" clip-path="url(#p9018cc6db8)" style="fill: none; stroke-dasharray: 3.7,1.6; stroke-dashoffset: 0; stroke: #000000; stroke-opacity: 0.7"/>
   </g>
   <g id="patch_3">
    <path d="M 50.099375 160.20625 
L 50.099375 11.36625 
" style="fill: none; stroke: #000000; stroke-width: 0.8; stroke-linejoin: miter; stroke-linecap: square"/>
   </g>
   <g id="patch_4">
    <path d="M 235.929375 160.20625 
L 235.929375 11.36625 
" style="fill: none; stroke: #000000; stroke-width: 0.8; stroke-linejoin: miter; stroke-linecap: square"/>
   </g>
   <g id="patch_5">
    <path d="M 50.099375 160.20625 
L 235.929375 160.20625 
" style="fill: none; stroke: #000000; stroke-width: 0.8; stroke-linejoin: miter; stroke-linecap: square"/>
   </g>
   <g id="patch_6">
    <path d="M 50.099375 11.36625 
L 235.929375 11.36625 
" style="fill: none; stroke: #000000; stroke-width: 0.8; stroke-linejoin: miter; stroke-linecap: square"/>
   </g>
  </g>
  <g id="axes_2">
   <g id="patch_7">
    <path d="M 295.979375 160.20625 
L 481.809375 160.20625 
L 481.809375 11.36625 
L 295.979375 11.36625 
z
" style="fill: #ffffff"/>
   </g>
   <g id="matplotlib.axis_3">
    <g id="xtick_6">
     <g id="line2d_20">
      <path d="M 304.426193 160.20625 
L 304.426193 11.36625 
" clip-path="url(#pc2e139d4e0)" style="fill: none; stroke: #b0b0b0; stroke-opacity: 0.3; stroke-width: 0.8; stroke-linecap: square"/>
     </g>
     <g id="line2d_21">
      <g>
       <use xlink:href="#m38073a3950" x="304.426193" y="160.20625" style="stroke: #000000; stroke-width: 0.8"/>
      </g>
     </g>
     <g id="text_11">
      <!-- 0 -->
      <g transform="translate(301.426193 175.53875) scale(0.12 -0.12)">
       <use xlink:href="#TimesNewRomanPSMT-30"/>
      </g>
     </g>
    </g>
    <g id="xtick_7">
     <g id="line2d_22">
      <path d="M 344.269941 160.20625 
L 344.269941 11.36625 
" clip-path="url(#pc2e139d4e0)" style="fill: none; stroke: #b0b0b0; stroke-opacity: 0.3; stroke-width: 0.8; stroke-linecap: square"/>
     </g>
     <g id="line2d_23">
      <g>
       <use xlink:href="#m38073a3950" x="344.269941" y="160.20625" style="stroke: #000000; stroke-width: 0.8"/>
      </g>
     </g>
     <g id="text_12">
      <!-- 5 -->
      <g transform="translate(341.269941 175.53875) scale(0.12 -0.12)">
       <use xlink:href="#TimesNewRomanPSMT-35"/>
      </g>
     </g>
    </g>
    <g id="xtick_8">
     <g id="line2d_24">
      <path d="M 384.113688 160.20625 
L 384.113688 11.36625 
" clip-path="url(#pc2e139d4e0)" style="fill: none; stroke: #b0b0b0; stroke-opacity: 0.3; stroke-width: 0.8; stroke-linecap: square"/>
     </g>
     <g id="line2d_25">
      <g>
       <use xlink:href="#m38073a3950" x="384.113688" y="160.20625" style="stroke: #000000; stroke-width: 0.8"/>
      </g>
     </g>
     <g id="text_13">
      <!-- 10 -->
      <g transform="translate(378.113688 175.53875) scale(0.12 -0.12)">
       <use xlink:href="#TimesNewRomanPSMT-31"/>
       <use xlink:href="#TimesNewRomanPSMT-30" x="50"/>
      </g>
     </g>
    </g>
    <g id="xtick_9">
     <g id="line2d_26">
      <path d="M 423.957436 160.20625 
L 423.957436 11.36625 
" clip-path="url(#pc2e139d4e0)" style="fill: none; stroke: #b0b0b0; stroke-opacity: 0.3; stroke-width: 0.8; stroke-linecap: square"/>
     </g>
     <g id="line2d_27">
      <g>
       <use xlink:href="#m38073a3950" x="423.957436" y="160.20625" style="stroke: #000000; stroke-width: 0.8"/>
      </g>
     </g>
     <g id="text_14">
      <!-- 15 -->
      <g transform="translate(417.957436 175.53875) scale(0.12 -0.12)">
       <use xlink:href="#TimesNewRomanPSMT-31"/>
       <use xlink:href="#TimesNewRomanPSMT-35" x="50"/>
      </g>
     </g>
    </g>
    <g id="xtick_10">
     <g id="line2d_28">
      <path d="M 463.801184 160.20625 
L 463.801184 11.36625 
" clip-path="url(#pc2e139d4e0)" style="fill: none; stroke: #b0b0b0; stroke-opacity: 0.3; stroke-width: 0.8; stroke-linecap: square"/>
     </g>
     <g id="line2d_29">
      <g>
       <use xlink:href="#m38073a3950" x="463.801184" y="160.20625" style="stroke: #000000; stroke-width: 0.8"/>
      </g>
     </g>
     <g id="text_15">
      <!-- 20 -->
      <g transform="translate(457.801184 175.53875) scale(0.12 -0.12)">
       <use xlink:href="#TimesNewRomanPSMT-32"/>
       <use xlink:href="#TimesNewRomanPSMT-30" x="50"/>
      </g>
     </g>
    </g>
    <g id="text_16">
     <!-- $t$ [s] -->
     <g transform="translate(379.354375 190.438125) scale(0.12 -0.12)">
      <use xlink:href="#STIXGeneral-Italic-74" transform="translate(0 0.28125)"/>
      <use xlink:href="#TimesNewRomanPSMT-20" transform="translate(27.799988 0.28125)"/>
      <use xlink:href="#TimesNewRomanPSMT-5b" transform="translate(52.799988 0.28125)"/>
      <use xlink:href="#TimesNewRomanPSMT-73" transform="translate(86.100769 0.28125)"/>
      <use xlink:href="#TimesNewRomanPSMT-5d" transform="translate(125.016785 0.28125)"/>
     </g>
    </g>
   </g>
   <g id="matplotlib.axis_4">
    <g id="ytick_4">
     <g id="line2d_30">
      <path d="M 295.979375 160.20625 
L 481.809375 160.20625 
" clip-path="url(#pc2e139d4e0)" style="fill: none; stroke: #b0b0b0; stroke-opacity: 0.3; stroke-width: 0.8; stroke-linecap: square"/>
     </g>
     <g id="line2d_31">
      <g>
       <use xlink:href="#mb1a5b19aaa" x="295.979375" y="160.20625" style="stroke: #000000; stroke-width: 0.8"/>
      </g>
     </g>
     <g id="text_17">
      <!-- −1.5 -->
      <g transform="translate(267.2125 164.3725) scale(0.12 -0.12)">
       <defs>
        <path id="TimesNewRomanPSMT-2212" d="M 3484 2000 
L 116 2000 
L 116 2256 
L 3484 2256 
L 3484 2000 
z
" transform="scale(0.015625)"/>
       </defs>
       <use xlink:href="#TimesNewRomanPSMT-2212"/>
       <use xlink:href="#TimesNewRomanPSMT-31" x="56.396484"/>
       <use xlink:href="#TimesNewRomanPSMT-2e" x="106.396484"/>
       <use xlink:href="#TimesNewRomanPSMT-35" x="131.396484"/>
      </g>
     </g>
    </g>
    <g id="ytick_5">
     <g id="line2d_32">
      <path d="M 295.979375 135.399583 
L 481.809375 135.399583 
" clip-path="url(#pc2e139d4e0)" style="fill: none; stroke: #b0b0b0; stroke-opacity: 0.3; stroke-width: 0.8; stroke-linecap: square"/>
     </g>
     <g id="line2d_33">
      <g>
       <use xlink:href="#mb1a5b19aaa" x="295.979375" y="135.399583" style="stroke: #000000; stroke-width: 0.8"/>
      </g>
     </g>
     <g id="text_18">
      <!-- −1.0 -->
      <g transform="translate(267.2125 139.565833) scale(0.12 -0.12)">
       <use xlink:href="#TimesNewRomanPSMT-2212"/>
       <use xlink:href="#TimesNewRomanPSMT-31" x="56.396484"/>
       <use xlink:href="#TimesNewRomanPSMT-2e" x="106.396484"/>
       <use xlink:href="#TimesNewRomanPSMT-30" x="131.396484"/>
      </g>
     </g>
    </g>
    <g id="ytick_6">
     <g id="line2d_34">
      <path d="M 295.979375 110.592917 
L 481.809375 110.592917 
" clip-path="url(#pc2e139d4e0)" style="fill: none; stroke: #b0b0b0; stroke-opacity: 0.3; stroke-width: 0.8; stroke-linecap: square"/>
     </g>
     <g id="line2d_35">
      <g>
       <use xlink:href="#mb1a5b19aaa" x="295.979375" y="110.592917" style="stroke: #000000; stroke-width: 0.8"/>
      </g>
     </g>
     <g id="text_19">
      <!-- −0.5 -->
      <g transform="translate(267.2125 114.759167) scale(0.12 -0.12)">
       <use xlink:href="#TimesNewRomanPSMT-2212"/>
       <use xlink:href="#TimesNewRomanPSMT-30" x="56.396484"/>
       <use xlink:href="#TimesNewRomanPSMT-2e" x="106.396484"/>
       <use xlink:href="#TimesNewRomanPSMT-35" x="131.396484"/>
      </g>
     </g>
    </g>
    <g id="ytick_7">
     <g id="line2d_36">
      <path d="M 295.979375 85.78625 
L 481.809375 85.78625 
" clip-path="url(#pc2e139d4e0)" style="fill: none; stroke: #b0b0b0; stroke-opacity: 0.3; stroke-width: 0.8; stroke-linecap: square"/>
     </g>
     <g id="line2d_37">
      <g>
       <use xlink:href="#mb1a5b19aaa" x="295.979375" y="85.78625" style="stroke: #000000; stroke-width: 0.8"/>
      </g>
     </g>
     <g id="text_20">
      <!-- 0.0 -->
      <g transform="translate(273.979375 89.9525) scale(0.12 -0.12)">
       <use xlink:href="#TimesNewRomanPSMT-30"/>
       <use xlink:href="#TimesNewRomanPSMT-2e" x="50"/>
       <use xlink:href="#TimesNewRomanPSMT-30" x="75"/>
      </g>
     </g>
    </g>
    <g id="ytick_8">
     <g id="line2d_38">
      <path d="M 295.979375 60.979583 
L 481.809375 60.979583 
" clip-path="url(#pc2e139d4e0)" style="fill: none; stroke: #b0b0b0; stroke-opacity: 0.3; stroke-width: 0.8; stroke-linecap: square"/>
     </g>
     <g id="line2d_39">
      <g>
       <use xlink:href="#mb1a5b19aaa" x="295.979375" y="60.979583" style="stroke: #000000; stroke-width: 0.8"/>
      </g>
     </g>
     <g id="text_21">
      <!-- 0.5 -->
      <g transform="translate(273.979375 65.145833) scale(0.12 -0.12)">
       <use xlink:href="#TimesNewRomanPSMT-30"/>
       <use xlink:href="#TimesNewRomanPSMT-2e" x="50"/>
       <use xlink:href="#TimesNewRomanPSMT-35" x="75"/>
      </g>
     </g>
    </g>
    <g id="ytick_9">
     <g id="line2d_40">
      <path d="M 295.979375 36.172917 
L 481.809375 36.172917 
" clip-path="url(#pc2e139d4e0)" style="fill: none; stroke: #b0b0b0; stroke-opacity: 0.3; stroke-width: 0.8; stroke-linecap: square"/>
     </g>
     <g id="line2d_41">
      <g>
       <use xlink:href="#mb1a5b19aaa" x="295.979375" y="36.172917" style="stroke: #000000; stroke-width: 0.8"/>
      </g>
     </g>
     <g id="text_22">
      <!-- 1.0 -->
      <g transform="translate(273.979375 40.339167) scale(0.12 -0.12)">
       <use xlink:href="#TimesNewRomanPSMT-31"/>
       <use xlink:href="#TimesNewRomanPSMT-2e" x="50"/>
       <use xlink:href="#TimesNewRomanPSMT-30" x="75"/>
      </g>
     </g>
    </g>
    <g id="ytick_10">
     <g id="line2d_42">
      <path d="M 295.979375 11.36625 
L 481.809375 11.36625 
" clip-path="url(#pc2e139d4e0)" style="fill: none; stroke: #b0b0b0; stroke-opacity: 0.3; stroke-width: 0.8; stroke-linecap: square"/>
     </g>
     <g id="line2d_43">
      <g>
       <use xlink:href="#mb1a5b19aaa" x="295.979375" y="11.36625" style="stroke: #000000; stroke-width: 0.8"/>
      </g>
     </g>
     <g id="text_23">
      <!-- 1.5 -->
      <g transform="translate(273.979375 15.5325) scale(0.12 -0.12)">
       <use xlink:href="#TimesNewRomanPSMT-31"/>
       <use xlink:href="#TimesNewRomanPSMT-2e" x="50"/>
       <use xlink:href="#TimesNewRomanPSMT-35" x="75"/>
      </g>
     </g>
    </g>
    <g id="text_24">
     <!-- $\omega$ [rad/s] -->
     <g transform="translate(260.645625 107.08625) rotate(-90) scale(0.12 -0.12)">
      <defs>
       <path id="STIXGeneral-Italic-3c9" d="M 3021 2810 
L 3136 2810 
Q 3648 2810 3898 2598 
Q 4186 2355 4186 1824 
Q 4186 1357 3910 838 
Q 3667 390 3334 160 
Q 3002 -70 2669 -70 
Q 2438 -70 2281 3 
Q 2125 77 2064 160 
Q 2003 243 1939 384 
Q 1741 147 1533 38 
Q 1325 -70 998 -70 
Q 659 -70 416 160 
Q 173 390 173 832 
Q 173 1101 237 1350 
Q 403 1965 883 2387 
Q 1363 2810 2010 2810 
L 2125 2810 
L 2125 2707 
Q 1606 2707 1267 2291 
Q 1024 1990 867 1526 
Q 710 1062 710 666 
Q 710 64 1075 64 
Q 1286 64 1523 285 
Q 1760 506 1856 774 
Q 1837 915 1837 1101 
Q 1837 1363 1914 1651 
Q 1984 1920 2125 2105 
Q 2266 2291 2432 2291 
Q 2656 2291 2656 1997 
Q 2656 1530 2387 1062 
Q 2272 864 2189 736 
Q 2176 691 2176 602 
Q 2176 384 2288 224 
Q 2400 64 2592 64 
Q 3040 64 3341 627 
Q 3482 896 3565 1270 
Q 3648 1645 3648 1971 
Q 3648 2240 3616 2362 
Q 3565 2566 3411 2636 
Q 3258 2707 3021 2707 
L 3021 2810 
z
" transform="scale(0.015625)"/>
       <path id="TimesNewRomanPSMT-72" d="M 1038 2947 
L 1038 2303 
Q 1397 2947 1775 2947 
Q 1947 2947 2059 2842 
Q 2172 2738 2172 2600 
Q 2172 2478 2090 2393 
Q 2009 2309 1897 2309 
Q 1788 2309 1652 2417 
Q 1516 2525 1450 2525 
Q 1394 2525 1328 2463 
Q 1188 2334 1038 2041 
L 1038 669 
Q 1038 431 1097 309 
Q 1138 225 1241 169 
Q 1344 113 1538 113 
L 1538 0 
L 72 0 
L 72 113 
Q 291 113 397 181 
Q 475 231 506 341 
Q 522 394 522 644 
L 522 1753 
Q 522 2253 501 2348 
Q 481 2444 426 2487 
Q 372 2531 291 2531 
Q 194 2531 72 2484 
L 41 2597 
L 906 2947 
L 1038 2947 
z
" transform="scale(0.015625)"/>
       <path id="TimesNewRomanPSMT-61" d="M 1822 413 
Q 1381 72 1269 19 
Q 1100 -59 909 -59 
Q 613 -59 420 144 
Q 228 347 228 678 
Q 228 888 322 1041 
Q 450 1253 767 1440 
Q 1084 1628 1822 1897 
L 1822 2009 
Q 1822 2438 1686 2597 
Q 1550 2756 1291 2756 
Q 1094 2756 978 2650 
Q 859 2544 859 2406 
L 866 2225 
Q 866 2081 792 2003 
Q 719 1925 600 1925 
Q 484 1925 411 2006 
Q 338 2088 338 2228 
Q 338 2497 613 2722 
Q 888 2947 1384 2947 
Q 1766 2947 2009 2819 
Q 2194 2722 2281 2516 
Q 2338 2381 2338 1966 
L 2338 994 
Q 2338 584 2353 492 
Q 2369 400 2405 369 
Q 2441 338 2488 338 
Q 2538 338 2575 359 
Q 2641 400 2828 588 
L 2828 413 
Q 2478 -56 2159 -56 
Q 2006 -56 1915 50 
Q 1825 156 1822 413 
z
M 1822 616 
L 1822 1706 
Q 1350 1519 1213 1441 
Q 966 1303 859 1153 
Q 753 1003 753 825 
Q 753 600 887 451 
Q 1022 303 1197 303 
Q 1434 303 1822 616 
z
" transform="scale(0.015625)"/>
       <path id="TimesNewRomanPSMT-64" d="M 2222 322 
Q 2013 103 1813 7 
Q 1613 -88 1381 -88 
Q 913 -88 563 304 
Q 213 697 213 1313 
Q 213 1928 600 2439 
Q 988 2950 1597 2950 
Q 1975 2950 2222 2709 
L 2222 3238 
Q 2222 3728 2198 3840 
Q 2175 3953 2125 3993 
Q 2075 4034 2000 4034 
Q 1919 4034 1784 3984 
L 1744 4094 
L 2597 4444 
L 2738 4444 
L 2738 1134 
Q 2738 631 2761 520 
Q 2784 409 2836 365 
Q 2888 322 2956 322 
Q 3041 322 3181 375 
L 3216 266 
L 2366 -88 
L 2222 -88 
L 2222 322 
z
M 2222 541 
L 2222 2016 
Q 2203 2228 2109 2403 
Q 2016 2578 1861 2667 
Q 1706 2756 1559 2756 
Q 1284 2756 1069 2509 
Q 784 2184 784 1559 
Q 784 928 1059 592 
Q 1334 256 1672 256 
Q 1956 256 2222 541 
z
" transform="scale(0.015625)"/>
      </defs>
      <use xlink:href="#STIXGeneral-Italic-3c9" transform="translate(0 0.5625)"/>
      <use xlink:href="#TimesNewRomanPSMT-20" transform="translate(68.599991 0.5625)"/>
      <use xlink:href="#TimesNewRomanPSMT-5b" transform="translate(93.599991 0.5625)"/>
      <use xlink:href="#TimesNewRomanPSMT-72" transform="translate(126.900772 0.5625)"/>
      <use xlink:href="#TimesNewRomanPSMT-61" transform="translate(160.201553 0.5625)"/>
      <use xlink:href="#TimesNewRomanPSMT-64" transform="translate(204.586319 0.5625)"/>
      <use xlink:href="#TimesNewRomanPSMT-2f" transform="translate(254.586319 0.5625)"/>
      <use xlink:href="#TimesNewRomanPSMT-73" transform="translate(282.369522 0.5625)"/>
      <use xlink:href="#TimesNewRomanPSMT-5d" transform="translate(321.285538 0.5625)"/>
     </g>
    </g>
   </g>
   <g id="line2d_44">
    <path d="M 304.426193 85.78625 
L 305.489889 85.78625 
L 305.754634 85.919263 
L 306.819952 85.967488 
L 307.352032 86.065474 
L 308.147934 86.033572 
L 309.476893 85.998248 
L 309.745581 85.812247 
L 310.272907 85.83631 
L 310.801464 85.641726 
L 311.335446 85.588839 
L 312.398429 85.464706 
L 312.929242 85.493234 
L 314.25758 85.374757 
L 316.382232 85.788979 
L 316.648149 86.134238 
L 316.910841 89.002285 
L 317.176442 89.005758 
L 317.442096 89.126765 
L 317.976056 89.080476 
L 318.504944 90.2066 
L 319.835676 89.720438 
L 320.099891 89.40584 
L 320.364108 87.561812 
L 320.633045 86.477364 
L 320.896522 86.308133 
L 321.430145 88.204652 
L 321.692422 88.000493 
L 322.226821 84.732512 
L 323.027266 84.345082 
L 323.286075 83.617056 
L 323.551613 83.545662 
L 324.349319 83.909229 
L 324.614385 83.269614 
L 324.879584 82.255914 
L 325.413496 82.591251 
L 325.945264 83.603561 
L 326.209581 83.742875 
L 326.473395 88.824025 
L 326.739869 89.104092 
L 327.007666 89.021089 
L 327.273127 83.383427 
L 327.535824 81.951487 
L 327.803115 81.944045 
L 328.068502 81.538009 
L 328.601467 81.419681 
L 328.864105 81.639121 
L 329.398119 82.41428 
L 329.661684 82.381982 
L 329.926428 83.487664 
L 330.725225 84.080692 
L 331.524065 84.951208 
L 332.05426 89.271934 
L 332.587267 89.302 
L 332.849747 89.546941 
L 333.114149 89.502934 
L 333.383298 90.195337 
L 333.645446 90.426535 
L 333.912212 90.294266 
L 334.44573 90.432836 
L 334.71064 90.346906 
L 335.507553 90.519461 
L 335.779403 90.459082 
L 336.041221 86.066714 
L 336.571201 85.478647 
L 336.838822 86.13528 
L 337.105405 86.330707 
L 337.367253 86.353578 
L 339.226278 85.62972 
L 339.495735 85.671544 
L 340.023175 86.315872 
L 341.091146 86.385778 
L 341.356472 86.358143 
L 341.616372 85.862258 
L 341.881832 85.036642 
L 342.150926 85.024338 
L 342.413072 84.623661 
L 342.948062 84.618947 
L 343.209651 84.605205 
L 343.479695 84.342949 
L 344.542812 84.721548 
L 344.805009 84.707358 
L 345.338831 83.883033 
L 345.600247 83.996251 
L 345.869034 83.268473 
L 346.400405 83.351178 
L 346.663381 14.921889 
L 346.933166 14.464752 
L 347.194999 14.927892 
L 348.2643 15.290069 
L 348.525279 14.93072 
L 348.787309 15.577082 
L 349.052797 15.751622 
L 349.319617 15.348514 
L 349.854014 13.389283 
L 350.115836 16.143766 
L 350.385175 16.22915 
L 350.651063 13.697084 
L 350.916992 14.339974 
L 351.181646 16.451914 
L 351.446233 16.528567 
L 351.71441 14.00945 
L 351.974527 16.585027 
L 352.242625 16.131313 
L 352.509308 16.59614 
L 352.774747 16.570193 
L 353.039904 16.09832 
L 353.303019 16.524151 
L 353.571444 15.948041 
L 354.368081 15.707913 
L 354.630367 16.028663 
L 357.022896 15.269182 
L 357.28973 15.218328 
L 357.551772 14.731374 
L 357.818964 13.735088 
L 358.085434 15.053811 
L 358.348701 14.991844 
L 358.616851 13.57191 
L 358.8833 14.518284 
L 359.14804 14.949077 
L 359.413453 14.063777 
L 359.943614 14.913405 
L 362.067552 14.982417 
L 362.333011 13.57186 
L 362.601159 15.06542 
L 363.129986 15.175413 
L 363.397796 13.738908 
L 363.66453 15.300736 
L 363.928977 15.399913 
L 364.194889 15.177993 
L 364.460359 15.902546 
L 364.724307 15.551879 
L 365.25784 15.819791 
L 365.52048 15.098711 
L 365.78893 17.294746 
L 366.318961 17.552239 
L 366.585652 16.073861 
L 367.114766 19.01866 
L 367.64585 19.673209 
L 367.912265 19.95015 
L 368.178942 20.483494 
L 368.443516 19.898305 
L 368.709681 20.727988 
L 368.976077 21.178329 
L 369.241187 21.218912 
L 369.773027 24.045533 
L 370.038751 25.127351 
L 370.304662 26.727878 
L 370.56977 25.954158 
L 370.833508 31.384039 
L 371.098637 33.247913 
L 371.366544 33.852501 
L 371.632902 34.007096 
L 371.895392 38.900509 
L 372.165247 38.103074 
L 372.43015 43.228429 
L 372.692803 42.042621 
L 372.960516 43.027098 
L 373.223842 47.872534 
L 373.492035 49.436248 
L 373.760079 51.857775 
L 374.024051 56.532641 
L 374.286216 55.659 
L 374.551555 61.147227 
L 374.817319 60.540456 
L 375.082818 66.798136 
L 375.349066 66.311379 
L 375.617364 72.855477 
L 376.414477 80.999605 
L 376.677488 85.457512 
L 376.942254 85.821575 
L 377.210934 90.331427 
L 377.473929 92.028054 
L 378.006087 97.419386 
L 379.067487 104.296737 
L 379.601224 108.982716 
L 380.134994 111.688379 
L 380.661435 113.667653 
L 380.926777 115.747593 
L 381.989667 120.103197 
L 382.523428 120.797933 
L 383.321057 122.558115 
L 383.583094 122.388784 
L 383.85082 121.928968 
L 384.117095 122.416915 
L 384.382486 122.06218 
L 384.914106 122.133226 
L 385.176885 122.537525 
L 385.444291 121.477884 
L 385.977701 120.947368 
L 386.239414 119.991964 
L 386.508227 120.374036 
L 386.77353 118.891888 
L 387.305053 118.059475 
L 387.570184 117.969774 
L 387.833702 116.854764 
L 388.102957 116.505486 
L 389.433441 112.826062 
L 390.762041 109.239663 
L 391.023197 109.004843 
L 391.288949 108.520072 
L 391.823866 107.177535 
L 392.09053 107.381297 
L 392.886146 105.096255 
L 393.148288 104.096497 
L 393.678825 102.989326 
L 393.94513 103.156325 
L 394.475673 101.842216 
L 395.007055 99.922825 
L 396.075906 97.739938 
L 396.335688 96.525056 
L 397.137401 95.828683 
L 397.402846 94.53318 
L 397.663994 93.981182 
L 397.933069 92.985393 
L 398.19432 93.223636 
L 400.850397 88.22281 
L 401.116591 88.036512 
L 401.647689 90.223418 
L 401.914431 155.055691 
L 402.445057 157.516314 
L 402.709118 156.000677 
L 402.97456 156.565822 
L 403.240043 158.426521 
L 403.506053 156.891782 
L 403.771442 156.555056 
L 404.569035 156.660881 
L 404.833953 158.068312 
L 405.101979 156.656267 
L 406.162063 156.568501 
L 406.427558 159.006997 
L 406.695345 156.531341 
L 406.958515 157.970177 
L 407.227754 157.955095 
L 407.493895 156.994829 
L 407.755999 157.003461 
L 408.024643 156.555056 
L 408.289979 157.017204 
L 408.555742 157.03442 
L 408.818029 156.604024 
L 409.084778 157.070142 
L 409.35138 157.082843 
L 409.61808 156.648825 
L 409.882071 156.656664 
L 410.149259 157.107699 
L 410.415173 158.070396 
L 410.680818 156.655374 
L 411.477044 156.585915 
L 411.739162 157.96214 
L 412.271684 156.336261 
L 413.070504 156.136816 
L 413.333678 156.522361 
L 413.598683 156.484456 
L 413.866994 155.952304 
L 414.130166 156.276179 
L 414.396067 155.713862 
L 414.666768 156.009706 
L 414.926609 155.385124 
L 415.193051 155.220358 
L 415.723632 154.658884 
L 415.991738 156.02072 
L 416.257345 155.856103 
L 416.522761 154.721446 
L 416.789465 154.605847 
L 417.055698 154.003045 
L 417.317948 155.299144 
L 417.586392 155.005135 
L 417.85143 153.241183 
L 418.114509 153.461069 
L 418.381836 153.132629 
L 418.646705 152.083654 
L 419.181558 151.28741 
L 419.708462 150.26215 
L 419.976466 150.483922 
L 420.242985 151.932731 
L 420.50485 149.890398 
L 420.773131 151.061868 
L 421.303913 148.30039 
L 421.571181 147.494818 
L 421.83336 146.327218 
L 422.100901 145.774327 
L 422.366427 147.498886 
L 422.897931 141.467195 
L 423.163655 141.534867 
L 423.427159 142.054418 
L 423.692203 138.448223 
L 425.021206 131.297206 
L 425.28642 130.84627 
L 425.551903 126.418528 
L 425.817506 127.052934 
L 426.3513 120.264937 
L 427.147992 113.28573 
L 427.411699 112.353743 
L 427.94531 106.110451 
L 428.474846 103.847885 
L 428.741617 101.859283 
L 429.272847 96.854786 
L 429.803857 92.859772 
L 430.067291 92.65214 
L 430.33462 93.229391 
L 431.131677 85.955431 
L 432.193642 78.153636 
L 432.458368 76.408834 
L 432.726654 75.465337 
L 432.990098 74.976199 
L 433.25874 73.944242 
L 433.521585 72.461151 
L 433.789322 72.254958 
L 434.051299 71.312999 
L 434.31746 71.628589 
L 434.5828 71.608793 
L 434.849068 71.061906 
L 435.11688 70.924973 
L 435.381315 70.984162 
L 435.647905 70.764771 
L 436.179789 68.992385 
L 436.975637 68.167067 
L 437.241902 68.090811 
L 437.505394 68.360658 
L 438.301578 68.438353 
L 438.835689 69.113392 
L 439.365724 69.292148 
L 439.630247 70.432362 
L 439.900027 70.945116 
L 440.429699 71.129777 
L 440.695284 70.980986 
L 441.491421 71.144264 
L 442.022876 72.852749 
L 442.819902 73.223757 
L 443.34955 74.896669 
L 443.615277 74.94782 
L 443.87942 75.170584 
L 444.145995 75.245699 
L 444.410875 74.472525 
L 444.677301 74.677725 
L 445.207485 74.731804 
L 445.739285 72.453659 
L 446.270772 72.723704 
L 446.535867 73.041428 
L 447.067101 73.114757 
L 447.332395 73.881729 
L 448.131253 74.413386 
L 449.191932 77.082831 
L 449.45912 77.084567 
L 449.725839 76.95721 
L 450.25395 77.50643 
L 451.052557 79.181673 
L 451.582201 80.181729 
L 452.115495 80.694037 
L 452.380608 80.65643 
L 452.645903 80.994495 
L 453.706576 81.474256 
L 454.240152 81.43263 
L 454.771163 81.688685 
L 455.037433 81.642197 
L 455.302097 81.133164 
L 455.567406 79.982482 
L 456.098798 80.074118 
L 456.628372 85.998397 
L 457.160313 86.491752 
L 457.69286 87.637125 
L 458.223769 87.868174 
L 458.489105 88.356965 
L 458.753871 89.423453 
L 459.019959 89.508044 
L 459.284638 89.419186 
L 459.550162 88.583202 
L 459.815783 88.444384 
L 460.347743 87.308437 
L 460.612976 87.207672 
L 461.143774 86.003358 
L 461.409744 85.85293 
L 461.675736 81.250698 
L 461.941491 69.844643 
L 463.26968 67.528841 
L 463.534731 68.580495 
L 463.799875 68.677142 
L 464.065619 68.557524 
L 464.331137 70.119252 
L 464.597522 70.930579 
L 464.862991 71.078427 
L 465.128116 71.445169 
L 465.925908 75.157139 
L 466.192296 75.755277 
L 466.456616 76.005726 
L 466.721769 80.822684 
L 466.987922 82.006012 
L 467.518488 82.76321 
L 468.050592 85.569092 
L 468.581441 85.877687 
L 469.113534 85.951611 
L 469.378015 86.167628 
L 469.909468 86.209997 
L 470.97217 86.143168 
L 471.503984 90.378857 
L 472.035263 90.466673 
L 472.831469 90.443206 
L 473.362557 90.408972 
L 473.362557 90.408972 
" clip-path="url(#pc2e139d4e0)" style="fill: none; stroke: #ff0000; stroke-opacity: 0.8; stroke-linecap: square"/>
   </g>
   <g id="line2d_45">
    <path d="M 304.426193 85.78625 
L 305.489889 85.78625 
L 305.754634 87.11167 
L 306.021587 87.11167 
L 306.286381 85.78625 
L 307.61396 85.78625 
L 307.882317 87.111571 
L 308.147934 85.78625 
L 308.413805 87.111521 
L 308.679753 85.78625 
L 308.943227 87.11167 
L 309.210598 87.11167 
L 309.476893 85.78625 
L 309.745581 89.762014 
L 310.006328 84.460681 
L 310.272907 83.135707 
L 310.537405 85.78625 
L 310.801464 89.762362 
L 311.069454 87.111521 
L 311.602172 88.436793 
L 311.86812 84.460979 
L 312.129732 83.135707 
L 312.398429 87.111521 
L 312.929242 81.810138 
L 313.195571 84.46083 
L 313.460447 88.436793 
L 313.7244 81.810486 
L 314.25758 87.111174 
L 314.522923 85.78625 
L 314.789171 81.810486 
L 315.05441 85.78625 
L 315.31991 85.78625 
L 315.587079 83.135558 
L 315.852472 85.78625 
L 316.116622 83.135558 
L 316.648149 83.13541 
L 316.910841 88.436942 
L 317.176442 85.78625 
L 317.710758 88.436991 
L 317.976056 87.111571 
L 318.242281 91.087633 
L 318.504944 88.436942 
L 319.039279 91.087683 
L 319.301727 89.762312 
L 319.835676 92.413004 
L 320.099891 90.424997 
L 320.364108 89.762263 
L 320.896522 92.412954 
L 321.164237 84.460929 
L 321.430145 88.43709 
L 321.692422 85.78625 
L 321.961014 87.774306 
L 322.226821 87.111521 
L 322.48941 87.11167 
L 322.75823 88.436942 
L 323.027266 88.436942 
L 323.286075 85.78625 
L 323.551613 81.810138 
L 323.817549 87.111819 
L 324.349319 79.159298 
L 324.614385 85.78625 
L 324.879584 87.111521 
L 325.148287 84.460681 
L 325.413496 83.920987 
L 325.679413 80.484916 
L 325.945264 83.135707 
L 326.209581 79.159298 
L 326.473395 85.78625 
L 326.739869 87.111521 
L 327.007666 84.460979 
L 327.273127 84.460979 
L 327.535824 89.762014 
L 327.803115 88.43709 
L 328.864105 80.484718 
L 329.398119 80.484916 
L 329.926428 83.135658 
L 330.195959 80.484817 
L 330.459108 81.810138 
L 330.725225 79.159496 
L 330.993082 85.78625 
L 331.256381 81.810188 
L 331.524065 83.135509 
L 331.789485 85.78625 
L 332.05426 87.111621 
L 332.317639 84.460879 
L 332.587267 87.111621 
L 332.849747 85.78625 
L 333.383298 85.78625 
L 334.185891 89.572988 
L 334.44573 89.762263 
L 334.71064 85.78625 
L 334.976702 89.762362 
L 335.246243 85.78625 
L 335.507553 88.436942 
L 335.779403 89.762213 
L 336.041221 88.43709 
L 336.310233 91.087584 
L 336.571201 88.436942 
L 336.838822 89.762213 
L 337.105405 85.78625 
L 337.367253 88.436793 
L 337.898741 83.135707 
L 338.164919 85.78625 
L 338.70093 85.78625 
L 338.96849 84.460681 
L 339.226278 85.78625 
L 339.495735 84.461326 
L 339.759748 87.111521 
L 340.023175 88.43709 
L 340.554707 83.13541 
L 340.824594 84.460979 
L 341.091146 84.460979 
L 341.356472 85.78625 
L 341.616372 83.13541 
L 341.881832 84.46083 
L 342.413072 85.78625 
L 342.948062 85.78625 
L 343.209651 83.135509 
L 343.479695 87.111571 
L 343.746192 87.111521 
L 344.009862 83.135558 
L 344.276822 84.46083 
L 344.542812 84.460929 
L 344.805009 86.448886 
L 345.07344 85.78625 
L 345.338831 83.135509 
L 345.600247 85.78625 
L 345.869034 83.135558 
L 346.134569 83.135509 
L 346.400405 85.78625 
L 346.663381 80.484817 
L 346.933166 84.460929 
L 347.194999 81.810237 
L 347.730162 84.460929 
L 347.990429 80.484718 
L 348.2643 80.484916 
L 348.525279 81.810138 
L 348.787309 75.183533 
L 349.052797 74.520749 
L 349.319617 76.508805 
L 349.585943 72.532693 
L 349.854014 65.906088 
L 350.115836 64.580519 
L 350.385175 67.231012 
L 350.651063 63.25495 
L 350.916992 62.592612 
L 351.181646 59.278838 
L 351.446233 59.278838 
L 351.71441 60.604407 
L 351.974527 51.326962 
L 352.242625 55.303074 
L 352.509308 51.326962 
L 352.774747 50.844969 
L 353.039904 47.35085 
L 353.571444 47.35085 
L 353.836658 44.700357 
L 354.105912 39.398825 
L 354.368081 39.398825 
L 354.630367 38.073405 
L 354.898335 38.073703 
L 355.161531 36.747935 
L 355.429145 39.398676 
L 355.69241 38.073653 
L 355.958147 38.073405 
L 356.226386 34.097442 
L 356.492889 38.073405 
L 356.757484 39.398676 
L 357.022896 35.422614 
L 357.28973 36.747985 
L 357.551772 34.097293 
L 357.818964 38.073504 
L 358.085434 35.422713 
L 358.348701 35.422713 
L 358.616851 38.073256 
L 359.14804 35.422713 
L 359.413453 35.181841 
L 359.67962 36.748084 
L 359.943614 35.422912 
L 360.210535 38.073405 
L 360.475234 35.422912 
L 360.742324 38.073256 
L 361.004945 35.422713 
L 361.275146 36.747985 
L 361.535866 36.748233 
L 361.801509 38.073157 
L 362.067552 38.073554 
L 362.333011 35.422713 
L 362.601159 34.097293 
L 362.866459 38.073405 
L 363.129986 36.085448 
L 363.397796 32.771972 
L 363.66453 35.422713 
L 363.928977 35.422813 
L 364.194889 39.398776 
L 364.460359 35.422664 
L 364.724307 34.097343 
L 364.992067 36.748084 
L 365.25784 34.097343 
L 365.52048 35.422713 
L 365.78893 34.097343 
L 366.055282 35.422713 
L 366.585652 35.422614 
L 366.848828 36.748134 
L 367.114766 35.422813 
L 367.381498 38.073455 
L 367.64585 38.79647 
L 367.912265 36.747985 
L 368.178942 38.073405 
L 368.709681 35.422664 
L 368.976077 35.422515 
L 369.241187 36.748084 
L 369.504731 36.747836 
L 369.773027 35.177376 
L 370.038751 35.422565 
L 370.304662 39.398676 
L 370.56977 38.073256 
L 370.833508 38.073554 
L 371.098637 34.097492 
L 371.366544 36.748134 
L 371.632902 35.422713 
L 371.895392 35.422664 
L 372.43015 32.772072 
L 372.692803 35.422713 
L 372.960516 39.398726 
L 373.223842 36.748233 
L 373.492035 39.398825 
L 373.760079 39.398776 
L 374.024051 47.351148 
L 374.286216 46.025678 
L 374.817319 50.001641 
L 375.082818 55.302975 
L 375.349066 53.977554 
L 375.879896 59.279136 
L 376.148148 64.580668 
L 376.414477 67.231211 
L 376.677488 64.580519 
L 376.942254 60.604407 
L 377.210934 63.917933 
L 377.473929 69.881853 
L 377.74159 72.532693 
L 378.006087 72.532693 
L 378.270178 68.556929 
L 378.538558 72.532693 
L 378.804661 79.159298 
L 379.067487 77.834374 
L 379.335871 80.484916 
L 379.601224 80.484916 
L 379.867027 85.78625 
L 380.134994 84.460681 
L 380.396692 81.810486 
L 380.661435 83.798194 
L 381.458389 92.413004 
L 381.726708 89.762511 
L 381.989667 95.063844 
L 382.255024 96.389115 
L 382.523428 96.389066 
L 382.789914 101.690499 
L 383.053819 99.039857 
L 383.321057 103.015968 
L 383.583094 104.341289 
L 383.85082 103.015869 
L 384.117095 104.341289 
L 384.382486 104.341141 
L 384.649064 106.991981 
L 384.914106 106.991981 
L 385.176885 109.642573 
L 385.711037 116.269377 
L 385.977701 116.932161 
L 386.239414 120.245488 
L 386.508227 121.570809 
L 386.77353 119.582803 
L 387.036256 120.245488 
L 387.305053 116.269525 
L 387.570184 120.245439 
L 387.833702 121.571008 
L 388.102957 118.920415 
L 388.368307 117.594648 
L 388.629898 118.257581 
L 388.898703 113.618735 
L 389.165213 117.595045 
L 389.433441 113.618784 
L 389.700486 112.293513 
L 389.961681 112.293166 
L 390.226405 114.944105 
L 390.495096 112.293662 
L 391.288949 108.317252 
L 391.557137 104.341289 
L 391.823866 109.642672 
L 392.09053 106.991832 
L 392.357731 109.642672 
L 392.618692 104.340992 
L 392.886146 105.666561 
L 393.148288 105.66671 
L 393.413487 104.341389 
L 393.678825 109.642921 
L 393.94513 108.317252 
L 394.210744 101.690548 
L 394.475673 104.341339 
L 394.747315 103.678554 
L 395.007055 99.039807 
L 395.27846 103.016018 
L 395.538421 103.016018 
L 395.809297 101.6903 
L 396.075906 101.690647 
L 396.604433 95.063546 
L 396.871087 95.063844 
L 397.137401 93.738424 
L 397.402846 95.726331 
L 397.663994 95.063844 
L 397.933069 95.063844 
L 398.19432 93.738622 
L 398.465774 95.064043 
L 398.732064 93.738771 
L 398.992167 96.389115 
L 399.262821 91.087584 
L 399.522949 91.087584 
L 399.788964 92.413004 
L 400.053541 91.087584 
L 400.585112 91.087584 
L 400.850397 88.436942 
L 401.116591 91.087683 
L 401.385281 91.087782 
L 401.647689 89.762362 
L 401.914431 87.11167 
L 402.179347 85.78625 
L 402.445057 87.111571 
L 402.709118 91.087633 
L 402.97456 89.762362 
L 403.240043 92.413103 
L 403.506053 93.738374 
L 404.037082 99.039807 
L 404.307654 99.039757 
L 404.569035 100.365227 
L 404.833953 104.341141 
L 405.365895 104.341289 
L 405.636654 108.317352 
L 405.898359 108.317352 
L 406.162063 109.642623 
L 406.958515 120.245439 
L 407.227754 117.594698 
L 407.493895 121.570809 
L 407.755999 118.920068 
L 408.555742 129.522834 
L 409.084778 126.872143 
L 409.882071 134.824366 
L 410.149259 134.824366 
L 410.415173 136.149588 
L 410.680818 133.498797 
L 410.941969 137.475207 
L 411.208044 136.149935 
L 411.477044 137.475207 
L 412.006134 134.824366 
L 412.271684 136.149787 
L 412.536445 134.824366 
L 412.801619 132.173824 
L 413.333678 134.824366 
L 413.598683 134.824366 
L 413.866994 133.499095 
L 414.666768 137.475356 
L 414.926609 136.812422 
L 415.193051 134.824466 
L 415.458469 138.800627 
L 415.723632 134.824416 
L 415.991738 136.149935 
L 416.257345 138.800577 
L 416.522761 137.475356 
L 416.789465 134.824664 
L 417.055698 136.149787 
L 417.85143 136.149935 
L 418.114509 134.824515 
L 418.381836 134.824515 
L 418.646705 132.173675 
L 418.911201 130.848255 
L 419.181558 133.499244 
L 419.445587 132.173824 
L 419.708462 132.173675 
L 419.976466 130.848403 
L 420.242985 136.149787 
L 420.50485 132.173824 
L 420.773131 136.149787 
L 421.040424 137.475207 
L 421.303913 132.173675 
L 421.571181 133.499244 
L 421.83336 136.149787 
L 422.100901 134.824366 
L 422.366427 137.475207 
L 422.633386 136.149787 
L 422.897931 136.149836 
L 423.163655 137.475108 
L 423.427159 136.149787 
L 423.961787 136.149787 
L 424.223811 137.475157 
L 424.49148 133.499045 
L 424.756968 137.475108 
L 425.021206 137.475157 
L 425.28642 136.149787 
L 425.551903 132.173724 
L 425.817506 130.848403 
L 426.086184 130.848304 
L 426.3513 128.197662 
L 426.61762 124.221699 
L 427.411699 128.197613 
L 427.679522 126.872292 
L 427.94531 121.570859 
L 428.207869 118.920217 
L 428.474846 110.967944 
L 428.741617 113.618834 
L 429.007448 114.944204 
L 429.537871 104.341389 
L 429.803857 105.666511 
L 430.067291 104.341289 
L 430.33462 105.666908 
L 430.866612 99.039807 
L 431.131677 101.690499 
L 431.662153 93.738424 
L 431.929157 92.412855 
L 432.193642 89.762511 
L 432.458368 93.075739 
L 433.25874 80.484718 
L 433.521585 88.436991 
L 434.051299 79.159298 
L 434.31746 83.135509 
L 434.5828 83.135509 
L 434.849068 82.17177 
L 435.11688 81.810436 
L 435.381315 73.857964 
L 435.647905 72.532594 
L 435.914442 73.857964 
L 436.179789 69.882001 
L 436.709942 69.882101 
L 436.975637 72.532693 
L 437.241902 69.881952 
L 437.505394 72.532693 
L 437.771729 72.532693 
L 438.038038 69.881853 
L 438.301578 68.556581 
L 438.568269 69.881952 
L 438.835689 69.881952 
L 439.101853 67.23126 
L 439.365724 67.23126 
L 439.630247 68.556581 
L 440.16256 68.556532 
L 440.429699 71.870008 
L 440.695284 68.556482 
L 440.957875 69.882051 
L 441.224391 70.544736 
L 441.491421 73.858064 
L 441.757278 72.532693 
L 442.022876 72.532544 
L 442.288949 73.857964 
L 442.554946 72.532693 
L 442.819902 73.857964 
L 443.085065 69.881704 
L 443.615277 75.183087 
L 444.677301 75.183236 
L 444.944982 73.857964 
L 445.207485 75.183236 
L 445.475562 77.834374 
L 445.739285 76.508805 
L 446.005541 77.834374 
L 446.270772 73.612527 
L 446.535867 73.195329 
L 446.803893 73.857964 
L 447.332395 73.858212 
L 447.600228 72.532693 
L 448.131253 75.183533 
L 448.395888 71.207372 
L 448.925842 79.159397 
L 449.45912 73.857865 
L 449.725839 71.207322 
L 449.990208 76.508656 
L 450.25395 79.159447 
L 450.521874 77.834126 
L 450.787227 79.159447 
L 451.052557 76.508755 
L 451.316941 79.159496 
L 451.582201 79.159496 
L 451.849646 80.484817 
L 452.115495 79.159397 
L 452.380608 80.484867 
L 452.645903 80.484867 
L 452.913817 79.159496 
L 453.177234 83.135658 
L 453.442763 81.147503 
L 453.706576 80.484916 
L 453.972482 81.810237 
L 454.240152 80.484916 
L 454.504556 81.810138 
L 454.771163 81.810287 
L 455.037433 84.46083 
L 455.302097 81.147602 
L 455.567406 83.135558 
L 455.832911 80.484569 
L 456.098798 81.809989 
L 456.362967 80.484916 
L 456.628372 83.135707 
L 456.89401 80.484916 
L 457.160313 83.135707 
L 457.425662 87.111819 
L 457.956944 81.810138 
L 458.223769 85.78625 
L 458.489105 87.111819 
L 458.753871 89.762362 
L 459.019959 88.43709 
L 459.550162 88.43709 
L 459.815783 89.762362 
L 460.081719 92.412855 
L 460.347743 92.412855 
L 460.612976 85.78625 
L 460.878276 83.135707 
L 461.143774 81.810138 
L 461.409744 86.449035 
L 461.941491 81.810138 
L 462.207129 84.46083 
L 462.473109 81.810138 
L 462.738445 80.484916 
L 463.003812 84.460979 
L 463.26968 76.508656 
L 463.534731 79.159496 
L 463.799875 80.484718 
L 464.597522 72.532544 
L 464.862991 72.532842 
L 465.128116 75.183385 
L 465.394315 72.532693 
L 465.925908 72.532544 
L 466.192296 71.207273 
L 466.456616 73.858113 
L 466.721769 75.183533 
L 466.987922 71.207422 
L 467.253524 76.508954 
L 468.315985 81.810138 
L 468.581441 87.111521 
L 468.847343 89.762362 
L 469.113534 87.11167 
L 469.378015 89.762362 
L 469.644569 88.436793 
L 469.909468 81.810138 
L 470.175945 85.78625 
L 470.70631 88.436991 
L 470.97217 88.436942 
L 471.238606 85.78625 
L 471.503984 84.46083 
L 472.035263 87.111571 
L 472.300708 85.78625 
L 472.565742 89.762362 
L 472.831469 89.762263 
L 473.097453 88.436942 
L 473.362557 89.762362 
L 473.362557 89.762362 
" clip-path="url(#pc2e139d4e0)" style="fill: none; stroke: #0000ff; stroke-linecap: square"/>
   </g>
   <g id="line2d_46">
    <path d="M 295.979375 36.172917 
L 481.809375 36.172917 
" clip-path="url(#pc2e139d4e0)" style="fill: none; stroke-dasharray: 7.4,3.2; stroke-dashoffset: 0; stroke: #000000; stroke-opacity: 0.7; stroke-width: 2"/>
   </g>
   <g id="line2d_47">
    <path d="M 295.979375 135.399583 
L 481.809375 135.399583 
" clip-path="url(#pc2e139d4e0)" style="fill: none; stroke-dasharray: 7.4,3.2; stroke-dashoffset: 0; stroke: #000000; stroke-opacity: 0.7; stroke-width: 2"/>
   </g>
   <g id="patch_8">
    <path d="M 295.979375 160.20625 
L 295.979375 11.36625 
" style="fill: none; stroke: #000000; stroke-width: 0.8; stroke-linejoin: miter; stroke-linecap: square"/>
   </g>
   <g id="patch_9">
    <path d="M 481.809375 160.20625 
L 481.809375 11.36625 
" style="fill: none; stroke: #000000; stroke-width: 0.8; stroke-linejoin: miter; stroke-linecap: square"/>
   </g>
   <g id="patch_10">
    <path d="M 295.979375 160.20625 
L 481.809375 160.20625 
" style="fill: none; stroke: #000000; stroke-width: 0.8; stroke-linejoin: miter; stroke-linecap: square"/>
   </g>
   <g id="patch_11">
    <path d="M 295.979375 11.36625 
L 481.809375 11.36625 
" style="fill: none; stroke: #000000; stroke-width: 0.8; stroke-linejoin: miter; stroke-linecap: square"/>
   </g>
  </g>
 </g>
 <defs>
  <clipPath id="p9018cc6db8">
   <rect x="50.099375" y="11.36625" width="185.83" height="148.84"/>
  </clipPath>
  <clipPath id="pc2e139d4e0">
   <rect x="295.979375" y="11.36625" width="185.83" height="148.84"/>
  </clipPath>
 </defs>
</svg>
