<?xml version="1.0" encoding="utf-8" standalone="no"?>
<!DOCTYPE svg PUBLIC "-//W3C//DTD SVG 1.1//EN"
  "http://www.w3.org/Graphics/SVG/1.1/DTD/svg11.dtd">
<svg xmlns:xlink="http://www.w3.org/1999/xlink" width="258.51pt" height="95.859375pt" viewBox="0 0 258.51 95.859375" xmlns="http://www.w3.org/2000/svg" version="1.1">
 <metadata>
  <rdf:RDF xmlns:dc="http://purl.org/dc/elements/1.1/" xmlns:cc="http://creativecommons.org/ns#" xmlns:rdf="http://www.w3.org/1999/02/22-rdf-syntax-ns#">
   <cc:Work>
    <dc:type rdf:resource="http://purl.org/dc/dcmitype/StillImage"/>
    <dc:date>2026-01-18T23:30:36.873592</dc:date>
    <dc:format>image/svg+xml</dc:format>
    <dc:creator>
     <cc:Agent>
      <dc:title>Matplotlib v3.6.3, https://matplotlib.org/</dc:title>
     </cc:Agent>
    </dc:creator>
   </cc:Work>
  </rdf:RDF>
 </metadata>
 <defs>
  <style type="text/css">*{stroke-linejoin: round; stroke-linecap: butt}</style>
 </defs>
 <g id="figure_1">
  <g id="patch_1">
   <path d="M 0 95.859375 
L 258.51 95.859375 
L 258.51 0 
L 0 0 
z
" style="fill: #ffffff"/>
  </g>
  <g id="axes_1">
   <g id="patch_2">
    <path d="M 35.2 70.76 
L 126.885 70.76 
L 126.885 7.2 
L 35.2 7.2 
z
" style="fill: #ffffff"/>
   </g>
   <g id="matplotlib.axis_1">
    <g id="xtick_1">
     <g id="line2d_1">
      <path d="M 39.3675 70.76 
L 39.3675 7.2 
" clip-path="url(#pe873d3d27a)" style="fill: none; stroke: #b0b0b0; stroke-opacity: 0.3; stroke-width: 0.8; stroke-linecap: square"/>
     </g>
     <g id="line2d_2">
      <defs>
       <path id="m7a50146a0a" d="M 0 0 
L 0 3.5 
" style="stroke: #000000; stroke-width: 0.8"/>
      </defs>
      <g>
       <use xlink:href="#m7a50146a0a" x="39.3675" y="70.76" style="stroke: #000000; stroke-width: 0.8"/>
      </g>
     </g>
     <g id="text_1">
      <!-- 0 -->
      <g transform="translate(36.3675 86.0925) scale(0.12 -0.12)">
       <defs>
        <path id="TimesNewRomanPSMT-30" d="M 231 2094 
Q 231 2819 450 3342 
Q 669 3866 1031 4122 
Q 1313 4325 1613 4325 
Q 2100 4325 2488 3828 
Q 2972 3213 2972 2159 
Q 2972 1422 2759 906 
Q 2547 391 2217 158 
Q 1888 -75 1581 -75 
Q 975 -75 572 641 
Q 231 1244 231 2094 
z
M 844 2016 
Q 844 1141 1059 588 
Q 1238 122 1591 122 
Q 1759 122 1940 273 
Q 2122 425 2216 781 
Q 2359 1319 2359 2297 
Q 2359 3022 2209 3506 
Q 2097 3866 1919 4016 
Q 1791 4119 1609 4119 
Q 1397 4119 1231 3928 
Q 1006 3669 925 3112 
Q 844 2556 844 2016 
z
" transform="scale(0.015625)"/>
       </defs>
       <use xlink:href="#TimesNewRomanPSMT-30"/>
      </g>
     </g>
    </g>
    <g id="xtick_2">
     <g id="line2d_3">
      <path d="M 111.118374 70.76 
L 111.118374 7.2 
" clip-path="url(#pe873d3d27a)" style="fill: none; stroke: #b0b0b0; stroke-opacity: 0.3; stroke-width: 0.8; stroke-linecap: square"/>
     </g>
     <g id="line2d_4">
      <g>
       <use xlink:href="#m7a50146a0a" x="111.118374" y="70.76" style="stroke: #000000; stroke-width: 0.8"/>
      </g>
     </g>
     <g id="text_2">
      <!-- 20 -->
      <g transform="translate(105.118374 86.0925) scale(0.12 -0.12)">
       <defs>
        <path id="TimesNewRomanPSMT-32" d="M 2934 816 
L 2638 0 
L 138 0 
L 138 116 
Q 1241 1122 1691 1759 
Q 2141 2397 2141 2925 
Q 2141 3328 1894 3587 
Q 1647 3847 1303 3847 
Q 991 3847 742 3664 
Q 494 3481 375 3128 
L 259 3128 
Q 338 3706 661 4015 
Q 984 4325 1469 4325 
Q 1984 4325 2329 3994 
Q 2675 3663 2675 3213 
Q 2675 2891 2525 2569 
Q 2294 2063 1775 1497 
Q 997 647 803 472 
L 1909 472 
Q 2247 472 2383 497 
Q 2519 522 2628 598 
Q 2738 675 2819 816 
L 2934 816 
z
" transform="scale(0.015625)"/>
       </defs>
       <use xlink:href="#TimesNewRomanPSMT-32"/>
       <use xlink:href="#TimesNewRomanPSMT-30" x="50"/>
      </g>
     </g>
    </g>
   </g>
   <g id="matplotlib.axis_2">
    <g id="ytick_1">
     <g id="line2d_5">
      <path d="M 35.2 67.870909 
L 126.885 67.870909 
" clip-path="url(#pe873d3d27a)" style="fill: none; stroke: #b0b0b0; stroke-opacity: 0.3; stroke-width: 0.8; stroke-linecap: square"/>
     </g>
     <g id="line2d_6">
      <defs>
       <path id="m3136d08f6c" d="M 0 0 
L -3.5 0 
" style="stroke: #000000; stroke-width: 0.8"/>
      </defs>
      <g>
       <use xlink:href="#m3136d08f6c" x="35.2" y="67.870909" style="stroke: #000000; stroke-width: 0.8"/>
      </g>
     </g>
     <g id="text_3">
      <!-- 0.00 -->
      <g transform="translate(7.2 72.037159) scale(0.12 -0.12)">
       <defs>
        <path id="TimesNewRomanPSMT-2e" d="M 800 606 
Q 947 606 1047 504 
Q 1147 403 1147 259 
Q 1147 116 1045 14 
Q 944 -88 800 -88 
Q 656 -88 554 14 
Q 453 116 453 259 
Q 453 406 554 506 
Q 656 606 800 606 
z
" transform="scale(0.015625)"/>
       </defs>
       <use xlink:href="#TimesNewRomanPSMT-30"/>
       <use xlink:href="#TimesNewRomanPSMT-2e" x="50"/>
       <use xlink:href="#TimesNewRomanPSMT-30" x="75"/>
       <use xlink:href="#TimesNewRomanPSMT-30" x="125"/>
      </g>
     </g>
    </g>
    <g id="ytick_2">
     <g id="line2d_7">
      <path d="M 35.2 40.615283 
L 126.885 40.615283 
" clip-path="url(#pe873d3d27a)" style="fill: none; stroke: #b0b0b0; stroke-opacity: 0.3; stroke-width: 0.8; stroke-linecap: square"/>
     </g>
     <g id="line2d_8">
      <g>
       <use xlink:href="#m3136d08f6c" x="35.2" y="40.615283" style="stroke: #000000; stroke-width: 0.8"/>
      </g>
     </g>
     <g id="text_4">
      <!-- 0.25 -->
      <g transform="translate(7.2 44.781533) scale(0.12 -0.12)">
       <defs>
        <path id="TimesNewRomanPSMT-35" d="M 2778 4238 
L 2534 3706 
L 1259 3706 
L 981 3138 
Q 1809 3016 2294 2522 
Q 2709 2097 2709 1522 
Q 2709 1188 2573 903 
Q 2438 619 2231 419 
Q 2025 219 1772 97 
Q 1413 -75 1034 -75 
Q 653 -75 479 54 
Q 306 184 306 341 
Q 306 428 378 495 
Q 450 563 559 563 
Q 641 563 702 538 
Q 763 513 909 409 
Q 1144 247 1384 247 
Q 1750 247 2026 523 
Q 2303 800 2303 1197 
Q 2303 1581 2056 1914 
Q 1809 2247 1375 2428 
Q 1034 2569 447 2591 
L 1259 4238 
L 2778 4238 
z
" transform="scale(0.015625)"/>
       </defs>
       <use xlink:href="#TimesNewRomanPSMT-30"/>
       <use xlink:href="#TimesNewRomanPSMT-2e" x="50"/>
       <use xlink:href="#TimesNewRomanPSMT-32" x="75"/>
       <use xlink:href="#TimesNewRomanPSMT-35" x="125"/>
      </g>
     </g>
    </g>
    <g id="ytick_3">
     <g id="line2d_9">
      <path d="M 35.2 13.359657 
L 126.885 13.359657 
" clip-path="url(#pe873d3d27a)" style="fill: none; stroke: #b0b0b0; stroke-opacity: 0.3; stroke-width: 0.8; stroke-linecap: square"/>
     </g>
     <g id="line2d_10">
      <g>
       <use xlink:href="#m3136d08f6c" x="35.2" y="13.359657" style="stroke: #000000; stroke-width: 0.8"/>
      </g>
     </g>
     <g id="text_5">
      <!-- 0.50 -->
      <g transform="translate(7.2 17.525907) scale(0.12 -0.12)">
       <use xlink:href="#TimesNewRomanPSMT-30"/>
       <use xlink:href="#TimesNewRomanPSMT-2e" x="50"/>
       <use xlink:href="#TimesNewRomanPSMT-35" x="75"/>
       <use xlink:href="#TimesNewRomanPSMT-30" x="125"/>
      </g>
     </g>
    </g>
   </g>
   <g id="line2d_11">
    <path d="M 39.3675 13.359657 
L 114.467002 13.359657 
L 114.585999 13.721503 
L 115.064845 19.238478 
L 115.303332 21.882164 
L 115.781755 26.775966 
L 116.978018 36.159206 
L 118.651636 44.486127 
L 118.890784 45.103522 
L 119.847735 50.574816 
L 120.445388 52.463086 
L 120.923851 53.943393 
L 122.7175 58.998876 
L 122.7175 58.998876 
" clip-path="url(#pe873d3d27a)" style="fill: none; stroke: #ff0000; stroke-opacity: 0.8; stroke-width: 2; stroke-linecap: square"/>
   </g>
   <g id="line2d_12">
    <path d="M 39.3675 67.870909 
L 39.847329 67.870909 
L 39.966194 63.537265 
L 40.085112 63.537265 
L 40.325409 59.925894 
L 40.68338 49.814057 
L 40.803275 51.258605 
L 41.042128 46.92496 
L 41.52123 37.896589 
L 41.640277 38.257562 
L 41.99979 33.201753 
L 42.119685 30.312656 
L 42.357379 23.81219 
L 42.476906 25.256738 
L 42.596348 23.089806 
L 42.835824 14.422735 
L 42.956365 15.144901 
L 43.07469 11.53353 
L 43.195506 12.978078 
L 43.434047 10.089091 
L 43.673019 12.978078 
L 43.79383 10.811256 
L 44.031612 15.144901 
L 44.390412 12.978078 
L 44.509987 13.700461 
L 44.629608 13.700352 
L 44.86964 11.53353 
L 44.989765 13.700352 
L 45.109803 12.911138 
L 45.227936 13.700352 
L 45.348282 12.977969 
L 45.467604 13.700352 
L 45.586082 13.700461 
L 45.707221 12.255913 
L 45.82526 12.255695 
L 45.945172 13.700243 
L 46.065725 12.255695 
L 46.185195 12.255804 
L 46.30382 12.978078 
L 46.424487 12.255804 
L 46.662835 13.700352 
L 46.782013 11.53353 
L 46.903489 15.144901 
L 47.141914 12.978078 
L 47.260284 14.101664 
L 47.380006 12.978078 
L 47.500703 12.978078 
L 47.738561 14.422626 
L 47.978763 12.978078 
L 48.097368 14.422626 
L 48.216951 13.700352 
L 48.456824 11.53353 
L 48.577203 12.978078 
L 48.815972 12.977969 
L 48.935756 13.700243 
L 49.055148 13.33927 
L 49.174061 14.422735 
L 49.412803 12.255913 
L 49.532332 13.700352 
L 49.651981 12.978296 
L 49.771788 13.700352 
L 49.892052 13.700243 
L 50.010944 12.255913 
L 50.251226 14.422735 
L 50.370745 13.700352 
L 50.490219 13.700352 
L 50.610226 12.616887 
L 50.729627 15.144791 
L 50.849098 12.255913 
L 50.967447 14.061544 
L 51.08688 13.700243 
L 51.207726 13.700352 
L 51.327606 12.978078 
L 51.446586 14.422735 
L 51.566381 13.700352 
L 51.686706 12.255913 
L 51.805991 13.33927 
L 51.92512 12.255913 
L 52.284473 12.255804 
L 52.404133 11.53353 
L 52.525642 13.700352 
L 52.644938 13.372086 
L 52.764054 12.255804 
L 53.003908 14.422626 
L 53.121566 12.978187 
L 53.241708 13.700352 
L 53.360635 12.978078 
L 53.481943 12.978078 
L 53.719741 14.422626 
L 53.838856 15.867175 
L 53.960224 15.144901 
L 54.077575 12.978078 
L 54.316961 12.978187 
L 54.43794 15.144901 
L 54.556474 14.061544 
L 54.678212 10.811256 
L 54.797783 12.978078 
L 55.034534 12.977969 
L 55.154158 14.422408 
L 55.273345 13.700352 
L 55.512662 12.122034 
L 55.634219 14.422517 
L 55.754255 12.978078 
L 55.871989 12.978187 
L 55.992254 14.422626 
L 56.232255 10.811256 
L 56.469151 12.978078 
L 56.590359 13.700461 
L 56.708175 12.255913 
L 56.829359 15.144901 
L 56.949442 12.255695 
L 57.068296 13.700461 
L 57.188505 13.700243 
L 57.308257 14.783818 
L 57.545253 12.255695 
L 57.786714 13.700352 
L 57.906652 12.255804 
L 58.142959 13.700352 
L 58.264537 13.700352 
L 58.382587 11.53353 
L 58.503237 12.978078 
L 58.621417 12.978078 
L 58.740954 14.422735 
L 58.980161 12.978078 
L 59.10133 13.700352 
L 59.220469 12.978078 
L 59.339083 12.978078 
L 59.45838 11.53353 
L 59.578349 12.978078 
L 59.699615 12.255804 
L 59.938331 14.422626 
L 60.057221 14.422626 
L 60.296348 12.977969 
L 60.535937 14.422626 
L 60.654565 13.700352 
L 60.775383 13.700352 
L 61.013715 12.255804 
L 61.252474 13.700352 
L 61.372435 12.978078 
L 61.49192 11.53353 
L 61.611313 12.255913 
L 61.731076 13.700352 
L 61.970195 11.533639 
L 62.090576 13.700352 
L 62.209018 11.533639 
L 62.447407 13.700352 
L 62.567069 11.533639 
L 62.807426 11.533639 
L 62.925906 14.904179 
L 63.04644 12.978078 
L 63.165081 12.978078 
L 63.285001 12.255913 
L 63.404132 13.700352 
L 63.643672 13.700461 
L 63.76288 12.255804 
L 63.882513 15.14501 
L 64.002956 12.978078 
L 64.122559 13.700461 
L 64.241326 11.533421 
L 64.361457 12.255695 
L 64.481613 14.422517 
L 64.600157 13.700352 
L 64.719645 12.255804 
L 64.960003 13.700243 
L 65.078403 12.978078 
L 65.199136 13.700352 
L 65.317538 13.700352 
L 65.437721 12.255913 
L 65.557209 12.255804 
L 65.677685 13.700352 
L 65.797104 12.978078 
L 65.916699 15.144901 
L 66.036597 13.700352 
L 66.154645 14.101446 
L 66.274744 13.700461 
L 66.394434 13.700352 
L 66.513412 12.255804 
L 66.633837 12.255695 
L 66.752509 12.978078 
L 66.872336 12.255695 
L 66.993159 12.978078 
L 67.112536 11.533421 
L 67.351658 12.978078 
L 67.4712 12.255913 
L 67.590781 13.339161 
L 67.71028 12.978078 
L 67.829879 12.978078 
L 67.949617 12.255804 
L 68.068075 12.978078 
L 68.187651 14.422626 
L 68.30711 14.422626 
L 68.426797 12.978078 
L 68.547527 14.422626 
L 68.666398 12.978078 
L 68.786317 13.700352 
L 68.906587 15.144901 
L 69.025979 13.700352 
L 69.26526 13.700352 
L 69.383472 15.144791 
L 69.622643 12.255804 
L 69.743042 13.700352 
L 69.862418 13.371977 
L 69.981922 13.700352 
L 70.220571 13.700352 
L 70.340198 14.422735 
L 70.45992 12.978187 
L 70.580689 13.700352 
L 70.700557 12.978187 
L 70.820625 13.700352 
L 70.938044 12.977969 
L 71.178776 14.422735 
L 71.296992 12.978078 
L 71.416367 13.700352 
L 71.536272 13.700352 
L 71.656736 12.978078 
L 71.775932 13.700352 
L 72.01528 13.700352 
L 72.13521 12.255804 
L 72.254169 12.978187 
L 72.373356 12.255695 
L 72.493342 15.144901 
L 72.612884 14.422626 
L 72.852904 12.255804 
L 72.972554 12.978078 
L 73.09155 12.978078 
L 73.211565 13.700352 
L 73.331112 15.867175 
L 73.449621 15.733295 
L 73.570585 12.255695 
L 73.689981 14.028728 
L 73.809221 13.700352 
L 73.929048 13.700352 
L 74.047799 12.978078 
L 74.167564 14.422735 
L 74.287265 14.422517 
L 74.406623 15.867175 
L 74.526414 14.422626 
L 74.766128 14.422735 
L 75.004142 12.978187 
L 75.124345 13.633413 
L 75.243074 12.977969 
L 75.363339 15.144901 
L 75.483112 14.061544 
L 75.601802 14.422626 
L 75.721523 14.422735 
L 75.842358 12.255804 
L 76.200067 14.422626 
L 76.320321 12.978078 
L 76.678239 12.978187 
L 76.797708 11.533421 
L 76.918723 12.255913 
L 77.038366 14.422626 
L 77.156665 12.978078 
L 77.277794 15.144901 
L 77.51597 13.700352 
L 77.755601 13.700352 
L 77.874203 12.978078 
L 77.994701 13.700352 
L 78.114253 10.811365 
L 78.47351 13.700243 
L 78.592693 14.422626 
L 78.713384 14.422626 
L 78.833029 12.978078 
L 79.07122 14.422626 
L 79.190513 15.867175 
L 79.31129 11.53353 
L 79.549089 12.978078 
L 79.668969 12.978078 
L 79.907919 14.422626 
L 80.029992 12.255804 
L 80.147854 14.422626 
L 80.266575 12.978078 
L 80.386387 15.144901 
L 80.506371 15.144901 
L 80.746659 14.422626 
L 80.865927 11.53353 
L 81.104188 13.700352 
L 81.224675 12.978078 
L 81.344097 14.422626 
L 81.462686 14.422626 
L 81.582297 12.978078 
L 81.822651 14.783709 
L 81.940758 12.977969 
L 82.060658 13.700352 
L 82.182274 13.700352 
L 82.3012 14.422517 
L 82.418945 11.533639 
L 82.53959 15.144901 
L 82.659141 12.977969 
L 82.778801 12.978078 
L 82.897646 14.422517 
L 83.13642 13.566255 
L 83.256196 14.422735 
L 83.377153 12.121815 
L 83.617175 14.422517 
L 83.735196 13.700461 
L 83.855107 14.422735 
L 83.975008 14.422517 
L 84.095799 12.255695 
L 84.333513 15.144901 
L 84.573168 13.700352 
L 84.691324 13.700352 
L 84.810546 12.255695 
L 84.931231 14.422626 
L 85.171559 11.53353 
L 85.288661 12.978187 
L 85.410222 15.867284 
L 85.528053 13.700352 
L 85.647365 14.422626 
L 85.767754 13.33927 
L 85.886657 15.144901 
L 86.006084 14.422626 
L 86.12691 11.53353 
L 86.24553 15.144901 
L 86.364975 12.255804 
L 86.485755 12.978078 
L 86.604109 14.422626 
L 86.723492 12.978078 
L 86.962798 15.144901 
L 87.082374 12.978078 
L 87.203014 14.422735 
L 87.321791 12.978078 
L 87.44101 13.700352 
L 87.560521 15.867284 
L 87.681729 12.978078 
L 87.799734 13.700352 
L 87.921249 11.53353 
L 88.039664 14.422626 
L 88.158518 12.977969 
L 88.279844 13.700352 
L 88.397608 13.700352 
L 88.517497 13.339161 
L 88.637765 14.422517 
L 88.757829 12.593665 
L 89.115668 13.700352 
L 89.235826 13.700352 
L 89.473611 12.978078 
L 89.714259 12.977969 
L 89.832947 11.53353 
L 89.954118 12.255695 
L 90.071685 12.255913 
L 90.191929 11.53353 
L 90.430957 11.533421 
L 90.550278 12.255804 
L 90.789834 14.422626 
L 90.90914 14.422735 
L 91.028154 13.700461 
L 91.148606 12.255586 
L 91.268104 13.33927 
L 91.38919 12.978078 
L 91.627584 15.144901 
L 91.74702 14.422408 
L 91.865499 12.978078 
L 91.986212 12.977969 
L 92.10593 13.700352 
L 92.225385 13.700134 
L 92.463228 11.894613 
L 92.583404 12.977969 
L 92.702507 11.53353 
L 92.822943 11.533639 
L 92.941963 12.255913 
L 93.062859 11.533421 
L 93.181891 11.53353 
L 93.420008 13.700352 
L 93.540728 12.978078 
L 93.660427 14.422626 
L 93.778748 14.422626 
L 93.898179 12.977969 
L 94.018881 14.422626 
L 94.139662 13.700352 
L 94.377124 13.700352 
L 94.497052 12.978078 
L 94.616847 12.978078 
L 94.73598 14.422626 
L 94.97455 12.978078 
L 95.095195 12.978078 
L 95.21419 13.33927 
L 95.334248 12.978078 
L 95.453475 12.255913 
L 95.573679 12.978187 
L 95.693309 12.255804 
L 95.811702 12.978187 
L 95.932009 14.422626 
L 96.051912 14.061435 
L 96.171451 14.422626 
L 96.289931 13.700461 
L 96.409911 13.700352 
L 96.529881 14.422626 
L 96.649259 10.811365 
L 96.889744 12.977969 
L 97.128084 11.533421 
L 97.367636 13.700243 
L 97.487092 12.255804 
L 97.606546 12.978078 
L 97.725822 14.422626 
L 97.845883 12.255804 
L 97.964298 12.978078 
L 98.083796 14.422626 
L 98.203396 13.700352 
L 98.324384 13.700352 
L 98.444378 12.255695 
L 98.562565 12.978187 
L 98.682381 12.978078 
L 98.801442 13.33927 
L 99.0405 11.53353 
L 99.160029 11.53353 
L 99.280887 13.700352 
L 99.40065 11.53353 
L 99.518885 13.700352 
L 99.639514 13.700352 
L 99.758537 14.422626 
L 99.878865 12.977969 
L 99.997088 14.422517 
L 100.117269 12.255804 
L 100.23649 12.978078 
L 100.356414 14.422735 
L 100.476061 14.422735 
L 100.71567 12.978078 
L 100.834891 13.700461 
L 101.073314 13.700134 
L 101.193677 15.867175 
L 101.433108 12.978078 
L 101.552002 13.339161 
L 101.672816 12.255695 
L 101.910559 14.422735 
L 102.030728 12.978078 
L 102.269358 12.978078 
L 102.389369 13.700352 
L 102.62833 13.700352 
L 102.74761 13.339161 
L 102.986855 15.144901 
L 103.227315 12.255804 
L 103.345539 14.422626 
L 103.585235 12.255804 
L 103.704826 12.978078 
L 103.823826 11.53353 
L 103.944613 14.422626 
L 104.183919 12.255804 
L 104.542196 15.144901 
L 104.662288 12.255804 
L 104.901799 14.422626 
L 105.141205 12.616887 
L 105.259832 13.700352 
L 105.37945 12.255804 
L 105.617608 12.255804 
L 105.737898 11.533421 
L 105.856991 12.255913 
L 105.976879 10.677376 
L 106.095916 13.700352 
L 106.335321 11.894613 
L 106.455962 10.811256 
L 106.694179 13.700352 
L 106.814189 12.977969 
L 106.93355 14.422626 
L 107.292205 12.255913 
L 107.411314 12.978078 
L 107.532059 12.977969 
L 107.65328 13.29915 
L 107.770239 12.978078 
L 107.890821 11.894722 
L 108.009509 12.978078 
L 108.128844 11.533421 
L 108.368149 12.977969 
L 108.488517 12.978078 
L 108.607207 12.255913 
L 108.727877 13.700352 
L 108.847552 12.978187 
L 109.085576 12.978078 
L 109.205122 14.422626 
L 109.325697 12.978187 
L 109.444958 13.700352 
L 109.564462 13.700352 
L 109.683528 12.978078 
L 109.803823 12.978078 
L 109.923206 12.122034 
L 110.042557 12.255913 
L 110.162206 14.422735 
L 110.282454 14.422517 
L 110.521358 11.53353 
L 110.639957 14.422517 
L 110.759564 12.255695 
L 110.99892 14.061544 
L 111.118968 13.700352 
L 111.238905 13.700352 
L 111.476919 12.715552 
L 111.717243 15.144901 
L 111.836489 15.144901 
L 112.075959 12.978078 
L 112.19523 15.144901 
L 112.314258 15.144901 
L 112.433589 11.53353 
L 112.553814 12.255804 
L 112.673159 14.422626 
L 112.79318 13.700352 
L 112.911952 14.422626 
L 113.03235 13.700352 
L 113.151437 15.144901 
L 113.271603 14.422626 
L 113.510535 12.255804 
L 113.629371 14.422626 
L 113.749264 12.255804 
L 113.869153 12.978078 
L 113.988638 14.422626 
L 114.108151 11.53353 
L 114.227677 12.255913 
L 114.346662 12.255913 
L 114.467002 13.700352 
L 114.585999 12.616996 
L 114.705624 12.977969 
L 114.825366 13.700352 
L 114.945286 12.978078 
L 115.423512 22.367641 
L 115.543126 20.20071 
L 115.662107 20.923093 
L 115.781755 23.089916 
L 115.901811 21.645476 
L 116.021507 23.089916 
L 116.260467 28.868217 
L 116.619096 32.479479 
L 116.738241 31.757205 
L 116.857898 31.757205 
L 116.978018 32.479479 
L 117.217007 37.535288 
L 117.336659 34.646192 
L 117.455816 35.368466 
L 117.575577 39.702111 
L 117.695033 37.535397 
L 117.814985 38.257562 
L 117.934216 37.535397 
L 118.173258 41.869042 
L 118.293148 40.424385 
L 118.532396 43.674782 
L 118.771394 45.480303 
L 119.010393 45.480521 
L 119.130115 46.202686 
L 119.369313 46.202686 
L 119.488839 49.091892 
L 119.608172 48.3694 
L 119.728053 49.452974 
L 119.847735 51.98077 
L 119.966912 49.091674 
L 120.086588 50.536222 
L 120.206126 49.814057 
L 120.445388 52.703262 
L 120.565227 51.980879 
L 120.684525 53.425427 
L 120.804291 51.258605 
L 120.923851 52.703262 
L 121.04351 52.703153 
L 121.282676 54.508784 
L 121.402175 54.147701 
L 121.522414 54.869975 
L 121.760894 57.036798 
L 121.880357 57.036798 
L 122.000446 55.59225 
L 122.239116 57.759072 
L 122.358825 58.481346 
L 122.478152 57.759072 
L 122.7175 59.925785 
L 122.7175 59.925785 
" clip-path="url(#pe873d3d27a)" style="fill: none; stroke: #0000ff; stroke-width: 2; stroke-linecap: square"/>
   </g>
   <g id="line2d_13">
    <path d="M 35.2 13.359657 
L 126.885 13.359657 
" clip-path="url(#pe873d3d27a)" style="fill: none; stroke-dasharray: 3.7,1.6; stroke-dashoffset: 0; stroke: #000000; stroke-opacity: 0.7"/>
   </g>
   <g id="patch_3">
    <path d="M 35.2 70.76 
L 35.2 7.2 
" style="fill: none; stroke: #000000; stroke-width: 0.8; stroke-linejoin: miter; stroke-linecap: square"/>
   </g>
   <g id="patch_4">
    <path d="M 126.885 70.76 
L 126.885 7.2 
" style="fill: none; stroke: #000000; stroke-width: 0.8; stroke-linejoin: miter; stroke-linecap: square"/>
   </g>
   <g id="patch_5">
    <path d="M 35.2 70.76 
L 126.885 70.76 
" style="fill: none; stroke: #000000; stroke-width: 0.8; stroke-linejoin: miter; stroke-linecap: square"/>
   </g>
   <g id="patch_6">
    <path d="M 35.2 7.2 
L 126.885 7.2 
" style="fill: none; stroke: #000000; stroke-width: 0.8; stroke-linejoin: miter; stroke-linecap: square"/>
   </g>
  </g>
  <g id="axes_2">
   <g id="patch_7">
    <path d="M 159.625 70.76 
L 251.31 70.76 
L 251.31 7.2 
L 159.625 7.2 
z
" style="fill: #ffffff"/>
   </g>
   <g id="matplotlib.axis_3">
    <g id="xtick_3">
     <g id="line2d_14">
      <path d="M 163.7925 70.76 
L 163.7925 7.2 
" clip-path="url(#p8e35977754)" style="fill: none; stroke: #b0b0b0; stroke-opacity: 0.3; stroke-width: 0.8; stroke-linecap: square"/>
     </g>
     <g id="line2d_15">
      <g>
       <use xlink:href="#m7a50146a0a" x="163.7925" y="70.76" style="stroke: #000000; stroke-width: 0.8"/>
      </g>
     </g>
     <g id="text_6">
      <!-- 0 -->
      <g transform="translate(160.7925 86.0925) scale(0.12 -0.12)">
       <use xlink:href="#TimesNewRomanPSMT-30"/>
      </g>
     </g>
    </g>
    <g id="xtick_4">
     <g id="line2d_16">
      <path d="M 235.543374 70.76 
L 235.543374 7.2 
" clip-path="url(#p8e35977754)" style="fill: none; stroke: #b0b0b0; stroke-opacity: 0.3; stroke-width: 0.8; stroke-linecap: square"/>
     </g>
     <g id="line2d_17">
      <g>
       <use xlink:href="#m7a50146a0a" x="235.543374" y="70.76" style="stroke: #000000; stroke-width: 0.8"/>
      </g>
     </g>
     <g id="text_7">
      <!-- 20 -->
      <g transform="translate(229.543374 86.0925) scale(0.12 -0.12)">
       <use xlink:href="#TimesNewRomanPSMT-32"/>
       <use xlink:href="#TimesNewRomanPSMT-30" x="50"/>
      </g>
     </g>
    </g>
   </g>
   <g id="matplotlib.axis_4">
    <g id="ytick_4">
     <g id="line2d_18">
      <path d="M 159.625 60.166667 
L 251.31 60.166667 
" clip-path="url(#p8e35977754)" style="fill: none; stroke: #b0b0b0; stroke-opacity: 0.3; stroke-width: 0.8; stroke-linecap: square"/>
     </g>
     <g id="line2d_19">
      <g>
       <use xlink:href="#m3136d08f6c" x="159.625" y="60.166667" style="stroke: #000000; stroke-width: 0.8"/>
      </g>
     </g>
     <g id="text_8">
      <!-- −1 -->
      <g transform="translate(139.858125 64.332917) scale(0.12 -0.12)">
       <defs>
        <path id="TimesNewRomanPSMT-2212" d="M 3484 2000 
L 116 2000 
L 116 2256 
L 3484 2256 
L 3484 2000 
z
" transform="scale(0.015625)"/>
        <path id="TimesNewRomanPSMT-31" d="M 750 3822 
L 1781 4325 
L 1884 4325 
L 1884 747 
Q 1884 391 1914 303 
Q 1944 216 2037 169 
Q 2131 122 2419 116 
L 2419 0 
L 825 0 
L 825 116 
Q 1125 122 1212 167 
Q 1300 213 1334 289 
Q 1369 366 1369 747 
L 1369 3034 
Q 1369 3497 1338 3628 
Q 1316 3728 1258 3775 
Q 1200 3822 1119 3822 
Q 1003 3822 797 3725 
L 750 3822 
z
" transform="scale(0.015625)"/>
       </defs>
       <use xlink:href="#TimesNewRomanPSMT-2212"/>
       <use xlink:href="#TimesNewRomanPSMT-31" x="56.396484"/>
      </g>
     </g>
    </g>
    <g id="ytick_5">
     <g id="line2d_20">
      <path d="M 159.625 38.98 
L 251.31 38.98 
" clip-path="url(#p8e35977754)" style="fill: none; stroke: #b0b0b0; stroke-opacity: 0.3; stroke-width: 0.8; stroke-linecap: square"/>
     </g>
     <g id="line2d_21">
      <g>
       <use xlink:href="#m3136d08f6c" x="159.625" y="38.98" style="stroke: #000000; stroke-width: 0.8"/>
      </g>
     </g>
     <g id="text_9">
      <!-- 0 -->
      <g transform="translate(146.625 43.14625) scale(0.12 -0.12)">
       <use xlink:href="#TimesNewRomanPSMT-30"/>
      </g>
     </g>
    </g>
    <g id="ytick_6">
     <g id="line2d_22">
      <path d="M 159.625 17.793333 
L 251.31 17.793333 
" clip-path="url(#p8e35977754)" style="fill: none; stroke: #b0b0b0; stroke-opacity: 0.3; stroke-width: 0.8; stroke-linecap: square"/>
     </g>
     <g id="line2d_23">
      <g>
       <use xlink:href="#m3136d08f6c" x="159.625" y="17.793333" style="stroke: #000000; stroke-width: 0.8"/>
      </g>
     </g>
     <g id="text_10">
      <!-- 1 -->
      <g transform="translate(146.625 21.959583) scale(0.12 -0.12)">
       <use xlink:href="#TimesNewRomanPSMT-31"/>
      </g>
     </g>
    </g>
   </g>
   <g id="line2d_24">
    <path d="M 163.7925 38.98 
L 166.42479 38.878368 
L 168.577441 38.763938 
L 168.934987 38.845994 
L 169.414765 38.92483 
L 169.652936 38.662242 
L 170.132221 38.752519 
L 170.370172 38.966356 
L 170.72882 38.976568 
L 170.969196 39.268202 
L 171.328489 39.337949 
L 171.685284 39.35583 
L 171.925703 38.553597 
L 172.163561 38.520525 
L 172.403763 38.302959 
L 172.522368 38.279675 
L 172.641951 38.377133 
L 172.881824 38.79629 
L 173.121659 38.856588 
L 173.360756 39.319262 
L 173.599061 39.344241 
L 173.837803 39.679033 
L 173.957332 39.655113 
L 174.076981 39.800877 
L 174.317052 40.629827 
L 174.557309 40.555885 
L 174.795745 39.551447 
L 175.035226 39.403394 
L 175.274098 40.216306 
L 175.752606 39.883315 
L 176.46965 39.533311 
L 176.709473 39.85948 
L 177.307035 39.677529 
L 177.428908 39.762911 
L 177.666708 40.211666 
L 177.906943 40.127957 
L 178.144741 40.404867 
L 178.86294 39.725601 
L 179.339795 39.492336 
L 179.579158 38.986483 
L 179.8192 38.902626 
L 180.059219 39.131527 
L 180.296989 39.046865 
L 180.53546 38.80468 
L 180.775469 38.759765 
L 181.015359 39.233837 
L 181.254359 39.151019 
L 181.493296 38.886418 
L 181.613505 38.863092 
L 181.733257 38.30262 
L 181.970253 34.688958 
L 182.211714 34.683111 
L 182.567959 35.415598 
L 182.689537 35.570684 
L 182.928237 36.107427 
L 183.046417 3.734582 
L 183.405161 3.675111 
L 183.764083 3.843354 
L 184.124615 4.125709 
L 184.721348 4.345711 
L 185.797435 4.457407 
L 187.47144 4.131429 
L 188.427956 3.852146 
L 188.786457 3.862104 
L 189.385003 3.713755 
L 191.537536 3.757145 
L 192.254879 4.525141 
L 192.374617 4.564951 
L 192.73211 5.083579 
L 193.091398 6.561307 
L 193.331587 7.251547 
L 193.450979 7.535978 
L 193.69026 9.189068 
L 194.047643 12.636329 
L 194.88492 20.835251 
L 196.200932 38.624975 
L 197.397554 50.771927 
L 198.712265 60.538556 
L 199.310634 62.405271 
L 199.668074 63.160597 
L 200.146523 63.86713 
L 200.625067 64.212282 
L 200.745321 64.184697 
L 200.864188 64.290355 
L 200.983874 64.214612 
L 201.821872 62.359084 
L 202.781921 57.354857 
L 203.855594 50.630781 
L 204.213579 48.425037 
L 204.931371 44.894978 
L 205.171659 44.020139 
L 205.290927 43.848378 
L 205.887686 41.662613 
L 206.127691 41.311699 
L 206.607274 39.152226 
L 206.7262 39.314241 
L 207.322646 38.64095 
L 207.56142 38.028994 
L 207.802153 37.72166 
L 208.160196 37.081399 
L 208.280107 36.956271 
L 208.520799 36.54044 
L 208.998168 36.271242 
L 209.116324 36.256518 
L 209.235546 73.464266 
L 209.835222 74.228257 
L 210.192754 74.286012 
L 210.55191 74.20635 
L 211.269612 73.632255 
L 211.746791 73.266256 
L 212.704844 73.034304 
L 213.062765 73.029685 
L 213.301285 73.165661 
L 215.931694 73.837681 
L 217.606891 73.699502 
L 217.725389 73.616492 
L 217.965728 73.22473 
L 218.085427 73.066402 
L 218.323179 71.894038 
L 218.443881 70.763602 
L 219.041847 70.619554 
L 219.279849 70.785 
L 219.520195 70.533451 
L 219.998679 70.320716 
L 220.236702 70.742775 
L 220.596451 70.756843 
L 220.954881 70.53004 
L 221.193203 70.607753 
L 221.314744 70.485082 
L 221.553084 70.658325 
L 221.67298 70.583981 
L 222.031546 64.913433 
L 222.508796 55.589414 
L 223.4655 36.915444 
L 224.422088 23.097776 
L 225.021642 17.682718 
L 225.738159 12.745674 
L 226.335559 10.064543 
L 226.933658 7.978144 
L 227.652315 6.613468 
L 228.369613 5.92183 
L 228.728153 5.87541 
L 229.087288 5.926448 
L 229.566205 6.212934 
L 229.80445 6.781839 
L 230.520916 8.11734 
L 231.000835 9.098389 
L 231.239189 10.27177 
L 231.477824 10.997435 
L 232.315821 15.797422 
L 232.913517 20.847688 
L 233.272552 24.757136 
L 234.228823 34.367557 
L 234.707454 38.72523 
L 234.946358 40.674255 
L 235.064957 40.82021 
L 235.663905 45.132883 
L 236.381205 49.692911 
L 237.098159 52.344571 
L 237.696603 53.566342 
L 238.054371 53.791556 
L 238.294153 53.153965 
L 238.771662 52.49989 
L 239.489845 50.62345 
L 239.728332 49.269411 
L 239.968126 48.643556 
L 240.087107 48.780634 
L 240.685467 47.511172 
L 241.403018 46.258489 
L 241.642007 45.497951 
L 241.880816 45.166062 
L 242.120033 44.445842 
L 242.239985 44.233531 
L 242.479032 43.227461 
L 242.598258 43.797149 
L 243.196394 43.503184 
L 243.435393 43.324623 
L 243.674525 43.594202 
L 243.913839 43.29083 
L 244.153053 42.999365 
L 244.391912 42.779214 
L 244.511588 43.063984 
L 244.870388 42.736862 
L 245.109525 43.418056 
L 246.185894 42.778028 
L 246.544463 42.45724 
L 246.783825 45.068095 
L 247.1425 44.999577 
L 247.1425 44.999577 
" clip-path="url(#p8e35977754)" style="fill: none; stroke: #ff0000; stroke-opacity: 0.8; stroke-width: 2; stroke-linecap: square"/>
   </g>
   <g id="line2d_25">
    <path d="M 163.7925 38.98 
L 164.750409 38.98 
L 164.869998 38.414041 
L 164.988579 38.414041 
L 165.10838 39.546002 
L 165.347323 37.84806 
L 165.825561 40.111961 
L 165.94623 39.82895 
L 166.065277 38.414083 
L 166.185298 38.413977 
L 166.304085 38.98 
L 166.42479 40.11194 
L 166.66324 37.847996 
L 166.782379 39.545981 
L 166.901906 38.413977 
L 167.021348 40.111961 
L 167.141081 39.545959 
L 167.260824 40.111898 
L 167.49969 38.98 
L 167.620506 40.112004 
L 167.740033 40.11194 
L 167.859047 38.98 
L 167.978469 38.98 
L 168.098019 37.847996 
L 168.21883 39.545938 
L 168.337991 37.84806 
L 168.577441 40.111876 
L 168.815412 37.847996 
L 168.934987 39.545938 
L 169.173996 39.546065 
L 169.414765 37.282058 
L 169.534803 38.361561 
L 169.652936 40.677942 
L 169.892604 38.414041 
L 170.011082 38.414062 
L 170.132221 39.546065 
L 170.25026 39.545938 
L 170.370172 38.413956 
L 170.490725 38.414041 
L 170.610195 39.545959 
L 170.849487 38.413998 
L 170.969196 38.98 
L 171.087835 38.414041 
L 171.328489 39.545959 
L 171.566914 38.98 
L 171.685284 38.351137 
L 171.925703 40.11194 
L 172.045251 38.414041 
L 172.2839 39.828929 
L 172.403763 37.848081 
L 172.522368 40.11194 
L 172.641951 38.414019 
L 172.762676 38.414019 
L 172.881824 38.98 
L 173.002203 38.98 
L 173.121659 37.848039 
L 173.240972 38.98 
L 173.360756 38.414125 
L 173.480148 39.26299 
L 173.599061 38.98 
L 173.71969 37.848124 
L 173.837803 38.413935 
L 173.957332 40.677942 
L 174.196788 39.545875 
L 174.435944 39.546065 
L 174.557309 40.677942 
L 174.676226 38.98 
L 174.795745 39.546065 
L 174.915219 41.809797 
L 175.154627 39.546065 
L 175.274098 40.677942 
L 175.392447 39.263033 
L 175.51188 39.545875 
L 175.632726 38.414125 
L 175.871586 41.244007 
L 175.991381 40.677942 
L 176.111706 39.546065 
L 176.35012 40.677942 
L 176.46965 39.545938 
L 176.589889 39.546065 
L 176.709473 38.413998 
L 176.950642 40.677921 
L 177.069938 39.494518 
L 177.189054 39.545981 
L 177.307035 40.677921 
L 177.428908 38.98 
L 177.666708 40.677942 
L 177.785635 40.11194 
L 177.906943 40.111961 
L 178.144741 38.98 
L 178.263856 41.24388 
L 178.385224 39.546002 
L 178.624854 41.243944 
L 178.86294 38.414041 
L 178.981474 39.82895 
L 179.103212 39.545938 
L 179.222783 40.111961 
L 179.339795 40.111834 
L 179.459534 38.98 
L 179.579158 38.98 
L 179.698345 39.546065 
L 179.8192 39.546002 
L 179.937662 40.782816 
L 180.296989 38.98 
L 180.417254 38.98 
L 180.53546 38.414062 
L 180.775469 38.413935 
L 180.894151 38.98 
L 181.015359 38.414062 
L 181.133175 40.677942 
L 181.254359 39.545938 
L 181.374442 39.545938 
L 181.493296 38.414062 
L 181.613505 39.545875 
L 181.853036 38.98 
L 181.970253 39.545938 
L 182.089715 38.98 
L 182.211714 39.546002 
L 182.449449 37.848039 
L 182.567959 37.282058 
L 182.807587 35.58418 
L 183.046417 35.584159 
L 183.165954 36.716141 
L 183.288332 35.018178 
L 183.405161 35.584138 
L 183.52633 33.886196 
L 183.645469 35.584159 
L 183.88338 32.18836 
L 184.003349 31.056356 
L 184.124615 31.622294 
L 184.242925 29.358457 
L 184.363331 29.924437 
L 184.482221 32.188317 
L 184.721348 29.924458 
L 184.840087 29.358457 
L 185.079565 25.962615 
L 185.200383 25.962594 
L 185.559232 22.000772 
L 185.797435 22.000772 
L 185.91692 19.736913 
L 186.036313 20.302979 
L 186.156076 18.038972 
L 186.276068 20.302703 
L 186.395195 19.736786 
L 186.634018 17.473054 
L 186.752825 17.884648 
L 186.872407 17.47297 
L 187.232426 17.473054 
L 187.350906 18.856417 
L 187.47144 17.473054 
L 187.710001 19.170848 
L 187.829132 18.038972 
L 188.307513 18.038887 
L 188.547559 16.906926 
L 188.786457 19.170975 
L 188.906613 17.473054 
L 189.025157 18.038972 
L 189.144645 18.03895 
L 189.264951 17.755918 
L 189.385003 16.907053 
L 189.624136 18.038908 
L 190.102685 18.038908 
L 190.222104 17.473054 
L 190.341699 18.038908 
L 190.461597 18.038972 
L 190.579645 18.227533 
L 190.699744 16.906968 
L 190.819434 18.038908 
L 190.938412 16.906904 
L 191.058837 16.906968 
L 191.177509 18.60491 
L 191.297336 18.03895 
L 191.418159 18.60491 
L 191.537536 17.472949 
L 191.655883 19.170869 
L 191.8962 18.038972 
L 192.015781 18.321941 
L 192.13528 17.47297 
L 192.254879 18.604931 
L 192.374617 18.038972 
L 192.493075 18.60491 
L 192.612651 17.472949 
L 193.091398 17.472991 
L 193.211317 18.03895 
L 193.69026 18.03895 
L 193.808472 16.906926 
L 193.928034 18.038972 
L 194.168042 18.03895 
L 194.287418 17.884584 
L 194.526211 18.038802 
L 194.645571 19.170848 
L 194.765198 16.341051 
L 195.005689 18.03895 
L 195.125557 16.341114 
L 195.482645 22.566711 
L 195.603776 22.000772 
L 195.721992 20.86879 
L 195.841367 23.698714 
L 195.961272 23.132712 
L 196.081736 22.000751 
L 196.44028 28.226474 
L 196.56021 28.226517 
L 196.679169 27.660451 
L 196.918342 31.622316 
L 197.037884 33.320321 
L 197.158479 32.188317 
L 197.277904 32.754256 
L 197.397554 32.18836 
L 197.874621 35.689012 
L 197.995585 33.886323 
L 198.114981 34.863812 
L 198.234221 39.546065 
L 198.354048 37.282058 
L 198.592564 42.375862 
L 198.712265 40.677942 
L 198.951414 43.507803 
L 199.071987 43.507803 
L 199.191128 44.63987 
L 199.429142 43.507803 
L 199.549345 44.021325 
L 199.788339 46.337684 
L 199.908112 47.186634 
L 200.026802 46.903665 
L 200.267358 49.733505 
L 200.388189 50.299422 
L 200.505351 51.997406 
L 200.625067 51.431425 
L 200.745321 51.431468 
L 200.864188 52.563386 
L 200.983874 54.827309 
L 201.222708 54.827245 
L 201.343723 55.393289 
L 201.581665 58.223087 
L 201.702794 57.657148 
L 201.94097 59.921156 
L 202.060399 58.789152 
L 202.180601 59.921092 
L 202.419701 59.921092 
L 202.539253 58.789088 
L 202.781921 60.487115 
L 202.89851 61.053096 
L 203.017693 60.48703 
L 203.855594 53.129367 
L 203.974089 53.695348 
L 204.093969 53.695326 
L 204.332919 51.431468 
L 204.572854 50.299506 
L 204.691575 49.167545 
L 204.811387 49.733505 
L 205.051057 45.488713 
L 205.171659 43.507781 
L 205.290927 44.639764 
L 205.410047 44.639764 
L 205.529188 45.205681 
L 205.649675 43.507781 
L 205.887686 43.507803 
L 206.127691 41.809861 
L 206.365758 41.243944 
L 206.485658 41.810009 
L 206.607274 42.941864 
L 206.843945 38.98 
L 206.96459 39.545938 
L 207.084141 38.98 
L 207.322646 38.98 
L 207.442402 39.546065 
L 207.56142 39.441043 
L 207.681196 38.98 
L 207.802153 39.650812 
L 207.922224 38.98 
L 208.042175 40.112004 
L 208.160196 39.545938 
L 208.400008 36.716141 
L 208.520799 36.150055 
L 208.877393 37.84806 
L 208.998168 37.282058 
L 209.235546 37.282058 
L 209.356231 36.716205 
L 209.596559 36.716162 
L 209.835222 38.98 
L 209.953053 38.414019 
L 210.072365 41.243922 
L 210.192754 39.82895 
L 210.311657 40.677921 
L 210.431084 42.375841 
L 210.55191 42.375841 
L 210.67053 44.073762 
L 210.910755 42.375841 
L 211.029109 44.639764 
L 211.148492 44.639743 
L 211.269612 46.903644 
L 211.507374 45.771683 
L 211.628014 48.035605 
L 211.746791 48.035605 
L 211.985521 51.431404 
L 212.106729 50.299485 
L 212.224734 50.865487 
L 212.464664 53.695284 
L 212.583518 53.695348 
L 212.822608 56.525208 
L 212.942497 56.242324 
L 213.182829 58.627243 
L 213.301285 58.223214 
L 213.421672 57.657148 
L 213.660826 61.052884 
L 213.898611 59.35509 
L 214.018588 59.35509 
L 214.139259 60.48703 
L 214.379118 58.789025 
L 214.496685 59.921028 
L 214.616929 59.355154 
L 214.855957 59.355027 
L 214.975278 61.052968 
L 215.094558 61.053074 
L 215.214834 59.355048 
L 215.453154 61.053053 
L 215.573606 59.920944 
L 215.931694 60.486946 
L 216.052584 59.921156 
L 216.17202 60.48703 
L 216.411212 60.48703 
L 216.53093 61.053032 
L 216.650385 61.053032 
L 216.888228 59.638059 
L 217.127507 59.355027 
L 217.247943 59.35509 
L 217.366963 59.921028 
L 217.487859 59.355154 
L 217.606891 59.355027 
L 217.845008 61.052947 
L 217.965728 60.487094 
L 218.443881 60.48703 
L 218.564662 61.05299 
L 218.802124 61.053032 
L 218.922052 60.48703 
L 219.16098 60.48703 
L 219.279849 60.770021 
L 219.759248 59.35509 
L 219.998679 60.486988 
L 220.118309 59.921092 
L 220.236702 60.486988 
L 220.357009 60.48703 
L 220.476912 60.770063 
L 220.596451 60.48703 
L 220.714931 61.052968 
L 220.834911 59.92105 
L 220.954881 60.48703 
L 221.074259 58.789067 
L 221.193203 58.78911 
L 221.314744 60.487115 
L 221.433353 58.78911 
L 221.553084 59.355175 
L 221.792636 61.053096 
L 221.912092 61.05299 
L 222.031546 59.921071 
L 222.150822 60.48703 
L 222.270883 58.789131 
L 222.389298 59.355048 
L 222.508796 60.48703 
L 222.628396 59.921092 
L 222.869378 59.920986 
L 223.107381 57.091147 
L 223.226442 56.80822 
L 223.346325 54.261307 
L 223.4655 54.827309 
L 223.585029 53.695305 
L 223.705887 55.393247 
L 223.943885 51.997406 
L 224.064514 49.733547 
L 224.183537 50.299549 
L 224.303865 50.299485 
L 224.422088 48.035605 
L 224.542269 48.601607 
L 224.66149 45.771598 
L 224.781414 46.903601 
L 225.021642 44.073804 
L 225.259891 45.205808 
L 225.380132 45.205681 
L 225.498314 42.941801 
L 225.618677 43.508014 
L 225.858108 38.98 
L 225.977002 39.262969 
L 226.217146 37.282058 
L 226.335559 37.848124 
L 226.455728 38.98 
L 226.694358 35.584138 
L 226.814369 35.018199 
L 227.05333 35.018199 
L 227.17261 35.301168 
L 227.5319 32.188296 
L 227.652315 32.754319 
L 227.891239 29.924416 
L 228.010235 30.490397 
L 228.129826 28.792497 
L 228.248826 29.924416 
L 228.487983 25.396614 
L 228.608919 24.830633 
L 228.728153 25.679583 
L 228.847873 23.698693 
L 228.967196 25.962573 
L 229.087288 23.698735 
L 229.205774 23.698693 
L 229.326799 23.132734 
L 229.446166 23.132691 
L 229.566205 20.019861 
L 229.684832 20.30283 
L 229.80445 19.170912 
L 229.924033 19.736913 
L 230.281991 18.038972 
L 230.401879 16.802094 
L 230.520916 18.03895 
L 230.641117 18.039014 
L 230.760321 17.755981 
L 230.880962 19.170975 
L 231.239189 17.47297 
L 231.35855 17.47297 
L 231.477824 16.906968 
L 231.717205 18.038972 
L 231.836314 17.473012 
L 231.957059 17.47297 
L 232.07828 17.598713 
L 232.195239 18.60491 
L 232.434509 17.472927 
L 232.553844 18.604995 
L 232.793149 17.47297 
L 232.913517 17.473012 
L 233.032207 20.302703 
L 233.152877 19.170848 
L 233.272552 19.73685 
L 233.391944 19.73685 
L 233.510576 19.170954 
L 233.630122 19.73685 
L 233.750697 19.73685 
L 234.348206 28.331475 
L 234.467557 28.22658 
L 234.587206 28.792391 
L 234.707454 31.05625 
L 234.82571 29.924395 
L 234.946358 31.056399 
L 235.064957 31.05625 
L 235.184564 31.622316 
L 235.304405 31.622316 
L 235.663905 35.018136 
L 235.782324 34.452261 
L 235.901919 36.921927 
L 236.021685 36.716141 
L 236.142243 38.414062 
L 236.261489 38.414041 
L 236.500959 40.111961 
L 236.62023 40.678005 
L 236.739258 39.545959 
L 237.098159 41.243922 
L 237.336952 44.639764 
L 237.45735 44.639743 
L 237.696603 45.771683 
L 237.816124 44.639721 
L 237.935535 45.205723 
L 238.174264 48.601607 
L 238.294153 48.035584 
L 238.413638 49.167587 
L 238.533151 49.167545 
L 238.652677 50.865402 
L 238.771662 49.733547 
L 238.892002 51.997406 
L 239.010999 51.714415 
L 239.130624 52.563408 
L 239.250366 51.997406 
L 239.370286 52.563344 
L 239.489845 50.865487 
L 239.609661 52.563408 
L 239.848512 49.73342 
L 239.968126 52.563344 
L 240.087107 51.997279 
L 240.326811 49.167482 
L 240.565949 46.337684 
L 240.685467 48.035753 
L 240.804585 45.771746 
L 240.92465 46.337536 
L 241.163241 48.035605 
L 241.282898 45.771683 
L 241.403018 46.337536 
L 241.522398 46.337684 
L 241.642007 45.771683 
L 241.761659 44.639679 
L 241.880816 46.337684 
L 242.120033 44.639743 
L 242.239985 46.337536 
L 242.479032 44.073804 
L 242.598258 44.639743 
L 242.718148 44.639637 
L 242.837806 44.073762 
L 242.957396 42.092893 
L 243.435393 42.941907 
L 243.555115 44.639764 
L 243.674525 43.507845 
L 243.794313 43.507781 
L 244.033172 45.205638 
L 244.153053 42.092872 
L 244.272735 42.375778 
L 244.391912 44.639658 
L 244.631126 42.94178 
L 244.750745 42.941737 
L 244.870388 41.809924 
L 244.990227 43.507824 
L 245.229291 41.80984 
L 245.348851 41.809945 
L 245.46851 42.941843 
L 245.587805 41.809882 
L 245.827175 42.941801 
L 245.947414 42.375841 
L 246.066433 43.507845 
L 246.185894 42.941843 
L 246.544463 42.941822 
L 246.664116 41.243901 
L 246.783825 41.809903 
L 246.903152 41.809861 
L 247.022899 43.507803 
L 247.1425 42.94178 
L 247.1425 42.94178 
" clip-path="url(#p8e35977754)" style="fill: none; stroke: #0000ff; stroke-width: 2; stroke-linecap: square"/>
   </g>
   <g id="line2d_26">
    <path d="M 159.625 17.793333 
L 251.31 17.793333 
" clip-path="url(#p8e35977754)" style="fill: none; stroke-dasharray: 7.4,3.2; stroke-dashoffset: 0; stroke: #000000; stroke-opacity: 0.7; stroke-width: 2"/>
   </g>
   <g id="line2d_27">
    <path d="M 159.625 60.166667 
L 251.31 60.166667 
" clip-path="url(#p8e35977754)" style="fill: none; stroke-dasharray: 7.4,3.2; stroke-dashoffset: 0; stroke: #000000; stroke-opacity: 0.7; stroke-width: 2"/>
   </g>
   <g id="patch_8">
    <path d="M 159.625 70.76 
L 159.625 7.2 
" style="fill: none; stroke: #000000; stroke-width: 0.8; stroke-linejoin: miter; stroke-linecap: square"/>
   </g>
   <g id="patch_9">
    <path d="M 251.31 70.76 
L 251.31 7.2 
" style="fill: none; stroke: #000000; stroke-width: 0.8; stroke-linejoin: miter; stroke-linecap: square"/>
   </g>
   <g id="patch_10">
    <path d="M 159.625 70.76 
L 251.31 70.76 
" style="fill: none; stroke: #000000; stroke-width: 0.8; stroke-linejoin: miter; stroke-linecap: square"/>
   </g>
   <g id="patch_11">
    <path d="M 159.625 7.2 
L 251.31 7.2 
" style="fill: none; stroke: #000000; stroke-width: 0.8; stroke-linejoin: miter; stroke-linecap: square"/>
   </g>
  </g>
 </g>
 <defs>
  <clipPath id="pe873d3d27a">
   <rect x="35.2" y="7.2" width="91.685" height="63.56"/>
  </clipPath>
  <clipPath id="p8e35977754">
   <rect x="159.625" y="7.2" width="91.685" height="63.56"/>
  </clipPath>
 </defs>
</svg>
